/* XPM */
static const char *activator_rail[] = {
/* columns rows colors chars-per-pixel */
"64 64 13 1 ",
"  c #310000",
". c #4A0303",
"X c #620202",
"o c #513D24",
"O c #67502C",
"+ c #7E6237",
"@ c #686868",
"# c #72796E",
"$ c #967441",
"% c #A6824D",
"& c gray61",
"* c #ABACAB",
"= c None",
/* pixels */
"========&&***&#@================================@#&**&*&========",
"========&&***&#@================================@#&**&*&========",
"========&&***&#@================================@#&**&*&========",
"========&&*&*&#@================================@#&**&&&========",
"====%%%+&&*&*&#@........$$$$%%%%%%%%$$%%........##&**&&&%%%%====",
"====%%%+&&*&*&#@..XX..X.$$%%%%%$$%%%%%$$...X.XX.##&**&&&%%$$====",
"====$$%$&&&&*&#@.XXXXX..%%%%$$%%%$%$$%%%.XXXX...##&**&&&%%%%====",
"====%%$+&&&&*&#@...XXXX.$$%%%%$$$%%%%%%%..XXXX..##&**&&&$$%$====",
"====$+++*&&**&#@ ...X.X.++$++$$%%%%%$$$%.XXX....@#&**&&*+$$$====",
"====$$++*&&**&#@ .XX....$++$$$%%$$%%%$$$...XX.. @#&***&*+++$====",
"====++OO**&**&#@   ... .OOO++O++++OOOOO+... .   @#&***&*OOO+====",
"====Oooo**&&*&#@      ..OooOOOOOoOOoooOO..      @#&***&*ooOO====",
"========&*&&*&##============..  . ..============@#&***&&========",
"========&*&**&##============.    .X.============@#&****&========",
"========&*&**&##============. .XXXX.============@#&****&========",
"========&*&**&##============ ...XX..============@#&*****========",
"========&&&**&##============ .XXXX..============##&**&**========",
"========&&***&##============ X.XX.X.============##&**&*&========",
"========&&***&##============...X....============##&**&*&========",
"========&&***&##============........============##&**&*&========",
"====%%%$&&*&*&##........%%$$%%%%%%$$%%%%........##&**&&&$%%%====",
"====$$%%&&*&*&##....X...$$%%%%$$%%%%%%$$........##&**&&&$$$%====",
"====%%$+&&&&*&##..XXXX .$%%$%%%%$$$$$%%%.X..XX..##&**&&*+$%%====",
"====$$++&*&&*&##...X.X. +$$%%%%%%$$%%%$%..XXXXX.##&**&&*$++$====",
"====$+$$&*&&*&#@..XX... %%%%%$$$$%%$$$%% ....XX.##&***&*++$$====",
"====$$++&*&&*&#@.XXXX.. %$$$$%%$$$%%%%%% ...XX..##&***&*++++====",
"====+++O&*&&*&#@.X....  OOOOOOO++++++OOO   .... ##&*&*&&+OOO====",
"====OOoo&*&&*&#@....    ooooOOoOooOOOOoo       .##&*&*&&OOoo====",
"========**&&*&#@============......  ============@#&*&**&========",
"========*&&&*&#@============...XX.. ============@#&*&**&========",
"========*&&&*&#@============..X.... ============##&*&**&========",
"========*&*&*&#@============.XXX.. .============##&*&*&&========",
"========&&*&*&##============..XXXX..============##&*&*&&========",
"========&&***&##============.XX.X...============##&*&&&&========",
"========&&***&##============...XXXX.============@#&*&&&&========",
"========&&&**&##============........============@#&*&&&&========",
"====%%%%*&&**&#@........%$$$%%%%%%$$++$$........@#&*&&*&%%%%====",
"====%%$+*&&**&#@....XXX.%%%%$$$%$+++$++$........@#&*&&*&$$%%====",
"====%%%+*&&**&##..XXXX..$$++$$$$%%$$%%%%..XXX...@#&**&*&+%%$====",
"====%$$$*&&**&##.XX.X...$+$$$%%%%%%$$$$% X.XXX..@#&**&*&+$$$====",
"====$++$*&&&*&##...XXX..%%%%$$$$$%%%%$%% ...X...@#&**&*&$$+$====",
"====$$++*&&&*&##..XX..X.$$%%%%%$$$$$$%%%. .XXX..@#&**&*&++$$====",
"====O+OO*&&&*&##....X...OOOOOO+O++OOOOOO  ...XX.@#&****&O+++====",
"====oooo*&&&*&##        ooooOOOOOOooooOO    ....@#&*&**&ooOO====",
"========*&&**&##============    ..X.============##&*&**&========",
"========*&&**&##============  ...XX.============##&*&&*&========",
"========*&&**&#@============   .XX..============##&*&&*&========",
"========*&***&#@============ .....X.============##&*&&*&========",
"========&&***&#@============ .XX.XX.============##&*&&&*========",
"========&&***&#@============. .XXXX.============##&*&&&*========",
"========&&*&*&#@============....XX..============##&*&&&*========",
"========&&*&*&#@============...X....============##&*&&&*========",
"====%%%%&&*&*&#@........%%%%%$$$%%%%%%%$....X...##&*&&&*%%%%====",
"====%%$$&&*&*&#@..XX.X..%%$$$%%$$$%%%%$$...XXXX.##&*&&&*$$%%====",
"====%$$+&&*&*&##.XX..XX.$%%$$$$%%%$$%%%%.X..XX..@#&*&&&*$%%%====",
"====%%$+&&&&*&##...XX.X.++$$%%%$$%%%%$$$..XXX...@#&*&&&*$$$%====",
"====%$$+&&&**&##..XXXX..%%%%$$%%%%%$$$%% ....XX.@#&*&&&&$$+$====",
"====$$++&&&**&##.XXX... %$$$%%%%$$$$++$% . .XX..@#&**&&&++$$====",
"====O++O&&&**&##.X..    +OO++OO+++OOOO++   .....@#&**&*&OOoO====",
"====ooOo&&&&*&##.....   OOoooOoOOOooOOOO        @#&**&*&ooOO====",
"========&&*&*&##================================@#&****&========",
"========&&*&*&##================================@#&****&========",
"========&****&#@================================@#&****&========",
"========&****&#@================================@#&****&========"
};
