/* XPM */
static const char *amethyst_cluster[] = {
/* columns rows colors chars-per-pixel */
"64 64 8 1 ",
"  c #64479E",
". c #7A5BB5",
"X c #8D6ACC",
"o c #B38EF3",
"O c #CFA0F3",
"+ c #FFFDD5",
"@ c #FECBE6",
"# c None",
/* pixels */
"################################################################",
"################################################################",
"################################################################",
"################################################################",
"################################################################",
"################################################################",
"###############################@O###############################",
"##############################@@oo##############################",
"#############################@O@oXo#############################",
"############################@OO@oXXo############################",
"###########################@OOO@oXXXo###########################",
"##########################@OOOO@oXXXXo##########################",
"#########################@OOOOO@oXXXXXO#########################",
"########################@OOOOOO@oXXXXXXO########################",
"#######################@OOOOOOO@oXXXXXXXO#######################",
"######################@OOOOOOOO@oXXXXXXXXO######################",
"#####################@OOOOOOOOO@oXXXXXXXXXO#####################",
"####################@OOOOOOOOOO@oXXXXXXXXXXO####################",
"###################@OOOOOOOOOOO@oXXXXXXXXXXXO###################",
"##################@OOOOOOOOOOOO@oXXXXXXXXXXXXO##################",
"##################@@@OOOOOOOOOO+oXXXXXXXXXXOOo##################",
"##################XoO@@@OOOOOOO+oXXXXXXXoOOX.X##################",
"##################X...oO@++OOOO+OXXXXoooX.....##################",
"##################X.....XXo+++++OOOooXXX..... ##################",
"##################X........XXoO@oXXXXXX...... ##################",
"##################X.........XXoOX....XXX..... ##################",
"###################X.........XXOX....XXX.....###################",
"###################X.........XXOX.....XXX... ###################",
"###################X..........XOX.....XXX... ###################",
"###################X...X......XOX......XXX.. ###################",
"###################X...XX.....XO.......XXX.. ###################",
"###################X....X.....XO........XXX. ###################",
"@@@@@@@@@##########X.....X....XO... ....XXX. ##########@@@@@@@@@",
"O@OOOOOOO@#########X..........XO...  ....XXX #########@OOOOOOO@O",
"Oo@OOOOOOO@#########X..........O...  ....XX.#########@OOOOOOO@oO",
"OXo@OOOOOOO@########X..........O..  ......X ########@OOOOOOO@oXO",
"OXXo@OOOOOO@O#######X..........o.. ........ #######O@OOOOOO@oXXO",
"OXXXo@OOOOO@XO######X..........o........... ######OX@OOOOO@oXXXO",
"OXXXXo@OOOO@XXO#####X .........o......X.... #####OXX@OOOO@oXXXXO",
"OXXXXXo@OOO@XXXO####. .........o......X.... ####OXXX@OOO@oXXXXXO",
"OXXXXXXo+OO@XXXXo### ..... ....o........... ###oXXXX@OO+oXXXXXXO",
"OXXXXXXXo+O@XX.XXo## ..... ....o.....X..... ##oXX.XX@O+oXXXXXXXO",
"OXXXXXXXXo+@XXX.XXo# .....  ...oX...XX..... #oXX.XXX@+oXXXXXXXXO",
"OoooooooooO+OXXXXXXo  ..... ...oX...X.....  oXXXXXXO+OoooooooooO",
"OXXX.XX...Xo@OX..XXXX  ........Xo........  XXXX..XO@oX...XX.XXXO",
"#OX........Xo@oX....XX   .......o......   XX....Xo@oX........XO#",
"##OX.........XOo...XX.X    .....o....    X.XX...oOX.........XO##",
"###OX....X....XOX....X.X      ..o.      X.X....XOX....X....XO###",
"####OX....X....XoX......X       X      .......XoX....X....XO####",
"#####OX..........o..  ...X      X     ....  ..o..........XO#####",
"######OX....XX....X..  ....     X    ....  ..X....XX....XO######",
"#######OX....XX....X.......     X    .  ....X....XX....XO#######",
"########oX..........X.  ....    X      .  .X..........Xo########",
"#########oX.... .....X.   ..    X   ..   .X..... ....Xo#########",
"##########oX.... .....X.   .    X  ..   .X..... ....Xo##########",
"###########o....  .....X.       X      .X.....  ....o###########",
"############o....    ....       X      ....    ....o############",
"#############X...        .      X     .        ...X#############",
"##############X...        .     o    .        ...X##############",
"##############.X..              O             ..X.##############",
"##############..X..            .O            ..X..##############",
"##############.......          XO.         .......##############",
"##############...             .oO.             ...##############",
"##############.              .XoOX.              .##############"
};
