/* XPM */
static const char *ancient_debris_side[] = {
/* columns rows colors chars-per-pixel */
"64 64 7 1 ",
"  c #331810",
". c #411E15",
"X c #4A2C23",
"o c #5D342C",
"O c #654740",
"+ c #7E6059",
"@ c #95867E",
/* pixels */
"oooooooOooooooooX.X....X.XX...  ...XoXoooOOOooOOOoOoooXoOOooOOoo",
"oooOooOOOoooooXXXX  .  .XX.    ...XXXoooOooOOooOOOooOooXooOOOooo",
"ooooOooOOOOoXXXX...  .XX....  ..XXXoooOOOOoooOOoOOOOoXoXXOOOoOOo",
"ooooOOOOOOoooX..X......XX.. .  ..XooXXoOOoOoOOoXXoOooX.XXoOoooOO",
"OoOOooOOOoooXXXoOOOO+@@@OXX...XXXoXXoXXooOoOOOOoXXXoXXX.XXXoXooo",
"OOOoXOOooooXXoOO++@@@@++++OO...XXXXOOoXXXoOOoOoOOXoooX..XXoXXXXO",
"OOoXXXoooXXXoOO++@@@++++++++OO...XOOOXXXOOOOOooooXXXXX.XXXXXXoOO",
"OoXXoooXoXXoOO++@@+++++++++++OO.XXXoOOoooOOOOOoX..XX...XX.XXoOoo",
"ooooooooXXoOO+O@++++++O++++OO++O...XoooooooOOoX..XX....XXX..XXXo",
"oooooXoooooO++++++++O++OO+OO++++O.XXXooOOoOOoXXXXX.XX.XXX..XXooX",
"oXXoXoooXoO++++++OOOOOOOOO++OOOO+OooXXooOOooOooXoXXX....XXXXooXX",
"XXooXXooXXO++++OOOOOOOooOOOOOOooOOXoXXXOOOOooXooXX........X.XXoo",
"oXoXXXoXXO++OOOOoOOOooOooooOOooOOoXXX.XoOooXXoXXO++@@@++++OO.XXo",
"XoXXXoXXXOO+OOOOOoooooooooOooOOOooXXXX.XoXXXXXX+@@@@@+++OO++OoXX",
"oXXXXoXXoOOO+OOooooooooXoooXOOooOXXoXX..X..X++@@@@@+OOOOOOO++OoX",
"X.XXXXXooOOOOOooooooXXXoooooXXXooooXX.. ..X+@@@@++OOOOOOOOOOOoXX",
"XX.XXXooooOOooooooXXXoooooXX.XooXXX..  ..X+@@++O+OOOOOOOOOOOOoXX",
"XX..XXXooooOOoooXXXXXXooXXXX..XXX..  ..XX+@+OO++OOOOOOOOOOOooooX",
"X.X..XXoXXXooooooXXXXXXooXXXX....   ....+++O+OOOooOOOOOOOOOOooXX",
"X.X....XXXooooXXXXXXXXXXXXXX.... .    .Xo+OOOOOOOoooOOoooOOoooXo",
"XXXX..XXXoX.XXXXXX+@@@++++@@XX.....  .XooooOOOooOOooooXooooooXoo",
"oX.X...X.XX...X.+@@@+++++++@@+XXX...  XXooXoOOOoooooXXooXooXoXoX",
"Xo......XX.. ..+@@+++++++++++@@+XX... .XXXXooooooooooXXXXoXXooXo",
"ooX.. ..X.. ..+@++++++++++++++@@++X. .. .XXXoooooXXXooXXXXXXooXX",
"oXX... .X..  +++++++OOO+++++++++@++XX  .....XXooooXXXXXXXXXoXXoX",
"XoX.X.  ..  ++O++OOO++OO++OO++++++++XX ....XXXXXoXXXXXX.XXXXXooX",
"XoXXX.  .  OOO++++O++OOOOO++OO+++++++X. ..X...XXXXXXXX....XXXoXX",
"XXXX...    oO+++++++O+OOO++++OO++++O++X. ... ...XXXX.XX.....XXXX",
"XXX.X...  OOOOOO+OO++++OOOOO++OOOO++OO+. ..   .XX..XX...   ...XX",
".XX.XX... oOoOO+++OO++OOOOO+OOOOO++++OO...  ........XX...   ...X",
"..XX.X.. .ooooOOO++OooOOOoOOoOOOOO+OO+oX. ..... .  ...    ...XX.",
"X.X..... .ooOOOOOOOOOooOOooOooOOOOOOoOoXo. ...   ...  . ....X.XX",
"XX..X.....XoooOooOOOOOOOoOOooOOooOOOooooXX..XXXO++@@@+++++OOO...",
".X.X......XooOOOoooOOOOooOooOoooOOOoooooX..XXO+++++@@@@@++++OOO.",
"X..XX.. ...XoooOOoOooOOooooooOoXXoooXoo..XOO+@@@+++++++@@@++++OO",
"O.XX..  ...XXoXooOooOOoooXoXooXXoXoooXXoOO++@@+++OOOOOOOO+@++++O",
"OX.. .  . ..XXooXXooooooooXXXXoXoooXXXoO+++@++OOOOOOOOOOOOOO+++O",
"OO..   .. .XXXXXXoooooooXXXXXoooooXXXoo+++++OOOOOOOO++OOOOOOOO++",
"OoX..  . ....XXoooXooXXXXXXooXXXoooXXoOO+++OOOOOOO+++O+OOOOOOOO+",
"OXX..    ...XXoooooXXXXXXXXXooXXXXoXoOOOOO++OOOO++++OOOOOOOOOOOO",
"OXo...  ...XXooOOOooXooXXXXXXXooXXXXooOOOOOO++OOO++OOOOOOOOOoOOO",
"OooX..  . .Xo++@@@++OOooXXXoXXXooXXXoOOOOOOOOOOOOOOOooOOOOOooOoO",
"OOXo..   .XoOO+++@@@+OOOOoXXoooXXXXXXoOoOOOOOOOOOOOOOoooOOOoOooo",
"oOoo. .  XooOOOO++++@@++OOooooXXX.XXXooOOOOOOOOoOOOOoooOOOOOOoOo",
"ooOX  . .XoOOOOO++OO++@@@+OOoooXXX..XXoOoOOOOoooooOOO++O+OOooOoo",
"oXoX .. .XooOOOOO++OO+++@@+OOOooX..X.XooooOOoooooOOO++++OOooOOoO",
"oXXX...  XXoOOOOOOO+OO+O++@++OOoX...X.XooooooOoOOooOOO++++OooOOO",
"XXX...   .XooOOOOOOOOOOOOO++++OOoX....XooooOOooooOOoOOOO+OOOooOo",
"XX  ..    XXoOOoOOOOOOOOOOO+++++o.X..XXXoOOOooOOooOOOOOOOOoOoooX",
"X...     .XXXoOooOOOOOOOOOOO+++Oo...XXXXXoOOOOOOOOOOOOOOOOoooXX.",
"XXX..  ....XXXooOOoOOOOO++O+++OOXX..X.XXXXXoooOOOOOOOOOOoooXX..X",
"XX.. .  ....XooOOoooooOOOO++OOOOXX....XXXoXoXooOOOOOOOoOOXXoXX..",
"@@@@++OXX..X..XooXXooOOOOOOOOOOoX.. ...XXXooXXXoooOOOoooXXoO++@@",
"@@@@@@@+OOXXX..XXXooOoOoOOOOOOoXX.  ......XXooXXoOOooOoooO+++@@@",
"+++++@@@+++O....oooOOOooOOOOooXXX.   ....XX..XXoooOOoooXO+@@++++",
"OO++++++@+++OXX..oOoOOOooOoooXoX.. .  ......XXoXoooooXXo+@@++++O",
"O++++O+OO++++O.X..XXooXXooXoooX..  ... ...XXooXXXXooXXoO++++++OO",
"++OO++OO++@@++O...XooXXXoXXXX.. .  .....XXXXXooXXoXXoXXO++O+OOOO",
"OO+OOOOOOO++@++.XX.XXooX.X. ...   ....XXooO+++OOoooXXoO+OOOO+OOo",
"OOOOOOOOOOOOO+OXXX. .XooX..  .   ...XXoOO+@@@@++OXXXoooOOoOOOooO",
"oooOOOooOOOOOOoOX... .XXXXX..... ..XoOOO+@++++@@@+XXXoOOOOooOOoo",
"ooOOOoXXoooOOooOX. . ...XXXX. ....XXXoO++OOOOOO+@@+oXXoOOooooooo",
"OOoooooXXoOOooOo.X  ..XXX..    .XXXXoooOoOOOoOOOO+@+ooXooOOooooo",
"oOOooXXoOooooooXoX. .XX.....  ...XXoXXooooOOOooOOO+++ooooooooooo"
};
