/* XPM */
static const char *anvil[] = {
/* columns rows colors chars-per-pixel */
"64 64 6 1 ",
"  c gray22",
". c gray24",
"X c gray26",
"o c gray29",
"O c gray32",
"+ c #5A5A5A",
/* pixels */
"......XX.X..XXXXXXXXooooooOOOOOO++++++OOOOooXXXXXXooooXXXXXX....",
"..XXXXXXXXXXXXXXXoOOOOOOOOOO++++++++++++OOOOOooooooooooooooooX..",
".XooooooXXXXXXoOOOOOOOOOOO+++++++OOO+++++OOOOOOOooooOOOOOoooooX.",
".ooooooXXXXooOOOOOOOOOOO+++++++++++OOO++++OOOOOOOOOOOOOOOOooooX.",
".oooooooooooOOOOOOOOOO+++++++OOO+++++OOOOO+OOOOOOOOOOOOOooooooo.",
".oooXooooooOOOOOOOOO++++++++++OOOO++++OOOOOOOOOOOOOOOoooooooooo.",
".XoXoooooooOOOOOOOO+++OOO+++OOOOOOOOOOOOOOOOOOOOOOOooooOOOooooo.",
".XoXooooooOOOOOOOO++OOOOOO+OOOOOOOOOOOOOOOOOOOooOOooooooOOOoooo.",
"..XXooooooOOOOooOO+OOOOO++OOOOOOOOOOOOOOOOOOOOOOoooOOOOOooOOooX.",
"..XXooooooOOoooOOOOOOOOOOOOOOOOOOOOOOOOOOOOOOOOOOOOOOOOOOOOoooX.",
"...XXoooooOoooooOOOOOOOOOOOOOOOOOOOOOOOOOOOOOOOOOOOOOOOOOOOooXX.",
"......XoooOoooooooOOOOOOOOOOOOOOOO+OOOOOOOOOOOOOOOOOOOOOOOoooXX.",
"....XX...XooooOooOOOOOOOOOOOO++OOOO++OOOOOOO++OOOOOOOOOOOoooXXXX",
"..XXXXXX..XXooOOOOOOOOOOOOOOOO++++OO+++OOO+++OOOOOOOOOooooXXXXXX",
".XoooooXXX..XoOOOOOOOOOOOOOOOOOO++++++++++++OoooOOOOOOOOoooooXXX",
".oooooooooX..ooOOOOOOOOOOOOOOOOOOO+++++++++OOOooooOOOOOOOOooooX.",
".ooOOOooooooXXoOOOOOOOOOOOOOOOOOOOOO+++++OOOOOOOooooooOOOOOOooXX",
".oooOOOOooooooXoOOOOOOOOOOOOooOOOOOOOOOOOOOOOOOOOoooooooooOOOoX.",
".XoooooOOooooOOOoooOOOOOOOooOOOooOOOOOOOOOOOOOOOOoooOoooooXXXXX.",
".XoooooooOoOOooOOoooooOOOooOOOooooOOOOOOOOOOOOOooooOOoooooooXXX.",
" XXoooooooooooOooOOooooXoooOOoOOooooOOOOOOOOOOooooOOoooooooooXX ",
" .XXXXooooooooooOOooXXXoooooOOOOOooOOOOOOOOOOOOOOOOOoooXXXXoooX ",
"   ...XXXXoooooooXXXXooooXXoooOOooOOOOOOOoooOOOOOOOooX...XXXXXX ",
".    ...XXXXooooXX.XXXooXXooooooOOOOOOoooooOOOOOoooo..  ..XXXXX ",
"...XXXooo...XoooooX....XXXXooooooooooooooOOOOoooooX..XX.   ..X. ",
"..XXXoooXXX..XooooooXX...XXXXoooooooooooooOOOOooXXXXXXXXX.  ... ",
"..XXXoooooooooXXooooooXX..XXXXXooooooooooooooooXXoooooXXXX.  .. ",
".XXXXXoooooooooooooooooXXX..XXXXXXooooooooooooooooooooooXXX.    ",
".XXXXXXXooooooXooooooooooXXXXoXooXXXXXoooooooooooooooooooXX.    ",
".XXXXXXXXXXXXXooooooooooooXXXXooXXXXXXXoooooooooOOOooooooXXX.   ",
".XXXXXXXXXXXXooooooooooooooXXXXXXXXXXoooooooooOOOOoooooooXX..   ",
".XXXXXXX..XXoooooooooooooooooXXXXXXXooooooooOOOoooooooooooX...  ",
" XXXXX..XXXXXXooooooooooooXooooXXoooooooooOOOOooooooooooooXX..  ",
" XXX...XXXXXXXXXooooooooXXooooXXXXooXooooOOOOoooooooooooooXX..  ",
" .X.....XX.XXXXXXXoooooooXXXXXXXoooXooooooOOOooOOooooooXooXX..  ",
" ..........XXXXXXXXoooXXXXXXXXXoooXXooooooOOooOOoooooooXooXX... ",
" ...XXXX..XXXXXXXoooXXXXXXXXXooXXXXXoooooooOOOoooOOoooXoooX.... ",
" X...XXXXXXXXXoooooXXXXXXoXXXXXXXXXXoooooooOOOOOooOOooXooXX.... ",
".XXX..XXXXXXXXXXoooooXXooXXXXXXXX.XoooooooOOOOOOOOOOooXooXX.X...",
".XXXXX..XXXXXXXXXXoooooXXXXXXX...XXoooooOOOOOOOOOOOOoXXooX..X...",
" .XXXXXXXXXX....XXXXXXXXXXXX...XXXooooOoooooOOOOOOOooXXoXX..XX..",
" .XXXXXXXX....XXXXXXXX.XXX...XXXooooooOoooOOOOOOOoooXXXoXX..XX..",
" ..XXXXXX...XXXXXXooXX.XX..XXX..XooXXooOOOOOOOooooooXXXXX..XXX. ",
" ...XXXX...XXXXXoooXX..X...XXXX..XXXooooOOOOoooooooXXXXX...XXX. ",
" ..........XXXooooXXX..XXX..XXXXXXooooooooooooooooXXXX....XXXX  ",
" .........XXXoooXXXX...XXXXX..XXooooooooooooooooXXXX.....XXXX.  ",
"  ........XXooXXXXX....XXXXoXXooooXXXXooooooooXXXX.....XXX....  ",
"  .......XXXXXXXXX......XXoXXXooooooXXXXooooXXXX.............   ",
"   ..X..XXXXXXXX...... .XXoXoXooooooooXXXXXX...XXXXX.......     ",
"    ..XXXXXXXX......... XXoooXXooooooooXXX....XXXX.....         ",
"      ................. XXooooXXXXXXXXXXX...XX......      ....  ",
" ..     ............... .XXooooXXXXXXXXX...XX.....    ......... ",
" .......  ..XXX.........  .XXXXXXXXXXXX.........XXXX........... ",
" ......... ...XXX........   ....XXXXX.........XXXXXX......XX....",
" .....XXXXXX....XX...XXX..     .............XXXXXXX....XXXXXXX. ",
" ..XXXXXXXX..XX..XXX..XXX....     ........XXXXXXXXX..XXX..X.... ",
" .XXXXXXXXXXX.XXXXXXXX.XXX...XX..........XXXXXXXXX....XXXX..... ",
" ...XXXXXXXXXXXXXXXXXXXXXXX...XXXXX.....XXXXXXXXXX......XXXX... ",
"  .....XXXXXXXXXXXXXXXXXXXXXX...XXXXX...XXX.XXXX.....XXX......  ",
"  ......XXXXXXXXXXXXXXXX.XXXXXXX..XXXX..XXX.XX....XXXXX.......  ",
"   ...XXXX....XXXXXXXX..XXXXXXXXXXXXXX..XXXX....XXXXX........   ",
"    XXXX.....XXXXX.....XXXXXXXXXXXXXXX...XXXX.XXX...........    ",
"      ...............XXXXX...XXXXXXXX.....................      ",
"            .......XXXXX....XXXXXX..........                    "
};
