/* XPM */
static const char *bamboo_door_bottom[] = {
/* columns rows colors chars-per-pixel */
"64 64 11 1 ",
"  c #998741",
". c #A99846",
"X c #B7AB49",
"o c #BBA84C",
"O c #C2B54E",
"+ c #C8B14D",
"@ c #D3BB50",
"# c #D9C25E",
"$ c #E3CC6A",
"% c #EFD97E",
"& c #F8E7A2",
/* pixels */
"&%$$####@++++@#########$$$$#####$$$$######$$$$&&&&@@++@@@@##@+..",
"&%$$####@+++@@@@####$$###$$$$##$$#######$$$#&&&%%%%%@++@+@##++..",
"%$$$####@@++++@@@@@###@@####@@@@@@##@@@@@@@&%%+++@$%%@+@+###+@. ",
"$$$$$##@@@+++++@@@@@@@@@@@###@++@@@@@@@@@@&%++++++@@$%@@@##@+@. ",
"  @@$##@+@+++@@@@+++@@@@@@@@@@@@@@@@++++@&&+@@@@@+++@$$@#@#@@#..",
"  @@$#@#++++++@@@@++++++@@@+++@@++@@@++++&%+++@@@@+++%$@@@##@#..",
" .@@$$@#@+++++++++++++++++@@+++@@+++++++&&+++@@@++++++%$+@####. ",
" .@#$$@@@+++oo+o++++++++++++++++++++++++&%+++++oo+o+++&$+@###@. ",
" .@##$#@+@++    ....ooo.....oo..o.oooo..&%.........o+o&%+@###+. ",
" .@##$#++@++   ...oooooooooooooooooooooo&%oooo......+o&%+###@+. ",
" .+@##@++@++  o@@@@@@###@@@@@#######@@@@@%$@@@@++o..+&&@+###@@..",
" .+@##@+@@++  +o@@@###@@@@########@@@@##@%%@@@@@o+..o&%+@##$@@..",
"..++$#@@@+++  ++o@#####$$$$####$$$########%$@@@o++..&%@+@##$#@..",
"..++$#@@@+++ .++@o@@@####$$$$$##$$$$#######%$$o+@+%&%@++#####@..",
"..@+$$#@@+@+ .++@@o@@@@@##@@##@@@@##@@@@@@@@$%%%%%%%@++@##$###..",
"..+@$$#@#@++ .++@@+o@@++@@@@@+++@@@@@@@@+++@##$%%%##+++@#@$###..",
" .+#$$#@#@++ .+@@@+#o++@@@@++++@@@+++++@@+++##@+++  ++@@#@$$##..",
" .@#$$###@@+ o+@@@@#@o+++++++++++@@++++++++@#@+@++. ++@@@@$$#@..",
" .@##$##@+@+.o+@+@@#@@o+O++++++++++++OOOO+@@#@@@++. ++@@@#$$#@. ",
" .###$##@+++.o+@+@@#@@+oXXOOOOXXOOXXXXXXoo@@##@@@+. ++@@@#$$#@. ",
" .###$#@@+++oo+++@@##@++@@@@@#@@@##@@@@+++@@##@+@+..+++@###$@@. ",
" .###$#@@+++oo+++@###@+@@@@@@#@@####@@+@++@@##@+++..+++@###$@@. ",
"..@####@@+++oo++@@###@+@@+@@##@#@###@@+@@+@#$#++++..+++@#@##@#  ",
"..@####@++++oo++@@###@+@++@@####@#@#@@@@@+@#$#++++. ++++@@##@#  ",
" .#@##@@+@++oo++@@##@@+@++@@####+@@#@#@+@+####+@++. ++++@@#$##  ",
" .#@##@@@@++oo++@@##@@+++@@@$###+@###@@+++####@@++. ++@+@##$#@  ",
"..@@##@+@@++.o+++@##@++++@#@$##@@@#$#@@+++@###@@++..++@@@#$$@@. ",
" .@@##@+@+++.o+++@##@++++@##$##@@@#$@#@+++@##$@@++. ++@@##$$@@. ",
"..+@##@+++++.o+++@@##+++@@####@@#@$$##++++@@$$@+++..++@+@#$#@+..",
"..+@#$@+++++..+++#@##@++@@@###@@##$$#@++++#@$$@+++..++@+@@##@+. ",
"..@@#$@@++++ .+++###@@++@+@###@+##$#@@+@++#@$#@+++..+@@+@@##@@. ",
"..@@#$@@+@++ .+++###@@++@+@#$#@+####@@+@++#@##++++o.+@@@#@###@..",
"..@@$$#@@@++ o+++@#$@#++@@@@$#++###$@@@@++####++++o.+@@@###$#@..",
"..@#$$#@@@++.o+++@#$##+@@@#@##+@###$@@@@@+###$++@+oo+@@###$$##..",
"o+$%%%%%$$$$+o++@@#$##+@+@###$@@#@#$#@@+@+###$@+@+o+$$$$%%%%%$+o",
".o#$$$$$$$$#o.++@@#$#@+++@###$@@#@#$#@@+++###$@@@+oo#$$$$$$$$#o.",
"..++@#@+++XXoo+++@###@+++@@#$$@#@@$$#@@@++####@@@+ooXX++++@@++. ",
"..+@@#@+@++X.o+++@###@+++@@##$@#@@$$#@@@++@#$#@+@+oo+++++@#@++  ",
" .+@#$@@@++X.o+@+@$#@@++@@@#####@@$#@@@@++@#$$@+++o.+++@+@##+@  ",
"  @@$$#@+++X.o+@+@$#@@++@@@@###@@@#@@@@@++@#$$@+++oo+++@@@##@@  ",
"&&&%$##@@+++oo+@@@$$@@+X+@@@#@@@@@@@@@@+X+@@#$@@++o.+++@@#$#@@  ",
"&%%$$##@@+++oo+@@@$$@@X++++++@++++@@+++++X@@#$@@++o.++@@@#$#@@  ",
"&%%$##@@@@++.o++@@#$@X@@##@@@@@@@@@@@@@@@@X@##@+++o ++@+@#$#@#  ",
"&%%$##@@+@++.o++@@##X@###@@#@@@@@@####@@@@@X@#++++. ++++@#$$@#. ",
"&%$$##@++@++.o++@@#X$$$####$$###@@@##$$####@X@+@++..+@++@@$$##. ",
"&%$$##@++@++..++@+X$$#####$$########$$##$$##@X@+++. +@++@@#$##. ",
"%$$$##@@++++..+++X@@@@@@@@@##@@+++@@@####@@@@+X+++. ++++@@#$#@..",
"$$$$##@@++@+..++X@@@@@@@++++++@@+++@@@@@@@+++++X++. ++++@@#$#@..",
"  @@$##@++@+ .+X++++++@@@++++++++@@+++++++++++++X+. +++@@@##@@..",
"..@@$##@@+@+ .X++++++++++++++++++++++++++++++++++X  +++@+@##@@..",
"..@#$###@@@+ ..ooooooooooooooooooo..............    +++++##$@+. ",
"..@#$$##@@++ .....ooo.oo..oo........    ....        +++++#$$@+..",
"..@@$$@#+@++ .++++@@@@######@@@@@@@@@@@@@@@++@@@++  ++@++@$#@@. ",
"..@@#$@#++++  ++@@@@@@@@########@@####@@@@###@@+++  ++@+@@$#@@. ",
"..@##$@@++++  +@#$$###$$$$$$$###############$$$#@+. ++@+@@##@+..",
" .@###@@@+++  @###$$#####$$$$$$$##########$$$$###@. ++@@+@##@+..",
"..##$#@@@+++ .+@@@@@####@@##@@@@@@@@@@@++@@@##@@@+..+@@@+#$#@+. ",
"..##$#@@@+@+ .+@@@@###@@@++@@@@@@@++++@@++@@@@@@@+..+@+@@#$#@+. ",
" .##$$#@@@@+..+++@@@@@@@@@@@++++@@@++++@@@@++@@@@+..+++@@#$$@@. ",
" .##$$#@@@++ .++@@@@@@++++@@@@+++++++@@+++++@@@@++..++++@#$$@@. ",
"..#@#$@@@@++ .++++++@@@++++++++++++++++@@+++++++++..++++@@#$#@..",
" .@@#$@@+@++..++++++++++++++++++++++++++++++++++++..++++@@#$##..",
"..+@##@@++++..ooooooooooooooooo...ooo...............++@+@@##@#..",
"..+@##@@@+++....ooooooo..o....  ....        ..  ....++@@@@##@@.."
};
