/* XPM */
static const char *bamboo_block[] = {
/* columns rows colors chars-per-pixel */
"64 64 11 1 ",
"  c #5A672A",
". c #657030",
"X c #758333",
"o c #708535",
"O c #828F38",
"+ c #809038",
"@ c #8A9A3D",
"# c #91A643",
"$ c #98B145",
"% c #ADBE4D",
"& c #B9DB5F",
/* pixels */
"X@@@#$#@+++@+@. oo++#$@@@@@+++..++@@####+@@@@+. o+@@$$###@+@++. ",
"XO@@$$#@@++@+@. oo+@#$@@+@@+++..++@@###@+@@#@+. o+@@$$##@@+@++. ",
"XO@@$###@+@@++. o+@@#$#@++@@++..o+@@###@+@#@@+. o+@@#$@#@+@@+o. ",
"XO@@$###@+@@++. o+@@#$#@@+@@+@..o+@@@##+@@#@@+. o+@@##@@++@@+o. ",
"XO@O####@@+@++. +++@#$#@@+@#@@..o+@+@##+@@@@+@. oo@@##@@@+@@+o..",
"XO@O####@@+@@+. +++@#$##@@#@@@..o+@+@#@@@@@@+@. o+@@###@@@@@+o..",
"OO@@##@#@@@@@+..+@+@#$$#@@#@@+..++@+##@@#+@@+@. o++@#$##@#@@++..",
"OOO@##@#@@@@@+..+@@+#$$#@@@@@+..++@+##@@#+@@++. o++@@$#@##@+++..",
"XOO@##@@+@@+@+..+@@+$$$$@#@@++..o+@+$#@@@+@+++. o+@@@#+@##++++..",
"XOO@##@@@+@+@@..++@@$$$$##@@++..o+@+$#@@@+@+++..o+@+@#++#@++o+..",
"XOO@##@@@+@@+@o#%%&&&&&&&&%&&%#oo+@@$##@@@@+o+. ++@+##@+@@+@oo..",
"XOO@##@@@+@@++.o#%%%%&%%%%%%%#o.o++@$##@@@++o+. ++@@##@@@#+@oo..",
"OOO@$#@@@@#@++. Xoo++@@@+OOOXX. o++@$##@@@+++o. o+@@#$+@@#@@+o..",
"OO@O$#@@@@#@++. oo++##@@@+OOXX. o+@@###@@@+@+o. o@+@#$+@@@@@+o..",
"OO@O$#@@+#@@+@. oo++###@@@O++X..o+@@#$@@@@+@oo. o++@#$@#@@@@+o..",
"OO@O$#@@+@@#+@. oo++###@@@+++X..o+@@#$@@@@+@oo. o+@#$###@@+@++..",
"OO@@#$#@+@##@@. o+@+##@#@@@+++. o++@#$#@@@@@oo. ++@#$#$#@#+@++..",
"OO@@#$#@+@##@@. o+@@##@#@@@+++. o++@$$#@@@@@o+..++##$$$###@+++..",
"OO@@#$$@++#@@@. o+@@##@@@@+@+O. +++@$##@@+@@++o#%%&&&&&&&&%&&%#o",
"OO@@$$$@+++@@+. o+@+##@@@@+@+O. +++@$#$@@+@@+@.o#%%%%%%%%%%%%#o.",
"OO@@$#$#@+@@@+. +@@+$#@+@@@@++. ++@@##$@@++@@@. XXO@@@@@@OXXXX. ",
"OO@@$###@+@@@+. +@+@$$@+@#@@O+. ++@@#$#@+@+@@@. X+@@###@@@OX+X. ",
"OO+@####@@@@+@..+@+@$$@@+@#@OO. ++@@##@@@@++@@. ++#@####@@O++X. ",
"OO@+##@#@@@++@. +++@$$@++@#@+O. ++@@##@#@#+@@@. ++#@##@#@#+++X..",
"OO@+##@@+@@@+@..+++@$$#@++@@+O. ++@@##@###@@@@..++@@##@@@#++XX. ",
"OO@@##@@++@@+@..++@@#$#@@+@@+O. ++@@##@#@#@@@@..@+@###@@@@++XX. ",
"OO@@##@@@+@@@@..++@@#$#@@@@+++. o+@@##@#@+@@@+..@+@###@@+@@+XO. ",
"XO@@##@#@+@@@@..++@@$##@@@@+++. o++@##@#@@+@@+. @+@#$#@@+@@+OO. ",
"OOO@$#@#@@@@@@..o+@+$##@@@@+++..+++@##@@+@+@++. +@@#$##@@+@+OO. ",
"XOO@$#@@@@+@@+..o+@+$###@+@+@+..++@@##@@+@@@++. +@@#$$#@++@@OX. ",
"XOO@$#@@#+@@@+..o++@####@+@@@+..o+@@##@@+@@@+O..+@+##$@@@+@@+X. ",
"XOO@$#@@#+@@@+..+++@##@#+@@@@+..o+@+##@@@+@@+@..+@+@#$@#@@@@+X. ",
"X@O@$#@##@@+@+..+o+@##@@++@#@+..o+@+##@@@+@@O@..+++@##@##@@@+X. ",
"X@O@$$@#@@@+++..+o+@##@@+@#@+@..o+@+#@@@@+@#@@..O++@###@#+@@++. ",
"O@@@$$@#@@@+++..o+@@##@@+@#@+@..o+@@#@#@@@@#@@..O++@#$#@@+#@++. ",
"XO@#$$##@@@+++..++@@##@@@+@#+@..o+@@#@#@@#@#@O..O++@###@@@#@+X. ",
"X@##$$#$#@++++..o+@@##@@@+@#@@..+++@###@@##@@O. O+@@#$@@@@@#@X..",
"O@##$$$$#@++++..o++@##@@@+@@@@..+++@###@@#@@@O..O+#@#$@@@@##@+..",
"%%&&&&&&&&%&&%#oo++@#$@@@@@+@@..o++@##@@@@+@@O. O+#@##@@+@@#@+o#",
"#%%%&%%%%%%%%#o.o++@#$@@@@@++@..o++@$#@@@@+@@O. O+@@##@++@+@@+.o",
"XOO@@@@@#@@OXX. o+++#$@+@@@+@@..o++@$#@+@@+@+O. O+@@$#+@+@+@@+. ",
"XOO@#@@@@#@@OX. o+++#$@++@++@@..o++@$#@+@@@++O..O+@#$#+@@@+@@+. ",
"XO@@$@#@@#@@OO. ++++#$@@+@+@@@..o@+@$#@#+@@+@+..o+##$#@@@++@@+. ",
"XO@@$##@@@@@@O. ++@+$#@@+@@@@@..o@+@$$##++@@@+..o+##$#@@@++@@+. ",
"XO@O$$##@+@@@O. ++@+$##@@@@@@+..o@@@$$##+@@@@+..o+###$#@@+@@@+. ",
"XO@O$$#@@+@#@@..++@+$##@@@@+@+..o+@@$$##@@@@@+..o+###$#@@+@@@+. ",
"OOOO#$@#+@@#@@. ++@@$##@@+@+@+..o+@@$$##@@#@@+..o+#@#$#@@@@@@+. ",
"OOOO#$@#++@##@. ++@@$$#@@+@+@+..o+@@$$#$@@#@#+..o+#@#$#@@#@+@X. ",
"XOO@#$##+@@@#@. ++@@#$#@@+++@@..++@#$$$$#@###@..oo@@#$#@@@#++X. ",
"XOO@#$#@@@#@#@. ++@@#$#@@+++@@..++##$$$$#@###@..oo@@#$#@@@#+@+. ",
"OOO@###@@+#@@@..o++@##@@@+@+@+o#%&&%&&&&&&%&%%#oo++@###@+@#@@+. ",
"XOO@###@@+@+@@. o@+@##@@@+@@@+.o#%%%%%%%%%%%%#o.o++@###@+@@@@+. ",
"XOO@#$##@@++@@. o@+@##@@+@@@@+. XXO+@@@@@+OOXX. +o+@##@@+@@@@@. ",
"XOO@#$#@#@++@+..o@@@##@@+@@@@+. XoO+@@@@@++OXX. +o+@##@@@+@+@@. ",
"OO@@#$#@#@+@@+..+@@+##@@@#@@@+. oo+@#@@@@@++XO. +o@@##@#@+@+@@..",
"OO@O#$#@@@+@@+..+@@+##@@@@#@++. +o+@#@+@@@++OO. ++@@##@#@@@+@@..",
"XO@O###@@#@@++. o+@@#$@@@@#@++. +o@@#@@+@@++OO..+@@@####@@++@@..",
"XO@@###@@#@@+@. o+@@#$@#@@#@++..+o@@##@+@@+@+O..+@+@####@@+@@@..",
"XOO@##@@+@#@+@..o+@@####@@@@++..++@@##@@@@@@+O..o@+@##@#@@@@@+..",
"XOO@##@@+@##@+..oo@@###@@@@@++..++@@##@@@@@@+O..o++###@#@@@@@+..",
"XXO@##@@@+@#@+. oo+@#$#@@@+@++..++@@##@#@@@@+O..+++#$#@@@@@#@+. ",
"XXO@##@@@+@@@+. oo+@#$#@@@++++..+@@@####@+@@+O..++@#$#@@@#@#@+. ",
"XX@@##@@++@@@@. oo+@#$@@@@++++..+@+@####++@@++..o+@#$#@#@#@#@+. ",
"XX@@##@@+++@@@. oo++$$@@@@++++..+@+@####++@@++..o+@@$###@#@@@+. "
};
