/* XPM */
static const char *bamboo_door_top[] = {
/* columns rows colors chars-per-pixel */
"64 64 12 1 ",
"  c #998741",
". c #A99846",
"X c #B7AB49",
"o c #BBA84C",
"O c #C2B54E",
"+ c #C8B14D",
"@ c #D3BB50",
"# c #D9C25E",
"$ c #E3CC6A",
"% c #EFD97E",
"& c #F8E7A2",
"* c None",
/* pixels */
"..........ooooooo..o....             .  .......ooooo....      ..",
"......oooooooooooooooo...................oo..ooooooooo.....    .",
" .+@@@####@@@@+++@@@@@@+++@@@@@@@@###@@@@@@@@@@@@@@++@++@++@@+  ",
" .@+@#@@####@@@@####@@+++@@@@@######@@##@@@@@@######@@@++@@@+@  ",
" .@@+@$$$###########$$$$####$$$$$$$$##########$$$$$$###$$#@+@@. ",
" .@@@+#$$$##$$####$$$$#########$$$$$$$$$###$$###$$$$$$###@+@@+. ",
" .+@#@+@@##@##@###@@@@@@@@@@@@@@@@####@@@@@###@@@@##@@@#@+@#+@..",
" .+@#@@+@@##@@@@####@@@@++@@@@@++@@@@@@@@@@@@++@@@@++@@@+@##+@. ",
"..@@##@@+@@++@@@+++@@++++@@@++@@@@@+++@@@@+++@@@@@++@@@+@@##++. ",
"..+@##@@@+@@@@++++@@@@++++++++++@@+++@@@++++++@@++@@@@+@@##@++..",
" .@##$@@@@o+++++++++++++++++++++++++++++@@+++++++@@++o@@@##@@+..",
" .@##$@#@@+o++++++++++++++++++++++++++++++++++++++++o+@@####@+..",
"..@#$$##@+++                    ......  ..          ++@@####@@. ",
"..@#$###@+++          ...   ................ .      +@@+#@##@@. ",
"..@@###@@+++  ******##********************##******  +@++@@###@. ",
"..@@###@@@++  ******#$********************$#******  ++++@@###@. ",
"&&&%##@@@@++  ******#$********************$$******  +++@@#####. ",
"&%%$##@@+@++  ******$$********************$$******. +++@@#####. ",
"&%%$##@#++++ .******$$********************#$******. ++@@@##$##. ",
"&%%$#$##++++ .******$#********************@#******. ++@@+##$##. ",
"&%$$#$##@+++ .XOOOO@#@OOOOOOOOOOOOOOOOOOOO@@OOOOOX..+++@+@##@#..",
"&%$$#$#@@+++ .XXXXXO@#XXXOXOOOOOXOXXOOXXXX@#OXXOXX..+@+@@@##@#. ",
"%$$$###@@+++..******##********************##******. +@@@@@#$@@. ",
"$$$$#$#@@+@+..******$#********************$#******. ++@@#@#$@@..",
" .###$$@@@@+..******$$********************#$******..++@@##$$#@..",
"..##$$$#@@++..******$#********************#$******..++@###$$##..",
"o+$%%%%%$$$$+o******$#********************$$******o+$$$$%%%%%$+o",
".o#$$$$$$$$#o.******$#********************$$******.o#$$$$$$$$#o.",
"..++@@++++XX. OOOOOO##********************$$OOOXOX. XX++++@@++  ",
"..+@#@@@+++X  XXOOOX##********************$#XXOOXX  X++@+@@#@@. ",
"..@@##@@+@+X. ******$#********************$#****** .++@@@@##@@..",
"..@#$#@@@@++. ******$#********************$$****** .++@@+@##@@..",
"..##$#@@@@++..******$$********************$$******..+@@@++##@@..",
"..##$$@@@@++..******$#********************$$****** .+@+@++#$@@..",
"..##$$@#@+++..******$#********************$$******..+++@@+#$@@. ",
"..##$$@#@+++..******$$********************$#******..++@@@@#$@@. ",
" .@#$$##@+++ .XOXOOO#$********************$#OXXOOO..++@@@####@. ",
" .+##$##@+@+ .XXXXXO##********************##XXOOXX..++@@@##$#@. ",
" .+@#$#@@@@+ .******$#********************$#******..+++@@##$#@  ",
" .+@#$#@@@@+ .******$$********************$#******..+++@@#$$##. ",
" .@@##@@@@@+ .******$$********************##******. +++@@@$$##. ",
" .+@#$@@@@++ .******$#********************##******. ++++@@$$@#  ",
" .++#$#@@@++ .******$#********************##******. ++++@@#$@#  ",
" .++###@+@++ .******##********************##******. ++++@@#$@#  ",
" .+@##@@++++..XOOXOO##********************$#OOXOOO. ++@+@@#$@@  ",
" .+@##@@++++..XXOOXX#$********************$#XXOOXX. ++@+@@##+@  ",
"..+@##@+++++..******$$********************$$******. ++@@+@##++  ",
"..@@##@+@+++..******$$********************$$******. ++@@+###@+  ",
"..@###@@@+++ .******$$********************$$******. ++@@@###@@  ",
"..@###@@@+++ .******#$********************$$******. ++@@@###@#  ",
" .@##$#@@@++ .******#$********************#$******..++@@@@#$@#  ",
"..@##$#@#@++  ******#$********************##******..++@@@@#$##  ",
" .@#$$###@++  XOOOOO@#OOOOOOOOOOOOOOOOOOOO#@OOOXXO. +++@#@###@  ",
" .@#$$###@++ .XXXXOX@@XXOOOXXXXXOOXXOOOOXX@@XXOOXX. +++@#####@  ",
"..@@$$@##+@+ .******@#********************@#******..++@@####@@  ",
"..@@$$@#@+@+  ******#$********************#$******..++@@##$#@@  ",
" .+@$#+@@@@+  ******#$********************$$******..++@+@#$$#@  ",
" .+@##++@@@+  ******$$********************$#******..+@++@@$$#@  ",
" .+@$#@+@@++  ******$#********************$#******..+@++@#$$##  ",
" .@@$#@+@@++  ******#$********************$$******..+@+@@##$##  ",
"&&&%$#@@+@++        ........................    .. .+++@@@#$@#. ",
"&%%$##@@++++            ..........  ....          ..++++@@#$@@. ",
"&%%$##@#++++++@@@@@@##@@@@@@@@@@@@@@@@@@@@@@@@@@@+++++@+@@##@+. ",
"&%%$####@++++++@@@########@@##@@@@@###@@@@@@####@@@+++@+@@##@+.."
};
