/* XPM */
static const char *beacon[] = {
/* columns rows colors chars-per-pixel */
"64 64 10 1 ",
"  c #2BB9B0",
". c #2BCBC0",
"X c #49D5CC",
"o c #6FE3DC",
"O c #9CF2ED",
"+ c #CCECF0",
"@ c #C4FFFE",
"# c #D6FFFE",
"$ c #EEFFFF",
"% c white",
/* pixels */
"%%%%%%%%%%%%%%%%%%%%%%%%%%%%%%%%%%%%%%%%%%%%%%%%%%%%%%%%%%%%%%%+",
"%%%%%%%%%%%%%%%%%%%%%%%%%%%%%%%%%%%%%%%%%%%%%%%%%%%%%%%%%%%%%%++",
"%%                                                            ++",
"%%                                                            ++",
"%%                      ................                      ++",
"%%                  .........................                 ++",
"%%               ...............................              ++",
"%%             ...................................            ++",
"%%           .......................................          ++",
"%%          ................XXXXXXXX.................         ++",
"%%         ..............XXXXXXXXXXXXXX...............        ++",
"%%        ............XXXXXXXXXXXXXXXXXXXX.............       ++",
"%%       ...........XXXXXXXXXXXXXXXXXXXXXXXX............      ++",
"%%      ..........XXXXXXXXXXXXXXXXXXXXXXXXXXXX..........      ++",
"%%     ..........XXXXXXXXXXXXXXXXXXXXXXXXXXXXXX..........     ++",
"%%     .........XXXXXXXXXXXXooooXXXXXXXXXXXXXXXX.........     ++",
"%%    .........XXXXXXXXXXXooooooooooXXXXXXXXXXXXX.........    ++",
"%%    ........XXXXXXXXXXoooooooooooooooXXXXXXXXXXX........    ++",
"%%   ........XXXXXXXXXXooooooooooooooooooXXXXXXXXXX.......    ++",
"%%   ........XXXXXXXXXooooooOOOOOOOOooooooXXXXXXXXX........   ++",
"%%   .......XXXXXXXXXoooooOOOOOOOOOOOOoooooXXXXXXXXX.......   ++",
"%%  ........XXXXXXXXooooOOOOOO@@@@OOOOOOooooXXXXXXXX.......   ++",
"%%  .......XXXXXXXXooooOOOOO@@@@@@@@OOOOOooooXXXXXXXX......   ++",
"%%  .......XXXXXXXooooOOOO@@@@@@@@@@@@OOOOooooXXXXXXX......   ++",
"%%   ......XXXXXXooooOOOO@@@@@####@@@@@OOOOooooXXXXXX.......  ++",
"%%   .....XXXXXXXooooOOO@@@@########@@@@OOOooooXXXXXXX......  ++",
"%%   .....XXXXXXooooOOO@@@@##########@@@@OOOooooXXXXXX......  ++",
"%%   .....XXXXXXooooOOO@@@####$$$$####@@@OOOooooXXXXXX......  ++",
"%%   ....XXXXXXXoooOOO@@@####$$$$$$####@@@OOOooooXXXXXX.....  ++",
"%%   ....XXXXXXXoooOOO@@@###$$$$$$$$###@@@OOOooooXXXXXX.....  ++",
"%%   ....XXXXXXXoooOO@@@###$$$$$$$$$$###@@@OOooooXXXXXX.....  ++",
"%%   ....XXXXXXXoooOO@@@###$$$$$$$$$$###@@@OOooooXXXXXX.....  ++",
"%%  .....XXXXXXooooOO@@@###$$$$$$$$$$###@@@OOoooXXXXXXX.....  ++",
"%%  .....XXXXXXooooOO@@@###$$$$$$$$$$###@@@OOoooXXXXXXX....   ++",
"%%  .....XXXXXXooooOOO@@@###$$$$$$$$###@@@OOOoooXXXXXXX....   ++",
"%%  .....XXXXXXooooOOO@@@####$$$$$$####@@@OOOoooXXXXXXX....   ++",
"%%  ......XXXXXXooooOOO@@@####$$$$####@@@OOOooooXXXXXX.....   ++",
"%%  ......XXXXXXooooOOO@@@@##########@@@@OOOooooXXXXXX.....   ++",
"%%  ......XXXXXXXooooOOO@@@@########@@@@OOOooooXXXXXXX......  ++",
"%%  .......XXXXXXooooOOOO@@@@@####@@@@@OOOOooooXXXXXX.......  ++",
"%%   ......XXXXXXXooooOOOO@@@@@@@@@@@@OOOOooooXXXXXXX......   ++",
"%%   ......XXXXXXXXooooOOOOO@@@@@@@@OOOOOooooXXXXXXXX......   ++",
"%%   .......XXXXXXXXooooOOOOOO@@@@OOOOOOooooXXXXXXXX.......   ++",
"%%   .......XXXXXXXXXoooooOOOOOOOOOOOOoooooXXXXXXXXX......    ++",
"%%   ........XXXXXXXXXooooooOOOOOOOOooooooXXXXXXXXX.......    ++",
"%%    .......XXXXXXXXXXooooooooooooooooooXXXXXXXXXX.......    ++",
"%%    ........XXXXXXXXXXXoooooooooooooooXXXXXXXXXX.......     ++",
"%%    .........XXXXXXXXXXXXoooooooooooXXXXXXXXXXX........     ++",
"%%     .........XXXXXXXXXXXXXXXXooooXXXXXXXXXXXX........      ++",
"%%     ..........XXXXXXXXXXXXXXXXXXXXXXXXXXXXXX.........      ++",
"%%      ..........XXXXXXXXXXXXXXXXXXXXXXXXXXXX.........       ++",
"%%       ...........XXXXXXXXXXXXXXXXXXXXXXXX..........        ++",
"%%        ............XXXXXXXXXXXXXXXXXXXX...........         ++",
"%%         ..............XXXXXXXXXXXXXX.............          ++",
"%%          ................XXXXXXXX..............            ++",
"%%            ..................................              ++",
"%%              ..............................                ++",
"%%                 .......................                    ++",
"%%                     ................                       ++",
"%%                          .......                           ++",
"%%                                                            ++",
"%%                                                            ++",
"%+++++++++++++++++++++++++++++++++++++++++++++++++++++++++++++++",
"++++++++++++++++++++++++++++++++++++++++++++++++++++++++++++++++"
};
