/* XPM */
static const char *bedrock[] = {
/* columns rows colors chars-per-pixel */
"64 64 5 1 ",
"  c #222222",
". c gray20",
"X c gray34",
"o c gray39",
"O c #979797",
/* pixels */
"....XXXXXXX.....XXXXooXXXXXXXXXoooXXooo....XXXX...     .....XXX.",
"XXXX....XXXX..XXXX..XooXooooXXXXoooXXX....XX..................XX",
"X................XXooXXXXoooooXXXXoooooXXX......XXX...XX.XXXOOOO",
"XX..................XXooooooooooXooOOOOOoooXX.....XXXX....XOOOXX",
".....XX..XXXXooooooooXXoOOOooXXXXXXooOOoooXXooXXX.......XXXXXX..",
"......XXooooOOOOoooOOOoooOOOooX...ooOOOOooooooooXX..   ..XXX....",
"..XXXXoXXoOOOOooXXXXXooOOOoXX..XX...ooOOOOoXXXXX..    ......XXX.",
"....XXXooooooXXXooXXoooooooooXXX...XXoooooooXXXXXXXX..  ..XXXX..",
"XXX.........XXXXXXXXX..XXXXoOOOoXXX......XXXXXXoooooXXXXXXoooooo",
"XX........   ...XX........XXXXOOoo.....XXX..XoXXooOOOOooXXXoooXX",
".   ....   ..XXXXXX...........XooXXXXX..XooXXXoooXXooOOOoOOOoX..",
"..    ...   ..XXX...    ....XXXXXOOOooXXoXooXXXXXXooOOOoooOOOOoX",
"oXXXXX.....XXXX...    ...XXoooOOOOoXXXXXXXX......ooXX.....XXXooo",
"ooXXXXXX....ooXX...     ..ooOOOOoXXXXXXX........XXX.........XXoo",
"XXXXXooooooXXXXooXX..  ....XooXXXXXooOOOooXX......   XXooOOOOooo",
"XXXoooooOOOOooXXooXXX...XXXXXXXXXXooOOooXXXXXXX.   ...XXOOooXXXX",
"....XXoOOOoooXXXXX..  ....XXXooooXXX...XXXooooXXXX......XXX.....",
"......XooXXXXX....   .......XXXoooXXX...XXXXooooXXXXXXXXXX......",
"XX..    ..OOOoXX.........XXoooXXXXX.  ....XoooooooooXoooXXXXX...",
"X..   .XXooOOOX........XXoOOoXX......  .....XoooooXXXXooooXX..XX",
"....XXooooooXXXXX.    ....XooooXX......XXXXooooooXXXXXX..   ....",
"..XXXXXXoooooo..  .  .XXXXXXXXXX..    ....ooooOOOooX..     .....",
"XXXXooooOOOOoXX....XXXXXXXXX........    .XXoOOOoXX......     ..X",
"XX..XoOOOOoooooX....XXooooXXXX.........XXXOOOOooooooXX.....    .",
"..XoooooooooXXXXoooXX..XooooXXXXooooXXoooooooooOOOoooooooX   ...",
"...XooooooXXXXXooooo..XooooXXXooooXXXooooXXooXXoooooooOOOOX.  XX",
"XXooooOOOooooXXXXoooooooooOOOooXXXXoooXXXooooooXXXXoOOOOXX.....X",
"ooOOOOooOOooXXoooooXXoooOOOOooooXXXX....XXoooXXXXooooooX....XXoo",
"OOOooooooXXX...XOOOoXXXooXXXXXXXXX...    ..XXXooooXXX...XXXXXXXo",
"ooooXXXXXX....XOOoXooOOOOOoXXX...XX...    ...XXX...XXXXXXXXooooo",
"XXoooooXXXX.....XXXXXXooOOOOoXX....     ....XX....XX.XooooXXooXX",
"XooooX..X....XXXXXooXooooooX..    ..  .XXoooXXX.....XXXXoooXXXXX",
"ooooooooooXXXXX......XXoooXXX...XXXXXXXXXXoooooXXXoooooOOOOOoXoo",
"ooooooOOOooooX......XXXXXoooXXXooooXXoooOOOOooooooooOOOOOOooXXXo",
"OOoOOOOOooooXXXXXX.....XXXXXXXXXXoooOOOOOOoooXXXoOOOOOoooXXXXooo",
"ooooOOOOOOooooXX..  ..XXX..XXXooOOOOooOOooooooXXXXoOOOOOooXXXXoo",
"ooXXXooooXX........  ....XXXoooooXOOOOoXXXXX.....XXXooOOOOOooooo",
"oooooX......    ........XX....XXXXXoooooXX....XXX...XXXXoooooooX",
"XX..XXX.   ....   ..XXXX....XXXXXooooXXXoooXXooX......ooXXoooooo",
"XXXX.....    .   ....XXXX....X......XXXXXXXXXX....XXXXXXXooooXXX",
"XXoooXXoX...XX..XoooXXXXoooXXXX........XXXXooooooXXXooXXXX......",
".XXoooOOOOoX.....XXXooOOOOoo....    .XXoooooooOOOOooXXXX........",
"XoOOOOOOo......XXXooOOOOoXXXX.    ..XXXXXoOOOOOOoooooooXXXXX...X",
"oooOOOoo..........XooooXXXX......XXXXXXXoooXXooooooooooooX......",
"..XXooOOOOXX..........XXXXooXXXooooooXXXXXXooooXXXXXoOOOoooXX...",
"    .XXXXXX.....  ..    ..XXXoOOOOooXXoooXXXXXXXoooOOOOOOOoooX..",
"..   ..XooXXXXXX..   ..XX...XXXoOOOOOooXXXXXXXooOOOOOooXXXXX....",
"....XXXXXoooXX.....   ..XXXXoooOOOOOoooooXXoooooooOOOOOOooXXX...",
"XXXoooooXXXXXXXXXXXX..XXXXXXXXoooOOOOOooXX....XXoooXXXoooXoooXXX",
"oXoooX......XXXoOOOoXooooX......XXoooooX.....XXXXX.......XXXXXXo",
"XXXX..XX..XXX...XXoooooX...  ..XXXXXoooooXXX..........XXXXXooooX",
"ooXXXXX....XXX....XXXXXXX...    ....XXXXXX........XXXXooooXXoooo",
"oXXXXooXXXXXXooXXXX...XXXXXX.. ..XX.............XXXooOOooXXXXXoo",
"OoooOOOOooXXXXX...    ..XX................   ......XXXooOOOOooOO",
"ooOOOOoXXXOOoXXXX...     ......XXX......   ..XXX....XXXXooOOOOOO",
"ooooooooXooOOOoOOooXXXXX....XXXXX..   ...   ...XXXXXXXXooooooooo",
"ooooXXXXXXX......XXXXX...  ..........XX..XXXooooooXXXX......XXXX",
"ooXXXXXooXXXX.......XXXXXX..   ....XXX..XoOOOOoooXXX.......XXXXo",
"XXooooXXXX...XX......XX...    ..XXooooOOOooooOOOooooXXXX.....XXX",
"ooooooooXXXX......XXXXXX.....XX....XooooooooOOOoooXXXX....XXXXoo",
"OOOOoXXXX....   ...oooOOOOoXX....XXooXXoooooXXX.........XX...XXo",
"OOoXXX........    ..XooOOOOOoX....XXXoooooXX..    ...  .....XXOO",
"....   .  ..    ..ooOOOOoooooOOooXooOOoXXooXXXX.    .....XoooooX",
"X.    ........   ..oooOOOoooooXXXoOOOoooooX..XXX...     ...Xoooo"
};
