/* XPM */
static const char *bee_nest_front[] = {
/* columns rows colors chars-per-pixel */
"64 64 13 1 ",
"  c #50331B",
". c #704C2E",
"X c #7C512B",
"o c #624831",
"O c #6F533A",
"+ c #896445",
"@ c #A28166",
"# c #BC986D",
"$ c #C88644",
"% c #D9A453",
"& c #C8A671",
"* c #F7CE46",
"= c #FBDC75",
/* pixels */
"**********==================================================****",
"*************=================================================**",
"****************===============================================*",
"******************======================************===========*",
"********************============**==**********************======",
"**********************===========************%$$$$$$$$%*****===*",
"**************************====*************%$$%*====*%$$%****=**",
"******************************************%$**========**$%******",
"*****************************************%$****=========*$%*****",
"*****************************************$%*===========**%$*****",
"*************%**************************%$***========*****$%****",
"**********%%%**********************%%*%%%$*****====*******$%%%%*",
"***%%**%***%%%%*********************%%%%$$%**************%$$%%**",
"%%**%%%%%%%%%%%%%%%***************%%%%$$$$%%************%%$$$$%%",
"OOOOooOOooooooooOOOOooooOOOOOOOOOOOOOOOOooOOoooo...XXXX.XX..ooOO",
"oooooooooooooooooooooooooooooooooooooooooooooooooooo......oooooo",
"*****************************************%%%%.        .%%%%%****",
"************************==*=**************%%.          .%%%*==**",
"*===******====********===***==***===***==*%+            +%***===",
"**=*****==**=====******===******===***==*%%+           o+%%*===*",
"*********==***=====***************===****%.           ooo+%*****",
"***************===*****************=******.         ooooo+%%%***",
"**************************************%%**.       ooooooo@$%%%**",
"*************************************%%%%*.        oooooO@$%****",
"%%*********************************$$$%$$%@      oooooOOO@$$%%**",
"%%%*****************************%$$%$$$$%%@   oooooOOOoOO@$$$%%%",
"%$$$%%*********************%%**%%%%$$$$$$$&@ooooooooOOOO@&%$%%%%",
"$$$$$%%%******%%%*******%***%%$$%%%%$$$$$$$&@@OOooOOOO$$#&%%%%%$",
"$$$%%%%$$$%%%%%%*****%%%$%$$$$%%%$$$$%%$$$$$#&##$$$#$$$#&#$%%$$$",
"$$$$$$$$$%%%$$$$%%**%%%%%$$$$%%$$$$$$$%%%$$$$#&&#$$$##&&#$$$$$$$",
"OOooooooOOOOOOooooooooOOooooOOOOOOOO++OO+++$$###&&&&&&##$$++++OO",
"oooooooooooooooooooooooooooooooooooooooOOOOO+$########$++++OOooo",
"%%%%%%%%%*********************************%%%%$$####$$$$%%%%%%%%",
"%%%%%%%**%%%********************************%%%%$$$$$%%%%%%%%%%%",
"%%%%%%%%%%%%%**%***************************%%**%%%%%%%%***%%%%%%",
"%%%%%%%%%%%%%%%*******************************%%%%*%%%***%%%%%%%",
"%%%$$$%%%%%%%%%%%***********************************%%%%%%%%%%%%",
"%%$$$%%%%%%%%%%%%%%%***********************************%%%%%%%%%",
"%%%%$$%%%%%$$%%%%%%%%%%******************************%%%%%%%%%%%",
"%%%%%%%%$$$$$$$%%%$$%%%%%%****************************%%%%%%$$$%",
"%%%%%%%%%$$$$$%%%$$%%$%%%**%%**************%%**********%%%$$$%%%",
"%%%%$%$$$$$$$$$%%%$$$%%%%%%%%%%***********%%%%%%*****%%%%%%$$$%%",
"$$$%%$$$$$$$$$$$$$$$$$$%%%%%$$%%*******%%*****%%%%%%%%%$$%%%%%$%",
"$$$$$$$$$$$$$$$$$$$$$$$$$$%%%$$$%%%%****%%%**%%%%%%%%$$$%%%%$$$$",
"$$$$$$$$$$$$$$$$$$$$$$$$$%%$$$$$$$%%%$$$%%$$$$$$%%%%%%$$$$$$$$$$",
"$$$$$$$$$$$$$$$$$$$$$$$$$$$$$$$$$$$$$$$$$%%%$$$$$$$$$$$$$$$$$$$$",
"OOOOooO...X..XXXX...XX..ooOOOOooOOOOOOOOOOOOOOOOOOOOOOOOOOOOOOOO",
"ooooooooooo..........ooooooooooooooooooooooooooooooooooooooooooo",
"##$$$@@@@.        .@@@$$$$$$$$$$$$####&##$$###$$$$$$$$$$$$$$$$$$",
"&##$$$@@.          .@$$$$$$$$$$$$###&&&&##$$####$$$$$$$$$$$$$$#&",
"&&&###@+            +@$$$$$$$$##&&&##&&&&&##&&&&&&##$$$$$$$$##&&",
"&&#####+           o+@$$$$$$$##&&&&&&&&&&&&&&&&&&&&###$$$$###&&&",
"&&&&&#.           ooo+$$$##&&&&&&&&&&&&&&&&&&&&&&&&&&&##&&&&&&&&",
"&&&&&&.         ooooo+$##&&&&&&&&&&&&&&###&&&&&&&&&&&&&&&&&&&&&&",
"&&&&&&.       ooooooo@##&&&&&&&&&&&&&&###&&&&&&&&&&&&&&&&&&&&&&&",
"&&&&&&.        oooooO@###&&&&&&&&&&&&&&&####&&&&&&&&&&&&&&&&&&&&",
"&&&&&&@      oooooOOO@#&&&&&&&&&&&&&&&&&&#####&&&&&&&&&&&##&&#&&",
"&&&##&@   oooooOOOoOO@&&&&&&&&&&####&&&#########&&&&&&&&#####&&&",
"&#####&@ooooooooOOOO@####&&##@@####&&##&&######&&###&&&&&&######",
"#@@#&&&&@@OOooOOOO$$#&&####@##@@@#######&&#########&&##&&&&#@@##",
"@@#####&&&#$$$$$$$&&&####@@@@@@@##@@@@######@@##&&###&#######@@@",
"@@@@#####&&##$$$&&&&##@@@@@@@@@@@@@@@#@@##@@@####&&#######@@@@@@",
"OOOOO++@@##&&##&&##@@@++OOOOOOOOOOOOOOOOOOOOOOOOOOOOOOOOOOOOOOOO",
"ooOoOOO++@######@@+++OOoooOOOOOOOOOooooooooOOoooooOOOOOOoooooooO"
};
