/* XPM */
static const char *birch_door_bottom[] = {
/* columns rows colors chars-per-pixel */
"64 64 16 1 ",
"  c #442E17",
". c #4F361B",
"X c #563B1E",
"o c #5B3E1F",
"O c #9E8B61",
"+ c #A59467",
"@ c #B8A875",
"# c #C8B77A",
"$ c #D7C185",
"% c #D7CB8D",
"& c #DBD2A1",
"* c #E3DBAF",
"= c #EEE6D5",
"- c #EEEADE",
"; c #F6F2DE",
": c #FFF6E6",
/* pixels */
"oX. %%#$$$$+-;-;;;;;;;-=;;::::::::::::;;=-;;;;;;;-;-&##..   .##O",
"X.. %%##$$%+---;;;;;;;-=;;;::::::::::;;;=-;;;;;;;---&#.      .#O",
"X. .$%$#$#%+----;;;;-;-=;;;;;;::::;;;;;;=-;-;;;;----&$#########O",
".   %$$#$#$+------;----=;;;;;;;;;;;;;;;;=----;------&$#######$#O",
"&###%$%$$##+========================================&$$#####$$#O",
"&$$$%%%$#$#+:::::::;;;:::::::======:::::::;;;:::::::*%$###$#$$$O",
"&$$$%$%$#$$+:::::;;;;;;;;;;::======::;;;;;;;;;;:::::*%$$##$$%$$@",
"&$#$$$%$$$$+::;;;;;;;;;;;;;;:======:;;;;;;;;;;;;;;::*%%$#$$%%$$O",
"&$#%$$%%#$#+:::;;;;;;;;;;;;;:======:;;;;;;;;;;;;;:::&$%%$$%%%%$@",
"&#$%$%$%$##+::;;;;;;;;;;;;;;:======:;;;;;;;;;;;;;;::&$%%$%%%%%$@",
"&#$$%%$$$##+:;;;;;;-;;;;;;;;;======;;;;;;;;;-;;;;;;:&$$%%%%%$%$@",
"&$$$%%%$$#$+:;:;;;;-;;;;;;;;:======:;;;;;;;;-;;;;:;:&$$%$%$%$$$@",
"&$#$%$%$%$$+::;;;;;--;;;;;;;:-====-:;;;;;;;--;;;;;::*$$$$%$$%$$O",
"&$##$$%$%%$+::;;;;---;-;;;;;;-====-;;;;;;-;---;;;;::*$$$%%$$%$$O",
"&%$#$%%%$%#+:;;;;------;;;;;;-====-;;;;;;------;;;;:&$$$%%$#$$$O",
"&%%#$%$%$$#+:;;---------;;;;;-====-;;;;;---------;;:*%$$%$$#$#$O",
"&%%$%$$%$$$@********&&&&*&&*****&&&&&&&&&*&&*********%$%$$%$##$O",
"&$%%%$$$$$$#####$$$#$$%%$#$$$$$$$%#$##$%$%%%%$$$$%$$%$$%$$%%#$$O",
"&$%%$$#$$$%$###$%$#$$%%$$##$#$$$%$###$$%$$%%$%$%$%$$$$#$$$$%$%$O",
"&$$%$$##$$%$#$#$$%##%$%$$##$#$%$%$$##$%$$$$%$$$%%%$$#$#$#$$%$%$O",
"&$$$$###%$$##$$$$%$#$$$%####$$%%$#$#$%%$%$$$$#$$%%%$$#$$##$$%$$O",
"&$%$#$#$%$$#$#$$$%$#$%$%##$#$$$%$#$$$%$%%$$%##%$%$%$##$$#$#$%%$O",
"&$%$#$$$%$#$$$#$%$$$$%%$$#$$$$$$##$$%%$%$$%%#%$$#$%%$#$$$$##%$$+",
"&%$$##$$$%#$$$#$%%$$$$%$$#$$$$%$#$$$%$$$$$%$#%$$$#$%$#$$$$$#%$$+",
"&%%$$#$%$%##$%$$%%$%$#$$#$$%$%%$$$#$$$$$$%$#$$$%$#$$%$#$%$%$$$$+",
"&%%$$#$%%%$#$%$$%$%$##$$#$%$$%%%$$#$$$$$$%$#$$$%##$$%$$$%$%%$$#+",
"&$%%$$$%%%$$$%$%%$%$#$#$$$%$%%$%#$#$%$$$$%$#$#%%#$#$$$$$$%%%#$#+",
"&$%$$$%$%%$$%$%%$$%%#$$$$$%%$%$%#$$#%%$#%%#$$#%$#$#$#$$$$%%%###+",
"&$%$%$%$%$$#%$$%$%%%$$$$$%$%$$$%$#$#$%$#%%$$#$$$$$###$%$%%%$$##@",
"&%$$%%%%%$$#%$%$%%$%$$$$$%$%$$%$$#$#$%$#%$$$##$$$$##$$%%%%%$$#$+",
"&$$$$%%%%$#$%%%$%%$$%$#$%%$$$$%%###$$$#$%$%$$##$$%$#$$%%%%$$$$$@",
"&$$$$%%$%##$$%%#$%$$%%##%%$$$$%$##$$$$#$$%%$$#$$$%$$$%$%%%$$#$$@",
"&$$%$%%$$###$%$#$$#%%%$#%$%$$#$$##$$$$$$#%$$$$$$%$$%$%$%%%$$#$$+",
"&$$%%$%%$#$#%$$#$$#$%$$#$$%$$#$$#$#$$#$$$#$$$$$$%$%$$$$%$%$#$$$+",
"&$%%$$%%##$$$$#$%$$#$$$$#$%%#$$%$$##$$#$$#$#$$$#$%%$$$$$$%$$%$$+",
"&$$%$$%$#$$$$$#$$%##$$$$#$%$##%%$$$#$$##$$$#$$##$%%%$#$$%%$$%$$+",
"&$$%#$$$$$%$$#$$%%$#$%$##$$$#$%$%$$##$$#$%##$$#$$$%%%$#$%%$%$$$+",
"&%$$#$$$$$%%$#$$%$%#$%%$#$$#$$%$%$$#$$$#%%#$$$$$$$%$%%##$%%%$#$O",
"&%$#$$%$#$$%$##$$$%$$%$$%#$#$%$$$$%$$$#$%$$%$$$#$$#$%%$#$$%%$$#O",
"&$$$$$%$$#$%$#$#$$%%$$$%%%$$$%#$$%%%$$#$%$$%%$$#$##$%$$#$$%%$$#O",
"oooX%$%%$#$$$$$#$$%$%$$%$%$$%%#$#$$%$$%$$$#$%$#$$#$#$$%$$$%%%$$O",
"oXX.$%%%$$$$$$#$$$$$%$$$$%$$%$###$$%$#$%$$#$%$##$%$#$$%%$$%$%$$+",
"o.X.$$%%$$$#$$$$%$$$%%#$%$$$$$#$##%$##$%%$##$%#$$%%$#$$%$%%$$$$+",
"oX..#$%%$$$#$$$$%%$$%$##$$$$$$$$$#%$#%$%$$$#$%%$%$%$#$$%%%%%$$$+",
"oX. #%%%$%##$$#$$%$#%$$#$$$#$$$%$$$$%%$$$#$#%$%$%$$#$$$$%%%%$#$@",
"X.. $%$%%%##$$#$#$##$$%#$$##$$%%$$$$%$%$$##$%$#$%%$#$$$$%$%%#$$O",
"X. .$$%%%$#$%$$##$#$$%%$$$##%$%$%$$$#$%%##$$%$#$%%##$%$$#$%%#$#O",
".   %$%%%#$$%%$#$$#$$$%%$$#$%#$$%%$$##$%##$$%%$#$%#$$%$$##%$$$#O",
"&$$$%%%%$#$%%%$$$#$$%$%$$#$%$$#$%%$#$#$%#$$$$%$$$$%$$$%$$##$$##O",
"&$$$%%$%$$$%$%$$##$$%%$$$#$%%$#$%$$#$$%%#$$$$%%$$$%$$$%%$#$$##$O",
"&$$#$%$$$$%%$$%$##%$%$$$$#%$%$$%$$#$%$%$$$#%$%$$%$%%$%$%#$$%##$O",
"&$$##$$$$$$%$#%$#$%$%$%$##%$$$$%$$#$%$%$$$#%%$$$%$%%#$$%#%$%#$#O",
"&$#$#$$%$%$%##$$$$%%$$%$##$$$#$#$$##$%$$$$##%$#$$%%%$#$$$%%%#$#O",
"&$#$$$$%%$%%$#$$$%%$$$$$#$$$$###$$##%%$$$$##$$##$%%$$#$$%$%$#%$O",
"&$$#$$$$%$%$$#$#$%$#$$%$#$$$%$##$###%$$$$###$$$#%$%$$$#$%$$#$%$O",
"&$$$$$$$%$$$$$##$%##$%%$$#$#%$#$$#$#$$$$$#$#$$$#%%$$#$##$$$#$$$O",
"&$$$#$#$$$$$#$#$%$#$$%$%$$##%$$$#$$$$$%$##$$#$#$$%$$#$#$$$##$%$O",
"&$$$#$#$$$$$##$$%$#$%$$%$$##$%$$##%$$$%$#$$$###$$$%#$$#$%$#$%%$O",
"&$$$##$%$$#$##$%%$$%%$$$$$#$$%$$##$%$%$$#$%$##$$%$%$$###%%#$%$$O",
"&$$$$#$%%$#$##$%$%$%$#$$#$#$$%%$$#$%%%$$$#%$$#$$%%$$$#$#%$$#%$$O",
"&$$$$$%%%$###$$%$%%$$##$##$$%%%$%$%%%$$%$%$$$$%$%%$$##$$$%$$$%$+",
"&$$$$$%$%$$##$$$$$%$##$$$#$$%$%%%$%%%$$%%%%$$%%%%%%$##$$%%$%$$$+",
"#$$$$$$%%%$#$$$$$$$####$$$$%$$%%%%%$%$$$%%%%$$%%%$$$#$$$$%%%%$$+",
"++++OO+OOOOOOOOO+OOOOOOOOOOOOOO+++OO++OOOOOOOOOOOOOOO+++OOOO+OO+"
};
