/* XPM */
static const char *birch_log_top[] = {
/* columns rows colors chars-per-pixel */
"64 64 10 1 ",
"  c #514F47",
". c #A59467",
"X c #AE9F76",
"o c #B8A875",
"O c #C8B77A",
"+ c #999682",
"@ c #D7C185",
"# c #D7CB8D",
"$ c #EBEBE7",
"% c white",
/* pixels */
"%%$$$$++  ++%%$$++$$$$++++  ++    ++  ++$$%$$+      ++$$%%%%$$$$",
"%$$$%%%+++$%%%%$$$%%%$$$+++$$++     +$$%%%%%%$$+  +++$$%%%$$%%$$",
"$%%%$$%%%%%%$$$$%%%%%%%%$$$$%%$$$$$%%%%%%%%%$$$$$$%%$$$$$$$%%%%$",
"%%$$$$$%$$$$$$$$$$%$$%%%%%%%%%%$$$%%$$$$$$$$$$%%%%%%%%$$$$$$$%%$",
"%%%$######@@@#####@OOO@@##@@@@OoOO@@OOOOOOOO@@@O@@@@##@@@##@$%%%",
"$%%$#@@OOOOOOOOOOOOOOOOOOOOOOOoooOOOOOOOooooOOOOOOO@@OOOOO@#$%%%",
"+%$$#@O@@OOOooooOOO@@@OooOO@@O@OOOOOOooOOOO@@OOOO@@OOOOOO@O#$%%%",
"+$$$#@@OOooOOOooooOOOoooOOOOOOOOOOooooOOOOOOOOOOOOooooooO@O#$%%%",
" $$%#O@O......XX......XXoXXoooXXooXXXXXXooXXXXooXoXXXXXXOOO#%%%$",
" $$%#OOo...XXXXXXXXXXoooooooooooooooooooooooooooooooXXXXOOO#%%$$",
" +$%@OOo..#########@##@@@########@O@@@O@OO@@##########XXoOO#$%$+",
" +%%OO@o..#@@@@OOOOOOOOOOOOOOOOOOOOOOOOOOOOOOOO@@OO@@#XXoOO#$%+ ",
"++%$@OOO.X#@@OOOOOOOooooOOOOooOOOOOOOOOOOOOOOOOOOO@@@#XXOOO@$%  ",
"+$%$@O@O.X#@OoOOooOOOOooooOOOOOooooOOOOOOOOOOooooOOO@#oXOoO@$$  ",
"$$$$@o@O.X#OOOOOOOOOOOOO@@@@OOOOO@@@@@O@@OOOOOOooooOO@oXooOO$$  ",
"$%$$@oOO.X#OOOoOOOOOOOOOOOOOOOOOOOOOOOOOooOOOOooOOooO@oXooOO$$+ ",
"+%$%OoOoXX#@OooOX.XXXXoXXXXXooXXoooooXXoXXXXXXXXoOOoOOoXoOOO$%++",
"+$$%OOOoXX@@OoOO.XXoooooooooooooooooooooooooXXXXoOOOOOoXo@OO$%$+",
" $%%@OOO.X@@OoOO.XO@########@@@@@@@@OOOOOO@@OoXXOOOOO@oXO@O@$%%$",
" +%%@OOO.X@OOo@O.X@@@OOOOOOOOOOOOOOOOOooOOOO@OXXOOOoO@oXO@O@%%%%",
" +%%OO@O.XOOOO@O.X@@OooOOOOoooOOOOOOOOOooOOOOOoXoOOoO@oXOOO@%%$+",
"+ %$OO@O.X@OO@OO.X@OoOOOOOOOOOOOoooOooOOOOOOO@oXoOOOO@oXOOO@%%++",
"  $$@O@o.X@oO@OOXX#Oo@ooooooXXooXX.X..XXooOOO@oXoOOOO@ooOOO@%%++",
"  $$#O@O.XOoO@OOXX@OO@ooooooooooooXXXXXXXoOOO@oXoOOOO@oooOO@$%++",
"  $$#OOo.X@OOOOo.X#OO@ooO@@O@@@@OOOOOOOOoXOOO@oXOOOoOOoXoOOO$%$+",
"  $%#@Oo.X@OO@Oo.X#OOOooOOOOOOOOOOooOooOoXOoO@oXOOOoOOoXoOOO$%$+",
" +%%@@OOXX#OO@OO.X@OOOooOOXXXXooooXXXXoOooOooOoXOO@OOOooOOOo$$$$",
"+$%%@OOOXo#OO@OO.X@O@OooOOXoooooooooXXOOoXOooOoXOO@oOOoXOO@o$$$$",
"$$%$OOOoXX#O@@OO.X@O@OooOOooOOOOO@@OoXO@ooOOoOooOO@OO@ooOO@o$%$$",
"%$%$OoOoXo#O@@OO.X@OOOXoOOooOOOOOOO@oXO@ooOOoOooO@@OO@ooOo@o$%%$",
"%%$$@oOoXo#O@@OOXXOOOOooOOXoOOoXooO@oXO@ooOOoOoXO@@OOOooOoOO%%%$",
"%%$$@oOooo#OO@OoXXOOOOXoOOXoOOXooXO@oXO@ooOOOOoXO@@OOOooOoOO%%%$",
"%%%$@O@ooo#OO@Oo.X@OOoXo@OXo@OXXoXOOooOOooOOO@ooO@OoO@oXOOOo$%%$",
"%%%$@OOooo@OoOOoXX@OOoXoOOXo@OoXXoOOooOOoXOOo@ooOOOoO@oXoOOo$%$$",
"%$%%@O@oXoOOoOOoXX@OOOXo@Ooo@OOOOOOOooO@oXOOoOoXOO@oO#oXoOOO$$$+",
"$$%%@O@OXoOOoOOOXX@OOOXo@OooO@@@@O@OooO@ooOOoOooOO@OO#oXoOoO$$$ ",
"$$$%@O@O.o@OoOOOXXOOOOXoOOooooooooooooOOoXOOOOoXOOOOO#oXoooO$$+ ",
"$%$%@OOO.X@OOOOOXo@OOOXoOOooooooXXXoooOOoXoOOOoXOOOOO#oXoooO$$  ",
"%%$$OOoO.X@OoOOOXo@OOOooOOOOOOOOOOOOOOOOoXoOO@oXOOOOO@oXoOoO$%+ ",
"%%$$OOoO.X@Oo@OOXX@OOOooOOOOOOOoooooOoOOX.OOO@oXOO@OO@oXO@oO$%$+",
"$%%$OOoo.X@OO@OOXo@OOOooooooXXXXXXXXXXXXX.oOO@OoOO@oOOo.o@OO$%%$",
"$%%$OOoo.X@OO@OOXo@OOOoXXoXXXX..XXXX.....XoOO@OoOO@oOOX.o@OO%$%$",
"%$%%OOooXXOO@@OOXoOOoOOOOOOoooOoooOOOOOoooOOO@OOOOOoOOX.O@O@%$%$",
"%$%%OOOoXoOO@OOOXo@OOooOOooooOOOOOOOOOoooOOOO@OoOOOoOOX.OOO@%%%$",
"$$%%OOOOXo@O@OOoXo@OOOOOOOOOOOOOOOOOOOOOOOOOO@ooOOOoO@..oOOO$%$+",
"$$$%OoOOXo@OO@OoXoO@OO@@OOOOOO@@OO@@@@@@@@@@@@ooOO@oO@..oOO@$%+ ",
"+%$%OoOOoo@OOOOOXXooXXXXXXXXXXXXXoooooooooooooooOO@OO#..OOO@$$  ",
"+$%%Oo@Ooo@OoO@OXXXXX...XX........XXXXooXXoXooooO@@OO#X.OOO#%$  ",
" +%$OO@Ooo#Ooo@OOOOOooooOOOOOOOOOOooOOOOOOOOOOOOO@OoO@oXoOO#%$  ",
"  %$OO@Ooo#OooOOOOOOOO@@@OOOO@@@@OOOOOOOOO@OO@@@OOooO@oXoO@#%% +",
"  %$OOOoXo#OOooOoooO@@@OoooO@@@OOO@@@OOOOOO@@@OOOOooO@oooO@@%%++",
" +%$OoOoXo#OOOOOOOOOOOoooOOOOOoooooOOOOooOOOOOooOooOO@oooO@#%%+ ",
"++$$@oOOXo#@OOOOOOOOOOOOOOOOOOOOOOOOOOOOOOOOOOOOOOOOO@oXoOO@$%$ ",
"++$%@oOoXX#####@OO@@@@##########@@@@@@@@##@@######@@@@oXOOO@$%%+",
" +$%@OOoXXXXooooooooooooooooooooooooXXXXXXXXXXXXoooooXXXOOO#$$%$",
" +$%@OOOXXXXXXXXooXXooooXoXXXXooXXXXXX......XX...XXXXXXXOoO#$$%$",
"+$%%@OooOoooOOooOOOOOOOOOOooOOooooOOOOoOooooooooOOooooOOOoO#$%%%",
"$$%$@OOooOO@@OOooooOO@OO@@OOOOOOOoooO@@@@@OOOOO@@@OOOOOooO@#$%%%",
"%$%$@@OOOOOOOOOOOOOOOOoooOO@@@OOOOOOOOOOOOOOOoooOOOOOOOO@@@#%%%$",
"%$%%@@@@@@@@OO@@O@@@@@@@OOOO@#########@@@@O@@@OO@@##########%%%$",
"%%$%$$$$%%%%$$%%$$$$%%%%%$$$%%%%%%$$%%%%%%%%$$%%$$$$%$$$%$$$%%%$",
"%%%%%%$$$%%%%%%$$$%%%%%$$$%%%%%%%$$$$%$$$$%%%%%%%$$%%%%%%%$%%%$%",
"$%%%%$$$$$++    +++$$$%%%%%%$$%%%%%$+++++$$$%%$$$$+     +++$$%%%",
"$$%%%%%$++     +  ++$$$$%%%%%%$$%$++++++++$%%%%$+  +     +  +$%%"
};
