/* XPM */
static const char *black_terracotta[] = {
/* columns rows colors chars-per-pixel */
"64 64 3 1 ",
"  c #24150F",
". c #251710",
"X c #251811",
/* pixels */
"........................XXXXX.....XXXX..........................",
"...........................XXX......XXXX........................",
".............XXX..............  ...XXX..........................",
"..XXX.....XXX..XX...........     ...............................",
"...XXXXXX...XX....XXXX....    ...........XXXXX..................",
"XXXXXXXXXX.....XXXXX.........  .......XXXXX.....    ............",
"..XXXXXXXXXXXXXXXXXXXXXXX...........XXXX......  ..   ...........",
".....XXXXXXXXXXXXXXXXXXX.............XXXXX.......  .............",
".......      .....................................XXXXX.........",
"......   ...  ..................................XXXXXXXXXXX.....",
"..........  ...................................XXXXX...XX.......",
".................................................X..............",
"........................  ......................................",
"..............XX..XX..  ........................................",
"...........XX..XXX..   ..........XXXXX......XXXXXXXXXX..........",
"............XXXXX....   ......XXXXXXXXXX..XXXXXXXXXXXXXXX...XX..",
"XXXX..........................XXXX.......XXXXXXXXXXXXXXXXXX..XXX",
".XXXXX..XX.....................XXXX........XXXXXXXXXXXXXXX..XXX.",
"..XXXXXXXXXX....................................................",
".XX..XXXXXXX....................................................",
"........XXX...................   ...............................",
"...............................     ............................",
"...................................   ..................    ....",
"..................................   ....................     ..",
"......XX....XX............................XXXXXXXXX..........  .",
".......XXX...XXX......................XXXXXXXXXXXXXXXX......    ",
"..........XXXXX..X................XXX..XX...XXXXXXXX......   ...",
"............XXXXX..................XXXXXXX....XX................",
"...............XXX................     .........................",
"....................................     .......................",
".............    .....................     ...........XXXX......",
"............    ....................          .........XXXXX....",
"...XXXXXX.....     .....XXXXX....  ..   ...........XXXX.XXXXXXXX",
"XXXXXXXXXXXX.....   ..XXXXXXXXXX...   ..............XXXX..XXXXX.",
".XXX.....XXXXXXXXX..XXXXXXXXXXXXXXXXXXXXXXXXXXXX...XX...XXX.XXXX",
"...XX......XXXXXX....XXXXXX..XXXXXXXXXXXXXXXXX...........X...XX.",
"....................XXXXXXXX....XXXXXXXXXX.................XX...",
"........................XXXXXX....XXXXXXXXX...............XX....",
"..........................  ..    ....XXXXXX....................",
"............................    .........XX.....................",
"...........XXXXX...........   ..................................",
"........XXX...XXXXXX...........    .............................",
".........XXX....X..XXX........    ..............................",
"..................XXX.XXX........  .....XXXX...XX...............",
"    ......XX..X........XXX............XXXXX...XXXXXX........... ",
"  ....XX...XXX......XX..XXXX......XXXXXXXXXXXX..XXX..XX......   ",
"....X..XXXXX..........XXXX..XXXXXXXXXXXXXXXXX..XXXXXX......  .  ",
" ....XXXXXX.............X....XXXXXXXXXXXXXXXXXXXXXXX........    ",
"..............   .......  ..........XXXX..................XX....",
"............    ..  .. ..  ...........XXX..................XXX..",
".............      ..   .....................................XXX",
"XXX.............      ......................................XXXX",
"XXXXXX........XX....................   ..........XXXXXXXXXXXXXXX",
"XX...XXX..XXXXX......................     ......X..XXXXXXXXXXXXX",
"........XXXXXXXXX......................    .......XXXXXXXXXXXX..",
".........XXXXXXXXXXX..................   ..  .......XXXXXXX.....",
".......XXXXXX.......................XXXXXXXXXXXXXXXXX...........",
"......X..XX..........................XXXXXXXXXXX................",
"........XXXXXX..........................XXXXXXXXXX..............",
"..........XX..........................XXXXXXXXXXX...............",
"..................   ...........XXXXXXXX..XXX...................",
"................  ..  ........XXXXXXXXXXX.......................",
".............    ........XXXXXXXXXXXXX...XXX....................",
"..............    .....XXXXXXXXXXXXX....XX......................"
};
