/* XPM */
static const char *black_concrete[] = {
/* columns rows colors chars-per-pixel */
"64 64 2 1 ",
"  c #080A0F",
". c #080A10",
/* pixels */
"....   .     . .... .....  .......................... .      . .",
".....  ...   . .   .....  ............ ....... ... . .      ..  ",
"  . . . . .  ..  .... ........  ... .. ....... . .. .. .  ..    ",
". .. ..... .  ........ ....... ... . ... ..... .... .....  .  . ",
". ....   . .  . .   . .. .....      . . . ..... ..   ... ..  .  ",
". .... ...  ... . .. .........  . ..... .. .  .. ..... . .   .  ",
"....... .. .   . . . ...... ...  .... .  .     ..... . .     ...",
"... .... ..  ............ ... .......... . .  .....  .....   ...",
"...... ....  ...... ..... ..... . ....... ..  ......   . .... ..",
"........ ...... .. .......... ....   .    .. ..... ..... .......",
"........... .. .............  .  . .. . .  . .. ....... ..   ...",
"...  .......... . .......  ..   . ..    . ..... . . .... ... .. ",
"........ ....   ... .     ..  ........... ..... ..  . ....... . ",
"...  ...  .... ...... ...... ......... .. .... . .. .   .. .    ",
".....    ..... .  . .   . ... ... ......  .. .... ... . .....   ",
".... .. . ....  . .  ........   ......... ...... . ..  . ..     ",
"..  ... .  ... . . .....  . .. .. ....... ........... ....... . ",
"... ...  .  .. ... ... ..... .. ......  ........ ....      .....",
"....... ... .. ... ... ..... .... .   ..  . . .... ....  .......",
".. ..... .. .. ..... .............  ......    ......... .. . ...",
"............ . ..... . . ..     . . ...... ...   .... .  ...  . ",
"........... . ....... . . ..      . . ......... ......... .  ...",
"................... . .   .     .. ........ .. . .. ... .....   ",
".. ...   ... .... . ... ...    .  ... ....... . ...... . .......",
"........ .  ..... . . . ....     ..  .........      . . .. .....",
".. .... ...        .... ... . .  .       ...... .   ..... ......",
".. . ... ...  ..  . ....  ... . .  ....... . . ..   . . . ... ..",
"..   .....  ..    ....... ..       . . .....    ..  . ..........",
". . . .... ..     ...... ..... ......  .... .   ...  ....... ...",
". . ..... . .. . ....................  .....  . . .   ......... ",
"  .....   ..  .  ... ... ............  .... .   .   .... . .....",
"    ................   ..............  ....       .  . ....... .",
". .. .. ... ..  ....... ............    .. ... . .      .. ... .",
"   .. ...... . .. .... ...... .... ..  . ...  .   .. ..  .....  ",
" . ........ .... . .... . . ... .   ..   . .... ....  ... ......",
". ......... .. .  ....   .. . .. .  .  . . .. ........   . ... .",
".  ......  .... ...... .....        . ..... ............ .. ....",
" ....... .  . .. . ... ...  ....   . ... ...............  ......",
".   ......................... .....   ....... ..  . ............",
" . ... ............ .......... .    ............  .... .........",
"..    ............. ................. . .......... ....... .....",
" ... .. ....... ..... .......... ..  .. ..  .  ...... ........ .",
"..  .   ..........      .. ..  . ...    ..... ...... ...........",
"     . ..... ......... .. .....  ....   ..... ..... .. .  . ....",
"...   ...... .... ...  ..     . . ....  ..... . .. .. . ........",
" ..   ..... ......  . . .. ... ............. .....   ..    ... .",
".  .  ........... .      .. ... .....  ...... ...    . .... ..  ",
" .. . . ..   ...  . .    .. . ...  .. ......... .   ........ .  ",
"  .....  .......  .... .........  ..   .........    ....   . ...",
"  .... ................ .......  ..    .  ....... .. ...    .. .",
" ....... ... . .  .............    .   ........  .  ....  ...  .",
".. .......  .   .  .............    . . .......  . ....  .   .. ",
"... .  ... . .    . ............. .  ... ......   . ..  ..  ....",
"....   ...   . . .... .. ..........   ........... .... .. ..... ",
".. .  .. ...... .  ....   ....   .... .. ......  ... . .. .. ...",
"........ .... .    . .   ....  . ..... .    ...  . . .  . ..... ",
"....... . ........   .. ...... ....... .......   .......  ...  .",
"......  . .  ...........  . .. . .......... ..  ...  ......  .  ",
".. . . .....  ..... ...... .  .. ............. ... ........... .",
"... .  .. .. ..   . ... .. ............. ......   ........... . ",
"... . .  ....  . . . .. .....  ....    ......     .  ... .......",
" ..    . .....     ..  ..... ........   .... . .  ...... ... . .",
".  .   ....   .  .  ... ... . .. ... ....... .... ..  ..........",
"      ...........  .  ............  . . .. ........ .. .....  . "
};
