/* XPM */
static const char *blast_furnace_top[] = {
/* columns rows colors chars-per-pixel */
"64 64 6 1 ",
"  c #3F3E42",
". c #494848",
"X c gray31",
"o c #595858",
"O c #686868",
"+ c #747474",
/* pixels */
"OOOO++++++++OOOOooOOOoooooooooooooooooooooooooOOOOOO+++++OOOOOOO",
"OO+++++++OOOOOoooooooooooooooooooooooooooooooooooOOOOOOO++++OOOO",
"O++++++OooXX.......XXXX...........   ....XX...XXooooXXooOO+++OOO",
"O++++OoX..................    .....     ....XXXXXXXXXX.XXoOO++OO",
"++++OoXXX....XXXXX....      ....    ......  ....XX.......XoOOO+O",
"+++OoXX...XXXXXX.........        ....  .......XXXXXX....XXXoOOOO",
"+++oXX.  ........X...XX......     ....    .XoooooXXXXX.....XoOO+",
"++OXXXXX.   ..XXXXXX........XX......    ..XXXXooooooX.....XXXOO+",
"++oX....  .....XXXXXXXXX.XXX.     ......    ...XXX.XXXXX....XoO+",
"+Oo.........XXXXoooXXXooooX...      ..    ...XXX......XXXX...oO+",
"+O.   ...   ....XXXooXX..XXXX............XXX......XXXX.....XXXO+",
"+O..    ......XXXXooooXX........XXX...........XXXXXXXXXX......O+",
"OO  ...XooooXXXX........      .....XX.....XXXXXXXXXXooooooXX..O+",
"OO ...XXXXooooXXXX..      .......XXXXXX.....XXXXXooooooXX...XXo+",
"+O    .  ...XXX....XXXX..XX..XX.....   .XXXXXXXXXXX...XXXX....oO",
"+o  ....XXXX......XXX...  ..XX.  .   .....XXooooXXXXXX........oO",
"Oo.....XXXoooooXX.....      ..XX...XXXXXXXXXXXooooXXXXXX...XX.oo",
"OoXX.XX...XoooooooXX...       ..XoooXXooooXXXXXXXXXXX.....XX..oo",
"oo.XX....XooooXX.....     ...........XXXooooooXXXX........... oO",
"Oo.....XXXXXoooXX.XX....    ........XXXXXXXXXXXXXXXX...  ..   oO",
"oo..........     ..XX..........  .  ..XXX..XoooXX.......XX..  oo",
"oo..XXXX..  ...   ....  .....   ..........XXXX.....   .XX.    oO",
"oo....XXXX...  ...   ..     ..XXXXXXX..   ..XXX.  ..    ..... oo",
"oo.....XX.....  ....     .......XXXXXXXX......       .XXX...  oo",
"ooXXXXXXooX..XXXoXX........  ..XXoooooooXXXX............      oo",
"oo..XXooooooXXXoooXX.     ..XXooooooooXXXXooooXXXX....        oo",
"oo....XXXXooooX....... ...  ..  ...XooooXXXoooooXXXXX.......  oo",
"oo......XXXXXXXX..      .....  .XXooooooooooXXXXXXooXXXX..   .oo",
"oo..X..XXXXX....    .......XXXooooooooXXXXXX......Xoo...    ..oo",
"oo...XXXX...............XXoooooooXXXXXXXX.....XXX...XX.....  .oo",
"oo...........XXXX............XXXXXXXoooXXXXXoooX........X.....oo",
"oo..........XXX....XXXX.....XXooXXXXXXooXXooooXXXXX......XX...oo",
"oo....  ..    ....XXX............XXXXXX.....  ..  ...  .......oo",
"oo.  .......      ..  . ..    ......XXXXX.XX..      ..    ....oo",
"oo..           .......X.....    .   .......     ........XXX...oo",
"oo    ..        ....XXXXXX........    ..     ..........XX.....oo",
"oo.XXXX........  .X..XoooooXX...XXXXXX.....XXXooXXXX......   .oo",
"oo......XX....    .XooooXXX...XXXXXXX...XXooooooooXXXXXX....  oo",
"oo..XXoooooXXXXX......XX..XX......XXXXXXooooooXXXXoooXXXXXXX..oo",
"oo.....XooooXX......XXXXXX......XXXXooXXXXXXX....XXXooXXXXX...oo",
"oo  ......XXXXXooXXXXXXXXXXXXXooooXXXXXX...XXX.....XXX...XXXX.oo",
"oo    ..XXXXXXooooooXXXXooXXooooXXXXXXXXXX......XXXXX.........oo",
"oo   .......XXXXXXoooooXX..XXX.....XXX......XXXXoooooooXXX....oo",
"oo      ........XXXXX....XXX........XXX......XooooooXX........oo",
"Oo...XX.XXXXXX..............  .XX.. .....     .  .........    oO",
"OoXX.....XXX......   .....XXXXX.     .     .........  .....   oo",
"oo..XXooooXXXXXX......      .XXX........XXXXXX..   ...       .oO",
"oo...XXXoooooX...XXX.....    .........XXXXXX......   ...   ...oO",
"Oo.............XXX................XXX..XXXXXXXX.......XXXX....o+",
"Oo.     ........    ....  ....  ...XoooXXXooooooXX..XXXX....  O+",
"Oo    ...    .....      .......     ..XXoooooXXXX..  ..   ... OO",
"OO  .......   ......  .XX...      .....XXXXoooX...XX.XXXX..   OO",
"+O..  .........XXX......XX....XX...XXXXXXX..............XXX..XO+",
"+O...    ...XXoooooXX..........XXXXXoooX....XX...XXX...  ...XXO+",
"+Oo.....XXoooooXXXXXooXXXX.XXXooXXoXXXooooXooXX.  ....  .....oO+",
"++o.XXXX...XooooXXXXXXXX..  X..XooooXoooXXXX...     .XX..XXXXo++",
"++OX..XXX.....XXXX.....       ......XXXX..........    .....XXO++",
"+++oXXX...XXXXXX......    ...   .  ..XX...    ...........XXXo+++",
"+++OoX......XXXXXXXX....    ..XXX.XXXXXXXX...      ....XXXXoO+++",
"++++OoXXXX...........................XXXX.......  ...XX..XoO++++",
"O++++OoXX.....XX....   ....     ..........  ......  ....XoO++++O",
"O++++++Ooo........        ..        ....        ....XXooO++++++O",
"OO+++++++OOOOOOooooooooooooooooooooooooooooooooOOoooooO+++++++Oo",
"OOOO++++++++OO++OOooooooooooooooooooooooooOoOO++OOoOO+++++++OOoo"
};
