/* XPM */
static const char *blast_furnace_front_on[] = {
/* columns rows colors chars-per-pixel */
"64 128 19 1 ",
"  c #3F3E42",
". c #494848",
"X c gray31",
"o c #595858",
"O c #676161",
"+ c #686868",
"@ c #72796E",
"# c #747474",
"$ c gray50",
"% c #D0540D",
"& c #ED5D0A",
"* c #ED870A",
"= c #F0A242",
"- c #888788",
"; c gray56",
": c gray61",
"> c #ABACAB",
", c gray71",
"< c #C5C5C5",
/* pixels */
"<<<<<<<>;;>>>;;-++++####+#+###+#########++##+#++<<<<<<<>;;>>>;;-",
"<>>>>;;;;;;;;;-+++++++++++++++++++++++++++++++++<>>>>;;;;;;;;;-+",
"<>oo....oo..oo++XXXX.......  ...XXX.......      <>oo....oo..oo++",
"<>.oo.   ..ooo++XXXXXX..          ...XXX....    <>.oo.   ..ooo++",
"<>..  .......o++XXX.........    ...   .XXX..... <>..  .......o++",
"<>     .......++XXXX.....     .......   ......  <>     .......++",
"<;.  .........@+X...XXX...     ..   ...XX.....XX<;.  .........@+",
">;      ......-+XX....XXX...XXXX..........XXXXXX>;      ......-+",
";;  ........oo-@..XX.......XX.....XXXXooXXXXXXXX;;  ........oo-@",
">;...oo...oooo-+......XX.....XXXXXXXoooooooXXXXX>;...oo...oooo-+",
">;...........o-@ ....  ...XoooXXXXoOOOOooXXXooXX>;...........o-@",
";;.oo.......o+-@   .....XXXXooooXXXXooOOooXXXXXX;;.oo.......o+-@",
";#oo....ooo++o--  ...   ...XX.XXX..XXXXXXXXXXXXX;#oo....ooo++o--",
";#oooo....oo++--    ..    .....XXXXX..XXXXXXXXXX;#oooo....oo++--",
";;#-----------@-XoooooX......XXX..   ...XX....XX;;#-----------@-",
";-@@@@@@--@@@@--XXooOOooXXXX....    ..X.....XXXX;-@@@@@@--@@@@--",
"## ..XX.XXXXooOOoooooOOOoXXooOOOooXXooXXX.    .XXX....        ##",
"##   ......XXXXoooOOOOOOOOooOOoXXXXooXXX....    ....    ....  ##",
"##      .........XXXooOOooooXoooXX...XXXXXXX...     ..XXX..  .##",
"##        ....XXXoooooooooXXXXXXXXXX..XXXX....    .....XXXXX..##",
"##    ....XXoooXXXoooXXXXoooooX.....    .  .XX..XXooXXXXXXoooX#+",
"+#      .....XXXoooXXXooooooXXXXX.    .......XXXXoooooXXXoooXX#+",
"+#  ......    ..XXXXXXXXXXXXXXXXXX...XXX...XX.XXXXXXooooXXXXXX#+",
"##   ...    ......XXXXXXXXXXXXXXXXXX....XX.......XoooooXXXXX..##",
"+#      ..XX-----------------------------##########+OOOoooXXX.##",
"##.   ......----------------##--##################++OOoooXX...##",
"##.......XXX--<<<<<<<<<<<<<<<<<<<<><<<<<>>>>>>>>>>++XXXXXX....#+",
"##......XXoo-#<>>>>>>>>>>>>>>>>>>>>>>>>>>>>>>>>>::++ooX..XXX..##",
"##.XooX....X-#<>>>>>>>>>>>>>>>>>>>>>>>>>>>>>>:::::++X........ #+",
"##XXXooXXX..--<>>>>>>>>>>>>>>>>>>>>>>>>>>>>>>>>:::++XXXX.     #+",
"##..XXXXoooX-#>:::%%%%>>::%%%%>>::%%%%>>::%%%%>:::++......    ##",
"##XXXXooooX.-#;:::%%%%>:::%%%%>:::%%%%>:::%%%%>:::++.  .      ##",
"+#XX..XXX..###+;::%%&%>:::%%%%>:::%&%%>:::%%&%>:::++XXXXXX.   #+",
"+#.  ...XX##++#+::%&&%>:::%%%%>:::&&%%>:::%%&&>:::+oXX...  .  #+",
"+#  ...  .#+>>#+::%&&&>:::%%&%>:::&&&%>:::&%&&>:::+o......    ++",
"+#    ..  #+::#+::%&&&>:::%%&&>:::&&&%>:::&%&%>:::++  ..      ++",
"#;,,,,,,,,<>::#+::&&&&>:::&%&&>:::&*&&>:::&&&%>:::+o,,,,,,,,,,;#",
"+#:;::::::#+::#+::&&&&>:::&&&&>:::**&&>:::&&&&>:::+o::::::::::#+",
"++;;;;;;::#+::#+::&&*&>:::&&*&>:::***&>:::&&&&>:::+o;;;;::::::++",
"++;;;;;:::#+::#+::&&*&>:::&**&>:::**=&>:::&*&&>:::+o;;:::;;:::++",
"++;;;:::::#+::#+::&**&>:::&**&>:::**=*>:::**&&>:::+o;;;:::;;;:++",
"++;;;;;;::#+::#+::&***>:::*=**>:::****>:::***&>:::oo;;;;;;;;;;+o",
"++;;;;;;;:#+::#+::***=>:::==**>:::*=**>:::****>:::oo;;;;;;;;;;++",
"++;;;;;;;;#+::#+::***=>:::=***>:::*=**>:::****>:::oo;;;;;;;;;;+o",
"++;;;;;;;;#+::#+::=**=>:::****>:::==**>:::*=**>:::oo;;;;;;;;;;+o",
"++;;;;;;;;#+--#+::=*==>:::**=*>:::==*=>:::==**>:::oo;;;;;;;;;;+o",
"++-;;;;;;;+#++++::====>:::**=*>:::====>:::===*>::@oo;;;;----;;++",
"++---;;;;;#oooo@::====>:::*==*>:::====>:::===*>::@oo;;;;;;----++",
"o+--;;;;;;;#..@:::====>:::*===>:::====>:::====>::@o.;--;;;;;--+o",
"o+----;;;;--.o@:::====::::====::::====::::====:::@o.-;--;;;---+o",
"++-;;;;;---;.o@::::::::::::::::::::::::::::::::::@o.--;;------+o",
"++--;;;;;---..@@::::::::::::::::::::::::::::::::@@o.;;;-------+o",
"o+------;;;;..@@@@@@@@@@@@@@@@@@@@@@@@@@@@@@@@@@@@o.-------$$-++",
"o+-----;;;;;..@@@@@@@@@@@@@@@@@@@@@@@@@@@@@@@@@@@@o.--------$$++",
"o+--$$----;;...oo...ooooooooooooooooooooooooooooooo.$$-----$$$+o",
"o+$------;;;.............o..oooooooooooooooooooooo.o$---$$$$$$+o",
"++$$$$------$$$$$##############################$$$$$$$$$--$$$$+o",
"++$$$$$$-------$$$############################$$$$$$$$$$$$$$$$+o",
"o+$----------$$$$$$$##$$$$##############$$##$$$$$$---$$$$$$$$$+o",
"o+$$----$$----$$$$$$$$$$$$$$$$$$$$$$$$$$$$$$$$$$$$$$--$$$$$$$$oo",
"o+$$$$$--$$$$$$$$$$$$$$$$$$$$$$$$$$$$$$$$$$$$$$$$$$$$$$$$$$$$$oo",
"oo$$$$$$$$$$$$$$$$$$$$$$$$$$$$$$$$$$$$$$$$$$$$$$$$$$$$$$$$$$$$oo",
"oooooooooooooooooooooooooooooooooooooooooooooooooooooooooooooooo",
"oooooooooooooooooooooooooooooooooooooooooooooooooooooooooooooooo",
"<<<<<<<>;;>>>;;-++++####+#+###+#########++##+#++<<<<<<<>;;>>>;;-",
"<>>>>;;;;;;;;;-+++++++++++++++++++++++++++++++++<>>>>;;;;;;;;;-+",
"<>oo....oo..oo++XXXX.......  ...XXX.......      <>oo....oo..oo++",
"<>.oo.   ..ooo++XXXXXX..          ...XXX....    <>.oo.   ..ooo++",
"<>..  .......o++XXX.........    ...   .XXX..... <>..  .......o++",
"<>     .......++XXXX.....     .......   ......  <>     .......++",
"<;.  .........@+X...XXX...     ..   ...XX.....XX<;.  .........@+",
">;      ......-+XX....XXX...XXXX..........XXXXXX>;      ......-+",
";;  ........oo-@..XX.......XX.....XXXXooXXXXXXXX;;  ........oo-@",
">;...oo...oooo-+......XX.....XXXXXXXoooooooXXXXX>;...oo...oooo-+",
">;...........o-@ ....  ...XoooXXXXoOOOOooXXXooXX>;...........o-@",
";;.oo.......o+-@   .....XXXXooooXXXXooOOooXXXXXX;;.oo.......o+-@",
";#oo....ooo++o--  ...   ...XX.XXX..XXXXXXXXXXXXX;#oo....ooo++o--",
";#oooo....oo++--    ..    .....XXXXX..XXXXXXXXXX;#oooo....oo++--",
";;#-----------@-XoooooX......XXX..   ...XX....XX;;#-----------@-",
";-@@@@@@--@@@@--XXooOOooXXXX....    ..X.....XXXX;-@@@@@@--@@@@--",
"## ..XX.XXXXooOOoooooOOOoXXooOOOooXXooXXX.    .XXX....        ##",
"##   ......XXXXoooOOOOOOOOooOOoXXXXooXXX....    ....    ....  ##",
"##      .........XXXooOOooooXoooXX...XXXXXXX...     ..XXX..  .##",
"##        ....XXXoooooooooXXXXXXXXXX..XXXX....    .....XXXXX..##",
"##    ....XXoooXXXoooXXXXoooooX.....    .  .XX..XXooXXXXXXoooX#+",
"+#      .....XXXoooXXXooooooXXXXX.    .......XXXXoooooXXXoooXX#+",
"+#  ......    ..XXXXXXXXXXXXXXXXXX...XXX...XX.XXXXXXooooXXXXXX#+",
"##   ...    ......XXXXXXXXXXXXXXXXXX....XX.......XoooooXXXXX..##",
"+#      ..XX-----------------------------##########+OOOoooXXX.##",
"##.   ......----------------##--##################++OOoooXX...##",
"##.......XXX--<<<<<<<<<<<<<<<<<<<<><<<<<>>>>>>>>>>++XXXXXX....#+",
"##......XXoo-#<>>>>>>>>>>>>>>>>>>>>>>>>>>>>>>>>>::++ooX..XXX..##",
"##.XooX....X-#<>>>>>>>>>>>>>>>>>>>>>>>>>>>>>>:::::++X........ #+",
"##XXXooXXX..--<>>>>>>>>>>>>>>>>>>>>>>>>>>>>>>>>:::++XXXX.     #+",
"##..XXXXoooX-#>:::%%%%>>::%%%%>>::%%%%>>::%%%%>:::++......    ##",
"##XXXXooooX.-#;:::%%&%>:::%%%%>:::%%%%>:::%%%%>:::++.  .      ##",
"+#XX..XXX..###+;::%&&%>:::%%&%>:::%%%&>:::&%%%>:::++XXXXXX.   #+",
"+#.  ...XX##++#+::%&&&>:::%%&&>:::%%%&>:::&%%%>:::+oXX...  .  #+",
"+#  ...  .#+>>#+::&&&&>:::%&&&>:::%%&&>:::&%&%>:::+o......    ++",
"+#    ..  #+::#+::&&*&>:::%&&&>:::%%&&>:::&&&%>:::++  ..      ++",
"#;,,,,,,,,<>::#+::&&*&>:::&&*&>:::%%&&>:::*&&&>:::+o,,,,,,,,,,;#",
"+#:;::::::#+::#+::&&**>:::&**&>:::&%&*>:::*&&&>:::+o::::::::::#+",
"++;;;;;;::#+::#+::&&**>:::&***>:::&&&*>:::**&&>:::+o;;;;::::::++",
"++;;;;;:::#+::#+::*&**>:::&***>:::&&**>:::**&*>:::+o;;:::;;:::++",
"++;;;:::::#+::#+::****>:::****>:::&&**>:::****>:::+o;;;:::;;;:++",
"++;;;;;;::#+::#+::****>:::****>:::*&**>:::****>:::oo;;;;;;;;;;+o",
"++;;;;;;;:#+::#+::=***>:::**=*>:::****>:::*=**>:::oo;;;;;;;;;;++",
"++;;;;;;;;#+::#+::=***>:::**=*>:::****>:::*=**>:::oo;;;;;;;;;;+o",
"++;;;;;;;;#+::#+::==**>:::****>:::**=*>:::****>:::oo;;;;;;;;;;+o",
"++;;;;;;;;#+--#+::==**>:::****>:::**=*>:::**=*>:::oo;;;;;;;;;;+o",
"++-;;;;;;;+#++++::==*=>:::**=*>:::*==*>:::**==>::@oo;;;;----;;++",
"++---;;;;;#oooo@::====>:::=*==>:::*===>:::=*==>::@oo;;;;;;----++",
"o+--;;;;;;;#..@:::====>:::====>:::====>:::====>::@o.;--;;;;;--+o",
"o+----;;;;--.o@:::====::::====::::====::::====:::@o.-;--;;;---+o",
"++-;;;;;---;.o@::::::::::::::::::::::::::::::::::@o.--;;------+o",
"++--;;;;;---..@@::::::::::::::::::::::::::::::::@@o.;;;-------+o",
"o+------;;;;..@@@@@@@@@@@@@@@@@@@@@@@@@@@@@@@@@@@@o.-------$$-++",
"o+-----;;;;;..@@@@@@@@@@@@@@@@@@@@@@@@@@@@@@@@@@@@o.--------$$++",
"o+--$$----;;...oo...ooooooooooooooooooooooooooooooo.$$-----$$$+o",
"o+$------;;;.............o..oooooooooooooooooooooo.o$---$$$$$$+o",
"++$$$$------$$$$$##############################$$$$$$$$$--$$$$+o",
"++$$$$$$-------$$$############################$$$$$$$$$$$$$$$$+o",
"o+$----------$$$$$$$##$$$$##############$$##$$$$$$---$$$$$$$$$+o",
"o+$$----$$----$$$$$$$$$$$$$$$$$$$$$$$$$$$$$$$$$$$$$$--$$$$$$$$oo",
"o+$$$$$--$$$$$$$$$$$$$$$$$$$$$$$$$$$$$$$$$$$$$$$$$$$$$$$$$$$$$oo",
"oo$$$$$$$$$$$$$$$$$$$$$$$$$$$$$$$$$$$$$$$$$$$$$$$$$$$$$$$$$$$$oo",
"oooooooooooooooooooooooooooooooooooooooooooooooooooooooooooooooo",
"oooooooooooooooooooooooooooooooooooooooooooooooooooooooooooooooo"
};
