/* XPM */
static const char *blue_ice[] = {
/* columns rows colors chars-per-pixel */
"64 64 5 1 ",
"  c #6B9DFB",
". c #6CA3FD",
"X c #74ABFE",
"o c #8EB8FE",
"O c #A9C8FF",
/* pixels */
"   ......XXXoooooXXXXXXXX.       .XXXXoOOoXXXXXXXXoooOoX..XX. ..",
"   .......XXXoooXXXXXXXXX.       .XX.XXoOOooXXXXoooOOoX.. X..  .",
"  .... ...X.XooXX.XXXXXX.         XX..XXooOOooooOOOOoX... ..    ",
"  .... .....XXoX..XXXXX..         .X..XXXXXoOOOOOOoXXX.X  ..    ",
".  ...  ...XXXoX...XXX..     .    ....XXXXXXooOOooXXXXXX   .    ",
".  ..   ...XXXXX ..XXX..     .     ...XXXXXXXooOoXXXXXX. .     .",
"    .   ....XXX.  .XX..     ..     . ..XXXXXXXoOoXX.XXX...     .",
"    .    ...XXX.  ..X..   .....      ..XXXXXXXoooXX.XXX...      ",
"         ...XXX   ......  XXXX..      .XXXXXXXXooX..XX...     . ",
"  .      .X.XXX . ...... ..XXXXX..    .XXXXXXXXoo....X...     ..",
" ..     ..XXXX... X..........XXXX..  ...XXXX.XXoX..  ...     ...",
"...  .  ..XXX...  .XX.......XXXXX... ...XXXX..XoX.   ...  .  ...",
"..   ..  ..XX..  ...XXX...XXXXXXXX... ..XXX...XoXX .  ..  . ....",
"..  ...  ..X. .  ....XXXXXXXXXoXXX..  ...XX...XoXX..  .     ....",
".     .  ...    ......XXXXXXoooXXX..   ..X....XXXXX.  .     . ..",
".         ..    .. .....XXXoooXX.X ..  .......XXXXX   .       ..",
"..        .     .  ..XXXXXoooXXX..  X.  ... .XXXXX.          ...",
"....  ..  .       ..XXXXoooooXXXX.. XX  ..  .XXXXX   .     ...XX",
"XX.......      .  .XXXOOoooooXXXXX...X.  .  ..XXX.  ..   ..XX...",
"XXXX.....     .. .XXoooOOOooXXXXXX.....     ..XXX.  .  ...XX...X",
"XXX...  ..    ....XoooooOOOoXXXXXXX.. .     . .XX     ..XXXXXXXX",
"XXX.  .  .    . .XooooooooOOoXXXX.XX. ..      .X.    .XXXXXXXXXX",
"XX.  ..X.   ..  .oooooooooooOOoXXX.X  ..   . ...  . .XXXXXXXXXXX",
"....XXX.   ..  .XoooooooooooooOooX..   .   .....  ..XXXXXXXXXXXX",
"XXXXXX..     ..XooooooooooooooooooX. .      ...   .XXXXXXXXXXXXX",
"XXXXX..     ..XXoooooooooooooooooooX..      ...  ..XXXXXXXXXXXXX",
"XXX....    ..XXoooooooooooooooooXXoX..      ..   .XXXXXXXXXXXXXX",
"XXXX...   .XXXXoooooooooooXoooXXXXXX.   .   ..  .XoXXXXXXXXXXXXX",
"XXXX..     .XXoooXooooooXXXooXXXXXXXX  ..  ..  ..XooXXXXXXXXXXXX",
"XXXXX.      .XoooXoooooXXXXXoXXXXXXXX. ..  .. .. XoOooXXXXXXXXXX",
"XXXXX   . . .XooXXooooXXXXXXoX..XXXXXX..  ..  .. .XoOOoXXXXXXXXX",
"XXXoX  .. ..XXXoXXoooXXXXXXXXXX...XXXX..  ...  .  XXXoOOoXXXXXXX",
"XooX.  ...X.XXXXXooooXXX.XXXXXXX....XX.  .XXXX.   .XXXXoOOoXXXXX",
"ooX.  ....XXXXXXXoooXXXX.XXXXXXXXX..X. .XXXXXXX.   XXXXXooOOOooo",
"X...  . ..XXXXXXXoooXXX..XXXXXXXXXX...XXXXXXXX..   .XXXXXooOOOOo",
"....    ...XXXXXXooXXXX...XXXXXXXXX...XXXXXXX...   .XXXXXXoooooX",
"..X..    ..XXXXXXooXXXX...XXXXXXXXXX. XXXXXXX ..    XXXXXXXXooXX",
"..XX.    ...XXXXXXoXXX....XXXXXX.XXX. XXXXXX. .     .XXX.XXXooX.",
". .X.     ..XXXXXXXXXX...XXXXXXX..XX  .XXX.X  .     .XXX..XXXoX.",
".  ..     ..X.XXXXXXXX...XXXXXXX..XX   .X..X       . XX. .XXXoX ",
"   ..  .  ....XXXXXXX....XX.XXXX. X.    ....         ... .XXXX. ",
"    .. .. .. .XXXXXXX...XXX.XXX.. X..   ..X..         ..  XXXX. ",
"    ..  . ..  .XXXXX....XX..XXX.  ...  ...XX.         .   XXX.. ",
"     .     .   XXXXX. ...X...XX.  ..   ..XX.              .XX...",
"         .     .XXXX. .......X..   .  .. ...      ..       .....",
"        ..     ..XX.  ...  ..X..       .  .     ...         ... ",
"     .   ..   ......  ..     ....             ...       ..      ",
"    ..       ......    .    .....              ...    ...       ",
"     ...     .. .         .......               .....  ....     ",
"     .....    .     ..     ......         ...    ............   ",
"      ......       ..        ...        ....   ..XXXX.......... ",
"   . ......     ..XXX..       ..       .XX....XXXXXXXX..........",
"   ..XX..      .XXX......     .       .XX..XXXXXXXXX.......X.   ",
"  ..XXXXX.    ...XXX.......           .XXXXXXXXXXXXXXXX...XX..  ",
"  .XXXXXXX....XXooooXXX...           ...XXXXXXXXXXXXXXXXXXX.....",
". .XXXXXXXX.XoooooooooXXX.  .        .X.XXXXXXXXXXXXXXXXXXX.....",
"....XXX.XXXooooooooooooXXX. ..      ..oXXXXXXXXXXXXXXXXXXX....XX",
"XX .XX..XooooooooooooooXXX  ..   ....XoXXXXXXXXXXXXXXXXX....XXXX",
"X.  .X..ooooooooooooooooX. ..     ...oXXXXXXXXXXXXXXXXX..XXoooXX",
"..   X.XooooooooooooooooX....   ...XXoXXXXXXXXXXXXXXXXXXXXooXXXX",
".    ..XoooooooooooooooX....  .XXXXXooXXXXXXXXXXXXXXXXXXooXXXX.X",
".    ..XooooooooooooooXX.X.. .XXooooooXXXXXXXXXXXXXXXXXooXXXX...",
"   . ...XoooooooooooXXXXXX.    .XXoooooXXXXXXXXXXXXXXXooXXXXX ..",
"   .....XXooooooooXXXXXXXX.     .XXXooooXXXXXXXXXXXXooooX.XX. .."
};
