/* XPM */
static const char *budding_amethyst[] = {
/* columns rows colors chars-per-pixel */
"64 64 9 1 ",
"  c #462B7D",
". c #593A96",
"X c #5D3A9A",
"o c #64479E",
"O c #7A5BB5",
"+ c #8D6ACC",
"@ c #A678F1",
"# c #C890F0",
"$ c #FECBE6",
/* pixels */
"oOOOoOOOoooOoooOOOoOOOoooO@##@@@@@@@@$+++++++++++OOoOOOOOoOOO+oo",
"ooOoOOOoooO+OoooOooOOOOoO##$$$$$$$$$$$@@@@@@@@@@@+OOoOOOooOoO+oO",
"OOOOoooooOO@OOoooOooOooooO+@@++++++++@ooXXXXXXXXXoOooOOOoOooO+oO",
"OOOoooooOO+@OOOoooOOooooooO+@@+++++++@oXXXXXXXXXoOOoOOOooOoO++oo",
"OOOoOooOOO+@OOOOooooooooOoOO+@@++++++@XXXXXXXXoOOoOOOOooOOOO++Oo",
"oOOOOoOOO++@OOOOOooooooOOOoOO+@@+++++@XXXXXXXoOoOooOooOOOOO+++Oo",
"ooOOoOO++++@OOOOOOoo+OOooOOOOO+@@++++@XXXXXXoOOOooOOOOOOO+++++oO",
"ooOOO+@@@@@@@@@+++Oo@+ooOOoOOOO+@++++@XXXXXoOOOOOOoOOO++++++++oo",
"oooOOOO++++Ooooooooo#@+OOoOOooOO+++++@XXXXoOOOO+ooOOooOOoOOOOOOo",
"OoooOoOOO++o.ooooooo#@@+OOOOOoooO++++@XXXXOoOOO+o..oOooOOoOOOOOO",
"OOoooooOOO+OX.oooooo#@@@+OoOOOOooO+++@XXXoOOOOO+....oo.ooOOO+OOO",
"OOoooOOooOO+o..Xoooo#@@@@+OooOOOooO++@XXoOOOOOO@..oo.o..ooO+@+Oo",
"oOooOOooOOOooX..XooX$@@@@@+OooooOOOO+@XoOOOOOO+@O..oo.. oO+@@++o",
"OooOOOOO+oOOoo....XX$@@@@@@+OooOOOOOO@ooOOOOO++@+o...o  oooO+ooO",
"oOOOOoO+#OoOOoo. ..X$#@@@@@@+OOOOoOoOOoOOOOO+++@o.o.   .ooooOoOo",
"OOOooO+@#+OOOOoo. ..#$$$####@+OOOOoOOOOo+++@@@@@oo.   .ooooooOoO",
"OOooO+@@$+OOOOOoo.  .oooOOooOOOooOOOOOOOoOoOOOoo     .oooXoOOoOO",
"oOOO+@@@$++OOoOOoo.  ..ooOoOOOooOOOO+OOOooOoOo ..  .XoXoXoOOooOO",
"oOO+@@@@$@++OOooOoo.  ..oooooOOOOoO++oOoo.ooo..   o+XXoXXooooOOo",
"OO+@@@@@$@+++OOooOoo.. ..oooOOOOoO+o#Oo..oo...  .oO+ooXXXXoooooo",
"O+@##@@@$@++++OOooooo.  ..oOOooOOooO#o..o....  .@$$$###@@Ooooooo",
"+@##@@@@$@+++++OOooo...  ..OooOOooOO#Ooo.o.. .oo$@@++++OooXXoooO",
"@##@@@@@$@++++++Oo.....  ..oOoO+OOO+$oo.o.. .oOO$@++O+OooXXoOoO+",
"##@@@@@@$@+++++++OOOoo..  ..oO+OOO++$.....   ..o$++O+OoooooOoO+@",
"$$$$$$$$$@@@@@@@@@@OOOOo. . ..o++@$$$o..   .. ..#+OOOoooooooO+##",
"@@++++++@ooooooooooOOOooo.    ...  ..    ...o.oo#++OoooOoooooOO+",
"+@@+++++@oooooooOOOOOooOOo.     ..  ..    .oOooO#+OoooOooOooOOoO",
"O+@+++++@oooooOOOOOOooOOooo.       .     .oOOOOO@OooooooooOOooOO",
"OO+@++++@ooooOOOoOOoOOoOOOo.      ...   #$$$###@OoooOOooOooOOooO",
"OOO+++++@oooOOooOOOO+@@@###@.   .ooo.   $++++++OOOoOOoooOooooooo",
"ooOO++++@ooOOooOOOOOO+++++@#.. .oo+oo.  $+++++OooOOoooOO+OoooOoo",
"OooOO+++@ooOOOOOOOooOO+++++#..oo++++oo X$++++OooOOoooOO+@OOoooOo",
"oOOOOO++@oOOOOOooOOooOO++++# ..oo++oo.Xo#+++OoooooooOO++@+OOoooo",
"ooOOOoO+@oOOOOOOooOOooOO+++@  ..oooo. XO#++OoooooooOO+++@++OOooo",
"OOooOOoO@oOOooOO+OoOOOoOO+++     ...  oO#+OooooO+O+O++++@+++OOoo",
"oOOooOOOOOooOOO+#OOOOoOOoO+o .    ..   O@OooXoOO@+O+++++#++++OOo",
"OoOOOOOoOooOOO++#OOOOOoOOoOX  .  ..    XoOoXoOOO@++O++++#+++++OO",
"OOO+OOoOOOOOO+++#OOOOoooOOoX            XoXXOoO+@+++O+++##@@@@+O",
"OO+@+OOOOoOO++++#oOoXXooooX     XXoX    .XXooOOO@++++O++++++++OO",
"O++@++OOoOO+++++#OoooXX...   XXooooooX   XXoXoO+@+++++O++++++OOO",
"+@@@+++OOO++++++$ooooo.X    #$$$###@oOo  .o.XXo+#++++++O++++OOOo",
"oOO+OoooO++++++@$ooXoX   ..o$OOOOoooOOoo  .o.XXo#+++++++O++O+Ooo",
"ooO+oooO++++++@@$XooXX. .ooO$OOOooooOooO. ..X..X#@++++++++O+OooO",
"OOo+ooO+#####$$$@.XX  ..oooo$OOooooOOOOoo  ...oo@###@@@@+OOOOooO",
"OOOOoOOOO++@oOOo..   ..ooOOo#OooooOOooOO+.  ...XoOOOOooOOOOooOoo",
"OoOOOOOO+++@OOo..  ...ooooOO#OoooOoooOo+@oX. ...XXoOOOooOOooOOOo",
"ooOOOOO++++@oOoo .XX.XXoOOoO#oooOOOoOo++@++X.X.XX.X.oOOOoOOOoOOO",
"oOOOOO+++++@oo  XXX.XooOOOO+@ooOoooOO+++@+++o.X.o..X.ooO@+OOOOOO",
"OOOOO++++++#X  XXoo.$$$$#@@@ooooooOO++@@@####$$#.ooo..oo@++OOOOO",
"OOOO+++++++#oXXoo.X.#OOOOOOooooooXooOOO++@@++++$.oo....o@+++OOOO",
"+OO+++++++@#Oooo.X.o#OOOOOoooOoXXooOoooO++@@+++$..o..o.o@++++OOO",
"++O@@@@@###@o.XXoooo#OOOOoooOoXXooooOOooO+++@++$..oo.oo.@+++++OO",
"+++OoO+@+@@+.XXoOooX@OOOooooooooooOOOOOoOO+++++#X..oooOO#++++++O",
"++++OoO+@@+@OoO+OoXo@OOooooOOoooOOOoO#OOoOO++++#XX.ooooO#@++++++",
"+++++OOO+@@@+O++Oooo@OooooOOOOoOOooO@#+OOOOO+++#XooOoOOO#@@+++++",
"@@@@@@OOO+@+++++OoooOooooOOOOoOOooO@#$++OOOOO++@ooOoOOOO@###@@@+",
"XXXXXoOoOO+++O+++ooooooOOooOOOOOOO@##$+++OOooO++oOOOoO++++++++XX",
"XXXXoOOOooO+++O++oooooOOooOOoOOoO@##@$++++OOooO+OoOOOOO+++++++XX",
"XXXoOOoOOooO++++@ooooOOOOOOoOOoO@##@@$@++++OOOOOooOOOOOO++++++XX",
"XXooooOOoOOOO+++@oooOOoOOOooOOO@##@@@$@@++++OOoooooOOOoOO+++++XX",
"XoOOoooOOooOOO++@ooOOOOooOoOOO@##@@@@$+@@++++OOooXoOoOOooO++++XX",
"oOOoooooOOooOoO+@oOoOOooOOOOO@##@@@@@$++@@++++OOooXoOoOOooO+++XX",
"OoooOOoooooooOoO+OoOOOOOOooO@##@@@@@@$++++@++++OoOXXoOOOOOOO+@Xo",
"oooOOoooOoooooOOOOOOOOOoooO@##@@@@@@@$++++++++++OOoXooOOOoOOO@oo"
};
