/* XPM */
static const char *cactus_bottom[] = {
/* columns rows colors chars-per-pixel */
"64 64 7 1 ",
"  c #39581A",
". c #426520",
"X c #8DB04B",
"o c #A0BF64",
"O c #CACC70",
"+ c #D1D37A",
"@ c None",
/* pixels */
"@@@@@@@@@@@@@@@@@@@@@@@@@@@@@@@@@@@@@@@@@@@@@@@@@@@@@@@@@@@@@@@@",
"@@@@@@@@@@@@@@@@@@@@@@@@@@@@@@@@@@@@@@@@@@@@@@@@@@@@@@@@@@@@@@@@",
"@@@@@@@@@@@@@@@@@@@@@@@@@@@@@@@@@@@@@@@@@@@@@@@@@@@@@@@@@@@@@@@@",
"@@@@@@@@@@@@@@@@@@@@@@@@@@@@@@@@@@@@@@@@@@@@@@@@@@@@@@@@@@@@@@@@",
"@@@@...................     ................................@@@@",
"@@@@.     ......   .     .............     ..........      .@@@@",
"@@@@. OOOOOOOOOOO++++++OOO+++++OOOO+++++OOOO+++OOOOOOOOOOO .@@@@",
"@@@@..OO+OO++OOOOOOO+++++OO++OOOO++++OOOOOOOO+++++O++OOOOO..@@@@",
"@@@@. O+++OO++++OOOOOOO++++OOOOOOOOO+++OOOO+++++OOOOOOOOOO..@@@@",
"@@@@. O+OOOOOO++++OOO++++OOOOOOO+++OOOOOO++OO+OOOOOOOOOOOO..@@@@",
"@@@@..+OOOOOOOOOOOO++OO+++OOOO++OOOOOOOOOO+++++++OOOOO+++O..@@@@",
"@@@@..+OOO+OOOOOO+++++OO++++OOO+++OOOOOOOOOO++OO++++OOOO++..@@@@",
"@@@@..++OO++OOooXXXXooXoXXXoooooooooXXoooXXXXXXXXoO++OO++O..@@@@",
"@@@@..++OO++OoooooooooooooooooooooooooooooooXXXXoooOOOOO++ .@@@@",
"@@@@..O+O++OoooOOOOO+++OOOOOO+++OOOOOO+++++OOOOOOoooOOOOOO .@@@@",
"@@@@..O+O++OXoOOOO++++++++OOOOOOOO++++++++OO++OOOOoXOOOOOO .@@@@",
"@@@@..O+++O+XoOO+++++OOO+++++OOOOOOO+++OOOOOO++OO+oXOOOOO+ .@@@@",
"@@@@. O+++O+oXO++OOOOO+++OOO++OOOOOOOO+++OOO++OOO+oXOO+OO+..@@@@",
"@@@@. OO++O+oX+OOOOOOOOOOO++OOOOOOOOO+++++++OOOO++oXOO+O++..@@@@",
"@@@@. OO++OOXX++++OOO+++OOOOOOO++OO++++OOOOOOOOO++oXOO+O++..@@@@",
"@@@@  OO+OOOXXO++++++OO++++OOOOO++++OOOOOO+OOOOO++oo+O+++O .@@@@",
"@@@@  OO+OOOXXO+++O+OO+++OOOOOOOOOOO+++OO+++OOOO+Ooo+++++O .@@@@",
"@@@@  O+OOOOXoOO+OO+O+OOOOOOOOOOOO+++OOOOOO++OOO+OoX++O+++ .@@@@",
"@@@@  O+OO+OXoOO+OOO++OOOOOOOOO++++OOOOOOOOOOOOO++oX++OO++ .@@@@",
"@@@@  OOOO++XoOOOOOO+OOO++ooooXXXoXXXXOOOOOOOO+OO+oX+OOO+O .@@@@",
"@@@@  OOOO++XoOO+OOO+OOO+oooooooooooooXOOO+OOO+OO+oX+OOO+O..@@@@",
"@@@@. OOO++OooOO++OOOOOOoooOOO+OOO++OoooOO++OO++O+oo+OOOOO .@@@@",
"@@@@. O+O++OooOOO+OOOOOOooOOO++OOOO++OooOO+++OO+OOooOOO+OO .@@@@",
"@@@@. O+O+O+XoO+O+OOOOOOooOO++OOO+++++oo+OO++OO++OooOO++OO..@@@@",
"@@@@..O+++O+XoO+OOO+OOOOXoOO++OOOO++OOoo+OO+++O++OooOO+OOO..@@@@",
"@@@@..O+++O+Xo++OOO+O+OOooO+O+O+OOOO++oX++O+O+O++OooOOOOOO..@@@@",
"@@@@..OO++O+Xo++OO++O++OXoO++O++OOOOO+oX++O+O+++OOooOO+OOO..@@@@",
"@@@@..OO++OOXo+O+O+++++OXo+O+O+OO+OOOOoX++++OO++OOooOO+OOO..@@@@",
"@@@@..OOO+OOoo+O+O++++++Xo+O+OOOO++OO+oXO++OOO+OOOoXOO++OO..@@@@",
"@@@@..O+O++OooOO+++O++++Xo++OOOOOO++++oXO++OOO+OOOoXO+++O+..@@@@",
"@@@@..O+O++OooO+++OO++++ooO+OOOO+++++OooO+OOOOOOOOoXO+++O+..@@@@",
"@@@@..++O++Ooo++O+O+++O+ooOOOO++OO++OOooOOOOO++O++oo++O++O..@@@@",
"@@@@..+OO+OOoo++O+O+O+OOoooO+++++OOOOoooOOOOOO++OOoo++O++O..@@@@",
"@@@@. +OO+OOoo++O++OO++OOooooooooooooooOOO++OOO++Ooo+OO+++ .@@@@",
"@@@@. O+OOOOoo++OO+OOO+OOOooXXXXXoooooOO+++OOO++OOoX+OOO++ .@@@@",
"@@@@. O+OOO+oo+OOO+OOOOOOOOOOOO+++++OOOOO+++OOOOOOoXOOOO+O .@@@@",
"@@@@. OOOOO+Xo+OOOOOOOOOO+++OOOOOO+++++OOOO++OOOOOoXOOOO+O .@@@@",
"@@@@..+OOO+OXoOOOO++++OOOOO++OOOOOOO++++++OOO++OOOoX+OOOOO  @@@@",
"@@@@. +OOO+OXoOOOOOO++++OOOOOOOOO++++++OO+++OO++OOoX+O+OOO  @@@@",
"@@@@. ++OO++XoOO+++++OO+++OOOO++++OOOO+++OOOOOO++OoX+O+OO+. @@@@",
"@@@@. ++O+++XoOOO+++++OO++++OOOO++++OOOOOOOOOO++OOoX++OOO+. @@@@",
"@@@@. +OO+O+ooO+++++++++OOOOOOOOOO+++++OOOOO++OOOOooO+OO++ .@@@@",
"@@@@..+O+OO+ooOO++OO++OOOOOOOOOOOOOOO+++++++OOOOOOooO++O++ .@@@@",
"@@@@..O++O++ooOOOOO++++OOOOOOOOOOOOOOOOOOOOOOOOOOOoo+++++O .@@@@",
"@@@@..O+O++OoooOOO+++OO+++OOOOOOOOOOOOOOOOOOOOOOOooo++O++O .@@@@",
"@@@@..O+O++OOooooooooooooXXXXXoooooooooooooooooooooOO+O+OO .@@@@",
"@@@@..OOO+OOOOoooooXooXXXXXoooXXooooooXXXoXoXXXXXoOOOOO+OO..@@@@",
"@@@@..OO++OOOOOO++++++OO++OOOO++++OOOOO+++OO+++OOOOOOO++OO..@@@@",
"@@@@..OO+OOO+++++++OOOOOOOOOO++OOOOOOOOOO+++++++++OOOO+OOO..@@@@",
"@@@@. OO+OOOOO+++OOOOOOOOO+++OOO++++OOOOOOOO+OO++OOOOOOOOO..@@@@",
"@@@@. OOOOO+++OO+++OOOOOOOOO+++++OOOOOOOOO+++++OOOOOOOOOOO..@@@@",
"@@@@. OOOOOOO+++OO++OOOO++++++OOOOOOOO++O++OOO+++++OOOOOOO .@@@@",
"@@@@. OOOOOO+++++OOOOO++++OOOOOO+++OOOOOOOOOOOOO++++++OOOO .@@@@",
"@@@@.    .............     .  ........         ...... ..   .@@@@",
"@@@@.............. .    ....................................@@@@",
"@@@@@@@@@@@@@@@@@@@@@@@@@@@@@@@@@@@@@@@@@@@@@@@@@@@@@@@@@@@@@@@@",
"@@@@@@@@@@@@@@@@@@@@@@@@@@@@@@@@@@@@@@@@@@@@@@@@@@@@@@@@@@@@@@@@",
"@@@@@@@@@@@@@@@@@@@@@@@@@@@@@@@@@@@@@@@@@@@@@@@@@@@@@@@@@@@@@@@@",
"@@@@@@@@@@@@@@@@@@@@@@@@@@@@@@@@@@@@@@@@@@@@@@@@@@@@@@@@@@@@@@@@"
};
