/* XPM */
static const char *calibrated_sculk_sensor_top[] = {
/* columns rows colors chars-per-pixel */
"64 64 9 1 ",
"  c #052A32",
". c #034150",
"X c #074857",
"o c #6E757B",
"O c #54649B",
"+ c #009295",
"@ c #B38EF3",
"# c #CFA0F3",
"$ c #FECBE6",
/* pixels */
"....X.XXXX.X.........................XX..XXX...X..X.XXXX........",
"....XXXXXX...........................XX.XXXXXX..X...XXXXX.......",
"...XXXXXXXX...........................XXXXXXXX.XX..XX.XXX.......",
"...X.XXXX.X...................... ...XXXXXXXXXXXXX.X..XXXX.X....",
".....XXXXX.XX...................   .XXXXXXX.XXXXXXX..XXXXXXXo...",
"......XXXXXXXX................... ..XX.XXXX..XXXXXX.XXXXXXXooo..",
"........XXX.......X......o...........X..X.X...XXXXXXXXXXX.X.o...",
"..........XX......XX....ooo.............XX..X.XXXXXXXXXXXX......",
".................XXX....XoXX.............XX.XXXXXXXXXX.XXX.X....",
".................XXX...X.XXX..XX..........XXXX.XXXXXXX.XXXXX...X",
"X...............XXXX...XXXXXX.XXX.....X..XXX....XXXX..XXXXXXX..X",
"X..........X....XX.X....XXXXXXXXXX...XX.XX......XX...XXXXXXXX.XX",
"XX.X.....o.XX...XXX..X..X.XXXXXXXXX..X..........X...XXXXXXXXXXXX",
".X.XX...oooXXX..XX..XX....XX.XXXXXX.XX.........o....XXXXXXXXXXXX",
"X.XXXX...oXXXX.XXXX.XXX....X..XXXXXXXX..X.....ooo..XX.XXXXXXXXXX",
"..XXXX..X.X.XXXXXXXXXXX....X..XXXXXXXX..XX.....o........XXXXXXXX",
".XXXXX.XX....XXXXXXXXXXX.....XX.XXXXX..XXX................XXXXXX",
"XXXXXXXXX....XXXXXXXXXXX...X.XX.XXXXX.XXX..................XXXXX",
"XXXXXXXX......XXX.XXXXX.X..XXX.XXXXX..XX.............X......XX.X",
"XXXXXXXX.X....XX..XXXX..XX..XX.X.XXX..XX.X..........XX.X....XX..",
"XXXXXXX.XX....XX..XXXX.XXX..X....XXX.XXXXX..X......XXXXX.....X..",
"XXXXXXX.XXX....X...XXX.XXX......XXXXXXXXXX..XX...X.XXXXXX.......",
"XXX.XX..XXXX.....X.XXXXXXX.....XXXXXXXXXX.XXXX.X.XXXXXXXX.......",
".XX.XX.XXXXX.X...XXXXXXXXX.....X.XXXXXXXX.XXXXXX..XXXXXXXX.X....",
".X..XXXXX.X.XX ...XX.XXXX........XXXXXXX..XXXXX...X.XXXXXXXX..+.",
"....XXXXXX..X   ..XX..XXX.......XXXXXXXX.XXXXXX.....XXXXXXXX.+++",
"...XXXXXXX.XXX ...X..XXX...+..OO@@OO.XXXXXXXXX.... ..XXXXXX...+.",
"...X.XXXXXXXXXX.....XXX...++O@@@@@@@OXXXXXXX.X...   .XXXXXX.....",
".....XXXXXXXXXXX...........O@@@@@@#@@OXXXX.X...... ...XXXX...X..",
"......XXXXXXXXXX..........O@@@@@@@@#@@.XXX............XXXX..XX..",
".X.....XXXXXXXXX..X.......O@@@@@@@@#@@O.XX.......X....X.XXX.XXX.",
"XX.......XXXXXXXX.XX......@@@@@@@@@#@@O.X.....X..XX.....XXX.XXXX",
"X..........XXXXXXXXX...X..@#@@@@@@##@@O.......XX.XX....XXXXXXXXX",
"X ..........XXXXXXXX..XX.XO@##@@###@@@......X.XXXXXX..XX.XXXXXXX",
"   .......X.X.XXX.X.X.XXXXXO@##$$#@@@O. ....XXXXXXXX.XXX..XXXXXX",
". X.......XX..XXXX..XXXXXX.XO##$##@@O.   ..XXXXXXXXXXX...XXXXXXX",
"..XX...X.XXX..XXXX.XXXXXOOOOO##$#@OO... ...XXXXXXXXXXXX.XXXXXXX.",
"X.XX.X.XXXXX.XXXXXXXXXXXX.OO###$#@@.......XX.XXXXXXXXXXXXXXXXXX.",
"XXXXXX..XXXXXXXXXXXXXXXXX.XX.O#$#@O.......X..XXX..XXXXXXXXXXXX..",
"XXXXX...X.XXXXXXXXXXXXXXXXXXXX#$@@O.........XX...XXXXXXX.XXX.X.X",
"XXXX......XXXXXXXXX.XXXXXXXXXX#$#@@O............XXXXXXXX..XX..XX",
"XX.X......XXXXXXXXXX.XXXXXXX.X#$####@@OO..........XXXX.XX.XX..XX",
"XX...X.....XXXXXXXXX..XXXXXX@#$$@@OX................XXX.X..X..XX",
"X...XX.X...XXXXXXXXXX.XOO@@@$$$$@OXX....X............XX..X.....X",
"X.X.XXXX....XXX.XXXXXX..XXXO@##$#OX.....XX............XX...o...X",
"XXXXXXXX.....XX..XXXXX....XXO@#$#@O.....XX.............X..ooo..X",
"XXXXX.X......X.X..XXXXo..XOO@@@$$#@@OOO..XX................o....",
"X.XXXX.....+..XXX.XXXoOOO@@@@@#$$$####@@@OX....+.X..............",
"..XXXX.X..+++XXX.XXXXXoXXX..O##$@@OOO...XX.X..+++XX.XXX...XX....",
"...XXXXX...+..XXXXXXXXXXXX.X.O#$@@@@@@@OO..XX..+.XXXXXXX..XX....",
"....XXXXX.....X.XXXXXXX.X.XX.O#$###@OO....XXX...X.XXXXXX.XXXXX..",
"....XXXXX.......XXXXXXXX..XX..#$#@OOO.....XXXX..X..XXXXXXXXXXX..",
".....XXX.........XXX.XXX.XX...##@@@O.....XXXXX.X...XXXXXX.XXXXX.",
"......XX.........XXX..XXXXX...#$@OO...X.XXXXXXXXXX..XXXXXX.XXXXX",
"X.....X..XXX......XX..X.XX...O#$$$$$##@@OOOXXXXXXX.XXX.XXX..XXXX",
"X.........XXXX.X..X.....OOOO##$$###@@OOXXXXXXXXXX.XXX...XX..X.XX",
"XX.....XXXXXXXXX....@@####$$$$$$##OOOX.XXXXXXX.XXXXX... X..XXX.X",
"XXX.XX..XXX.XXX.... ..OO@@@##$$$#@@O.XXXXXXXX..XXX.X..   .XX...X",
".XXXXXXXX..XXX....   ....OO@@@#$OO....XXX.XXX...XX....X .......X",
".XXXXXXX..XX....... .OOO@@#####$O.....XX..XX..X.X...XXXX........",
"..XXXXXXXX......XX.......OO@###$@OOO...X...X..XXXX.XXXXX........",
"..X.XXXXXXX...XXX..........O@@#$@@@@@O.......XXXXXXXXXX.........",
"..X..XXXXXXXXXXX.............@#$#@@OOOO..X....X..XXXXX..........",
".....XXXXXXXX...............@@#$####@@OOOOO.......XXXX.X........"
};
