/* XPM */
static const char *campfire_log[] = {
/* columns rows colors chars-per-pixel */
"64 64 15 1 ",
"  c #191B1E",
". c #1F2329",
"X c #4C3D26",
"o c #5F4A2B",
"O c #745A36",
"+ c #2C3543",
"@ c #3A485F",
"# c #566378",
"$ c #917142",
"% c #967441",
"& c #987849",
"* c #9F844D",
"= c #B8945F",
"- c #C29D62",
"; c None",
/* pixels */
"$$$$$OOO$$$$$$$$&&&&&$$$$$$$$$OOOOO$$$$$$$$$$$&&&$$$$$$$$$$$$$$$",
"$$OOOOOOOO$OO$$&&&&&$$&&$$$$$$$$$$OOOO$$$$$$&&&&&&&$$$&&&&$$$&&$",
"$OOOOO$$$$$$&&$$$&&&&&$$$&&&$$$$OOOO$$$$&&&&&&$$$$$$&&&&$$$$$$OO",
"$$$$OOOO$$OO$&&&&&&$$$$$$$&&&&$$$OOOO$$$$$&&&&&&$OOOO$$$OOO$$$$$",
"OOOOOOOOOoXXoooOOOOO$$$$OOO$$$OOooooOOOOOOO$$$$$$$OOooXXXXXoOOOO",
"OOOOooooXXXXXXXXooOOOO$$$$OO$$$$$OooooOO$$$$$$$OOoooXXXXXoOOOOOO",
"OO$$$OOOOOooooXXXXXXooOOOO$$$$OO$$$OOO$$$OOOOOoooooooooOOOOOOOOO",
"OOOOOOO$OOOOOOOoooooooooOOOO$$$$OOOOOOO$$$OOoooXXXooOOOOOO$$$$OO",
"$$$OO$$$$$$$OOOOOO$$OOOO$$$$OoooooOOOOOoooXXXXooOO$$OO$$$$OOOOOO",
"OO$$OOO$OO$$$$OO$$OOOO$$$$$$$$OOooooOOOOoXXXooOOO$$$$$$$$$$$OOOO",
"O$$$&&&&&$$$$$$&&&&&$$$$$OOO$$$$$$OOooooooooOOooooOOOOOOOO$$$$$O",
"OOO$$$$&&&&&$$&&&&$$$$$$&&$$$$$$$$$$$OoooooOOOOOooooOOOO$$$$$OOO",
"XXooOOO$$$$OO$$$$&&&&&&&$$$$$$OOO$$OOOOO$$$$OOOOOOOOOOOOOOOooXXX",
"ooXXXooooO$$OOOO&&&&$$$$$OOOOOOO$$$$$$OOOO$$$$OOOOOOOOooooXXXXoo",
"$$OOooooOOOooOO$$$$$$$OO$$OO$$$$$$$OoooooOOOOOOOooooXXXXXXooOOOO",
"O$$$$OooooOOOO$$$$$$OOOOOOOOOO$$OOooooOOOOOOooooooXXXXXooOOOooOO",
"ooooOOoOO$OOO$Oo;;;;;;;;;;;;;;;;;;;;;;;;;;;;;;;;;;;;;;;;;;;;;;;;",
"oO$$$OO$$$$$$$$o;;;;;;;;;;;;;;;;;;;;;;;;;;;;;;;;;;;;;;;;;;;;;;;;",
"O$=----------=$O;;;;;;;;;;;;;;;;;;;;;;;;;;;;;;;;;;;;;;;;;;;;;;;;",
"O$-==========-$O;;;;;;;;;;;;;;;;;;;;;;;;;;;;;;;;;;;;;;;;;;;;;;;;",
"$$-=*%%***%*=-$$;;;;;;;;;;;;;;;;;;;;;;;;;;;;;;;;;;;;;;;;;;;;;;;;",
"$$-=%******%=-$$;;;;;;;;;;;;;;;;;;;;;;;;;;;;;;;;;;;;;;;;;;;;;;;;",
"O$-=%*=--=*%=-$O;;;;;;;;;;;;;;;;;;;;;;;;;;;;;;;;;;;;;;;;;;;;;;;;",
"O$-=%*-==-*%==OO;;;;;;;;;;;;;;;;;;;;;;;;;;;;;;;;;;;;;;;;;;;;;;;;",
"O$-=**-==-*%=*Oo;;;;;;;;;;;;;;;;;;;;;;;;;;;;;;;;;;;;;;;;;;;;;;;;",
"$$-=**==-=*%=*$O;;;;;;;;;;;;;;;;;;;;;;;;;;;;;;;;;;;;;;;;;;;;;;;;",
"O$==%*****%%=*$o;;;;;;;;;;;;;;;;;;;;;;;;;;;;;;;;;;;;;;;;;;;;;;;;",
"O$==*%%%%%%*=*Oo;;;;;;;;;;;;;;;;;;;;;;;;;;;;;;;;;;;;;;;;;;;;;;;;",
"o$=*====**==**OX;;;;;;;;;;;;;;;;;;;;;;;;;;;;;;;;;;;;;;;;;;;;;;;;",
"OO************oX;;;;;;;;;;;;;;;;;;;;;;;;;;;;;;;;;;;;;;;;;;;;;;;;",
"oOO$$O$$$$O$OOoo;;;;;;;;;;;;;;;;;;;;;;;;;;;;;;;;;;;;;;;;;;;;;;;;",
"ooooOOOOOOOOOooo;;;;;;;;;;;;;;;;;;;;;;;;;;;;;;;;;;;;;;;;;;;;;;;;",
"+.+.++@+@@@+@++..++@@+@@++..+++@@@+@@++@...+@++.+++.+@@+..+@@##@",
"@+...++@@+@@++..++.+@@+++..+..@#@@@+.+@@+. .+@.....+@@+. ..+#@##",
"+.+. .+++..+@@++.+ ..++...+.+@@##+..+@@+.+.  .++..+@+.  +@@++@@+",
".@++. .+..+.+++.  ..++++.+++@@#++..+@+++ .  .++..+++.  .@@++.+++",
".+@+  ..++@@@+@++.@##++@++.  +@@++ .+@+.. ..@##++.   ...+.+.+.+.",
".@@++  ..++@+@@@@+##+@++@++.  .+..  ++..  .@##@@++. .+.+++.  .. ",
"+@+.++ .+#@@+++@+#@+. +@@+++ .+.. .+..+ ..+++@#@..@@..++@+++.+ .",
"@+...+. #@@..+@+@@+.  .+@@+..+@++.+@+..+.+@@@++..+@+ ..+#@@@++.+",
"+.+.+..++..++..+..  ..+@+.  ..+@++@#@+..+@@+  .@+@++.  .@#@@@.+@",
"++++..++..+@..+++..+.+@@. . ++@@@@#@+.++@++  .++@@+.  .++@+@++@@",
"+@..++..+@@+@+..++..++@.++@+..+@@+ ..++@+. ..+..++  .+@@++++.@@+",
"@++..++..+@@+@+..+.+@@. .@+++..++ ..++@@@+..+..++..++.+@@+..++.@",
"@@.+#@.+@@++.@@++.+@@+@# ..@++@+  ++..+.+..+..+.#@##@+..+@+...++",
"+@+##@+.+@@+..@+.+@++@#@+.++@@@@ ..++. +..++@++@@##@+++..+++.+@+",
".+@#@++..++.+.+@ .+++..+++..+@@+. ++@+.  .@##@@@++...+@@@++@+@++",
"+.+@++..++@++.+@.  +..+.+..+@@+++.+@++  ++##@+@+.  .+@++@@++@@@@",
". +@+..+@@+..+#@+.  +.  ..++@##@++@@. ..+@@+#++  .++.++..+@@++@+",
"  @+. ..+@..+@##@@.+@+.  +@@##@@+.+@+..+.+@@++..  .+++..+++@@.++",
" .++   ..+.+@#+@@++@++ .+@@+.@#++..+@@@++..+@++@@++...++...+++..",
".++ . .+@@++++@+.++@@+.+@+...+@+. .++@++..++@+.+@@...++.+...+.. ",
".+..+@##@+ .+++.  .+@@+++.+.  .  .+.++..++..+@..++@@+++@@+@+.  .",
"+..+++@##+.  ..++.@@+++..+.  .+.  .++..+@+ ..+. +@@+@+@#@@+.  .+",
"..@@+.++@#@@..+.+@+++.. .+ .++..+++..++@+.. .+  .+@..++@##@@. +@",
" .+@++.@@@++@+++@#+.   .+@.+@+.+@+++..@@+. .+@+  .++. .++@@+..@#",
"  .+#@..@+@+++..+@##. .+@@#+++@@++@@##@+.  ++@@.++.  .++@+..++..",
". +#@..++.++.. .++#@+. @+#@#+.+@@++#@##@+ +@@++@+++.++@@+..@+.+.",
"+.+++.+@@+..+..  ..+@@+++++.+..++@+++@@+ .@@++.+##@+@@@..+@+@@++",
".+@+.+@+@@+..+++..+.+@@+.+...++...++@@@@++++....@##@+@++..+@#@@+",
"+@++..+. .+++##@++....+++...+@@+.  .+@++@+..+.++++@#++..++##@@+.",
" @@++..+  +@##@@@++..+@@++.+@@+.  .+@+.++++..+++.++@.. .@+@##+..",
"..+@++  .+@#@+@++...+@@+..++++@++. .+++...++@+@@+..   .++@@@+.  ",
"+..++++.+++@++++.+.+@++++..++@++.+...+...+..+@@+++.. .+.++@+++. "
};
