/* XPM */
static const char *cauldron_side[] = {
/* columns rows colors chars-per-pixel */
"64 64 8 1 ",
"  c #2D2D32",
". c #343438",
"X c #3F3E42",
"o c #494848",
"O c gray31",
"+ c #595858",
"@ c #5D5D5D",
"# c #676161",
/* pixels */
"OOOOOOOOOOOO++++++####++################++++++++OO++OOOOOOOOOOOO",
"OOOOOOOOOOOOOOOOO+++++++++##########++++++++++OOOOOOOOOOOOOOOOOO",
"OOOOOOOOOOOOOOOOOOOOOOOOOOOO++++++++++++++OOOOOOOOOOOOOOOOOOOOOO",
"OOOOOOOOOOOOOOOOOOOOOOOOOOOOOOOOOOOOOOOOOOOOOOOOOOOOOOOOOOOOOOOO",
"OOOOOOOOOOOOOOOOOOOOOOOOOOOOOOOOOOOOOOOOOOOOOOOOOOOOOOOOOOOOOOOO",
"OOOOOOOOOOOOOOOOOOOOOOOOOOOOOOOOOOOOOOOOOOOOOOOOOOooooooooooooOO",
"oooOOOOOOOOOOOOOOOOOOOOOOOOOOOOOOOOOOOOOOOoooooooooooooooooooooo",
"ooooooOOooooooOOOOOOOOOOOOOOOOOOOOOOoooooooooooooooooooooooooooo",
"        ..    ..............        ..............    ..        ",
"................................................................",
"......XXXXXX.......XXXXXXXoooooooooXXXXXXXXX........XXXXXXXX....",
"....XXXXXXXXXXX......XXoooooooooooXXXXooXXXXXXXXXXXXXXXXXXXXXX..",
"..XXooooXXXXXXXXXXXoooOOOOOOOOoooooooooXXXXXXXXXXXoooooooXXXXXX.",
".XXooXooooXXXXXXooOOOOOOOOOOOOOOOOoooooooXXXXXoooooooooXXXXooXX.",
"XXXXXoooooooOOOOOOOOOOOOOOOOOOOOOOOO++OOOOOOOoooooooooOOOOOooooX",
"XXXXooooOOOOOOOOOOOOOOOOO+++OOOOO+++++++OOOOOOOOoooOOOOOOOOOoooo",
"oooooOOOOOOOOOOOOOOOOO+++++++++OOO+++++++++OOO+++OOOOOOOOOoooooo",
"ooOOOOOOOOOOOOOO++OO++++++++++++++O+++++++OO++++++OOOOOOOOOooooo",
"OOOOOOOOOOOOO+++++++++++++++++++++++++++++++++++OOO+++OOOOOOOOOO",
"OOOOOOOOOOO+OO+++++++++++++++++++++++++#+++++++OO++O+++OOOOOOOOO",
"OOOOOOOOOOO+++OO+++++++++++###++++++###+++++++++++++++++OOOOOOOO",
"OOOOOOOO+O+++++OO+++++++++++####++####++++++++++++++++++OOOOOOOO",
"OOOOOOOO++++++++++++++##++++++############++++++++++++++OOOOOOOO",
"OOOOOOOO+++++++++++++++###+++############++++++++++++++OOOOOOOOO",
"OOOOOOOOO+++++++++++++++##########++###+++++++++++++++OOOOOOOOOO",
"OOOOOOOOO++++++++O+++++++##########++###++++++++++++++O+OOOoOOOO",
"OOOoOOOOOO++++++#+#+++++++++##+++#####++++++++++O++++++OOooOOOOO",
"OOOOoOOOOO+++++++#++++++++++++++####+++++++++++O+++++++OOOooOOOO",
"OOOOOOOOOOO++++++++++++++++++++###++++++++++++#+#+++++OOOOOOOOOO",
"OOOOOOOOOOOO++++++++++++++++++##+++++++++++++++#++++++OOOOOOOOOO",
"OOOOoOOOOOOOOOO+++++++++++++++++++++++++++++++++++++++OOOOOOooOO",
"OOOOooOOOOO+OO++++++++++++++++++++++++O+O++++++++++++OOOOOoooooO",
"OOOOOoXoOOOO+++++++++++++++++++++++++++O++++++OO+++++OOOoXoOOooo",
"OOOOOooXoOOOO++++++++++++++++++++++++++++++++++OOO++OOOOXoooOOOO",
"OOOOOOoooOOOOO++++++++O+O++++++++++++++++++++++++OOOOOoooooOOOOO",
"OOOOOOooooOOOOOO++++++OO++++++++++++++++++++++++OOOOooooooOOOOOO",
"OOOOOooooooXXooOOO+++++O+++++++++++++++++++++++OOoooooooooooOOOO",
"OOOOooooooooXXooOOOO+++++O++++++++++++++++++++OooooooooooooOOOOO",
"OOOOooOOoooooOOOOoOoO++OO+++++++++++++OO+++OOooooXXooooooOOOOOOO",
"OOOOoOOOOOooooOOOOoooO++OOO++++++++OOOO+++OOooooXXoooooOOOOOOOOO",
"OOOOOOOOOOOooooooooooooOOOOOOOOOOOOOOOOOOooooooooooooOOOOOOOOOOO",
"OOOOOOOOOOOOOoooooooooooooooOOOOOOOOOOooooooooooooooOOOOOOOOOOOO",
"OOOOOOOOOOOOOOoooXoXXooooooOOOooooooOOOoooooooooooOOOOOOOOOOOOOO",
"OOOOOOOOOOOOOOOoooXXooooooOOooooXoooooOOoooooooooOOOOOOOOOOOOOOO",
"OOOO++OOOOOOOOOOOooooooooooooooooXXoooooooOoOooOOOOOOOOOOO++OOOO",
"OO+++OOOOOOOOOOOOOOoooooooooooooXXoooooooOOOoOOOOOOOOOOOOOO+++OO",
"O+++OOOOOOOOOOOooOOOOooooooooooooooooXXooooOOOOooOOOOOOOOOOO+++O",
"++++OOOOOOOOOooOOOOOoooooooXXoooooooooXXoXoooOOOOooOOOOOOOOO++++",
"+++OOOOOOOOOOOooOOoXXXoooXXXooXoooooXXXoXoXXXoOOooOOOOOOOOOOO+++",
"+++OOOOOOOOOoooOoOOoXXXXooXXXXooooXXXXXXXXXXoOOoOoooOOOOOOOOO+++",
"++OOOOOOOOooooOoooXXXXXX....XXXXX..XXXXX..XXXXoooOooooOOOOOOOO++",
"++OOOOOOOOOoOoooXXXXXX.....XX..XXX..XX.....XXXXXoooOoOOOOOOOOO++",
"+OOOOOOOooOOOOoXXXXX.........X..XXX......XX..XXXXoOOOOooOOOOOOO+",
"+OOOOoOOOooOOoooooXXX.......................XXoooooOOooOOOoOOOO+",
"OOOooOOOOOOoooXooXX..........................XXooXoooOOOOOOooOOO",
"OOOOooOOOOOOoooXXX..                        ..XXXoooOOOOOOooOOOO",
"OOOOOOoooOOooXXX... @@@@@@@@@@@@@@@@@@@@@@@@ ...XXXooOOoooOOOOOO",
"ooOOOOOoooXXXX..... @@@@@@@@@@@@@@@@@@@@@@@@ .....XXXXoooOOOOOoo",
"oooooooXXXooXXXXX.. @@@@@@@@@@@@@@@@@@@@@@@@ ..XXXXXooXXXooooooo",
"ooooXXXXXXXooXXX... @@@@@@@@@@@@@@@@@@@@@@@@ ...XXXooXXXXXXXoooo",
"XXXXXXXXXXXXXX..... @@@@@@@@@@@@@@@@@@@@@@@@ .....XXXXXXXXXXXXXX",
"XXXXXX..XXX........ @@@@@@@@@@@@@@@@@@@@@@@@ ........XXX..XXXXXX",
"..................  @@@@@@@@@@@@@@@@@@@@@@@@  ..................",
"      ......        @@@@@@@@@@@@@@@@@@@@@@@@        ......      "
};
