/* XPM */
static const char *cauldron_inner[] = {
/* columns rows colors chars-per-pixel */
"64 64 4 1 ",
"  c #27272B",
". c #2D2D32",
"X c #343438",
"o c #3F3E42",
/* pixels */
"oooooooooooooooooooooooooooooXXXXXXXXXXXoooooooooooooooooooooooo",
"oooooooooooooXoXXXXXXoXXXXXXXXXXXXXXXXXXXXXoXXXoooXooooooooooooo",
"ooooooooooooooXXXXXXXXXXXXXXXXXXXXXXXXXXXXoXXXXXXXoooooooooooooo",
"oooooooooooXXXXXXXXXXXXXXXXXXX.X..XXXXXXXXXXXXXXXXXXoXXooooooooo",
"oooooooooXXoXXXXXXXXXXX.XXXX.XX....X.XX.X.XXXXXXXXXXXXXXXooooooo",
"oooooXooXXXXXXXXXXXXX..XXXX...XX....XX...XXXXXXXXXXXXXXXXXoooooo",
"ooooooXXXXXXXXXXXXX......XXXX........XX...XXXXXXXXXXXXXXXXXooooo",
"ooooXXXXXXXXXXXXXXXX.........X...........XXX.XX.XXXXXXXXXXXXoooo",
"oooooXXXXXXXXXXXXXX..X............XX....XX.XXX..XXXXXXXXXXXXXooo",
"ooXXXXXXXXXXXXX.X..................XX..........X.XXXXXXXXXXoXooo",
"oooXXXXXXXXXXX.....................X...........XXXXXXXXXXXXXXooo",
"ooXXXXXXX.XXX...................................XXXXXXXXXXXXXooo",
"oXXXXXXXXX..X........X............ ..............X.XX.XXXXXXXooo",
"oXXXXXXXXXX.......X.X...........  . ........ ......X.XXXXXXXoooo",
"oXoXXXXXXX.........XX......... ..    . ....  .........XXXXXXoooo",
"oXXXXXXX.....X....XX..  ..... .       .. .     ......XXXXXXXoXoo",
"oXXXXXXXXX..X........ .....                 .  .....XXXXXXXXXXXo",
"XoXXXXXXX.........  .                        . ...XX.XXXXXXXXXoo",
"XXXXXXXX.X........ . .                       . ....XXXXXXXXXXXoo",
"XXXXXXXXXXX......                             .....XXXXXXXXXXXXo",
"XXXXXXXXXXXX.....                              .....XXXXXXXXXXXo",
"XXXXXXXXXXXX....                              .. ..XXXXXXXXXXXXo",
"XXXXXXXXXXXXX...                                ...XXXXXXXXXXoXo",
"XXXXXXXXXX.X.X.                                 ..XXXXXXXXXXXXoo",
"XXXXXXXXXX.X....                                 ..X.XXXXXXXXXoo",
"XXXXXXXXXXX.X.. .                               ....X.XXXXXXXXXo",
"XXXXXXXXXXX.....                                 . ....XXXXXXXXo",
"XXXXXXXXXXX.. .                                    ...XXXXXXXXXX",
"XXXXX..XXXX...                                     . .XXXXXXXXXX",
"XXXXXX...X.....                                     .XXXXXXXXXXX",
"XXXXXX..........                                     ..XXXXXXXXX",
"XXXXXXX...... .                                    . .XXXXXXXXXX",
"oXXXXX.......                                       ..XX..XXXXXX",
"ooXXXXXXX...                                       ....XX..XXXXX",
"oXXXXXXX.X.. . ..                                 . .....XXXXXXX",
"oXXXXXXXX.. . .                                   .. ...X.XXXXXX",
"oXXXXXXXX.... ..                                .. .. .XXXXXXXXX",
"ooXXXXXXXX.......                              .. ......XXXXXXXX",
"oXoXXXXXXXX........                              ... ..XXXXXXXXX",
"oXoXXXXXXXXX....   .                              .....X.XXXXXXo",
"oXXXXXXXXXX.X.. .                               .  .....XXXXXXXo",
"oXoXXXXXXXXXX.. . .                           .  ........XXXXXXo",
"ooXXXXXXXXXXX..                             . ............XXXXoo",
"ooXXXXXXXXX.X..                              ... ...X..X.XXXXXXo",
"ooXXXXXXX.XX....                               ...X.XX..XXXXXXoo",
"ooXoXXXXXXX...X..                             .X ..XX..XXXXXXXoo",
"oooXXXXXXXXX.X.X. ...             ..    ..  .......XXXXXXXXXXXXo",
"oooXXXXXXXX.XX.. ...  .         ..... ..X.. .XXX....XX.XXXXXXXoo",
"oooXXXXXXXXXXX..... .  .  .  ...... ...X..X.XXX.X.....XXXXXXXXoo",
"oooXXXXXXXXXXXX........ .   ...... .....XXX..XXX.....XXXXXXXXXXo",
"ooooXXXXXXXXXX............. ...X... ...XXXXXXXXXX..XXXXXXXXXXooo",
"ooooXXXXXXXXXXX.X.XX........ .X...X.XX..XXXX.X.XXXX.XXXXXXXoXooo",
"oooXXXXXXXXXXXXX.XX.X.............XXX....XXXXXXXXXXXXXXXXXXXoooo",
"oooXXXXXXXXXXXXXXXX..............X.XXX.X..XX..XXXXXXXXXXXXXXXooo",
"ooooXXXXXXXXXXXXXXXX.............XX.XXX.X..XXXXXXXXXXXXXXXXXoooo",
"oooooXoXXXXXXXXXXXXX..........X....XXXXX..XXXXXXXXXXXXXXXXXXoooo",
"ooooooXXXXXXXXXXXXXXX.......XX.X..XXXXXXXXXXXXXXXXXXXXXXXXoXoooo",
"oooooXXXXXXXXXXXXXXXX.X.....X...XX.XXXXXXXXXXXXXXXXXXXXXXooooooo",
"oooooooXXXXXXXXXXXXXXXX.XX.....XXXXXXXXXXXXXXXXXXXXXXXXXXooooooo",
"oooooooXoXXXXXXXXXXXXXXXX.X..XXXXXXXXXXXXXXXXXXXXXXXXXXXXooooooo",
"ooooooooooXXXXXooXXXXXXXXXXXXXXXXXXXXXXXXXXXXXXXXXXXXXoXoooooooo",
"oooooooooooooooooooXXXXXXXXXXXXXXXXXXXXXXXXXXXXXXXXXoooooooooooo",
"oooooooooooooooooXoooooXXXXXXXXXXXXXXXXXXXXXXXXooXXXXooooooooooo",
"ooooooooooooooooooooooooooXXXXXXXXXXXXXXXXXXXXoooooooooooooooooo"
};
