/* XPM */
static const char *cave_vines_plant[] = {
/* columns rows colors chars-per-pixel */
"64 64 10 1 ",
"  c #4F3214",
". c #5B4012",
"X c #40541E",
"o c #70521D",
"O c #42552D",
"+ c #486124",
"@ c #507233",
"# c #70922D",
"$ c #6C8031",
"% c None",
/* pixels */
"%%%%%%%%%%%%%%%%  @@@@@++@@@@@@     %@@$##%%%%%%% ..+++++XXX++%%",
"%%%%%%%%%%%%%%%%. @@@++@@@@@@@+  . +@$$#####%%%%. ..+++++++XX+%%",
"%%%%%%%%%%%%%%%. @@@+@@@@@@@@+  . +@$########%%%....X++++++++X+%",
"%%%%%%%%%%%%%%%. @@@@@@@@@@@+  ..++@@$########%%... %X+++++++++%",
"%%%%%%%%%%%%%%..@@@@@@@@@@@+.  . +++@@@########%. . %%X++++++++%",
"%%%%%%%%%%%%%%..@@@@@@@@@+%%  . ++++++@@#######%.  .%%%%X+++++++",
"%%%%%%%%%%%%%%.o@@@@@@++%%%%  ..+@@@++++@#######.  %%%%%%%XX++++",
"%%%%%%%%%%%%%..o+++++%%%%%%%. ..@@@@@@@++@######   %%%%%%%%%%+++",
"%%%%%%%%%%%%%..ooo%%%%%%%%%%..o.@@@$$$@@@+@######  %%%%%%%%%%%%%",
"%%%%%%%%%%%%%o.oo.%%%%%%%%%%..oo@@$$$$$$@@@$#####  %%%%%%%%%%%%%",
"%%%%%%%%%%+++oooo%%%%%%%%%%%.o.o@@$$$#$$$$@@$####$ %%%%%%%%%%%%%",
"%%%%%%%%+++++.oo.%%%%%%%%%%%oo..%@@$$$##$$$@$##### %%%%%%%%%%%%%",
"%%%%%%+++++OOooo.%%%%%%%%%%.ooo.%%@@$$$####$@$####$%%%%%%%%%%%%%",
"%%%%++++++OO+oo.%%%%%%%%%%%ooooo%%%@@$$$##$##$$####%%%%%%%%%%%%%",
"%%%++++++OO++oo %%%%%%%%%%.ooo.o%%%%@@$$$#####$####$%%%%%%%%%%%%",
"%%+++++XOX+++oo.%%%%%%%%%.oooo.o%%%%%%@@$$#####$###$%%%%%%%%%%%%",
"%%+++XXXX++++.o %%%%%%#$$@@.o.oo.%%%%%%%@@$########$%%%%%%%%%%%%",
"%+++XXX+++++X.. %%%%##$$$$@@..ooo%%%%%%%%%@@$######$%%%%%%%%%%%%",
"%++XX++++++X.o. .%%##$$#$$$@@..oo%%%%%%%%%%%@@$####$%%%%%%%%%%%%",
"++X+++++++X%o... %######$$$@@+..o.%%%%%%%%%%%%%@$$$$%%%%%%%%%%%%",
"++++++++XX%%.. . ######$$@+++@@ .o%%%%%%%%%%%%%%  ..%%%%%%%%%%%%",
"++++++XX%%%% .. .#####$$@+++@@@  o%%%%%%%%%%%%%% .. %%%%%%%%%%%%",
"++++XX%%%%%% .  #####$@+++@@@@@@ . %%%%%%%%%%%%%   .%%%%%%%%%%%%",
"XXXX%%%%%%%%.   #####@++@@@@@@@@ ..%%%%%%%%%%%%%. ..%%%%%%%%%%%%",
"%%%%%%%%%%%%.  #####$+@@$$$$@@@@  . %%%%%%%%%++++O  .%%%%%%%%%%%",
"%%%%%%%%%%%%%  #####@@$$###$$@@@   .%%%%%%%%+++++XO  %%%%%%%%%%%",
"%%%%%%%%%%%%% #####@$$####$$$@@@%  . %%%%%%+++++XXXO .%%%%%%%%%%",
"%%%%%%%%%%%%%.####$$$#######$@@%%   .%%%%%%+++XXX++O  %%%%%%%%%%",
"%%%%%%%%%%%%%####$$########$@@%%%%.  %%%%%+++XXX++++. .%%%%%%%%%",
"%%%%%%%%%%%%%###$########$$@@%%%%% .  %%%%++XX++++++.. .%%%%%%%%",
"%%%%%%%%%%%%%###########$$@@%%%%%%%.. %%%++X+++++++Xo. .%%%%%%%%",
"%%%%%%%%%%%%##########$$@@%%%%%%%%% .  %%++++++++XX%oo  %%%%%%%%",
"%%%%%%%%%%%%########$$$@%%%%%%%%%%%%o. %++++++++XX%%oo. %%%%%%%%",
"%%%%%%%%%%%%#######$$@%%%%%%%%%%%%%%oo. +++++++X%%%%.o. %%%%%%%%",
"%%%%%%%%%%%%$###$$$$%%%%%%%%@@@@@@@%.o..+++++X.%%%%%..o.%%%%%%%%",
"%%%%%%%%%%%%$$$$$.  %%%%%%@@@@@@@@++.o.o++XX.o%%%%%%o.oo%%%%%%%%",
"%%%%%%%%%%%%%%%%%.  %%%%%@@@@@@@@++++oooooo.o.%%%%%%oooo%%%%%%%%",
"%%%%%%%%%%%%%%%%% . %%%%@@@@@@@@+++@+.ooooo.o%%%%%%%.ooo%%%%%%%%",
"%%%%%%%%%%%%%%%%%%..%%%@@@@@@@+++@@@+.o.ooo..%%%%%%%oo.o%%%%%%%%",
"%%%%%%%%%%%%%%%%%% . %@@@@@@+++@@@@@+oo..o...%%%%%%.oo..%%%%%%%%",
"%%%%%%%%%%%%%%%%%%  .%@@@@+++@@@@@@+.ooo...@@$%%%%%ooo..%%%%%%%%",
"%%%%%%%%%%%%%%%%%%. .@@@@++@@@@@@@++.o.o.@@$$##$%%.oo..%%%%%%%%%",
"%%%%%%%%%%%%%%%%%%%. @@@+@@@@@@@@++%oo..@@#$$$###%.oo. %%%%%%%%%",
"%%%%%%%%%%%%%%%%%%% @@@@@@@@@@@@++%%oo.+@@$##$$###..oo %%%%%%%%%",
"%%%%%%%%%%%%%%%%%%% @@@@@@@@@@++%%%%o.@@++@$#######..o%%%%%%%%%%",
"%%%%%%%%%%%%%%%%%%%%@@@@@@+++%%%%%%%.@@@@+++$######.o.%%%%%%%%%%",
"%%%%%%%%%%%%%%%%%%%%@@@@++%%%%%%%%%..@@@@@@++######$o %%%%%%%%%%",
"%%%%%%%%%%%%%%%%%%%%@++ %%%%%%%%%%% @@@@@$$@@+######. %%%%%%%%%%",
"%%%%%%%%%%%%%%%%%%%%.   %%%%%%%%%%. @@@$$$$$$@@#####$%%%%%%%%%%%",
"%%%%%%%%%%%%%%%%%%%%    %%%%%%%%%%  @@$$#$$$$$@@#####%%%%%%%%%%%",
"%%%%%%%%%%%%%%%%%%%  . %%%%%%%%%%% ..@$$##$$$$$@@####$%%%%%%%%%%",
"%%%%%%%%%%%%%%%%%%. .. %%%%%%%%%% .o.@@$####$$$$$@####%%%%%%%%%%",
"%%%%%%%%%%%%%+++++ ..  %%%%%%%%%%o.o..@@$######$$$$###$%%%%%%%%%",
"%%%%%%%%%%%%++++++O.. %%%%%%%%%%.oo..%%@@$#######$$$###%%%%%%%%%",
"%%%%%%%%%%%++++++OO+ .%%%%%%%%%%.ooo.%%%@@$########$$##%%%%%%%%%",
"%%%%%%%%%%%+++++OX++ .%%%%%%%%%...oo%%%%%%@$###########$%%%%%%%%",
"%%%%%%%%%%+++++XX+++.%%%%%%%++..o.o.%%%%%%%%$##########$%%%%%%%%",
"%%%%%%%%%%++++XX++++.%%%%%@@@@+.ooo.%%%%%%%%%%$$#######$%%%%%%%%",
"%%%%%%%%%++++X+++++X%%%%@@@@@@@+oo.o%%%%%%%%%%%%$$$####$%%%%%%%%",
"%%%%%%%%%++++++++XX.%%@@@@@@@@@+oo..%%%%%%%%%%%%%  $$$$$++%%%%%%",
"%%%%%%%%%+++++++XX. %@@@@@@@@@++.o..%%%%%%%%%%%%%   OOX++++%%%%%",
"%%%%%%%%++++++XX%.. @@@@@@@@++++....%%%%%%%%%%%%%   +OOX++++%%%%",
"%%%%%%%%+++XXX%%. .@@@@@@@++@@@+ .. %%%%%%%%%%%%%.  +++OX++++%%%",
"%%%%%%%%+XXX%%%%.  @@@@@+++@@@@+  . %%%%%%%%%%%%%. .++++XXX++%%%"
};
