/* XPM */
static const char *cave_vines[] = {
/* columns rows colors chars-per-pixel */
"64 64 10 1 ",
"  c #4F3214",
". c #5B4012",
"X c #40541E",
"o c #70521D",
"O c #42552D",
"+ c #486124",
"@ c #507233",
"# c #70922D",
"$ c #6C8031",
"% c None",
/* pixels */
"%%%%%%%%%%%%%%%...@@@@@++@@@@@@ .   %@@$##%%%%%%%..O++++%%%%%%%%",
"%%%%%%%%%%%%%%%. .@@@++@@@@@@@+ .. %@$$#####%%%%. OO+++++%%%%%%%",
"%%%%%%%%%%%%%%%.  @@+@@@@@@@@+%.. %@$########%%. .O++++++%%%%%%%",
"%%%%%%%%%%%%%%..  @@@@@@@@@@+% .  +@$$########%  +XX++++++%%%%%%",
"%%%%%%%%%%%%%%. . @@@@@@@@@+%%.   ++@$$######## .++XX+++++%%%%%%",
"%%%%%%%%%%%%%%. . @@@@@@@+%%%.   +++++@$####### ++++XX+++++%%%%%",
"%%%%%%%%%%%%%%  ..@@@@++%%%%% .  @@@+++@$#######++++++XX+++%%%%%",
"%%%%%%%%%%%%%%  ..+++%%%%%%%  .o @$$$@@++@######+++++++XX+++%%%%",
"%%%%%%%%%#####.  ..++++%%%%%. oo@$$$$$@@@+@######++++++++X++%%%%",
"%%%%%%%%#####@@   .+++++++%%..o.@$$$$$$$@@@$#####%++++++++++%%%%",
"%%%%%%%####@@OO@   +OO+++++%.o. @@$$$#$$$$@@$####$%%++++++++%%%%",
"%%%%%%%###@@OO@$.  .+OOO++++.o. %@@$$$##$$$@$#####%%%%++++++%%%%",
"%%%%%%###@OO@$$$.. .++OOO+++..  %%@@$$$###$$@$####$%%%%%%%%%%%%%",
"%%%%%%##@O@$###$o.  ++++OO++..  %%%@@$$$###$$$$####%%%%%%%%%%%%%",
"%%%%%##@@@####$$.o..++++++OO.. .%%%%@@$$$#####$#####%%%%%%%%%%%%",
"%%%%%##@#####$$%oo.o%+++++++o...%%%%%%@@$$#####$####%%%%%%%%%%%%",
"%%%%%#@####$$$%%oooo%%++++++o..o%%%%%%%%@$$$########%%%%%%%%%%%%",
"%%%%#####$$$%%%%%.oo%%%%++++oo.o%%%%%%%%%%$$$$######%%%%%%%%%%%%",
"%%%%###$$$%%%%%%%.oo.%%%%%++.o.o%%%%%%%%%%%%$$$$###$+%%%%%%%%%%%",
"%%%%#$$%%%%%%%%%%%.oo%%%%%%%.ooo%%%%%%%%%%%%   $$$$$++%%%%%%%%%%",
"%%%%%%%%%%%%%#$$$$$$o.%%%%%%o.oo%++++++%%%%%.   ++++++%%%%%%%%%%",
"%%%%%%%%%%%%#$$$$$$$$$%%%%%%o.oo++++++++%%%%. . ++++++%%%%%%%%%%",
"%%%%%%%%%%%#$###$$$$@@+%%%%%ooooOOO++++++%%%... +++++++%%%%%%%%%",
"%%%%%%%%%%#######$$@@++@%%%%oooo+OOO++++++%%... +++++++%%%%%%%%%",
"%%%%%%%%%########$@++@++%%%%oooo++++OO+++++%..  %+++++++%%%%%%%%",
"%%%%%%%%%#######$@++@@@+%%%%oooo+++++XXX+++%..  %%++++++%%%%%%%%",
"%%%%%%%%#######$++@$$$@@%%%%oo.oX+++++++XX++ .  %%%%%%%%%%%%%%%%",
"%%%%%%%%######@++@$$$$$@%%%%oo.o%XX+++++++X+ .  %%%%%%%%%%%%%%%%",
"%%%%%%%######++@$$$$$$$@%%%%o.oo%%XX++++++++  $####%%%%%%%%%%%%%",
"%%%%%%%#####+@@$$$$$$$$@%%%%o.oo%%%%XX++++++ $$$####%%%%%%%%%%%%",
"%%%%%%#####@@@$$###$$$$$%%%%..o.%%%%%%XX++++@@@$$####%%%%%%%%%%%",
"%%%%%%###$@@$#######$$$ %%%%....%%%%%%%%X+++@@@@@$###%%%%%%%%%%%",
"%%%%%###@@$$########$$. %%%@O@@@$%%%%%%%%%XX@@$$@@$###%%%%%%%%%%",
"%%%%%##@@$#########$$. %%%@@O@@$$$%%%%%%%%%%@$$$$@@###%%%%%%%%%%",
"%%%%%#$$##########$$.  %%%@@O@@$$$$%%%%%%%%%%$$$$$@@###%%%%%%%%%",
"%%%%#$##########$$... %%%@@@OO@$#$$%%%%%%%%%%@$$$$$@$##%%%%%%%%%",
"%%%%##########$$%%.. .%%%@$@@O$$##$$%%%%%%%%..@$$$$$@$##%%%%%%%%",
"%%%%########$$%%%..  %%%%$$@@O$####$%%%%%%%%.o.@@$$$$$##%%%%%%%%",
"%%%%#####$$$%%%%%.. .%%%@$$$@@$####$%%%%%%%.oo..%%@$$$$#%%%%%%%%",
"%%%%#$$$$%%%%%%%%.. %%%%@$$$@@######%%%%%%%oo...%%%%$$$$%%%%%%%%",
"%%%%%%%%%%%%%%%%. ..%%%%$$#$@@######%%%%%%.o..++++%%%%%%%%%%%%%%",
"%%%%%%%%%%%%%%%%. . %%%%$$##$@######%%%%%%oo.+++++++%%%%%%%%%%%%",
"%%%%%%%%%%%%%%%%.   %%%%%$##$$######%%%%%oooXX+++++++%%%%%%%%%%%",
"%%%%%%%%%%%%%%%%    %%%%%$###$$####%%%%%%oo.+XXX+++++%%%%%%%%%%%",
"%%%%%%%%%%%%%%@@O@@@%%%%%%$###$####%%%%%%oo.++XXXX++++%%%%%%%%%%",
"%%%%%%%%%%%%%@@@@O@@@%%%%%%$######%%%%%%oo..%++++XX+++%%%%%%%%%%",
"%%%%%%%%%%%%@@$$@O$$@@%%%%%%$####$%%%%%@@@O@@%++++XX+++%%%%%%%%%",
"%%%%%%%%%%%%@$$$$O$$$@%%%%%%O$##$OO%%%@@@O@@@@%+++++X++%%%%%%%%%",
"%%%%%%%%%%%%@$##$O$$#$%%%%%%OO$$OOO%%@@@@O@@$@@%++++++++%%%%%%%%",
"%%%%%%%%%%%%$###$O$##$%%%%%%OOOOOOOO%@@@@O@$$@@%%+++++++%%%%%%%%",
"%%%%%%%%%%%%%###$@$##$%%%%%%+OOOOOOO%@$@OO@$$$@@%%++++++%%%%%%%%",
"%%%%%%%%%%%%%$##$@###%%%%%%%+OOOOOOO%@$$O@$#$$@@%%%%++++%%%%%%%%",
"%%%%%%%%%%%%%$###@##$%%%%%%%%OOOOOOO%$$$O@$##$@$%%%%%%%%%%%%%%%%",
"%%%%%%%%%%%%%#$##@##$%%%%%%%%+OOOOO+%$#$O@###$$%%%%%%%%%%%%%%%%%",
"%%%%%%%%%%%%%%$##$#$#%%%%%%%%%+OOOO+%%#$O$####$%%%%%%%%%%%%%%%%%",
"%%%%%%%%%%%%%%###$#$%%%%%%%%%%+OOO++%%##@$####$%%%%%%%%%%%%%%%%%",
"%%%%%%%%%%%%%%%#####%%%%%%%%%%%OOO++%%##@####$%%%%%%%%%%%%%%%%%%",
"%%%%%%%%%%%%%%%####%%%%%%%%%%%%+O+++%%%#$####$%%%%%%%%%%%%%%%%%%",
"%%%%%%%%%%%%%%%%##%%%%%%%%%%%%%%++++%%%#$####%%%%%%%%%%%%%%%%%%%",
"%%%%%%%%%%%%%%%%%%%%%%%%%%%%%%%%%++%%%%##$##$%%%%%%%%%%%%%%%%%%%",
"%%%%%%%%%%%%%%%%%%%%%%%%%%%%%%%%%%%%%%%%#$##%%%%%%%%%%%%%%%%%%%%",
"%%%%%%%%%%%%%%%%%%%%%%%%%%%%%%%%%%%%%%%%###$%%%%%%%%%%%%%%%%%%%%",
"%%%%%%%%%%%%%%%%%%%%%%%%%%%%%%%%%%%%%%%%%##%%%%%%%%%%%%%%%%%%%%%",
"%%%%%%%%%%%%%%%%%%%%%%%%%%%%%%%%%%%%%%%%%%%%%%%%%%%%%%%%%%%%%%%%"
};
