/* XPM */
static const char *cave_vines_plant_lit[] = {
/* columns rows colors chars-per-pixel */
"64 64 13 1 ",
"  c #4F3214",
". c #5B4012",
"X c #40541E",
"o c #70521D",
"O c #42552D",
"+ c #486124",
"@ c #507233",
"# c #A46422",
"$ c #70922D",
"% c #6C8031",
"& c #EB8931",
"* c #F7E26B",
"= c None",
/* pixels */
"================  @@@@@++@@@@@@     =@@%$$======= ..+++++XXX++==",
"================. @@@++@@@@@@@+  . +@%%$$$$$====. ..+++++++XX+==",
"===============. @@@+@@@@@@@@+  . +@%$$$$$$$$===....X++++++++X+=",
"===============. @@@@@@@@@@@+  ..++@@%$$$$$$$$==... =X+++++++++=",
"==============..@@@@@@@@@@@+.  . +++@@@$$$$$$$$=. . ==X++++++++=",
"==============..@@@@@@@@@+==  . ++++++@@$$$$$$$=.  .====X+++++++",
"==============.o@@@@@@++====  ..+@@@++++@$$$$$$$.  =======XX++++",
"=============..o+++++=======. ..@@@@@@@++@$$$$$$   ==========+++",
"=============..ooo==========..o.@@@%%%@@@+@$$$$$$  =============",
"=============o.oo.==========..oo@@%%%%%%@@@%$$$$$  =============",
"==========+++oooo===========.o.o@@%%%$%%%%@@%$$$$% =============",
"========+++++.oo.===========oo..=@@%%%$$%%%@%$$$$$ =============",
"======+++++OO####==========.ooo.==@@%%%$$$$%@%$$$$%=============",
"====++++++O##&&&&##========ooooo===@@%%%$$%$$%%$$$$=============",
"===++++++O#&**&&&&##======.ooo.o====@@%%%$$$$$%$$$$%============",
"==+++++XO#&****&&&&##====.oooo.o======@@%%$$$$$%$$$%============",
"==+++XXXX#******&&&##=$%%@@.o.oo.=======@@%$$$$$$$$%============",
"=+++XXX+#&******&&&#$$%%%%@@..ooo=========@@%$$$$$$%============",
"=++XX+++#&&****&&&#$$%%$%%%@@..oo===========@@%$$$$%============",
"++X+++++#&&&**&&&#$$$$$$%%%@@+..o.=============@%%%%============",
"++++++++#&&&&&&&#$$$$$$%%@+++@@ .o==============  ..============",
"++++++XX=#&&&&&##$$$$$%%@+++@@@  o============== .. ============",
"++++XX===##&&&##$$$$$%@+++@@@@@@ . =============   .============",
"XXXX======######$$$$$@++@@@@@@@@ ..=============. ..============",
"===========####$$$$$%+@@%%%%@@@@  . =========++++O  .===========",
"=============##$$$$$@@%%$$$%%@@@   .========+++++XO  ===========",
"============= $$$$$@%%$$$$%%%@@@=  . ======+++++XXXO .==========",
"=============.$$$$%%%$$$$$$$%@@==   .======+++XXX++O  ==========",
"=============$$$$%%$$$$$$$$%@@====.  =====+++XXX++++. .=========",
"=============$$$%$$$$$$$$%%@@===== .  ====++XX++++++.. .========",
"=============$$$$$$$$$$$%%@@=======.. ===++X+++++++Xo####=======",
"============$$$$$$$$$$%%@@========= .  ==++++++++XX##&&&&##=====",
"============$$$$$$$$%%%@============o. =++++++++XX#&**&&&&##====",
"============$$$$$$$%%@==============oo. +++++++X=#&****&&&&##===",
"============%$$$%%%%========@@@@@@@=.o..+++++X.==#******&&&##===",
"============%%%%%.  ======@@@@@@@@++.o.o++XX.o==#&******&&&###==",
"=================.  =====@@@@@@@@++++oooooo.o.==#&&****&&&&###==",
"================= . ====@@@@@@@@+++@+.ooooo.o===#&&&**&&&&#&##==",
"==================..===@@@@@@@+++@@@+.o.ooo..===#&&&&&&&&##&##==",
"================== . =@@@@@@+++@@@@@+oo..o...====#&&&&&&##&&#===",
"==================  .=@@@@+++@@@@@@+.ooo...@@%===##&&&###&&##===",
"==================. .@@@@++@@@@@@@++.o.o.@@%%$$%==######&&##====",
"===================. @@@+@@@@@@@@++=oo..@@$%%%$$$=.########=====",
"=================== @@@@@@@@@@@@++==oo.+@@%$$%%$$$..o####=======",
"=================== @@@@@@@@@@++====o.@@++@%$$$$$$$..o==========",
"====================@@@@@@+++=======.@@@@+++%$$$$$$.o.==========",
"====================@@@@++=========..@@@@@@++$$$$$$%o ==========",
"====================@++ =========== @@@@@%%@@+$$$$$$. ==========",
"====================.   =====####=. @@@%%%%%%@@$$$$$%===========",
"====================    ===##&&&&## @@%%$%%%%%@@$$$$$===========",
"===================  . ===#&**&&&&##.@%%$$%%%%%@@$$$$%==========",
"==================. .. ==#&****&&&&##@@%$$$$%%%%%@$$$$==========",
"=============+++++ ..  ==#******&&&##.@@%$$$$$$%%%%$$$%=========",
"============++++++O.. ==#&******&&&###=@@%$$$$$$$%%%$$$=========",
"===========++++++OO+ .==#&&****&&&&###==@@%$$$$$$$$%%$$=========",
"===========+++++OX++ .==#&&&**&&&&#&##====@%$$$$$$$$$$$%========",
"==========+++++XX+++.===#&&&++&&&##&##======%$$$$$$$$$$%========",
"==========++++XX++++.====#@@@@+###&&#=========%%$$$$$$$%========",
"=========++++X+++++X====@@@@@@@+#&&##===========%%%$$$$%========",
"=========++++++++XX.==@@@@@@@@@+&&##=============  %%%%%++======",
"=========+++++++XX. =@@@@@@@@@++###.=============   OOX++++=====",
"========++++++XX=.. @@@@@@@@++++#...=============   +OOX++++====",
"========+++XXX==. .@@@@@@@++@@@+ .. =============.  +++OX++++===",
"========+XXX====.  @@@@@+++@@@@+  . =============. .++++XXX++==="
};
