/* XPM */
static const char *chain[] = {
/* columns rows colors chars-per-pixel */
"64 64 4 1 ",
"  c #252C3D",
". c #3E4453",
"X c #495065",
"o c None",
/* pixels */
"ooooooooooooXX. ooooX.  oooooooooooooooooooooooooooooooooooooooo",
"ooooooooooooXX. ooooX.  oooooooooooooooooooooooooooooooooooooooo",
"ooooooooooooXX. ooooXX  oooooooooooooooooooooooooooooooooooooooo",
"oooooooooooo.X. XooXXX  oooooooooooooooooooooooooooooooooooooooo",
"oooXXXX..oooo.. .XXXX. ooooooooooooooooooooooooooooooooooooooooo",
"ooXX......ooo.   .X..  ooooooooooooooooooooooooooooooooooooooooo",
"oXX........ooo.       oooooooooooooooooooooooooooooooooooooooooo",
"oX..   ... oooo.     ooooooooooooooooooooooooooooooooooooooooooo",
"XX.  oo .   oooooooooooooooooooooooooooooooooooooooooooooooooooo",
"XX. ooooX   oooooooooooooooooooooooooooooooooooooooooooooooooooo",
"XX. ooooX.  oooooooooooooooooooooooooooooooooooooooooooooooooooo",
"XX. ooooX.  oooooooooooooooooooooooooooooooooooooooooooooooooooo",
"XX. ooooX.  oooooooooooooooooooooooooooooooooooooooooooooooooooo",
".X. .ooXXX  oooooooooooooooooooooooooooooooooooooooooooooooooooo",
"o.X .XXXX. ooooXXXX..ooooooooooooooooooooooooooooooooooooooooooo",
"o.   .X..  oooXX......oooooooooooooooooooooooooooooooooooooooooo",
"oo.       oooXX........ooooooooooooooooooooooooooooooooooooooooo",
"ooo.     ooooX..   ... ooooooooooooooooooooooooooooooooooooooooo",
"ooooooooooooXX.  oo .   oooooooooooooooooooooooooooooooooooooooo",
"ooooooooooooXX. oooo.   oooooooooooooooooooooooooooooooooooooooo",
"ooooooooooooXX. ooooX   oooooooooooooooooooooooooooooooooooooooo",
"ooooooooooooXX. ooooX.  oooooooooooooooooooooooooooooooooooooooo",
"ooooooooooooXX. ooooX.  oooooooooooooooooooooooooooooooooooooooo",
"ooooooooooooXX. ooooX.  oooooooooooooooooooooooooooooooooooooooo",
"ooooooooooooXX. ooooXX  oooooooooooooooooooooooooooooooooooooooo",
"oooooooooooo.X. XooXXX  oooooooooooooooooooooooooooooooooooooooo",
"oooXXXX..oooo.. .XXXX. ooooooooooooooooooooooooooooooooooooooooo",
"ooXX......ooo.   .X..  ooooooooooooooooooooooooooooooooooooooooo",
"oXX.   ....ooo.       oooooooooooooooooooooooooooooooooooooooooo",
"oX.  oo .. oooo.     ooooooooooooooooooooooooooooooooooooooooooo",
"XX. ooooX   oooooooooooooooooooooooooooooooooooooooooooooooooooo",
"XX. ooooX.  oooooooooooooooooooooooooooooooooooooooooooooooooooo",
"XX. ooooX.  oooooooooooooooooooooooooooooooooooooooooooooooooooo",
"XX. ooooX.  oooooooooooooooooooooooooooooooooooooooooooooooooooo",
"oX. .ooXXX ooooXXXX..ooooooooooooooooooooooooooooooooooooooooooo",
"o..  .XX.  oooXX......oooooooooooooooooooooooooooooooooooooooooo",
"oo.       oooXX........ooooooooooooooooooooooooooooooooooooooooo",
"ooo.     ooooX..   ... ooooooooooooooooooooooooooooooooooooooooo",
"ooooooooooooXX.  oo .   oooooooooooooooooooooooooooooooooooooooo",
"ooooooooooooXX. oooo.   oooooooooooooooooooooooooooooooooooooooo",
"ooooooooooooXX. ooooX   oooooooooooooooooooooooooooooooooooooooo",
"ooooooooooooXX. ooooX.  oooooooooooooooooooooooooooooooooooooooo",
"ooooooooooooXX. ooooX.  oooooooooooooooooooooooooooooooooooooooo",
"ooooooooooooXX. ooooX.  oooooooooooooooooooooooooooooooooooooooo",
"ooooooooooooXX. ooooXX  oooooooooooooooooooooooooooooooooooooooo",
"oooooooooooo.X. XooXXX  oooooooooooooooooooooooooooooooooooooooo",
"oooXXXX..oooo.. .XXXX. ooooooooooooooooooooooooooooooooooooooooo",
"ooXX......ooo.   .X..  ooooooooooooooooooooooooooooooooooooooooo",
"oXX........ooo.       oooooooooooooooooooooooooooooooooooooooooo",
"oX..   ... oooo.     ooooooooooooooooooooooooooooooooooooooooooo",
"XX.  oo .   oooooooooooooooooooooooooooooooooooooooooooooooooooo",
"XX. ooooX   oooooooooooooooooooooooooooooooooooooooooooooooooooo",
"XX. ooooX.  oooooooooooooooooooooooooooooooooooooooooooooooooooo",
"XX. ooooX.  oooooooooooooooooooooooooooooooooooooooooooooooooooo",
"XX. ooooX.  oooooooooooooooooooooooooooooooooooooooooooooooooooo",
".X. .ooXXX  oooooooooooooooooooooooooooooooooooooooooooooooooooo",
"o.X .XXXX. ooooXXXX..ooooooooooooooooooooooooooooooooooooooooooo",
"o.   .X..  oooXX......oooooooooooooooooooooooooooooooooooooooooo",
"oo.       oooXX........ooooooooooooooooooooooooooooooooooooooooo",
"ooo.     ooooX..   ... ooooooooooooooooooooooooooooooooooooooooo",
"ooooooooooooXX.  oo .   oooooooooooooooooooooooooooooooooooooooo",
"ooooooooooooXX. oooo.   oooooooooooooooooooooooooooooooooooooooo",
"ooooooooooooXX. ooooX   oooooooooooooooooooooooooooooooooooooooo",
"ooooooooooooXX. ooooX.  oooooooooooooooooooooooooooooooooooooooo"
};
