/* XPM */
static const char *chipped_anvil_top[] = {
/* columns rows colors chars-per-pixel */
"64 64 8 1 ",
"  c gray22",
". c gray24",
"X c gray26",
"o c gray29",
"O c gray32",
"+ c #5A5A5A",
"@ c #727070",
"# c None",
/* pixels */
"############.XXXXXXXooXXXXooooooOOOOOOOOOOOoXoooooX.############",
"############XoooooooooooooooOOOOOOOOOOOOooXXooooooo.############",
"############XooooOOOOOOOooooooOOOOOOOooXXXoooooOOoo.############",
"############XoooooooOOOOOOOOOOOOOOOoXXXXoooooOOooooX############",
"############XXooo......ooOOOOOOOoooooooOooOOOOOOoooX############",
"############XXooo+@@@@@...oOOOOOOOOOOOOOOoooOOoooooX############",
"############.XoooooOOOO@@@.oOOOOOOOOOOOOOooooooXXXoX############",
"############.XooOOOooooOOO@.OOOOOOOOOOOOoooooXXXXooX############",
"############.ooooOOOOooooOO.OOOOOOOOOOooooOOOooooooo############",
"############.oooooooOOOOOOO+.OOOOOo..oooOOOOoooooooo############",
"############.oooooooooooOOOO+.Oo...@@OOOOOOOOOOOoooX############",
"############.oooXXXXXoooooooO...+@@OOOOOOOOOOOoooooX############",
"############ XXXXXoooOOOOOOOO.++OOOOOOOOOooooooooooX############",
"############ XXXXXXoooooOOOO.+OOOOOOooooXXXXooooooXX############",
"############ XXoooooooooooOO.+OOOOOOOOOoooooXXXXXXXX############",
"############ oooooooooOOOOO.@OOOOOOOOOOOOOoooooXXXXX############",
"############ oooOOOOOOOOOO.@OOOOOOOOOOOOOOOOoooooXX.############",
"############ oOOOOooOOOOOO.OOOOOOOOOOOOOOOOOOoooooX.############",
"############ XooooOOOOOOO.+OOOOOOOOOOOOOOoooooOOooo.############",
"############ XXXooooOOooo.OOOOOOOOooooOOOOoooooOOoo.############",
"############.XXX....XXXXo.ooOOOOOOOOo.oooooooooooo.+############",
"############.XX...XXXoooo.OOOOOOOOOOO+.OOoooooooo.+.############",
"############ XXXXoooooOOO.OOOOOOOOOOOO.OOOOOooooo.o.############",
"############ oXXXXXoooo...OOOOOOOOOOOO+.OOOOOOoo.+o.############",
"############ oooOOOOO..+++.OooOOOOOOOOO+.OOOOOO.+oX.############",
"############ ooooo...@+OOO.ooOOOOOOOOOOO.OOO...+ooX.############",
"############.XXo..@@@OOOOO+.OOOOOOOOOOO.....+++oooX.############",
"############.XX.++oooooOOOO+.OOOOOOOOO.@@@++ooooooo.############",
"############.X.+oooooOOOOOOO.OOOOOOoX.@+oooooOOOoooX############",
"############..+oooOOOOOOOOOO+.OOooooo.+XXXoOOOOooooX############",
"############..OOOOOOOOOOOOOOO@.OOOoo.+ooXXXXXXoooooX############",
"############.+ooOOOOOOOOOOOOOO@.OOO.+OooooooooooooXX############",
"############.XXooooOOOOOOoooooO+...+oooooOOOOOOXXXXX############",
"############+XXXooOOOOooooooOOOO.++OOOOOOOOOOOooXXXX############",
"############ XoOOOooooooOOOOOOOo.OOOOOOOOOOOooooooXX############",
"############ oooOOOoooOOOOOOOOO.+OOOOOOOOOoooooooooX############",
"############ XXooooooooOOOOOOOo.OOOOOOoooooooooooooX############",
"############ XXXXXooooooooOOOOo.oOOOOOOOooooXXXXooXX############",
"############.XXXooo.OOOOOOooOOo.oOOOOOOOOOOOOoXXXXXX############",
"############.XXoooO.OOOoooooooo.oOOOOOOOOOoooooooXXX############",
"############.XXXXoo.oooooooooOO.oOOOOOOOooooOOooooo.############",
"############.XXXXXX.oooooOOOOOo.OOOOOOOOOOOOOOOOooo.############",
"############.XXXXXX+.XXXXXoooo.+OOOOOOOOOOOOooooooo.############",
"############.XXXXXXX..Xoooo...+oOOOOOOOOOOooooooooo.############",
"############.XXXXoo.++.....++.oOOOOOOOOOOOOOOoooooX.############",
"############.Xoooo.@oo+@@@+O+.oOOOOOooooOOOOOOOOooX.############",
"############.oooo.@OOoOOOOOOO+.OOOOOOOooooooooooooX.############",
"############.oooO.OOooooOOOOOO.oOOOOOOOOOOOoooooooX.############",
"############.oooo.ooooooooOOOO+.oOOOOOOOOOOOOOooooX.############",
"############.ooo.+oXXXXXXXoooOO@..oOOOOOOOOOooooooX ############",
"############.ooo+XXXooooooXXXXoo@@.oOOOOOOooooOOooo ############",
"############.oXXXXooooooooooXXXooo@.XoOOooooOOOoooo ############",
"############XXXXooooOOOOOOOOOOOOOOO...oOOOOOOoooooo.############",
"############XXXooOOOOOOOOOOOOOOOOOo+++.oOOOOO..oooX.############",
"############XXoOOOOOOOOOOOOOOOOOOOOOOoX......ooooX..############",
"############.XooOOOOOOOOOOOOOOOOOOOooooOOOoooXXX....############",
"############.XooooooOOOOOOOoXXXooooooooooooX....XXX ############",
"############.XXoooOOOOOOooXXXXXXXXooooooXX....XXXXX ############",
"############.XXXXXXXooOOOOOOooooXXXXXXXooooooooXXXX ############",
"############.XXXXoooooooOOOOOOooooXXXXooooooXXXXXXX ############",
"############.XooooooooooooooooXXXXXXXXXXXXXXXXXXXX. ############",
"############.XXooooooooooooXXXXXXXXXXXXXXXXXXXX.... ############",
"############.XXXXXoooooooooooXXXXXXXXXXXXXXXXXXX... ############",
"############ XXXXXXXXXX...XXXX........XXXX......... ############"
};
