/* XPM */
static const char *chiseled_nether_bricks[] = {
/* columns rows colors chars-per-pixel */
"64 64 8 1 ",
"  c #190D10",
". c #211114",
"X c #291519",
"o c #30181C",
"O c #38181E",
"+ c #3E1E24",
"@ c #44232A",
"# c #44242A",
/* pixels */
"++##########++. +###########+++++#++####++##++. +########+##+++O",
"+####++++OO++O. ###++++OOOOOOOOooOOOOOOOOOO+++. ####++++++++O+O.",
"###+OOO+++OOOO  #+OOOOOOOoOOOoooOOoOOooOOOOOO+. ##+++++++OOOoO. ",
"##+OOOooOOOOOO  #OOOOOoOOOooOOooooOOooooOOOOO+  #+++OO+O++OoOO  ",
"#+OOOoOooOoOoo  +OOOOOooOOOoooooooooOOOoooOOo+  #+OOO+++OOOOOo  ",
"#OOOOOoXXoOOOo  +OOOOooooOoOoooooooOOooooOOoo+  #++O++OOooOOoo  ",
"#OOooXXXooooOO. +OOoooooOooooooXoXoooOooOoOoo+. #+OOOOOooOOoOo. ",
"#OOOooXoXXoOoo  +OOOooOOoOooooooXXXooooOOOooO+. #OOOOOoOOoOOoX. ",
"+OoOOoooooooXX. OoOooOOooooooXXXXoooooXoooOOO+  +ooOOOOooooXXo..",
"+OOooOooooXXXX. OOoooooXooooXXXXooooXXXXoooOO+  +OooOooOooooXX. ",
"#OooooXoXXoXXX. +OOoooooXXXoooXXXXXooXXooXoOo+. +oOOooOooXXXoX. ",
"#ooooXXXXXXooX  +OoOooXXXXoooXXXXXXXXXooXXXooO  +OOoooXXXXoooo..",
"#OOooooXXXooXX  +OoXXooXXXXXXXXXXXXXXXXXXooXo+  OoooXXXXXXXooX  ",
"#OOOooXXooXXXo  OoooXXXXXXXXXXXXXXXXXXXXXXoooO  oXXooXXXXXXXoo  ",
"+o...  ... ..                                   .............   ",
"o..                                              . .    ..      ",
"++######+++###  ++++++++++OO+++++++++++oOO++++++..+@@@@@++@@++  ",
"+###+++OOOOO++  ++++++++++OO++++++++++ooo+++++++..@@@++OOOOOOO  ",
"##+OOOOOOOOooO  oo++++++++OOo+++++++oo+++oo++ooo..@+OOOOOOOOOo  ",
"#+OOOOOOOOooOo  +++++++++++Oo++++++++++++++o+++o..@OOOOOOOOOoO  ",
"#OOOOOOOoooooo  ++++++++++++O+++++++++++++++++++..+OOOOOooOooo. ",
"#OOOOOOOOooooX  ########++++Oo++++++++++++++####..+OOOoooooOOo. ",
"+OOOOOOOoooXoX  #++o++++++++oo+++++++++++++oo+OO..@OOooooooXoo..",
"+OOOOooooOoXoo  ++o+++++++++oo+++++++++++++++oo+..@OoOOoOOooXX..",
"#OOooooOOooXXo  +oo++++++++o+ooo++++++++++++++oo..+OOOoOOooXXo..",
"#OOOooOOXooXXX  oo++++++++o++++ooo++o+++++++++++..+OOoXoooXXXX..",
"+OOooOoXXoooXX  +oo+++++++o+++++++oo++++++++++++..+ooOoXXoooXX. ",
"+OOOOoooXXoXoX  +++ooo+++o++++++++++++++++++++++..+OooXXooXXXX. ",
"+OOooooXXXXXXX  +++++oooo+++++++++++++++++++++++..+oXXXXXXXXXX..",
"+OooXXXXXXXXXX  +++++++o++++++++++++++##########..OXXXXXXXXXXX..",
"o............   ++++++o+++++++++++++++++++++++++... ........... ",
"...   ..        ++++++o+++++++++++++++++++++++++..    .   ... . ",
"######++++####  ++++........++++++++........++++..+####+++###+  ",
"##++OOOOOOO+++  ++++........++++++++........++++. ###++OOOOooO  ",
"#+OOOOOoOoOOOO  ++++........++++++++........++++..#+OOOOOoOOoo. ",
"#OOOOOOOooooOo  ++++........++++++++........++++..#OOOOoOOooXX..",
"+OOOOOOOOooOoo  +++++++++ooo++++++++++++o+++++++. +OOoooooXXXo. ",
"+OOOOOOoOOoooo  ########+++oo+++++++++++o++#####. +OOOoooooXXX  ",
"+OOOOOOOoooooo  +++++++++++++o+++++++++++o++++++. #oOoooXXXXXX  ",
"OOOOOoooXXoooX  ++++++++++++++o+++++++++++oo++++  #OooXXXXXXXX  ",
"+OOoooXXooooXX  ooooooOO................OOoooooo  +oXXXXXXXXXX  ",
"+oOOoXXoooXXXX  oooooooO................Oooooooo  +XXooXXXXXXX. ",
"+OooXXXXXXooXX  oooooooO................Oooooooo  +oooXXXXXXXX. ",
"+OOoooXXXooXXX  oooooooO................Oooooooo  +OoXXoXXXXXX  ",
"+ooooXXXXXXXXX  +++++ooooooooooooooooooooo++++++  OoXooXXooXoX. ",
"+OoXXXXXXXXXXX  ####++++ooooooooo+++############  oXXXXXoXooXX. ",
"O.............  ++++++ooooooooooooooo+++++++####         .......",
".........  .    +++oooooooooooooooooooooooooo+++            . ..",
"+++###++++OO++   ..........................      .+#####+###+O. ",
"+###++OOOooOOO      ......    .. .  ..          ..####+OOOOOOo  ",
"##+OOOooOOoooO  +###############++####++++++++  +##++OOOoOOooO  ",
"#+OOOooOOOOOoo. ##++++++O++OOOOOOOOOOOOOOOOOOO  ##+OOOooOOOOoo  ",
"#OOoOOOoooOOOo. #+OOOOoOOOooOoOooOOOooOOOooOoO  #+OOOooOOoOOOo. ",
"#+oOOOOOooooOO. #OOoooOOoooOOOooOOOooooOooOOoo  #OoOOOOooOOOOO. ",
"#+OOOooOOooooo..+OoooOoooXoooOOooooooOOooOOooX. +oOOOOOOoooOOo  ",
"#OOOooooXXoooo..+OOOooooooXXooooooXXXXoOOooooX. +OOOoOOoOoOOoo. ",
"+OOoOOoXooXXoo..+ooooooXXXXooooooooXXXXXoooXoX. #OOOOooOXXooXo..",
"+OOOOooooXXooX..+OooooXXXXoooooXoXXXXXXXXXooXX. #oOoooXXXXXoXX..",
"+OOOoooXXXXXXo. +OOOOoooXXXXXoooXXoXXXXXXooXXX. +ooOoOoXXooXXX. ",
"+OOooXXXXXXXXX. +OOOoOoXXXXXXXXoooXXXXXXXXXXXX..+oooOoXXooXXXX. ",
"+ooOOoXXoXXXXX. OooXXXXXXXXXXXXXXXXXXXXXXXXXXX..+OooXXXXXXXXXX  ",
"+OooOOooXXXXXX  oOooXXXXXXXXXXXXXXXXXXXXXXXXXX. OooXXXXXXXXXXX. ",
"Oo.  ...  ....                      ..                      ..  ",
"o                                                               "
};
