/* XPM */
static const char *chiseled_red_sandstone[] = {
/* columns rows colors chars-per-pixel */
"64 64 7 1 ",
"  c #9F4E0B",
". c #AC5712",
"X c #B2601F",
"o c #C06822",
"O c #CB6E24",
"+ c #D2752B",
"@ c #D97B30",
/* pixels */
"@@@@@@@@@@@@@+@@@@@@++++++@@+@@@+@++@@@@@@@@+++++OOO++OOO+OO++O+",
"OO++++++++++++++++++++++O++++++++++++++++OO+++++++OOOOOOOO+++OOO",
"OOOO++++++++++++++O+++OO++++O+OO+++++OOOOO+++++OOOooO+OO+++OOooO",
"OOoOOOO+++++OOO++O+++++OOO+++OOOO+O+++OoOOoOOO++OooO+OOOO+++OOoo",
"OooooOOOoOooooOO+++OOOOOoOOooOoO+OOOOOooooOOOooOoOOOOoooOOooooOO",
"oOooOOOoooOOoooooO++OoOOOooOooOOOooOOOOOoooXOOooOoOOoooOOooXXooO",
"oXoooXoooOOoXoooXXoOOOooooXXOOOOXoXXoooooXXoooOooOooXXXXooXoXXoo",
"oXXoooXoooXXooXXXoooooXXXX.ooOooo..XXooXooXXoooXXoooooXXXX.XoooX",
"XX...XXXXooXXXXXXXXXXXXX..XXX.XXXXX..XooXX..XXXXooXXX.XX..XX..XX",
"..X.....XX..XXXX....XXXXX.........XXXXXX...XX..XXXX..XXXX....XX.",
"....   ........XX........       .X.X...XX.......    ............",
"..            ....  ..                ....                    ..",
"@@@@@@@@@@@@@@+@@+@@@@++@++++++++++++++++++++++++++++++++++++O. ",
"@@++++++++++++++++++++++++++OOOO++++++++++OOO+++++++++++++OOOo. ",
"@+++++OOOOoO++OOOOOOoO++OO+OooooooOO++OOoOOoOO++OO+OOOooooXoOO. ",
"@++OOOoOOOOoOOOOOOooOOOOOOOOOoOOoooOO++OOooXooOOooO+OOOoXXoXoO. ",
"@+OooOooOoooooooOOOooo....    ..         .ooOOooooooOOoooXXooo. ",
"@+OOooOOoooooooooOOOoo..  ...  ......  .. ooOOOOoooOOooXXXoooo. ",
"+++OOOoooXXooooOOOoooo.  ...........  ... oooOOOoOooooooXooOoo. ",
"+++OOOOoXXooooOOOooooX. ..................oooooOOooooooXXoOOOOX ",
"@++O.....   ....OOooXX  ..oooooooooooo....oooooo.....   ....OoX.",
"@+O+..   ...... oooooX  ..oooooooooooo ...ooOooo..    .. ...oo..",
"++OO   .  ....  oXoooo  ..oooooooooooo  ..oooOoX   .   .....Oo..",
"+OOO.  ....... .XooOoX ...ooooooooXooo  ..oXooXo. ..........oO..",
"+Ooo. ..ooXo. . XXooOO....    oooX      ..Xooooo.. .oooX. ..oo..",
"+OOo.. .oooX. ..XooooO. ...   oooX  ..  ..Xooooo..  ooXo  ..OoX.",
"OOOO ...oXXX  ..oooooX.   . . oooo   . . .XXXooo .. ooXX   .oOX ",
"O+OO ...ooXX   .ooooXX.. .... Oooo ... . .XXoooX. ..oXXX . .ooX ",
"O++O .....  ..  . ...  ...oOOOoooooooo ....     . ..    ..  oo. ",
"OO+O  ... .....  ..  .  . oooooooooooo  ..  ...   ....   .. XX. ",
"+OOO.   ........  .....  .ooOOoooooooo .......   ...........Xo. ",
"OOOo.. ................ ..oooOOOoooooo .....................oX. ",
"+OOoXooooooooooOOOoooX .....          ....ooXooXXXoOOOoXooXXoo. ",
"+OooXXooXoooooOOOoooXX ...  ..   ..  .....oOoooXoXooOoOooXXoXX. ",
"+OoooXXXoOoOOoooooOooX  ...  ...  ........OoooXXooXooooXoXXXXX. ",
"+OoXXXXoooOOooXXoooOoo.  .................ooXoXXoooooXoXXXXXXX. ",
"+OooXXoooooooooXXXoooooooooooo....XXooooOoooXXXXXooooXXXXXXXXX. ",
"+OXXXoXXooooXXXXXoXXoooooooooo. ..XXooooooXXXXXXXXooXXXXXXXXXX. ",
"XXXXXXXXXXXXXX.......XXXXXXXXX .....XXXXX................       ",
"XXXX.......................... ..........                       ",
"@@@@@@@@@@@@@@++@@@@@@++@@    ....... +++O+OO+++++OOOO++++OOOOX ",
"@@@@+++++++++++++++++OOOOO   .....   .OOOOOOOOOOOOOOOOOOOOOOOXX ",
"@@++O++++OOoOOOOOOoOOooOOO .....    ..OOooooooOOooOOOOOoooOOoOX.",
"@++OOOOoooooooOOOoooooOOOo  ..... .. .oOOOoooooooooooOooOOOoOO..",
"@+ooooooooX.........XoooOOooXX. . XXooooOoooX......XooooXoXXoo. ",
"@+XooooXoooXXX.......XoooooooX.  .oooOOooooooXX......XoooXXoXX. ",
"++oXXoooXXooooOOOoXX..oXoo ...  ..    oooXoooOOo..XX..XooooXoX. ",
"++XXoooXXoooooooOOoX..XoXo   .. ....  ooooooOoOO.XXXX..XooooXo. ",
"@+oXoooooooooooooXOoX.oooo  .... .... XooooooooO.XooooX.OooXoO. ",
"@+ooOoOOoooXooXoXXooX.oooX    ........oooooooooOXXooOooXOOoXOO. ",
"++ooOOoooooXXooXXXXoXXooXXooXX ...oooXooooooooooXXoooOOoOOoooX. ",
"+OoOOoooooXXooooXoooXXoooXXooX....oOooooOoooooooXXooooOOOooXooX ",
"+OoooXooXXoOooooooooX.oooo     .....  OOooooOooo.XXXoooooXXooOX.",
"+OooooXXXoOoooooooooX.oooo   .....   .oooooooOoo.XXoooooXooooO..",
"OOooXXXooOOoooooooooXXoooo ......  .. oooooOoOoo.XoooooXXXoooO. ",
"OOoooXXXooOOooooXoXoX.oooo  ......  ..ooooOOOOoo.XoooOooXooooO..",
"OOoooooooooooooooXXX..XooooXXX ...XXooXooOoOOooX.XoOOooooooooo. ",
"OOoooooXXoooooooooX..XXoXooooX . .XooXoooooOooo..XooOOooooooOo. ",
"+OoooXXXoooooXXX....XoXXXooooo   .XXXXoXooOooX..XXXXXXXoooooOoX.",
"+OooooXXXXooX.....XXoooXXXoXoo    XXXXXXooooXXXXXXXXXXXXoooooOX.",
"+OOOOOoooooXXoooXXoXoooOOoXXooXXXXXXoXXoXXooooooXXoooooOOoooOO..",
"OOOOOOOOoooooooXXoooooooOOoooXXXXXooXXoooXXoooXXooooOOOOOOOOoo..",
" ....XX..XXX.XXXXXXX..........XX............................... ",
"    ..  ....  ........        ....                              "
};
