/* XPM */
static const char *chiseled_bookshelf_empty[] = {
/* columns rows colors chars-per-pixel */
"64 64 11 1 ",
"  c #19130A",
". c #1D170D",
"X c #271E11",
"o c #41311A",
"O c #604A2C",
"+ c #7C623E",
"@ c #9B7742",
"# c #9F844D",
"$ c #B38C51",
"% c #BC9862",
"& c #CCA66C",
/* pixels */
"&&&&&&&&&&&&%%$$$$$%%%&&&&&&%%&&&&&&&&%%%%$%%$$$####$$$$$$$$$$##",
"&&&%%%$$$$$$$$$%%$$$$%%%%%$$$%%%%%$$%%%$#$$$$$###########$$###$#",
"%$                                                            +@",
"$#                                                            +#",
"%#  .XXXXXXXXXXXXXXXXXXXXXXXXXXXXXXXXXXXXXXXXXXXXXXXXXXXXXX   +@",
"%$  XooooooooooooooooXXooooooooooooooooooXXooooooooooooooooX  +@",
"$$  XooooooooooooooooXXooooooooooooooooooXXooooooooooooooooX  @@",
"$#  XooooooooooooooooXXooooooooooooooooooXXooooooooooooooooX  @#",
"$#  XooooooooooooooooXXooooooooooooooooooXXooooooooooooooooX  @#",
"$$  XooooooooooooooooXXooooooooooooooooooXXooooooooooooooooX  @#",
"$#  XooooooooooooooooOXooooooooooooooooooOXooooooooooooooooX  @@",
"$$  XooooooooooooooooOXooooooooooooooooooOXooooooooooooooooX  @#",
"$$  XooooooooooooooooOXooooooooooooooooooOXooooooooooooooooX  @#",
"$$  XooooooooooooooooOXooooooooooooooooooOXooooooooooooooooX  @#",
"$$  XooooooooooooooooOXooooooooooooooooooOXooooooooooooooooX  @@",
"$$  XooooooooooooooooOXooooooooooooooooooOXooooooooooooooooX  @#",
"$$  XooooooooooooooooO ooooooooooooooooooO ooooooooooooooooX  @@",
"$#  XooooooooooooooooO ooooooooooooooooooO ooooooooooooooooX  @#",
"$#  XooooooooooooooooO ooooooooooooooooooO ooooooooooooooooX  @#",
"$#  XooooooooooooooooO ooooooooooooooooooO ooooooooooooooooX  @#",
"$$  Xooooooooooooooooo ooooooooooooooooooo ooooooooooooooooX  @#",
"$$  XooooooooooooooooX ooooooooooooooooooX ooooooooooooooooX  @#",
"$$  XooooooooooooooooX ooooooooooooooooooX ooooooooooooooooX  @@",
"$#  XooooooooooooooooX ooooooooooooooooooX ooooooooooooooooX  @@",
"$#  XooooooooooooooooX ooooooooooooooooooX ooooooooooooooooX  +@",
"$#  XooooooooooooooooX ooooooooooooooooooX ooooooooooooooooX  +#",
"$$  XooooooooooooooooX ooooooooooooooooooX ooooooooooooooooX  +#",
"$#  XooooooooooooooooX ooooooooooooooooooX ooooooooooooooooX  @#",
"##  XooooooooooooooooX ooooooooooooooooooX ooooooooooooooooX  #@",
"++  XooooooooooooooooX ooooooooooooooooooX ooooooooooooooooX  ++",
"%%$$$$$$$$$$%%$$$$$%%%&&&&&&&&&&&&%%%%$$$$%%$$%%%%$$##$$$$$###$$",
"$$$$$$####$$$$%%%$$$$$$%%%%%%%%%%$$$$$%$$##$$$$$$$######$##$$###",
"$$##$####$$$#######$$$#$$$$$$%%$##$#####$$$##$$####@#####@@@#@@#",
"$@@##$$#@@@@@@#@@#####$$####$$$%%%$$######@@@@##@@@##@@@###@@+@@",
"##                                                            +@",
"$%                                                            +@",
"$&  .XXXXXXXXXXXXXXXXXXXXXXXXXXXXXXXXXXXXXXXXXXXXXXXXXXXXXX   @@",
"%&  XooooooooooooooooXXooooooooooooooooooXXooooooooooooooooX  @@",
"%&  XooooooooooooooooXXooooooooooooooooooXXooooooooooooooooX  @@",
"%&  XooooooooooooooooXXooooooooooooooooooXXooooooooooooooooX  @$",
"%%  XooooooooooooooooXXooooooooooooooooooXXooooooooooooooooX  @$",
"%%  XooooooooooooooooXXooooooooooooooooooXXooooooooooooooooX  @$",
"%&  XooooooooooooooooOXooooooooooooooooooOXooooooooooooooooX  #$",
"%&  XooooooooooooooooOXooooooooooooooooooOXooooooooooooooooX  #$",
"%&  XooooooooooooooooOXooooooooooooooooooOXooooooooooooooooX  ##",
"%%  XooooooooooooooooOXooooooooooooooooooOXooooooooooooooooX  @#",
"$&  XooooooooooooooooOXooooooooooooooooooOXooooooooooooooooX  @@",
"$%  XooooooooooooooooOXooooooooooooooooooOXooooooooooooooooX  @@",
"%$  XooooooooooooooooO ooooooooooooooooooO ooooooooooooooooX  @#",
"%#  XooooooooooooooooO ooooooooooooooooooO ooooooooooooooooX  @#",
"$#  XooooooooooooooooO ooooooooooooooooooO ooooooooooooooooX  @#",
"$$  XooooooooooooooooO ooooooooooooooooooO ooooooooooooooooX  @#",
"$#  Xooooooooooooooooo ooooooooooooooooooo ooooooooooooooooX  #$",
"##  XooooooooooooooooX ooooooooooooooooooX ooooooooooooooooX  #$",
"##  XooooooooooooooooX ooooooooooooooooooX ooooooooooooooooX  @$",
"$#  XooooooooooooooooX ooooooooooooooooooX ooooooooooooooooX  @#",
"$#  XooooooooooooooooX ooooooooooooooooooX ooooooooooooooooX  @@",
"$#  XooooooooooooooooX ooooooooooooooooooX ooooooooooooooooX  @@",
"$$  XooooooooooooooooX ooooooooooooooooooX ooooooooooooooooX  @@",
"$$  XooooooooooooooooX ooooooooooooooooooX ooooooooooooooooX  #@",
"$#  XooooooooooooooooX ooooooooooooooooooX ooooooooooooooooX  #@",
"$#  XooooooooooooooooX ooooooooooooooooooX ooooooooooooooooX  #@",
"$$%%%%%&&%%%&&&&&&&&&%%%$$%%$%$$##$$%%%$$%%%%%%%%%$$#@@@@@@@@#@#",
"$$$$$%%%$$%%%%%%%%$$%%$$$$$$$$##@@@#@@#$$$$$$$$@@#@@@#@@@@#####$"
};
