/* XPM */
static const char *coal_block[] = {
/* columns rows colors chars-per-pixel */
"64 64 6 1 ",
"  c gray2",
". c gray5",
"X c #151515",
"o c gray10",
"O c #1F1E1E",
"+ c #292828",
/* pixels */
"XooXooOooXooXoX........XXXX..        XXXoXXX....           . ...",
"XXooOO+OoooooXXXX.X..XXXXX....   .  .XoXooX......  .        ...X",
"ooO+++oXooXXXoXX.XXX..XX...   . .    .XooX.... . . ..  .  ....XX",
"XooO+OXXXXoXXXX.X.X..X......   ..   ..XoXXX.... ....    ....XXXX",
"OoXoOOooXXXX..X........  .  ....   ..XoX.X...    ... . ..ooXXoOo",
"oOOOOooXXX.XX...... ....   .  ...   .XX.... ..  ..  ...XXXooOOoX",
"XoOoXXXXXXX..  ..  ..  ..    ..    .XX..   .....   ..XXoooOOooXX",
"XXoooXX..X..  ..  .. .          ..  .X...   ...  ...XXooOOOXoooX",
"XooXX..X..     ...    ... . . ...   . ..  ..  ... .XXXXOOooXXoXX",
"o.X......  .  ... ..   ...XX ...       ..  . .  ..XXXoOXooooXXXX",
"...... .... ...  .. . ..XXoXXX... ..     .  ...  XXXoooXXoXXXX. ",
"  ...    .   ...     ..XXoXXooX.X..   ..  .... .XXoXXXooXXX..   ",
" . .   .  ...  ... ..X.ooOXoOOoXXXXX.  ...   ...XoOOXXXXX...  . ",
"...  ..  ..  .  ......ooOOoXOoXoXXXoXXX.... ...XXXOoXXX......  .",
".     .... ..... .Xo.ooO++OOoXXooOoOoXXX.X .. .XXooXXX...   ....",
"     ....   ....XooXoO+++OOooXooOOOoXX..X...   XXoXX...  . .. ..",
".      .  ....XXoooo++OOoXoXXoOOXoOOoXX.... .. .oXX..   ... .. .",
"           .XXoXXoO++OoXXoooXXoOoXoXX.. .... .. XXX... ..  .    ",
".. .   ......XXooO+OOoooXXXooXXoXXXX..        ...X..      ...   ",
" ..     ..XXXXXXooOOoXXXXXoXX.XXX. .. .   .    ... ..   ...  .. ",
"..X.. ...XXXXXXXXXXoOOoXXXXX.X.....     ..   .... .....  ...XX..",
"XX.. ..XXXooXoXXXXoooOOoXXX..... .  ..   ...  ..    .X.X..XXX...",
".XXXX...XXXooOoXooXXooXXXX...   .     ........ ..  ...XXXXXX..X.",
"X.XX.....XXXooXooXXoXXXX. .... ....    ..  .... ....XXXoXOoXXooX",
".....   ...OOXXXXoXX.X.. ...  . .. ..    ...  ....XXXooOOooooXXX",
".. . ..  .OOooXXXXXX...    ..     ..      .  ...XX.XXXooOOooXXX.",
" ..   ..XOOoXXXX.X....  .    ..  ..... ..  ..XXXXXXXooXooXXXoX..",
"   .   .OoooooX...  . .. .  ......X.X... ..XX.oXXXXooXoXXX.X... ",
" ..  ..oXXoooXXX...  ..   ....XX...XXX...XXXXXXooXXXXXXX.X...   ",
"  ....oooXXoXX..  ..     ......XXoXXXXXX..XooXOOooX..XX..  ...  ",
"   ...oXXXoX...  . ... .....XoXXo++ooXXXooo+OOOoXX..X...  .  .. ",
"  ...oXX.X..  ..  ...   ..XXXXoooo++ooXoXoOO+OoXX...........   .",
"    .XXX..X..    ..    .X..XXXXooOOoOO++OXXooXXX.... ...XX.X... ",
"  . ..X.......     . .  .XXXooOO++OOO++OXXXXXX... ...  ..XX...  ",
"   ........ .  ..    ..XXXXooOO+OOooXXX..XXX..   ...  .XX...  . ",
"      .. ...  ..      ..XoXXOooOOooXX...X......     ..XX.. ..   ",
"    ..    .....X. . .X.ooOOoXXooXXXoXX..... ....  ...X... .     ",
"   ..   .....XX... .XXXXooOOoooXoXX.........  . ....XXX...   .  ",
" .    .. ..XXX...   .XXoOOooXXXX..  . .   .  . ..XXoX..   . ... ",
". .. .X.....X. .  ..XooOOooooX.....  ...      .XoooX....   ...  ",
"..X....XX.XX. . ...XXXooXXoX...  .....     .....XoX..   ..  ....",
".XXX..XXXXX...   X.XXXXXoXX..  .      .   . ...XXX.X..   ......X",
"X.oXXXooX...   ...XXoOoXXX.       .      ....XXX....  ....X..XXX",
"oXXooooXXX... ...XooOOXX..  ..  ..  ..  ....X.X... ..  ....XXXoX",
"XoOOoXXX..   ...X.XOoX...    ..  .... ..  ..  ..     ...XX..XXoo",
"oOOoXX......  ..XoXoX.. .. ... ..... .... .  ....  .. XoX.XXooOo",
"oXoX...  ..  ..XoXXX.     ....XX......   .      ...XXXOOoXXoOOoo",
"XXX.....   .. .ooX....  ....XoX......   .  .   ...X.oXXOOooXoOOo",
"X.. ..  . .  .XX...   .X..Xo++OXX..X....    ..XX.XoooOOoooXooXoX",
" . ..  ...  ..X... . ...XXXXO++OXXX....   .....XXoOoOOooXXXXXXX.",
"      ..  ...X..    .XXXXoOoOOo+ooXXX....  .X.XXOOOOooXXooXXXX. ",
"    ... .... ..   ....XXoooOOoXoXooX...  ....XXooOOooXXooXoXX. .",
"   . .....  .  ....XXooO+++OoooXX.X...  ....XoOOOOoXXXXXXX.X..  ",
"    .. ..    .  ..XoooO+++OXOXooXX.. ...  .XXXoOoXXXXoo..X.  .. ",
" ....   .. .....XXXXoO+OOoXXXX....  ..  ..XXoOOoXXXXooXX....  . ",
"  .... .. .......XXoOOOoOOoXX...   ..   .XooOOXXXoXoXX....     .",
"....     ...X.XXXooOooXX.XX..  ..      .XXXooXoooooXX..      .  ",
" .    .   ...XXXXXoooooXX.. ..        ..XXoXXXXooX.X....    .   ",
"  .  .....XXXXXXooXXXoX..           . .X.XXoOOooXoX...  .  ..   ",
"      ...XOoooXXXooXXXX. .   .       ..XXooOOoXX..X..     .. .  ",
"  . ..X.XXXOOooXXXXX.X.......  ..  . ..XXXOoXXX..X.   ..  .. ...",
"   ....XXXooOOXXX..XX. . ..X....   ...XXXoXXXXXX.... ..  . .  . ",
".....XoXoOOOoXXXXX...   ..XXX..   ....XXXXX..X....  .   ..   ...",
".X.XXXooXoOoXXXX....  ..XXXX.XX.   ..XXXXXXX..... .     .  .  .."
};
