/* XPM */
static const char *coal_ore[] = {
/* columns rows colors chars-per-pixel */
"64 64 10 1 ",
"  c #252525",
". c gray18",
"X c gray21",
"o c #393C36",
"O c #494B3F",
"+ c gray36",
"@ c #686868",
"# c #747474",
"$ c gray50",
"% c gray56",
/* pixels */
"$$$$$$%%%%%%%%$$$$$###$$$###$$$##$$$$###$$$#####$$$$%%$$####$$$$",
"$$$%%%%%%%%$$%%%$$#$$###$$####$$$##@@@@###@@#$$##$%%%$$###$$$$$$",
"$%%%%%%$$$%%$$$$$$$$######%%%%%$#@@###@@@@####$$$$###$$$######$$",
"$$$$$%%%$$$$$$$$$$$$$$###%%%%$$$$$######@########$$###$$$$$####$",
"$$$$$####$$$$$$$#$$%%%$$$$$$####%%$$$$%%$$$$$$$#####@@###$$$$###",
"%%%%#$$#####$$######$%%$$$#####$$%%%$$$%%%$$##@@##@@@###$$#####$",
"$%%$$$#####$$$$$######$$###@@@#####$####$$$#####@@@###$$###$$%%$",
"%%%%%$$$#####$$#$$#####@@@+++@@@##@@#######$$$###@@@++#$$###$$%%",
"$$$$$#####@@@@@@####@@@@++ .XXX.X++@@@########$$#+++..+@@#####$$",
"$$$#####@@@@@##@@@###@@+  .XXoXX..++@###########++  .X.@#######$",
"$%%%$$#####@@@##@@@@@@@  .X.XXoXX..X++@######$$@.  .XXX.@###$$$$",
"%%$################@@+  ..XoooooXXXX.X+@@##$$$$$#..XX..@@@###$$$",
"$$$$####$$$$$####@@@+. ..ooXoOooOoOOX.. @@###$###@X..+@####$$##$",
"$$####@@@#$$####@@@+.  .XXooOooooOOooX..  @#$$$###@.+@@@@@####$$",
"##$$$++  @#$%%#####@@.. Xo.XooXOOoooXoXX..  #$%$$$$$$$##@#$$$$##",
"$###@+  X #%%%%%$$$$@@+..XX..XoooooooXX..  $%%%%%%$$###@@@##$$$$",
"####@ X..XXX%$$$$#####@@... ..XooXoX.... .@%%$$$$$%%%$$$#######$",
"$$$#  .XXX.$$$##@@@@#@@@@+..  ..Xo....  +@%%%%%$%%$$%%$##$$###$$",
"$$##$$ .X.#$$$$$##@###$$#@@+.   ..    +@@$$%%%%%$$$$###$$$##$$$$",
"$$$$$$##.#$$$$###@@@$$$$$$@@+..     ++@$%%%%%%$$$########$$%%%$$",
"$$$$$%%%%$$#####$$$###$$$$$$#@@++++@@@#$$$##$$####@@##@@####$%%%",
"$$%%%%%%%%$$#$$####$$$$$#####$$##########$$$#@@@@@@####@@@#$%%%$",
"$$$$$%%%$$$$$$$$####$###$$$###$$$$##$$#####@@@@@@@############$$",
"$$$$%%%%%%%$$$%%%%%$$$###$######$$$$##@@@@@@+++++@@############$",
"$##$$$$%%$$$$$$%%%%%%$$$$$$$$#$$%%%%%%##@@++  ..+++@$$#####$$$$$",
"######$$##$$%%%%%%$$$$$$##$$%%%%%%%$$$$#@+  ...XX.++##$$$$$##$$$",
"$$###$$$$$###$$$$%%%$@@#####$$%%$##$$#@@@  .XoooXo.++$$%%%$$###$",
"$$$$############%%%@+++@@########$$####@  .oooOOoXoo+%%%%$####$$",
"############@@@#@@@+ ..++@@##$$$####$$$#+ ..oOoOOOo.@#$$$$$$$$##",
"$#######@@@@@@@@@+ ..XoX..+@###$$####$###+ .XoooO..+@###$$$$$$$$",
"$$$#######@@#@@+  ..XoooXX..+@@##$$$$$$$###@oooX..+@##$$$$$$$$$$",
"$##$$$######@+   .XooooXoXX...@@##$###$$$$###oX.+#$$$$$$####$$$$",
"$$$$####$$$@+   XXoooOooooXoX.. @%%%%%%%$$$###++#####$$$$#####$$",
"$$####$$#$$@   .oooOOoOOooo..  @%%%%$$$$$##$$$######$$#######$$$",
"$$$#####$$$@  .ooOooOOOoooX.  @%$$$$$$$#######$$$$$$$$$$###$$$$$",
"$$%%$%%%%%%%@ .XXoOOOOooXoo +@$$%%$$$$###$###$$#####$$$$$$##$$$$",
"$$$$$$$$%%$$$+ .oXoOooXXo.+@@$$$$%%%$$$$##$$%%%$##$$%%%%$$$$$$$$",
"$$$$$$%%%$$###+ ..XooXXo+@@$$$$$%%%$$##$$##$$%%%$$$$$$%++@$$$$$$",
"#$$$%%%$$%%%$##@  ...X++@@$$%%%%$$$$##$$$$$###$$$$%%$%+  .@@####",
"####$$$$$$$#####@+ .++@@@@@####$$$$$$$$$#####$$$$##$$+ .  ..@@##",
"#@#$$$#$$####$$$$#++@@@@@##########$$$####$$$$####$$+  ..oXX..@$",
"##@@##$$$$$$$$$$###$$#@@@@@@##@@#$$#$$$####$##$$###+  .oOoOoX@@#",
"$$############$$$$##$$####@@@@####$$$$$$$$$$$$%%%%%+. oOOOX.@@##",
"####$###########$$$$$$$$#####$$$$$$$$$$#$$$$%%%%%%$$+. oOo+@$$$$",
"$$$$$$$$$######$$$$$$$$%%%%%$$$$$$%%%$######$$$$%%%$$$..+##$$%%%",
"$#$$####@@#$$++###$$%%%%%$$$%%$$%%%%$$$##$$++#$$$$$$$$$###$$%%$$",
"$$###@@@@##++XXX+$$%%%%%%%$$$#$##$%##$$$$$+.  +#$$$####$######$$",
"###$$$#@@@+.XXoooX+++@%%$$$####$$$$$$###$+oo.  +##$$$#######$##$",
"$#######++..oooOooX.. ++####@@@###@@###$+ooOo.. ++@@#########$$$",
"#####$$++ .XoOOooooX..   $$$$###@@@##$$#+XOOOO..   @@@##@@@@####",
"##$$$##+  .oooOOOoXoXX..   $$$$###$$##$#XooOOoXo.   @@@####@@@##",
"$$$$###@+  XOOoOoXXXXXX.. #$$$######$$$+oXoXXOoXX. @@#####@@@###",
"$%%%%%##@+ .Xooooo..    ######$$$$####$+..XXooX.. @#$#$$$$$$$%%$",
"$$%%%$$%@@@ .XooX..  +@@@####$$$#####$%%+...XX.. @###$$$$#%%%%%%",
"%%%%%%%$$##@..Xo. +++@@#$$#@@@@###$$$$$$$@   .  ##$$#######$$$$$",
"$$$$$$$$$$###@oX+++@$$$$#@ ...++@###$$$###@@   #$$$$$$######$%%$",
"$$$#####$$$$##@@@$$$%%$#@ ..XooXX.$$#####$$$@@###$$$$%%%%%%%$$%%",
"$$$$##$#####$$$$%%%%%%%%  .XooXo.@$$$$#####$$$$$%%%%$$$%%%%%%%%$",
"$####@@@##$$###$$$%%%$$$@  ..X..@###$$$$$$$$$%%%%%%$%%$$$%%%%$$$",
"$$##@###$$$$$$$$$$$$%%$##@+  .@###$$$$%$$$###$$$$$$$$$$$%%$####$",
"##$$$$$$$#$########$$$$$$#@++@$$$$$$%%%%$$$$$####$$$$#####$$$$##",
"$$$$$$#####$$####$###$###@@@@@##$$%%$$$%%%%%$$##$$####$$$$##$$$$",
"$$$$####$$$$###$$$$#$$$$####@#####$$$$%%%%$$$$$$$$$$###$$$$$$$$$",
"$$$$$$$$$$##$$$$$$$$$$$$$$$#####$$$$$$$$$$$$$$$$$$$$$$##$$$$$$$$"
};
