/* XPM */
static const char *coarse_dirt[] = {
/* columns rows colors chars-per-pixel */
"64 64 9 1 ",
"  c #422E1F",
". c #593D29",
"X c #694931",
"o c #79553A",
"O c gray33",
"+ c #6C6C6C",
"@ c #966C4A",
"# c #B9855C",
"$ c gray53",
/* pixels */
"#@@o@X.Xo@o@ooX@@oo@@@@@oX.Xo@ooooX.oo@@  .XXoo. X@oo@@#@o.X@@@#",
"##@@oo.Xoo@@@XXoXo@o@@##@o..ooo@@X..@@@o. .XoX. .oo@###@@@X.X@##",
"@@#@@oXXo@#@oX.Xooo@##@@@@X X@@o@X.Xo@oo@. XX.. Xo###@@@o@o..X@#",
"#oo@@@X@X#@@@.XXoo@####@@@o .o@@o.XXXo@##. .X.  o@@#@#oooo@o..o@",
"@@ooo@##@@@oX..XXoo@#@##@O@. Xoo..XXoo##@X XoX .@#@@@@@ooooX..X@",
"@@@o@@@##@oX..Xo@@Xo@@@@++OO.X.o.XXo@##@#@.ooX o##@@ooo@o.X.X..X",
"@oo@#@@oooXX.XXoo@@Xoo@@$++OOOX.XoXXo@@#@..oXo.X#@#@@ooX...XoX..",
"o@####@@oX. .XoXoooXX@o@o$$+O.X..ooXXo@@X. .XX.X.@@ooX...X@ooo.X",
"@#@##@o..  . .o.o@@o.oooX$XX...Xoo@oXooX  .Xo.X..Xoo.X.Xoo@@..X@",
"@@##@@@o...   .o@##@X XX..X.  .o@@@XXX   .XX..oo..XX..oo@@X..o@@",
"@#@@@o..XooXX  Xoo@#@  XX.. ..Xoo@o.   ......o##oo...XXoX..Xo@o@",
"@@@oo..XoooooX. Xo#@o.  .X   XXXo.. .o. Xo.oo@@#@oo.X.XXXX@@@oo@",
"@@oo@o$$+@o@XXX. X@ooX .   .XoX..X..ooo.Xoo@##@@#@oo..Xoo@@oo@oo",
"o@@@+$$+XX@oooXX .Xo.XX..  Xoo@X.XXo@ooX.@###@@@@@@ooX.@###o@@@o",
"@@#@$+OO@#@@@oo@. o.X.oXX. o@##@@o@@oo@o.Xo@@oo@@o@@@o.X@#@@oX@o",
"@o#@@OOXX####@oo@.Xo..ooXX .o@@#@@@o@@ooX.oo@@ooo@o@ooXXo@@o..o@",
"oo@#@@o XX@#@##@oo.X.o@ooX. oo@oo@@@@@o....oo$@oooXXoXXoo@ooX .@",
"oo@@oo .oXX@##@ooo..oo##ooX .Xo@ooo@@ooo. oo$$O+oXX.XXoXooXX  X@",
"o@oo@. XXooo@@@@@oX.o##@@@oX..XXoo@oooX  XX$+O+OX..X.XXXXXX. .oo",
"ooX@X. Xooo@@@oXoo..@@@#@o...  .XXoo..  XX@++OOX..XX .XooX  .ooo",
"oXoo. oo@@@ooo@.XX.@@@@@ooo.oo.    .. X.o.. OX..XXX. .oo  ..o@@o",
"X.oX  .oo@@@o..X..oo@@o@o@@oooo..   Xo@ooo..   .X.. .X.  .Xooo@#",
"o.X. ..Xooo@@oX..o@@oo@o@@oo@oo@o.XX@@o@ooo@XX. ..  XXX.Xooo@##@",
"@o..X ..XXooo@ooX@@o@ooooX@@oo@#oo@@@ooo@o@@@o.....Xoo@#@oo@@@##",
"#o.X.XX..XX.XooooOOooo@@Xoo@@@##@##@oo@@###@o.ooX.XX@@##@o@o@#@#",
"#@XXXoXXX.oX..XoOO+Oo@@oXXoo@@@##@oo.oo@@#####@o..Xoo@#@@@oo##@@",
"@X.XooooXooooX..XO++OooXX..oo##@@@@@X..o@@@##@##oXoo@#@#o@oo#@o@",
"oX..XXo@oo@oXoX..++O@oXX..oo@@##@@@#oXXoo@##@@@##@o@##@@ooo@@@oo",
"X....XXo@oo@@oXX  OO@#X.Xo.o.o@@@##@ooXX@o@@#@@@@oo@@##@@o@o@o@o",
".XooX.oooo@#XoX  .O@##@X..XXo@@@##@@@o.X.oo@@@@@oooo@o@.ooo@XooX",
"X##ooX..o##@oX. .X@oo@#@X.. .o@oo@@oX.Xo@@@ooo@o@@oooX.  .X..XX.",
"X@##o. XX@#oXX .Xooo@o@@oo..  ..@@XX..o@@#@@o@ooo@X.   .Xo@XXX. ",
"@##@.  oXX@oX...oo@@@ooo@@XX..    ...@@##@X@@ooXX..  .oooo..X  .",
"@#@@. oXXoXX. .Xo@@o@@o@@o.XX..  .  @@#@XX.X@@XoXX...oXX.ooX. XX",
"@@#oX.oXooX.  X@@oX.o@ooo@o..XX..XX@o###@XX..XXX..X.XX....X. .Xo",
"o@@o..XoXo.. .Xo@o.o@oo.XX..XXoo..oo@@@##@oX...oX..XXoo..X.. Xoo",
"@ooX.XX@.XX. Xo@o...oX.. .XXXXXooX..ooo@@o..XXoo.@XX#@ooX.  .oo@",
"o@o..o@XX.X  XXooX...   ...XoX.Xo.X..X@@ooX..XXo@@####@XXX. o@@#",
"@o..X@##XX. .XXX..    ..XXooooX.XXX.X..XX..XXXo@##@@@@##oX.o@###",
"oo. X#@#oX..XX..  . ...XXoo@@o...XXX..XXooX.Xo@##@@@@##@ooXo@@#@",
"oX  @#@@#oX.o.X..o@ooXX.Xo@@##oX....oooo@oo..o@@#@@##@@oo$o@@o@o",
"X. X@@#@@@oX@ooo@@##ooX..@###@@oX. o@o@#@@X. .o@@#@@##oo$+$+o@oo",
"X .Xo@#@oo@@oo@@###@##oX.X@@@##@.  oo@@@##oX  oo@@@@@@o@$$++O+oX",
"  .ooo@@o@@oo@##@####@@o..#@##@X .o@@@##@@oo. X@@o@@@o@oo++O+oX.",
"  XXoo@oooo@@##@@@@@@#@@X.@ooX..X+$o@#@##@@oX. .ooo@@oooX.OOXX..",
". X.oXooXoXo@@@#@@@@###@@.X@X..X$$+$@@@@##@@o. ..o@@ooo..XX..X.X",
"X .X.Xo.o..XXoo@@o@#o@##oX.X.XX$$++@@o@@@@oo.   o..ooX.XXoXX..XX",
"X. .XXXo..XXoo@@oooX.o@#@oXoXX@++$+o@@oo@@@.  .   oX....ooX.....",
"oXX..XX..XX..oooXX..o@@@#@@ooooo++ .ooXoX.. ..XXX.  .XXooX.XXX..",
"ooXXX..XXoXX..X....o@o@@@@ooo@o@@+. XooXXX..XoXX.  .XoXXo@o.Xo.@",
"o@oooo..ooo..X...Xooo@@@@@@@oo@@oX.  XXoooXXXXoooX.Xoooo@@#o##@o",
"oo@oXoo..XXoXXXX. o@@@@@@##@@@oo.X.  XXXo@oXoooXXXXooo@@##@@@##@",
"@XXX.XXoXX.XX..  .oo@@oo@@@###@@o..X  Xo##@@@o..X.ooo@###@@##@o@",
"o@X.  .XX.  ..oX .Xo.oXoo@@@#@@@X.X. ..@@##@o.  .X@o@#@#@@@@@ooo",
"@oooX.  . .X.@oX. .XX..o@@oo@@@o..oo. ooo@@#.  .  X@@@@@@@o@@@o@",
"@@@oXX.  ...Xo@@X.  oX..o@o@o@oX.X@oo .o@@@X..X..  oXX@@oo@@@@@o",
"@@oXoXXX. .Xo@@XXX.  ..XXo@oo.X..@##o. Xo@..XXoo@..  Xooo@@oo@@@",
"@o@oXX... XXooooooXX  ...Xo.XX..o##@#X..XoX..o@@@oX.  Xo@@@@oooX",
"Xoo@@..XX.Xo@oo@@ooXX. .XXXX..@##@@@@@.XooXX@@Xoo@@o..  o@@o@o..",
".X@@ooX.. .@@#@@ooXX.X  .$$XX.o@##@@#@XXo.Xoo@XX@@oXX..  XooX..X",
"XXXo@ooX .#@###@@@@oX.. $++$++oo@@##@ooX.XoooX.Xoo@@@XX. .XXXXX.",
"oooXXooX ####@@##@@@oo.$$$+++o@oo@@##@@o.X.X..X.X@@@ooo@X .X.ooX",
"Xo@oXXo..@@#o@o@@o@o@@oX$+$+ooo@@ooo@@o@oo .Xoo..o@oo@@ooX..XXoo",
"@@@@ooX.Xo#@@ooo@@ooo@@oo+Xooo@@ooo@@ooo@ ...Xoo..oo@@ooooX.Xoo@"
};
