/* XPM */
static const char *cobbled_deepslate[] = {
/* columns rows colors chars-per-pixel */
"64 64 6 1 ",
"  c #353539",
". c #3F3F45",
"X c #4A4A4F",
"o c #5A5A5A",
"O c DimGray",
"+ c gray48",
/* pixels */
"oXoXXX.  .XooOoOOooooX..   ..XXXXooXXXX...XoooooooXXoOO+++OOooOo",
"XoooX.. ..XXoOOo.XXoXoX.. ..XXXoooOO+OoXXX.XXoooXXXoO+++OOOoXooo",
"XXoXX.X. ..XOOooX.XXoX.... XoOoOOO++++OOoXXXoXXooXXo+O+OOooXXXoo",
"XooX.XX.. .XoOoX....XXXX..XoooOO+++OOOOoXXXXXXooXX.XOOOOoOooXXXo",
"ooXX.X..   .XoXXoX...XX.. XoOOO+++O+oXXX...X.XXX. .XOOOOooXXX.XX",
"ooX.X.... ..XXXoooXX..XX  oOO+OOO++OooX..XX.XX.... .oOoOOooX.XXX",
"XoX..X..  . XoXoX..XXX.. .OO+O+++OoooX....XXX....   ooOOoXX..X.X",
"oX.....     XXoXXX..X... .oOO+++OOoXX....XXX......  oOOoXXXX.X..",
"X... .    ...XX.X..X  . ..ooOO+OooXX..X...X...  ... XOXXoX..X.. ",
"..... .    .XX.......    .XoooOooooX.X... .X...  . .XoOXXX.    .",
"..      ..  ...X.X....  . XooOooooooXX...  . ...    .XooX.X.  . ",
"    ..   ... .XXXoooX... .XXooOOXoooX... .  ..     .XXXX...  ...",
".. .. ..  ..XoOO+OOOooXX...XOOOoXXoX.......        ...X...    ..",
"...X..XX..XXOO++OOOooooXX...oOooXoXX. ......        ....    .X..",
"X.X.XXX..XXO+++OOooooXoXXXX.XooXXXX... ... ...     ...   ...X...",
".XXXXX.XoO++O+OooOooooXXXX...XXX.X...  ....   .   . .XX.. .XXXXX",
"XXo+OO++OOOooOOOoooXooooX......XX....   ....      XXXXooOOOooXX.",
"XO+++++++OoOooOoooXoXXo.X....XX.. . .. . .       ..XXoO+++O+OoXX",
"o+O+++O+OOOooooXXXXXX..X...XXX....          ..  .XXoO++OO++OOOXX",
"OO+++OOO+OOOooooXXoXXX.... .X......       ...  .XXoO++OO+OOoOo.X",
"oOO+OOoOOOOooXooooX......  ..... .   XOO+OX. ...XoO+++++OOoooXX.",
"OO+OOoOOOOooXXXXoXXX....    .. ..XXoO+++O+OX  ..oO+++OOOOoOoXX.X",
"OOOOoooOoOoXXXXXXX..... ..   .  XoO+++OOOOoo. .Xo++OOooOooXXX..X",
"OoOoooooooOoXX.XX.....   .  .  .oO+++OoooXooX. .OO++OOooXX.XX.Xo",
"ooOOoooXoXoXX.XXXXX... ..  . XoO+O+OOooXXoooX  XoO+OoooXXXX..XXo",
"ooOooXXXXoXX....XX......  . XO++OOOOoXXXoooXX .XX+OOooXXoX..XXoo",
"oOooooX..XX..XX.X......   .XXOO++OOoooXXXoXX. XXooOooXooXXXX.oXo",
"ooooX.XX..XX..XX.....      XOoOOOooooXoXXXXo .X.ooOoX.XoXXX.XXoX",
"ooXXXX. . X...... ....   ...oOOOooXoXXXoXXXX  ..Xooo..XXXX.. ..X",
"XooX....   . ..  .. .  .X ..OOOOoXXXXXXXXXX..  .XoXo.XXX.....  .",
".XX.X..XX..X.   ....    .X.XXOOooooXXXXX..... .XoooXX..XX..   ..",
"XXXX..XooXXX..   X... ..XXXXooOoooooXX.XX..X. ..XXoXXX..X.   .X.",
"XXoOO++OOOoXX.. ..XXXXoooXXoXOooXooXX.XXXXX... .XXXoX.......  .X",
"ooOO++OO++OoXX...XXooooXooXXoooXXXoXX..XXX....  .X.XXXX.... ..Xo",
"Oo+OO++++OOoX.X.XXoooXXXXooXooooX.X....XX....   ..X......   .Xoo",
"O++++O+OOOoooXX..oXoXXXooooooooo........XX. ..   ...... .. .XXXO",
"+OO+OooOooXoXX.. ..XXooXXooooooXX...XXXX....    .  .....  .XoXOO",
"O+OooOoooXooo.. .X..XXooXXooXooX..XXXXX...        ..  .  ...XoOO",
"OOOOOOOXXXXoXX. X.XXXoXoXoX.XoX.XXXXX.XXX..  .       . ...XooXoO",
"OooOOoooXXooX. .XXXXXXoXXX.XoXXXX.X..XXX. ..  ...     ..XXooXXOo",
"OOooooXXooX...  .XXXXXXX....XXXX. ..X.X.    ..XoO++X...X.XXooooo",
"OoOoXXXooX..XX   .XX.XXXX...XX.X..  .X.. . .XoOO++OoX.XXoXoooooo",
"oooooXoXX..XX.. .  .XX.X.X. .XX..    .. .XXo+O++OooOXX.oXooooXoo",
"ooXXooXXXXX.....  ..X .....  .XXX...   .XoO+++OOooXoX. XooXXooXo",
"OXoXX..XX..X...    ...  . . .X..X..   .Xo++OOooooXoX.  .XXoXoXXo",
"oOooXX..XX.... ..   ...  .  ...X.. .. .o++OOoOoXXXXXX  .XXXXXXXX",
"oooXXoXX....  ..             ..XooXXX..O+OooXoooXXXXX.  .XXXX.XX",
"XoX..XXXX..X.   .   ..     .XXoOOOooXX.OOooXXX.XoXXX... ..X.XX.X",
"XXoXX..XXXX...    ...    .XO+OOO++OooX.oOoXoX.XXXX.X .  ...XX...",
"XXXX..XXXXXX.      . .  .XO+O++++OoOXo.XooXX.....XX..  ..X.XX..X",
".XX.. .XXX.... .. ...   X++++++OOOOoooX.oXX.. ..X...   ..XXXX.X.",
" .XX .X.X.. ..X.X...   .XO++++OOOooooooX.X.XX. .. .   . X.XX....",
".  .  ...  ....XXXXXX. XO+++O+OOooOoooXX..  ..  ..   ....X.. .. ",
"        ..   ...XXooXX.o++OOOOoOOOoooXX....    .      .......   ",
".. . .      ..XoooOooX.o+O+OooOOOooXoooX.X          .....X.    .",
".X.X.     .XXooOO+OOXo.X+OOOOoooooXXXoXoX...         ..XX.  ... ",
"XXX.    ..XoooO++++OOoXXO+OoooooXXXXoooXXX.. ..     ....XX.XXXXX",
"oOXX. .. ..XoO+++O++OOXXoOoooooXoXXooXXoX....      ..XXXXXXooXXo",
"OoOoX. ..XXoOO+OOO+OOooXXOoXoooXXX.XXoXX..      .XooXXXoXXooXoOO",
"OOOOX.  XXooO+OOO+OOoooXXoooXXXoX..XoXX....  ..XXXXooXooooXo++O+",
"OOXo.X   .XO++OooOOooXo.XoXooX.X.....X..    .XXXoXooooooO+++O++O",
"OooXXX. .XXo+OooOOOoXoX..XXXooXXX...X.     ...XoooXXooOO+O+OOO+O",
"oOXXXX.  .XXOOoooOoX.X.. ..XXXX...  .   . ..XXoXXXXooOOOO+OOOoOo",
"oooXoX..  XoOoooooooX..   ..X.XX...  ......XooooXXooO+O++OOOOOoo"
};
