/* XPM */
static const char *command_block_conditional[] = {
/* columns rows colors chars-per-pixel */
"64 256 31 1 ",
"  c #403420",
". c #543C24",
"X c #6F492B",
"o c #822523",
"O c #A42E2B",
"+ c #CD3A36",
"@ c #9B6C32",
"# c #A66030",
"$ c #BB6D3A",
"% c #864341",
"& c #A84B49",
"* c #A85451",
"= c #AC6967",
"- c #C85452",
"; c #C77E4F",
": c #F3605C",
"> c #CE7A77",
", c #C2873E",
"< c #CE8F66",
"1 c #E8AD64",
"2 c #777480",
"3 c #918F99",
"4 c #9F9DA7",
"5 c #A8A5AF",
"6 c #B3B0B9",
"7 c #CFA68B",
"8 c #D7B49D",
"9 c #C5C2CD",
"0 c #CDCAD5",
"q c #D2CFDA",
"w c #D5D2DD",
/* pixels */
";;;;;;;;;;;;;;<##<;;;;;;;;;;;;;;;;;;;;;;;;;;;;<##<;;;;;;;;;;;;;;",
";;;;;;;;;;;;;<#88#<;;;;;;;;;;;;;;;;;;;;;;;;;;<#88#<;;;;;;;;;;;;;",
";;;;;;;;;;;;<#8778#<;;;;;;;;;;;;;;;;;;;;;;;;<#8778#<;;;;;;;;;;;;",
";;;;;;;;;;;<#877778#<;;;;;;;;;;;;;;;;;;;;;;<#877778#<;;;;;;;;;;;",
";;;;;;;;;;<#87777778#<;;;;;;;;;;;;;;;;;;;;<#87777778#<;;;;;;;;;;",
";;;;;;;;;<#8777777778#<;;;;;;;;;;;;;;;;;;<#8777777778#<;;;;;;;;;",
";;;;;;;;<#877777777778#<;;;;;;;;;;;;;;;;<#877777777778#<;;;;;;;;",
";;;;;;;<#87777777777778#<;;;;;;;;;;;;;;<#87777777777778#<;;;;;;;",
";;;;;;<#8777777777777778#<;;;;;..;;;;;<#8777777777777778#<;;;;;;",
";;;;;<#877777777777777778#<;;;.q0.;;;<#877777777777777778#<;;;;;",
";;;;<#87777777777777777778#<; q660 ;<#87777777777777777778#<;;;;",
";;;<#8777777777777777777778#Xw66660X#8777777777777777777778#<;;;",
";;<#8777777777777777777777<Xw6666660X<7777777777777777777778#<;;",
";<#8777777777777777777777<Xw666666660X<7777777777777777777778#<;",
"<#8777777777777777777777<Xw66666666660X<7777777777777777777778#<",
"#8777777777777777777777<Xw6666666666660X<7777777777777777777778#",
"#<77777777777777777777<Xw666666666666669X<77777777777777777777<#",
"$#<777777777777777777<Xw66666666666666669X<777777777777777777<#$",
";$#<7777777777777777<Xw6666666666666666669X<7777777777777777<#$;",
";;$#<77777777777777<Xw666666666666666666669X<77777777777777<#$;;",
";;;$#<777777777777<Xw66666666666666666666669X<777777777777<#$;;;",
";;;;$#<7777777777<Xw6666666666666666666666669X<7777777777<#$;;;;",
";;;;;$#<77777777<Xw66666666666oooo666666666665X<77777777<#$;;;;;",
";;;;;;$#<777777<Xw666666666666oooo6666666666665X<777777<#$;;;;;;",
";;;;;;;$#<7777<Xw6666666666666oooo66666666666664X<7777<#$;;;;;;;",
";;;;;;;;$#<77<Xw66666666666666oooo666666666666664X<77<#$;;;;;;;;",
";;;;;;;;;$#<<Xw66666666666666666666666666666666663X<<#$;;;;;;;;;",
";;;;;;;;;;$#<Xq66666666666666666666666666666666662X<#$;;;;;;;;;;",
";;;;;;;;;;;$#Xq66666666666666666666666666666666662.#$;;;;;;;;;;;",
";;;;;;;;;;;;$ q66666666666666666666666666666666662 $;;;;;;;;;;;;",
";;;;;;;;;;;;;.q6666666,,,,6666>>>>6666::::66666662.;;;;;;;;;;;;;",
";;;;;;;;;;;;;.q6666666,,,,6666>>>>6666::::66666662.;;;;;;;;;;;;;",
";;;;;;;;;;;;;.06666666,,,,6666>>>>6666::::66666662.;;;;;;;;;;;;;",
";;;;;;;;;;;;;.06666666,,,,6666>>>>6666::::66666662.;;;;;;;;;;;;;",
";;;;;;;;;;;;< 066666666666666666666666666666666662 <;;;;;;;;;;;;",
";;;;;;;;;;;<#X066666666666666666666666666666666662X#<;;;;;;;;;;;",
";;;;;;;;;;<#8X066666666666666666666666666666666662X8#<;;;;;;;;;;",
";;;;;;;;;<#87X066666666666666666666666666666666662X78#<;;;;;;;;;",
";;;;;;;;<#877X966666666666666666666666666666666662X778#<;;;;;;;;",
";;;;;;;<#8777X966666666666666666666666666666666662X7778#<;;;;;;;",
";;;;;;<#87777X966666666666666666666666666666666662X77778#<;;;;;;",
";;;;;<#877777X9666666666666222223333w6666666666662X777778#<;;;;;",
";;;;<#8777777X9666666666662 ........ w666666666662X7777778#<;;;;",
";;;<#87777777X966666666662X#$$$$$$$$#Xw66666666662X77777778#<;;;",
";;<#877777777X96666666662X<8#$$$$$$#8<Xw6666666662X777777778#<;;",
";<#8777777777X9666666662X<778#$$$$#877<Xw666666662X7777777778#<;",
"<#87777777777X966666662X<77778#$$#87777<Xw66666662X77777777778#<",
"#877777777777X96666662X<7777778##8777777<Xw6666662X777777777778#",
"#777777777777X9666662X<7777777<##<7777777<Xw666662X777777777777#",
"$#77777777777X633332X<7777777<#$$#<7777777<X933332X77777777777#$",
";$#7777777777<XXXXXX<7777777<#$;;$#<7777777<XXXXXX<7777777777#$;",
";;$#7777777777<<<<<<7777777<#$;;;;$#<7777777<<<<<<7777777777#$;;",
";;;$#777777777777777777777<#$;;;;;;$#<777777777777777777777#$;;;",
";;;;$#7777777777777777777<#$;;;;;;;;$#<7777777777777777777#$;;;;",
";;;;;$#77777777777777777<#$;;;;;;;;;;$#<77777777777777777#$;;;;;",
";;;;;;$#777777777777777<#$;;;;;;;;;;;;$#<777777777777777#$;;;;;;",
";;;;;;;$#7777777777777<#$;;;;;;;;;;;;;;$#<7777777777777#$;;;;;;;",
";;;;;;;;$#77777777777<#$;;;;;;;;;;;;;;;;$#<77777777777#$;;;;;;;;",
";;;;;;;;;$#777777777<#$;;;;;;;;;;;;;;;;;;$#<777777777#$;;;;;;;;;",
";;;;;;;;;;$#7777777<#$;;;;;;;;;;;;;;;;;;;;$#<7777777#$;;;;;;;;;;",
";;;;;;;;;;;$#77777<#$;;;;;;;;;;;;;;;;;;;;;;$#<77777#$;;;;;;;;;;;",
";;;;;;;;;;;;$#777<#$;;;;;;;;;;;;;;;;;;;;;;;;$#<777#$;;;;;;;;;;;;",
";;;;;;;;;;;;;$#<<#$;;;;;;;;;;;;;;;;;;;;;;;;;;$#<<#$;;;;;;;;;;;;;",
";;;;;;;;;;;;;;$##$;;;;;;;;;;;;;;;;;;;;;;;;;;;;$##$;;;;;;;;;;;;;;",
";;;;;;;;;;;;;;<##<;;;;;;;;;;;;;;;;;;;;;;;;;;;;<##<;;;;;;;;;;;;;;",
";;;;;;;;;;;;;<#88#<;;;;;;;;;;;;;;;;;;;;;;;;;;<#88#<;;;;;;;;;;;;;",
";;;;;;;;;;;;<#8778#<;;;;;;;;;;;;;;;;;;;;;;;;<#8778#<;;;;;;;;;;;;",
";;;;;;;;;;;<#877778#<;;;;;;;;;;;;;;;;;;;;;;<#877778#<;;;;;;;;;;;",
";;;;;;;;;;<#87777778#<;;;;;;;;;;;;;;;;;;;;<#87777778#<;;;;;;;;;;",
";;;;;;;;;<#8777777778#<;;;;;;;;;;;;;;;;;;<#8777777778#<;;;;;;;;;",
";;;;;;;;<#877777777778#<;;;;;;;;;;;;;;;;<#877777777778#<;;;;;;;;",
";;;;;;;<#87777777777778#<;;;;;;;;;;;;;;<#87777777777778#<;;;;;;;",
";;;;;;<#8777777777777778#<;;;;;..;;;;;<#8777777777777778#<;;;;;;",
";;;;;<#877777777777777778#<;;;.q0.;;;<#877777777777777778#<;;;;;",
";;;;<#87777777777777777778#<; q660 ;<#87777777777777777778#<;;;;",
";;;<#8777777777777777777778#Xw66660X#8777777777777777777778#<;;;",
";;<#8777777777777777777777<Xw6666660X<7777777777777777777778#<;;",
";<#8777777777777777777777<Xw666666660X<7777777777777777777778#<;",
"<#8777777777777777777777<Xw66666666660X<7777777777777777777778#<",
"#8777777777777777777777<Xw6666666666660X<7777777777777777777778#",
"#<77777777777777777777<Xw666666666666669X<77777777777777777777<#",
"$#<777777777777777777<Xw66666666666666669X<777777777777777777<#$",
";$#<7777777777777777<Xw6666666666666666669X<7777777777777777<#$;",
";;$#<77777777777777<Xw666666666666666666669X<77777777777777<#$;;",
";;;$#<777777777777<Xw66666666666666666666669X<777777777777<#$;;;",
";;;;$#<7777777777<Xw6666666666666666666666669X<7777777777<#$;;;;",
";;;;;$#<77777777<Xw66666666666&&&&666666666665X<77777777<#$;;;;;",
";;;;;;$#<777777<Xw666666666666&&&&6666666666665X<777777<#$;;;;;;",
";;;;;;;$#<7777<Xw6666666666666&&&&66666666666664X<7777<#$;;;;;;;",
";;;;;;;;$#<77<Xw66666666666666&&&&666666666666664X<77<#$;;;;;;;;",
";;;;;;;;;$#<<Xw66666666666666666666666666666666663X<<#$;;;;;;;;;",
";;;;;;;;;;$#<Xq66666666666666666666666666666666662X<#$;;;;;;;;;;",
";;;;;;;;;;;$#Xq66666666666666666666666666666666662.#$;;;;;;;;;;;",
";;;;;;;;;;;;$ q66666666666666666666666666666666662 $;;;;;;;;;;;;",
";;;;;;;;;;;;;.q6666666@@@@6666****6666++++66666662.;;;;;;;;;;;;;",
";;;;;;;;;;;;;.q6666666@@@@6666****6666++++66666662.;;;;;;;;;;;;;",
";;;;;;;;;;;;;.06666666@@@@6666****6666++++66666662.;;;;;;;;;;;;;",
";;;;;;;;;;;;;.06666666@@@@6666****6666++++66666662.;;;;;;;;;;;;;",
";;;;;;;;;;;;< 066666666666666666666666666666666662 <;;;;;;;;;;;;",
";;;;;;;;;;;<#X066666666666666666666666666666666662X#<;;;;;;;;;;;",
";;;;;;;;;;<#8X066666666666666666666666666666666662X8#<;;;;;;;;;;",
";;;;;;;;;<#87X066666666666666666666666666666666662X78#<;;;;;;;;;",
";;;;;;;;<#877X966666666666666666666666666666666662X778#<;;;;;;;;",
";;;;;;;<#8777X966666666666666666666666666666666662X7778#<;;;;;;;",
";;;;;;<#87777X966666666666666666666666666666666662X77778#<;;;;;;",
";;;;;<#877777X9666666666666222223333w6666666666662X777778#<;;;;;",
";;;;<#8777777X9666666666662 ........ w666666666662X7777778#<;;;;",
";;;<#87777777X966666666662X#$$$$$$$$#Xw66666666662X77777778#<;;;",
";;<#877777777X96666666662X<8#$$$$$$#8<Xw6666666662X777777778#<;;",
";<#8777777777X9666666662X<778#$$$$#877<Xw666666662X7777777778#<;",
"<#87777777777X966666662X<77778#$$#87777<Xw66666662X77777777778#<",
"#877777777777X96666662X<7777778##8777777<Xw6666662X777777777778#",
"#777777777777X9666662X<7777777<##<7777777<Xw666662X777777777777#",
"$#77777777777X633332X<7777777<#$$#<7777777<X933332X77777777777#$",
";$#7777777777<XXXXXX<7777777<#$;;$#<7777777<XXXXXX<7777777777#$;",
";;$#7777777777<<<<<<7777777<#$;;;;$#<7777777<<<<<<7777777777#$;;",
";;;$#777777777777777777777<#$;;;;;;$#<777777777777777777777#$;;;",
";;;;$#7777777777777777777<#$;;;;;;;;$#<7777777777777777777#$;;;;",
";;;;;$#77777777777777777<#$;;;;;;;;;;$#<77777777777777777#$;;;;;",
";;;;;;$#777777777777777<#$;;;;;;;;;;;;$#<777777777777777#$;;;;;;",
";;;;;;;$#7777777777777<#$;;;;;;;;;;;;;;$#<7777777777777#$;;;;;;;",
";;;;;;;;$#77777777777<#$;;;;;;;;;;;;;;;;$#<77777777777#$;;;;;;;;",
";;;;;;;;;$#777777777<#$;;;;;;;;;;;;;;;;;;$#<777777777#$;;;;;;;;;",
";;;;;;;;;;$#7777777<#$;;;;;;;;;;;;;;;;;;;;$#<7777777#$;;;;;;;;;;",
";;;;;;;;;;;$#77777<#$;;;;;;;;;;;;;;;;;;;;;;$#<77777#$;;;;;;;;;;;",
";;;;;;;;;;;;$#777<#$;;;;;;;;;;;;;;;;;;;;;;;;$#<777#$;;;;;;;;;;;;",
";;;;;;;;;;;;;$#<<#$;;;;;;;;;;;;;;;;;;;;;;;;;;$#<<#$;;;;;;;;;;;;;",
";;;;;;;;;;;;;;$##$;;;;;;;;;;;;;;;;;;;;;;;;;;;;$##$;;;;;;;;;;;;;;",
";;;;;;;;;;;;;;<##<;;;;;;;;;;;;;;;;;;;;;;;;;;;;<##<;;;;;;;;;;;;;;",
";;;;;;;;;;;;;<#88#<;;;;;;;;;;;;;;;;;;;;;;;;;;<#88#<;;;;;;;;;;;;;",
";;;;;;;;;;;;<#8778#<;;;;;;;;;;;;;;;;;;;;;;;;<#8778#<;;;;;;;;;;;;",
";;;;;;;;;;;<#877778#<;;;;;;;;;;;;;;;;;;;;;;<#877778#<;;;;;;;;;;;",
";;;;;;;;;;<#87777778#<;;;;;;;;;;;;;;;;;;;;<#87777778#<;;;;;;;;;;",
";;;;;;;;;<#8777777778#<;;;;;;;;;;;;;;;;;;<#8777777778#<;;;;;;;;;",
";;;;;;;;<#877777777778#<;;;;;;;;;;;;;;;;<#877777777778#<;;;;;;;;",
";;;;;;;<#87777777777778#<;;;;;;;;;;;;;;<#87777777777778#<;;;;;;;",
";;;;;;<#8777777777777778#<;;;;;..;;;;;<#8777777777777778#<;;;;;;",
";;;;;<#877777777777777778#<;;;.q0.;;;<#877777777777777778#<;;;;;",
";;;;<#87777777777777777778#<; q660 ;<#87777777777777777778#<;;;;",
";;;<#8777777777777777777778#Xw66660X#8777777777777777777778#<;;;",
";;<#8777777777777777777777<Xw6666660X<7777777777777777777778#<;;",
";<#8777777777777777777777<Xw666666660X<7777777777777777777778#<;",
"<#8777777777777777777777<Xw66666666660X<7777777777777777777778#<",
"#8777777777777777777777<Xw6666666666660X<7777777777777777777778#",
"#<77777777777777777777<Xw666666666666669X<77777777777777777777<#",
"$#<777777777777777777<Xw66666666666666669X<777777777777777777<#$",
";$#<7777777777777777<Xw6666666666666666669X<7777777777777777<#$;",
";;$#<77777777777777<Xw666666666666666666669X<77777777777777<#$;;",
";;;$#<777777777777<Xw66666666666666666666669X<777777777777<#$;;;",
";;;;$#<7777777777<Xw6666666666666666666666669X<7777777777<#$;;;;",
";;;;;$#<77777777<Xw66666666666----666666666665X<77777777<#$;;;;;",
";;;;;;$#<777777<Xw666666666666----6666666666665X<777777<#$;;;;;;",
";;;;;;;$#<7777<Xw6666666666666----66666666666664X<7777<#$;;;;;;;",
";;;;;;;;$#<77<Xw66666666666666----666666666666664X<77<#$;;;;;;;;",
";;;;;;;;;$#<<Xw66666666666666666666666666666666663X<<#$;;;;;;;;;",
";;;;;;;;;;$#<Xq66666666666666666666666666666666662X<#$;;;;;;;;;;",
";;;;;;;;;;;$#Xq66666666666666666666666666666666662.#$;;;;;;;;;;;",
";;;;;;;;;;;;$ q66666666666666666666666666666666662 $;;;;;;;;;;;;",
";;;;;;;;;;;;;.q666666611116666%%%%6666OOOO66666662.;;;;;;;;;;;;;",
";;;;;;;;;;;;;.q666666611116666%%%%6666OOOO66666662.;;;;;;;;;;;;;",
";;;;;;;;;;;;;.0666666611116666%%%%6666OOOO66666662.;;;;;;;;;;;;;",
";;;;;;;;;;;;;.0666666611116666%%%%6666OOOO66666662.;;;;;;;;;;;;;",
";;;;;;;;;;;;< 066666666666666666666666666666666662 <;;;;;;;;;;;;",
";;;;;;;;;;;<#X066666666666666666666666666666666662X#<;;;;;;;;;;;",
";;;;;;;;;;<#8X066666666666666666666666666666666662X8#<;;;;;;;;;;",
";;;;;;;;;<#87X066666666666666666666666666666666662X78#<;;;;;;;;;",
";;;;;;;;<#877X966666666666666666666666666666666662X778#<;;;;;;;;",
";;;;;;;<#8777X966666666666666666666666666666666662X7778#<;;;;;;;",
";;;;;;<#87777X966666666666666666666666666666666662X77778#<;;;;;;",
";;;;;<#877777X9666666666666222223333w6666666666662X777778#<;;;;;",
";;;;<#8777777X9666666666662 ........ w666666666662X7777778#<;;;;",
";;;<#87777777X966666666662X#$$$$$$$$#Xw66666666662X77777778#<;;;",
";;<#877777777X96666666662X<8#$$$$$$#8<Xw6666666662X777777778#<;;",
";<#8777777777X9666666662X<778#$$$$#877<Xw666666662X7777777778#<;",
"<#87777777777X966666662X<77778#$$#87777<Xw66666662X77777777778#<",
"#877777777777X96666662X<7777778##8777777<Xw6666662X777777777778#",
"#777777777777X9666662X<7777777<##<7777777<Xw666662X777777777777#",
"$#77777777777X633332X<7777777<#$$#<7777777<X933332X77777777777#$",
";$#7777777777<XXXXXX<7777777<#$;;$#<7777777<XXXXXX<7777777777#$;",
";;$#7777777777<<<<<<7777777<#$;;;;$#<7777777<<<<<<7777777777#$;;",
";;;$#777777777777777777777<#$;;;;;;$#<777777777777777777777#$;;;",
";;;;$#7777777777777777777<#$;;;;;;;;$#<7777777777777777777#$;;;;",
";;;;;$#77777777777777777<#$;;;;;;;;;;$#<77777777777777777#$;;;;;",
";;;;;;$#777777777777777<#$;;;;;;;;;;;;$#<777777777777777#$;;;;;;",
";;;;;;;$#7777777777777<#$;;;;;;;;;;;;;;$#<7777777777777#$;;;;;;;",
";;;;;;;;$#77777777777<#$;;;;;;;;;;;;;;;;$#<77777777777#$;;;;;;;;",
";;;;;;;;;$#777777777<#$;;;;;;;;;;;;;;;;;;$#<777777777#$;;;;;;;;;",
";;;;;;;;;;$#7777777<#$;;;;;;;;;;;;;;;;;;;;$#<7777777#$;;;;;;;;;;",
";;;;;;;;;;;$#77777<#$;;;;;;;;;;;;;;;;;;;;;;$#<77777#$;;;;;;;;;;;",
";;;;;;;;;;;;$#777<#$;;;;;;;;;;;;;;;;;;;;;;;;$#<777#$;;;;;;;;;;;;",
";;;;;;;;;;;;;$#<<#$;;;;;;;;;;;;;;;;;;;;;;;;;;$#<<#$;;;;;;;;;;;;;",
";;;;;;;;;;;;;;$##$;;;;;;;;;;;;;;;;;;;;;;;;;;;;$##$;;;;;;;;;;;;;;",
";;;;;;;;;;;;;;<##<;;;;;;;;;;;;;;;;;;;;;;;;;;;;<##<;;;;;;;;;;;;;;",
";;;;;;;;;;;;;<#88#<;;;;;;;;;;;;;;;;;;;;;;;;;;<#88#<;;;;;;;;;;;;;",
";;;;;;;;;;;;<#8778#<;;;;;;;;;;;;;;;;;;;;;;;;<#8778#<;;;;;;;;;;;;",
";;;;;;;;;;;<#877778#<;;;;;;;;;;;;;;;;;;;;;;<#877778#<;;;;;;;;;;;",
";;;;;;;;;;<#87777778#<;;;;;;;;;;;;;;;;;;;;<#87777778#<;;;;;;;;;;",
";;;;;;;;;<#8777777778#<;;;;;;;;;;;;;;;;;;<#8777777778#<;;;;;;;;;",
";;;;;;;;<#877777777778#<;;;;;;;;;;;;;;;;<#877777777778#<;;;;;;;;",
";;;;;;;<#87777777777778#<;;;;;;;;;;;;;;<#87777777777778#<;;;;;;;",
";;;;;;<#8777777777777778#<;;;;;..;;;;;<#8777777777777778#<;;;;;;",
";;;;;<#877777777777777778#<;;;.q0.;;;<#877777777777777778#<;;;;;",
";;;;<#87777777777777777778#<; q660 ;<#87777777777777777778#<;;;;",
";;;<#8777777777777777777778#Xw66660X#8777777777777777777778#<;;;",
";;<#8777777777777777777777<Xw6666660X<7777777777777777777778#<;;",
";<#8777777777777777777777<Xw666666660X<7777777777777777777778#<;",
"<#8777777777777777777777<Xw66666666660X<7777777777777777777778#<",
"#8777777777777777777777<Xw6666666666660X<7777777777777777777778#",
"#<77777777777777777777<Xw666666666666669X<77777777777777777777<#",
"$#<777777777777777777<Xw66666666666666669X<777777777777777777<#$",
";$#<7777777777777777<Xw6666666666666666669X<7777777777777777<#$;",
";;$#<77777777777777<Xw666666666666666666669X<77777777777777<#$;;",
";;;$#<777777777777<Xw66666666666666666666669X<777777777777<#$;;;",
";;;;$#<7777777777<Xw6666666666666666666666669X<7777777777<#$;;;;",
";;;;;$#<77777777<Xw66666666666&&&&666666666665X<77777777<#$;;;;;",
";;;;;;$#<777777<Xw666666666666&&&&6666666666665X<777777<#$;;;;;;",
";;;;;;;$#<7777<Xw6666666666666&&&&66666666666664X<7777<#$;;;;;;;",
";;;;;;;;$#<77<Xw66666666666666&&&&666666666666664X<77<#$;;;;;;;;",
";;;;;;;;;$#<<Xw66666666666666666666666666666666663X<<#$;;;;;;;;;",
";;;;;;;;;;$#<Xq66666666666666666666666666666666662X<#$;;;;;;;;;;",
";;;;;;;;;;;$#Xq66666666666666666666666666666666662.#$;;;;;;;;;;;",
";;;;;;;;;;;;$ q66666666666666666666666666666666662 $;;;;;;;;;;;;",
";;;;;;;;;;;;;.q6666666,,,,6666====6666++++66666662.;;;;;;;;;;;;;",
";;;;;;;;;;;;;.q6666666,,,,6666====6666++++66666662.;;;;;;;;;;;;;",
";;;;;;;;;;;;;.06666666,,,,6666====6666++++66666662.;;;;;;;;;;;;;",
";;;;;;;;;;;;;.06666666,,,,6666====6666++++66666662.;;;;;;;;;;;;;",
";;;;;;;;;;;;< 066666666666666666666666666666666662 <;;;;;;;;;;;;",
";;;;;;;;;;;<#X066666666666666666666666666666666662X#<;;;;;;;;;;;",
";;;;;;;;;;<#8X066666666666666666666666666666666662X8#<;;;;;;;;;;",
";;;;;;;;;<#87X066666666666666666666666666666666662X78#<;;;;;;;;;",
";;;;;;;;<#877X966666666666666666666666666666666662X778#<;;;;;;;;",
";;;;;;;<#8777X966666666666666666666666666666666662X7778#<;;;;;;;",
";;;;;;<#87777X966666666666666666666666666666666662X77778#<;;;;;;",
";;;;;<#877777X9666666666666222223333w6666666666662X777778#<;;;;;",
";;;;<#8777777X9666666666662 ........ w666666666662X7777778#<;;;;",
";;;<#87777777X966666666662X#$$$$$$$$#Xw66666666662X77777778#<;;;",
";;<#877777777X96666666662X<8#$$$$$$#8<Xw6666666662X777777778#<;;",
";<#8777777777X9666666662X<778#$$$$#877<Xw666666662X7777777778#<;",
"<#87777777777X966666662X<77778#$$#87777<Xw66666662X77777777778#<",
"#877777777777X96666662X<7777778##8777777<Xw6666662X777777777778#",
"#777777777777X9666662X<7777777<##<7777777<Xw666662X777777777777#",
"$#77777777777X633332X<7777777<#$$#<7777777<X933332X77777777777#$",
";$#7777777777<XXXXXX<7777777<#$;;$#<7777777<XXXXXX<7777777777#$;",
";;$#7777777777<<<<<<7777777<#$;;;;$#<7777777<<<<<<7777777777#$;;",
";;;$#777777777777777777777<#$;;;;;;$#<777777777777777777777#$;;;",
";;;;$#7777777777777777777<#$;;;;;;;;$#<7777777777777777777#$;;;;",
";;;;;$#77777777777777777<#$;;;;;;;;;;$#<77777777777777777#$;;;;;",
";;;;;;$#777777777777777<#$;;;;;;;;;;;;$#<777777777777777#$;;;;;;",
";;;;;;;$#7777777777777<#$;;;;;;;;;;;;;;$#<7777777777777#$;;;;;;;",
";;;;;;;;$#77777777777<#$;;;;;;;;;;;;;;;;$#<77777777777#$;;;;;;;;",
";;;;;;;;;$#777777777<#$;;;;;;;;;;;;;;;;;;$#<777777777#$;;;;;;;;;",
";;;;;;;;;;$#7777777<#$;;;;;;;;;;;;;;;;;;;;$#<7777777#$;;;;;;;;;;",
";;;;;;;;;;;$#77777<#$;;;;;;;;;;;;;;;;;;;;;;$#<77777#$;;;;;;;;;;;",
";;;;;;;;;;;;$#777<#$;;;;;;;;;;;;;;;;;;;;;;;;$#<777#$;;;;;;;;;;;;",
";;;;;;;;;;;;;$#<<#$;;;;;;;;;;;;;;;;;;;;;;;;;;$#<<#$;;;;;;;;;;;;;",
";;;;;;;;;;;;;;$##$;;;;;;;;;;;;;;;;;;;;;;;;;;;;$##$;;;;;;;;;;;;;;"
};
