/* XPM */
static const char *comparator_on[] = {
/* columns rows colors chars-per-pixel */
"64 64 15 1 ",
"  c gray47",
". c #7B7D7B",
"X c #B10002",
"o c #D70304",
"O c red",
"+ c #F1756F",
"@ c #8B8D8B",
"# c #ACAAAC",
"$ c #BBBBBB",
"% c #EB9E95",
"& c #C5B8A9",
"* c #D3C7B9",
"= c #DDCBBE",
"- c #C5CAC5",
"; c #D5D8D5",
/* pixels */
"..@@@@@@@@@@@@...@@@......@@@@@@.....@......@@@@@@@@@@@@@@@@@@@@",
".@@@@@@@@@@@@@@@@@@@@@@@@@@@@@@@@@@@@@@@@@@@@@@@@@@@@@@@@@@@@@@@",
".@$$$$###$$$$$$$$$$####$$$$$$$$$$$$####$$$$$---$$$$$---$$$$$$$@@",
".@$$##$$##$$$$$$##########$$$$$$$$$$####$$#$$---$$---$$---$$#$@@",
".@$####$$$$$$$##$$$$##$$####$$$$$$##$$---$$##$$$---$$$--$##$$#@@",
".@#$$###$$$$#####$$$$$####$$##$$###$$$$---$$$$$#$---$$$$######@@",
"@@$$$$$$$###$$$$####$$---$$$$$$$$$$$$$##$$---$$$####$$$$$$$###@.",
"@@$$$$#####$$$$#######$-----$$$$$$$$$##$$$$-----$$####$$$$###$@@",
".@#####$$$$$#$$$$$###$$$$$------$$##$$$$###$$$$---$$$$####$$$$@.",
".@$$####$$$$$##$###$$$$$$----$$$$#####$$$###$$---$$$#####$$$$$@.",
"@@$-$$$$###$$$$$--$$$$----$$$$$$$$$$$###$$$$##$$$$####$$$###$-@@",
"@@----$$$$##$$---$$$----$$$$$##$$$$$###$$$$$$##$###$$$$$###$$-@@",
"@@$$-----$$$------$$$$$--$--$$####$$$$$$$$$$####$$$$----$$$$$-@@",
"@@$$$$--$##$$-------$$$$$$$$####$$$$$$$$$$####$$$$$$$$----$$--@@",
"@@$$$##$$$$---$$$$$$---$$$###$$$$$$###$$####$$###$$$$#$$$-----@.",
"@@$$##$$---$$$$$$$$$$$--$$$###$$$$##$$$###$$$$$$#####$$$---$$-@.",
"@@##$$------$$$$$$$#$$$$$$$$$$##$$$$$$###$$$$$-$$$##$$--$$$$-$@@",
"@@#$$$$-$$$--$$$###$$$$$##$$$$$###$$$$$$##$$$$$--$$$---$##$$$$@@",
"@@###$$$$--$$$###$$$$###$$$$$#########$$$$##$$$$-----$$$$###$$@.",
"@@$#####$$$$##$$$$$$##$$$$##----------$$$$$###$$$$----$$$$###$@.",
"@@$$$$######$$$$$$##$$$$$###         @;$$$$$$$$$$$$$$$---$$$$#@.",
"@@$-$$$$$##$$$$$$##$$$$$##@.@&******=$;-$$$$$$$$##$$$$$$--$$$$@.",
"@@$$--$$$$####$$$$$##$-$$#.@&=======*=$;$$$###$$$$##$$###$-$$$@.",
"@@$$$---$$$$$###$$$$--$$$@.&=========*=;-$$$####$$$$####$$$$$$@.",
"@@##$$$$--$$$$$$$$---$$$#.&==========*=$;$$$$$####$$$$$$$##$$$@@",
"@@####$$$---$$$$---$$$$$@.&====%==%===*=;-$$$$$$$$##$$###$$$##@@",
".......#$$$-----$$$$$$$#.&======%+====*=$;$$$$$$$$$$###$$#......",
"@@@@@@@..#-$$--$$$$$$$$@.&=====++======*=;-$$##$$$$$$###..@@@@@@",
"@@@@@@....$$$$----$$$$#.&====%=========*=$;$$$###$$$$$$....@@@@@",
"@@@@@@@@@..$$$$$---$$$@.&====+==========*=;-$$$$###$$#..@@@@@@@@",
"@@@@@@@....#$$$$$$$$$#.&======%=========*=$;$$$$$$$##$....@@@@@@",
"@@@@.......###$$$$$$$@.&======+%=========*=;-$#$$$##$$.......@@@",
"@@@@@@.....$####$$#$#.&===%====+%%==%====*=$;$$###$$$$.....@@@@@",
"@@@@@@@@@.-$$$####$$@.&====%====+++%======*=;-$$####$$-.@@@@@@@@",
"@@@@@@@..-$$$$$$$$$#.&======%%++%=========*=$;$$$$###$$-..@@@@@@",
"@@.....--$$$$$$$#$$@.&=======++=======+%===*=;-##$$###$$--.....@",
"-------$$$$$$###$$#.&========+======%%=====*=$;$#####$$##$------",
"@@$##$$$$$####$$$$@.========%+====%++=======*=;-$$####$$$##$$$@@",
".@$$##$$####$$$$$#.&======%=+====++%========*=$;$$$$######$$$$@.",
"@@$$$$####$$$$$$$@.======+=%====++===========*=;-$$#####$$$$$$@.",
".@$###$$$$$$$$$$#.&==%==++=====%+===%========*=$;##$$$$$$$$##$@.",
".@##$$$$$$$###$$@.&==%%=+======+%+===%%=======*=;-$$$$$$$$$$##@.",
"@@$$$$$######$$#.&====%+======+%==+===+%======*=$;$$$$$$##$$$$@.",
"@@$$$#####$$$$$@.&==+++%=====%%%=======++======*=;-$$$$$$###$$@.",
".@$####$$$$$$$#.OOOOooOOOOOOOOOOOOOOooooXXXXXXXo#$;$$$$$$$$$##@.",
".@#$####$$##$$@.OOOOOOoOOOOOooOOOOOOOoooooooooXX##;-$$$$$$$$$#@.",
".@$$$$$$###$$#.@OOOOOOOOOOOOOOooOOOooOOOoooooooX##$;$$$$$$$###@@",
".@$##$$$$###$@.#ooOOOOOOooOOOooOOoooOOooooooXXXX###;-$$$#####$@@",
".@##$$####$$#.@#oooOOOOOOooooOOOooooooXXXooooXXX###$;$####$$$#@.",
".@$$$###$$$$@.##oOOOOOooooXXooooXXooXXXXooXXooXX####;$#$$$$###@.",
"@@$$$$$$$$$#.@##OOOOOOOooooXXXoooXXXXXoooXXXXXXX####$-$$$$$$##@@",
"@@$$##$$####.###OOOOooXXXXXXXooXXXXXXXXXXXXXXXXX###$$-$$$$$###@@",
"@@#$$#####$$$####################################$$$-$$$####$$@@",
"@@######$$$$$$##########$$$$$$$$$#####$$$$#####$$---$$###$$$$$@@",
"@@###$$--$$$$$$$$$$$$$$$$$$$$$$$$$$$$$$$$$$$$$----$$$##$$$$$$$@@",
"@@$###$$---$$$$$$$$$$$$-------------------------$$$$#$$--$$$$$@@",
"@@$$####$$$-----$$$$$$$$$$------------------$$$$----$$--$$$###@@",
"@@$$$$####$$$-----$$$$$$-----$$$$$$$$$$$$$$$$#$$$$----$$#####$@@",
"@@$--$$$$$-----$$$$$$$-----$$$$$$$$$$$$$$$$##$$$$$$$$######$$$@@",
"@@--$$$$----$$$$$$$$$$$$$$----$$$$$$$$$###$$$$$$$$#####$$#$$$$@@",
"@@----$$$$$$$$---$$$$$$$$$$$$$----$$$####$$$$#####$$##$$#####$@@",
"@@--------$$$$$$--$$$$$$$$$$$$$$----$$$$$$######$$$$$$########@@",
"@@@@@@@@@@@@@@@@@@@@@@@@@@@@@@@@@@@@@@@@@@@@@@@@@@@@@@@@@@@@@@@@",
"@@@@@@@@@@@@@@@@....@...@.@@@@@@@@@@@@@@@@@@@@@@....@.......@.@@"
};
