/* XPM */
static const char *copper_door_bottom[] = {
/* columns rows colors chars-per-pixel */
"64 64 10 1 ",
"  c gray20",
". c #4D5046",
"X c #686868",
"o c #9A5038",
"O c #A75A40",
"+ c #B26247",
"@ c #C26B4C",
"# c #C87456",
"$ c #D67B5B",
"% c #E3826C",
/* pixels */
"X.  ++@@@@@###@@oo#######$$%$$$$$$$$###$$$## ...... @@@@@@@@##++",
"X.  +@@@@@###@#@oo######$$%$$$$$$$$###$$$###  ....  @@@@@@@###++",
".   @@@@@###@#@@oo#####$$$$$$$$#%%+##$$$### .      . @@@@@####++",
"    @@@@###@#@@@Oo####$$$$$$$$#%%#@+$$$###@ ..    .. @@@@#####++",
"$$@@@@@#oooOOoOO+O###$$$$$$$$$%#@@@o$$###@@.. oooo ..OOO######++",
"%$@@@@##oooooooOO+##$$$$$$$$$$#@+@+o####@@ ..oOOOOo.. OO######++",
"%$@@@###oo#########$$$$$$$$$$$+@@+oo###@@@.. OOOOOo . OO#####@++",
"%$@@###@oo########$$$$$$$$$$$##+ooo###@@@@.. OOOOOO ..OO##@#@@++",
"%$@@##@@oo#######$$$$$$$$$$$#########@@@@ ..oOOOOOOo.. O#@#@@@++",
"%$@@#@@@oo######$$$$$$$$$$$#########@@@@@.. OoOOOOOo . O@#@@@#++",
"%$@@@@@@oo#####$$$$$$$$$$$#########@@@@@@.. oOOoOOOO . O@@@@##++",
"%$@@@@@@oo####$$$$$%$$$$$#########@@@@@@ ..oOOoOOOOOo.. @@@###++",
"%$@@@@@+oo###$$%$$%$$$$$#########@@@@@@@.. OoooOOOOOo.. @@####++",
"%$@@@@++oo##$$%$%%$$$$$#########@@@@@@@@.. oooOOOOOOo.. @#####++",
"%$@@@++@oo#$$%$$%$$$$$#########@@@@@@@@+.. ooOoOOOOOo.. #####@++",
"%$@@++@+oo$$%%$%$$$$$#########@@@@@@@@+O   OOoOOOOOOo   ####@#++",
"%$@++++@oo$%%$$$$$$$#########@@@@@@@@+OO.XXXXXXXXXXXX...###@@#++",
"%$++++@#oo%%$$$$$$$#########@@@@@@@@+OOO............... ##@@##++",
"%$+++@##oo%$%%$$$$#########@@@@@@@@+OOOo............... #@@@##++",
"%$++@###oo%%%$$$$#########@@@@@@@@+OOOoo..............  @@@###++",
"%$+@####oo%%$$$$#########@@@@@@@@+OOOooo............    @@###@+O",
"%$@#####oo%$$$$#########@@@@@@@@+OOOoooo                @###@#++",
"%$######oo$$$$#########@@@@@@@@+OOOOooOOOoooooooooooooOO#####$+O",
"%$######oo$$$#########@@@@@@@@+OOOOOoOOOOO+@@@@@@@@@++OO####$$+O",
"%$######oo$$#########@@+@@@@++OOOOOoOOOOO+@@@@@@@@@@@@+O###$$$++",
"$$#####$oo$#########@@+@@++++OOOOOoOOOOO+@@@@@@@@@@@@#++##$$$$+O",
"$$###$$#oo#########@++@+++++OOOOOoOOOOO+@@@@@@@@@@@@##+O#$$$$$+O",
"%$##$$##oo########@++@+++++OOOOOOOOOOO+@@@@@@@@@@@@###+O$$$$$$+O",
"%$#$$##$oo#######@++@+++++OOOOOOOOOOO+@@@@@@@@@@@@####++$$$$$$+o",
"%$$$##$#oo######@+++++++++OOOOOOOOOO+@@@@@@@@@@@@#####++$$$$$$Oo",
"%$$#$$#$oo#####@+++++++++OOOOOOOOOO+@@@@@@@@@@@@######++$$$$$#Oo",
"%$$$$#$$oo####@++++++++++O+OOOOOOO+@@@@@@@@@@@@#######++$$$$##oo",
"%$$$$$$#oo###@++++++++++++OO+OOOO+@@@@@@@@@@@@########++$$#$##oo",
"%$$$$$##oo##@+++++++++++++++O+OO+@@@@@@@@@@@@#########++$$$##$Oo",
"%$$$$###oo#@+++++++++O++O++OOOO+@@@@@@@@@@@@##########++#$#$$#Oo",
"%$$$####oo@+++++++++O++++O++OO+@@@@@@@@@@@@###########++$#$$##Oo",
"%$$#####oo+++++++++OO+++++OOO+@@@@@@@@@+@@############++#$$###oo",
"%$######oo++++++++OO++++++OO+@@@@@@@@@+@@#############++$$####oo",
"%$######oo+++++++++++++++OO+@@@@@@@@@@@@#############$++$#####Oo",
"$$######oo++++++++++++++OO+@@@@@@@@@@@@#############$$++######Oo",
"XXX.####oO+++++++++O+++O++@@@@@@@@@@@@#############$$$++######oo",
"X.. ####oO++++++++O+++O++@@@@@@@@@+@@#############$$$$++######oo",
"X.. ####oo++++++++++++++@@@@@@@@@+@@#############$$$$$++#####@oo",
"X.. ###+oo++O++++++++++@@@@@@@@++@@#############$$$$$$++####@@oo",
"X.  ##++oO+O+++#%%++++@@@@@@@+++@@############%%+%$$$$++###@@#oo",
"X.  #+++oO+++O#%%#@++@@@@@@@+++@@############%%#@+$$$$++##@@#@oo",
".   ++++oO++OO%#@@@o@@@@@@@+++@@############%#@@@o$$$$++#@##@#oo",
"    ++++OO+O+O#@+@+o@@@@@@+++@@##############@+@+o$$$$++######oo",
"%$++++++OO++O++@@+oo@@@@@+++@@#############$+@@+oo$$$$++######oo",
"%$++++++OO+O+O++ooo@@@@@+++@@#############$$$+ooo$$$$$++######oo",
"%$++++++OOOOOO++@@@@@@@+++@@#############$$$$$$$$$$$$#++######oo",
"$$++++++OOOOO++@@@@@@@+++@@#############$$%$$$$$$$$$##++######oo",
"%$+++++@OOOO++@@@@@@@+++@@#############$$%$$$$$$$$$###++#####@oo",
"%$+@+@@+O+O++@@@@@@@+++@@#############$$%%$$$$$$$$#####+####@#oo",
"%$@+@@+++@$%%%%%%%%%%%%%%%%%%%%%%%%$$$$%%%%%%%%%%%%%%%$####@@#oo",
"$$+@@++@@$%%%%%%%%%%%%%%%%%%%%%%%%%%%$%%%%%%%%%%%%%%%%%$##@@##oo",
"%$+@++@@@@@@@@@@@@@#@@@@@@#@#@#####$$$$$$##$#$###########@@@##oo",
"$$@++@@@@@@@@@@@@@#@#@@@@#@@@#####$$$$$$#$##$$$#########@@@###oo",
"$$++@@@@@@@@@@@@@###@@@##@@######$$$$$$#$$$$#$#########@@@####oo",
"$$++@@@@@@@@@@@@##@@@@##@@######$$$$$$#$#$$$$####$####@@@#####oo",
"$$+@@@@@@@@@@@@##@#@@##@@#@####$$$$$$#$#$$$####$$####@@@#@####oo",
"$$+@@@@@@@@@@@##@#@@@@@@#@####$$$$$$###$$$####$$####@@@#@#####oo",
"$#@++OOOOOOOOOOOOOOOOOOOoooooooooooooooooooooooooooooooooooooooo",
"#@+OOOOOOOoooOOOoooOOOoooooooooooooooooooooooooooooooooooooooooo"
};
