/* XPM */
static const char *copper_bulb_powered[] = {
/* columns rows colors chars-per-pixel */
"64 64 14 1 ",
"  c #5F3315",
". c #73411F",
"X c #8A1818",
"o c #A31818",
"O c #D92323",
"+ c #864E29",
"@ c #904931",
"# c #9A5038",
"$ c #A75A40",
"% c #B26247",
"& c #C26B4C",
"* c #C87456",
"= c #D67B5B",
"- c #E3826C",
/* pixels */
"----------==--========----==--------------------*=**==********&%",
"-===============================----------=======**==*&&&&&&&&%$",
"-=*********&&&&&***************==-------==***===**=*&&&&&&&%%%$#",
"-=********&&&&&***************==-------==***===***&&&&&&&&%%%%$#",
"-=*******&&&&&*$            *==--==-            $&&&&&&&&%%%%%$#",
"-=******&&&&&*$$..+++++++++.&&&&&*** +++++++++..#$&&&&&&%%%%%%$#",
"-=******--%&**$$.++++++++++.******** ++++++++++.##&&&*--%%%%%%$#",
"-=*****--*&%**$$.++++++++++.--==---= ++++++++++.##&&*--*&%%%%%$#",
"-=***&-*&&&#**$$.++++++++++.===---== ++++++++++.##&&-*&&&#%%%%$#",
"-=**&&*&%&%#**$$.++++++++++.==---==* ++++++++++.##&&*&%&%#%%%%$#",
"-=*&&&%&&%##**$$.++++++++++.=-====** ++++++++++.##&%%&&%##%%%%$#",
"-=&&&&&%###***$$.++++++++++.=====*** ++++++++++.##%%$%###%%%%%##",
"-=&&&&********$$.+++++++++++====***= ++++++++++.##$$%%%%%%%$%%#@",
"-=&&&*********$#.+++++++++++===***== ++++++++++.##$$$%%%%$$%%&$@",
"-=&&*$$$########.+++++++++++==***=** ++++++++++.##########$%&&$@",
"-=&*$$$#########.+++++++++++=******* ++++++++++.###########$&&$@",
"-=**            .+++++++++++******** ++++++++++.            &&$@",
"-=** ..+++++++++++++++++++++******** ++++++++++++++++++++.. &&$@",
"-=** .++++++++++++++++++++++*******& +++++++++++++++++++++. &&#@",
"-=** .++++++++++++++++++++++******&& +++++++++++++++++++++. &&#@",
"-=** .++++++++++++++++++++++*****&&& +++++++++++++++++++++. &%#@",
"-=** .++++++++++++++++++++++****&&&& +++++++++++++++++++++. %%$@",
"-=** .+++++++++++++++++++++.***&&&&& +++++++++++++++++++++. %%$@",
"-=** .+++++++++++++++++++++.**&&&&&& +++++++++++++++++++++. %&$@",
"-=** .+++++++++++++++++++++.*&&&&&&& +++++++++++++++++++++. &&$@",
"-=** .+++++++++++++++++++++.&&&&&&&& +++++++++++++++++++++. &*$@",
"-=** .+++++++++++++++++++++.%$$$$$$% +++++++++++++++++++++. **#@",
"-=** .......................$$$$$$$$ ...................... **$@",
"-=***&&--=======*********&%$OOOOOOOo=*&&&&%$$%&&&&&&&&%%&%&***$#",
"-=**=&*-==-====*********&&$$OOOOOOoX==&&&%$$%&&&&&&&&&%&&%&***##",
"-=*==&*==-====*********&&&$$OOooooXX==&%$$$%&&&&&&&&&%&&*%&***#@",
"-===-&*=--===*********&&&&$$OOooooXX==%$$$%&&&&&&&&&%&&**&&***#@",
"-==--**--===*********&&%&&$$OOooooXX==$$$%&&&&&&&&&&&&***&&***$@",
"-=---**-===*********&&%&&%$$OOooooXX==$$%&&&&&&&&&&&&****&&***$@",
"-----**-==*********&%%&%%%$$OoXXXXXX==$%&&&&&&&&&&&&*****&&***$#",
"-----**==*********&%%&%%%%%$oXXXXXXX=*%&&&&&&&&&&&&******&&***$#",
"----                        ========                        **$#",
"---- .+++++++++++++++++++++.*======* .++++++++++++++++++++..**$#",
"---- .+++++++++++++++++++++.&&&%%$$% +++++++++++++++++++++..*=$#",
"---= .+++++++++++++++++++++.&%%$$$%& +++++++++++++++++++++..==$#",
"--== .+++++++++++++++++++++.%%$$$%&& +++++++++++++++++++++..=-$#",
"-==* .+++++++++++++++++++++.%$$$%&&& +++++++++++++++++++++..--$#",
"-=** .+++++++++++++++++++++.$$$%&&&& +++++++++++++++++++++..--##",
"-=** .+++++++++++++++++++++.$$%&&&&& +++++++++++++++++++++..--##",
"-=** .+++++++++++++++++++++.$%&&&&&& +++++++++++++++++++++..--##",
"-=** .+++++++++++++++++++++.%&&&&&&& +++++++++++++++++++++..--##",
"-=** ..++++++++++++++++++++.&&&&&&&& ++++++++++++++++++++...-=$#",
"-=** ............++++++++++.&&&&&&&& ++++++++++.............==$#",
"-=**&&&&&&&&&&&%.++++++++++.&&&&&&&& ++++++++++.=-----------==$@",
"-=***&&&&&&&&&%#.++++++++++.&&&&&&%& ++++++++++.&=---------===$@",
"-=*&%%%%%%%%%%##.++++++++++.&&&&&%&& ++++++++++.&&===========*#@",
"-=&%%%%%%%%%$%##.++++++++++.&&&%%&&* ++++++++++.&&==========**$@",
"-&%%%%%*--%$%%##.++++++++++.&%%%&&** ++++++++++.&&===*--%==***$@",
"-%%%%%*--*&%%$##.++++++++++.%%%&&*** ++++++++++.&&==*--*&%****#@",
"-%%%%%-*&&&#$$##.++++++++++.%%&&**** ++++++++++.&&==-*&&&#***&#@",
"-%%%%%*&%&%#%$##.++++++++++.%&&***** ++++++++++.&&==*&%&%#**&&#@",
"-%%%%%%&&%##$%##.++++++++++.&&****** ++++++++++.&&==%&&%##*&&&##",
"-%%%%%%%###$%$##.++++++++++.%%%&&&&& +++++++++..&&===%###*&&&&##",
"-%%%%$##$$$$$$##..+++++++++.&&&&&&&& ...........&&===****&&&&*##",
"-%%%$##$#$#$$%$#            ********            &===****&&&&**$#",
"-%%$####$#$$%%&&&&&&&%%%&&*************==-=========****&&&&***$#",
"-%$#######$%%&&&&&&&%%%&&*************==--========****&&&&****$#",
"-$#######$%$$$$$$$$$$####$#$$$#####$$$$$$$$$$$$$$$$$$$#####$$$$#",
"=#@#@@##@@@@##########@@@@@@##@@@@##$$$$##$$###$###@@@##@@######"
};
