/* XPM */
static const char *crafter_bottom[] = {
/* columns rows colors chars-per-pixel */
"64 64 5 1 ",
"  c #373634",
". c gray25",
"X c #484848",
"o c #515151",
"O c #606060",
/* pixels */
"OOOOOOOOOOOOOOOOOOOOOOOOOOOOOOOOOOOOOOOOOOOOOOOOOOOOOOOOOOOOOOOO",
"OOOOOOOOOOOOOOOOOOOOOOOOOOOOOOOOOOOOOOOOOOOOOOOOOOOOOOOOOOOOOOOO",
"OO.       ......      ....XXXXXXXXXXXXXX..XX.X....           .OO",
"OO .......................................................... OO",
"OO..ooooooXXXX............................................... OO",
"OO..oXXXXXXXXXXXX............................................ OO",
"OO .XXXXXXX................XXXXXX.................oooooooooo. OO",
"OO .XXXX......................XXXXXX..........ooooooooooooo.. OO",
"OO .oooooooXX...............XXXXXX.....XXooooooooooooooo..... OO",
"OO .oOOOOOooooXXXX.......XXXXXXX........XXXooooooooooooooo... OO",
"OO .OOOOOOOOOOOOooooXXXX............XXXXXXXXXooooooooooooooo..OO",
"OO .OOOOooooooooooXXXX...........XXXXXXXXoooooooooooooooooooX.OO",
"OO .OOooooooooXXXXX.........XXXXXXooooooooooooooooooooooooooX OO",
"OO .OoooooXXX............XXXXXXXooooooooooooooooooooooooooooX OO",
"OO..OoXX..............XXXXXXXoooooooooXXXoooooooooooooooooooX.OO",
"OO.XOooooX..........XXXXXXXXXXooooooooooXXXXooooooooooooooooX.OO",
"OO.XOoooooooXX....XXXXXXX....XXXXoooooooooXXXXXoooooooooooooX.OO",
"OO.XOooooooooooXXXXXXX..........XXXXoooooooooXXXooooooooooooX.OO",
"OO.Xoooooooooooooo........XXXXXXooooooooooooooooooooooooooooXXOO",
"OO.XoooooooooooooooX........XXXXXooooooooooooooooooooooooooOX.OO",
"OOXXooooooXXXoooooooXXXX.......XXXXoooooooooooooooooooooOOOOX.OO",
"OO.XooooooooXXXXooooooXXXX........XXXXooooooooooooooOOOOOOOOXXOO",
"OO.XooooooooooooooooooooooXX............XXXXXXoooooooXXXXXoOX.OO",
"OO.XooooooooooooooooooooooooXXXX.....XXXXXXoooooXXXXXXXoooOOX.OO",
"OOXXooooooooooooooooooooXXXXXXXXXoooooooooooOOOOOOOOOOOOOOOOXXOO",
"OOXXXoooooooooooooooooooooXXXXoooooooooooooooooooooooooOOOOOXXOO",
"OOXXXXXXXooooooooooooooooooooooooooooooooooooooooooooooooOOOXXOO",
"OOXXXXXXXXXXooooooooooooooooooooooooooooooooooooooooooooooOOXXOO",
"OOXXooooooooXXXXXXXXXXooooooooooooooooooooooXXXXooooooooooOOXXOO",
"OOXXoooooooooXXXXXXXXXXXXXXXXXooooooooooooXXXXoooooooooooooOXXOO",
"OO.XoooooooXXXXoooXX........XXXXXXoooooooooooooooooooooooooOXXOO",
"OO.XooooXXXXXoooooooooXXXX.......XXXXooooooooooooooooooooooOXXOO",
"OO.XOOOOOOOOOOOOooOOooooXXXX...........XXXXooooooooooooooooOX.OO",
"OO.XOOOooooooooooooooooooooooooXX...........XXXXoooooooooooOX.OO",
"OO.XOOooooooooooooooooooooooooooooXXXXooooXXXXXXXXXXXXXXXXXoX.OO",
"OO..OOooooooooooooooooooooooooooooooooooooOOOOOOOOOOOOOOOOOO..OO",
"OO..oOoooooooooooooooooXXXXXXooooooooooooooooooooooooOOOOOOOX.OO",
"OO..oOOoooooooooooooXXXXXXooooooooooooooooooooooooooooooOOOOX.OO",
"OO .ooOOOoooooooooooooooooooooooooooooooooooooooooooooooooOOX.OO",
"OO .ooooOOOOoooooooooooooooooooooooooooooooooooooooooooooooOX.OO",
"OO .......XXXXXXoooooooooooooooooooooooooooooooooooooooooooOXXOO",
"OO ....XXXXXXXXXXXXXXXoooooooXXXXooooooXoooooooooooooooooooOXXOO",
"OO ..XXXXXooooooXXXXXXXXXXXXXXXX..XXXXXXX...XXoooooooooooooOXXOO",
"OO .XXXXXXXXXXooooXXXXXXXXXX........ooX....XXXXXoooooooooooOX.OO",
"OO..XXoooooXXXXXXXXXXX..........ooooXXXXXXooooooooooooooooooX.OO",
"OO..XXXXoooooooXXXXX......XXXXXXXoooooooooooooooooooooooooooXXOO",
"OO..XXXXXXXXooooooXXXXXXXXXXXXXXXXooooooooooooooooooooooXXXXX.OO",
"OO..XXXXXoooooooXXXXXXXXXXXXXXooooooooooooooooooooooXXXXXXXXX.OO",
"OO .XXooooooXX...XXXXXXXXXXooooooooooooooooooooooooooooooooXX.OO",
"OO .XoooooXXXXXX....XXXXXXXXXoooooooooooooooooooooooooooooooX.OO",
"OO..XooooooooXXXXXXXXXXXXXXXXXXXXooooooooooXXoooooooooooooooXXOO",
"OO..XoooooooooooXXX...XXXXXXXXXXXXXXXXooooXXXXooooooooooooooXXOO",
"OO..ooooooooooooooooXX........XXXXooooooXXooooooooooooXXXXXoX.OO",
"OO..oooooooooooooooooooooXXX....XXXoooooooooooooooXXXXXXXoooX.OO",
"OO .oooOOOooOOooooooooooooooooooooooooooooooooooooooooooooooX OO",
"OO .OOOOOoooooooooooooooooooooooooooooooooooXXXXooooooXXXXooX OO",
"OO .oooooooooooXXooooooooooooooooooOOOOooooooooooooXXoooXXXX. OO",
"OO .ooooooXXXXXXXXXXooooOOOOOOooOOOOOOOOOOOOooooooooooXXXXXX. OO",
"OO .ooXXXXXX.........XXXooooooooooooooooOOOOOOOOOOoooooooooo. OO",
"OO .ooooXXXXXXX..........XXXooXXXXoooooooooOOOOOOOOOOOOOoooo. OO",
"OO ..............................XXXXXXXXXXXXXXXXXXXXXX...... OO",
"OO.                           ..........XX.XXX....XX..       .OO",
"OOOOOOOOOOOOOOOOOOOOOOOOOOOOOOOOOOOOOOOOOOOOOOOOOOOOOOOOOOOOOOOO",
"OOOOOOOOOOOOOOOOOOOOOOOOOOOOOOOOOOOOOOOOOOOOOOOOOOOOOOOOOOOOOOOO"
};
