/* XPM */
static const char *crafting_table_front[] = {
/* columns rows colors chars-per-pixel */
"64 64 16 1 ",
"  c #19140C",
". c #281E0B",
"X c #382116",
"o c #41230E",
"O c #4B2B18",
"+ c #733920",
"@ c #67502C",
"# c #7E6237",
"$ c #967441",
"% c #9F844D",
"& c #AF8F55",
"* c #B8945F",
"= c #C29D62",
"- c gray71",
"; c #D8D8D8",
": c white",
/* pixels */
" =====*&**&&&*===XO++++++++++OOOOOO++++++++++OX===========*&&&% ",
" *****&&&&&&******XO+++++++++OOOOOO+++++++++OX**************&&% ",
" &**************&&&XO++++++++OOOOOO++++++++OX&****&*****&&&***% ",
" &&&&****&&*******&&XO+++++++OOOOOO+++++++OX&**&&&***&&&&&***&% ",
" ***&&&&&&***&&&%$$%%XO++++++OOOOOO++++++OX%&&&**&&%%&%%&%&&&&% ",
" &&***&&***&**&&&&%%%&XO+++++OOOOOO+++++OX&&&%%&***&**&%%&&&%%% ",
" &&&&&%%%%&&&%%&&&&&&&&XO++++OOOOOO++++OX***&&*&&&***&%%%%%&&%% ",
" &%%%%%%&*&&%&****&&&&%%XO+++OOOOOO+++OX**&&&*******&&&&%%%%%%% ",
" %%&&&&**&&***&&&&****&%%XO++OOOOOO++OX%&&&&&&&**&&&&%%%&&***&% ",
" %%%%%&&&&%%&***&&&&****&&XO+OOOOOO+OX%%%%&&****&&%%%%&&&&&***% ",
" *&&&&%%%&&&%%&&&***&&%%%%%XOOOOOOOOX*******&&&%%&&&&&&*****&&% ",
" &&**&&&%%%%&&&&***&&&&&%%%%XXXXXXXX&&***&&%%&&&&&&&*****&&%%&$ ",
" %&&&***&&%%%%%&&&&&%%&%%%%&&XXXXXX%&&%&&%%%&&&&&%%%&&&%%%&&%%$ ",
" %%%***&&&&&&%%%%%%%&&&&&&%%&XXXXXX&&&&%%%%%%%&&%%&&&&&&&&%%%%$ ",
" #$$$$$#$$####$#$$$$#########XXXXXX#########.oooooooooo.####### ",
" #######################@@@@@      @@#####@@............@@@@@@@ ",
" *====**&*===================OOOOOO=======*=...=**&&&...%%%&%%& ",
" ******&%%&******************XXXXXX*********..******&&..**&&&&& ",
" ****&&&&*&&&&****&&&&&&&&***XXXXXX&&&&&****..&%%&****..&&***** ",
" **********&&***&&&**&*****&*XXXXXX*&&&&&&%%.o&&*****&o.&&&**** ",
" &&&****&&&&oooo%%&&****&&&%%XXXXXX&&&&%%%&&.oo*&&%%%oo.***&&&* ",
" ***&&******oooo%%%%&*&&%%%%%XXXXXX&%%&&&%%&.ooo*&&&ooo.%%%%&** ",
" *&&&&&&&&**ooo.&&*****&&&&&&XXXXXX%%&&&%%&*..oooooooo..&&&&*** ",
" &%%&&&&***&ooo.*****&&&**&&%XXXXXX%%%&&****............&****** ",
" **&%%%%%%&&.oo.***&%%&&&&***XXXXXX&&&&****&------------%%&&&%% ",
" *&&&&&%%%%%.o..&***&&&&&****XXXXXX%%&&&&&**-;;;;;;;;;;;&&&&&&% ",
" %%%&&*&***&.o..**&&&&%%&&&&*XXXXXX&********-;;;;;;;;;;;&%%%%&& ",
" %%&&&&&&&**.o..&&%%%%&&&%%**XXXXXX%&&*******;;;;;;;;;;;&&%%%%% ",
" &%%%%%&&*&&.o..&%%%%&&&&&%%&XXXXXX&&&&&&&&&&:;;;;;;;;;;%%&&&%% ",
" &&&&%%%%%&&.o..&&&&%%%&%%%%%XXXXXX%%%&&%%&%%:;;;;;;;;;;&&&&%%& ",
" ###########.o..$$$$$$#######XXXXXX##########:;;;;;;;;;;$$$$### ",
" @@@@@@@##@@....########@@##@      @@@@@@@#@@#:;;;;;;;;;#####@@ ",
" =========*=....&&&&&&**=====OOOOOO===========:;;;;;;;;;*****&% ",
" &**********....**&&&&&&&****XXXXXX**********&:;;;;;;;;;****&&% ",
" &&%%&&*****....&&***********XXXXXX*&&&**&&***&:;;;;;;;;&&&&**% ",
" %%%&&****&&....*******&&&&**XXXXXX**&&&&&%%%&&:;;;;;;;;%%%&&&% ",
" &&***&&-;;;;;;;;;;;&***&%%&*XXXXXX&&&*****&%%&:;;;;;;;;&%%%%%$ ",
" ****&&&-;;;;;;;;;;;%&&&&&***XXXXXX*&&&*****&**&;;;;;;;;%%%%&&$ ",
" &&&****-;;;;;;;;;;;&%%%%&&&&XXXXXX&*****&&&&&&*:;;;;;;;&&****$ ",
" &**&&**-;;;;;;;;;;;%%%%%%%%&XXXXXX&&&****&&%%&&:;;;;;;;******% ",
" %&&&&&&-;;;;;;;;;;:%%&&&&&**XXXXXX&&&%%&&**&%%%%;;;;;;;%%&***% ",
" %%%&&*&-;;;;;;;;;;:*&&&****&XXXXXX%%%%&&&&***&&&:;;;;;;&&&&**% ",
" **&%%%*--;;;;;;;;::&&**&&%%%XXXXXX&&&&&&****&&%%&;;;;;;******% ",
" *&&&%%%----;;::::::%&&%%&&%%XXXXXX%&&**********&%:;;;;;&&&***% ",
" &%%%%&**&&%%&&&%%%%&&&&%%%&&XXXXXX***&&&%&&&%%&&&%;;;;;*&&%%&$ ",
" %%&&&&&**&&%%&&&&&%%%%%%%%%&XXXXXX&&%%%&&%%%%%%%%&:;;;;&&&&%%$ ",
" #####$#$$$$$$$$$$$$$$#$$####XXXXXX###$$$$$$$$#$$###;;;;####### ",
" ###@@####################@@@      @##############@@:;;;@@@@@@@ ",
" ===*&&&&&**=========*==****&OOOOOO========&====**&&&;;;======= ",
" *****%%&&&&&*****&&******&&&XXXXXX*****&&%%&**&&&&&*:;;******* ",
" &&&&&&%%%&*&&**&&&****&&&***XXXXXX*******&&&&&&%%%&&*:;**&&&&* ",
" *%%%%&&&&&&*****&&&&&&&&****XXXXXX&&&&&******&%%&&&***:&%&&*** ",
" %&&**********&&&&%%%%%&&&&&%XXXXXX%%%&******&&&&***&&&%%&*&&** ",
" %%&&*******&&&**&&&&%%%%%&&&XXXXXX&%%%%&&*****&&&****&&&&&***& ",
" &&******&&&*********&&&%%%%%XXXXXX**&&****&&&&&**&&&&&%$%%%&&% ",
" ****&&&**&&&&******&&%%%%%&%XXXXXX******&&&%%&&&&&&%%$$%%&&&&& ",
" &****&&&%%%%%%%&&&&****&&&&*XXXXXX&&&&******&%%%%%%%%%&&&***** ",
" **&&&%%%%%%&*****&&&&******&XXXXXX%&&******&&&&%%%&&&&&******& ",
" &&&&**&&&***&&&****&%%%&&&**XXXXXX&&***&&****&***&&&**&&%%%%%% ",
" %%%%%&&*******&&%%&%%%&&&&&&XXXXXX%%%&&&*******&&&&&&%%%%%&&&& ",
" &&&%%%%%%%&&&***&&&&&&%%&&&%XXXXXX%%%%&%%&&%%%%%%%%&&&&%%%%&&& ",
" &&%%%%%%%%%%%&&&&***&%%&&%%%XXXXXX%%&&&&&&&&&&%%%%%%%%&&&&&&&% ",
" #####################$#$$##$XXXXXX$########################### ",
" @@@@@@@@@@@@@@@@@@@#########      ##@##@@@@@@@@@@@@@@@@@@@@@@@ "
};
