/* XPM */
static const char *creaking_heart_active[] = {
/* columns rows colors chars-per-pixel */
"64 64 10 1 ",
"  c #6E2B17",
". c #4E4340",
"X c #5E5350",
"o c #765F5A",
"O c #82361F",
"+ c #AF4B16",
"@ c #BC5521",
"# c #EC7214",
"$ c #826E6B",
"% c #EFA337",
/* pixels */
"XoXXXooXX.XoXoo$ooooXXXooXooXo$oXooXXXXoXX..X.XoXXXo$o$XXXoXoooX",
"XXXoXoooX.XoXXo$ooooXXXoooooXoooXXoXXXoo.X...XXXXXXo$$$XoXoXoooX",
"XXoooooX..oooX$$ooXoXXXXooXoooXoXXooXXoX...XXoXXXXoo$$oXooXXooXX",
"oXooo$o...Xooo$$ooXXXXXXoXXoooXXXXooXXXX..XXXooXoXooo$XXooXXooXX",
"oooXo$X.  .Xoo$oXoXXXoXXoX    oXXoXoXXoX..XoX$oXoooo$oXooXXXXo.X",
"XooXo$.    XooooXXXXXoXoX       XoXXXooXX.Xoo$o$ooooooXooXXXXX.X",
"XXoo$$  O  .o$ooXXXXXoo$X OO     oXXXoXoXXoo$oo$  oo$oooXXoX.X..",
"XX$o$o OO  .o$oXXoXXo$o$ OOOO    XoXXXXoXXXo$o$o   o$oooXXoX.X..",
"Xo$$o  OO   o$oXooXX$$o$OOO+OO    oXXX     X$$$     $ooooXoo...X",
"Xo$$o OOOO  $$XXooXX$$$oOO++OO     oX       o$$     $ooooXoo...o",
"o$$$ OOOOO  $ooX$ooXo$$O+O+++O O     OOOOO  Xo      $$oooooX..Xo",
"o$$o OOOOOO $o$o$ooXo$oO+++++OOO    OO+OOOO  o      o$oooXoX..Xo",
"$$ooOOO+OOO o$$o$$ooooO++#+++OO+O   OO++OOO     OO   $oXoXXoX.oX",
"o$o OOO++OO o$$$$$oooo+++#++++O+OO OOO++OOO   OOOOO  $$XoXXoX.XX",
"ooX OO+O+OOO o$$$$$o$O++##++++++OO OO+++OOO  OO+OOO  o$oXXooXXXo",
"ooXOOOOO++OO  oo$$$$OO++##+@+++++O OO++++OOO OOO+OOO o$$oXooXXXo",
"oXOOOOO+++OOO    OOOOO++##@#+++++OOOO++++OO+OOOO++OO  $$oXooXXoo",
"oXOO+OO+O+OOOO  O+OOO++@####+++++OOO+++++O++OO+O++OOO o$oooXXXoX",
"XOOO++OOO+++OO  O+O+O++@####++++++OO+++++++++O+O++OOOO $$oXXoXoX",
"XOO+++OO++@++OO OO++O++##%##@++@++OO+++++++++O+++O+OOOO$$ooXoXXX",
"OOO++++O++@@+OOO O++++@##%##@++@++OO++O+++@++++++O+OOOOO$$oXooXX",
"OO+++@+++@#@+O+O  +++@@#%%###+@#++O++++O++@@+++++OOOO+OOO$$oooXO",
"OO@++@++@@#@+O++O O++@@#%%#%#@@#@+O++O+O+@@#++++++OO++OOOOo$$$OO",
"O+@@+@@+#@##+++++OO+@@##%%%%#@##@+O++OOO+#@#@+++O+OO++OO+OOo$O+O",
"O+@@@#@@#%##+++@+O+@#@#%%#%%####@@+++OOO#####+++OOOO+@+O++OO++++",
"O++@##@##%##@++@@O+@#@#%%#%%####@@++OO+O#@####+++OO++@++++O+@++@",
"+++@#%###%%#@+@@@++@##%%##%%%####@++OO++#@#@##+#++O+@@+++++@#@+@",
"+@+@#%%##%%##+@+@@+@##%%##%%%#@##@+@+O@+###@@###@++@@@@++++@##@@",
"@@+@%%%#%%%##@@+@#@@#%%%###%%#@@##@@++@@##@+@###@@#@@#@+++@@##@@",
"@@@@#%%%%%%%#@#@@#@@#%#%###%##@@##@#@+@@@#@++@###@##@#@+++@@###@",
"@@+@#%%%%%%%###@##@@###%#####@@@@###@@@@@@#@+@@#%####@@@++@####@",
"#@@+##%%%%#%##@@###@##%######@@#@###@@+@@@@@+@#@%####@@@++@####@",
"#+@+@##%%%####@@@#####@#####@@@#@##@@@O@@@@@+@##%%#@##@@+@###@##",
"@+++@##%%%##@#@#@##@#@@#@#@#@@@####@@+O+@@+@@@#%%%#@###@@@##@@##",
"@@+++#@#%%#@@###@#@@#@##@#+@@@####@@@OO+@++@@@%%%%%@@##@@@@#@+@#",
"@@++O@@#%%#@####@@@@####@@+@@@##@#+@+OOO+++@@#%%#%%#@#@#@+@#@+@#",
"@@O+O+@@%####@##@+@@##@##@@@+@##@@+++OOOO+@@@%%%##%#@###@++@@O@@",
"@@OOO+@@%####@##@+@@@#@@#@@@++@#+@++OOOOO+@@#%%%#####@##@@+@+O+@",
"#@+OO@#@####@+#@@++@@@+@#@@+++@@++OOOOOOOO+@#%%########@@@@@OO+@",
"##+O+@######@+@@+++@@@+@@#@+@+@+OOOOOOOOOO+@##%########@@@@@O++@",
"##@++@@###@#@@+@++++@++@@@++@@@OOOOOOO OOOO@#@###@####@@@@@+++@#",
"##@++@+#@#@#@@++OOOO++++@@@+@@+O++OOOO  OOO+@@##@@##@#@@@+@+O+@#",
"@#@++@O@@#@@@++OOOOOOO++@@@@@@OO@++OO   OOO++@#@+@##@@@+@++OO+##",
"@@@+++O@##@@@+OOOOOOOOO+@+@#@@O+@++O   OO+OO++#@++@#+@@+@++O++##",
"@@@++OO@#@+@@OO o$$$ooOO+@@##@++@@++  OO++OO++@@+O@@+@++@@+ ++@#",
"@@+++OO+@@+@+O $$$$$$$oO+@@@##+@@@++O OO++OO@+@@OO+@+++++@O O++@",
"+@++OOOO@+++OO$$oo$$$$$oO+@@##@@@@+++O O+OO@@+@+OOO++O++++OOO+@@",
"++++ OOO+@++O $ooooo$$$oO+@+@#@@@@++++OO+++#@@+++OO++O+++OOO++@@",
"+++O OOO+@O+Oo$oooXoo$$oOO++@@#@+@++++OO++@#@@@++OO++O+++OO ++@+",
"+++O  OO++OO $oooXXooo$$OO++@+@@+++++++O++@@#@#+++O+OO+++OO +O++",
"++OO  OOO+OOo$oooXoooo$$ OO+++@@++@++++ ++@@###@++OOOO++O+O OO+O",
"++OO  OOO+O $ooooooXoo$o OO+O++@@+@@+++ O+@@##@@++OOOO++O+  OOOO",
"O+O$o  OOOO $ooXoooXoo$o OOOO+O+@@@@++O O++@##@@O+OO OO+OO  OOO ",
"  $$$o  OO  ooXXoooXooo$ OOOOO +@@@@++O O+++@#+@OOOO OOOOO  OOO ",
" $$$$$$  O  ooXXXooXooXo  OOOO O@@+@++  O+O+@+O$$ O  OOOOO   O  ",
"o$$o$$$$o  ooooXXoXXooXX  OO   O+@+++O  OOO++O$$$$    OOO       ",
"$$oo$$oo$ooooooXXoXXXoXX  O     O++OO    OOO$$$$oo$   OO      o$",
"$$ooo$oooooXoooXXXXXXooX     o$$ OOO      $$$$oooo$$        Xo$$",
"$$ooooXooooXXoooXXXXXooXX  oo$o$$      $$$o$$$$oooo$o     oXXo$o",
"$oooooXXooooXoooXXXXXXoXooooooo$o$  $$$$$ooo$o$$oooo$X  oXoXoooo",
"oooXoooXooXoooooXXoXXXooooooo$ooo$$$o$o$$oXooo$ooXooXooooXXooooo",
"oooXoXoXoXooooooXXoXXXooXoo$o$o$$$$$oooo$oXooooooXooXXXooXXooXoo",
"oooXXXoooXooooXoXooXXXXoXXoo$$$$o$$ooXoooo.XoXooXXoXoXooXXoooXoX",
"ooXXXooXoXXoooXooooXXXXoXXoooo$$oo$XoXXoXo.XoXooXXXXoo$oXXoooooX"
};
