/* XPM */
static const char *crimson_nylium_side[] = {
/* columns rows colors chars-per-pixel */
"64 64 13 1 ",
"  c #5A0000",
". c #411616",
"X c #511515",
"o c #501B1B",
"O c #6A0400",
"+ c #7B0000",
"@ c #572121",
"# c #652828",
"$ c #723232",
"% c #941818",
"& c #AC2020",
"* c #BD3031",
"= c #854242",
/* pixels */
"%&%%&&%&%&&%%&%&&&%&%%%%&&%%&&&&&&%&%%%%%&&&%%&&&%&&&&%&&**&&&&&",
"%%&&%%%%&&&&%%&&&&&%%&%%%&&%&%&&&&&%%%&%%%&*&%%%&&%&%%&&**&&&&&%",
"+%%&&&&%%&%&&&&*&&&&&%%+%%%%%&**&&&&%&&%&&&***&&&%%%&&&&&*&&&%%&",
"++&&&&&&%%&&&&*&&&&&%%++%&%%&&&**&&&%%&&&&***&&&%%&&&&%&&&*&&&%%",
"%+%&&%&%+%%%&**&*&&&&%%+%%*&&****%%&&%%%&&*&&&***&*&&%&%%&&&%%%+",
"%%%%&&%+%%%&&&****&%&&%&+%&****&&&%%%%%&%&&*&&&***&&&&%%&&%%+%%+",
"+%&&&%%+++&&****&&&%%&&%+%%%&&%&%%&&%%+%%&&&****&&&&%%%%%%%%%+++",
"%&&&%&%%++%&&*&&&&%%&&+%%O%+%&&%%&&%%+%%&%&***&&&%&%%&%&%+%%%%++",
"%+%+%%%+%++%%&&%%&&&%%+%+O++%%%&**&%&%&%&&%&&&&&%%&%&&+%&%+%+++%",
"++%++%+O+%++&&%+&%&%%&%%O++%%&&**&&&%+&&%&%%&&%&&%%&&%++%%++O++%",
"+O+%+%OO+%%%%+%++&%+%&%++%%%&&+%&&%&++%&%%%+&%&&%%+%&%O+%+%++O%+",
"+O+%%+O+++%++%++%%%+&%%O++%&%+%&&%+%O++&&%++%%&%%++%%+O+++%+OO+%",
"OO++OO+%+%%%+++++%%++%++O++%+O++%%+++O+%&%+%+%+%%+++%+OO++%%O+O+",
"OOo++OO+%%+O+O+++%+O+%+OO+O+OO+%+%O++ ++%%+++%++%%O+%O O+O+%OOOO",
"OooOO O+O++O++O+O+OO++++O+O O+O%+O++O +O+%%+%+O+%+OO+OO +OO++O o",
"oo@o OO+oO+OO+OOO+O O+OO+OO  +++OO++ oOO++%+O+ O++OO+OO OOO+O oo",
"o@@o O OooO OOO OO O+OO +O   O++ O+OooOO+O++OO  +OO OO oOO O o@o",
"@@#@@O  o@  OO+  O OOo  OO O OO+  O o@oOOO+OOOo +OO O  oo  O o@o",
"#@##@  @#@ o O+O  OO oo O OO  +OO  o@@o O++OO ooO O   oooo  ooo@",
"##### @### @O+OO  OOo@o   Oo  OOO  @@@@o +OOO oo  O  oo@@@o o@@o",
"@#####$$# @# +++O O o@@@  o@ O O  @@##@@OO+OO @oo    o@#@#@@@#@@",
"@##@#$$##### O++O   @@#@ @@@   O @##$##@OOO Oo@o@   o@##$$#@##@X",
"X###@####$#$@O+OO  @#@##@#@#@ O  ##$$$## OOO ooo@@  @#$$##$$$##@",
"X@##@@$##$$$@ +OOO @##$$####@   #$###$$# OOO @o@#@ @@$$##$$$##$@",
"XX@@@#$$$$$##@O+O @#$$$##$#$#@  #$$$###@OO+Ooo@@##@@##==$$$$$$$#",
"oXo@###$$$##@@OO @@##$$$##$$$# #$$$####@+O+O.XXo@#@##$$===$$$$##",
"#oXoo@#####@@oOOo@@#####$$####$$$###@#@O++OoX..Xo@##$$$$===$$$#$",
"##XXoo@@#@oooO O@o@#$##$#$$##$##$$#@@@#++O ooo..Xo###$$$====$$$$",
"$##oXXooooo+ O  Ooo##$$#$###$##$$###@#O+OO@@###@@oo####$$====$$$",
"#$$@oooooX++O  O Oo@##$###$$$$$####@O++OO@@######@ @##$$$==$=$$$",
"$$##@ooooO+O oooX Oo#####$#$$$####@  OO @####$##  OO#$$#$$=$$$$$",
"$$$##@ooX+OOo@@@ooOo@#####$$####@o OO  #####$#$$#  OO #$$$$=$#$$",
"$$$$#@@@OO@###$##@OO.o@#######@oO++O  ###$###$$$$$#  O+#$$$$$$##",
"$#$#@@@@@+##$$$$$$#O..oo@##@@oX ++O ######$$##$$$###@ O+#$$$$##$",
"$##@@o@###O$$#$##$$#@oo.oo@@oo+OOO@##$$##$$##$$$$$$##@++O@#$$$$$",
"##@@o@###$$$$$##$$###@o..oooo.O+O@####$$$$$$$$$$$$#$$#@O++@#$$$$",
"#@@o@##$$$$$==$$$$$$##@o.ooo.O+ @###$$$$$$$$$$$$##$$#@ooO++O@#$$",
"@O o#$$#$$=====$$$$##$#o..oo.OOo#$#$$=$$$$$$$$######@oo..oO+OO##",
"O o@##$$$=======$$$$$$#@o.o.OO @##$$$$===$$##$$###@oo...oo@o   O",
"oo@##$$$=$$=$==$$$#$$#$#o...+Oo##$$$======$$##$$#@oooo...oo.o@  ",
"o@#$$$$$$$$$==$$$$$##$#$oo..O @#$$$=====$$$$$$###o@@oo.....ooooo",
"@@##$$##$$$$$$$#$$##$$$#oo..Oo##$$=$$==$$$$$$###@@oo@o....oooo@o",
"o@@###$##$$$$##$$$$$$$#@.o.o @###$$$==$$$$$####@o@@oo...oooo@@oo",
"oo@@#$#$$$$$$$##$$$$###o.ooo @###$##$$$$$#$$##@@oooo..ooooo@@@@o",
"@ooo@###$$##$$$$$$#$$#o.oooooo@####$$$$#$####@o@@o..oo@@ooooo@@@",
"@@oooo@## #$$$$$##$##o..oXooo@o@#####$$$###@oooo@@ooooo@@@ooo@@#",
"@#@oXooo@ +##$$$$##@o..oooXo@@oo@@#######@ooXXo@oooo@@oo@oo@@o##",
"##@XooooooO+####@ooo oooooXXo@@oooo@##@@oooXXoooo@@##@@@oo@@oo@#",
"##oXo@##@oOOO+++OO  oo@@oooXXoo@oooo@@@ooXXooo@##$$##$$#@@oo@o@#",
"#@oX@#$$$#@O+O+OO oo@####@oXXoooooo@@@o@XXoo@###$$##$$###@@oooo#",
"#@Xo###$$$##@O  oo@###$$##@oXXoooo@@ooXX..o@##$#$$$==$$$###@ooo@",
"@oX##$$$$#$##@@oo@##$$##$##@XXoooooo.oo..o@#$#$$$$====$$$#@@@oo@",
"@Xo#$$$$$$########$$$$$##$##oXXoooooo.oooo###$$$===$$$=$$###@@oo",
"XX#$$#$$$$$#$$##$$$$==$$$$##@X..ooooo..oo@###$#$$====$$$$$#$##oo",
"Xo#$##$#$$$$##$$$$======$$##@oo..ooooo..o#######$$==$$$$$$$###@o",
"oo@#$$#$$$$####$=======$$##@ooooo.oooo..@#@#@####$$$$$$$#$$$###@",
"@o@###$$$####$$$$====$$####@@oo@@oooo..o@##@@###$$$$#$$$##$##@@@",
"@@o####$$$##$#$$$$====$$##@@oo@##@o@o..o#@#@##$###$$$#$$####@@@@",
"@o@@#####$$$$$=$====$#$###@o@###@@@o..oo@@@###$$##$$$#$##$$###@@",
"@o@o@###$$$$#$$===$$$$###@@###$$##@oo.ooo@@##$$$#$$#$$##$$##@##o",
"@@ooo#$$$##$##$$$$$#####@@##$$##$##@oo.oo@#@#$#$$$$##$$####@@@@o",
"o@@oo@#$$$###$$$##$$###@o#$$$$$####@@@..oo@####$$###$$$$##@##@oo",
"@o@ooo@####$$$###$$##@@oo##$$##$$###@ooo.oo@@###$$#$$##$$###@@oo",
"oooo@oo@@###$$$####@@@oo@@##$$$$$$$##@oooooo@@@#####$$####@@@ooo"
};
