/* XPM */
static const char *crimson_fungus[] = {
/* columns rows colors chars-per-pixel */
"64 64 16 1 ",
"  c #480000",
". c #521810",
"X c #501B1B",
"o c #730408",
"O c #49372C",
"+ c #723232",
"@ c #5B4538",
"# c #796152",
"$ c #941818",
"% c #A42429",
"& c #C22B04",
"* c #C53439",
"= c #FF6500",
"- c #854242",
"; c #FFA468",
": c None",
/* pixels */
"::::::::::::::::::::::::::::::::::::::::::::::::::::::::::::::::",
"::::::::::::::::::::::::::::::::::::::::::::::::::::::::::::::::",
"::::::::::::::::::::::::::::::::::::::::::::::::::::::::::::::::",
"::::::::::::::::::::::::::::::::::::::::::::::::::::::::::::::::",
"::::::::::::::::::::::::::::::::::::::::::::::::::::::::::::::::",
"::::::::::::::::::::::::::::::::::::::::::::::::::::::::::::::::",
"::::::::::::::::::::::::::::::::::::::::::::::::::::::::::::::::",
"::::::::::::::::::::::::::::::::::::::::::::::::::::::::::::::::",
"::::::::::::::::::::::::::::::::::::::::::::::::::::::::::::::::",
"::::::::::::::::::::::::::::::::::::::::::::::::::::::::::::::::",
"::::::::::::::::::::::::::::::::::::::::::::::::::::::::::::::::",
"::::::::::::::::::::::::::::::::::::::::::::::::::::::::::::::::",
"::::::::::::::::::::::::::::::::::::::::::::::::::::::::::::::::",
"::::::::::::::::::::::::::::::::::::::::::::::::::::::::::::::::",
"::::::::::::::::::::::::::::::****::::::::::::::::::::::::::::::",
"::::::::::::::::::::::::::::********::::::::::::::::::::::::::::",
"::::::::::::::::::::::::::***%%%*****;::::::::::::::::::::::::::",
":::::::::::::::::::::::::**%%%%*****;;;:::::::::::::::::::::::::",
"::::::::::::::::::::::::*%%%%******;;;=;::::::::::::::::::::::::",
":::::::::::::::::::::::***%%%%**%**==;;=%:::::::::::::::::::::::",
"::::::::::::::::::::::*%%***%%%%****==%%$$::::::::::::::::::::::",
"::::::::::::::::::::::%;;*********%%%%%$$%::::::::::::::::::::::",
":::::::::::::::::::::=;;;=%%**%%%$$%$%$%%%$:::::::::::::::::::::",
":::::::::::::::::::::;;;;;=%$%%%$$%%%$$$%%%:::::::::::::::::::::",
"::::::::::::::::::::=;;;=;;$%%$$%%%**%$$$%$%::::::::::::::::::::",
"::::::::::::::::::::%==;==*%%%%$$%%;=%%%%$$%::::::::::::::::::::",
"::::::::::::::::::::$%*=;*%%$$%%%=;;;;%%%$%$::::::::::::::::::::",
"::::::::::::::::::::$$%%$$$%%$$%=;;;;;;%$$%$::::::::::::::::::::",
"::::::::::::::::::::%%$%%$$$%%%$;;==;;;$$$$o::::::::::::::::::::",
"::::::::::::::::::::o$%$$$%%%%%%%=;==;=%$$$o::::::::::::::::::::",
"::::::::::::::::::::$ooo$$$%%%$$%%%=;=$$o$oo::::::::::::::::::::",
"::::::::::::::::::::$$oooo$$$%%$$$%%$$$$$oo$::::::::::::::::::::",
"::::::::::::::::$%**%$$%$$oo$$$$$$$$$$ooo$$&$$&&::::::::::::::::",
"::::::::::::::$$%**%**%$$$$$o$$$$$$$oooooo$$&&&$$o::::::::::::::",
":::::::::::::.o$$%%%%***%%$$$$%%$$o$$ooo$$&&&$$oo$.:::::::::::::",
":::::::::::: ..oo$%%%$%%%%%%$%%$$$$ooo$$$$$&$$oo...o::::::::::::",
"::::::::::::  ..oo$$%%$%%%%%%$$$oo....ooo$$$oo...oo.::::::::::::",
"::::::::::::    ..o$$$%%%$$$$$ooo... ...oooo...ooo..::::::::::::",
"::::::::::::  .. ....oo$$$$$oo.ooooo.  ...ooo.ooo.. ::::::::::::",
":::::::::::::  ....oo...ooo.......ooo..   .......  :::::::::::::",
"::::::::::::::    ..oo....  ....oo...o..   ..     ::::::::::::::",
"::::::::::::::::    ..oo....    .oo....o....    ::::::::::::::::",
":::::::::::::::::: .....o..       ....o.      ::::::::::::::::::",
"::::::::::::::::::::: ...  .....    .   .  :::::::::::::::::::::",
"::::::::::::::::::::::::::::XXOXXXOO::::::::::::::::::::::::::::",
"::::::::::::::::::::::::::::XO@OXX@O::::::::::::::::::::::::::::",
"::::::::::::::::::::::::::::OO@XX@O@::::::::::::::::::::::::::::",
"::::::::::::::::::::::::::::O@OX@+@@::::::::::::::::::::::::::::",
"::::::::::::::::::::::::::::@@X@@++@::::::::::::::::::::::::::::",
"::::::::::::::::::::::::::::@+@@+@++::::::::::::::::::::::::::::",
"::::::::::::::::::::::::::::-+@@++@+::::::::::::::::::::::::::::",
"::::::::::::::::::::::::::::--++++@+::::::::::::::::::::::::::::",
"::::::::::::::::::::::::::::-##+-+++::::::::::::::::::::::::::::",
"::::::::::::::::::::::::::::#-##-+++::::::::::::::::::::::::::::",
"::::::::::::::::::::::::::::--###++-::::::::::::::::::::::::::::",
"::::::::::::::::::::::::::::-+-##-+-::::::::::::::::::::::::::::",
"::::::::::::::::::::::::::::++--#+--::::::::::::::::::::::::::::",
"::::::::::::::::::::::::::::++#-#---::::::::::::::::::::::::::::",
"::::::::::::::::::::::::::::+--#--+-::::::::::::::::::::::::::::",
"::::::::::::::::::::::::::::--#----+::::::::::::::::::::::::::::",
"::::::::::::::::::::::::::::-##+-+-+::::::::::::::::::::::::::::",
"::::::::::::::::::::::::::::-#-+-+++::::::::::::::::::::::::::::",
"::::::::::::::::::::::::::::##+--+++::::::::::::::::::::::::::::",
"::::::::::::::::::::::::::::#---++++::::::::::::::::::::::::::::"
};
