/* XPM */
static const char *crimson_stem_top[] = {
/* columns rows colors chars-per-pixel */
"64 64 13 1 ",
"  c #521810",
". c #7B0000",
"X c #442131",
"o c #4B2737",
"O c #562C3E",
"+ c #5C3042",
"@ c #6A344B",
"# c #7E3A56",
"$ c #890F0F",
"% c #961515",
"& c #B12727",
"* c #863E5A",
"= c #924160",
/* pixels */
"XoXoXXX % XXXXXXoooooooXX . ooOoooo $ oooOOOooooo. ooooooOOoooOO",
"XOooooX &% XoooooooXXoooX $. OOOOOo %$ oOOOooOOO $. oOOOooOOOOoo",
"oOooXX %&& XXoooooooooXX .$$ oOOoo %%$% ooOOOOOo $$. oOOOOoooOOo",
"oooXX %&% XXXXooooXXXXX .$.$. ooo $$%%$$  ooooo .$.$ XXoOoXXoooo",
"oXoX======***=====*###**==****#@##**########***#****==***==*XoXo",
"oXXX=**#######################@@@#######@@@@#######**#####*=XoXX",
"ooXX=*#**###@@@@###***#@@##**#*######@@####**####**######*#=XooX",
"ooXX=**##@@###@@@@###@@@##########@@@@############@@@@@@#*#=XoOo",
"XoXX=#*#oooooo++oooooo++@++@@@++@@++++++@@++++@@+@++++++###= oOo",
"XXX =##@ooo++++++++++@@@@@@@@@@@@@@@@@@@@@@@@@@@@@@@++++###=. oo",
"   $*##@oo=========*==***========*#***#*##**==========++@##=$.  ",
"$$$$##*@oo=****################################**##**=++@##=$$$.",
" $$$*###o+=**#######@@@@####@@####################***=++###*.$. ",
"X  $*#*#o+=*#@##@@####@@@@#####@@@@##########@@@@###*=@+#@#*. oo",
"ooX *@*#o+=#############****#####*****#**######@@@@##*@+@@## oOo",
"oOoX*@##o+=###@#########################@@####@@##@@#*@+@@##ooOO",
"OOoo#@#@++=*#@@#+o++++@+++++@@++@@@@@++@++++++++@##@##@+@###OoOo",
"OOOo###@++**#@##o++@@@@@@@@@@@@@@@@@@@@@@@@@++++@#####@+@*##oOOo",
"OOOX*###o+**#@##o+#*========********######**#@++#####*@+#*#*XOOo",
"oOOX*###o+*##@*#o+***#################@@####*#++###@#*@+#*#*XoOo",
"XOoX##*#o+####*#o+**#@@####@@@#########@@#####@+@##@#*@+###* oOO",
"XoX ##*#o+*##*##o+*#@###########@@@#@@#######*@+@####*@+###* oOo",
"Xo $*#*@o+*@#*##++=#@*@@@@@@++@@++o+oo++@@###*@+@####*@@###*$ oo",
"XX %=#*#o+#@#*##++*##*@@@@@@@@@@@@+++++++@###*@+@####*@@@##*% oX",
"X %%=##@o+*####@o+=##*@@#**#****########@+###*@+###@##@+@###%$ X",
" $%%=*#@o+*##*#@o+=###@@##########@@#@@#@+#@#*@+###@##@+@###%%$ ",
"$%%$**##++=##*##o+*###@@##++++@@@@++++@#@@#@@#@+##*###@@###@%%%%",
" $$$*###+@=##*##o+*#*#@@##+@@@@@@@@@++##@+#@@#@+##*@##@+##*@$%%$",
"o  $###@++=#**##o+*#*#@@##@@#####**#@+#*@@##@#@@##*##*@@##*@%$  ",
"Oo  #@#@+@=#**##o+*###+@##@@#######*@+#*@@##@#@@#**##*@@#@*@  oX",
"OoOo*@#@+@=#**##++####@@##+@##@+@@#*@+#*@@##@#@+#**###@@#@##Xooo",
"OOOo*@#@@@=##*#@++####+@##+@##+@@+#*@+#*@@####@+#**###@@#@##oooX",
"oOOo*#*@@@=##*#@o+*##@+@*#+@*#++@+##@@##@@###*@@#*#@#*@+###@XooX",
"oOoo*##@@@*#@##@++*##@+@##+@*#@++@##@@##@+##@*@@###@#*@+@##@XoXX",
"o   *#*@+@##@##@++*###+@*#@@*#######@@#*@+##@#@+##*@#=@+@###  XX",
"  $.*#*#+@##@###++*###+@*#@@#****#*#@@#*@@##@#@@##*##=@+@#@#.$. ",
".$$$*#*#o@*#@###++####+@##@@@@@@@@@@@@##@+####@+#####=@+@@@#$$$.",
"$.$.*###o+*#####+@*###+@##@@@@@@+++@@@##@+@###@+#####=@+@@@#$.  ",
"  .$##@#o+*#@###+@*###@@################@+@##*@+#####*@+@#@#. XX",
"oo .##@#o+*#@*##++*###@@#######@@@@@#@##+o###*@+##*##*@+#*@# XXo",
"oOo ##@@o+*##*##+@*###@@@@@@+++++++++++++o@##*#@##*@##@o@*##oOoX",
"oOOo##@@o+*##*##+@*###@++@++++oo++++ooooo+@##*#@##*@##+o@*##oOOX",
"OOOo##@@++##**##+@##@######@@@#@@@#####@@@###*#####@##+o#*#*OOOo",
"OOOo###@+@##*###+@*##@@##@@@@#########@@@####*#@###@##+o###*OoOo",
"OoOO####+@*#*##@+@*##########################*@@###@#*oo@###ooOo",
"ooOO#@##+@*##*#@+@#*##**######**##************@@##*@#*oo@##*oOoo",
"oOOO#@##@@*#####++@@+++++++++++++@@@@@@@@@@@@@@@##*##=oo###*  oo",
"oOOO#@*#@@*#@#*#+++++ooo++oooooooo++++@@++@+@@@@#**##=+o###=.% o",
"oOOo##*#@@=#@@*#####@@@@##########@@#############*#@#*@+@##=%%& ",
"ooOo##*#@@=#@@########***####****#########*##***##@@#*@+@#*=%&&&",
"ooOo###@+@=##@@#@@@#***#@@@#***###***######***####@@#*@@@#**..% ",
"oOo #@#@+@=###########@@@#####@@@@@####@@#####@@#@@##*@@@#*=.  X",
"oo  *@##+@=*#########################################*@+@##* XoX",
"o  %*@#@++=====*##****==========********==**======****@+###*XXoo",
" %&%*##@++++@@@@@@@@@@@@@@@@@@@@@@@@++++++++++++@@@@@+++###=XooX",
"&&% *###++++++++@@++@@@@+@++++@@++++++oooooo++ooo+++++++#@#=XoOX",
"  oX*#@@#@@@##@@##########@@##@@@@####@#@@@@@@@@##@@@@###@#=oOOo",
"ooOX*##@@##**##@@@@##*##**#######@@@#*****#####***#####@@#*=ooOo",
"ooOo**################@@@##***###############@@@########***=ooOO",
"oOOo********##**#*******####*=========****#***##**==========ooOO",
"XOOOoXXoXXX &&% XXooXXXX .$.$ ooooo $%%%$$$ XoXXXXX .$. oOoooOOo",
"XoOOOOoOoooX%&&%XXXoooooX $$.OOooO $%%%$$  ooooooXXX $$.oOOOOOOX",
"XoOOOooooXXX &% XooooooXXX$. oOOOo $$%$   oOOOOOooXX .$$ oOOOOoX",
"oOooXXXXooXXX % XXooXXXXXX. ooooooo $$   OOOOooXXXXXX $. ooOooXo"
};
