/* XPM */
static const char *cyan_concrete_powder[] = {
/* columns rows colors chars-per-pixel */
"64 64 21 1 ",
"  c #1E7D89",
". c #20828D",
"X c #218690",
"o c #218993",
"O c #228B95",
"+ c #238D97",
"@ c #248E98",
"# c #24919B",
"$ c #25929C",
"% c #25949D",
"& c #2696A0",
"* c #279AA2",
"= c #279BA4",
"- c #289CA5",
"; c #2AA2AB",
": c #2BA7AE",
"> c #2CABB2",
", c #2EAFB6",
"< c #2EB0B7",
"1 c #2FB5BB",
"2 c #32BCC2",
/* pixels */
"**%O*;*:*$%oO--O$#$O-#%$-$%*&%@#**%O*;*:*$%oO--O$#$O-#%$-$%*&%@#",
"&%*%O<*+;*##$%%%% %%*%#+$#$.-1%$&%*%O<*+;*##$%%%% %%*%#+$#$.-1%$",
"X$&-%%o$%O-%%-&@*##$$$@%%%%*%--@X$&-%%o$%O-%%-&@*##$$$@%%%%*%--@",
"%$%*$;$-$O-$&:%1--&-#$%#*##$-%*%%$%*$;$-$O-$&:%1--&-#$%#*##$-%*%",
":*;:%%%##&&-;%$$*$%$#.$-%&$-#$-%:*;:%%%##&&-;%$$*$%$#.$-%&$-#$-%",
"O;%-&#*-:$#&&$%$;-O%$*2&=*.%#&+#O;%-&#*-:$#&&$%$;-O%$*2&=*.%#&+#",
"@*$-%--*.%:%:$%-&#;-$$%O--$%-&,&@*$-%--*.%:%:$%-&#;-$$%O--$%-&,&",
"O>$-2$-**%%***&*#-1$---%&*:%%%$&O>$-2$-**%%***&*#-1$---%&*:%%%$&",
"%#*$#O*-$;*$%-O%%.*%O&*&-;%$%O+&%#*$#O*-$;*$%-O%%.*%O&*&-;%$%O+&",
"-%*-%%&*:X%%;1*#%%+:%%--##$$$&*%-%*-%%&*:X%%;1*#%%+:%%--##$$$&*%",
"1*-@#*-%%#%O&%X*#@ #$**$%#<%$#$*1*-@#*-%%#%O&%X*#@ #$**$%#<%$#$*",
"#$%=%$%*$-&&;%-$#--=-#$.%&-&&%>$#$%=%$%*$-&&;%-$#--=-#$.%&-&&%>$",
"%*#$-$%&&%;%$%*%%-#.%;#&$#%+&%*X%*#$-$%&&%;%$%*%%-#.%;#&$#%+&%*X",
"1#-%%.%%*&&$>$--O&$*%%%&*$O$:$O-1#-%%.%%*&&$>$--O&$*%%%&*$O$:$O-",
"&;&$;:$#:%&$%*&#%;-:;***%%*%$*$*&;&$;:$#:%&$%*&#%;-:;***%%*%$*$*",
"%,%%XO$%%&:***%-%$-#&#$$%&#%;#$-%,%%XO$%%&:***%-%$-#&#$$%&#%;#$-",
"**%%%*&,*X*-O*%.**%O*;*:*$%oO--O$#$O-#%$-$%*&%@#*%%%#*%&*$*-%-@#",
"&2*#O<-;&%;%*#%:&%*%O<*+;*##$%%%% %%*%#+$#$.-1%$+$*$%<**;2;#$%%%",
"% &%%%%$-%&&&%%@X$&-%%o$%O-%%-&@*##$$$@%%%%*%--@%%&%%%%$%$%%%;$@",
"-$**-O%>-O-&%%-O%$%*$;$-$O-$&:%1--&-#$%#*##$-%*%%;&*$O$#$:&1&<*@",
"O&;:&*%$%&-$--%-:*;:%%%##&&-;%$$*$%$#.$-%&$-#$-%-%%:%%$%-*-#-.%$",
"*O%$&#*#*$%2$#%;O;%-&#*-:$#&&$%$;-O%$*2&=*.%#&+#&-$%&-O*-%%%&;$#",
"<$$:$-%-%$%$%-%*@*$-%--*.%:%:$%-&#;-$$%O--$%-&,&%%$X%-*O%*;$-%*;",
"%#$#2;-***$&#$$*O>$-2$-**%%***&*#-1$---%&*:%%%$&%-*$;$#***#&%#&&",
"%o*#%O*+;%%$;%&&%#*$#O*-$;*$%-O%%.*%O&*&-;%$%O+&X:#-%;;&$%*&%&#;",
"-%*-%%:$%&$&<*@$-%*-%%&*:X%%;1*#%%+:%%--##$$$&*%-%>--%$#*-o#&:%*",
"%%-%$O$#*-#O%%*&1*-@#*-%%#%O&%X*#@ #$**$%#<%$#$**%$%%-*%%*;%&*O+",
"-O%%%%*# %-&;$#*#$%=%$%*$-&&;%-$#--=-#$.%&-&&%>$O;:#$**&%&$*1$**",
"%*--&-;%#;$-$%%#%*#$-$%&&%;%$%*%%-#.%;#&$#%+&%*X$%--@%;&X*&%$&-%",
"o&-%%-O--#&%>$*%1#-%%.%%*&&$>$--O&$*%%%&*$O$:$O-%&%*@o*#$-;*$$$-",
"%;&$$*-*O;&%#%&<&;&$;:$#:%&$%*&#%;-:;***%%*%$*$*+;$$%#$;%&+X%#$#",
"%*%%:*%$%o#2#-%%%,%%XO$%%&:***%-%$-#&#$$%&#%;#$-%;-##O#%$&;*;*%-",
"**%O*;*:*$%oO--O**%%%*&,*X*-O*%.*%%%#*%&*$*-%-@#$#$O-#%$-$%*&%@#",
"&%*%O<*+;*##$%%%&2*#O<-;&%;%*#%:+$*$%<**;2;#$%%%% %%*%#+$#$.-1%$",
"X$&-%%o$%O-%%-&@% &%%%%$-%&&&%%@%%&%%%%$%$%%%;$@*##$$$@%%%%*%--@",
"%$%*$;$-$O-$&:%1-$**-O%>-O-&%%-O%;&*$O$#$:&1&<*@--&-#$%#*##$-%*%",
":*;:%%%##&&-;%$$O&;:&*%$%&-$--%--%%:%%$%-*-#-.%$*$%$#.$-%&$-#$-%",
"O;%-&#*-:$#&&$%$*O%$&#*#*$%2$#%;&-$%&-O*-%%%&;$#;-O%$*2&=*.%#&+#",
"@*$-%--*.%:%:$%-<$$:$-%-%$%$%-%*%%$X%-*O%*;$-%*;&#;-$$%O--$%-&,&",
"O>$-2$-**%%***&*%#$#2;-***$&#$$*%-*$;$#***#&%#&&#-1$---%&*:%%%$&",
"%#*$#O*-$;*$%-O%%o*#%O*+;%%$;%&&X:#-%;;&$%*&%&#;%.*%O&*&-;%$%O+&",
"-%*-%%&*:X%%;1*#-%*-%%:$%&$&<*@$-%>--%$#*-o#&:%*%%+:%%--##$$$&*%",
"1*-@#*-%%#%O&%X*%%-%$O$#*-#O%%*&*%$%%-*%%*;%&*O+#@ #$**$%#<%$#$*",
"#$%=%$%*$-&&;%-$-O%%%%*# %-&;$#*O;:#$**&%&$*1$**#--=-#$.%&-&&%>$",
"%*#$-$%&&%;%$%*%%*--&-;%#;$-$%%#$%--@%;&X*&%$&-%%-#.%;#&$#%+&%*X",
"1#-%%.%%*&&$>$--o&-%%-O--#&%>$*%%&%*@o*#$-;*$$$-O&$*%%%&*$O$:$O-",
"&;&$;:$#:%&$%*&#%;&$$*-*O;&%#%&<+;$$%#$;%&+X%#$#%;-:;***%%*%$*$*",
"%,%%XO$%%&:***%-%*%%:*%$%o#2#-%%%;-##O#%$&;*;*%-%$-#&#$$%&#%;#$-",
"**%%%*&,*X*-O*%.*%%%#*%&*$*-%-@#**%%%*&,*X*-O*%.*%%%#*%&*$*-%-@#",
"&2*#O<-;&%;%*#%:+$*$%<**;2;#$%%%&2*#O<-;&%;%*#%:+$*$%<**;2;#$%%%",
"% &%%%%$-%&&&%%@%%&%%%%$%$%%%;$@% &%%%%$-%&&&%%@%%&%%%%$%$%%%;$@",
"-$**-O%>-O-&%%-O%;&*$O$#$:&1&<*@-$**-O%>-O-&%%-O%;&*$O$#$:&1&<*@",
"O&;:&*%$%&-$--%--%%:%%$%-*-#-.%$O&;:&*%$%&-$--%--%%:%%$%-*-#-.%$",
"*O%$&#*#*$%2$#%;&-$%&-O*-%%%&;$#*O%$&#*#*$%2$#%;&-$%&-O*-%%%&;$#",
"<$$:$-%-%$%$%-%*%%$X%-*O%*;$-%*;<$$:$-%-%$%$%-%*%%$X%-*O%*;$-%*;",
"%#$#2;-***$&#$$*%-*$;$#***#&%#&&%#$#2;-***$&#$$*%-*$;$#***#&%#&&",
"%o*#%O*+;%%$;%&&X:#-%;;&$%*&%&#;%o*#%O*+;%%$;%&&X:#-%;;&$%*&%&#;",
"-%*-%%:$%&$&<*@$-%>--%$#*-o#&:%*-%*-%%:$%&$&<*@$-%>--%$#*-o#&:%*",
"%%-%$O$#*-#O%%*&*%$%%-*%%*;%&*O+%%-%$O$#*-#O%%*&*%$%%-*%%*;%&*O+",
"-O%%%%*# %-&;$#*O;:#$**&%&$*1$**-O%%%%*# %-&;$#*O;:#$**&%&$*1$**",
"%*--&-;%#;$-$%%#$%--@%;&X*&%$&-%%*--&-;%#;$-$%%#$%--@%;&X*&%$&-%",
"o&-%%-O--#&%>$*%%&%*@o*#$-;*$$$-o&-%%-O--#&%>$*%%&%*@o*#$-;*$$$-",
"%;&$$*-*O;&%#%&<+;$$%#$;%&+X%#$#%;&$$*-*O;&%#%&<+;$$%#$;%&+X%#$#",
"%*%%:*%$%o#2#-%%%;-##O#%$&;*;*%-%*%%:*%$%o#2#-%%%;-##O#%$&;*;*%-"
};
