/* XPM */
static const char *cyan_concrete[] = {
/* columns rows colors chars-per-pixel */
"64 64 3 1 ",
"  c #157A8B",
". c #167B8C",
"X c #167C8D",
/* pixels */
"X..X....   . . .... .....  X..XX.......X............. .  ... . X",
"..XXX. ..X.... X   X....  XXX.XX.....X ....... .X... ....   ..  ",
"  ... . . .. .X  .... ..X.XXXX  ... X. X...... . ..... X. ...   ",
". ......X. X  X.X..... .XX.XXX .X. . ..X X.... .X.. ..XXX...  ..",
". ..... .X.X  X X . . .. ..XX.      . ..X ..... .X   ......  . .",
". .... .XX  ... X... .....XXX.  . ........ .  .. ..... X.X.  . .",
"....... .X ..  . ... .....X ..X  ...X .. .     X.X.. . . . . ...",
"X.X ...X X.  X........... X.X .......... ...  X.X.X  X....   ...",
"XX.X.. ....  XX..X....... X..X. . X..X..X XX  XX....   . X.X. X.",
"X....... ....X. XX........XX. ...X ...... XX XX.X. ..... X...X..",
"X.......... .. XX.X.........  .  X.X... X. . .. XXX.... ..   ..X",
"X.. .XX.........X.....X.X  .. . X XX  ..X..XXX. X X .... ... XX.",
".......X..... . .X. X.  . ..  .XXXXXXXXX...X.X. X...X ......X X.",
".X......  ........... XXXXX. ..X.X.X.........X . X... . .. .....",
"X.X...  ...... . .. X ....X.. ... .XX.XX.... X... .X. ....... ..",
"...X X........  . X  .XXX..X.   .....XX.. ..XXX. X..X .....    .",
".X  X.. . .... X .........X.X..X. ....... X...X.XX.........X... ",
"... X........X ... ..X..XX...X. ......  ..X..... X.X............",
"..XXXX. ..X .X ... ......XX...X.. . ....  X.. X... ........X...X",
".X X.X...........X.. .X........X.. ...X.......X.XXX......... X..",
"XX.XXX.....X . ..... ...... ....X X .X.X.X.X..   .X...X. .X.  . ",
"X..X..X...X........X.......X...   X X XXX.XX... ......XXX X. XXX",
".XXX...X.XXX.X..... ...   . .  ... .X.XX..X... . .....X XXX..   ",
".. X..   XXX..... . ... ..X  . .  ... XX.XXXX.X ...... X .....XX",
"X.X.X.X. ...XX... . . . ...X     .. ..X..........   . . .. X....",
"XX ..X. .X..       X... .XX.X .  .. . .  ..X... .  ....XX ......",
"X. . .....X.....  X ....  ..X.. .....XXXX. . . ...  ........X...",
"XX   .........    ....X.. ..       . . ...XX  ..... . .....X....",
"..X.. .XX...X..   XXX... .X... .X....  X... .. ....  ...X..X....",
". . ....X...X. X XX.X...X.X.....XXXX.  ..XX.  X . . . ......X.. ",
". X...X. .XX.... .XX ... ..XX...X.XXX ....X.X  ...  .... . XX...",
"    ..XXX.XX...XXXX.   .X..XXX........ X..X    .. .  ....X.XX. .",
". .X .. XXX .X .X....XX.....X.....XX  . .X.... . ...   ....XXX..",
"   .. XXX.X. .... XX........X.X.X. ... ..X.X...  ... ......XX...",
" . ...XX... .... X .XX..X.X...X X ....   . .... ....  X.X..XX...",
". ......XX. .. X  X..... ...X..X ....  . . .X ....X..X.. X ..X..",
"X.............X .X.... .......    . ....X.X ......XX..XX .. ...X",
"...X.XXX.. .. ...X ... .......X.  ...... X..X....X.XX..X  ......",
"... XX........XX.X.X.......................X. XX....XXXXX.X..XX.",
" ....X ...X....X... .X........ ... .....XX.X...X ...XX.XXX......",
".X. .....X......... ...X.................X.X..X.....X..... ..XXX",
" ...... ....XX....X.. ................................X........X",
"..  ... ..X.X..XX.  .  ..X ..... .XX. ........................XX",
"  .. . ..... XXX................ X....  XX... ........ .  . ....",
"X.X . .X.... ..XX ........   .....XX.....XX.X ....... . X....X..",
" XX.  .X... ...X... ...... ..X...X..X..X...X XX.... ..X    XXX..",
"X  . .XXXX..X..X. X  . . .. ....X.XX.. .XXX.X X..    . ..X....  ",
" .. X.X.X.   .X.  ... ..... X .....X. ......XXX ..  .....X....  ",
"  ....X..XXX.X.X  .X..........X. ..X .....XXX.XX    ....  ......",
"  X....XXX.XX..X.XX..X.......X.  ...........X.XXX .. .... .... .",
" .X.XXXX ..........X..X.......X.   .  ........X  X  .X.X.....  .",
"XX X..XX.. ..........X.X.........  .. .........  ........X . ...",
".XX . .XXX.X .....X.......X.......X  .....X...X.. . .. ... .XXX.",
"....   XXX...... .XX. ........XXXXX   ......X.X.. ........X.X...",
".... ..X..X......  .........X....X... .. ...XXX  ... . .........",
"XX....X...... .. . .......... ...XXX.X .    .X.... ... ........ ",
"XX...X... .....X..   .. .........X...X ......X  ..X.X......XX  .",
".X.X......X  X..XXX.....  .... ..XX.XX.X... .X...... XX.XXX  X  ",
"XX.. .......  X.X.. X..... .  .X.XXXXX...XXX...... ....XX.X.X. .",
"..... ...... .. ... ... .. X..X.XXX....X........ .X.XXXX..X.. . ",
".......  ....  ..X . .. ....X  XX.X.  ....X... ......... ..X.X.X",
"... . ........     .......XX X...X.X.  .XXXX.... ....X.. .X.....",
"....   .X.X   .  . .......X X X....X ...XX....... ... .XXX.XXX.X",
".... ....X.......  .  ...XX.XXX........ .....XX.X.........X...X."
};
