/* XPM */
static const char *dark_oak_door_top[] = {
/* columns rows colors chars-per-pixel */
"64 64 16 1 ",
"  c #291A0C",
". c #32210F",
"X c #372311",
"o c #3D2812",
"O c #353535",
"+ c #412B13",
"@ c #493116",
"# c #50351B",
"$ c #53361A",
"% c #5A422C",
"& c #624224",
"* c #724A24",
"= c gray32",
"- c #6F6F6F",
"; c #CC9400",
": c #FFE500",
/* pixels */
"%%%%%%%%%%%%%%%%%%%%%%%%%%%%%%%%%%%%%%%%%%%%%%%%%%%%%%%%%%%%%$$o",
"%%%%%%%%%%%%%%%%%%%%%%%%%%%%%%%%%%%%%%%%%%%%%%%%%%%%%%%%%%%%$$oX",
"%%$$@@@@@@$$$$$$$$$$$$@@$$$$$$$$$$$@@@@@@@@@@@$$$$$$$$$$@@$$@@oX",
"%%$@@@@$$$$$$$$@@@@@@@@@@@@@$$@@@@$$@@@@$$$@@@@@@@$$@@@@@@@@@@oX",
"%%@$$$$$$$$$@@@@@@@@@@@@@@@$$$$$@@@@$$$$$$$$$$$@@@@@@@@@@@@@@@oo",
"%%@$$$$$$$@@@@@@@@@@@@$$$$$$$$@$$$$@@@@$$$$$$$$$$$$@@@@@@@@@@@oo",
"%%$$$$$$$$$$$@@@@@@@$$$$$$$@@@$$$$$$$$$$$$$$$$$$$@@@@@++++@@@@oo",
"%%$$@$$$$$$$$$@@@@@@@@@@@$$$$$@@$$$$$$$$$$$$$$@@@@@@++++@@@@$@oo",
"%%$$@@$$$$$@@@@@@@@@@@@@@@$$$$$@$@$$$$@@@@$$$$$$@@@@@@@@@@$@$$o.",
"%%$$@@$$@@++@@@@@@@@@@@$$$$$$$$@@@$$@+++@@@@@@@@@@@@@@@@@@$$$$o.",
"%%$$$@$@@+                 .$$$$@@@$                 .$@@$$$$$o.",
"%%$@$@$@++                .$$$@$@@@$                .$$$@$$$@$o.",
"%%$@$$@@+@  oooooooooooooo$$$$@@@$@$  oooooooooooooo$$$$$$$$@@o.",
"%%$$$$@@+@  oooooooooooooo$&$$@@@$@$  oooooooooooooo$&$$$@$$@@oo",
"%%$$$@@@@@  oooooooooooooo$&@$@@@$$$  oooooooooooooo$&$$@@$@@+oo",
"%%$$$@@@+@  ooooooooo+oooo$$@$@@@$$$  oooooooooooooo$$$$@@@+@+oo",
"---=@@@@+$  ooooooooo+oooo$&@@@$@$$$  oooooo+ooooooo$&$$@$@+++oo",
"-==O@$@@@$  oooooooo+ooooo$&@@@$$$$$  oooooo+ooooooo$&$$@$$@++oo",
"-==O@$$@@$  ooooo+oo+o+ooo$&@@@$$$$$  oooooo++oooooo$&$$$$$@+@oo",
"-==O@$$@@$  oo+oo+oo+++ooo$&@@@$$$$$  ooooo+++o+oooo$&$$$$$@+@oo",
"-=OO$$$@$$  oo+oo+oo+++ooo&&@@@@$$$$  ooooo+++++o+oo&&@$$$$$@@oo",
"-=OO$$$@$$  oo+o++o++++ooo&&@@@@$$$@  ooooo+++++++oo&&@@$@$$@@oo",
"=OOO$$@@$$  oo+++@++o+++oo&&@@@@$$$@  oo+oo++++o++oo&&$@$@$$@@oo",
"OOOO$$@@$$  oo++@@++o+++oo&&+@@@$$$@  oo+oo++++o++o+&&$@$$$$@$oo",
"%%$$$$@$$$  ooo+@+++oo++o+&&++@@$$@@  +o++o+++oo++++&&$$@$$$@$oo",
"%%$$$$@$$$  ooo+++++oo++o+&&++@@@$@@  +o++o+++oo++++&&$$@$$$@$oo",
"%%$$$$$$$@  +ooo@++++oo+o+&&++@@@$@+  +++++++@o+++++&&$$@@$$$$oo",
"%%$$$$$$@@  +ooo@++++oo+++&&+++@@$@+  +o+++++@o+++++&&$$@@$$$$o.",
"%%$$$$$$@$  +o+o@++@+oo@++&&@++@@@@+  oo++++@@++++++&&$$$@$$$$oo",
"%%$$$$$$@$  @++o@@+@+o+@+o&&@++@@@@@  o+++@+@@++++++&&$$$@$$$$oo",
"%%$$$$$@$$  @+++@@+@++@@+o&*@++@@@@@  ++@+@@@@+@++@+&*$@$@$$$@oo",
"%%$$$$$@$$  @++@@@@@++@@@o&*@+@@@@@@  ++@+@@@@@@++@+&*$@$$$$$@oo",
"%%@$$$@@$$  @+@@@@@@@+@+@+&*@+@@@@+@  +++@@@@@@+@+@@&*$@$$$$@@oo",
"%%@$$$@@@$  @@+@@@@+@+@+++&*@@@+@@++  +++@@@@@@+@+@@&*@@$$$$@@o.",
"%%@$$$@$@$  @@++@@++@@@+++&*@@@+@@++  +++@@@@@++@@@@&*@$$$@$$@o.",
"%%$@$$@$$@  @+++@@++@@@@++&*+@@+@@@+  +@+@@@@$++@@@@&*@$$$@$@@o.",
"%%$@$$@$$@  @+@+@@@+@@@@+@&*+@@+@@@+  @@++@@$$+@@@$@&*$$@$@@@@oo",
"%%@@$$@@$@  @@@+@@@+@@@@+@&*+@++@@@+  @@++@@$@+@@@$$&*$$@$@@@@oo",
"%%@@$$@@$@  @@@@@@@@@@@@@@&*++++@@@@  @@@+@@@@@@@$@$&*$$@@$@@@oo",
"%%@@$$$@@@  +@@@+@@@@@@@@@&*++@+@@@@  @@@+@@@@@@@$@@&*$$@@$@$@oo",
"%%@@$@$@@@  +@@@++@@@$@@@@&*++@@$@@@  @@@+@$@@@@@$$@&*$$@@$$$@oo",
"%%@@$@$$@@  @@@@@+@@$$@@@@&*@+@$$@@@  @@@@$$@@@@$$$@&*$@@@$$@@o.",
"%%@$@@$$@@  @@@@@+@@$$@$@@&*$@@$$$@@  @@@@$$$@@@$$$@&*$@@@@$@@o.",
"%%@$@@$$@@  @@$@@@@@$$$$@$&*$@$$$$@@  @@@@$$$@@@$$$$&*$@@@@$@@o.",
"%%@$@@$@@@  @@$@@@@$$$$$@$&*$@$$$$@@  @@@@$@$@@@$$$$&*$@$@@@@@o.",
"%%$$@@$@@@  @@$@@@@$$@$$@$&*$$$$$$@+  @@$@$@$$@@$$$$&*$@$@@@$@o.",
"%%$$@@@@@@  @@$$@@@$$@$@$$&*$$$$@$@+  @@$@@@$$@$@$$$&*$$$@@@$$oo",
"%%$$@@@@@@  @@$$@@$$$$$@$$&*$$$$@$++  @$$@@@$$@$@$$$&*$$$@@@$$oo",
"%%$$$@@+@@  @$$$@@$$$$@@$$&*@$$$@$+@  @$$@@@$$@$@@$$&*$$@$@$$$oo",
"%%$$$@++@@  @$$$@@$$$$@$$$&*@$$$@@+@  @$$$@@$$$$@@$$&*@$@$@$@$oo",
"%%$$$@+@@@ .$$$$@$$$$$$$$$&*@$$$@@@+ .@@$$@$$$$$$@$$&*@$$$@@@@oo",
"%%$@$@+@+@ .$$$$@$$$$$$$$$&*@$$$@@@+ .@@$$@$$$$$$@$$&*@$$$@$@@oo",
"%%$@$@@++@ .$$$$$$$@$$$$$$&*@$$@@@@@ .$@$$$$$@$$$$$$&*@@$$$$@$oo",
"%%$@@@@+++..$$$$$$@@$$$$$$&*@@$@@@@@..$@$$$$@@$$$$$$&*@@$$$$@$oo",
"%%$@@@@+@+ .$$$$$$@$$$$$$$&*@@$@@@@@ .$@$$$$@$$$$$$$&*@@$$$$$$oo",
"%%@@@@@@@+ .$$$$$$@$$$$$$$&*@@@@@@@+ .$$$$$$$$$$$$$$&*@@$@$$$$oo",
"%%@@$@@@@@ .$$$$$$$$$$$$$$&*@@@@@$@+ .$$$$$$$$$$$$$$&*@@$@$$$@oo",
"%%@$$@@@@@..$$$$$$$$$$$$$$&&@@@@@$@@..$$$$$$$$$$$$$$&&@@$@$$$@oo",
"%%@$$@@@@@.o&&&&&&&&&&&&&&&&@$@@@$@$.o&&&&&&&&&&&&&&&&@$@@@$$@o.",
"%%@$$@@@@@o&&&&&&&&&&&*****&@$@@$$@$o&&&&&&&&&&&*****&@$@@@$@@o.",
"---=$@@@@@@$$$$$$$@@@$$$$$$$$$@@$$$$$$$$@$$@$$$$$@@@@@@@@@@@@@o.",
"-==O$@@@$$$$$$$$$$$$@@@$$$$$$$@@$$$$$$$@@@@@@$$@@@@@@@@@@@@@@@o.",
"-==O@@@@@$$$$$@@@@@@@$$$$@@$$$@$$$@$$@$@@@@@@$@@@@::::;;;;;@@@o.",
"-==O@@@@@@@@$$$$@@@@@@$$$$$$$$@$$$@@$@@@@@@@@@@@::::;;;;;;;;@@o."
};
