/* XPM */
static const char *dark_oak_log_top[] = {
/* columns rows colors chars-per-pixel */
"64 64 11 1 ",
"  c #301E0E",
". c #292011",
"X c #302513",
"o c #332715",
"O c #3A2411",
"+ c #3E2912",
"@ c #3F311D",
"# c #492F17",
"$ c #4F3218",
"% c #4A381E",
"& c #53381A",
/* pixels */
"o@oo....Xoo@%%%@%%%%@@@@ooXX..XXXXXXXXoo....XXXXXoooooooo@@@%%%%",
"@@@ooo....XXo@@@@@ooooooXXoooXoo@@@@oXXXXXX...@@%%%%@@@oooooXX@%",
"@%o@@@ooXX..XXo@@@@oXXXooXXXXXXXXXooooXoooXXXXXXXo@@ooooXXXXXXX@",
"%%ooo@@ooooXXo@@oo..XX..XXX..X....XXXX@@%%@@XXooooo@@@oooX..XXX@",
"%@oo&&&&&&$$$&&&&&$###$$&&$$$$#+##$$########$$$#$$$$&&$$$&&$.XXX",
"%ooo&$$#######################+++#######++++#######$$#####$&.XXX",
"@ooo&$#$$###++++###$$$#++##$$#$######++####$$####$$######$#&.X@X",
"ooX.&$$##++###++++###+++##########++++############++++++#$#&.o@X",
"o@X.&#$#      OO      OO+OO+++OO++OOOOOO++OOOO++O+OOOOOO###&XoXX",
"X@X.&##+   OOOOOOOOOO+++++++++++++++++++++++++++++++OOOO###&XoX.",
"XoX.$##+  &&&&&&&&&$&&$$$&&&&&&&&$#$$$#$##$$&&&&&&&&&&OO+##&.XX.",
"Xo..##$+  &$$$$################################$$##$$&OO+##&.XXX",
"XoXX$### O&$$#######++++####++####################$$$&OO###$XXoX",
"XoXo$#$# O&$#+##++####++++#####++++##########++++###$&+O#+#$oXoX",
"o@oo$+$# O&#############$$$$#####$$$$$#$$######++++##$+O++##oX@X",
"o@oo$+## O&###+#########################++####++##++#$+O++##oX@o",
"%@oo#+#+OO&$#++#O OOOO+OOOOO++OO+++++OO+OOOOOOOO+##+##+O+###Xo%@",
"%@Xo###+OO$$#+## OO+++++++++++++++++++++++++OOOO+#####+O+$##oo%@",
"%oX.$### O$$#+## O#$&&&&&&&&$$$$$$$$######$$#+OO#####$+O#$#$o@%@",
"@oX.$### O$##+$# O$$$#################++####$#OO###+#$+O#$#$X@%@",
"@XXX##$# O####$# O$$#++####+++#########++#####+O+##+#$+O###$Xo@@",
"oXX.##$# O$##$## O$#+###########+++#++#######$+O+####$+O###$Xo@X",
".XX.$#$+ O$+#$##OO&#+$++++++OO++OO O  OO++###$+O+####$++###$XooX",
".oXX&#$# O#+#$##OO$##$++++++++++++OOOOOOO+###$+O+####$+++##$XooX",
".ooX&##+ O$####+ O&##$++#$$#$$$$########+O###$+O###+##+O+###XXoX",
"XooX&$#+ O$##$#+ O&###++##########++#++#+O#+#$+O###+##+O+###XX@X",
"XoX.$$##OO&##$## O$###++##OOOO++++OOOO+#++#++#+O##$###++###+Xo@o",
"ooX.$###O+&##$## O$#$#++##O+++++++++OO##+O#++#+O##$+##+O##$+Xooo",
"o@o.###+OO&#$$## O$#$#++##++#####$$#+O#$++##+#++##$##$++##$+Xo@o",
"@@oo#+#+O+&#$$## O$###O+##++#######$+O#$++##+#++#$$##$++#+$+oo@@",
"@%@o$+#+O+&#$$##OO####++##O+##+O++#$+O#$++##+#+O#$$###++#+##o@@@",
"@%@o$+#+++&##$#+OO####O+##O+##O++O#$+O#$++####+O#$$###++#+##o@@@",
"@%oo$#$+++&##$#+ O$##+O+$#O+$#OO+O##++##++###$++#$#+#$+O###+o@o@",
"o%oo$##+++$#+##+OO$##+O+##O+$#+OO+##++##+O##+$++###+#$+O+##+o@oo",
"o@o.$#$+O+##+##+OO$###O+$#++$#######++#$+O##+#+O##$+#&+O+###oooo",
".@o.$#$#O+##+###OO$###O+$#++#$$$$#$#++#$++##+#++##$##&+O+#+#oXoo",
".oo.$#$# +$#+###OO####O+##++++++++++++##+O####+O#####&+O+++#oXoo",
".o..$### O$#####O+$###O+##++++++OOO+++##+O+###+O#####&+O+++#oXX@",
".o.o##+# O$#+###O+$###++################+O+##$+O#####$+O+#+#XXX%",
"oooo##+# O$#+$##OO$###++#######+++++#+##O ###$+O##$##$+O#$+#XX@%",
"@oo.##++ O$##$##O+$###++++++OOOOOOOOOOOOO +##$#+##$+##+ +$##.X@%",
"@oo.##++ O$##$##O+$###+OO+OOOO  OOOO     O+##$#+##$+##O +$##.Xo@",
"%ooo##++OO##$$##O+##+######+++#+++#####+++###$#####+##O #$#$XXoX",
"@@.o###+O+##$###O+$##++##++++#########+++####$#+###+##O ###$oXoX",
"%@..####O+$#$##+O+$##########################$++###+#$  +###oX@o",
"%@o.#+##O+$##$#+O+#$##$$######$$##$$$$$$$$$$$$++##$+#$  +##$Xo@o",
"@ooo#+##++$#####OO++OOOOOOOOOOOOO+++++++++++++++##$##&  ###$Xo@o",
"@oXo#+$#++$#+#$#OOOOO   OO        OOOO++OO+O++++#$$##&O ###&oo@X",
"ooX.##$#++&#++$#####++++##########++#############$#+#$+O+##&oooX",
"XoX.##$#++&#++########$$$####$$$$#########$##$$$##++#$+O+#$&XooX",
"XXX.###+O+&##++#+++#$$$#+++#$$$###$$$######$$$####++#$+++#$$Xo@X",
"oXX.#+#+O+&###########+++#####+++++####++#####++#++##$+++#$&Xo@X",
"ooXX$+##O+&$#########################################$+O+##$.X%X",
"o@XX$+#+OO&&&&&$##$$$$&&&&&&&&&&$$$$$$$$&&$$&&&&&&$$$$+O###$.@%.",
"o%Xo$##+OOOO++++++++++++++++++++++++OOOOOOOOOOOO+++++OOO###&X@%.",
"@%oo$###OOOOOOOO++OO++++O+OOOO++OOOOOO      OO   OOOOOOO#+#&Xo%X",
"@%@o$#++#+++##++##########++##++++####+#++++++++##++++###+#&.o@X",
"o%@o$##++##$$##++++##$##$$#######+++#$$$$$#####$$$#####++#$&.ooX",
"o@@X$$################+++##$$$###############+++########$$$&.Xoo",
"o@@X$$$$$$$$##$$#$$$$$$$####$&&&&&&&&&$$$$#$$$##$$&&&&&&&&&&.Xoo",
"X@oXo@@@oX....XXooX...Xoo...oooooo@@oooooXXX..XXXXXX..XX...XXXo@",
"XoooXXXooooXXooo@@ooXXXXoooooo@@%%%%%@o@@ooXXXooXXXXXooooXXXooo@",
"XoXXX@ooo@@@@@@ooooooooo@@@%%@o@@@ooooooooXXoooXXooooXXXXXXXXoo%",
"oX@@%%@@XXoo@@@@@@@ooXXooo@@oooooooo..XX...o%%@@oo@@@@ooXX@@%%%%"
};
