/* XPM */
static const char *daylight_detector_inverted_top[] = {
/* columns rows colors chars-per-pixel */
"64 64 8 1 ",
"  c #3C3322",
". c #473D29",
"X c #354359",
"o c #8B9AB1",
"O c #97A7BD",
"+ c #A5B3C7",
"@ c #B0BDCE",
"# c #C3CCD9",
/* pixels */
"                                                                ",
" .............................................................. ",
" .............................................................. ",
" ..                                                          .. ",
" .. XXXXXooooooXXXXX....XXXXXooooooXXXXX....XXXXXooooooXXXXX .. ",
" .. XXXooooooooooXXX....XXXooooooooooXXX....XXXooooooooooXXX .. ",
" .. XXooooOO+++OooXX....XXooooOO+++OooXX....XXooooOO+++OooXX .. ",
" .. XoooO++++++++OoX....XoooO++++++++OoX....XoooO++++++++OoX .. ",
" .. XooO++++++++++OX....XooO++++++++++OX....XooO++++++++++OX .. ",
" .. ooo+++++++++++++....ooo+++++++++++++....ooo+++++++++++++ .. ",
" .. ooO++++++++++++@....ooO++++++++++++@....ooO++++++++++++@ .. ",
" .. ooO++++++++++++#....ooO++++++++++++#....ooO++++++++++++# .. ",
" .. oo+++++++++++++#....oo+++++++++++++#....oo+++++++++++++# .. ",
" .. oo++++++++++++@#....oo++++++++++++@#....oo++++++++++++@# .. ",
" .. oo++++++++++++@#....oo++++++++++++@#....oo++++++++++++@# .. ",
" .. XoO+++++++++++#X....XoO+++++++++++#X....XoO+++++++++++#X .. ",
" .. Xoo++++++++++@#X....Xoo++++++++++@#X....Xoo++++++++++@#X .. ",
" .. XXoO++++++++@#XX....XXoO++++++++@#XX....XXoO++++++++@#XX .. ",
" .. XXXoOO+++@@##XXX....XXXoOO+++@@##XXX....XXXoOO+++@@##XXX .. ",
" .. XXXXX+@####XXXXX....XXXXX+@####XXXXX....XXXXX+@####XXXXX .. ",
" .. ........................................................ .. ",
" .. ........................................................ .. ",
" .. ........................................................ .. ",
" .. ........................................................ .. ",
" .. XXXXXooooooXXXXX....XXXXXooooooXXXXX....XXXXXooooooXXXXX .. ",
" .. XXXooooooooooXXX....XXXooooooooooXXX....XXXooooooooooXXX .. ",
" .. XXooooOO+++OooXX....XXooooOO+++OooXX....XXooooOO+++OooXX .. ",
" .. XoooO++++++++OoX....XoooO++++++++OoX....XoooO++++++++OoX .. ",
" .. XooO++++++++++OX....XooO++++++++++OX....XooO++++++++++OX .. ",
" .. ooo+++++++++++++....ooo+++++++++++++....ooo+++++++++++++ .. ",
" .. ooO++++++++++++@....ooO++++++++++++@....ooO++++++++++++@ .. ",
" .. ooO++++++++++++#....ooO++++++++++++#....ooO++++++++++++# .. ",
" .. oo+++++++++++++#....oo+++++++++++++#....oo+++++++++++++# .. ",
" .. oo++++++++++++@#....oo++++++++++++@#....oo++++++++++++@# .. ",
" .. oo++++++++++++@#....oo++++++++++++@#....oo++++++++++++@# .. ",
" .. XoO+++++++++++#X....XoO+++++++++++#X....XoO+++++++++++#X .. ",
" .. Xoo++++++++++@#X....Xoo++++++++++@#X....Xoo++++++++++@#X .. ",
" .. XXoO++++++++@#XX....XXoO++++++++@#XX....XXoO++++++++@#XX .. ",
" .. XXXoOO+++@@##XXX....XXXoOO+++@@##XXX....XXXoOO+++@@##XXX .. ",
" .. XXXXX+@####XXXXX....XXXXX+@####XXXXX....XXXXX+@####XXXXX .. ",
" .. ........................................................ .. ",
" .. ........................................................ .. ",
" .. ........................................................ .. ",
" .. ........................................................ .. ",
" .. XXXXXooooooXXXXX....XXXXXooooooXXXXX....XXXXXooooooXXXXX .. ",
" .. XXXooooooooooXXX....XXXooooooooooXXX....XXXooooooooooXXX .. ",
" .. XXooooOO+++OooXX....XXooooOO+++OooXX....XXooooOO+++OooXX .. ",
" .. XoooO++++++++OoX....XoooO++++++++OoX....XoooO++++++++OoX .. ",
" .. XooO++++++++++OX....XooO++++++++++OX....XooO++++++++++OX .. ",
" .. ooo+++++++++++++....ooo+++++++++++++....ooo+++++++++++++ .. ",
" .. ooO++++++++++++@....ooO++++++++++++@....ooO++++++++++++@ .. ",
" .. ooO++++++++++++#....ooO++++++++++++#....ooO++++++++++++# .. ",
" .. oo+++++++++++++#....oo+++++++++++++#....oo+++++++++++++# .. ",
" .. oo++++++++++++@#....oo++++++++++++@#....oo++++++++++++@# .. ",
" .. oo++++++++++++@#....oo++++++++++++@#....oo++++++++++++@# .. ",
" .. XoO+++++++++++#X....XoO+++++++++++#X....XoO+++++++++++#X .. ",
" .. Xoo++++++++++@#X....Xoo++++++++++@#X....Xoo++++++++++@#X .. ",
" .. XXoO++++++++@#XX....XXoO++++++++@#XX....XXoO++++++++@#XX .. ",
" .. XXXoOO+++@@##XXX....XXXoOO+++@@##XXX....XXXoOO+++@@##XXX .. ",
" .. XXXXX+@####XXXXX....XXXXX+@####XXXXX....XXXXX+@####XXXXX .. ",
" ..                                                          .. ",
" .............................................................. ",
" .............................................................. ",
"                                                                "
};
