/* XPM */
static const char *dead_horn_coral_block[] = {
/* columns rows colors chars-per-pixel */
"64 64 6 1 ",
"  c #5D5A59",
". c #686463",
"X c #746A66",
"o c #867B77",
"O c #99938D",
"+ c #A4A09C",
/* pixels */
"OOOoo..oOooOooO++oXXoXX.XooOOooXXXX.........XXoooooO++OoooXX.XoO",
"oooOX.XOOoooooOO+OXooXXoOOOO++OoooXX.XX...XXoooooO+++OOOooXXXXXX",
".XXXX.oOoooooOOO+OooX.OOOOO+++++OooXXX..XXXXXoOoooOOOOoooXXoooX.",
"X.XX..oooooOOOOO+ooo.XoOO++OOO+++OooXXXXXXXooooOOOOOoXooX.oooXXo",
"oXXX.XoooOOOoOO+OooXXooo+OOOOOO+++oOXX.XXXXXoooooXooooXX.XXoOOoo",
"XoXXXoOOOoooOO++oooXoooOOOOOOOOO++OOoXX..XXXXoooXoooXX.XoooOOooo",
"ooX.XooooooO+++OooXXOoOOOoooOOoO++OooX..XXooXXX..XXXX.XXXoooooOO",
"ooX.ooXoOO++OOoooXXoOOoOoooXXoOO+OooX.XoXoXoooXX..XX..XoOoooOOOo",
"oXXXoXoooOOoooooXXoOO+OoooooXXO+OOoXXXoooOOO++ooXXXX.Xoo+OOOOOoo",
"o.XXooooXXoooooX.XoO++oXoooooXo+OoXXoooOOO+++++ooXX .ooO+++OOOO+",
"XX..XooooXXooXX..oOO+OXoooooooO+oXXooOOO+++OOoO+oX .XoXoO++++++O",
"oXX. .XXooooXX..XoOO+ooooooooo++oXooOO++++OOOOoOo. XXXooooO++OOO",
"OOoX.  .XXX...X.XooOOooooooooo+OXXoO+OO+++OOooXoX .XooXXXoooOOOO",
"OoooXX  .....XXXXoooOOoooooooO+OXoX+OOOOOO+OOooX  XooooXXXooooOO",
"oOOooXX.  .XXX..XXooooOooooXoOOXooO+OoooOOOOooX. .XXooooooXooooo",
"ooooo.XXXoooXXX...XoooooOoXooOoXXoOOoooOOOoo... ..oXooooOOoooooo",
"ooooX.XooXoO++ooX .ooooooOooOOXXooOOooOooX..XXoX.XoooOOooOOoooXX",
"XXoX.XooOO+++++oo. XooXXoooOooXooooOooooX.XooOOoX.XoOOOOoooXoooX",
"o.XXXooO+++++++OoX..XooXXoooXXooooooOOooXXoOOOOOXXooOOO+OOoooooo",
"oX.XXoO++++OO++oooX..XXoooXXXoooXooooOOoXoOOooOOXooOOo++++OoooXo",
"oo.Xoo++OOooO++ooooX..XXXX..ooOooXoooooXXOOOOooO.ooOooO++O++oooX",
"oOXooO+OOooO++ooooXooX.XX..XoOOooooooooXoOOoOooO.Xoooo+OOOOO+Ooo",
"OoXooO+OOOO++OooooOOooXX.XXXooOOooOoXoX.OOOoooOoX.ooOooOOOOOOooo",
"oXXoOO+OOOOOoOoooooOOoooXXXXXoooOOoooX..OOOOoooXXXXoOOoooOOOO+oo",
"oXooOOOOOOOOooOooooooooooX..XXoooooXXX.XoOOOOoXXXooXXoOoOOOO+Ooo",
"oXooO+oOOOOOOoooooooOOoooXX..XXXooooX.XXooOoXXXoooooXXooooOOOOOo",
"Xoooo+OoOOOOOoooooOOO++OooXXXX..XXXXXXXXXOoXXo++OooOooXXXoooOOOo",
"oooooO+OOOOOOOooOOOO++OOOoXXX..XXX.XXX.XXXXXo+++++OoooooX..XooOO",
"ooXoooOOoOOOOOOOO+++OOoooX.XXXXX.  ..XX..XXoOooO+++OoooXooX.XXoO",
"ooXXoooOOoOOOOO+++OoooooX.XXXX..  ..XXXX..XoooooO++OoOooooooooXo",
"XXX.XXXooOOooOOOooOOoooXXXXX..XXX.  .X.XXXooooooO+++OOooooOooooo",
"..XX..XXooooOOOOOOoooXXXXXX.XXXoXX.   .XXXoo+OoOO+++OOoooOOoooXX",
"XXoooo...XXoooooooXXXX....XXX..XoXXX.  .XXXo++OO++++OooXoOooXX.X",
"oXXoOOoX..XXXXXXXXX.....XXXXXX..XXXX..  X.XXO++++++OoXXoOooX..XX",
"oO+OOOOOoXX. .XX..  ..XXooXooXXXXoX.X.  ..XoooO+++OOOOoOOoX..Xoo",
"OOO+++OooooX. ..   XXooXXoooooX.XooXX. ..XoooOOOOOOoOOOOoo. XoXo",
"ooOO+++OooooXX. ..XooooooOOOOoXX.ooXX. . .XooooOOOoOOOooOX. oooo",
"oO+++OOOOOoooX  .XoooooO++++OOoXXOoXX  .  XoooOOOOOOoooOoX  XoOo",
"+++OOOOO++OOoX ..oXooO+++++++OOXoOoX. ... .oXoooooOOOOooX. .XoOO",
"O+++OOO++OOooo..XXXoO++++++++OOoOoXX..XX.. XoooooOOOOoXX. ...ooO",
"oOOO++OOOoooooX.oXoo++OOooO++OOoooXX.XXXXX XXXXoooooX.  ...  Xoo",
"ooOooOOoooooOoX.oooO+OOooO++OOoXooX..XoooX..XXoooX.   .XXX..  oo",
"oXooOOOOoooOoXXXoooO+OOOO++OooXooXX .XXoooX.XXXX..  .XooooXX. Xo",
"ooXoooOOOOooXX.oXoo+OOOOOOoooOOooX. XooOOOoX.X..  .XXoooOOooX .o",
"ooOOooooooXXXX.oooO+OOooooooOOooXX  oXooOOOX... .XooooOOOooXXX X",
"XooOOOooX..XXXXoooOOOooooooooooXX. .ooOOOOOoX.. XXoOOooOoooooX .",
".XX..XX...XX.XXooooOOooooooXXXX.. .XoOO+++OOo.  XoOOooOOOOOoooX.",
"XX..XooooXXXX.XooooOooooXXXX...X..XXoO+++++OoX .oOooOOO++OOOoXX.",
"XXooooooXXoXX.XXoooooooXXooO++ooX.XoOO+++++OOX..oooO+++OOOOOooXX",
"ooOOoOOOOoooX..XooooOoXXoO+++++OoXXoO++OO+++OX.Xooo+++OOOOOooo.X",
"oOOooooOOO+ooX.XXooooOXoO++++O++oXXoO+OOOO++O..oooO++OOooOOooX.o",
"OoooooOOOO+OoX..XXoooXoo+++OOOOoOX.oo+OOoO++o.Xooo+++OooOOoXoXXo",
"oooOOOOOO+OOoo. .XXXXXoO++OOooOOoo.Xo+OooO+OX.oOoO++++OOOoXooXXo",
"oOOOOOO+++oooOX  XX.XooOO+++OooooOXXoOOoOO+O.XooOOO+++++OOooXXoo",
"O+OO+++++OOooOX. X.XXoOOOO++++OooOXXOoOOO+OOXXXooOOOooOOoooo.Xoo",
"OO++++++OOooOoXX ..XXoOOO++++OOOOoX.oooOOOOOoXXoOOoooOOoXXoX.oXo",
"OoOOOOOOOooooXXX..XXoOoOOoOOOOOOooX XOOOOOOoooXXoooooooXXoo.Xooo",
"ooOOOOOooooX..XXX.XXoOoooOOOOooooX. XOOoOOOooXo.XoooooooooXXXOoo",
"oooOOooooXXXXooooXX.ooooOOOoooOXXX  .oOooOOOooO.XX..XoooXXXXOooo",
"oXXooooo.XXoXXooooo.XoOOoooXoOooX.  .XoXoooOOOoXX..XooXX..XXOooo",
"XXoooOo.XXooooooOOoX.ooooXXoooXX.  ...XXooXXoooX.XoooooooX.Xoooo",
"ooooOoX.oXooooOOOoooXXooooXX..   .... .XXooXXoXXXooOOOoooo.XoOoo",
"ooooXo..ooXooO+OoooooXXXXX......XX....  ..XXXX..XoOOOooOOoX.XOOo",
"OooooX.XooooOOO+OooXoXXX...XXXX..XXX...   .XX..XooooOO++OOX.XoOO"
};
