/* XPM */
static const char *dead_brain_coral_block[] = {
/* columns rows colors chars-per-pixel */
"64 64 6 1 ",
"  c #5D5A59",
". c #686463",
"X c #746A66",
"o c #867B77",
"O c #99938D",
"+ c #A4A09C",
/* pixels */
"oooXXooXXXoooooooooooXXXooOOo...     .        .....XooOOOooooooo",
"ooXXooXXoXXXoXooooXXXoXoooOOo..     ....    ..  .....XooOOoooooo",
"ooooXoXXXoooXXXXXXXXXXoooo+O. .   .  ..  ..  ..   .....XooOOoooo",
"oooXXXooooXXXXXooXXoooooooO+.      ...    ...      .. XXXooOOOoo",
"XXXoooooXXXXooXXXoooooooo+++          .... . .   ..  ....XXoOOOo",
"oXoooXXXXoooXXXoooooXoooOO++         ...        ....    ...XooOO",
"OOoXXXXooooXXoooooXXoooOOOOO.               ..     ...    . Xoo+",
"++OoooooooooooooXXXoooOO++OO.                ..   ..  ...  .XXoO",
"OO+++ooooooooXXXooooOO++++++o.           . ..   ...  ......XXoXo",
"oOO+++OOooXXXXooooOOO++++OOOOo            ..     ...... .X.oXooo",
"ooOOO++++++OOOO+++OOOOO+++OOOoo..      ..   .. ....  ..  .XooooX",
"oXoO++++++OOOOOO++++OOOOO++OOOoo        ..    ....  ..  ..XoooXX",
"X.oOOOooooXX.  ....XXXoOOOOOOOOooo.       ..   .      ...XooooX.",
".XOOoooX..    .  .X..XXXooOOOOOOo....        ..        oooooXo..",
"XoOooX.. ..          ...XXooO++OOo.. ..  ..          ...ooooXX.X",
"ooooXXX..           ...XXXXooo++OOooo........       ..ooOooXX.XX",
"XXoX..                  ..XXXXoo++OOooo.....    .....oOOooXX...X",
".oX..                     ..XXXoo+++OOoo.oo......oooOOOooX....XX",
".X.                 ..     ..XXXooOO+++OO+OOoooOOOOOOOooX.    ..",
" .             .  ...     ....XXoXoOO+OO+++OOOOOOOOOOoo..      .",
".               ...    . .   .XXXXoooOOOOO++OOOOOOOoo.XX     ...",
"                 ...  ...   ..X.XXXoooooOOO+++OOOo..  .     ... ",
"            ..          ...   ..X.XXXooooXXOOO++o..            .",
"          ...        .         ..XooooooXX.Xo++O.        .  .   ",
"        ...    ....   .       ...oooX.  ..XXXXOO       ..  ...  ",
".        ... .. ....         ...XXoX. .   XoXoOOo       ....    ",
"          .......          ....XooXXX..X ..XooOOOo        ... ..",
".    ..  .........    .   ..XXooX....XXX..XXoOOOOOo.         ..X",
"X     ................  .XXXooX ..XX..XooXoooOOOO+OOo..   ...XXX",
"X.      ..XX.....  .....XXoooX   ..XXXooXXXoOOO++OOOOOoo..  ..XX",
"XX       ...XX....  ..XXXoooX...  ...XXXoooOO++OOoXXooOO++OooXXo",
"oX.     .. ..XoXX...XX.XXoOo.  ...XXX..XXoOO++Ooo...XXXoo+++OOoX",
"oXX.        ..XooXXX..XXoOoX..XXX..XXX..oO++OOoX.XX....XXoXo+OOo",
"ooXXX.       ..XooX..XXooOoXX..XXXX.XXXX+++++oooXXXX.. .XXoooO+O",
"OooXooX.   ..XXXXXXXXoooO+oXXXX.X.XXXooOO++OooXXXooXXX.   .XXoO+",
"+OoooXXXX..XXXXXXXooooO+++oooXX..XoXooO+++oo.XXXooXXXXXX.  .XXo+",
"++OOooooXXXXXoooooOOOO+++OOoXX..XXoo+++OoX..XXXXXXXXooXXXX. .XXO",
"+O++OOooooooooOO+++OOOOO++OOooXXooO+++oX...XXXXXXXoooXXXXoXX.Xoo",
"OOO+++++OOOOOO++++OOOOOOOO++OO++O++OoX....XXXXooXXXoooXXXXoXX.Xo",
"ooOO++OOOOOO+++++O++OOOoooooOOO++ooXX...XXXXoooXXXXXXXXXXXXXoooo",
"oOooooOO+++++++O+OO++ooXXooXXXXX..  ..XXXooXXoooooXXXoooXXooXooo",
"ooooXXooo+++++++OOOOOOooXXoooX..   . ..XXXXoooooXXXXoooXXXXXXXoX",
"oX..   ..XXoOO+OO+++OOOOooooX.   ...XXXXXXooooXXXXXXXXoooXXXXXXo",
"X.. .     ..Xoo++++OOOOOOOoX... ..XXXXXXooXXXXXXXXXXXXXXoooXXXoo",
".             ..ooOO++OOOOOoXX.....XoooXXXXXXXXXXXooXXXXXooooXoo",
"..               .oOO+++OOOoX....XXXXoooXXXXXXoooooXXXXooooooooX",
".                  .OO++++OOoX .XXXoooXXoooXoooXXXXXXooooXXooooX",
"   ..               oOOO+OOOoo .XXooXXXoooXXXXXoXXXooooXXXooOoXX",
"  .. .    ..         .OOOO++OoX .XXXooXXXXooXXooooooXXXoXooOooX.",
" .         ...        oOO++O+OX..XXXXooXXXXXooooXXXXXX.XooOOoXX.",
"    ..        .       .oOOO++++oX.XXXXXXXoooXXXXXXXX..XooOOooo. ",
"  ...                  .OOoOOO++oXXXXXXXooXXXXXXXX...XoOOOoooX..",
"...       ..         .  oOOoooOOOOoXXXXXXXXXXX.....XooOOoooX... ",
" .      ...    ..   ..  .+OOoXooOOOOooXoXXXX....XXooOO+ooXX.X.  ",
"     ....     ..XX...   .o+OOXXXooO++OoooXXXXoXoo+++++ooX...  . ",
"   ..XX...      .XX.     o++OoXoXoooO++OooXXoXOO+++ooXXooX... ..",
" ......XXX.      ..X.    .O+OOooXXXXoo++O+++OOOOOoXX.XXX..  .X. ",
"  .XX...XXXX.. ....XX .  .o+OOoooooXXooooO+OOoooX...XXX..  .XX..",
"..XXooX..X..XX......X..   o++OoooXXooXX..XXooooXXX...XXXX..XXXX.",
".XooXX....XXXXXX......    o+++oXXXooXXXX..XXXXXX...XXXoX..XXXX.X",
"XooXX.XXoXXoooXXXX..      XO+ooX.XX..XooXoXXXX..X.XXooX.XXooX..X",
"oooX...XXooooXXX..  .    .XO+oXX..XX...XXXooXXXXXXoooXXXoooXoX.X",
"XXooXXX.XXXoXXX..oXX. ...Xo+OoX.....  ... .XXXoooXXoooooooXXooX.",
"XXXXooXXXooXoo.XXXooX. XXooOOX.X..       .....XXXooooooooXoooooX"
};
