/* XPM */
static const char *dead_bubble_coral_block[] = {
/* columns rows colors chars-per-pixel */
"64 64 6 1 ",
"  c #5D5A59",
". c #686463",
"X c #746A66",
"o c #867B77",
"O c #99938D",
"+ c #A4A09C",
/* pixels */
"XXXXXX..XX..XXXOoOoOOOOOOOooooXXXX.XoOOOOOOoooOOX.XX...X.X..XX.X",
"X.X.XXX...X..XOoooOOOOOOOooOoX..XXXXooOOOOOOoooOoX.XX..XX.....XX",
".XXX..XX...XXXoooOOOOOooOOOoXX...XX.OoooOOOOOOooOX...X. . .X.XX.",
"XX...XXXXX..XXoooOO+OOOooOOoX..XX...oOoOOO++OOOoooX.....   XXX..",
"..XXoooXXXXX.XooOOOO+OOOOoOOoX..XX.XoOOOO++++OOOooXX...  .X.XXXX",
"XXooooooXX.X..XoOOOO++OOOOOOOoXX.XXXooOOO+++++OOooo.X...XX....XX",
"oooOooOoXXX..XXooOOOO++OOOOOOooXXX.XXOOoO+++++OOOooX.....XX..X.X",
"oOOooOOoXXXX.XXooOoOO++O+OOOOOoXX..XXOooOO++O++OOooXX..X....XXoo",
"ooOOOOOoXX.XXXXXoooOOO+++OOOOOooX.X.XXOOOO++OO+OOOooXX..XXXXOOoo",
"OOOOOOoX..XXXXXXooOOOO+++OOOooooXXX..XoOOOO+OOOOOOoo.XX..XoooOOo",
"OOOOoo.XX....XX.XooOOO++OOooooOoX.XX..XOOOOOOOOOOooX..XXXoooOOOO",
"OoooX.X.....XX..XooOoOO+OOOoOOoo..X...XoOOOOOOOooOoX..XXooOOOOOO",
"ooXXXX.  .XXXX..XXoOOoOO+OOOOOOo. .....XooOOOOooOoo..XXoOOOOOOOo",
"XXX...  ...XXX.X.XXoOooOOOOOOOOoX.  ..XXXoooOOOOooX..XoOoOOOOooo",
"X...  ...XXX..XX..XXoOoOOOOOOOoo....  ..XXoOOoooooX.XXOOO+OOooXX",
"XX.  ...XXX..XXXX...XoooOOOOoooX...  ..XXXXXoooooX.XXoOO++OooXXX",
".......XXoooXXXXXX.XXXooooOOOoX.XX..XX..XXXXXXX...XXXOO++OOoXXXX",
".....XoooooOooXXXXX..XXXoOooXX..XXX..XXXX.XX.....XX.oOO++OoOXXX.",
"XX..XoooOOOoOOoXX.XXXXXX.XXXX....XX.XXX..XXXX..XXX..OO++OOOoX..X",
"X..XooOOOOoooOOoXX..XX... XXXX.XXX.XX...XX..XXX..X.XOO++OoOXXX..",
"XXXXoOOOOOOOOooooXX....  ...XXXXXXXXXX.....XX.XX..XXoO+OOooXX.XX",
"XX.XoOooOOOOOOOoooXX.   ......XX..XX......XXXX.XXXXXoOO+OOo....X",
"XXX.XOOooOO+OOOOooo...  ..X.XXXXXX....XXXXXXooooXX.XXooOOoXX..XX",
"XXX.XoOOOoOO+OOOOooXX..  ..XX..XX...XXX.XXXoOoOOooX..Xoooo..X..X",
"XX..XXoOOOOO+O+OOOooXX..X ...XXooooXXXX..XoooOOOOOoX...XX..XXXXX",
"XX.X.XooOOOOO++OOOOoXX..XX..XXooooooX.XX.XoOOOOOOOOoXX..XXXXXXoo",
"oXXX..XoooOOO+++OOOOo.X..X..XoooOOOoo..X..OOOO++OOOOOooXXXXXoooo",
"oXXXX.XooOOOOO++OOOOoXXX.X.XXoOooOOOoX...XOO+++OOO++OOooOOoooOoo",
"oXX.X.XXoOOOOOO++OOOooXXX.XXoooOOOOOOo..XXoOO+++++++++OOoooOOooO",
"oXX...XXooOOOOO++OOOOoXX..XXoOOOOOOOOoX.XXoOOO+++++++++OOoooOOOO",
"oXXX...XXoOoOOOO++OOOooXX.XoOOOOOOOOOOoX.XXoOOOO++++OO++OOOOOOOo",
"X.XXX...XooOOOOO+O+OOooX.XXoOOOOOOOOOooX..XoOOOOOO+++OOOOOOooOOo",
".XX.XXXXXXooOOO+Oo++OooXXXXoOOOOOOOOooooX.XooOoOOOOOOOOOOOooOOoo",
"XXXX..XXXXXoooOOooO++OoX.XoOOoOOOOOOOOoo..XXoooOOOOOoOOOOOOOOooo",
"XX.XX..XXX.XoOOOoooO+OoX.XoOoOOO+OOOOOOoXXXXooOoOOOOooOOOOOooooX",
"....XXXX..X.XoOOoOoOOOXXXXoooOOOO+OOOOOooX.XXoOOOOOOOoooOOOOoooX",
"..XXXX...XX..XoOOOooOoXX.XooOOOOO++OOOOOoX..XXoOOOOOOooooooooo.X",
"...XX..XXXXX..XoOOOooX.X..ooOOOO++++OOOOoX..X.XXooOOOOoooooooXX.",
"XX.... .XX.XXXXXXoooX.X...oOOO++++OOOOOOo.. .X..XXooOOOOooooXX..",
"X....    .XX..XXX...XXX..XoOO+++OOOOOOOoO.  .XX....XXoooooX.....",
".XXX... .....XXX...XXX..XoOOOOOOOOOoOoOOXX .XXXXXX...XX.X....X.X",
"..XXXX..  ...XXXXX..XX.XXOOOOOOOOOOOooOoX. X.XXXX...XX.XXX. XXX.",
"X..XoooooX..XX.XXXXX..XXoOOOO+OOOOOOOoooX ..ooooooXXX..X.  ...XX",
"XXoooOOooooXXXX.XXX..XooOOOOOO++OOOOOooX. .ooOooOOooXX....  .XXX",
"XooOOooOOooo.X..XX.XXooOOooOOOO+++OOOOo. .XoooOOOooooXXXXX.. .X.",
"XoOOooOOooOo.X.XX..XXoOOooOOOOOO+++OOOoX..ooOOOooooOooXXX...  ..",
"ooOoOOOOOOoooXXX..XXooOOOOOOO+++++++OoX..XoOOOOOooOOO+oXXXX.. .X",
"oooooOOO+OOOo.XX...XoooOOOO++++++OOOOoX.X.ooooOOOO+++OOo..XX...X",
"oOoOOO++++OOoo.X.X.XoooooO+++++OOoOOoX..XXoooOO+++++OOOOoX......",
"oOOoO++++++Ooo...XX.XoooOO+++OOOOOooo....XXoOO+++OO++OoOoo....X.",
"XOOOO+++OO+OOo..XXXXXooooOO+++OooOOoX.. .XXXOOOO++OO++OoooX..XXX",
"XoOOO++OOOO+OoX.XX..XXoooooOOOOOoooX..  ...XXoOOOoOOO+OoOOoX..XX",
"XXOoOO+OOOoOooXX.XX...XoooooooooooX..  .XX...XoOOOooO++OOOooXXXX",
"XXoOOO++OOOoooXX..XX....XXooooooXX.... ..XXXXXXooOOoo++OOooOoX.X",
"XXXOoOO++OOOoXXXX.XXXX...XXXX..XXXX.  .XXXX.X..XooooOO++OoOOoXX.",
"XXXoOoOOOOoooXXXXX.XX..XX..XXX..XX... ..XXXX..XXXXoOOOO+OOOOOoX.",
".XXXOooOooOoXX..XXXX..X.XoOoXXXX.X.X .X..X..XX..XXXooOOO+OooooXX",
"..XXooOOOooXX..XX.XXXXooOOOOooX....X..XXXXXXXX...XXXooOOoooooooX",
"X..X.oooooXXXXX..XXXoOOOOOOooooXX..XX..XooXX...XX..XXXoOOooOoooX",
"X...X.ooXXXX..  ..oOO+++OO++OOooX.XX.XXoooooX.XX..XXXXXoOOOoooOo",
"XX...XX..XX.  ..XoOOOOO+++OOOOOoXXXXXXoOOOOooXXXXX..XXXXoOOOOOOo",
"XXX.XXXX..   ...oOOO+O+++OOOOOOoXXX.XXOOooOOOoX.XXX..XXXoooOOOoo",
"..XXXXX.X..XX..XoooOO++OOOOooOoXX..XXoOooOOOOOoX.XXXXXXXXooooooo",
"X..X..XX..XX..XoooooOOOOOOOOoooX....XOOOOOoOOOOo..X.XX..XXoooooX"
};
