/* XPM */
static const char *deepslate_tiles[] = {
/* columns rows colors chars-per-pixel */
"64 64 6 1 ",
"  c gray14",
". c #2D2D2D",
"X c #383737",
"o c #414141",
"O c #4B4C4F",
"+ c #585858",
/* pixels */
"...............................................         ........",
" ......... .     ........  .        ........              ....  ",
"oooooooooooooX  ++++++OO++++++++++OOOO++++++OOooOOOOooOOOOOOOo. ",
"XXXXXXXXXXXXX.  +OOOOOOOOOOOOOOOOOOOOOOOOOOooooooooooooooooooX. ",
"XXXXXXXXXXXX..  +OOOOOOOOOOOOOOOOOOOOOooOOOOoooooooooXXXXoooXX..",
"XXXXXXXXXXX...  +OOOOOOOOOOOOOOOOOOOoooOoOoooooooooXXXXXooXXXX..",
"ooXoXXXXXXXX..  +OOOOOOOOOOOOOOoooOOOoooooooooooooXXXoXXXXXXXX. ",
"oooXXXXXXX....  +OOOOOOOOOOOOOoOooooOOoooooooooooooXooXoXXXXXX..",
"oXXXXXXXXXX...  +OOOOOOOOOOOOOOOOoooooooooooooooooooXooXXXXXXX..",
"ooXXXXXXXX..X.  +OOOOOOOOOooooOOoooooooooooooooooooooXXXXXXXXX. ",
"XXXXXXX..XXXX.  +OOOOOOOoOOoooooOOoooooooooooooooooooXXXXXXX.X. ",
"XXXXXX..XXXX..  +OOOOOOoooooooooooooooooooooooooooooXXXXXoXX... ",
"XXXXXXXXXX....  OOOOOOOOOoOoooooooooooooooooooooooXXXXXooXXX..  ",
"XXXXXXXXX.....  +OOOOOOOoooOooooooooooooooooooXXoooXXXXXooXXX.  ",
"XXXXXXXXXXX...  +OOOOOOOOOoooooooooooooooXXoooooXXXXXXooXXXXXX  ",
".XX.XXXXXX....  +OOOOOOOooooooooooooooooXXXXXoXXooXXXXXXXXXXXX. ",
"...XXXXXX.....  +OOOooooooooooooooooXXoooXoXXXXooXXXXXXXXX..XX..",
"..XXXX........  +OOOOooooooooooooXoooXXXooXXXXXXXXXXXXXX.XX..X. ",
".....XX.......  +OoooooooXXXooooooXXXXXXXXXXXXXXXXoooXXXX.....  ",
"..............  OoooooXXooXXXXooXXXXXXXXXXXXXXXXooooXX........  ",
"                .......................................         ",
"                ........   ..  .     ...        . ..            ",
"++++++++++OOOO++++OOOO++OOOOOOOOoo  ooooooooooXXXXooooooXXXXXX..",
"OOOOOOOOOOOoOOOOOOOOOOOoooooooooXo. oXXXXXXXXXXXXXXXXXXX..X.XX..",
"OOOOOOOOOOOOoooOOOOOooooooooooooXX. oXXXXXXX...XXXXX...XX..XXX..",
"OOOOOOOOOOOOOOooOOooOooooooooooXXX. oXXXXX....XXXXX.X....XXXXX..",
"OOOOOOOoooOOOOOOoOOoooooXXoooXXXXX..XXXXXXX.....XXXXXXX.XX..XX..",
"OOOOOooOOOOOOOoOOOoooooXXXXXooXXXX..oXXXX.........XXXX.....XXX. ",
"OOOOooOOOOOoooOOooooooXXoooXXXX.XX..oXXXXX................XXXX  ",
"OOoOOoooOOOOooooooooooooXoXXXXXX.X..oXXXXXXX...........XXXXX.X  ",
"OoOoooooooOOOoooooXXooXoooooXXXX....oXX.XXX.............XX...X. ",
"OOooOooooooooOOooooXXXoooooooXXXX...oXXX..................X..X. ",
"OOOooOOOoooooooXXXXXXoooooXXXXooX...X..XX.......X...........XX..",
"OOOOOoOOOoooooooXXXooooXXXXXXooXXX..XX........XX...........XX.. ",
"OOOOOOOoooooooXXXXXXooooXXXXXXXXXX..XXXX.......XXXX...   ...  . ",
"OOOOOOOOooooXXXXXXXXXXXXooXXXXXXX...XXXXXX..XXXXXX.....   ...   ",
" ................  ...........        ............              ",
"   .........  .       .....             ....  ..                ",
"..XoooooooooXXXX..  O+++++++++++OO++OOOO++++++++++++++OOoOOooXXX",
". oooXXXXXXXXXX...  OOOOOOOOOOOOOOOOOOOOOOOOOOOOOOOOOoooooooooX.",
". oXXXXXX..XX.....  OOoooooooOoOOOOOooooOOOoOOooooooooooooXoXX..",
". XXXXXX....XX....  OoooooooooOOOOOOOooooooOOooooooooooooooXXX..",
"  oXXXX.XXX.......  OoooooooOOOOOooooooooooooooooooXXooooXXXXX..",
"  oXXXXXXX........  OOoooooooOOOoooooooooooooooooXXXooXXXXXX.X..",
"  XXXXXXXXXXX....   OOoOooooooooOOooooooooooooooooXXXXXXXXXX....",
"  XXXXXX..XX....    OOOoooooooooooooooooooooooooXXXXXXXXXXXX....",
"  XXXX.XX.........  OOoooooooooooooooooooooXoooXXXoXXXXXXXX.....",
"  XXX............   OooooooooooooooooooooXXoooooooXXXXXXX.X.....",
"  XXXXX...........  OooooooooooooooooooXXXooXXoooXooXXXX........",
"  X.XX...XX..X....  OooooXXooXoooooXXXooXXXooXXXXXXXXXXXXX......",
"  X...XX..XXX.....  OoooooXXXooooXXXXooXXXXXXXX..XXXX.XX........",
"  .....XXXXX......  oXooXXXXXXXoooXXXXXXXXXXX.XX..XXXX......... ",
"                    .........................................   ",
"                      .......    ... .  ..         .....        ",
"OoOOOOOOOOoooooooooOoOOoOOOOOo. XooooooooooooXXX... oOOOOOOOOOOO",
"oooooooooooooooooooooooooooooX...XXXXXXXXXX..XXXX.. oooooooooooo",
"oooooooooooooooooooooooooooooX..XXXXXXXXXXXX...XX...oooooooooooo",
"oooooooooooooooooooooooooooooX..X.XXXXXXXX....XXXX. oooooooooooo",
"oXXXoooooooooooooXooXXooooooXX....XXXXXX....XX.X.X. OoooooXXoooo",
"XooXXXoooooooooXXoooooXXooXXXX...XXXXXX....XXXXX... OooooXXooooX",
"ooXXXoooXooXXoooXXXooXXXXXXXXX..XXX..XXXX.X.XXX.... ooXXoooXoXXo",
"oXoooooooXXXooXXXXoooooXXXXXXX..XXXX..XXXX...XXX... oXXoXoooXXXX",
"XXXooooXXXooXXXXXXXXooXXXXXXXX..X...X.............. oXXXooXXXXXX",
"XXooXXXXXooXoXXXXXXXXXXXXXXXXX...X................  ooXXXXXXXXXX"
};
