/* XPM */
static const char *deepslate_copper_ore[] = {
/* columns rows colors chars-per-pixel */
"64 64 13 1 ",
"  c #2F2F37",
". c #3D3D43",
"X c #3A685A",
"o c #3A7663",
"O c #515151",
"+ c #646464",
"@ c #797979",
"# c #C16746",
"$ c #E0734D",
"% c #818058",
"& c #F38268",
"* c #599581",
"= c #4FBA98",
/* pixels */
"@++++++OOOOOOOOOOOOOOOOOOO... ..O++++OOO++++OOOOOOO...OOOOOOOOO+",
"@+++++++OOOOOOOO...OOOOO..... ..++++OOO++++++OOOOOOO. ..OOOOO+++",
"++++++OO..OOOO....OOO..    .....OO++++++++OOOOOO...  .....OOOO++",
"+++OOOO.....OOO..........      .O+++++++OOOOOOOOO.     ..OOOOOOO",
"OOOOO....       ..  .......   ...OOO++++++++++OOOO....OOOOOOOOOO",
"OOO...   ..        .......  .....OO+++++++++OOOO.....OOOOOOOOO..",
" ...   .OO..   ..    .............OO+++++++OOO...  .  .OOOO.... ",
".....OOOO.      .....  .............O+++OOOOO.      .....OOO..  ",
".O+++@@@@   **oo++++OOO.. ........        .     $&&$....      ..",
"..OOOO+@ .o**oX@OOOOOOOO..  ..         .....  $$&&$#+       ....",
"...O++++.o*ooX@++OOO........        ..OOOOO $$&&$##@+.    ..  ..",
".OOOO+++@@oo@@++OO...   .....   ...OOOOOOOOOO$$&##@+.   ...  ...",
"OOOOOOO+@@@@+OO....        ...OOOO++@@++@@@@@@##@@+OOOOO+++OOOO.",
"..OOOOOO@++OOOOO....  oooo   ..OOOOOO+++++@@@@@@@+++OO++++++O...",
"....OOOO@+OOO..OOO   ooo%%ooo....OOOOO+++++@@@++++++++O+++OOOO..",
".. ...OO+OOOOOOOO.. oo%%%#%%oo..OOOO++++++++@@+++++OOOOOO++O....",
"  .....OOOOO...    o%%###%#%#%o%++++++++++++@++++OOOOOOOOOO.....",
".   .OOOOOOOO...  ooo##$$#%###%%%%++++++++++@+++OOOOOO++OOOOOO..",
"      ........  ooo%#%###$#$#$$###%++OO+++++@+++++OOOOOOOOOO... ",
"        ....  oo%%%o%#$#$&$#$$##$##%+++OOO++@++++++++++OOO.     ",
"@@@@@@+++++OOo%%%####$$&&$&$$&&&#$++++++OOO+@+++OO+++OOOO+++++@@",
"@@@@+++++OOOo%%##%##$$&&&&&&&$&@@+++++OOOOOO@+OOO+++++OOOOOO+++@",
"@@++++OOOOOOOoo%###$#&$$$&$&@@@+OOOOOOOOOOOO+OOO++++OOOOOOOOOO++",
"@++++++OOOOOOOoo##%##$$$@@@@+OOOOOOOOO....OO+O.    ..O....OOO+++",
"@++++++++++O..O++@@@@@@@++O.....OOOOO........  oo%      .OOOOOO+",
"@+++++++++O.....OOOO.     ........OOOOO....   oo%%oo      .OOOOO",
"++++++++OOOOOO....     ...   ..OO..OOOOOO.  o%%***%oo  .......OO",
"+++++OOO..OO.......      ..     .OOOOOO.  oo%%*****%%o  ....OOOO",
"++OOOOOOO............   O+@@@@@@++++++. oo*==**=*==*%##...OOOOOO",
"+OOOOOO.......   ...   .OO++@@@++++OO.Xoo***==**==*%##$#OOOOOOOO",
"OOOOO.... ..      ......++++@@++++OO.Xoo**======***##$&$#OO....O",
"OOOO......     ...   ...O+++@@++++++XXXo*==*=*=***#%$&$&$##O....",
"OOOOOO.....   oo...   ..OO++@+++++++++XXXo***=%**%%$$$&&&&$#@.OO",
"OOO..   ..  oooooo.....OOOO+@+++++OOOO++XXoo%%**%*%%&&$&$$#@+..O",
"OO..       ooo%*%%o%..OOOOO+++++OOOOOOO+++XXo%%%*%%&&$$$##@+OOOO",
"OOOO...   oo***%%%%%%%OOOOOO+++OO+++OOOO++@XXo%%%%$%$@@@@@+..OOO",
".....   oo***=***%%*%%%OOOOO++OO+++OO...O++@oXXooo@@@@++.    ...",
"...   ooo==*====***%%%%%OOOO++OOOOOO......OO@@XXo@@++OO...      ",
"....ooo*=*==*==*==**%%@+OOOO+OOOOOOOOO.     .O@@@+OOOOOOOOOOOO..",
"OO...o***o*==**=***%@@+OOO..+OO..OOOO...     .O++OOOOOOO++++OOOO",
"+++OO+ooo*o===**%*@@+O.....  .   ......    .....OOO++++++@@@@@@@",
"++OOOO++oo==*==%*@@+..OO.. ....    ..     ... ..OOOOO+++@@@@@+++",
"++++OOOO+@oo=**=@++....OOO.......   ....OOOO.. .OOOO++++@@@+++++",
"++++++OOOO@@o*@@++..OOOOOOOO...........OOOOOOO .OOOOOO++@@++++++",
"+OOOOOOOOOO+@@@+..O+@@@@@@+@@@++++OO...OO..OO.  .OOOOOO+@@++++++",
"++OOOOOOOOOOOO..OOO@@@@@++++%%##+++OOO..OO...   .OOOOOO+@+++++++",
"+++++OOOOOO....OOO+@@+++++o%%#$$##++O.....       .OOOOOO@+++++++",
"+++++++O..   ....O+@++++oo*%#$$#$##OOOO....   ......OOOO@+++++++",
"++++OOOOOO.      .@++++o%*%%$&&$#$$$#OOO.  ... ..OOOOOOO+++++OOO",
"++OOOOOOO...    .O@+++oo***%$$&&$$&$$##.  ........OOOOOO+++OOO++",
"OOOOOOOO... ooo...+Oooo%%%*$##$$&&$&&$$#....  ......oooOO+++OOOO",
"OOOOOO....ooo%ooOOOO+o%o%*$##$$&&&&&$$#@..     ....oo*ooo*O+++OO",
"  ..    oo%%*o*%.OOOOOooo%%%%#&&$%%ooo@+    ....  ooo*==****..  ",
"...... oo%%***%+..OOOO++oo%%$&$$%%oo@@+  ......... o*======.    ",
"OOOO...+ooo%*%++ ..OOOOOOOo%%$%%oo@@+O..OOOOOOOOOOO.o**=*=....OO",
"OOOOOOOO++oo+++    ..OOOOOOo%%%o@@++++++OOOOOOOOOOOOOO**=  .OOOO",
"@@@@@@@@++++++OOOO....  ..  @@@@+OO++++@@@++++OOOOOOOOOO++@@@@@@",
"@@@@@+++++++++++OOOOOOO..       ..OO++@@+++++OOOOOOOOO++++++@@@@",
"@@@++++++++OOOOOO+++OOOO....     .OOO+@@@+++++++++OO++++++++++@@",
"@@++++++++++OOOOOOOOOOOO..     ...OOO+@+++++++++OOO++++++++++++@",
"@@@@++++++OOOO++++OOOO.....    ..OOOO+@+++++OOOOOOOOOO+++OOO++++",
"@@@@@@+++OOO++++++++OOO......   .OOOO+@+++++++OOOOOOO+++++++++++",
"@@++++++++++O++++OOOO.....O..  ..OOOOO+++++++++++OOOOOOO++++OO++",
"@++++++++++OOOO+++OOOO..OOO.. ..OOOOOO++++++++++OOOOOOOOO++OO+++"
};
