/* XPM */
static const char *destroy_stage_9[] = {
/* columns rows colors chars-per-pixel */
"64 64 3 1 ",
"  c gray24",
". c #9B9B9B",
"X c None",
/* pixels */
"XXXXXXXXX XXXXXXXXXXXXXXXX XXXXX.XXXXXXXXXX XXXXX XXXXXXXXX.XXXX",
"XXXXXXXXX XXXXXXXXXXXXXXXX XXXXXXXXXXXXXXXX XXXXX XXXXXXXXXXXXXX",
"XXXXXXXXX. XXXXXXXXXXXXXX .XXXXXXXXXXXXXXXX XXXXX XXXXXXXXXXXXXX",
"XXXXXXXXXX. XXXXXXXXXXXX .XXXXXXXXXXXXXXXXX XXXXX XXXXXXXXXXXXXX",
"XXXXXXXXXXX.  XXXXXXXX  .XXXXXXXXXXXXXXXXX .XXXXX XXXXXXXXXXXXXX",
"XXXXXXXXXXXX..        ..XXXXXXXXXXXXXXXXXX XXXXXX. XXXXXXXXXXXXX",
"XXXXXXXXXXXXXX........ XXXXXXXXXXXXXXXXXX .XXXXXXX XXXXXXXXXXXXX",
"XXXXXXXXXXXXXXXXXXXXXX. XXXXXXXXXXXXXXXX .XXXXXXXX. XXXXXXXXXXXX",
"XXXX XXXXXXXXXXXXXXXXXX. XXXXXXXXXXXXX  .XXXXXXXXXX XXXXXXXXXXXX",
"XXXX. XXXXXXXXXXXXXXXXXX. XXXXXXXXXX  ..XXXXXXXXXXX. XXXXXXXXXXX",
"XXXXX. XXXXXXXXXXXXXXXXXX. XXXXXXX  ..XXXXXXXXXXXXXX XXXXXXXXXXX",
"XXXXXX. XXXXXXXXXXXXXXXXXX. XXXX  ..XXXXXXXXXXXXXXXX XXXXXXXXXXX",
"XXXXXXX. XXXXXXXXXXXXXXXXXX. X  ..XXXXXXXXXXXXXXXXXX XXXXXXXXXXX",
"XXXXXXXX.     XXXXXXXXXXXXXX. ..XXXXXXXXXXXXXXXXXXXX. XXXXXXXXXX",
"XXXXXXXXX .... XXXXXXXXXXXXX .XXXXXXXXXXXXXXXXXXXXXXX XXXXXXXXXX",
"XXXXXXXX .XXXX. XXXXXXXXXXXX XXXXXXXXXXXXXXXXXXXXXXXX XXXXXXXXXX",
"XXXXXXX .XXXXXX. XXXXXXXXXX .XXXXXXXXXX   XXXXXXXXXXX XXXXXXXXXX",
"XXXXXX .XXXXXXXX XXXXXXXXXX XXXXXXXXXX ...XXXXXXXXXXX. XXXXXXXXX",
"XXX   .XXXXXXXXX XXXXXXXXX .XXXXXXXXX .XXXXXXXXXXXXXXX    XXXXXX",
"   ...XXXXXXXXXX XXXXXXXXX XXXXXXXXXX XXXXXXXXXXXXXX  ....  XXXX",
"...XXXXXXXXXXXXX. XXXXXXX .XXXXXXXXXX XXXXXXXXXXXXX ..XXXX.. XXX",
"XXXXXXXXXXXXXXXXX XXXXXXX XXXXXXXXXXX. XXXXXXXXXXX .XXXXXXXX. XX",
"XXXXXXXXXXXXXXXXX XXXXXX .XXXXXXXXXXXX XXXXXXXXXX .XXXXXXXXXX. X",
"XXXXXXXXXXXXXXXXX XXXXXX XXXXXXXXXXXXX. XXXXXXXX .XXXXXXXXXXXX. ",
"XXXXXXXXXXXXXXXXX. XXXX . XXXXXXXXXXXXX. XXXXX  .XXXXXXXXXXXXXX.",
"XXXXXXXXXXXXXXXXXX XXX .X XXXXXXXXXXXXXX XXX  ..XXXXXXXXXXXXXXXX",
"XXXXXXXXXXXXXXXXXX X  .XX. XXXXXXXXXXXXX X  ..XXXXXXXXXXXXXXXXXX",
"XXXXXXXXXXXXXXXX    ..XXXX XXXXXXXXXXXXX  .. XXXXXXXXXXXXXXXXXXX",
"  XXXXXXXXXXXXX ....XXXXXX. XXXXXXXXXXX ..XX. XXXXXXXXXXXXXXXXXX",
"..  XXXXXXXXXX .XXXXXXXXXXX. XXXXXXXXX .XXXXX XXXXXXXXXXXXXXXXXX",
"XX..  XXXXXXX .XXXXXXXXXXXXX. XXXXXXX .XXXXXX XXXXXXXXXXXXXXXXXX",
"XXXX..  XXXX .XXXXXXXXXXXXXXX.  XXXX .XXXXXXX. XXXXXXXXXXXXXXXXX",
"XXXXXX.. X  .XXXXXXXXXXXXXXXXX..    .XXXXXXXXX XXXXXXXXXXXXXXXX ",
"XXXXXXXX. ..XXXXXXXX    XXXXXXXX. .XXXXXXXXXXX XXXXXXXXXXXXXXX .",
"XXXXXXXXX XXXXXXXXX ....XXXXXXXXX XXXXXXXXXXXX. XXXXXXXXXXXXX .X",
"XXXXXXXXX XXXXXXXX .XXXXXXXXXXXXX. XXXXXXXXXXXX XXXXXXXXXXXX .XX",
"XXXXXXXXX XXXXXXX .XXXXXXXXXXXXXXX XXXXXXXXXXXX. XXXXXXXXXX .XXX",
"XXXXXXXXX XXXXXXX XXXXXXXXXXXXXXXX XXXXXXXXXXXXX. XXXXXXXX .XXXX",
"XXXXXXXXX XXXXXXX. XXXXXXXXXXXXXX . XXXXXXXXXXXXX. XXXXXX .XXXXX",
"XXXXXXXXX XXXXXXXX. XXXXXXXXXXXXX X XXXXXXXXXXXXXX. XXXX .XXXXXX",
"XXXXXXXXX.XXXXXXXXX. XXXXXXXXXXXX X. XXXXXXXXXXXXXX. XX .XXXXXXX",
"  XXXXXXXXXXXXXXXXXX XXXXXXXXXXX .XX. XXXXXXXXXXXXXX.  .XXXXXXXX",
".. XXXXXXXXXXXXXXXXX XXXXXXXXXXX XXXX. XXXXXXXXXXXXXX .XXXXXXXXX",
"XX. XXXXXXXXXXXXXXXX. XXXXXXXXXX XXXXX. XXXXXXXXXXXXX XXXXXXXXXX",
"XXX. XXXXXXXXXXXXXXXX XXXXXXXXX .XXXXXX.  XXXXXXXXXXX XXXXXXXXXX",
"XXXX XXXXXXXXXXXXXXXX XXXXXXXXX XXXXXXXX..  XXXXXXXXX XXXXXXXXXX",
"XXXX XXXXXXXXXXXXXXXX.         .XXXXXXXXXX..  XXXXXXX. XXXXXXXXX",
"XXXX. XXXXXXXXXXXXXX  ......... XXXXXXXXXXXX..  XXXXXX. XXXXXXXX",
"XXXXX XXXXXXXXXXXXX ..XXXXXXXXX. XXXXXXXXXXXXX..XXXXXXX.  XXXXXX",
"XXXXX XXXXXXXXXXXX .XXXXXXXXXXXX. XXXXXXXXXXXXXXXXXXXXXX..  XXXX",
"XXXXX. XXXXXXXXXX .XXXXXXXXXXXXXX. XXXXXXXXXXXXXXXXXXXXXXX..   X",
"XXXXXX. XXXXXXXX .XXXXXXXXXXXXXXXX. XXXXXXXXXXXXXXXXXXXXXXXX... ",
"XXXXXXX.  XXXXX .XXXXXXXXXXXXXXXXXX. XXXXXXXXXXXXXXXXXXXXXXXXXX.",
"XXXXXXXX..  XX .XXXXXXXXXXXXXXXXXXXX XXXXXXXXXXXXXXXXXXXXXXXXXXX",
"XXXXXXXXXX.. X XXXXXXXXXXXXXXXXXXXXX XXXXXXXXXXXXXXXXXXXXXXXXXXX",
"XXXXXXXXXXXX.  XXXXXXXXXXXXXXXXXXXXX            XXXXXXXXXXXXXXXX",
"XXXXXXXXXXX  .. XXXXXXXXXXXXXXXXXXX ............ XXXXXXXXXXXXXXX",
"XXXXXXXXXX ..XX.  XXXXXXXXXXXXXXXX .XXXXXXXXXXXX. XXXXXXXXXXXXXX",
"XXXXXXXXX .XXXXX..   XXXXXXXXXXXX .XXXXXXXXXXXXXX.  XXXXXXXXXXXX",
"XXXXXXXXX XXXXXXXX...   XXXXXXXXX XXXXXXXXXXXXXXXX..    XXXXXXXX",
"XXXXXXXX .XXXXXXXXXXX...XXXXXXXX .XXXXXXXXXXXXXXXXXX....  XXXXXX",
"XXXXXXXX XXXXXXXXXXXXXXXXXXXXXXX XXXXXXXXXXXXXXXXXXXXXXX.. XXXXX",
"XXXXXXXX XXXXXXXXXXXXXXXXXXXXXXX XXXXXXXXXXXXXXXXXXXXXXXXX. XXXX",
"XXXXXXXX XXXXXXXXXXXXXXXXXXXXXXX XXXXXXXXXXXXXXXXXXXXXXXXXX XXXX"
};
