/* XPM */
static const char *detector_rail_on[] = {
/* columns rows colors chars-per-pixel */
"64 64 17 1 ",
"  c #513D24",
". c #67502C",
"X c #7E6237",
"o c #735858",
"O c #686868",
"+ c #796E6E",
"@ c #72796E",
"# c #AB0301",
"$ c #D40102",
"% c #967441",
"& c #A6824D",
"* c #9B8A8A",
"= c gray61",
"- c #A79393",
"; c #B59D9D",
": c #ABACAB",
"> c None",
/* pixels */
">>>>>>>>==:::=@O>>>>>>>>>>>>>>>>>>>>>>>>>>>>>>>>O@=::=:=>>>>>>>>",
">>>>>>>>==:::=@O>>>>>>>>>>>>>>>>>>>>>>>>>>>>>>>>O@=::=:=>>>>>>>>",
">>>>>>>>==:::=@O>>>>>>>>>>>>>>>>>>>>>>>>>>>>>>>>O@=::=:=>>>>>>>>",
">>>>>>>>==:=:=@O>>>>>>>>>>>>>>>>>>>>>>>>>>>>>>>>O@=::===>>>>>>>>",
">>>>&&&X==:=:=@O%&&&%%&&%%%%&&&&&&&&%%&&&&&&&&&&@@=::===&&&&>>>>",
">>>>&&&X==:=:=@O%%%&&&%%%%&&&&&%%&&&&&%%%X%&&&&%@@=::===&&%%>>>>",
">>>>%%&%====:=@OX%&&%%&&&&&&%%&&&%&%%&&&%%XX%%%%@@=::===&&&&>>>>",
">>>>&&%X====:=@OX%%%%&&&%%&&&&%%%&&&&&&&&&&%%%%X@@=::===%%&%>>>>",
">>>>%XXX:==::=@OX%%&&&%%XX%XX%%&&&&&%%%&&&%%%XXXO@=::==:X%%%>>>>",
">>>>%%XX:==::=@OXX%%&&&%%XX%%%&&%%&&&%%%%%&&&%XXO@=:::=:XXX%>>>>",
">>>>XX..::=::=@O...XX......XX.XXXX.....XXXXX....O@=:::=:...X>>>>",
">>>>.   ::==:=@O ...    .  ..... ..   ..  ....  O@=:::=:  ..>>>>",
">>>>>>>>=:==:=@@>>>>>>>>>>>>>>>>>>>>>>>>>>>>>>>>O@=:::==>>>>>>>>",
">>>>>>>>=:=::=@@>>>>>>>>>>>>>>>>>>>>>>>>>>>>>>>>O@=::::=>>>>>>>>",
">>>>>>>>=:=::=@@>>>>>>>>>>>>>>>>>>>>>>>>>>>>>>>>O@=::::=>>>>>>>>",
">>>>>>>>=:=::=@@>>>>>>>>>>>>>>>>>>>>>>>>>>>>>>>>O@=:::::>>>>>>>>",
">>>>>>>>===::=@@>>>>>>>>>>>>>>>>>>>>>>>>>>>>>>>>@@=::=::>>>>>>>>",
">>>>>>>>==:::=@@>>>>>>>>>>>>>>>>>>>>>>>>>>>>>>>>@@=::=:=>>>>>>>>",
">>>>>>>>==:::=@@>>>>>>>>>>>>>>>>>>>>>>>>>>>>>>>>@@=::=:=>>>>>>>>",
">>>>>>>>==:::=@@>>>>>>>>>>>>>>>>>>>>>>>>>>>>>>>>@@=::=:=>>>>>>>>",
">>>>&&&%==:=:=@@%&&&########################&&&%@@=::===%&&&>>>>",
">>>>%%&&==:=:=@@%%%%#$#$$$#######$$$$$#$####%&%%@@=::===%%%&>>>>",
">>>>&&%X====:=@@X%%&#$;;;--;;;;--;;;--;***##%%%X@@=::==:X%&&>>>>",
">>>>%%XX=:==:=@@X%&&#$;------;-----;;---*+$#X%%X@@=::==:%XX%>>>>",
">>>>%X%%=:==:=@OX%%%#$;-****************++$#&%%X@@=:::=:XX%%>>>>",
">>>>%%XX=:==:=@OXX%%#$--****************++$#%%XX@@=:::=:XXXX>>>>",
">>>>XXX.=:==:=@O..XX#$;-****************+o$#X...@@=:=:==X...>>>>",
">>>>..  =:==:=@O  ..#$;-****************++$#..  @@=:=:==..  >>>>",
">>>>>>>>::==:=@O>>>>#$--****************+o$#>>>>O@=:=::=>>>>>>>>",
">>>>>>>>:===:=@O>>>>#$--****************+o$#>>>>O@=:=::=>>>>>>>>",
">>>>>>>>:===:=@O>>>>#$-;****************+o$#>>>>@@=:=::=>>>>>>>>",
">>>>>>>>:=:=:=@O>>>>$#--****************oo##>>>>@@=:=:==>>>>>>>>",
">>>>>>>>==:=:=@@>>>>$#-;****************+o$#>>>>@@=:=:==>>>>>>>>",
">>>>>>>>==:::=@@>>>>##;;****************+o$#>>>>@@=:====>>>>>>>>",
">>>>>>>>==:::=@@>>>>##;;****************+o##>>>>O@=:====>>>>>>>>",
">>>>>>>>===::=@@>>>>##;-****************oo##>>>>O@=:====>>>>>>>>",
">>>>&&&&:==::=@O&&&&#$;-****************oo##&&%%O@=:==:=&&&&>>>>",
">>>>&&%X:==::=@O%%&&#$;-****************oo##&&&%O@=:==:=%%&&>>>>",
">>>>&&&X:==::=@@%&&%#$;-****************+o##%%%%O@=::=:=X&&%>>>>",
">>>>&%%%:==::=@@X%%%##;-****************+o##%%%XO@=::=:=X%%%>>>>",
">>>>%XX%:===:=@@XXX%#$;*++++++++oooo+++++o##&&%XO@=::=:=%%X%>>>>",
">>>>%%XX:===:=@@XX%%#$*++oo+oooooooooo++oo##%%XXO@=::=:=XX%%>>>>",
">>>>.X..:===:=@@...X#$$########$$$$$$$$$$$$#XXX.O@=::::=.XXX>>>>",
">>>>    :===:=@@    ########################..  O@=:=::=  ..>>>>",
">>>>>>>>:==::=@@>>>>>>>>>>>>>>>>>>>>>>>>>>>>>>>>@@=:=::=>>>>>>>>",
">>>>>>>>:==::=@@>>>>>>>>>>>>>>>>>>>>>>>>>>>>>>>>@@=:==:=>>>>>>>>",
">>>>>>>>:==::=@O>>>>>>>>>>>>>>>>>>>>>>>>>>>>>>>>@@=:==:=>>>>>>>>",
">>>>>>>>:=:::=@O>>>>>>>>>>>>>>>>>>>>>>>>>>>>>>>>@@=:==:=>>>>>>>>",
">>>>>>>>==:::=@O>>>>>>>>>>>>>>>>>>>>>>>>>>>>>>>>@@=:===:>>>>>>>>",
">>>>>>>>==:::=@O>>>>>>>>>>>>>>>>>>>>>>>>>>>>>>>>@@=:===:>>>>>>>>",
">>>>>>>>==:=:=@O>>>>>>>>>>>>>>>>>>>>>>>>>>>>>>>>@@=:===:>>>>>>>>",
">>>>>>>>==:=:=@O>>>>>>>>>>>>>>>>>>>>>>>>>>>>>>>>@@=:===:>>>>>>>>",
">>>>&&&&==:=:=@O%%%&%%&&&&&&&%%%&&&&&&&%%%&&&&&&@@=:===:&&&&>>>>",
">>>>&&%%==:=:=@O%&&%%&&&&&%%%&&%%%&&&&%%&&%%&&&%@@=:===:%%&&>>>>",
">>>>&%%X==:=:=@@%%&&&%%X%&&%%%%&&&%%&&&&&&&%%%X%O@=:===:%&&&>>>>",
">>>>&&%X====:=@@X%%&&&%%XX%%&&&%%&&&&%%%&&%%%%%XO@=:===:%%%&>>>>",
">>>>&%%X===::=@@XXX%%%&&&&&&%%&&&&&%%%&&%%&&&%%XO@=:====%%X%>>>>",
">>>>%%XX===::=@@XX%%%%%%&%%%&&&&%%%%XX%&&%%%&&XXO@=::===XX%%>>>>",
">>>>.XX.===::=@@.XX.....X..XX..XXX....XX...XXXX.O@=::=:=.. .>>>>",
">>>>  . ====:=@@  ....  ..   . ...  ......      O@=::=:=  ..>>>>",
">>>>>>>>==:=:=@@>>>>>>>>>>>>>>>>>>>>>>>>>>>>>>>>O@=::::=>>>>>>>>",
">>>>>>>>==:=:=@@>>>>>>>>>>>>>>>>>>>>>>>>>>>>>>>>O@=::::=>>>>>>>>",
">>>>>>>>=::::=@O>>>>>>>>>>>>>>>>>>>>>>>>>>>>>>>>O@=::::=>>>>>>>>",
">>>>>>>>=::::=@O>>>>>>>>>>>>>>>>>>>>>>>>>>>>>>>>O@=::::=>>>>>>>>"
};
