/* XPM */
static const char *dirt_path_top[] = {
/* columns rows colors chars-per-pixel */
"64 64 5 1 ",
"  c #856B3A",
". c #8B703D",
"X c #907540",
"o c #998043",
"O c #AA8D4A",
/* pixels */
"Xo.o XoXoOOoXXoXX oX.XXXXOXXX XOXo.o XoXoOOoXXoXX oX.XXXXOXXX XO",
"XoXoX XoXXoOXXOX XoX.oXOOXXo XoXXoXoX XoXXoOXXOX XoX.oXOOXXo XoX",
"oX XoXXoXoX.oXXoXXX.o XXXooOOoXXoX XoXXoXoX.oXXoXXX.o XXXooOOoXX",
"XXX XXoXOX.XXXXoXX.oXXoXXXOooOX XXX XXoXOX.XXXXoXX.oXXoXXXOooOX ",
".oX OoXXOoXXoX.X X.XXOXoo  XXX X.oX OoXXOoXXoX.X X.XXOXoo  XXX X",
".XOXXOOoXXXXXoX.X.ooOXXXXXooXX.o.XOXXOOoXXXXXoX.X.ooOXXXXXooXX.o",
"X.Xo .XXooX.XOoXXo XX OOXXXXoXXXX.XXXX.XXXX.XXooXo XOoX..XXXoXo ",
".X .Xo.XX.X XXOo.Xo. XXXO XXXXXo.XOoX XO XooXoXXXXo OXooX.X.X..X",
".XooXo.X.XoX XO.X X.XoXXoo XoooX.oXoX.OX XOOoXXooXXXXOXXXXoX.XoX",
"Xo XX.XOXXoX XOX.X XXoXoXX.XXXXXoXXXXoX XoXX XXXXooOXXXoXoXXooXo",
"X XoX.oX..XoXooXXXXooX. XX..X X.XoXX .oXXXX XX .XXOXXXXoXoXXXXXo",
" XoX.XXXXX.X..ooXXoXOo X oXX.X XXX..XX.XoXX.X XX.XOX XoXXXOX. X ",
". .XXoXXOXX.oXX..XXOoX.oX o XoXXX.oo oXoOoXXXoOXXXXXX XXoOXX..oX",
"XoXX.XooXOOoXX.ooXXo.X.oXXo.oXoXOXX ..oOXXoXoXXOoX oXXXoXOX.XXXo",
"oOo.XXXXXoX XXoXX  X.XXXoXXX XXOXoXXXo.XooXOoXo.X oX.oXo o.XoXXo",
"oXO.oXooXXoo  XX XXXX.  X.oo.XoOoOoXoXOoX ooOXXX.oXX.Xo XXo.XOXX",
"XoXXoXXXoXXXooOOXX  ooX..X..XoXoXOo.XoXX XXXoXoo.XX.oXo XXX.oX.X",
"XXXoXOXXX XoXX XOOoo...XXOXXXXXXooO.XOoXX o XXXXXooXo OXo.Xoo.XO",
"XX.OOXXX XX..ooXooX.Xo.oOX.XoXOXXX.XXOXOo Xo .X.XOXoXXOXXo.oX.XO",
"Xo.X XOXXXoXX.XoX..XoXooOXX.oOX.XoXXooXoXX XXXoX.XoXoOX Xo.XXXOX",
"ooX oXoOOX oXXoXooX.XoOOXooXXOX.XXoXX OoXoooXoXo.Xo.oOXX XXXXXXX",
"o.XoXXoXXXX oXoOXXooOoXooXX .X.XOXoX oXXoXOXOXoXooX.Xo X XXoXoXo",
"X.XXXX.XXXX.XXXX.XXooXo XOoX.XXOXXX .XXoXoXoXOX Xo.X.o XXoOXoOoX",
"oXXXo.XOoX XO XooXoXXXXo OXoooXX XXoX X XOXXXoXX OXoX.oX..oOoOXX",
"X.ooX.oXoX.OX XOOoXXooXXXXOXXoXXX  oX. oOoo.XXoXXooXo.o.XXXoXXoX",
".XXXXoXXXXoX XoXX XXXXooOXXXoXo.XoOXoXXoOXo XXXooXOo..X X.. .XXo",
".X X.XoXX .oXXXX XX .XXOXXXXo X XXoOX.XXXXXo XX.XoOooX. XooX X X",
"XXX XXX..XX.XoXX.X XX.XOX XoXoXX oXXoX XoX XXOX .oXOOX.XoXX X.X ",
"oXoXXX.oo oXoOoXXXoOXXXXXX XXoXoXX.XXoXoXX X.XOX XoXXOX.XX oXXXX",
".XXoXOXX ..oOXXoXoXXOoX oXXXoXoXoX ooXXoX.X X.OX XoX.X.oXooX.Xoo",
"X.XXOXoXXXo.XooXOoXo.X oX.oXoX..XXX OXXX .oX.oOXX X.XX.oX. X.oXX",
"oXXoOoOoXoXOoX ooOXXX.oXX.Xo  oXoXXXXOO XX oXXoOX.XooXX. oX.XXXX",
"OXX Xo XXoo XooXXOOXXoXXXoX XoXXXooXXXXXOoo.X.XoXXXXXoOOXXOX. XO",
"XoXX .o.oXXXoXXX.XXOXXoXoX XXoXXXX  ooXOXX.X X.XoXXoOXXoO Xo.XoX",
" XoOXXX.XoX .XXOX..XXoOOXXX.XXoXooOXXXoXXo.XXoXXXX.XOXoXX XXXoXX",
"X OoXXoXoX XXX XOXXXoXoXOXXXo..XOOooXXX o.XXXoXXo.XoXoXXoX XoOX ",
"XoOoXoXXXXoXo XXXXoXoOOoX.XoXoX. oXXOOXo.XoX XOXXOoXXoX XoXoXX X",
"XXoO oXX .XoO XXooX.OooXXo.XXXOXXXXOXXXX.Xo XXoXXoOOoXoX o.oXX.o",
"OXoX XX oXXOXoo XXXX..XX o.XXooXXo.XoX..XX..oX XoX.  XXXoXoXXXo ",
"XOXXoXXOoXoXoXX. XoXXXoX. X XXXXOoXXO.XoX.XoX XXo. XXXOoXXXXX..X",
"XOXXoXOXXoX.X. Xo oOOoXo.oX.o. XoXXOXoXoXXoXoXXoXXXOOOoX.XXOoXoX",
"XXXoXXOXXX XX XXXOXXoXO.oX.oXOX. . oXXXXX.XoXOoXXXOX.oX.XooXXoXo",
"Xo XOX XooXXoo oXooOXXoXOoXX XOXX XXooOoX XXOXXXX X.X.XX XX XXXo",
"..oXXOX XXoXOOXXoXXoX XoXOoXX  X X.XXOoX oXoXoX. oXX Xo.XXXX  X ",
"XX.oXoX..XXXXoOoXoX  X oXoXXoXXXoXXXoXoXoX oOXXooX  Xo o..Xoo.oX",
"ooX..o oX  XooXXOo XoXoXoXXXXOoXX.XoXo X  XoXoOoXXXX..XoXo.XXXXo",
" XXXX.oX XXo .XoXoXo XoOXX. XOo.X.oOXoX XoXXoXXOOXoXX XOXXo..XXo",
"X XX XX.X.X XXXXOXX XoOooXXX oXX.XXoOXoXXOooXo ooXXooX XOX oXOXX",
"XXooX.Xo.XOXXXoOXoX.XXXXXo XXXoXX..Xo.OXoXXOXXX XX XXXOXXoXXXX.X",
"oOXX.XoOOOXXXoXXoXoXXoXoXOX XXXoo.Xo.oXoOOo oX .X.XoXXOXoXXOX.XO",
"XXXXXoOXXX .oXX XoX.XoX.OXX.XoXoXXX .XoXXXoX .XXoXoXoOXXoXXOX.XO",
"XXoXoXXX  .XoX Xo..XX..XoX.XXoXXXo.o XX..XXXX ooXOXXo XX XoXOXOX",
"oO.XXX. XXooXoOooXXOoXo XXXXoXXooX.oXXooO.XooXX OoX. XXo OoXXXXX",
"OoX.XXXXooXOOoX.XooXoXXo XOOoXo oXX.XoOOoXoXXXX oXoXXXXoXoOoXoXo",
"OXoXoXo.XXOooXoX..XoX.XXoXXXOX XoXXXOXoXoXXXOX XXX XoXoXXoO XOoX",
"oXXOOXoX.XOo.oX.XooXoo..XX XXXOOX.XXXOOoXX..XOXX. XoX.XXXOoX OXX",
"XooXXoXXXOXX...ooOOX XXoX XXXOXoXX XoXoXXOXX.XXXoXXXo.o. XXoXXoX",
"oXXoXOX..X..Xoo  XXOOooXXXoXXXoXX XoXXXoXXOOXXooX ooXX oX XXOXXo",
"X XXoO.oo.X  .XXXX XX  ooXXooXo..XOXXXoX XOX.XX X.XXoX.XX..XXX X",
" XoXOX XXXoXXX.X  XXoXX XoXXXXX.XXXoXoXXXXOXX. XX XXXXo. XXoX.X ",
"ooX  Xo.oXXo.X.oXXoo.XXoOOXooX.XoXXoXoXXXOooXXXX XXoX XoXXXXoXXX",
".X XXOX o Xo.XoOXX..XXo.XXOXXoXX.XoXXXXOXXXXooXXoOOX XO.XoXo.Xoo",
"ooXXoX.XXo X oOXoXXoo..X.XXXXX.XX.X.XooXO oXXXXoXooX OX XoOX.oXX",
"XXoX..X..XX .XooXXXXooXoX..Xo.XooXXX..XoOX oXooXX.XXXX.XXXX.XXXX"
};
