/* XPM */
static const char *dropper_front_vertical[] = {
/* columns rows colors chars-per-pixel */
"64 64 9 1 ",
"  c #101010",
". c gray13",
"X c #3C3B3B",
"o c #504E4E",
"O c #5D5B5B",
"+ c #686868",
"@ c #777777",
"# c gray52",
"$ c gray57",
/* pixels */
"ooooooooooooooooXXXXXXoXXoooooXXXXXXXXXXXXXXXXXoXXXXXXoooooooooo",
"oooooooooooooooooooooooooooooooooooooooooooooooooooooooooooooooo",
"ooOO++OOOO+++O++OOO+++++++@@++OOO+++@@@++O+++++OO+++++OO++@@+Ooo",
"ooOO++++OOO+++OOOO++++++@@@@@++OOO+++@@@@+OO+OOO+++++++OO++@@+oo",
"ooO+++++++OOOOO+++@@@@###@@@@@++O++@++@@+@@+O+O++@@@@@+@+OO+++oo",
"ooO++++++++O++++++++@#####@@@@+O+@@@@@@@@@++OO+@@@@#@@@++@+O+Ooo",
"oo+++O+++OO+++@@@@+++@@@##@@+OO+++@@@@##@@@++O@@@@#@@@@@@@@+O+oo",
"oo++O+++OO++@##@@@@@++@##@@+OO+@@@@##@@###@@+++@@##@@@#@@@++O+oo",
"oo+O+++O++@######@@#@@+@@@@+++@@@###########@+O+@#######@@+@OOoo",
"ooOO++O++@###$#####@@@@@@@+O+@@#@@######$$##@@OO@@#####@@@@@+Ooo",
"ooO++OO@@#@##$$$######@@@+OO+@#@#####$$$$####@@O+@####@@@@@@++oo",
"oo++OO+@#@##$$$$$$###$#@@+oO@+@#@###$$$$####@#@+O@@####@@@@+@+oo",
"oo++OO@@###$$$$$$$$$$$##@Oo+@@@####$##$$$$$####@++@@@###@@@@@+oo",
"oo++O+@###$$##$$$$$$$###+OO+@@####$$$##$$$$$##@@@+@@@@@@@@+@++oo",
"oo+@++@##$##$$##$$$####@+OoO+@@###$$$$$$$$$$##@#@@+@@@@@@++++Ooo",
"oo@+O+@#@##$$$####$$#@#@++ooO@@@###$$$$$$$$#####@++@@@@@@@@++Ooo",
"oo@+OO+@@##$$#########@++OOoO+@+@@#$#$$$$$$####@@O+@+@@++@+++OoX",
"oo@@+O+@@@##$$$#$###@@@+OoOOoO+@@###$##$$$#####@+O++++@@++++OooX",
"oo+@++++@@@#@#$$##@@#@+OoO+++OO+@@@@##$$$##@##@+++O+++++++OOoooX",
"Xo++@+OO++@@#######@@+OO+++@@+OO++@@@###$$##@+@@+OOO++++OOOooOoX",
"Xo+++++OOooO+@###@@++OoO+@++@@++OooO++@####@@@+OooO+OOOooOOOOOoX",
"Xo@+@+++OOooOO+@++OOooO+@@@@@@@++OooO++@@@++++OooO+++OOOooOOOOoX",
"oo+@@@+ooOO++OOOOOooOO+++@@@@++@@++OoO++OooO+OOO++@@@+++OOooOOoX",
"oo@@@+OoO++@+@++OooOOOOO++++++OO++OOOOOOooOOO+++@@@@@@@++OOooOoX",
"oo@++OoO+@@@@++@+O+OX.......................#@@@@####@@@@+OOOooX",
"oo++OOO+++@@##@+++OO.                      .$#@@###@@##@++@+OOoo",
"oo+OO+++@@#$$###@++O.                      .$#######@@@@@@+++OoX",
"ooO+@@@@####$$###@@O.                      .$$$########@@@@@++oX",
"Xo+++@@###$###$#@#@O.                      X$$##$$######@@@@++oX",
"Xo+@@#$#$$$$$######O.                      X$#$$$$$##$###@@+++oX",
"Xo@@###$$#$$$$$##$#O.                      .$$$##$#$$$#@#@@++OoX",
"Xo@######$$$$$$#$$$+.                      X$$$$##$$$##@@@#@+Ooo",
"Xo@###$$$$$$$$$$#$$O.                      X$$$$$$$#####@#@+++oX",
"Xo##$$$$$$$$$$$$#$#O.                      X$$#$$$####@#@@@+@+oo",
"Xo#$$##$$$$$$$$$$$#O.                      X##$$####@@##@@@@@Ooo",
"oo####$$$$$$$$$$$#$O.                      X$#####@@@##@@+@@+Ooo",
"oo##$$$$$$$$$$$$$##+.                      X#######@@@@@+++++Ooo",
"oo$$$$$$$$$$$$$$##$+.                      X$###@###@@++@@+++Ooo",
"oo#$$#$$$$$$$$$$$$$O.                      X$##@###@+@@@@+++OOoX",
"oo@#$$##$#$$$$$$$$#O..............XX.XXXXXXX$@##@@++@@@@++++OOoX",
"oo+@@##$###$$##$$##@$#$$##$$$$$$$$$$$$$$#$$$#@@@@@@++@+++++OO+oX",
"oo++@@@@#$$$##$$$#@@@@+O++@#@##$$$$####@@##@@@@@++@@++++OO+++@oX",
"ooO+++@###$$$$$$##@#@@OO+@#@#####$$$$#@@##@@+OO+@+++OOOO+++@@+oX",
"oooO+@######$$###@##@+O+@#####$####$$$$##@##@+OO++OOOO+@@+++@@oo",
"XoOoO+@@#####@@####@@O+@##$#$##$##$$$$$$###@@@+ooOO+@###@@@@+@oo",
"Xo++OOO+@@####@@###@OO+@#$$$###$$$$$$$$$$####@++oo+@@@####@@@+oo",
"Xo@++@+O+@@######@@+O+@####$$$$#$$$$$$$$$#####@+oO@@#$$####@@+oo",
"Xo@@++@@+++@@@##@@+++++#####$$#$$#$$$#$$$$####@@O@@#$$#####@@@oo",
"Xo+@@@+@@@+O+@@++++OO++@#@#####$$####$$$$$###@@@+@#@###$####@@oo",
"Xo+@@@@@@+@+OO+++OooOO++@@##@###$$##$$$##$####@+@###$#$$$###@@oo",
"Xo+@@#@@@@+@+OOooooooOOO@+@@######$$##$$######@+@####$$$###@@@oo",
"Xo+@####@@@@++OOoooOOoO++@@##################@+@##@###$####@@+oo",
"oo+@@@@###@@@+++OOooOOO++@@@@#############@#@@++###@@#####@@@+oo",
"oo++@@@@###@@+O++OOOOOOO++@@@@@@########@@###@++@#@@######@#@@oo",
"ooO+@@@@@@##@@OOOOO+++OOOO++@@@@@@#####@@##@@++O@########@#@+@oo",
"ooO+@@@@@##@@@+OO++++++++OO+++@@@###@@##@@@+++OO+@######@@@@O+oo",
"oo+++@@@#@@@+@+O+++@@@@@++++OOO+@@@@@##@@@@@+Ooo+@@@##@@##@+O+oo",
"ooO++@@@@@++@@++O@++@@@@@@++++OO++@@@@++@@++oooOO+@#@@@##@+O+@oo",
"ooOOO+@@+++@@++O+@@###@@@@@@++++OOO++++OO+OoOO++OO+@@@@@@+OO@@oo",
"ooOO+++@@++++OOO@@@@#####@@@@++++OOO++OO+++O+OO+@+++@@@@++O+@+oo",
"ooOOOO++++++++O++@@@@@##@##@@@+++O+++++@@@@@+++O+@@@+@@++OO@++oo",
"ooOOOOOO++++OO++++@@@@@@@@@++@++O+++@@@@@@++@@++++@+@@@@@++@@+oo",
"oooooooooooooooooooooooooooooooooooooooooooooooooooooooooooooooo",
"ooooooooooooooXXXXXXoooooooooooooooXXXXXXXXXXXXXXXoooooooooooooo"
};
