/* XPM */
static const char *enchanting_table_top[] = {
/* columns rows colors chars-per-pixel */
"64 64 12 1 ",
"  c #58162C",
". c #6B002F",
"X c #7F0728",
"o c #6E1C31",
"O c #951C29",
"+ c #86212F",
"@ c #A22929",
"# c #2CCDB1",
"$ c #4AEDD1",
"% c #A2F6E7",
"& c #C3FBF1",
"* c white",
/* pixels */
"**************&#................................#&**************",
"*&&&&&&&&&&&&%%$XXXOOOXXXOOOOOOXXXOOOOOOXXOOXXXX$%%&&&&&&&&&&&&*",
"*&%%%%%%%%%%%%%$XXOOOOOXOOOOOOOOXXOOOOOOXOOOOXXX$%%%%%%%%%%%%%&*",
"*&%%%%%%%%%%%%%$XXOOOOOOOOOOOOOOXOOOO@OOOOOOOXOX$%%%%%%%%%%%%%&*",
"*&%%%%%%%%%%%%%$XOXOOOOOO@OO@@OXO@@O@@OOO@OOXOOX$%%%%%%%%%%%%%&*",
"*&%%%%%%%%%%%%%$XOOOOO@O@@O@@@OO@@OO@@OO@@O@XOOX$%%%%%%%%%%%%%&*",
"*&%%%%%%%%%%%%%$XOOO@O@@@O@@@@O@O@O@@@@O@@@@OOOX$%%%%%%%%%%%%%&*",
"*&%%%%%%%%%%%%%$XOOO@@OO@O@@O@@@O@@@@O@O@@@@OOOX$%%%%%%%%%%%%%&*",
"*&%%%%%%%%%%%%%$XOOO@@O@@@@@O@@@@@@@@OO@@O@OOOOX$%%%%%%%%%%%%%&*",
"*&%%%%%%%%%%%%%$XOO@@@@@@@@@O@O@@@@@@@O@@O@O@OOX$%%%%%%%%%%%%%&*",
"*&%%%%%%%%%%%%%$XOO@@@@@O@@@@O@@@@@@@@@@@@@@@OOX$%%%%%%%%%%%%%&*",
"*&%%%%%%%%%%%%%$XO@O@@@@O@@@OO@@O@@@@@@O@@@@O@OX$%%%%%%%%%%%%%&*",
"*&%%%%%%%%%%%%$XOO@@@@@@@O@@OO@OO@@@@O@O@@@@@@@OX$%%%%%%%%%%%%&*",
"*%%%%%%%%%%%%%$X@O@@@@@@@@@@@OOO@@O@OO@@O@@@@@@OX$%%%%%%%%%%%%%*",
"&%%%%%%%%%%%$$XO@@@@@@@@@@@O@OOOO@OO@O@@@@@@O@@@OX$$%%%%%%%%%%%&",
"#$$$$$$$$$$$XXO@@@@@@OO@@@OOO++++++O@@@@@@OO@@@OOOXX$$$$$$$$$$$#",
".XXXXXXXXXXXOO@@@O@@OO@@@@+++oooooo+++O@@@@OO@@@O@OOXXXXXXXXXXX.",
".XOOOOOOOOOOO@@@@@OO@@@@++ooo      ooo++@@@@@@@@@@@@O@@OOOOOOOO.",
".XXOOXOO@@OO@@@@@@@@@@++oo            oo++@@@@OO@@@@@@OOOO@@OOO.",
".XXXXOO@@O@@@@@@@@@@@+oo                oo+@@@@@OO@@OO@@@OO@@OO.",
".XOOO@@@@@@@O@@OO@@@+o                    o+@@@@@OO@@@@@@@@OO@O.",
".O@@OO@@@@@@@OO@@@@+o                      o+O@@@@@@@OO@@@@@OOO.",
".XO@@@O@@@@@@@OO@@+o                        o+O@@@@@O@@@@@OOOOO.",
".XXO@@@@@@@@@@@@@@+o                        o+OOOO@@@@@@@@@OOXX.",
".OOO@@@@@@@@@@@@@+o                          o+OO@@@@@@@OOOOXXX.",
".OO@@@@@@OOOO@@@@+o                          o+@@OO@@@@OOOXXOOX.",
".OOO@O@@@@@OOO@@+o                            o+@@@@@OO@@@@@OOO.",
".O@@OOO@@@@@@@@@+o                            o+@@@@@@@@@@@O@@O.",
".OO@@@OO@@@@@@OO+o                            o+@@@@@@@@@OO@@OO.",
".OOO@@@@@@OO@@@+o                              o+@@OO@@@OO@OOOO.",
".OXO@@@OO@@@@@@+o                              o+@OO@@O@@@@@@OO.",
".XO@@@@@OO@@@@O+o                              o+@@@@@@@@@@@OOX.",
".OOO@@@@@@@@OOO+o                              o+@@@@@@@O@@OOXX.",
".OOOO@@@@@@@@OO+o                              o+@OO@@@@@OOOOOO.",
".XXOXXOO@@@@@@@+o                              o+O@@@@O@@@@@@OO.",
".XXXOOO@O@@@@@@@+o                            o+OOOO@OOO@@@@O@O.",
".XOOO@@@@@OO@@@O+o                            o+OOOOO@@@@@OOXOO.",
".OOOOO@@@@@OO@OO+o                            o+OO@@@@@@@OOOOXX.",
".OO@@@@@OO@@@@@OO+o                          o+O@@@@@@@OO@@@OOX.",
".OOO@@@@@@@@OO@@@+o                          o+@@@@@@@@@@@@@@OO.",
".OOOO@@@@@@O@@@@@@+o                        o+@@@@O@@OO@@O@OO@O.",
".OOO@@OO@@@@@@OO@@+o                        o+O@OOOO@@@@OOOXXOO.",
".OOOOO@@@@@@@@@OO@O+o                      o+OO@@O@@@@@@@@OOOXX.",
".OOXO@@@@@@@@@@@@@@@+o                    o+@@O@@@@@@@@@@@@OXXX.",
".XOOXXOOOO@@@@@@@@@@O+oo                oo+@@@@O@@@@O@@OOO@@OOX.",
".XXXXOOO@@@OO@@@@@@OOO++oo            oo++@@O@@O@@@@@OOO@@OOOOO.",
".XXXOOOOOOOO@@@@OO@@@OO@++ooo      ooo++O@OOO@@@@@OOOOOOOOOOOOO.",
".XXXXXXXXXXXOO@@@OO@@@@@@O+++oooooo+++OO@@@O@@@@@@@OXXXXXXXXXXX.",
"#$$$$$$$$$$$XXO@@@@O@@@@@@@@O++++++OOOO@@@@@@O@@@@XX$$$$$$$$$$$#",
"&%%%%%%%%%%%$$XO@@@@@@@O@@@OOOO@@@@O@OO@@@OOO@@@OX$$%%%%%%%%%%%&",
"*%%%%%%%%%%%%%$X@O@@@@@O@@@@@O@@@@O@@O@@@@@O@@@OX$%%%%%%%%%%%%%*",
"*&%%%%%%%%%%%%$XO@@@@@OO@@O@@@@@@@@@@@@@@@@@@@@OX$%%%%%%%%%%%%&*",
"*&%%%%%%%%%%%%%$X@O@@@O@@@O@O@@@@@O@@O@@@@@@O@OX$%%%%%%%%%%%%%&*",
"*&%%%%%%%%%%%%%$XOO@@O@@@@OO@@O@@@O@O@@O@@@@O@OX$%%%%%%%%%%%%%&*",
"*&%%%%%%%%%%%%%$XOO@@O@@@@@O@@OO@@@@@@@OO@@@@OOX$%%%%%%%%%%%%%&*",
"*&%%%%%%%%%%%%%$XO@@@@@@O@@@@O@O@@@O@@O@O@@@@OOX$%%%%%%%%%%%%%&*",
"*&%%%%%%%%%%%%%$XO@@@@@@OO@@OO@@@@OO@OO@@@@@OOOX$%%%%%%%%%%%%%&*",
"*&%%%%%%%%%%%%%$XO@O@@@O@O@@@O@@@@O@@OO@@@@@OOOX$%%%%%%%%%%%%%&*",
"*&%%%%%%%%%%%%%$XOOO@@OO@@@@@@O@@O@@@XO@@@O@OOOX$%%%%%%%%%%%%%&*",
"*&%%%%%%%%%%%%%$XOOO@@OX@@@@@@O@OO@@OX@@@@OOOOOX$%%%%%%%%%%%%%&*",
"*&%%%%%%%%%%%%%$XOOOO@OXO@O@@OOOXOOOOOXOO@OOOXOX$%%%%%%%%%%%%%&*",
"*&%%%%%%%%%%%%%$XOOOOOXXOOO@OOOXOOOOOXXXOO@OOOXX$%%%%%%%%%%%%%&*",
"*&&&&&&&&&&&&%%$XOOOOXXXXOOOOOXXOOOOXXXOOOOOOXXX$%%&&&&&&&&&&&&*",
"**************&#................................#&**************"
};
