/* XPM */
static const char *end_stone[] = {
/* columns rows colors chars-per-pixel */
"64 64 6 1 ",
"  c #C5BE8B",
". c #CDC68B",
"X c #D5DA94",
"o c #DEE6A4",
"O c #EEF6B4",
"+ c #F6FABD",
/* pixels */
"ooXXXooXXXoOOoOOOooOOoOOOooXXooOOOOX.   ..... X.XXXoOOoX...X.XXX",
"oXoXooXXXXoooOOO+OOOooooO+OOoOOOoOoX...  ......X.XXXoOOXXX..XXXo",
"OoXXXXXoXXoOOoO+++OoOoOOOO++OoOoOoX. ........XXoXoXXOoOoXXoXooOO",
"oXXXXooXXoOOOOOO+O+OoOOoO++ooooOOoX . ........XXooXoooOOoXXoOOoO",
"XXXXooXooooo++OOoXXXOooO+OoOoOO+Oo.  ....X...XXXoXooOOooOOoXXOOo",
"ooXXXoooOOo++OoX.  ..XOOoOOoOO+OoX. ...XX..XXXXoOooOOooO++OoOoOo",
"OoooOOoOoO+OOX..     ..XoOOO+++OoXX..X..XXXXXooOoXOOooO++O+OOOoo",
"oOOooOOoooOOX..   ..   .XXoOo+OoOo.X..X..oXXXXoXXOOoOooOo+OOooOo",
"OOoOOOooOOooX. ......   .XXOOOOooOXoX.XXXooXooXXOoOO+OooOOOOOooo",
"oo++O+OOoOOoo.X.......   .XXooOOoOoXoXXXoOoOOOoOoOO+OoXXooO+OOoO",
"O++O+OOooooOoX......  ...XXXXOoOOoOOooOOoOOOoOOoooOoXXXXXooO++Oo",
"ooOoOOoOOooOOo.X....... .X.XoOOOoOOoOooOOOooooOOoOoXXXoXoOooO++O",
"X..XXoooOOooOoX.X....... .XXoXoOOooooOOoOooXXXoOOOooXXXoOOoOoOoo",
". ...XXoooOOooOX......X.  .XXXOooooOOOoOoX..X.XooOOoooOOooOOOoX.",
"   .XX.XXoo+OooOX.X..X.  .XXXoXooOOoOooX.......XooO+oO+oOOo+XX. ",
"..   ...XXoO+OoooXXX.  ..XXoXoXOooOOooX..   ..XXXXoO++OoO++XX.  ",
" .... .X.Xoo++OOoOX...XXXXXXoXXOOoOooX.      X.XX.XoO+oO++X.  ..",
"....X.XXoXXoO+OoOoOoX..XXoXoOoXOooOoX.   ......X..XXOoO++X. .  .",
"...X...XooXXoO+OooOXoXXoooOOoXXOoO+o.  .........X..XoO+Oo.   ...",
"........XooXoO++OO+OXooXoOOoXXooo+oX    ....X...XX.Xo++OX  .....",
"...XX.X.XoXoooO+++OOoOXXXXoXXoooO+o.. ....XX...XX.XoO+Oo. ....X.",
"..XX...XoXXoOooO+++OOooOXXXooOOooOo. ....XX..XXXXXoO+OOX ...XX..",
"XX...XXoXXoO++OoOOO+OOOOoo++OOoOOoO....X...XXXoXooOoOOoX...XX...",
".oX.XXXXoXO++O+OooOOooOoO++OoOOoOOOX..XXXXXXXoXXXooOOooX..XXXXX.",
"XooXXoXooo++OOOoXX..XXoO+OO+O++OO+OOXX..XXoXXXXoooO++OoXX.XoXXXX",
"XXoXoXooXOOOooX.. . ..XoOOoO+O++OO+OoXXXooXXXooooO+O++OoXXoXXXoX",
"oXXoOoXXoOooX..  ... X.XoOOoooO+oOOoOoXXXoOOooOOoooOOo+OXooOoXXo",
"XXoOoXXoOoX.   .  ......Xo+OoOooOOo+OOooOO+oO++oOOoooOOooXooOooo",
"oXXXoooOoX.  ..........XXoo+OooOO++OO+Ooo+OO++OOXXXoooO++OXoooXX",
"XXXoOOoXX.  ..  ..XX..X.XXo++OOo++Oo+OOOOOo+OOX..  .XXoO++oOoOoo",
"XooOOoX.   ..  ..XX...XXXooO+++OOooOO++OOoOoX..     ..XoO+O+OooX",
"ooO+OX.  X. ........X..XoXO+O+OOooOOoo++ooX..    ... X.XOO+OoXXo",
"oO+OX..XX......X...X..XoXooO+OoX..XooO+OoX..  ..  ....X.XoOO+Ooo",
"OoOOoXXXXXX.....X.XX.XXXoOoOoX.    .XoOooX.    .........XXoOO+++",
"O+OoXoX.XX..XX.X..XXoXXoooOoX. ..   .XoOoX.  ......X.....XoooO+O",
"+++OoXXX...XXXX.XXXoXXoOoOOX........ .XoOXX.  ...X.XX.X..XXoOoOO",
"O+OOOoXXX...X.XXXXoooOooO+oX .......X.XoOoX.. ....XX.XXX.XXooOO+",
"+OOooOOoXXX....XXXXoOoOo+OX. .....X..XXooOXX.. .X.....ooXXXoooOO",
"OoOOoooOooXXX...XoOOooooOOX.. ..XX...XoooOoXXX...X..XooXoXoooOoO",
"OoooXXooOOooXXXXoOOoXooOO+o.X.XXX...XXXoOOOXooXXX.X..XXXXXooOOoo",
"ooX....XXoOOOOooOoXooXOo++OX...XXXoXXXXooOOOXooXoXXXXXXoXoOoooOO",
"X...    ..XoOoooXXooXoXO+OOoX....XXoXXoOoooOoXXoXXXoXooooooOoOOo",
"..     .  .XXoOOoXoXXXX+O+OOooXXX..XXoOOOoOoOooXXXXXoXooOoooOoOX",
"     ....  .XXOoooXXXX++OOoOOooOoXXooOOoooooOOoooXXXXoOOooOoOOX.",
"  .....X... .XXOOooXXOo++oOooOOooOooOoOOoX...XXoOooooooOOOoO+XX ",
" . ...X...XX..XoOOoOOOOO++OOooOOOooooooX..   ..XoOOOoOooOo++OX..",
"........XXoXX.OOOOOoOoO+Oo+++OoooOOoOoX.   .. ..XoOoOOO++++OX. .",
".....XXXX..XoXoOOO+ooOooOOOooOOoOOooOX.   .....X.XOOoo+O++oOX ..",
"...XXoXX..XoXXOoO+OOoooOooOOooOOooOOo..    ......XXOooXooOOoo..X",
"XXX.XXoXXXXXXooOO+OooO++OooXXooOoOoOX.  . ...X..XoXoXooXXoO+oX..",
".XoXooXXXooXoOOO++oo+++OXX. ..XoOOOo.   ....X.XXXXoXoXXXoX+OOoX.",
"XXXooXXXooXoOOoO+oOOoXXX.    ..XXOoo.  ...X....XXXoXXXXooXo+OOOX",
"ooXXXXooooOOooO+O+oXX...  ... X.XXoOX. .X.XX.XXXXoooXoooXooO++OO",
"++OoXXXooOOooOOo+OX...  .........XoOOX. .X.XXXXXooXooXoOooOooOoO",
"O++OooOOOOooOoOOoo...  ..X..XX...XXoOX......XXoooXXOOO+OO++Ooooo",
"XooOOooOOoOOoOoOoX.. ...X..XX.. .XXOooX...XXXooooXO++oOO++OooXXX",
"..XXoOOoOOOO+OOooXX..........  .XoXoOOoXXXooXXXXooOO+Oo+OooXX...",
" ....XoooOoOO++oOX.X......  ...XXXoooOOOoXXooXoOOooOO+OOoX..    ",
"    ..XoooO+++oOOoX...X.   ..XXXXooOOooOOOooOO++O+OOoOooX.      ",
"  ..  .XoO+++OOoOOoX...X..XXXXoXoXooOOOOOooXXoo++O+OOoOX.    ...",
".  ... .XoOoO+oOooOoXXXXXXXXoXooXoOOooOooX....XoOOOooOoX   .  ..",
".X.......ooooOOooOoXoXXoXXooXooXXOOoOooX...   ..XoOOoOX.  ......",
"X...XXX..XoOooOOO+OoXoXXoooXooXXoooOoX...      ..XoOOOX.. .....X",
"XXXXoXXX.XooOOoO+OoooOoXXoXXXXXooOOoX.    .... ...XOOoX... ....."
};
