/* XPM */
static const char *exposed_copper_bulb[] = {
/* columns rows colors chars-per-pixel */
"64 64 11 1 ",
"  c #544D3D",
". c #6B584B",
"X c #735F50",
"o c #796454",
"O c #7F7257",
"+ c #947661",
"@ c #A87762",
"# c #7A9869",
"$ c #988C69",
"% c #BA8277",
"& c #CE8D83",
/* pixels */
"&&&&&&&&&&&&%%&&%%%%%%%%&&&&&&&&%%%%&&%%&&&&&&&&%%&&%%%%%%%%%%%+",
"&%%%%%%%%%%%%%%%%%%%%%%%%%%%%%%%%%%%%%%%%%%%%%%%%%%%%%%%%%%%%%+o",
"&%@@@@@$$@@@@$$$$@@@@@@%%@%%%%%%%@@++@@@@@@$@++++@$@@+@@+++OO++o",
"&%@@@@$$@@@@$$$$@@@@@@%%@%%%%%%@@@++@@@@+@$$+@+@$$@@@@++++OO++Oo",
"&%$@$$@@@@$$@$$+            %@@%++@@            +@@$++++OOO+++Oo",
"&%@$$@@@@$$@@@++..ooooooooo.@@%++@@@ ooooooooo..O+$@@++O+OOOO+Oo",
"&%#$@@@%&&O@$$++.oooooooooo.%%@+++@@ oooooooooo.OO$$+%&&O+O+OOOO",
"&%##@@%&&%@O@$++.oooooooooo.%@++@@++ oooooooooo.OO$@%&&%@O+++OOo",
"&%#$$$&%@@@O$#++.oooooooooo.@+@@@++@ oooooooooo.OO@@&%@@@O++++OO",
"&%$#$$%@O@OO##++.oooooooooo.@@@@++@+ oooooooooo.OO@@%@O@OO++O+OO",
"&%$$##O@@OOO#$++.oooooooooo.@@@+++@@ oooooooooo.OO@+O@@OOo+++OOo",
"&%@$$##OOOO#$$++.oooooooooo.@++++@@@ oooooooooo.OO+++OOoo+O+OOOo",
"&%$@@@$$$##$$@++.ooooooooooo++++@@@% oooooooooo.OO+OO+++OO++++Oo",
"&%$$@@@$#$##@@+O.ooooooooooo@@+@@$%% oooooooooo.OOOO++OOO+++++Oo",
"&%@$@+++OOOOOOOO.ooooooooooo@++$$%$$ oooooooooo.OOOOOOOOOO+++OoO",
"&%@@+++OOOOOOOOO.ooooooooooo++@@$$$$ oooooooooo.OOOOOOOOOOO+OooO",
"&%@$            .ooooooooooo+@@$@@$$ oooooooooo.            oOoo",
"&%@@ ..ooooooooooooooooooooo@@@@%@@@ oooooooooooooooooooo.. O+Oo",
"&%@@ .oooooooooooooooooooooo@@%%@@$$ ooooooooooooooooooooo. +OOo",
"&%@@ .oooooooooooooooooooooo@%%@@$$@ ooooooooooooooooooooo. OOOo",
"&%@@ .oooooooooooooooooooooo%%@$$@@@ ooooooooooooooooooooo. +oOO",
"&%$$ .oooooooooooooooooooooo@@@@$$@@ ooooooooooooooooooooo. OOoO",
"&%@$ .ooooooooooooooooooooo.%%@@@@$@ ooooooooooooooooooooo. ++oo",
"&%@@ .ooooooooooooooooooooo.%@@%@@@@ ooooooooooooooooooooo. ++Oo",
"&%@@ .ooooooooooooooooooooo.@%%@@@++ ooooooooooooooooooooo. @%+O",
"&%++ .ooooooooooooooooooooo.%%@@@@@+ ooooooooooooooooooooo. %%OO",
"&%@+ .ooooooooooooooooooooo.+OOOOOO+ ooooooooooooooooooooo. @%@o",
"&%+@ .......................OOOOOOOO ...................... %@@o",
"&%@@+@+++@@@@%@@%%%%%%%%%%+OXXXXXXXX%@+O++O++@%$@@$$@+@@@$$##$@o",
"&%@@@++@@+@@@@@@@%%%%%%%%%OOXXXXXXXX%%++OO++@$$#$@@$@@%@$$##$$+o",
"&%@+++@@+++@@@%%%%%%%%@%%%OOXXXXXXXX%%OO++@$$$$$#$$$%%$$##@@$$@o",
"&%@++++++@@@@%%@%%%%@@%%%@OOXXXXXXXX%%+++@@@$$$$##$%%$$$$#$@@$$o",
"&%+++++@@@@@@@@%%@@@@%%@@$OOXXXXXXXX%%O+@+@$@@$###%#$$$@@$$$@$$o",
"&%+@@+++@@@@@%%%%%@@%%@@$$OOXXXXXXXX%%++++$@@$$####$$$@@$$@@@$@o",
"&%@@++@@@@%@%%%@@@@%@@$$@@OOXXXXXXXX%%@@@++$$$#$$$$$@@$$@@@@$%$o",
"&%@@+@@@@@@%%%@%@@@@@$$@@++OXXXXXXXX%@@@++$@$###$$%@@$$@@@@$%%$o",
"&%@+                        %%%%%%%%                        %$@O",
"&%@@ .ooooooooooooooooooooo.@%%%%%%@ .oooooooooooooooooooo..$@@O",
"&%@@ .ooooooooooooooooooooo.++OO++@@ ooooooooooooooooooooo..$@@O",
"&%@@ .ooooooooooooooooooooo.+++OO++@ ooooooooooooooooooooo..@@+O",
"&%@% .ooooooooooooooooooooo.OO++@@@@ ooooooooooooooooooooo..@@+O",
"&%%% .ooooooooooooooooooooo.O++++@++ ooooooooooooooooooooo..@+@O",
"&%%@ .ooooooooooooooooooooo.++@@@++@ ooooooooooooooooooooo..+++O",
"&%%% .ooooooooooooooooooooo.+++@+@@@ ooooooooooooooooooooo..+@+O",
"%%%% .ooooooooooooooooooooo.@@@+++%% ooooooooooooooooooooo..@@+o",
"%%%% .ooooooooooooooooooooo.@+++@@@% ooooooooooooooooooooo..+@Oo",
"&%%% ..oooooooooooooooooooo.++@@@%%@ oooooooooooooooooooo...@++O",
"&%%@ ............oooooooooo.@@@@%@@@ oooooooooo.............@@+O",
"&%%@@@@@@@@@@@@+.oooooooooo.@@+%%%@@ oooooooooo.@%%%%%%%%%%%$@@o",
"&%@$#@@@@@@@@@+O.oooooooooo.++%%$@@@ oooooooooo.+@%%%%%%%%%@$$@o",
"&%$##$$$$$@++@OO.oooooooooo.+@@$@@@$ oooooooooo.++$$@+@++O++$@+o",
"&%##$#$$++$@$@OO.oooooooooo.@+@@@@$% oooooooooo.++$@@@@OO+OO@+Oo",
"%%+$$++%&&O$++OO.oooooooooo.@@@$$%%$ oooooooooo.++@@+%&&OOO++@Oo",
"%%O+$$%&&%@O+@OO.oooooooooo.@@$$%%$@ oooooooooo.++@O%&&%@O++OOOo",
"%%OO+O&%@@@oO+OO.oooooooooo.%$%%$$@@ oooooooooo.++++&%@@@oOO+OOo",
"%%O+O+%@O@OoOOOO.oooooooooo.$%%$@$$@ oooooooooo.++++%@O@OoOoOOoO",
"%%+OO+O@@OooOOOO.oooooooooo.@$$@@@@$ oooooooooo.+++OO@@OoooOOOoO",
"%%+O+++OoooOOoOO.oooooooooo.$$@@@@$$ ooooooooo..++OooOoooOOOOoOo",
"&%++++O+++OOooOO..ooooooooo.@@@@@$@@ ...........+O++OoooOOOooOOO",
"&%+++++++OoOoOOO            @@@$@%@@            +OO++OoOOOOOooOO",
"%%O+O++OOOOoooooOoooOOOooO+@@$$$@@%%@+OO+OooO+++OOOOoOOOooOOOOoo",
"%%OO++OOooOOOoooooOOoOooOoOo++$$$%%@+++OOooOOO+OoOOOOooooOOOOooO",
"%++OOOoooOOOoooOOOOoooOOoooOOO++OOooOOOooOOOOOooOOoooooOOOooOOOO",
"++++OoOoooOoOOooOOoooOOoooOOoooOOooOOOooOOoooooOOoooooooOOOOoOOO"
};
