/* XPM */
static const char *exposed_chiseled_copper[] = {
/* columns rows colors chars-per-pixel */
"64 64 9 1 ",
"  c #756152",
". c #796454",
"X c #7D6F5A",
"o c #7F7257",
"O c #947661",
"+ c #A87762",
"@ c #988C69",
"# c #BA8277",
"$ c #CE8D83",
/* pixels */
"$$$$$$$$$$##$$########$$$$##$$$$$$$$$$$$$$$$$$$$##############+O",
"$###############################$$$$$$$$$$############++++++++OO",
"$#+++++@@++++@@@@++++++##+#######++OO++++++@+OOOO+@++O++OOOooOOX",
"$#++++@@++++@@@@++++++##+######+++OO++++O+@@O+O+@@++++OOOOooOOOX",
"$#@+@@++++@@+@@++OOOOOOOOOOOOOOOOOOOOOOOOOOOOOO@@++@OOOOoooOOOOX",
"$#+@@++++@@+++@@OOOOOOOOOOOOOOOOOOOOOOOOOOOOOOOO@+@++OOoOooooOOX",
"$#@@+++#$$o+@@@@OX                              @@@@O#$$oOoOooOX",
"$#@@++#$$#+o+@@@#OX                            #@@@+#$$#+oOOOoOX",
"$#@@@@$#+++o@@@@##OX                          ##@+++$#+++oOOOOOX",
"$#@@@@#+o+oo@@@@@#$OX                        ##+++++#+o+ooOOoOOX",
"$#@@@@o++ooo@@+@@@#$OXXXXXXXXXXXXXXXXXXXXXX #$+++++Oo++oo.OOOoOX",
"$#+@@@@oooo@@@++@@+$$OXXXXXXXXXXXXXXXXXXXX $$+++++++Ooo..OoOooXX",
"$#@+++@@@@@@@+++++@+$$OXXXXXXXXXXXXXXXXXX $$++++++++OOOOooOOOOX ",
"$#@@++++@@@@+++++++++$$OXXXXXXXXXXXXXXXX $$++++++++O+OoooOOOOOO ",
"$#+@+@O++++OO+++++++++$$OXXXXXXXXXXXXXX $$++++++++OOOO+OoOOOOoO ",
"$#++@@OO++++OO+++++++++$$OXXXXXXXXXXXX $$+++++++OOOOO+OOOOOOo.O ",
"$#+@++ OO+++++OO++++++++$$OXXXXXXXXXX $$+++++++OOO+++++OO Oo.oO ",
"$#++@+  OO++O++OO++++++++$$OXXXXXXXX $$+++++++OOO+++++OO  oOoOO ",
"$#+++@   OO++OOOOO++++++++$$OXXXXXXO$$++++++OO+++++++OO   OOOoX ",
"$#++++    OO++OOOO+++++++++$$OOOOOO$$++++++OO+++++++OO    OOooX ",
"$#++@@     OO+++OOO+++++++++$$$$$$$$++++++O++++++++OO     OoO.X ",
"$#@@@+X     OO++++OO+++++++++$$$$$$+++++++++++++++OO X    ooooO ",
"$#+@++OX     OO++++++++++++++++++++++++++++++++++OO XX    ooOOO ",
"$#++++OXX     OO++++++++++++++++++++++++++++++++OO XXX    OOOOO ",
"$#++OOOXXX     OO+++++++OXX             +++++++OO XXXX    OO+#O ",
"$#OOO+OXXXX     OO++++++XX              ++++++OO XXXXX    O+##O ",
"$#+O++OXXXXX     OO+++++OX###########+  +++++OO XXXXXX    +@+#X ",
"$#O+++OXXXXXX     OO++++OX##########+O  ++++OO XXXXXXX    @@#+O ",
"$#++O+OXXXXXXX     OO+++OO++++++++++OO  +++OO XXXXXXXX    @@@@OX",
"$#+++OOXXXXXXXX     OO++OO++++++++++OO  ++OO XXXXXXXXX    @@@@XX",
"$#+OOOOXXXXXXXXX    OO++OX++++++++++OO  ++OOXXXXXXXXXX    ++@@X ",
"$#+OOOOXXXXXXXXXX   OO++OX++++++++++OO  ++OOXXXXXXXXXX    @++@X ",
"$#OOOOOXXXXXXXXXXX  OO++OX++++++++++OO  ++OOXXXXXXXXXX    @@+@O ",
"$#O++OOXXXXXXXXXXXX OO++OO++++++++++OO  ++OOXXXXXXXXXX    +++@O ",
"$#++OOOXXXXXXXXXXXXO+O++OO++++++++++OO  ++O+OXXXXXXXXX    ++@#OX",
"$#++O+OXXXXXXXXXXXO##+++OO++++++++++OO  +++#+OXXXXXXXX    +@##OX",
"$#+O++OXXXXXXXXXXO#$++++OOOOOOOOOOOOOO X++++#$OXXXXXXX    +##@OX",
"$#++++OXXXXXXXXXO#$+++++OOOOOOOOOOOOOOXO+++++$$OXXXXXX    @#@+OX",
"$#++++OXXXXXXXXO$$++++++OOOOOOOXXXXXXXOO++++++$$OXXXXX    #@@+OX",
"$#++++OXXXXXXXO$$+++++++OOOOOOOOOOOOOOOO+++++++$$OXXXX    #@++OX",
"$#+###OXXXXXXO$$++++++++#$$$$$$$$$$$$$$#++++++++$$OXXX    @+++OX",
"$####+OXXXXXO$$+++++O++++##############++++++++++$$OXX    +@+OOX",
"$##+++OXXXXO$$+++++O+++++++++OOOOOO+++++++++++++++$$OX    ++OOXX",
"$###++OXXXO$$+++++OO++++++++OOOOOOOO+++++++++++++++$$OX   ++O+XX",
"$#####OXXO$$+++OOOO++++++++OOX     OO+++++++O+++++++$$OX  +O++XX",
"$####+OXO$$++OO+OO++++++++OOXXX     OO+++++++O+++++++$$OX OOO+XX",
"$###++OO$$++OO+++++++++++OOXXXXX     OO++++++OO+++++++$$OXOO+OOX",
"$##++@O$$+++++++++++++++OOXXXXXXX     OO++++++OO+++++++$#OOo++OX",
"$##+@@$$++++++OO+++++++OOXXXXXXXXX     OO++++++OO+++++++$#oO@+O ",
"$#+@@@$@+++++OO+++++++OOXXXXXXXXXXX     OO+++++OOOO++++++#o+@@O ",
"$#@@@@@@@@+OO++OO++++OOXXXXXXXXXXXXX     OO+++++OO+O+++++oOO@+X ",
"$#@@@@@@OO@+@+OO++++OOXXXXXXXXXXXXXXX     OO+++++OOOOO+++Ooo+OO ",
"$#O@@OO#$$o@OO++OOOOOXXXXXXXXXXXXXXXXX     OO++++++OO#$$oooOO+O ",
"$#oO@@#$$#+oO++OO+OOXXXXXXXXXXXXXXXXXXX     OO++++Oo#$$#+oOOooX ",
"$#ooOo$#+++.oOO++OOXXXXXXXXXXXXXXXXXXXXX     OO++++O$#+++.ooOoX ",
"$#oOoO#+o+o.ooOOOOXXXXXXXXXXXXXXXXXXXXXXX     OO++OO#+o+o.o.ooX ",
"$#OooOo++o..oooOOXXXXXXXXXXXXXXXXXXXXXXXXX     OOOOoo++o...oooXX",
"$#OoOOOo...oo.OOOOOOOOOOOOOOOOOOOOOOOOOOOOX     OOo..o...oooo.XX",
"$#OOOOoOOOoo..oo#$$$$$$$$$$$$$#$$$$$$$$$$$$$$$##ooOOo...ooo..oXX",
"$#OOOOOOOo.o.oo..##############################oOooOOo.ooooo..OX",
"$#oOoOOoooo.....o...ooo..oO++@@@++##+OooOo..oOOOoooo.ooo..ooooOX",
"$#ooOOoo..ooo.....oo.o..o.o.OO@@@##+OOOoo..oooOo.oooo....oooo.OX",
"$OXXXXXXXOOOOOOOOOOOOXXXXOXOOOXXXXXOOOOOOOOOOOOOOOOOOOXXXXXOOOOX",
"#X X  XX    XXXXXXXXXX      XX    XXOOOOXXOOXXXOXXX   XX  XXXXXX"
};
