/* XPM */
static const char *farmland_moist[] = {
/* columns rows colors chars-per-pixel */
"64 64 6 1 ",
"  c #341907",
". c #3F210A",
"X c #552E0F",
"o c #6E3C15",
"O c #555555",
"+ c #6F6F6F",
/* pixels */
"oXXXXXX..X... . ...... .X...XXXXXXXXXX..XX.. .  ..XXoXXXoXoooooo",
"ooXXXXX.XX...   ...........X.XXXXXoXXX..XX.... ...X.XXXXoooooooX",
"XoXXXXXXXXX. .  ..... ...X.XXXXXXoooXXX.XXX.. ......XXXXoooXooXo",
"XXXoXXXXXXX...  ..... ..XXXXXXXXXXXoXXXXXXX.. .. ...XXXXooXooooo",
"oXooXXXXXX.X..   .X.....X.XXXXoXXXoXXXXXXXXX....  ..X.XXXoXXoooo",
"oooooXoXXXXX...  ..X..X...XXXooXXXXXXX.XXXXX... . ....XXXXoXoooo",
"XooXoXooXXXX...   XX..XX..XXXoooXXXXXXX.XXX.X.  .. ..XXXXXooXooo",
"XXooXXooXXX.... . .X..XX.XXXXXooXXXXXX...XXXX.   ...XXXXXoooXXoo",
"XXooXoooX.X.. ... .....XXXXXXoXoXoXXoXXX.XXX... . ..XXXXXooooXoX",
"oXoooooo.XXX.  . ....X.XXXoXXXXoooXXooX.XX.X...   ..X.XXXooXoXXX",
"oXXooooX.X.X.   ......XX.XoXXXXXooXoooXXXX......   ..XXXoooXXoXo",
"XoXooooX...X    ......X..XXoXXXXooooooXXX.X..... . ...XXooooXooo",
"ooXXoooXX... . . ........XXXXXXoXoooXoXXXXX.X.........X.oooooooo",
"ooXXooXXXX....   . ... ..XXXXXooXXoXXoXXXXXXX... .......oooooooo",
"ooXoooXX.X...   ..  .  .XXX.XooooXoXoXXXXXXX....  .....XXoXooooo",
"ooooooXX..X..   .   . ..XX..XoooooooXXoXXXX....   ....XXXooXoooo",
"ooooXoXXX.X. O+O   ... ..X.XooXoooooXooXX.X.. .    ...X.XXoXXoXo",
"ooooXXXXXXX.O+++O ....  ..X.ooXXooXoooooX..X.      ..X.XXXXXXoXX",
"ooXoXXXoXX..O++++O....  ..XXXoXoooXXoooo...X   .    ..XXXXXoXXoX",
"XoXXXXooXX..OO++OO .... ..XoXXXXXooXooXo....  ..  . ..XXXXXooXoo",
"oXXXXXoXXX . OOOO   ......oooXX.ooooooXX.X... .   .....XXXoooXoo",
"oXoXXXXXXX   .OO    .X..X.XoXX..oXooXoXXXX...     ..X..XXXoXoooo",
"oooXoXXXX..  .     .XX..XXoXXX.X.XooXXXXX.....  . ..XX..XXXoXooo",
"oooXooXXX.. ..    . XX.XXXXXXXX.XXoXXXX.X.....  .....X..XXXooooo",
"ooooooXX.. ... .  ...XXXX.XXXXX..X+OOXX....X .  X.X...X.XX.Xoooo",
"ooooooXX........   .X.XX...XXoX.X+OOOOXX..XX.  .XXX...XXXX..Xooo",
"oXooXoXXX.X....   . ...X..X.ooXX+O++OOXX.XX..  ..XX.X.XXXXX.oooo",
"oXXoXXXXXXX.. .     ....X...oXXX++++OOXXXXX..   .X..XXXXXoXooooX",
"XoXoXXXXXXXX.      . ...XX..XoXXX++OOXXXXX.X.   ..X..XXXXXoooooX",
"XXooXXXXXXXX.   .  ...X.XX.XXXXXXXO+XXXXXX.X    .....XXoXXoooooo",
"XooooXX.XX.X..  .   X.XXX.XXXXoXXoXXXXX.XX.. . . . ...XoXooXoXoo",
"oooooX..XX.... .    XXXXXXXXXooXooXXXXX.X...  ..   .X.XXooooXXoo",
"oooooo.XX.... ..  . X.X.XXXXXXoXooXXXX.XX...  .   ...XXXooooXooo",
"ooXoooX.X.X.  ..   .X...XXXXXXXooXoXXX.X....    . .XXXXXoXoooooo",
"oXXoXoXoXXXX  .    ..X..XXXXXoXoooooXX.... ..   ....X.XXXXoooooo",
"ooXXooooXX.X.     .X.X...XXXoXXXoooooXX..  ..    . ...XXXXXooooo",
"oooXoooXXX...   . .XX..X..XXooXooooXoXX.  ....    ...XXXXoXooooo",
"oXooooXoX.X.    .X..X...X.XXXooooooXXXXX. ....  . ...X.XXooooooo",
"oXoXooX.X... .  ..X....XX.XXXooXooXXXooX ... .  ...X...XXXoooooo",
"ooXXXo...X.....  .....XX.XXXXXooXoXXoXoX....     ..X...XoXooXooo",
"ooXoXX.........  .....XXXoXXoXooooXoooXX... .  . . .X.XXoooXXoXo",
"XoooXX.X...... .  .X..XXoXXXooXoooooXoXX..... ..   .XXXXoooXooXo",
"XXooXXXX. ..OO..  .XX.X.ooXoXoXXooooXXX........   ...XXXXooXoooX",
"XXoXXXX..  O+OO.. XXX...ooooXXoXooooXXX......X.   ...X.XXoXooooX",
"XXXXX.X.  O+++OO .X.X..XooooXooooooooX..X...XX  . . ....XXXooXoo",
"XXXXX...  ++++OO..X....XXooooXoooooXoX...X..X.  ..  ..X.XXXXooXo",
"XXXoXX... ++O+O . .X....XooooooooooXooX.XX.X..  ... ..XXXXXXooXX",
"XXoXXX.X.. ++O    ......XXooooooooXoooXXXX...    . ...XXXXXXXoXX",
"XooXoXXX...X.     ..X...XoooooooooXooXXX.X..       ...XX.XXXXXXX",
"XooooXXX..XX..   ....X..XoXooooXooXXoXXX....      .....X..XXXXXX",
"ooooXoXo..X. .  .. .XX.XXXXoooXXoXXoXXXXX... .  . ..O++...XXXXXX",
"ooooXoooX. .    ..  X.XXXXooXoXXXXoXXoXXX.....  ...O++++.XXXXXXX",
"oXoooooXX..   .  .  ..XXXXooXXoXXooXoXXXXX...    .OO++O+XXXXXXXX",
"ooXoooXoXX.   ..  . ...XXXXoXXooXoXXXXXXXX..     .O++OOOXXXXXXXX",
"ooXXooXXXX. .  .  ...X.XXXXXXXXoXXXXoXXXX... .     O+OOXXXoXoXXX",
"XoXooooXoX...  .  . .XXXXXXXXXoXXXoXooXXX.X...    ..OO.XXXooXXXX",
"XXooooooo.....   .  XXX.XXXXoXXXoXooooXXXXXX.     .X...XXoooXXXX",
"XXooooooo.X...     .XX.XXXXXXoXXXoooXoXX.XXX..   ...X.XXooXoXoXX",
"XXoXooXooXX....    .X..X.XoXXXXXooXoXXXX..XX.  .  ..XXXXooXXooXX",
"XXXXooXoXX..... .   X....XooXXXXooXXXoX.X.X..   . ..XXXoooXXoXXX",
"XXXXXooXX........   ... ..XoXXXXXooXoXX.... .   ...XXoXooooXXXXX",
"XXXXXoXXX.......  . ... ..XXXXXXXooooXXX...     .X.XooXXoooXoXoX",
"XXXXXX.X.... . .  ....  X.XXXXXXXXooXXX....      XXooooXXooooXoo",
"XXXXXX......   .. ....  XX.XXXXXXXoXXXX..X..     .XooXoXXXooXooo"
};
