/* XPM */
static const char *fletching_table_side[] = {
/* columns rows colors chars-per-pixel */
"64 64 21 1 ",
"  c #1B160D",
". c #281E0B",
"X c #382116",
"o c #4B2B18",
"O c #742303",
"+ c #9B221A",
"@ c #BF2529",
"# c #896727",
"$ c #9E8B61",
"% c #A59467",
"& c #AE9F76",
"* c #B8A875",
"= c #C8B77A",
"- c gray59",
"; c #D7C185",
": c #E4CD8E",
"> c #C6C6C6",
", c #D1D7D8",
"< c #D8D8D8",
"1 c #E6E9EA",
"2 c #FEFEFE",
/* pixels */
"&%::::::::;;::::&%::::::;;::;;::&%;;::::::;;;;;:&%::;;::::::;;;;",
"&%=;======;;;=*=%%;;;;;;;;;;;;;;&%;;;;;;;;;;=;;;&%;;=;;=;;;;;;*=",
"%%=;==;==;=;==**%%;;;;=;=;==;=*;%%=;;;;=;=;;==;*%%;;==;==;;;==**",
"%%==;=;;=;;;===*%%;;;=;;==;===**%%==;=;===;=;=;*%%=;==;;*=;;==;*",
"$%*=;;=;==;;=;*=%%;=;*;==;;==;=*$%=*;==;==;;;;;=&%==*==;=*=;==;=",
"$%**=;*=;=;=;;*=%%;==*==;;;;=;==$%**=;=;;=;=;;=*&%;=*===;**;=;*=",
"$%=*==**;;==;;**$%===**=;=;;;==*$%*=*;;;==*=;;**&%;=<>==;=*=;;*=",
"$%=*=*=*;;==;*=*$%==*=*===;*;;=*$%=;**;;*=*==;*=&%;;2>=;==;=;;=*",
"$%==**==;==*=*;=$%*=*=**=;;*=;**%%;;=*;=**===;=;%%;<2<>===;*;=**",
"$%;=**==;==*==;=$%**==;*=;=;*=*=%%;;;*;*=*=*;=;;%%;22<>==;**==*=",
"$%;;*==;==**==;;$%=*=;;=;;==**==%%;=;=**===**=;;%%<2<<->=;*==*==",
"$%;;==;;;=*=*==;$%=*=;==;===*===%%;===*=*=**==;=%%<2<<->=====*==",
"%%%%%%%%%%%%%%%%%%%%%%%%%%%%%%%%%%%%%%%%%%%%%%%%%%2<<>--%%%%%%%%",
"$%&&&&&&&&%%$$$$$%$$$$$$%%&&%%&&&%&%%%%%%%%%%%%&%<2<<>-->$$$%%%%",
"$%===;*===,111,,1,1121222211112211,,1,===;====;=&<<<>--->=**;;=*",
"$%==;;**,,12121,,1,1121121112222221,,1,,;;====;;&>>>>----=*=;=**",
"%%==;=*,11,12221211121111212121121221221,=;==;;;%%==..=;=*=;;=**",
"%%==;*=,,111121112122212212211121111221,,====;=;%%==##*=;*=;=;*=",
"$%=;=*,,12OO+++@@+@++@@@@+@+++@@+@+++O21,1==;===%%;=##*=;;===;==",
"%%;;**1,21OOO+@@+@++@@@@+@+++@+@@+++OO121,==;;==%%;=##*=*;====*=",
"%%;;*=,112O+,,,,11,,1,12112122111,,,+O2111*==;=;%%=;##***====**=",
"&%;===1121+O,,,1211,,1221212212121,1O+22,1**=;;=&%=;##**=;=;=*=*",
"&%====1222++,1121221212122211112211,++12,,**==;=&%==##=*=;;;*==*",
"&%=;=;2112++1,112211121112221121221,++1,1,*=*===&%==##====;;*===",
"%%=;;;2211++1212OOO+@@@+++@@@+OO2221+@,1,,==**==%%=;##=*==;=**==",
"%%==;;2111+@1122OO+@+@+++@+@@@@O1211@+11,1==**==%%;=##=*=*;==*==",
"&%==;=1121@+2211+O,,11122121,,@+1121+@1211=;*=*=&%;=##==**===*=*",
"&%;=;;1212@@2121O+,11211221,1,+@2122@@2212;;=**=&%==##;=*=*==***",
"&%;==;2121@+2212+@1,21122112,1++2212+@2121;;=*==%%=;##;==**=*=**",
"&%;;=;2112++1222@@,11222112211+@1211@+1122;;====%%;;##====***=*=",
"XXXXoo2212+@1121@+1222@@++2221@@2121++1212ooooooooooooooooooXXXX",
" X XXX1221@@2112+@1121@+++1212@+1122++2211XXXoXXXXXoooXoXXXXXX  ",
"&%;=;*2111+@2212++1211+O+O1121+@1212++2121===***%%;=##;=;;=*=;==",
"&%;=*=1111+@2122+@2212OOO+1212@@1221+@2212==;*=*%%==##=;;;**=;=*",
"%%=;*=1121@+1121@@212221122211+@2212@@2122=;;==*%%=*##==;=*=;;=*",
"&%=;*=1212@@1211@+11121221,,21@+1211@+1121;;===*%%=*##;==*==;=*=",
"%%;;**,122+@,122++1,21221,,1,1++2121+@1212;;==**$%=*##;;=*=;==**",
"%%;==*1,12++1,,2+O,,1222211,,,+O1122@@1122;==**=$%**##;;=;=;==;*",
"&%=*==,,11@+,,11O+O+++@@+@@++OO+2221@@2121==;*=*$%*=##=;=;;;=;;=",
"&%**==,121+@1,,1OO+++@@+@+@@++OO1212@@2211==;;=*$%==##=;;=;;=;==",
"%%***=1112++111,2211212112211221211,+@2121=*=;==$%;=##==;;;=;==*",
"%%*=*=2121O+,1,2211222121122112211,1@+1112=**===$%;;##==;;==;;=*",
"%%==**1212OO,,1112221121221122222,,,++1211***=*;%%=;##=;=;=;=;**",
"%%=*=*1222+O,,,,112221121221111211,,+O21,1**==*;%%==..;;=;=;==**",
"&%=*;=,121O+O+++@@+@@++@@+++++@+@++OO+221,=*=*==%%=2<2<;=====*=*",
"&%=*;=1,12OO+++@+@@+@@++@@++@@+@@@++OO12,,;***=;%%2<2<2<=;==**==",
"%%*==;*,2221,221211212111221122111,1222,1=;=**;;%2<2<2<2<===*===",
"$%*=;;=,121,11221122211221221122,,121211,===*=;=2<2<2<2<2<=;=*==",
"%%*=;===,121,,1112112121221122111,,121,,;;======<2<2<2<2<2;=**==",
"%%*=;===;=,,,1,12221122211212121,1,,11===;;=====2<2<2<2<2<;=***=",
"$%%%%%%%%%%%%%%%%%%%%%%%%%%%%%%%%%%%%%%%%%%%%%%%<2<2>><2<2%%%%%%",
"$%%%&&&%%&&&%&&%%$$$$$%%$%%%$$$$$%%%%%$$$%$%%%$$2<2>--><2<$$$%%%",
"$%::::;;::::;;;;%$;;;;;=;;;=;;;:%%::::::;;;====*<2>-..-><2::;;;:",
"$%;;;;;;;;;;==;;%$;=;;=;=;;=;=;;%%;;;=;;=;==*=*=2>-;##;-><;;====",
"$%;=;=;;;==;=;;=%%==;==;==;;==;*&%;=;====*;=***=>-;=##;;->=;;=*=",
"$%==;=;;=;===;;=$%;=;=;===;;=*=*&%;===;==*=*=**=-%=;##;;=-;=;=**",
"%%=;;=;;;;*=;;=;%%;==;;;=;;;=***&%=;==;;==**=*==%%=;**;=;=;==*=*",
"%%;;===;;=*=;==;$%=;=;=;=;=;==**&%=;;==;=;*===*=%%=*=*==;;==;*==",
"$%;==*=;==*=*==*$%=;;;=;;;==;=**%%;;;==;;;===;**$%**;=*==;==;**=",
"$%;==*=;==***=**$%*;;==;;==*;;*=%%;=;==*;=*=;;*=%%*=;;*==;=;=&*=",
"$%==**;=*=**==*=%%*=;=;;=;=*=;==%%==;;=*=**=;===$%*;=;&*==;;*&=*",
"$%*=*=;;**=*=*==%%&*=*=;=;*=;==*&%=*;=*=**=*=;=*$%=;==&&==;=&*==",
"%%**===;=*==**==$%&***===**=*=*&%%=*=**=**=**;*=$%==*&*&*=**&&*=",
"$%*=========*===$%&&***&&&****&&%%==**==*===***=$%**&&****&&&***"
};
