/* XPM */
static const char *flower_pot[] = {
/* columns rows colors chars-per-pixel */
"64 64 6 1 ",
"  c #67392D",
". c #743F31",
"X c #794334",
"o c #834939",
"O c #894C3B",
"+ c None",
/* pixels */
"++++++++++++++++++++++++++++++++++++++++++++++++++++++++++++++++",
"++++++++++++++++++++++++++++++++++++++++++++++++++++++++++++++++",
"++++++++++++++++++++++++++++++++++++++++++++++++++++++++++++++++",
"++++++++++++++++++++++++++++++++++++++++++++++++++++++++++++++++",
"++++++++++++++++++++++++++++++++++++++++++++++++++++++++++++++++",
"++++++++++++++++++++++++++++++++++++++++++++++++++++++++++++++++",
"++++++++++++++++++++++++++++++++++++++++++++++++++++++++++++++++",
"++++++++++++++++++++++++++++++++++++++++++++++++++++++++++++++++",
"++++++++++++++++++++++++++++++++++++++++++++++++++++++++++++++++",
"++++++++++++++++++++++++++++++++++++++++++++++++++++++++++++++++",
"++++++++++++++++++++++++++++++++++++++++++++++++++++++++++++++++",
"++++++++++++++++++++++++++++++++++++++++++++++++++++++++++++++++",
"++++++++++++++++++++++++++++++++++++++++++++++++++++++++++++++++",
"++++++++++++++++++++++++++++++++++++++++++++++++++++++++++++++++",
"++++++++++++++++++++++++++++++++++++++++++++++++++++++++++++++++",
"++++++++++++++++++++++++++++++++++++++++++++++++++++++++++++++++",
"++++++++++++++++++++++++++++++++++++++++++++++++++++++++++++++++",
"++++++++++++++++++++++++++++++++++++++++++++++++++++++++++++++++",
"++++++++++++++++++++++++++++++++++++++++++++++++++++++++++++++++",
"++++++++++++++++++++++++++++++++++++++++++++++++++++++++++++++++",
"++++++++++++++++++++ooOOOOOoooooXXooXXooooXX++++++++++++++++++++",
"++++++++++++++++++++oOoooXXoXXX...XXXXXXXX.X++++++++++++++++++++",
"++++++++++++++++++++OoXXooXX...X.XXX.. .XXX.++++++++++++++++++++",
"++++++++++++++++++++OXXX....    XX..  ...XX.++++++++++++++++++++",
"++++++++++++++++++++OXX.++++++++++++++++oXXX++++++++++++++++++++",
"++++++++++++++++++++o.X.++++++++++++++++o.X.++++++++++++++++++++",
"++++++++++++++++++++oX. ++++++++++++++++X..X++++++++++++++++++++",
"++++++++++++++++++++oo. ++++++++++++++++o..X++++++++++++++++++++",
"++++++++++++++++++++Oo. ++++++++++++++++oX..++++++++++++++++++++",
"++++++++++++++++++++oX  ++++++++++++++++XX. ++++++++++++++++++++",
"++++++++++++++++++++OX. ++++++++++++++++XX. ++++++++++++++++++++",
"++++++++++++++++++++OoX.++++++++++++++++oX..++++++++++++++++++++",
"++++++++++++++++++++OXX ++++++++++++++++o.. ++++++++++++++++++++",
"++++++++++++++++++++Oo. ++++++++++++++++o.X ++++++++++++++++++++",
"++++++++++++++++++++oo..++++++++++++++++XXX ++++++++++++++++++++",
"++++++++++++++++++++oXX.++++++++++++++++oXX.++++++++++++++++++++",
"++++++++++++++++++++O.X.++++++++++++++++oXXX++++++++++++++++++++",
"++++++++++++++++++++oX. ++++++++++++++++ooX.++++++++++++++++++++",
"++++++++++++++++++++Oo..++++++++++++++++ooX.++++++++++++++++++++",
"++++++++++++++++++++OoX.++++++++++++++++oXo.++++++++++++++++++++",
"++++++++++++++++++++oXXXooooooXX.XooooooXX. ++++++++++++++++++++",
"++++++++++++++++++++oX.XXXooXXX...XXoooX.X. ++++++++++++++++++++",
"++++++++++++++++++++X..X.XXXoX.. ....XXo..  ++++++++++++++++++++",
"++++++++++++++++++++XX..XX..    ....  ..    ++++++++++++++++++++",
"++++++++++++++++++++OOOOOOooOoOOOOOOooX.X.X.++++++++++++++++++++",
"++++++++++++++++++++OOOOooXooooooooXoXXX....++++++++++++++++++++",
"++++++++++++++++++++oOOooXoooXoooXXXX.......++++++++++++++++++++",
"++++++++++++++++++++ooOOoooXoooXooXX....... ++++++++++++++++++++",
"++++++++++++++++++++OoooOoooXoooXXX.XXX.. . ++++++++++++++++++++",
"++++++++++++++++++++OoOooooXXXoooXooXX....  ++++++++++++++++++++",
"++++++++++++++++++++oOOooXoooXXXoooX...     ++++++++++++++++++++",
"++++++++++++++++++++ooOOooXoooXXXoXXX...    ++++++++++++++++++++",
"++++++++++++++++++++oOooOooooXXoXXX......   ++++++++++++++++++++",
"++++++++++++++++++++oOOoooXooooXXX.......   ++++++++++++++++++++",
"++++++++++++++++++++OOOooXXXoXXXX.XX......  ++++++++++++++++++++",
"++++++++++++++++++++OOooooXXXoXXXXoXXX....  ++++++++++++++++++++",
"++++++++++++++++++++OOoooXooXXoooXXXX.....  ++++++++++++++++++++",
"++++++++++++++++++++OooooooXoXXoXXoXXXX...  ++++++++++++++++++++",
"++++++++++++++++++++OooOOoXXXXXXooXoXXX...  ++++++++++++++++++++",
"++++++++++++++++++++ooOooOoX..XXXoXXXXX...  ++++++++++++++++++++",
"++++++++++++++++++++XOOOooXooX.XXXXX.X...   ++++++++++++++++++++",
"++++++++++++++++++++XoOoXoXXoo..XXX.X....   ++++++++++++++++++++",
"++++++++++++++++++++XoooXXX.XXX.........    ++++++++++++++++++++",
"++++++++++++++++++++XXoXXXXX.... .          ++++++++++++++++++++"
};
