/* XPM */
static const char *flowering_azalea_top[] = {
/* columns rows colors chars-per-pixel */
"64 64 9 1 ",
"  c #575016",
". c #495E27",
"X c #50692C",
"o c #647233",
"O c #70922D",
"+ c #6C8031",
"@ c #9E5088",
"# c #BA62CE",
"$ c #D07BE3",
/* pixels */
"XooooO+ooXoO+++O+o+++O+oX+OO+O++oo+oo+OOOOOO++O+++oo++OOO+OOO+oo",
"XXXo+OO+OoXo++O++oo+OO+XXOOO+OOoo+O+Xo+OOO+++OOOOO++oo++OOOO++oX",
"ooXXoo+OO+XX++O+++o+O+oXo+O+OO+oX+OOoX++++OOOOOOOOOO++o++OO+oXXo",
"+++oX+o+OO+Xo+OO+o+OO+oXo+O+O++XoOOO+Xo++OOOO+O++++oo++oooXXXo+o",
"++O++OOO+OOooO+O+oOO+ooXo+O+++oX+O+O+oXo+++OOO++ooXXXooXXXoo++++",
"OO++OOOO+OO+oO++O+O+++oX++OO++Xo+O+OO+oXo+OO+++oXXoooXXooo++++O+",
"O+oo++O++OOOoOO+OO+++oXo+OOO+XX+O+++O+OoXXXo+ooXoo++OoXXo+OO+OOO",
"OO+ooo++OOOOo+O+O+ooooX+OO+OOXoOO++o+OOO+ooXooXXX++O++oXXo+OOOOO",
"OO++oXo+O+O++o+#+$#o#Xo+O+OO+Xo+OO++o+OO+O+oXXooXX++OO++oXXo+O+O",
"O+O++oXo++OO+o#$$#####Xo++OO+Xo+OOO+o+O++OO+Xoo+oX++O++++oXXo+O+",
"OO+OO+XXo+O++$$$##$##@#XXo+O+oX++O+Ooo$O+OO+oX++ooX+++O+++ooXo++",
"+OO+++oXo+++$$$##X.$##@#oXo+O+Xo+OO+X$$$OO++oo+++oXo+OOO++++oXo+",
"+++O+OoXoo+oX$$$XXX.#@@O+oXoo+Xo++OOo$$$OO+++oo+O+oX++OO+O+++oX+",
"o+OOO++oXooX#$$XXX...@@@++oXoXoo++OO$##$$++O+XoOOO+X++++OO++++Xo",
"Xo++OO++oXXX$#$...X. @#@OOooXXo+O++O##$$#+O++Xo+OOoXo+O+OOO+O+oX",
"oXXo+oooXXXo+##$    ##@OO++oXoo+OO+O@$#$@OO+oX+++OoXo+OO+OO++O+X",
"ooooooXX.Xo+####$  #@#@@++++oXoOO++OO#@#+O++Xo++O+Xooo+O++O++OOX",
"o+++++oXX.X++$####@@#@@+OO+oXX+O++OO+@X@OOO+Xo+OO+Xoo++O+o+O+O+X",
"++OOOOO+oX.oo+@#@@@#@@ooooXXXo+O+O+O+Xo+++OXX++O+oXo++OO+oOOOOoX",
"OO++OO++OoX.oo+@O#@+@O+++oooXoO++O++oXooo++Xo+O++Xoo+OO+o+OOO+Xo",
"+OO++OOO+ooX..o+++OOO++OOO+oXo++OO+oXoXXXoXo+++ooXo+O++oX+OO++Xo",
"++OOO+O+++oXXX.Xoo++OOOOO++oXooOO+oXooo+oXXoooooXo+++oXXoO++oXXo",
"oo++OOOOOoooXXooXooOO++++ooXoXoO++Xoo++++OoXXXXXo+oooXXo++ooXoXX",
"XXo++OO+ooXXXooooXoooO++ooXooXo+OoXo++OOOO+++oooXXXXXoo++oXXo++o",
"+oXXoo+oXXo+X+++ooXXXoooXXo+oXo+oXo+OOOOO+OOOO+oooo#o#$o#Xoo++OO",
"++oXXXXXoo++oX+O++ooXXXXo++O+XXooXo+++O++++OO++O++$##$#@#@O+OO++",
"O++ooXXoo+OO+X+OOO++oXoo+OOO+oXXXXXXoo+OOO++++++O##$$$$#@@@OO++O",
"OO+++oXo+++O+o+OO++++oX+OOO+oooXXXXXXo++O++OOOOO$$$$#..$#@@@OOO+",
"O+O+O+Xo+++O++o+OO+O+oX+++OooXXXXXooXXXo++OOOO+++#$#.XX.$#@oo+++",
"+++OOOXoO+OOO+o+OOOO++oX+ooXXXoXXoo+oooXXo+++OO+#$$.XX.. @@@XXo+",
"oo+O+OXoOO+OOOo++O++++oXooXXooooXo+++++ooXXX++++$$$X.X.  #@@OoXX",
"XX++O+ooOO++O+oO+++O++ooXXooo+ooX+++OO++o+oXXo+OO#$$ .  #@#+++oo",
"oXXo+Oo$+OO+O+o+++OOO+oXooo++oooXo+OO++OO+++OOOO$$##$  ###@@+++o",
"+ooXo+$#$OO+++o+O++O+oXoo+++ooXXXX+++OOOOOOOO++OO$$#$$$$#@@OOOOO",
"O+oo++$#$OOO+O+oO+O++Xoo+++ooXoXXXo+OOOOOO+++O+ooo@##$$@@@++OO+O",
"OO+oo$##$#OO+O++O+OOoXo++O+oXoooXXoo++O+O++XXooXXXo@O#@O@OO+++++",
"+OO++##$##+O+O+OO+O+Xo++OO+Xo+ooXXoXo+oooXXooXXXoo++OO++OO++oXX+",
"oo+O+@###@++OO+O+++oX+++O+oXO++ooXXXooXXXo++ooXooOOOO++O+++XXoXX",
"XXo+OO#@#oX++OOOO++Xo+OO++X+O+OooXXXXXooo++++ooX++O+++++oXXo+++o",
"oXXOOO@+@+XX++OO+OoX++OO++X+OOOooXXooooo++O+++oXo++O+ooXXXo+OO++",
"OoXo++OO++oXo++O++Xo+OOOOo+++O++oXoo+oX++OO++O+oXo+oXXXo++OOO+OO",
"OOoXo++OO++oXo++++XoOOO+OoO+OO+OoXo+++oX++OOO+++XoXXo+O++OO++OO+",
"O++oXXo++ooooXXo+oX+OOO++o+OOOOOoXo++O+oX++OOO+OoXXoOOO+++OOO+oo",
"XooXX++ooXXXoooXXXoOO+O+o++O+OO+ooX++O++oX++O+O+OXo++O+OOOO+ooXX",
"oXXo+O++++oXXXXXXXo$O$#O#+++OO+O+oXo+OO++XoO++O++X+O++OO+++oXXXo",
"++o+++OO++++ooooXX$#$##@##O+OOO++oXoO+O++oX++OO+oXo+OO++ooXXo+++",
"+O+OOOOOOO+O++ooX####$##@@#OOOO+O+Xo++OO++X++OO+XoXoXXXooXo++O++",
"OOOOOO++o+OOOOoX$$##$..$#@@#OOOOOoX++++O++oX+O++XooXX++o+++OO+++",
"OO++o+oXXXooO+Xo+#$$.XX.##@+OO+OOXXo+O+O+O+oOO+oXo$o++OOO+++OO+O",
"+++oXXX+ooXXoXXo#$$.XXXX.@@@O++OoXoX+OO+OO++O++oX$$$OOO+++OOOOOO",
"+oXXo+++O+ooXXo+$$$X.X.X @@@O++oXooXoOO+OOO++++Xo$$$++++o+o++OO+",
"oXo+++OO+++oXo+OO$$$..  #@@O+oXXoo+oX+O++OO+OO+X$$#$#XXooo++OO++",
"Xo+++OOOOO+XX+OO##$$$  #@#@@XXXoo+OoX+++OO+OO+oX#$$##oXXXXoo++Oo",
"o++O+++OO+oXo+OOo$$#$$###@@XXooo+O+oXo+o+O++++oX@$##@++oXXXXooXX",
"OO++OO+O+oXooOO+..@##$#@@@.Xo++o+OOooXooo+O++oXoo#@#+O+++oooXXXo",
"O++OOOO+ooXo+OOo.Xo@O#@o@.oo+O+ooOO+oXXXoo+XXXoXX@+@O++++++ooXo+",
"++OO++ooXXooOOOoXo+++O+oX.o++O++o+OOoXooXXXoo++ooXXoOOO+OO++ooXo",
"OOO++ooXXoX+O+OoX++++O++oX++O+++o+O+Xoo+++oX+OO+++ooo++OO+O++oX+",
"+O+oXXXoO+XoO++OX+OO+OO+oX+OO++o+OOoX+oO+O+Xo+OOO++++o+++O++oXXo",
"+oXXX+OO++oXO++OX++O+OO++XX+O+O+OO+oo++oOO+oXo++O+O+++OO++ooXXoX",
"XXoo+OOOO+oXOO++o+O+OO+++oX+OO++OO+o+O+++++oXXo++O++OOO+++..Xo+o",
"o++OOO+O+oXoOO+OooO++O+O+Xo+OO+OOO+o+OO+OO++oXXo+o+OO++oX..oo++O",
"+OOO++OoXXo+O+OOoo+O+OOOoX+++OOO++ooo+OO+OO++ooXXXo+ooXX.o++OOO+",
"++++ooXXXo++O+OO+o++++OOXo+O++OO+ooo+OOOOOOOO++OooXXXXXoo+O++OOO"
};
