/* XPM */
static const char *flowering_azalea_leaves[] = {
/* columns rows colors chars-per-pixel */
"64 64 10 1 ",
"  c #3A4C26",
". c #575016",
"X c #495E27",
"o c #50692C",
"O c #70922D",
"+ c #6C8031",
"@ c #9E5088",
"# c #BA62CE",
"$ c #D07BE3",
"% c None",
/* pixels */
"OoOO%%%%%oooooo+++o%%%%%%%oo+OOO+o%%%%%%%%%  o %%%%%%%oO+O+o%+OO",
"O+OO%%%%% o  ooooo%%%%%%o+OOOOOOO+o%%%%%%% oo %%%%%%%%oOO+O+%OOO",
"O+O+%%%%%%  oo %%%%%%%%+OOOO++o+OO+o%%%%%%oo %%%%%+++  +O+OOoO+O",
"+OO%%%%%%%%%   o%%%%%%+OOO++OOOooooo%%%%%o o%%%%+OOO+o o+O+Oo%+O",
"OOO%%%%%%%%%% oo %%%%+OO+++OOO++oo  %%%%%o  %%o+OO+oo+ oo+OOoo+O",
"OO+%%%%%%%%%%% oo %%%OO++OOO+oooo%o o%%%%oo %++O+oo+OOo%%o+++o%+",
"%%%%%%%%%%%%%%%oo %%+O+OOO++oo%%%+oo  %%% o o+O#o#$O#+%%%%o++o%%",
"%%%%%%%%%%%%%%% oo %+OOO++oo%%%ooOO++oo%% oo+O$##$#@#@%%%%%%oo%%",
"OO%%%%%%%%oooooo oo%o+O+oo%  oo+++OOO++o   +O##$$$$#@@@%%%%%%%+O",
"+O%%%%%%+oo++oo  oo +oooo% ooo+OO++OOOO+ o++$$$$#XX$#@@@%%%%%+OO",
"OO%%%%+ooOO+o  o  o %%%++oo o o+OOO+++OOoo+OO#$#XooX$#@%%%%%%OO+",
"O%%%+OOOOO+oooooo o +++oo    %%oo+OOO++O o++#$$XooXX.@@@%%%%OO+O",
"O%%+OOOOO+o+++oo o+O+ooo  o %%%%oo+OOOO+ o +$$$oXoX..#@@%%%%+Oo+",
"+%+OOOO++OOO+oo%+OO+ooo ooo %%%%%%oo++OOoo oo#$$.X..#@#%%%%%o+o+",
"%+OO+++OOOO+oo%+OO+oo++++o %%%%%%%%%ooo+o o $$##$..###@@%%%%%oo+",
"%OO+++OOO++o%%+OOOo++OOOo  %%%%%%%%%%%%%o  %%$$#$$$$#@@%%%%%%% o",
"OO+OOOO++o%%%+OOO+oOOOO+o %%%%%%%%%%%%% oo %%%@##$$@@@o%%%%%%o  ",
"+OOOO++o%%%%%+OO++OOOO+o %%%%%%%%%%%%%%o o %%%o@+#@o@O+%%%%%%o o",
"o++ooo%%%%%%+OOO+OOOOO+o%%%%%%%%%%%%%% o   %%%o++OO+oOO+%%%%%%o ",
"+ooo%%%%%%%%OOO+OOOOO+o%%%%%%%%%%%%%   oo %%%%%oOOO+o+Oo%%%oo++ ",
"%%%%%%%%%%%%OOOOOOOO+o%%%%%%%%%%%%o   oo %%%%%%o+OOO+o+o%o++OOO+",
"%%%%%%%%%%%%+OOOOO+oo%%%%%%%%%%%oo++oo  %%%%%%%%o+OOOooo++OOOOO+",
"%%%%%%%%%%%%o+OO+o  o %%%%%%%%%o+OOOO++o %%%%%%%%o+O+o +OOO+OOO+",
"%%%%%%%%%%  oooo   ooo  %%%%%%o+OOOOOOO++o%%%%%%%%ooo +OO++OOO+%",
"o+OO+o %% ooo %%%%% ooo  %%%%%+OOOO+++OOO+o%%%%%%%%%%++O++OO++%o",
"OOO+ooo    o %%%%%%%%  ooo%%%oOOO++OOO++OO+  %%%%%%%%+OO+OO++%o+",
"O+oo+OOo # $#%#%%%%%%%%oO+oo%oOO++OOOOOO+O+ooo %%%%%+OO+oO++%o+O",
"Oo+OOO+ #$$#####%%%%%%% OOO+o+O+oOOO+OOOOO+  ooo %%%+O+o+O+o%+OO",
"++OO+Oo$$$##$##@#%%%%%% +OOO+o+o+OOOO+++O+oo  ooo %%+Ooo++o%o+OO",
"+OOOO+$$$##oX$##@#%%%%%%oO+OO+ooOO++OO+ooo%%%o  oo %o+ooO+o%+OO+",
"OOOOOoo$$$oooX#@@%%%o   oOO+OO+o%o+oo%%%%%%%%%++oo  o+o+Oo%o+OO+",
"OOO++o#$$oooXXX@@@o  o   +O++OO+%%%%%%%%%%%oo+OO oo +oo++o%o+O+O",
"OO++o%$#$XXXoX.@#@++oo  %oOO++OOo%%%%%%%%oo+OOOOo    oo oo%+OO+O",
"O+o %%%##$....##@+oooo %%o+O+o+O+%%%%%oo++OOO+Oo   o o  oo%+OOOO",
"o %+++####$..#@#@@+O+ %o %oOO+oOOo%%%o+OOOO++OOo o oo  ooo%o+OO+",
"%o+OOOO$####@@#@@+O+ooo    +OOo+Oo%%o+OOO+++OO+oooo+oo oo+oooo  ",
"o+O++OOO@#@@@#@@oOOooo++oo +OO+o+o%o+OO+o+OO++o o+oO+ooooo+oo%%%",
"o+ooo++O+@%#@O@++OOo ooOO+oo+O+o+ %oO+oo+OO+oo%o+Oo+Oooo+o+++oo ",
" oo+OOO+O+%o+O++OO+ o+o+OO+ o++oo oooo+OOO+o%%%oOO+oOo%o++o+++o ",
"  oOOOOOOO%+OO+OOO+ +Oo+OO+ ooooo ooo+++oo%%%%%oOO++O+%oo+oo+++o",
"o%%ooo++OOoOOO+OOOo +OOoOOOo% oo   oooo%%%%%%%%+OOO+OO%%o++oo+O+",
"o%%%%%ooo+oOO+OOO+o%%+Oo+OOo%%   %  o%%%%%%%%%%%OOO+OO%%%o+O+ooO",
"O%%%%%%%%%+OO+OOO+ %%oO++OOO  o %%%%%%%%%%%%%%%%+OOO+O%%%%o+OO+O",
"+%%%%%%%%%+OOOOO+o %%%+O+OOOoo  %%%%%%%%%%%%%%%%+OOOOO%%%%%++OOO",
"o%%%%%%%%%%+OO+oo %%%%oOO+OOo  %%%%%%%%%%%%$%$#%#oOOOOo%%%%%o+++",
" o%%%%%%%%%%+o  %%%%%%%+OOO+o%%%%%%%%%%%%%$#$##@##+OO+o%%%%%%%o ",
"oo  %%%%%%%%%%  oooo%%%oOO+oo%%%%%%%%%%%%####$##@@#+ooo %%%%%% o",
"  ooo %%%%%% oo+OOo %%%%o+ooo%%%%%%%%%o+$$##$XX$#@@#oo oo %%%%%o",
"%% o   %%%%o++OOO+o%%%%  ooo%%%%%%%%o++OO#$$XooX##@     oo  %%%%",
"%%% ooo %%o+OOOOO+ %% oo  %%%%%%%%o+OOOO#$$XooooX@@@oo  % o  %%%",
"%%%% ooo%++OOO+OOo% oo oo %%%%%%%+OOOO++$$$oXoXo.@@@o   %%%o  %%",
"%%%%  ooo+OO++OO+ooo  o  o%%%%%%%o+OOOOOO$$$XX..#@@+ooo %%%o  %%",
"%%%%% o +OOo+OO++o +o+  oo %%%%%%%o++OOO##$$$..#@#@@ooo %%o  o %",
"%%%%%o +O+o+OO++o+oo+o%  oo %%%%%%%%oo++%$$#$$###@@++o %%    ooo",
"  %%% oOOooOO++o+o+OOo%%o o %%%%%%%%%%%%o+@##$#@@@+o  %%o+ooo oo",
"o   %%oO+o+OO+o++OOOOo%%%ooo %%%%%%%%%o+OOO@ #@o@+  %%o+++++oo o",
"ooo  %++oo+O+o%+OO+OO+%%%% oo%%%%%%%%+OOOO+ooo oo %%++OOOOooo   ",
"% oooo +ooOO+o+OO+OOO+%%%%o o %%%%%%+OO+++OO+o o%%o+OOOO+oo++Oo ",
"%%  ooo o+O+o%+O++OO++%%%%% oo%%%%%+OO++OOO+o o %o+OOO++OOOOO+o ",
"%%%%  oo ooo%oOOoOOO+o%%%%%o o%%%%%o+OOOO+oo  o oo+OO+OOOOO++o  ",
"oooo++ oo %%%+Oo+OO+o%%%%%%% o %%%%%o+OOoo%%% oo oo+OOOOO++oo   ",
" o+OO+%    %%O+oOOO+o%%%%%%% oo%%%%%%%oo%%%%%% o   oo++ooo  %%o ",
"o+OO+%%% oo%oOooOO+o%%%%%%%%  o %%%%%%%%%%%%%%ooo %%ooO++Oo%%%oo",
"+oOO+%%%  o o+ooO++o%%%%%%%%% oo%%%%%%%%%%%%% oo %%%%%OO+Oo%%oo+"
};
