/* XPM */
static const char *frosted_ice_2[] = {
/* columns rows colors chars-per-pixel */
"64 64 20 1 ",
"  c #659AF3",
". c #699CF3",
"X c #70A4FC",
"o c #76A8FC",
"O c #7DABFA",
"+ c #7FACFB",
"@ c #78A9FD",
"# c #80ADFB",
"$ c #8FB7FD",
"% c #90B7FD",
"& c #92B9FE",
"* c #97BCFD",
"= c #9ABEFE",
"- c #9DC0FE",
"; c #A1C3FF",
": c #C1D7FE",
"> c #C6DBFE",
", c #C8DCFF",
"< c #CCDEFE",
"1 c #CEE0FF",
/* pixels */
"#######XXX#####&#&&&&;;;;;;;;;&&&&&##&#######XX##&&;;;;,;;;;;;&#",
"X#####XXX#######&&&&;;;;;,;;;&&&&&#&&#######XX##&&;;;;,;;;;;;&##",
"####XXXX######&&&&&;;;;1,;;;&&&&&&&&#####&#X###&&;;;;;;;;;;&&##X",
"##XXXXX######&#&&&;;;11,;;;&&&&&&&&####&&#X####&;;;;;;;;&&&&#XX#",
"#XXXXX#####&&#&&&;;;11,;;;&&&&&&&&###&&&####&#&;;;;;;;&&&&&#XX##",
"XXXX######&&&&&&;;;;;;;;;&&&&&#&&#&&&&&#####+&&;;;;;;&&&&&#XX##X",
"XX#######&&&&&&;;11;;;;&&&&&&#&&&$&&&&####&&&&;;;;;;&&&&&#XXXXXX",
"X#########&&&&-;11;;;&&&&&&###&&&&&&&&###&&&#&;;;;&&&&&&#XXX#XXX",
"########&&&&&;->,;;&&&&&#####&&&&&&&&###&&##&;;;&#&&&&&#XXX#XXXX",
"#######&&&&&&;,-;$&&&&####X#&&&&&;&&&##&&##&;;&##&&&&&##XX##XXX#",
"######&&&&&&;;;;&&&$$####X#&&&&;;&&&##&#########&&&&&##XX##XXX##",
"####&&&&&&&;;;&&&&&&++#XX#&&&;;;&&#&#&#######&#&&&&&###X#XXXX###",
"##&&&&&&&&;;&&&&&&&###oX#&&;;;&&####&&######+#&&&&####XXXXXX#&&#",
"#&&&&&&&&;&&&&&&&&##XXXo&&;;;&#####&&#######&&&+++####XXXX##&&##",
"&&&$&&&&&&#&&&&&&##XXX#=@;;;&#&########X##&&+O===####XXX##+&&#&&",
"&&;$&&&&##&&&&&&#XXXX#&==@&&&&########X#####o===####XX####+#&&&&",
"&;&&$&##&&&&&&&#XXXX#&&;=@$&#########XX####o===#&##X####+#&&&&&&",
";;&&$##&&&&&&&XXXXX#&&;;@@=#########XX#####===&&#######+&$&&&&&&",
";&&&+$&&#&&&#XXXX##&;;&& o $######XXX#####o===########&&&&&&&&;;",
"&&&##$&##&&#XXX#&&&;;&&#  =o####XXXX######=o=######&&&$&$&&&;;;;",
"&&&#&&++&&#X#&&&&&&&&&&@=#==o##XXXXX#####o=@####&&&&&$&$&&;;;;;&",
"&&##&##+$+##&&&&&&&&&&#==&#=o#XXXXX###&##o@o##&&&&&&&&&&;;;;;;;&",
"&##&#X##+OO+&&&&&&&&##o=####ooXXXX##&&##@@$#&&&&&&&&&&&;;;;;;;&&",
"####X#####+&&+&&&&&##==o####ooXX###&&##& o$&&&&&&&&&&&;;;;;;;&&&",
"##XX######&##&&&+####&####X#o o####&#&&@ @&##&&&&&;$&;;;;;;;&&&#",
"#XX#########&&#++O######XX##o o###&&&&& @&##&&&&;;&@$;;;;;;&&&&#",
"X########&&&####++#&##XX####oo o&&&&;&  &&&&&&&;;&  1,;;;;&&&&&#",
"########&&&######O$##XX####&#o  #&;;   o&&&&&&;;   1,;;;;&&&&&##",
"#######&&&#######&$#####&###&=o      oo&&&&&&    @:;;;;;&&&&&###",
"####XX&&########&&+##+#&&&#&&==    ooo&&&&&    @=;;;;;;;&&&&&###",
"##XX#&##############&@@&;;&&&&=@    o&&&&  @====;,;;;;;&$&&&####",
"XXX################&&$@ &&&#&&#=     @&&  ==@;;;,;;;;;;&$$&#####",
"XX###########&&###&&&;-  ##&&###        ==;;;;;1,;;;;;&&&&&####X",
"X###########&&###&&&;;&@  ######       ==;;;;;,1;;;;;&&&&&####XX",
"#########&&####&&&;;&&&&=o ####   $$$   =;;;;,11;;;;&&&&&####XXX",
"########&&#&##&&&;;&&&###oo####  $$===   =;;;11;;;&&&&&&####XXXX",
"######&&##&&&&&&;&&&&####=o ### $=#&&&$@@@@;,1,;&&&&&&&##++X#XX#",
"#####&&##&&&&&&&&&&&######o ##  *#&&&&&;$$@@1,;;&&@@&&##++XXX#X#",
"###&&+#&&&&&&&&&&&&##&####=o # $=&&&&&;;;;%.;;;&  &&###+XXX##XX#",
"##&&#+&#&&&&&&&&;;&#&#####==o  =#&&&&&;;;,1$ &   &####XXXX##XX##",
"#&&#&$&&&&&&&&;;&&&&&#####=o o$&&&&&&;;,11;;@@@@&###XXXXXXXXXX##",
"&&#&&$&&&&&&;;;&&&&&######o *o&&&&&&;;,11;;&@@ @##XXXXXXXXXXX###",
"&&&&&&$&&&&;;;&&&&#######  o**#&&&&;;,,,;;&&&  o#XXXXXX##XXXX#&&",
"&&&&&&$&&&;;;&&&##&####o  o**#&&&&;;,,;;;&&&&  oXXXXXX#XXXXX#&&&",
"&&&&&&$$;;;;&&&##&####o o%%o##&&&;;,;;;;&&&&o   ooXX##XXXX##&&&&",
"&&&&&&;-;;;;&&#&&###ooo%%%oo#&&&&;;;;;&&&&##  ooo%o+#X##X###&&&&",
"&&&&&;;;;;;&&&&###oo&%%%XX#o@#&&;;;;&&&&&##  XXX&&o+##XX###&&&&&",
"&&&&;;;;;;&&&&##Ooo&%%XXX###o@@@;;&&&&&&## +#XX##&&o#XX###&&&&&&",
"&&&;;;;;;&&&&##+o$$$XXXX####&&@@@&&&&&&##+##XX####&&@&###&&&&&&&",
"&&;;;;;;;&&&##+o$$XXXXX####&&;;@@@&&&&#++###X#####+&@###&&&&&;&&",
"&;;;1;;;&&&&&+$$#XXXXXX####&;&&&@oo&&###&&#X#####&#+o+#&&&&;;&&&",
";;;;1;;;&&#++$+##XXX#X####&&&####o@&##&&&##X+###&###&+&&&&;;&&&&",
";;;1,;;&&##+O+##XXX#XX###&&######&o&&&&&####&+#&&####&&&;;&&&&&;",
";;11;;;&####+###XX##X#############o&&&;&&&#&++#&####&&&;;&&&&&;;",
";,1,;;&#&#++###XX##X#############&&&&;&&&&&#++&####&&&&&&&&&&;;;",
",11;;;#&++####XX##X#########&##&&&&@;&&&&&##+&&####&&&&&&&&&;;;;",
"11,;;&#++####X###X########&&#&&&&&;;&&&&&##&&&####&&#&&&##&;;;;,",
"1,;;;##+####X###X#######&&&#&&&&;;;&&&&&&##+&#######&&###&;;;,11",
",;;;&#++###X##########&##&&&&&;;;;;&&&&&###&#######&&###&;;;>111",
";;;&##+###X############&&&&&;;;,;;&&&&&&##&+###########&;;;,<1,;",
";;&##+###############&&&&&;;;,,;;&&&&&&&#########X###&&;;;;,>;;;",
";&##+#######X#######&&&&;;;;,,;;;&&&&&&#########X###&&;;;;,,;;;;",
"&#########XX######&&&&&;;;,,;;;;&&&&&##########XX##&&;;;;,,;;;;;",
"########XXX########&&&;;;,,;;;;&&&&&####&&####XX##&&;;;;,,;;;;;&"
};
