/* XPM */
static const char *glowstone[] = {
/* columns rows colors chars-per-pixel */
"64 64 8 1 ",
"  c #6F4522",
". c #734E26",
"X c #855029",
"o c #886839",
"O c #CC8654",
"+ c #FBDA74",
"@ c #FFF0DA",
"# c white",
/* pixels */
"+@@++@+OXX ...o.XXX++@@####@@@+++OXX  ...XOO++@@##@+++O  . .oo++",
"@#@@@+++OXX ..ooXXO+++@@##@@#@@@+OX. ..oXXO+@@###@@@+++O  ..oO++",
"#@##@@@+++   o.o.XOO++++@@##+@@++XX . o.XO+@#@@###@#@@++X . .O+@",
"@##@@@+@O+ Xoo.  XXOO++@@@++@@+O+X.  .ooX++@@###@@#@##@+O  o.o@@",
"+@@#+@@++OXXo.. ..XO++O++@@+OOO+OX . oooO+@@#####@@##@@+OX oo.O@",
"++@@@++++O XXo .XXXXOO+++++OO++OX. ..oXoO+@##@##@#@@@@++OXo.o.O+",
"+@@+++O+O  .X...oX.  .XO+O++++OXX.. oo.XXO+@@+@##@@@++OOXXoo..XO",
"O++OOO+OO   ..oooo  .. .XXOOXXXX...  o..XX+++@@@@@@+OO+OXX o..XX",
"XOOO++OO   ..oo...oo.oo. XXXXX  . oo. ooo. O++@@++OO++OXX  .o...",
"XX+++O   .  ...o......oo.  .XXX  ..oo.XXoo. O++@@OO++OOX  ...o..",
"XX      .....  .XX.  .  oo.XX.o..ooX...XXXX   OO+++OOOX.. ..ooo.",
".XX XX.  ..  .  .XXX  ...ooo.X.ooo..XXOOOO.. .XXOOOXXX.. o..X.oo",
"X....XX.o.X.XXOO++OXXX.  ...o...o.XOO++@@++OXX.  XXXX. ...oo.XX.",
"XX.ooXXoXo.XXO++++++OXXX  Xooo.o..O+++@+@@++OO..  X.  ..ooo...XX",
"OXooXXoooX.O++@@++++++XXX.XX.oo..X+++@@@##@+++OX..  ...ooXXXXO++",
"+O. oooXXXO+@@@@@@@++@+OXX.X...X.++@@@##@@@@@+OOXX.  oo.XXOO++++",
"+OX.XXXXXX+@+@@@#@@@+@@+OXX... .X+@######@@#@@+O.XXoo..XO+++@@+@",
"++X..oXXXO++@@####@@@@+@+OXX.  .O@#@##@#@##@@++OXXXXoo.+++@@@@@+",
"++OX .oXXO+@###@@@#@@@@++OX.. .X++@@##@@##@@@@OO..X.X.+@@#@###@+",
"++OX .ooO+@@@###@@@@@@@@+OOX .XX+@@@@##@@@+@OOOOo..XX+@@#####@#@",
"++XX. .o++++@@#@#@@@@@@++OOX  XXO++@@@+@+@OO+OOoo.XXO+@#@@####@@",
"+O.X. .o+++@@@@@@@@++@++O+O  X XXOO+@@@+OO++Ooo ooXO+@@@@##@#@@+",
"+O..  ..++++@+@@@@@@++++O+O     XO+OO++++OOXX..oo.XO+@@@#@@@@@++",
"OX. .  .O++++@@@+@@++++O+OXX   XXXOO++OOX..X  XX.oO+@@@@@@+@++++",
"XX  .. oXO++@@@@@+++++OOOO XX    XXOOO..   ..  XX.O++@++@@@+OO++",
"X. . .o.XXOO+++@+@+++OOOOX XX .   .XXX. .   ...o..X++++@@@+OO++O",
". ..oooo.X  OO+++++O++OOX   X  ...   ..XXX..  ..oXXO+++++OO++OO.",
"XXX..o.XXXX  XXO++++OOOXX .X .  .o..  XOOOOX.  .o.XXOO++OO++O...",
"OOXX..ooo..X. XXXXOOOXXX . X.oo.oooXXO++++++OX. oo..XXOOO+..XXXO",
"+OOOX...oooo... XXXXXX  X.. ..oo...XO+++@++++OX..o.XX..XX..XXO++",
"@@+++OXX.oo..    XXX  XX.o..o...o.XO+++@@+++++OX...o. X..XXO++++",
"#@@@+++OX.oo .. XX  XX oo..oo.. . XO+@+#@@+@++OX..oo.  .XXO+++@@",
"###@@+++OX... ..   XXOOOoo.o.o..  X+@#@##@@@+@+OX..oo. ..O+@+@##",
"##@@@@+++XX...ooXXOO++++OOO..oo. .O+####@#@@@+++X.o.o.o XO++@#@#",
"#@##@+@++OX.oooXO+++++++@+OO..o.oX++@###@@@@@+@+ X. oo.oO+@@@@##",
"@##@@@+++OXX.oX+++@@++@@@@+OX..ooX+@@####@#@@@@+   ..oo.X++@@#@#",
"@@@@+@@++OX . O++@@+@@+@@+++O..oXX+@######@@+@+O. .o.o..XO++@@@@",
"@@@@++@+OX.  .++@@##@@@++@@+OXo.X.++#@###@@+@++OX.oo...X.X+@++@@",
"@@+++O+OO. . +@@@#@###@@@++OOXX.. O+@#@###@@++O.X..oo. ...O++@@+",
"+@+OO+OOX....O+@@@###@@++OOOXoXX  X++@@@#@@++OOX..o.o.. X.XO++++",
"@OO++OX.  ..XO++@#@@@@+O++OX oX. .XO++@@@+++OOXX.   ...  XXXOO++",
"OO++OXXX.  ..X+@@@+@+@@+OO... o.. .OO++@++OO+OX    .. .. ..XXXOO",
"OOOXX.  ...  .O++@@+++OOX.  ..XXo ..OO++OO++OX..  .oo. ..o.. .XX",
"XXX..  .oo..  .O+OO+OOXX.  .OOOXXoo.XOOO+++OXX   .oo....ooo.  .X",
"XX....oo...o.. .X+OOXX.oOO++++++OOoo.XOOOOXXX.. .o.  .XX..oo.oo.",
"X.X ...oooo..  X.XXXX.oO++++@@@+@+Oo  .XXXXX.X ...  XXX.XXX.oo..",
"o...  ..oo. XX ....XXoo++@@##@@@+@++o   .X.  o.oo .XXXOOOX.X..o.",
".o.  .oo.. OOXX .X...oO+@+#@##@#@@@+OX .X   .oo...XOO+++OO  ....",
".oo..XX.OO++++OXX. .oo+++@@#@@####@@@XX.   .ooXXXO++@+++++OX  ..",
"o.oXXX.O++++@@++OXX .oO+@@###@@####@+X...o. o.XOO++++@@++++O.  .",
".XooXO++++@@@++++OX..OO+++@@##@@#@@+OX.X..o.X.O++++@@@@@@++OXX..",
".XXoO+++@@#@##@+++  .O+O@++#@@@@@+++X.XXo.oX.X++++@@##@@++++OX. ",
"XoXX++@@####@##@@+O  O+++@@@@@@+O++O..X..o.XXO+@@@###@##@@++OX  ",
".ooO@++@@#@@@@@#@@O  .O++++@@+OO++OX.XX.oo..X+@@###@@##@@@@+OX .",
".Xo++@@#@@###@@@++@X  .O++++OOO+OXX.. X.o.o.O++##@@@##@++@+OX .o",
"oXO@@@##@@@###@++++OX..XOO+++OXX..XX   X..oXO+@+@#@@@@++@+OO  .o",
"oXO+@@#@@@@#@@@+@++OXXXXoooX....XooX.. X.o.XXO++@@@@+++OOOOX. o.",
"XoO+++@#@@@@@@+@++OO.XooXoXXX.XXooXXX.. oo..XO+@@@++OOO++OX .oo.",
".X.++@@@+@+@@++++OOXX X.. .XXX. .XX...o.o..o  O++++OOO+OOXX  .oo",
"XX.O+++@@+++++OO+OXX  .. .XX.  ....Xoo...o.oo  O+OO++OOXXX  ...o",
".XX.O+++++++OO++OX  ...++@++OOXX.  ..oo...oo....  OO XX.  ...o.o",
"..XX. OO++OOO+OO   ..+++@@+@+@+OX.  ....ooo.oo. .   X...o  ...o.",
"++OOX.  OOOOOO XX...O+@+@#@@@+++O... ..o.....XO++OOXXX...ooo...O",
"@+++OO.  .XX  XX.X.O+++@@@##@@@+OX.X.  ....OO++@@+++OXX.oo...oO+"
};
