/* XPM */
static const char *grass_block_top[] = {
/* columns rows colors chars-per-pixel */
"64 64 6 1 ",
"  c #797979",
". c #868686",
"X c #939393",
"o c gray61",
"O c gray67",
"+ c #C1C1C1",
/* pixels */
"Oo+OX. X.XX..X.o..XXO..OX+OX. OXOo+OX. X.XX..X.o..XXO..OX+OX. OX",
"X.O+XX...O. .X o.XO.XO.+O.+. OX.X.O+XX...O. .X o.XO.XO.+O.+. OX.",
"XXo.o+X.X. .O.. O.XO.XX.+ XO... XXo.o+X.X. .O.. O.XO.XX.+ XO... ",
"OX.++o .OX.+XX...XXX+OXXOX X.oX.OX.++o .OX.+XX...XXX+OXXOX X.oX.",
"XOO.X oO..OX..OoXO.+XX X...Xo..O+OX. X.XX..X.o..XXO..OX+OX. OX.O",
"O. +O .XoO.+OXX.+XoXXo+O.Xo . +.O+XX...O. .X o.XO.XO.+O.+. OX.+.",
".X.X..X..X.  oXXO..XoOXX+O.oXO +o.o+X.X. .O.. O.XO.XX.+ XO...  +",
" .+.XOX.X+Xo. oXo.o..XO+XXo.oO O.++o .OX.+XX...XXX+OXXOX X.oX. O",
"o XO..O+OXO...XO+..Oo..Ooo....X O.X oO..OX..OoXO.+XX X...Xo..OX ",
"XO.O.O.X+OOX.+.XX+ o oOXXO o.+XXOOXX .o..Xo .OXOXXOo+O.Xo . +.XX",
".XOoX OO+XX.oX+.X.X .+.O+.o.XOXXXo.XX. OXO .X.OXX.oOXX+O.oXO +XX",
".OXX.XXo.+X.o.XO..Xo.X.. .oX+.O..oO o.+XO.X+. O.oO+XO+XXo.oO OO.",
"o +.XO.X+X.X.o.X.XO.o.XO OXOoXXXo o. O.XoOO.X+.+.+O..Ooo....X XX",
"...O. OX..X...XoO.X.+XOXX OXX+OXo+ooX.X.X..X.OX+oXXoOXXO o.+XXOX",
" Xo X. .X+.XO+. XOoX.+.  Ooo.XXX.o+o. OX O.O.  o+X.+.O+.o.XOXXXX",
"XX .oo. O.X.XXOX+oXOXO.XOX.Xo.XO+.O. O.XO.OXX.o X. X.. .oX+.O.XO",
"X.Ooo+OX XX.O.XOoX+o. o. X o.O+oOXX .XXoOX+..XO...X.XO OXOoXXX+o",
"Ooo +o.XXO.X+.ooX+oX.OoXO.X.XoX..X OX.+.++OX.o.OX..XOXX OXX+OXX.",
"OX.oo.+O..O.X+X..oXOOX.+X.O+XO.X.OX.+.X+XOX+XO.X.OX+.  Ooo.XXX.X",
"X.o.++ X.oX+O .X.. Xo.XO.X Xo+.oO.XX.X.XXOOX..O. .XO.XOX.Xo.XO.o",
"o.OoXXXO.o+OXXXXO+X XOX.X.. O.oO.X..X.X..X.o +X+. . o. X o.O+ooO",
".oo.OX+oX.+XOXO++X O+ .X.XO.XX.XX+OXO..oo... O.XO..OoXO.X.XoX..X",
"o.Oo.XO.O.XOX..XX XX.X .O.XO.oo.+..X+.o.X+. oX.X.XXX.+X.O+XO.Xo.",
"..XO O.X.+X. XX OX OX.X .+.XO..OXoXO.X.X+.XoXXO.. ..XO.X Xo+.o.O",
"O+oO..X.XoOXO. X. +X.O..o.O. XOX.oOX oXO.XOXX.o. ooOX.X.. O.oOOX",
"OoX.O .ooo+.  O  .OX .+X. .X. X..Xo+XO..XX+oO+X.O.. .X.XO.XX.XX.",
"X.OX.X+XX  o.XX++. X. .XO+.XO+oXo+XoO.X..+...XOX.X.X .O.XO.oo.oX",
".X+OO+XX ooO..OO. X..XO..XOX..OoXo+XoXOXX .o.o.XXOX.X .+.XO..OOo",
"OOXO+X +o.+OXX..+O XX.X+O. .Oo.OOXoOX..o oO.XX+XO.XO..o.O. XOX.O",
"XOXXX.OO.+OX.X.X .XO X... .O . . .O.+O XX.XXXOo.XoOX.OX.XoO. o .",
"XO..+.O. +XXX O.o.X+O  O.X.oXX. .X.+  XXXOXOXX+X..o.o.OXoO. ... ",
"OXo+. . OoXXO.o O.+O OOXO.oX.o.o.o. OO.+O.X+X.OoO+.Xo.X +.o.Xo.o",
"Oo+. . O. ...X OX. X.X.XO+.OO.. ..o.Xo..X+oX.o.XXoOX.O .O.O X.OX",
"X.OO.oO. .O+X.XX O+..XXO+.o+ XX.OXX o..o.XOXoXo.+X .OX.XXX.OoXX.",
"XXooO..XOX..OX..X .OO..Ooo XX+O+X .o.o. ooXOo. XO .OX.O..O ..o. ",
"OX.Xo+OX.+OX. .X .++XX.o  XX+X+. X.XOXoO..O OXX..X.X.+. +X. X.X.",
"XOO.X .X. .X+. XO.  O  .+ooo. XO+O..+XoX+  X O OX.X.O.o.O.O..O.O",
"O. XOX .O.o..O.X+ .X .OXOoX.X.O+.XXOX+OXO.OX X.X+O.X. .XX.+.OX+.",
".X.O..OX.+. X.XO XO XX .X+.X.O..XX +XO.O..XO..oo.XX. X.+.OX. O +",
" .+.oo.OX.O. X.XX XX..XOX.O.OX.OXOXoOX.o+X.X+O OX.O X.O. X.X O O",
"o XX.XX.OX.X. +O X++OXOX+.Xo+XOX.+XXo.o ..o+.X..OoX+.X. ..X O X ",
"XO.Oo.O ..X.XOX X+OXXXXO+o.OXXX.OX+XX.Oo o..XOoXOX OXOXXX.XO+OXX",
".XOo.+oX X.OX.oX ..X. O+Xo.X +XOXX.o.o. XXOXoX+oX X X +O X XX+XX",
".OXX.OX+O.X+.XOOXo..X+X.O..O+..X.XOX...+..X.OoX+o.+X X .. O...O.",
"o +.XoX.X.OXoO.Xo+Xoo.+X.OXX.o..O.X+Oo+XX..OX+oX..O+XO. +.+ oOXX",
"...o+O.o X .o .o+XoOX.O.XX XO+oo .o.XXOX.OXo XOo.XX+X X +O.X. OX",
" XoOX.oX.XOX.OXOXo+XOXX.X.O .o. ..OXXoX.+X.X.OXoX.XO.X OXO..OoXX",
"XX XXX.ooO  .+.XoOX .+OX.+X. .XX.X.Xo .+X.o.+X..+ XX.X. X.XX .XO",
"X.OXO+XXO XXOX+.X.OoX...X..XO ..OX.O ...oo..OXO+XOXOX O ..X.XO+o",
"OooXXXoOXO OX.o.OX.X.o.X.X+X.O. .+X+ o.X..X.X..X.+OXO.X.oOOXXXX.",
"OX..O.+Xo. ..X.oX..OX.o.X+.oXXX. .O..XOOXX.X.XX.OX++XXO+ o+OXX.X",
"X.oXXOX.o.+O.+. X.X.+Xo.XX+OO XO.X.OX+XOX+X.+.XO.oo..+oo o.++o.o",
"o.OXX+.o OXXOo o +XX.+.XOO+X.O..XO.o.XO++.+.XO X...XO.XoX o. OoO",
".oo X....ooO..oO..+OX...OXO+O.X...OX..+XOoXX. XXOXOo.X.oXX+O. .X",
"o.OO Oo.oXX+OX..o.oXo .oX+X.XO .X o.XXO.OX.O .O.+ X+O.X.+X OO.o.",
"..X+ OXo.O+XXOoX..OXXo  .X..X..X+o  .O.O XO .o+o.+XXXO. X+X.. .O",
"O+o.+ . oX.O+oXXoX+.XXO+.OoX. XXo+XO.X..X.X.Xoo+o+XO. .O.O+X+.OX",
"OoXO..oX...X XX+.OXoO..XO..Oo O+.+.+X.OOoX.O .o o.o.oOO.XOOX.+X.",
"X.O.Xo.X XOXXO+XXX...XX+.XO. o+Oo.O .+X.OX+.o Oo.oOoOXoXO+XX.ooX",
".X+ ...OX +.XX.OX.O ..O. .X.X+o.XXO.X. OXO .XX.oX..o..+o.XOOOXOo",
"OOX.XO .+.O+.OX.OX.o X. .O...XOXXOXO. oX..o. XXOOXo.o.OOX.OXXO.O",
"XOXXO .XO+XO..OXX..o.X..XX.X .XO+oO X.OO.+OX.X.X .XO X... .O . .",
"XO..OXo+. . OoXXO.o O.+O OOXO.oX.o.o+.O. +XXX O.o.X+O  O.X.oXX. ",
"OXo+. . OoXXO.o O.+O OOXO.oX.o.oOXo+. . OoXXO.o O.+O OOXO.oX.o.o"
};
