/* XPM */
static const char *gray_concrete_powder[] = {
/* columns rows colors chars-per-pixel */
"64 64 22 1 ",
"  c #3A3F43",
". c #3E4346",
"X c #404548",
"o c #43494B",
"O c #43494D",
"+ c #444A4E",
"@ c #444B51",
"# c #474D51",
"$ c #484F53",
"% c #484F55",
"& c #495054",
"* c #4C5256",
"= c #4D5457",
"- c #4D5458",
"; c #50565A",
": c #52595D",
"> c #545B5E",
", c #565E62",
"< c #575F65",
"1 c #5A6166",
"2 c #5C6568",
"3 c #61696F",
/* pixels */
"*-$o*:*>*$&Xo=-O$#$O=#&$-$$*&$##*-$o*:*>*$&Xo=-O$#$O=#&$-$$*&$##",
"&&-&O1&+;&##$&&&& &&*%#+$#$.=2&$&&-&O1&+;&##$&&&& &&*%#+$#$.=2&$",
"X$&=&&X$$O*$&=&@&##$$$@$&$&*$=-@X$&=&&X$$O*$&=&@&##$$$@$&$&*$=-@",
"&$$*$:$-$O=$&>$2=*&-#$&#&##$-%*&&$$*$:$-$O=$&>$2=*&-#$&#&##$-%*&",
">-;>&$&##&&-;$$$*$$$#.$-&&$-#$=$>-;>&$&##&&-;$$$*$$$#.$-&&$-#$=$",
"o;$-&#&*:$#&&$&$;=o&$*3&-&.&#&+#o;$-&#&*:$#&&$&$;=o&$*3&-&.&#&+#",
"+*$-&--&.&>&>$&*&#;=$$&o-*$$=&<&+*$-&--&.&>&>$&*&#;=$$&o-*$$=&<&",
"o,$-3$-&*&$&&&&*#=2$=--&&*>&&&$&o,$-3$-&*&$&&&&*#=2$=--&&*>&&&$&",
"&#*$#o*=$;&$&-o$$.*&O&*&=;%$$O+&&#*$#o*=$;&$&-o$$.*&O&*&=;%$$O+&",
"=$*=$$&*>X&&:2&#&&+>$$*=##$$$&*$=$*=$$&*>X&&:2&#&&+>$$*=##$$$&*$",
"2&=##*=$%#$O&&X&#@ #$*&$$#1&$#$&2&=##*=$%#$O&&X&#@ #$*&$$#1&$#$&",
"#$&-&$&-$=&&;$-$#-*--#$.&&-&&$,$#$&-&$&-$=&&;$-$#-*--#$.&&-&&$,$",
"%&#$*$$&&&;$$$*&$-#.&;#&$#&+&$*X%&#$*$$&&&;$$$*&$-#.&;#&$#&+&$*X",
"2#*$&.&$*&&$,$-=o&$*&&&&*$O$:$O=2#*$&.&$*&&$,$-=o&$*&&&&*$O$:$O=",
"&;&$;>$#>&&$&*&#&;=>;&-*&&*&$*$*&;&$;>$#>&&$&*&#&;=>;&-*&&*&$*$*",
"$1$$Xo$&$&:&&*&=&$=#&#$$$&#$:#$=$1$$Xo$&$&:&&*&=&$=#&#$$$&#$:#$=",
"*-$&$&&1*X&-o*$.*-$o*:*>*$&Xo=-O$#$O=#&$-$$*&$##*&$&#&&&*$&-&=##",
"&3-#O1=:&$:$&#&>&&-&O1&+;&##$&&&& &&*%#+$#$.=2&$+$-$$1&&;3:#$&&&",
"% &&&&$$-&&&&&&@X$&=&&X$$O*$&=&@&##$$$@$&$&*$=-@%&&$&&$$$$&$&:$@",
"-$&*-O$,=O=&$$-O&$$*$:$-$O=$&>$2=*&-#$&#&##$-%*&$:&*$O$#$>&2&1&@",
"O&;>&*$$&&-$-=&=>-;>&$&##&&-;$$$*$$$#.$-&&$-#$=$-$&>&$$&-*=#-.$$",
"&O&$&#&#&$&3$#&;o;$-&#&*:$#&&$&$;=o&$*3&-&.&#&+#&-$$&-O&-&$&&;$#",
"1$$>$-$*$$$$&=%*+*$-&--&.&>&>$&*&#;=$$&o-*$$=&<&$$$X$-&o$*:$*$*;",
"$#$#3:-*&*$&#$$-o,$-3$-&*&$&&&&*#=2$=--&&*>&&&$&$=&$;$#&&&#&&#&&",
"$X*#&O&+;&&$:&&&&#*$#o*=$;&$&-o$$.*&O&*&=;%$$O+&X>#-&:;&$&&&$&#:",
"=$*=&&>$$&$&1&@$=$*=$$&*>X&&:2&#&&+>$$*=##$$$&*$=$,==$$#&-X#&:$*",
"&&=&$O$#*=#O&$&&2&=##*=$%#$O&&X&#@ #$*&$$#1&$#$&*$$&$--$&*:&&*O+",
"-O&&&$&# $=&;$#&#$&-&$&-$=&&;$-$#-*--#$.&&-&&$,$O;>#$*&&&&$&2$&*",
"$&--&-;$#:$*$&$#%&#$*$$&&&;$$$*&$-#.&;#&$#&+&$*X$&-=@%;&X*&$$&-$",
"X&-$&-o--#&&,$*$2#*$&.&$*&&$,$-=o&$*&&&&*$O$:$O=&&%*@X&#$-;*$$$=",
"&;&$$&-*O;&$#&&1&;&$;>$#>&&$&*&#&;=>;&-*&&*&$*$*+;$$$#$:&&+X&#$#",
"%*$$>*$$&X#3#-&&$1$$Xo$&$&:&&*&=&$=#&#$$$&#$:#$=$;=##o#&$&;&:*&=",
"*-$o*:*>*$&Xo=-O*-$&$&&1*X&-o*$.*&$&#&&&*$&-&=##$#$O=#&$-$$*&$##",
"&&-&O1&+;&##$&&&&3-#O1=:&$:$&#&>+$-$$1&&;3:#$&&&& &&*%#+$#$.=2&$",
"X$&=&&X$$O*$&=&@% &&&&$$-&&&&&&@%&&$&&$$$$&$&:$@&##$$$@$&$&*$=-@",
"&$$*$:$-$O=$&>$2-$&*-O$,=O=&$$-O$:&*$O$#$>&2&1&@=*&-#$&#&##$-%*&",
">-;>&$&##&&-;$$$O&;>&*$$&&-$-=&=-$&>&$$&-*=#-.$$*$$$#.$-&&$-#$=$",
"o;$-&#&*:$#&&$&$&O&$&#&#&$&3$#&;&-$$&-O&-&$&&;$#;=o&$*3&-&.&#&+#",
"+*$-&--&.&>&>$&*1$$>$-$*$$%$&=%*$$$X$-&o$*:$*$*;&#;=$$&o-*$$=&<&",
"o,$-3$-&*&$&&&&*$#$#3:-*&*$&#$$-$=&$;$#&&&#&&#&&#=2$=--&&*>&&&$&",
"&#*$#o*=$;&$&-o$$X*#&O&+;&&$:&&&X>#-&:;&$&&&$&#:$.*&O&*&=;%$$O+&",
"=$*=$$&*>X&&:2&#=$*=&&>$$&$&1&@$=$,==$$#&-X#&:$*&&+>$$*=##$$$&*$",
"2&=##*=$%#$O&&X&&&=&$O$#*=#O&$&&*$$&$--$&*:&&*O+#@ #$*&$$#1&$#$&",
"#$&-&$&-$=&&;$-$-O&&&$&# $=&;$#&O;>#$*&&&&$&2$&*#-*--#$.&&-&&$,$",
"%&#$*$$&&&;$$$*&$&--&-;$#:$*$&$#$&-=@%;&X*&$$&-$$-#.&;#&$#&+&$*X",
"2#*$&.&$*&&$,$-=X&-$&-o--#&&,$*$&&%*@X&#$-;*$$$=o&$*&&&&*$O$:$O=",
"&;&$;>$#>&&$&*&#&;&$$&-*O;&$#&&1+;$$$#$:&&+X&#$#&;=>;&-*&&*&$*$*",
"$1$$Xo$&$&:&&*&=%*$$>*$$&X#3#-&&$;=##o#&$&;&:*&=&$=#&#$$$&#$:#$=",
"*-$&$&&1*X&-O*$.*&$&#&&&*$&-&=##*-$&$&&1*X&-O*$.*&$&#&&&*$&-&=##",
"&3-#O1=:&$:$&#&>+$-$$1&&;3:#$&&&&3-#O1=:&$:$&#&>+$-$$1&&;3:#$&&&",
"% &&&&$$-&&&&&&@%&&$&&$$$$&$&:$@% &&&&$$-&&&&&&@%&&$&&$$$$&$&:$@",
"-$&*-O$,=O=&$$-O$:&*$O$#$>&2&1&@-$&*-O$,=O=&$$-O$:&*$O$#$>&2&1&@",
"O&;>&*$$&&-$-=&=-$&>&$$&-*=#-.$$O&;>&*$$&&-$-=&=-$&>&$$&-*=#-.$$",
"&O&$&#&#&$&3$#&;&-$$&-O&-&$&&;$#&O&$&#&#&$&3$#&;&-$$&-O&-&$&&;$#",
"1$$>$-$*$$$$&=%*$$$X$-&o$*:$*$*;1$$>$-$*$$$$&=%*$$$X$-&o$*:$*$*;",
"$#$#3:-*&*$&#$$-$=&$;$#&&&#&&#&&$#$#3:-*&*$&#$$-$=&$;$#&&&#&&#&&",
"$X*#&O&+;&&$:&&&X>#-&:;&$&&&$&#:$X*#&O&+;&&$:&&&X>#-&:;&$&&&$&#:",
"=$*=&&>$$&$&1&@$=$,==$$#&-X#&:$*=$*=&&>$$&$&1&@$=$,==$$#&-X#&:$*",
"&&=&$O$#*=#O&$&&*$$&$--$&*:&&*O+&&=&$O$#*=#O&$&&*$$&$--$&*:&&*O+",
"-O&&&$&# $=&;$#&O;>#$*&&&&$&2$&*-O&&&$&# $=&;$#&O;>#$*&&&&$&2$&*",
"$&--&-;$#:$*$&$#$&-=@%;&X*&$$&-$$&--&-;$#:$*$&$#$&-=@%;&X*&$$&-$",
"X&-$&-o--#&&,$*$&&%*@X&#$-;*$$$=X&-$&-o--#&&,$*$&&%*@X&#$-;*$$$=",
"&;&$$&-*O;&$#&&1+;$$$#$:&&+X&#$#&;&$$&-*O;&$#&&1+;$$$#$:&&+X&#$#",
"%*$$>*$$&X#3#-&&$;=##o#&$&;&:*&=%*$$>*$$&X#3#-&&$;=##o#&$&;&:*&="
};
