/* XPM */
static const char *gray_concrete[] = {
/* columns rows colors chars-per-pixel */
"64 64 3 1 ",
"  c #383B3F",
". c #383B40",
"X c #393C41",
/* pixels */
"XXXXXXXX   X XXXXXX.XXXXX  XXXXXXXXXXXXXXXXXXXXXXXXXX X  XXX X.X",
"XXXXXX XXXXXXXXX ..XXXXX  XXXXXXXXXXXX.XXXXXXX.XXXXX XXXXX XXX..",
"..XXX X X XX XX .XXXX XXXXXXXX  XXX.XX.XXXXXXX.X XXXXX XXXXXXX .",
"X.XXXXXXXX X  XXXXXXXX XXXXXXX XXX.X.XXX.XXXXXXXXXX XXXXXXXX. XX",
"X.XXXXX XXXXXXX.X X.X XX XXXXX  ....X.XXX XXXXX.XX.X XXXXXXXXX X",
"X.XXXX XXXXXXXX.XXXX.XXXXXXXXX  X.XXXXXXXX XX XXXXXXXX XXXX.XX.X",
"XXXXXXX XXXXX .X XXX.XXXXXX XXX .XXXX.XX X.X   XXXXXXX X XXX XXX",
"XXXXXXXX XXX XXXXXXXXXXXX XXX XXXXXXXXXX.XXX. XXXXXXXXXXXXXX.XXX",
"XXXXXXXXXXX  XXXXXXXXXXXX XXXXX X.XXXXXXXXXXX XXXXXX   X XXXX.XX",
"XXXXXXXX XXXXXXXXXXXXXXXXXXXX XXXX.XXXXXX.XXXXXXXXXXXXXXXXXXXXXX",
"XXXXXXXXXXXXXXXXXXXXXXXXXXXX  X..XX XXX.XXXXXXXXXXXXXXX XXXX XXX",
"XXXXXXXXXXXXXXXXXXXXXXXXX  XXXX.X.XX..XXXXXXXXXXXXXXXXXXXXXXXXXX",
"XXXXXXXXXXXXXXXXX X XX  X XXXXXXXXXXXXXXXXXXXXXXXXXXXXXXXXXXXXXX",
"XXXXXXXXXXXXXXXXXXXXX XXXXXXXXXXXXX XXXXXXXXXX.XXXXXXXXXXXXX  XX",
"XXXXXXXXX XXXX XXXX.X XXXXXXXXXXXXXXX XXXXXXXXXXXXXXXXXXXXXXXXXX",
"X  X.XXXX XXXX XX X .XXXXXXXXXXXXXXXXXXXXXXXXXXX.XXXXXXXXXXXX  X",
"XX..XXXXXXXXXXXXXXXXXXXXXXXXXXXXXXXXXXXXXXXXXXXXXXXXXXXXXXXXXXX ",
"XXX.XXXX XXXXX.XXX.XXXXXXXXXXXXXXXXXXX.X XXXXXXX.XXXXXXXXXXXXXXX",
"XXXXXXXXXXXXXX.XXX.XXXXXXXXXXXXXXXX.XXXXXXXXX.XXXX.XXXXXXXXXXXXX",
"XX.XXXXXXXXXXXXXXXXX.XXXXXXXXXXXXXXXXXXXXXXXXXXXXXXXXXXXXXXX.XXX",
"XXXXXXXXXXXX.X.XXXXX.XXXXXX XXXXX X.XXXXXXXXXXXX.XXXXXXX.XXX..X ",
"XXXXXXXXXXXXXXXXXXXXXXXXXXXXXXX   X.X.XXXXXXXXXXXXXXXXXXX.XX XXX",
"XXXXXXXXXXXXXXXXXXXXXXX   X XXXXXXXXXXXXXXXXX  X.XXXXXX.XXXXX   ",
"XX XXX...XXXXXXXX.X.XXX XXX XXXX. XXX.XXXXXXXXXXXXXXXX.X.XXXXXXX",
"XXXXXXXX.XXXXXXXXXX.X.X XXXXX XX XX.XXXXXXXXXXXXX.  X.X.XX.XXXXX",
"XX XXXX.XXXX     X XXXXXXXXXX XX XX.X.X..XXXXXX.X  XXXXXX.XXXXXX",
"XX X.XXXXXXXXXXX XXXXXXX  XXXXX XXXXXXXXXX X X XXX  XXXXXXXXXXXX",
"XX  .XXXXXXXXX..X.XXXXXXX XXXX  .. X.X.XXXXX  XXXXX XXXXXXXXXXXX",
"XXXXX XXXXXXXXXXX XXXXXX XXXXX XXXXXX..XXXX XX XXXX  XXXXXXXXXXX",
"X X.XXXXXXXXXXXXXXXXXXXXXXXXXXXXXXXXX. XXXXX  X X X XXXXXXXXXXX ",
"X XXXXXX.XXXXXXXXXXXXXXXXXXXXXXXXXXXX.XXXXXXX XXXX  XXXXXXXXXXXX",
"   XXXXXXXXXXXXXXXXXXXXXXXXXXXXXXXXXXX XXXX...XXX.XX.XXX XXXXX X",
"X XX XX.XXX.XXXXXXXXXXXXXXXXXXXXXXXX  X XXXXXX.X.XXX.XXXXXXXXXXX",
" XXXXXXXXXXXXXXXX.XXXXXXXXXXXXXXXX.XXXXXXXXXXXXX.XXX.XXXXXXXXXXX",
"XXXXXXXXXXXXXXXX.X.XXXXXXXXXXX  X.XXXXX  XXXXXXXXXXX..XXXXXXXXXX",
"XXXXXXXXXXXXXXXXX.XXXXXXXXXXXXXXXXXXXXXXXXXXX.XXXXXXXXXX.XXXXXXX",
"XXXXX XXXXXX XXXXXXXXX.XXXX  XXX.XX.XXXXXXXXXXXXXXXXXXXXXXXXXXXX",
"XXXXX XXXX.X XXXXX.XXX.XXXXXXXXXX.XXXXXXXXXXXXXXXXXXXXXXXXXXXXXX",
"XXXXXXXXXXXXXXXXXXXXXXXXXXXXXXXXXXXXXXXXXXXXX XXXXXXXXXXXXXXXXXX",
"XXXXXX.XXXXXXXXXXXXXXXXXXXXXXXXXXX.XXXXXXXXXXXXX XXXXXXXXXXXXXXX",
"XXXXXXXXXXXXXXXXXXXXXXXXXXXX XXXXXXXXXXXXXXXXXXXXXXXXXXXXXXXXXXX",
" XXXXXX.XXXXXXXXXXXXXXXXXXXXXXXXXXXXXXXXXXXXXX XXXXX XXXXXXXXXXX",
"XX.XXXXXXXXXXXXXXX..XX XXXXXX XXXXXXX XXXXXXXX XXXXXXXXXXXXXXXXX",
"  XX.XXXXX  .XXXXXXXXXXX  XXXXXXXXXXXX  XXXXX XXXXXXXX X XXXXXXX",
"XXX.XXXXXXXX.XXXX XXXXXXXXXXXXXXXXXXXXXXXXXXX XXXXXXX X XXXXXXXX",
" XXX .XXXXX.XXXXXXX.XXXXXXXXXXXXXXXXXXXXXXXX XXXXXX XXX   XXXXXX",
"XX.X.XXXXXXXXXXXX X  X XXXXXXXXXXXXXXX XXXXXX XXX.X. X  XXXXXXX.",
"XXXXXXXXXX...XXX XXXX X XXXXXXXXXXXXX.XXXXXXXXX XX  XXXXXXXXXX..",
"XXXXXXXXXXXXXXXX XXXXXXXXXX XXXX.XXX.XXXXXXXXXXX.X XXXXX..XXXXXX",
"XXXXXXXXXXXXXXXXXXXX  XXXX  XXX..XXXXXXXXXXXXXXXX XXXXXXX.XXXX.X",
"XXXXXXXX.XXXXXXXXXXXXXXXXXXXXXXX..XX..XXXXXXXXX..X..XXXXXXXXX .X",
"XXXXXXXXXX.XXXXXXXXXXXXXXXXXXXXXX..XX.XXXXXXXXX..XXXXXXXXX.X XXX",
"XXXXXXXXXXXX.XXXXXXXXXXXXXXXXXXXXXX .XXXXXXXXXXXX.XXXX.XXX XXXXX",
"XXXXXXXXXXXXXXXXXXXXXXXXXXXXXXXXXXX.  XXXXXXXXXXX.XXXXXXXXXXXXXX",
"XXXXXXXXXXXXXXXXXX  XXXXXXXXXXXXXXXXX XX XXXXXX..XXX.X.XXXXXXXXX",
"XXXXXXXXXXXXX XXXX XXXXXXXXXX XXXXXXXX X    XXXXXX.XXX.XXXXXXXXX",
"XXXXXXXXX.XXXXXXXXXXXXX.XXXXXXXXXXXXXX XXXXXXX..XXXXXXXXXXXXXXXX",
"XXXXXXXXXXX..XXXXXXXXXXX..XXXX XXXXXXXXXXXX XXXXXXXX.XXXXXXXXXXX",
"XXXXXXXXXXXXX.XXXXXXXXXXXX X  XXXXXXXXXXXXXXXXXXXXXXXXXXXXXXXXXX",
"XXXXXXXXXXXX.XXXXXX XXX.XX XXXXXXXXXXXXXXXXXXXXX.XXXXXXXXXXXXXXX",
"XXXXXXXXXXXXX.XXXX X.XX.XXXXX  XXXXX  XXXXXXXX.XXXXXXXXXXXXXXXXX",
"XXX.X.XXXXXXXXX X  XXXXXXXXX XXXXXXXX  XXXXXXXXXXXXXXXXXXXXXXXXX",
"  XXX..XXXXX..XX.X XXXXXXXX X XXXXXX XXXXXXXXXXXX.XXXXXXXXXXXXXX",
"XXXX.XXXXXXXXXXXXX XXXXXXXXXXXXXXXXXXXX XXXXXXXXXXXXXXXXXXXXXXXX"
};
