/* XPM */
static const char *green_shulker_box[] = {
/* columns rows colors chars-per-pixel */
"64 64 7 1 ",
"  c #51681F",
". c #546D1C",
"X c #577119",
"o c #445523",
"O c #485A24",
"+ c #4A5D24",
"@ c #4D6122",
/* pixels */
"+ XXXXXXXXXXXX ++ XXXXXXXXXXXX ++ XXXXXXXXXXXX ++ XXXXXXXXXXXX O",
" O@          @O@@O@          @O@@O@          @O@@O@          @O+",
"X@O@        @O@..@O@        @O@..@O@        @O@..@O@        @O+ ",
"X @O@      @O@....@O@      @O@....@O@      @O@....@O@      @O+@ ",
"X  @O@    @O@......@O@    @O@......@O@    @O@......@O@    @O+@@ ",
"X   @OOOOOO@........@OOOOOO@........@OOOOOO@........@OOOOOO+@@@ ",
"X    O@..............@@@@@@..........@@@@@@..............@O@@@@ ",
"X    O....................................................O@@@@ ",
"X    O....................................................O@@@@ ",
"X    O....................................................O@@@@ ",
"X   @O....................................................O+@@@ ",
"X  @O@....................................................@O+@@ ",
"X @O@......................................................@O+@ ",
"X@O@........................................................@O+ ",
" O@..........................................................@O+",
"+@............................................................@o",
"+@............................................................@o",
" O@..........................................................@O+",
"X@O@........................................................@O+ ",
"X @O@......................................................@O+@ ",
"X  @O@....................................................@O+@@ ",
"X   @O@..................................................@O+@@@ ",
"X    O@..................................................@O@@@@ ",
"X    O@..................................................@O@@@@ ",
"X    O@..................................................@O@@@@ ",
"X    O@..................................................@O@@@@ ",
"X   @O@..................................................@O+@@@ ",
"X  @O@....................................................@O+@@ ",
"X @O@......................................................@O+@ ",
"X@O@........................................................@O+ ",
" O@..........................................................@O+",
"+@............................................................@o",
"+@............................................................@o",
" O@..........................................................@O+",
"X@O@........................................................@O+ ",
"X @O@......................................................@O+@ ",
"X  @O@....................................................@O+@@ ",
"X   @O@..................................................@O+@@@ ",
"X    O@..................................................@O@@@@ ",
"X    O@..................................................@O@@@@ ",
"X    O@..................................................@O@@@@ ",
"X    O@..................................................@O@@@@ ",
"X   @O@..................................................@O+@@@ ",
"X  @O@....................................................@O+@@ ",
"X @O@......................................................@O+@ ",
"X@O@........................................................@O+ ",
" O@..........................................................@O+",
"+@............................................................@o",
"+@............................................................@o",
" O@..........................................................@O+",
"X@O@........................................................@O+ ",
"X @O@......................................................@O+@ ",
"X  @O@....................................................@O+@@ ",
"X   @O....................................................O+@@@ ",
"X    O....................................................O@@@@ ",
"X    O....................................................O@@@@ ",
"X    O....................................................O@@@@ ",
"X    O@..............@@@@@@..........@@@@@@..............@O@@@@ ",
"X   @OOOOOO@........@OOOOOO@........@OOOOOO@........@OOOOOO+@@@ ",
"X  @O+@@@@+O@......@O+@@@@+O@......@O+@@@@+O@......@O+@@@@+O+@@ ",
"X @O+@@@@@@+O@....@O+@@@@@@+O@....@O+@@@@@@+O@....@O+@@@@@@+O+@ ",
"X@O+@@@@@@@@+O@..@O+@@@@@@@@+O@..@O+@@@@@@@@+O@..@O+@@@@@@@@+O+ ",
" O+@@@@@@@@@@+O@@O+@@@@@@@@@@+O@@O+@@@@@@@@@@+O@@O+@@@@@@@@@@+O+",
"O+            +oo+            +oo+            +oo+            +o"
};
