/* XPM */
static const char *green_wool[] = {
/* columns rows colors chars-per-pixel */
"64 64 7 1 ",
"  c #4F641F",
". c #536B1B",
"X c #567118",
"o c #5B7819",
"O c #607F19",
"+ c #4A5C24",
"@ c #658619",
/* pixels */
".. . ++.oX.   ... .XooX.. ++. ..  .XXX.   +++  .XooXXooX.X..    ",
".X... ++..X.     . .XXoX ++  .  .  ...X. .. ++.XooOOXX.  . ++ .X",
"X.   ..  + .XX. ++   .X...XooX.  ....  .. ++ .oooXXoOoX.++++ .XX",
".  ..XX.  +  .X. .X.. ..XXooX. .XoX. ++    .ooXoX.XX.ooX. + ++ .",
".XooX.  XoXo.  .XooX.Xoo..X..XoooX  ++   ..XX.. ++ .X.XooX..X.  ",
"X..X. .  XoOo..Xoo..XooXX.  ..X.   ..  ++ ...X.. +++ ..XooX..Xoo",
".  .XXooXOOXXXO@@OXXoX..  ++ ++ ... +++ .XoXX. ++ ..++  .X.  ooX",
"X.  .XXXooooO@@@oXooXoXX.. ++ ..X.   +..oOOo    ..XX.    .  X..X",
".X.XX..oooXX.XXoXXOOoXXoooX .XoooXX..XX..X... ...XX.  XoXoooXX..",
"..XX..oXX.    .XX.XOOOooX..XX.XoXoXXX.XXo.  ..XX..  .XOOooX..XX.",
" oOOoXX..  .XX..XOOooXX. .X.  .XoX..Xooo  .ooXXooXoO@@OX.   ... ",
"oXoXX.   .XXX..XooOOooXX...X.   .XX...XXX  .XXooXoOOoX..XX..  ..",
"..X.   .X..X..ooX. .XX...Xo@oX..  .  . ...XoX..X..  ..XXoOOXX..X",
".X  . .X.o..ooX. ++ X.X.XoXo@@oX.   ++  oO@@OXX.   ++ . .o@@Oo..",
"OOooX.XoOOoo.++ . .X.XXooXXX .. ++..   ..XoOOOooX.. ++ .XXoX.XXo",
"XoX..XoOoX. ++ .XoX.  .X. ... +++   ... ooXXX.X..XX..XoX....XXoX",
".  XooX. +++ XoooX.XX.  ++ .XX.  +   .XXX.. +++ ...ooOOoX.XX. + ",
" ...XX.++  .XooX.  .X  . +++ .X.  ..Xoo.  +++ ..ooOOooX..X. ++++",
".XoX.   ..  ..XooXX......X. +++ ... .   .. .X..XXooX... .. +++ .",
"XoX.  ..X.X. ...XX.. .X.XXX.. ++ . XX. ..XoooXX... .XX.. ++  ++ ",
"+ ... + XXoOOoXX.   .X.XX..X   .XX...    ..Xoo.. ++  .X.XX.    +",
"X.. ++  ..XoOOo.  .X...   .....XX.. +++.XX.. . ++ .XOOoXX.  ++  ",
". ++ ..  + .XoOOooX. +++ .. .XX.  ++  .X. + .XooXooOOXX. ++  .X.",
"+++ .Xo.. ++.XXooX. . ..X. ...  +++ .XX...XooOOooXooX.. ++ .XX. ",
" . .o@@OoX..   ..oX.X.XoooXX  ..X..XOoOoXXooX.XXoO@@oo...XXooX  ",
". Xo@@ooXoo...  . .XXoooXXX...XooXO@@OoXXoX.  .oO@@ooXooXXoo. . ",
"XoOOoXXoo.  .XoXX. ....XX.  .XXXooooXXX. ...XoOOooXoO@@@ooX.X.  ",
"oooX.Xo.   .oOOoXX..  ..  ..X.ooX..XXoooXX  . .XXXoXoOOoXXXX...X",
"XX..++ .XoX.  .oooX .XooXXoXoX. ++ .OOoX.  ..Xoo.   ..XX.X..XXoo",
".. ++ .XO@@OX. .oooX..XXooooXXXX +++.XOo..Xoooo   .XXX.. ..XoooX",
"XX..XXOOooooO@@oX XoOOo...XXooo....  ..oOOoX.  .XooX.   XoooX. .",
"X.XX.ooX.XoXoO@@oX  XoOX.XX.XXooX.  ++  ..X...XoooX.  .XoooX  .X",
".XooXX.   .X.XXooOOX..  ++.X.X..  ++ ..++    ...XX..X.XXX.  ++  ",
"XooX..   .. ++.XooOOX..  +++ .X..  .XX. ++ +    ..XX. .X...++  .",
".   .XX. ++..  .X..ooooX.X.  ++   .  .XX..  +++  ..  ..  ++ ..X.",
"  ..XX....  ... ..XXXoooX...   ..   ...XX...  ++    ....  ...X..",
".XX...  .X.XX.  ++ ...X...  .XooX..X .  .oXXXooX..X.  ..X.XoOoX.",
"XX..     .XoooX. +++ ... ..  ..oooX.  .XXXoo@@@OoX.X.   .XoooOOo",
"o. ++ ...   .OOoX.  ++ ..     ....  .oXooO@@XoX..  .XXoo  .X.XXo",
".X. .XX.  ..XXOOoXX. ++ ....    .  XXXooO@@XoX..  .XOooX.    .XX",
"OOXXXX. .Xo..oX@@@ooXX...XX....XXoOOX..XooXX. .XXoOOoXXXXX. ++.o",
"oOOoX..XooXX..ooO@@OooXXooXX..XooOOX..XXXooXX. .oooXX.XX..XX..XX",
"XX..oOOXX...oXXooXXXXoOoX...XXX...X.Xo@@.X... ++..XXXX.   ++ ..X",
"X..XXoOO...XXooXX.XoOOoX..XX.XXX ...o@oXX.. +++..X.X    +++   ..",
"  ..XX.oOoXX..X.  .XXXooXoX.  ... ..   .  ++ .XoXXX..  ...  ..X.",
"X.  ..XXXoooX..XX.  ..XXXXooX  . ++...   .. .XoX. ++  ..   ..XoX",
"oXoo   ..XXXooXo.oX.   .X.X@@OXX.. ++ ..XX..  ..   .++ ..XooX  .",
"Xoo..   ..  XooXXXooX.  .X.XO@OXX.. ++  .XX..   .XX.. . XooX  .X",
"X. +..XXooX..X.X..XXooX. ++ .XX..  . . .  .XooXooX.XooOX.. .X.X.",
" ++.XXX.X..++  .X..ooOOo. ++  ...X...XXX.X..XX.XooXooO@@Oo. .X..",
".. X...  +++ .XooOOOXoX.X.   .. XooXoooXX..  .XXXO@@oX..oXoX. ++",
"X.... +++ ..XXooOOooo..  .. ++ .XXXoooOOOoX.  ..oXOX.  . .X +++.",
"ooXXX. .XooX  .XoX.XXooX. ++..Xooo.X.  .OOooX.X.. ...XXX.  ....X",
"Xooo...XXXooX.X.X.  ooX. ++ .XooX. +  .XXooooXooX.  ..XoXX..XoXX",
"X..XXXX.  ..oo@@oX.  .XooX.  .X. ++ .XXX...XX..XXo.++ . o@@Ooooo",
"oX  .XooX..XXXoOOOo..Xoo....   ++ .XX.XXX.  .. ..XX. + .Xo@@OOoo",
"X..  ...ooX..   .X.  .X   .X.X..XXXooX..XX.   ..XX.X. . + .XXooX",
".X... .XXoooX. ++  .X.  .XXooXX..o@@XoX... ++.  .XooXX.. +++ .XX",
"X..XooXX. ..ooXX..X....XooXX. +Xo@@oX..Xo ++  ..  .XooX...     .",
".XoooX.XX. ..XX..X.XooXoX.. ++  XXoX.Xoo   ..X.XXX..XoooXX.X.   ",
"oo..X...Xooo  .XX.XooX. ++  .Xoo  .XX.  .XXXooooX. ..X. ..X...Xo",
"X..    XooXX.   ..X.+ ++ ..XOOo  .X.  .XooXoooX.  ..  ++ .  XXoo",
". ++ ...  ooX...  ++   ..XO@@oX.. ++....  .X.XX.X++ .. ..Xoo. .X",
" ++ ..XX.  XXX.XX. .X.  ..XX... ++ .X. ++  .  .X  ...X.XXooX.. ."
};
