/* XPM */
static const char *green_concrete[] = {
/* columns rows colors chars-per-pixel */
"64 64 2 1 ",
"  c #4B5D25",
". c #4C5F25",
/* pixels */
"....                    .  .  ..... .  .      .....            .",
".....    .     .   .   .  ... ...... .         ...              ",
"  .          ..  .      ......   .  .  .       .       .   .    ",
". ..    .  .  .....  .  .. ...  ..     . .  .. ..     ...  .  . ",
".   .    . .  . .     ..   ..           .    .. ..        .  .  ",
".       ..  . . .      .  ...                 .. .     . .   .  ",
"  .      . .   .       .  .   .     .          . .              ",
"...    . .   .        .   . .                 . . .  .          ",
".. .         ..  .        .  .    .  .  . ..  ..         . .  . ",
".            .  ..        ..     .        .. .. .        .   .  ",
".     ..       .. .              . .    .       ... ...        .",
".    .... .     .     . .       . ..    .  ...  . .  .       .. ",
"       . .       .  .          .........   . .  .   .  . .  . . ",
" .     .  .           .....    . . .         .   .              ",
". .          .      .     .        .. ..     .     .    .       ",
"   . .            .   ...  .         ..     ...  .  .    .      ",
" .  .          .          . .  .          .   . ..      .  .    ",
"    .       ..       .  ..   .            .      . .            ",
"  ....    .  .           ..   .           .   .           ..   .",
" . . .           ...  .        .    . .       . ...          .  ",
".. ...     .      .  .          . . .. ... . .    .   .   .     ",
".  .  ..  .       ...      .      . . ... ....        ... .  ...",
" .... .. ... .                  .. ...... .           . ...     ",
"   .     ...      .       .    .  .   .. .... .    .   .      ..",
". . . .     ..    .        .     ..   ..   ...      .      .    ",
"..   .   .         ...   .. . .  .       . ....     . ...       ",
".         .       . .       . .      .....   .        .     .   ",
"..                    .                .. ..        .      .    ",
"  .    ..   .     ...     .     .      ..   .           .  .    ",
"        .   .  . .. .   . .     ....   ....   .             ..  ",
"  .   .   ..      ..       ..   . ...   ... .              .. . ",
"      ... ..   ....     .  ...         .. .              . ...  ",
"   .    ...  .  .    .. .   .     ..     .                 ...  ",
"      ... .       ..    .  .. . .      . ...               ...  ",
"      ..         .  ..  . .   . .                     . .  ...  ",
"        ..     .  .         .  .            .     .  .   .  .. .",
".             .  .                      . .       ..  ..  .  ...",
"   . ... .       .            .          .  .    . ... .  .    .",
"    ..   ..   .. . .                       .  ..  . ....... ....",
"     .  ...    .     .    .             .. .   .    .. ....    .",
" .      ..      ...    . .               . .  .    ...       ...",
"        .   ..   ...       ...                    .   .        .",
"        ... . ...        .        ..      .                   ..",
"          .. .....         .     .      .....                   ",
". .    ..      .. .    .          ..     ....           .    .  ",
" ..    .    .  ...    .  .   .   .  .  .  .. ..       .    ...  ",
".     .... .....  .             . ..    ..... ..         .      ",
"    . . .     .     .       .      .       ....          .      ",
"      .  ... . .   . . ..     .    .      ......                ",
"  .    ... ..  . ... ..    . .         .    . ...               ",
"  . ....           . ..  ...  .               .  .   . .        ",
".. .  ..             . . . .          . .    .           .      ",
" ..    ... .      .      ..  .    .       .  ..             ... ",
"       ...        ..      . . .....   .   . . ...  .      . .   ",
"       .  .               . .    .          ...  .              ",
"..    .                          ... .       ..  .              ",
"..   .         .                 .   .    .. .    . .      ..   ",
" . .      .  .  ...         .    ..... . .. ..       .. ...  .  ",
"..            . .   .         .. ......  ...           .. . .   ",
"                           . ......... .          . ....  .     ",
"                 .          .  ....       ..               . . .",
"                          .. ... ...    ....         .    .     ",
"        . .               . . .    .    ..             ... ... .",
"         .               .. ...              .. .         .   . "
};
