/* XPM */
static const char *green_concrete_powder[] = {
/* columns rows colors chars-per-pixel */
"64 64 30 1 ",
"  c #526524",
". c #566A26",
"X c #576A26",
"o c #596E27",
"O c #5B7028",
"+ c #5D7329",
"@ c #5F752A",
"# c #60762B",
"$ c #62782B",
"% c #637A2C",
"& c #647B2C",
"* c #657C2D",
"= c #687F2E",
"- c #68802E",
"; c #69822F",
": c #6B832F",
"> c #6B8430",
", c #6C8530",
"< c #6F8931",
"1 c #718B32",
"2 c #738D33",
"3 c #748F33",
"4 c #748F34",
"5 c #789335",
"6 c #7A9636",
"7 c #7B9837",
"8 c #7C9937",
"9 c #809E39",
"0 c #87A63C",
"q c #88A63C",
/* pixels */
";;*+;1;4;&*O+,,+%%&+,%*&,%*;;*#$;;*+;1;4;&*O+,,+%%&+,%*&,%*;;*#$",
"**;*+8;@<;%%%**** **;*$@%%&.,9*%**;*+8;@<;%%%**** **;*$@%%&.,9*%",
"o%*,**O%*+>**,;#;%$%&&#****;*,,#o%*,**O%*+>**,;#;%$%&&#****;*,,#",
"*&*;%1%,&+,&*4*9,>*,$%*%;%$%,*;**&*;%1%,&+,&*4*9,>*,$%*%;%$%,*;*",
"3;<4***%$**,<*&%;%*&$.&,*;%,$%,*3;<4***%$**,<*&%;%*&$.&,**%,$%,*",
"+<*,;%;>2%$;*%*&<,+*&;0*;;.*$*@$+<*,;%;>2%$;*%*&<,+*&;0*;;.*$*@$",
"#;&,*,,;.*4*4&*>*$<,&%*+,>%*,*6*#;&,*,,;.*4*4&*>*$<,&%*+,>%*,*6*",
"+5%,0&,;;**;;;*;$,9%,,,**;4***&*+5%,0&,;;**;;;*;$,9%,,,**;4***&*",
"*%;%$+;,%<;&*,+**.;*+*;;,<*%*+@=*%;%$+;,%<;&*,+**.;*+*;;,<*%*+@=",
",*;,***;4o**19;%**@4**>,$$%%&;;*,*;,***;4o**19;%**@4**>,$$%%&;;*",
"9;,#$;,**$*+**o;%# $%;;%*$8*%$&;9;,#$;,**$*+**o;%# $%;;%*$8*%$&;",
"%&*;*%*;%,**<*,&%,>;,$%.**,;=*5&%&*;*%*;%,**<*,&%,>;,$%.**,;=*5&",
"*;$&>%*;**<*&*;**,$.*1$;%$*#=*;o*;$&>%*;**<*&*;**,$.*1$;%$*#=*;o",
"9$>**.**;;*%5&,,+;&;****;&+&3&+,9$>**.**;;*%5&,,+;&;****;&+&3&+,",
"*<;&<3%$4**&*;*$*<,4<;;;**;*&;&;*<;&<3%$4**&*;*$*<,4<;;;**;*&;&;",
"*7**o+%**;2;;;*,*%,$;%%&*;%*1&&,*7**o+%**;2;;;*,*%,$;%%&*;%*1&&,",
";;***;;7;o;,+;*.;***$;*=;&;,*,#$;;***;;7;o;,+;*.;***$;*=;&;,*,#$",
"*0;%+8,1**1*;%*4@%;%*8;;1q1&&****0;%+8,1**1*;%*4@%;%*8;;1q1&&***",
"* *****%,*;;***#**;**=*&*&***1&#* *****%,*;;***#**;**=*&*&***1&#",
",&;;,+*5,+,;**,+*1*;&+&&&4;9=8;#,&;;,+*5,+,;**,+*1*;&+&&&4;9=8;#",
"+*<4;;*%**,&,,*,,**4**&=,;,%,.=&+*<4;;*%**,&,,*,,**4**&=,;,%,.*&",
";+*%;%;%;%*0%$*<;,&*;,+;,***=1&%;+*%;%;%;%*0%$*<;,&*;,+;,***=1&%",
"8&&4&,*>*%*%*,*;**&o*,;+*;1&,*;18&&4&,*>*%*%*,*;**&o*,;+*;1&,*;1",
"*$%$01,;;;&*%%&;*,;&1&$;;;$=*$;=*$%$01,;;;&*%%&;*,;&1&$;;;$=*$;=",
"*O;$*+;@<**&1**;o4&,=11;&*;=*=$1*O;$*+;@<**&1**;o4&,=11;&*;=*=$1",
",*;,**4%*;%;8;#&,*5,,*&&;,+%;2*;,*;,**4%*;%;8;#&,*5,,*&&;,+%;2*;",
"**,*%+%%;,%+**;;;*&**,;**;1*=;+#**,*%+%%;,%+**;;;*&**,;=*;1*=;+#",
",+****;% *,*1&%;+14$&;;;*=&;9&;;,+****;% *,*1&%;+14$&;;;*=&;9&;;",
"*;,,;,<*$1&,&**&&*,,#*1;o;=*&;,**;,,;,<*$1&,&**&&*,,#*1;o;=*&;,*",
"O*,**,+,,$=*5&;**==;#+;&&,1;&&&,O*,**,+,,$=*5&;**=*;#+;&&,1;&&&,",
"*<;&%;,;+1=*&==8#1&&*&&1*=#o=&&$*<;&%;,;+1=*&==8#1&&*&&1*=#o=&&$",
"*;**4;*%*+%q&,=**1,$$+$*&;1;1;*,*;**4;*%*+%q&,=**1,$$+$*&;1;1;*,",
";;*+;1;4;&*O+,,+%%&+,%*&,%*;;*#$;;*+;1;4;&*O+,,+%%&+,%*&,%*;;*#$",
"**;*+8;@<;%%%**** **;*$@%%&.,9*%**;*+8;@<;%%%**** **;*$@%%&.,9*%",
"o%*,**O%*+>**,;#;%$%&&#****;*,,#o%*,**O%*+>**,;#;%$%&&#****;*,,#",
"*&*;%1%,&+,&*4*9,>*,$%*%;%$%,*;**&*;%1%,&+,&*4*9,>*,$%*%;%$%,*;*",
"3;<4***%$**,<*&%;%*&$.&,**%,$%,*3;<4***%$**,<*&%;%*&$.&,**%,$%,*",
"+<*,;%;>2%$;*%*&<,+*&;0*;;.*$*@$+<*,;%;>2%$;*%*&<,+*&;0*;;.*$*@$",
"#;&,*,,;.*4*4&*>*$<,&%*+,>%*,*6*#;&,*,,;.*4*4&*>*$<,&%*+,>%*,*6*",
"+5%,0&,;;**;;;*;$,9%,,,**;4***&*+5%,0&,;;**;;;*;$,9%,,,**;4***&*",
"*%;%$+;,%<;&*,+**.;*+*;;,<*%*+@=*%;%$+;,%<;&*,+**.;*+*;;,<*%*+@=",
",*;,***;4o**19;%**@4**>,$$%%&;;*,*;,***;4o**19;%**@4**>,$$%%&;;*",
"9;,#$;,**$*+**o;%# $%;;%*$8*%$&;9;,#$;,**$*+**o;%# $%;;%*$8*%$&;",
"%&*;*%*;%,**<*,&%,>;,$%.**,;=*5&%&*;*%*;%,**<*,&%,>;,$%.**,;=*5&",
"*;$&>%*;**<*&*;**,$.*1$;%$*#=*;o*;$&>%*;**<*&*;**,$.*1$;%$*#=*;o",
"9$>**.**;;*%5&,,+;&;****;&+&3&+,9$>**.**;;*%5&,,+;&;****;&+&3&+,",
"*<;&<3%$4**&*;*$*<,4<;;;**;*&;&;*<;&<3%$4**&*;*$*<,4<;;;**;*&;&;",
"*7**o+%**;2;;;*,*%,$;%%&*;%*1&&,*7**o+%**;2;;;*,*%,$;%%&*;%*1&&,",
";;***;;7;o;,+;*.;***$;*=;&;,*,#$;;***;;7;o;,+;*.;***$;*=;&;,*,#$",
"*0;%+8,1**1*;%*4@%;%*8;;1q1&&****0;%+8,1**1*;%*4@%;%*8;;1q1&&***",
"* *****%,*;;***#**;**=*&*&***1&#* *****%,*;;***#**;**=*&*&***1&#",
",&;;,+*5,+,;**,+*1*;&+&&&4;9=8;#,&;;,+*5,+,;**,+*1*;&+&&&4;9=8;#",
"+*<4;;*%**,&,,*,,**4**&=,;,%,.*&+*<4;;*%**,&,,*,,**4**&=,;,%,.*&",
";+*%;%;%;%*0%$*<;,&*;,+;,***=1&%;+*%;%;%;%*0%$*<;,&*;,+;,***=1&%",
"8&&4&,*>*%*%*,*;**&o*,;+*;1&,*;18&&4&,*>*%*%*,*;**&o*,;+*;1&,*;1",
"*$%$01,;;;&*%%&;*,;&1&$;;;$=*$;=*$%$01,;;;&*%%&;*,;&1&$;;;$=*$;=",
"*O;$*+;@<**&1**;o4&,=11;&*;=*=$1*O;$*+;@<**&1**;o4&,=11;&*;=*=$1",
",*;,**4%*;%;8;#&,*5,,*&&;,+%;2*;,*;,**4%*;%;8;#&,*5,,*&&;,+%;2*;",
"**,*%+%%;,%+**;;;*&**,;**;1*=;+#**,*%+%%;,%+**;;;*&**,;**;1*=;+#",
",+****;% *,*1&%;+14$&;;;*=&;9&;;,+****;% *,*1&%;+14$&;;;*=&;9&;;",
"*;,,;,<*$1&,&**&&*,,#*1;o;=*&;,**;,,;,<*$1&,&**&&*,,#*1;o;=*&;,*",
"O*,**,+,,$=*5&;**=*;#+;&&,1;&&&,O*,**,+,,$=*5&;**=*;#+;&&,1;&&&,",
"*<;&%;,;+1=*&==8#1&&*&&1*=#o=&&$*<;&%;,;+1=*&==8#1&&*&&1*=#o=&&$",
"*;**4;*%*+%q&,=**1,$$+$*&;1;1;&,*;**4;*%*+%q&,=**1,$$+$*&;1;1;&,"
};
