/* XPM */
static const char *grindstone_pivot[] = {
/* columns rows colors chars-per-pixel */
"64 64 6 1 ",
"  c #301E0E",
". c #3A2411",
"X c #3E2912",
"o c #4F3218",
"O c #583618",
"+ c None",
/* pixels */
"OOOOOOOOOOOOOOOOOOOOOOOoOOOOOOOOOOOoOOOO++++++++++++++++++++++++",
"OooooooooooooooooooXXXX OOOOOOOOOOooOOOO++++++++++++++++++++++++",
"OoooooooooooXoXXXXXXXX. OOoOoOOOoOoooOoO++++++++++++++++++++++++",
"OooooooooooooooooXXXXX. OOoooOoOoooOoooO++++++++++++++++++++++++",
"OoooOOOOOOOOOOOOOOOXoo. OOOoOOOoOoOoooOo++++++++++++++++++++++++",
"OoooOoooooooooooooX XX. OoOOoOOoOoOoOooo++++++++++++++++++++++++",
"OoooOoooooooooXXXX. XX. oOOOooOOOoOOOooo++++++++++++++++++++++++",
"OoooOoooooooooooX.. XX. ooOoooOOOOoOOOoO++++++++++++++++++++++++",
"OoooOooooooooooX... XX. OoooOooOOOoOoOoo++++++++++++++++++++++++",
"OoooOooooooooooooX. XX. OooOOooOoOOooOoO++++++++++++++++++++++++",
"OoooOoooXXXoooooXX. XX. oOoOoooooOOooooO++++++++++++++++++++++++",
"OoooOoooooXXooXXX.. XX. OOXOoOooOOOoOooO++++++++++++++++++++++++",
"OoooOooooooooooXXX. XX. oOXoOOooOoOOOoOO++++++++++++++++++++++++",
"OoooOooooooooooooX. XX. oOXXOooOOoOOOoOO++++++++++++++++++++++++",
"OoooOoooooooooooXX. X.. OOXXooXOooOoOOOO++++++++++++++++++++++++",
"OooXOoooooooXXXX... X.. OOoXoXXooOooOoOO++++++++++++++++++++++++",
"OoooOXooooooooXXX.. XX. OoOXoXXooooOOoOO++++++++++++++++++++++++",
"OooXOXXX..XX.XX.... XX. oXOoXXXXoOoOOOoO++++++++++++++++++++++++",
"OoXXOXX............ X.. XXooXXoXoOOOoOoO++++++++++++++++++++++++",
"OooXX               X.. XoXoXXooooOOoooO++++++++++++++++++++++++",
"OooXXXXXXXXXXXXXXXXXX.. XoXXXoOoOoOoOoOO++++++++++++++++++++++++",
"OoooXXX..XX...XXX..X... XXXXXoOXOOooOOOO++++++++++++++++++++++++",
"Oo..................... XXXXXXoXOOoOOoOO++++++++++++++++++++++++",
"o                       XXXXXXXoOOOOOOOO++++++++++++++++++++++++",
"++++++++++++++++++++++++++++++++++++++++++++++++++++++++++++++++",
"++++++++++++++++++++++++++++++++++++++++++++++++++++++++++++++++",
"++++++++++++++++++++++++++++++++++++++++++++++++++++++++++++++++",
"++++++++++++++++++++++++++++++++++++++++++++++++++++++++++++++++",
"++++++++++++++++++++++++++++++++++++++++++++++++++++++++++++++++",
"++++++++++++++++++++++++++++++++++++++++++++++++++++++++++++++++",
"++++++++++++++++++++++++++++++++++++++++++++++++++++++++++++++++",
"++++++++++++++++++++++++++++++++++++++++++++++++++++++++++++++++",
"++++++++++++++++++++++++++++++++++++++++++++++++++++++++++++++++",
"++++++++++++++++++++++++++++++++++++++++++++++++++++++++++++++++",
"++++++++++++++++++++++++++++++++++++++++++++++++++++++++++++++++",
"++++++++++++++++++++++++++++++++++++++++++++++++++++++++++++++++",
"++++++++++++++++++++++++++++++++++++++++++++++++++++++++++++++++",
"++++++++++++++++++++++++++++++++++++++++++++++++++++++++++++++++",
"++++++++++++++++++++++++++++++++++++++++++++++++++++++++++++++++",
"++++++++++++++++++++++++++++++++++++++++++++++++++++++++++++++++",
"++++++++++++++++++++++++++++++++++++++++++++++++++++++++++++++++",
"++++++++++++++++++++++++++++++++++++++++++++++++++++++++++++++++",
"++++++++++++++++++++++++++++++++++++++++++++++++++++++++++++++++",
"++++++++++++++++++++++++++++++++++++++++++++++++++++++++++++++++",
"++++++++++++++++++++++++++++++++++++++++++++++++++++++++++++++++",
"++++++++++++++++++++++++++++++++++++++++++++++++++++++++++++++++",
"++++++++++++++++++++++++++++++++++++++++++++++++++++++++++++++++",
"++++++++++++++++++++++++++++++++++++++++++++++++++++++++++++++++",
"++++++++++++++++++++++++++++++++++++++++++++++++++++++++++++++++",
"++++++++++++++++++++++++++++++++++++++++++++++++++++++++++++++++",
"++++++++++++++++++++++++++++++++++++++++++++++++++++++++++++++++",
"++++++++++++++++++++++++++++++++++++++++++++++++++++++++++++++++",
"++++++++++++++++++++++++++++++++++++++++++++++++++++++++++++++++",
"++++++++++++++++++++++++++++++++++++++++++++++++++++++++++++++++",
"++++++++++++++++++++++++++++++++++++++++++++++++++++++++++++++++",
"++++++++++++++++++++++++++++++++++++++++++++++++++++++++++++++++",
"++++++++++++++++++++++++++++++++++++++++++++++++++++++++++++++++",
"++++++++++++++++++++++++++++++++++++++++++++++++++++++++++++++++",
"++++++++++++++++++++++++++++++++++++++++++++++++++++++++++++++++",
"++++++++++++++++++++++++++++++++++++++++++++++++++++++++++++++++",
"++++++++++++++++++++++++++++++++++++++++++++++++++++++++++++++++",
"++++++++++++++++++++++++++++++++++++++++++++++++++++++++++++++++",
"++++++++++++++++++++++++++++++++++++++++++++++++++++++++++++++++",
"++++++++++++++++++++++++++++++++++++++++++++++++++++++++++++++++"
};
