/* XPM */
static const char *hay_block_top[] = {
/* columns rows colors chars-per-pixel */
"64 64 5 1 ",
"  c #8B7110",
". c #947D10",
"X c #AC8D08",
"o c #BDA510",
"O c #CDB208",
/* pixels */
"X.XX.  .XXXXX.. .XoXX..X..XXXoOoXXXXX...XXXXXooXX.XXXX.XXX...  .",
".XXXX.   .XX.X.  .X...X....XooXXXX.X.. ....XXoOXX..XXXXX..XX..  ",
"oOOX.XXX. ..XXX.  ...XXX.XXoXXXX..XXXXX  .X..XOoXX.X.oXooXX..X.X",
"XoOOoX.....XXXXXo.  ...XX..XX..XX...XX..  ..XXoo.X..XXooXX.XX...",
"..XoooX..XXX..XooXX.X...XXX..XXXXXXXXXXX..XXX.Xo...X.XXXXXXXXXXX",
".XX.XX.X..XXX..OX.XX..XX..XX..XX.XXX..X..XXX..X.X.XX .XX..XX..X.",
"X.XX.X..XX.XXXoOX. .XXX..X..XX..XX.XX..XXX.XXX.XXXXo  .XX...XX..",
"XX..X.X.XXXoXXooXX. .X.XXXX..X.XXXX.....XX.XXX..XXooX ..  .X..XX",
"X..X..XXXooXoXo.XXX  .XXX..X..XXX..X.XXXX.XXX.XXX.oO..XXX.  .XX.",
".XXX.XXXooXXoXX..X  .XXX.XX.XXXX..XXXXX..XXX..XX.XOOX.XX.X.   ..",
"XXoXXXooXXXoOX..XX .XoXXX..  .XXoOOoXX..XXX. ..XXXOoXX.XXXXX...X",
"ooX.XoXXXXooOo..XXX.XOX.XX..  .XXoOOooXXXXX. X..XoOXXXXX.XXXXX..",
"oX..XXXX..XXoOX.XX.XoOX...X..XX.X..XXXoo.X. .X.XXOoX.XoXX..XXoOO",
"X.X..XX..XX.ooXX.XXXOOXX.XoX..XX..X.X.XXXX  ..XXXOX.XoXX..XXoOoX",
"..X ...XX..XXooX.XXXOoXXXXXooXXXXXXX  .XX. .X.XXoOX.ooXXXX..XXX.",
"XX. X...XX..XXooX.XoOX..XXooXX..XX.  ...  ..XXXXoo..oXX.XXX..X..",
".X  X.XX..XXXXX..XXo.XX..XXX..XXXXX.XX.X...XX..ooX.XOX...XXX.XXX",
"X. ..XX..XXX..XX..oX..  ..X..XXX..XX..XXX. X..XXXXXXOoXX...XX.X.",
"X .XXOOo.  ..XX  XX.XX..  .XX..XX...XXX..X .XX..XX..oO.  .XXXooX",
". XoOOoX  .XXX..  .XX..  .XXXX..XXXXX..XXX. .XXXXXX.XOX.  ..XXoo",
".XoooX...XXX.XXX..X.XXXX..X.XXoOOoo.XX..X...   .X..X.XooX.X..XXX",
"XooXX..XXXXXX.XXX..X..XXX..XoOOOooXX..XX..X...  ..XX..XooX.XXXX.",
"oXXX. X.X.X.XXX..XXX.X...XOOOoX..X...XX.XX..X..X.XX.XX..X..X.XXX",
"XXX   .XXX...X..XX..X.X.oOOo.X..XXX.  .XX..XXX..XXXXXXX..X....XX",
"X.X. .XX.XX.XXXXXoOOoXXooX..XXXXX.  ..X.XXXoOooX.X.XXooXXXXX. .X",
"..XX..XXX..XX.XoOOOo..oXX.....XX.  ..X.XXoOOoXX...XXooXX..XXX .X",
".X.XXXXXXXX..oooX ..XXX..XX..XXXX..XXXXoooXX.  .XXooXX..XXX... .",
"X...XX..XX..oXXX   ..X..XX..XX..XX..XXOOoX..  .XXooXXXX..X..X. .",
"..XX.  ...XXX.. ..XXX.XX..XX..XooXXXoOoX..X..XXXXXXX...XX.XXXX  ",
"XXX...  ..XX..XX...XXXXX.XXXX..XooXooXX..XXX..XX.XX..X....XOXX. ",
".XXX.XX..X..XXX..X..XX..XX...XX.o.XXX..XXXX.XX.XX..XXXX..XXoOXX.",
"X.XoXX..XXX..XXXXXXXX..XXXX...XoXX..XX..X..X.XXX..XoOO..X.XXOoXX",
"X..oXXXXXXXXX.XoOOOOoXXXX..X..XX.XXX..X..XooOOoXXXXXXoOOoX.XoOX.",
"..XXoXXX..XX...XXoOOOOooXX.. ..XX.X..XXX..XXoOOOXX..XXXOOoXXXOXX",
"  ..Oo.XX..XX.XX.XX.XXoOOoXX   ..XXXXX..XXXXXXXoooX..XXXXXX.XoX.",
" ..XOOX.  ..XX..XX....XXOOooX ..XX..X..XXoX.XX.XXooXXX..XX.XoX. ",
".XX.oOX  .XX...XX..XX  XXXXooXXXX..  XXXoXXX.  .XXXo.  ...X..XX.",
"..XXXO .XXX.X.....X.  ..X..XXoXX..  ..Xoo.X...  X..XX.  .XXX..XX",
"XXX..ooXX..XXX.XX.  ..XX..XX.X..XXX..XOoXX.XXX.. X..XXX...XXXX..",
"XX..XXooXX..XXX..  ..XXXXX..XoXXXX..XoOX.XXXX..X.XXXXX..XX.XX..X",
"XXXXX .X.XXX...X...XX..X..XXoXXX.XXXXOoXX..XXXXXX.XX..XX..XX.  .",
"..XX..  ..XXX.X...XX..X..XXoo.XX..XXXOX...XX..X.XX.XX..XX .X  .X",
"X...XX.X.XoXXX.X.X..XX.XXXooXX.XX.X.oo.  ...XXXX..X..XX. ...XXXX",
"...oXX..XXoooX. X.XX.X .X.XoXX.XXX..oOX.  .XXXXXX...XXXX..XX.XoX",
"oXXooX. X.XoX. .XXooX.  ..XXX.XX...XOoXXX.XX..X.XXXXoooXXX..X.Xo",
"ooXXOXX .XoXX. XOOOooX. .XXX..X..X.oOX..XXX....XX..XXoOOXXX..XXX",
"XX.XOoX. XX.X XOOoXX.XX.XX.X. XXX..oo. ..XXX.XXXXX..X.XooX..X..X",
"X...oOXX .X.. ooXX..XX..XX..  .XXX..oX  XX..XXXoooX.  .XoOoXXX..",
"..XXXOX.  XX..XXX..X..XXX.X. .XX.X .XoX..  ...XXoOOoX. .XoOOOXXX",
"XX.XXXXX. .XX..XoXX..XXXX.XX. .X.. XXX.XX.  .X.X.XOOXX  .XXoOOoX",
".XX..XX.X..  . .XooXX.X.XXXo...X. .X.XXX...XX...XXXoOX. ..XXXoX.",
"XX..XoOX.X..  ...XooXX..X.XOX...  ..XX..XXX.XX.X.XXXOOX.XX.XXX..",
".XXXXXoOOOoX..XX..XXXXX..XoOX.XX .XX..XXX..X..XXX..XXOoX.XXX..XX",
"XXX...XXoOOoX..XXXXX..XX.XOo.XX...XXX..X..XXXXoo..XX.oOX...XX...",
".X...XXXXX.X.XXXXXX..XXXXXooXXoXX..X.XX..XXoooXXXX..XXOoX.X..X.X",
"X..XXX..XXX.XXX.XX.  ..X.oOoXXoooXX.X.XXXXOOoXXXX..XXXooXX..XXX.",
"XXXX..XXX.  ..XX..  ..X..OOXXXXoXX.XXXoOOOoXXXXooXXXXXoX..  .XXX",
"..XXX..X.  ..XX.. .o.XX.XOoX..XXooXXooOOooXX..XXooX.X.XXX..  .XX",
"  ...XXXXXoXXXXX.XoXX.XXXoXXX...XX..XooXXX...  XXXXX....X.XXooX.",
".  .XXXoooX.XX..XooX...Xoo..XX.XXXX..XX.XXX.  ..XX....XXXoooXXXX",
"X..XXoOOoX.X..XXXOo  .X.oXXX...X.X.  ..X..  ..XX..X..XXoOOoXXX.X",
"..XXoOOX.XXXX..XoO  ...XXXX...X.X.  ..XX....X..XX..XXXoOoXXX..XX",
"XX.XXXXXX..X.. XXO..XXXX...XX.XXXooXXX..X..XoXXXXXX..XX..X. .XXX",
"XXX...XXXX..X. .XoX..X...XX.XXoOOOoo.X.XXX..XoXX.XXX..X.X. .XX.X"
};
