/* XPM */
static const char *honeycomb_block[] = {
/* columns rows colors chars-per-pixel */
"64 64 6 1 ",
"  c #C86A08",
". c #D87803",
"X c #E88C08",
"o c #FAAB1C",
"O c #FFCE5D",
"+ c #FFE47F",
/* pixels */
".......XXoooOOOOOOooX            .  ...XooooooOOOOooX     ......",
"......XXoooooOOOOOOooX          ......XoooooooooOOoooX   .......",
".....XXooOOOooOOOOOoooX        ......XoooOOooooooOOoooX    .....",
"....XXoOOOOoooooOOOOoooX     .......XooOOOoooooooooooooX     ...",
"..XXXoOOOooX    XoooOOOoX     .....XooOOOooX    XooOOOooX.......",
"XXXooOOOooX      XoooO+OoX      ..XooOOoooX      XooOOOOoX......",
"XXooOOOooX        Xooo++OooXXXXXXooooooooX        XooOOOOOoXXXXX",
"oooOOOooX          XooO+OOOoooooooooooooX          XoOOOOOOooooo",
"oOOOOooX            XoOOOOOOOOoooooOOooX            XoO+OOOOOOoo",
"OOOOOoX              XoO+OOOOOOOooOOooX              XO++OOOOOOO",
"OOOOoX                oO++OOOOOOOOOooX         .....  oO++OOOOOO",
"OOOOX                 Xo++OOOOOOOOOoX           ..... XO++OOOOOO",
"OOoo                   o+++OOOOOOOoo              ....XoO+OOOOOO",
"Oooo            ....   X+++OOOOOOooo             .....XoO++OOOOO",
"oooX.            ..... .O+++OOOOoooX    ..      ......XoO++OOOOO",
"oooX.....          .....O+++OOoooooX     ...  ........XOO++OOOOO",
"ooooX...          .....XO+++OooooooXX     ...........XoO+++OOOOo",
"oooooX.          .....XO+++OOoooooooXX      ........XoOO++OOOOOo",
"ooooooX.       ......XOO+++OoooooooooXX.   ........XooO+++OOOOoo",
"oooooooX    ........XOO+++OOoXooooooooXX....XXX...XooOO+++OOoXXX",
"XoooooooX.   ......XOO+++OOX..XXoooooooXX....XXXXXoOOO+++OOX    ",
".XooOOoooX..  ....XO++++OOX.....XXooOOooXX....XXXoOOO+++OOX     ",
" .XooOOOOOoXXXXXXoO++++OOX..    ..XooOOOOoooXXXoOOOO++OOOX      ",
"  .XooOO+++OOOOOO+++++OOX.        .XooOOOOOoooOOOO+++OOoX.      ",
"   .XooOO++++++++++++OOX.          .XooOOOOOO+++++++OOoX...     ",
"   ..XooOOO++++++++OOoX.            .XooOO++++++++OOOoX..       ",
"    ..XooOOOO+++++OOoX.              .XooOO++++++OOOoo.         ",
"    ...XoOOOOO+++OOoX..               XXoOOOO+++OOOOo.          ",
"    ....ooOOO+++OOoo..                .XXoOOOOOOOOOo.           ",
"   .....ooOOOOOOOOoo..                 XXoOOOOOOOOoo.           ",
"   .....XooOOOOOOooo...                .XooOOOOOOooo.           ",
"  ......XooOOOOOOooo...       ..       .oooOOOOOoooo.         ..",
".......XooooOOOOOOooX...     .....    .XooOOOOooooooX       ....",
"......XoooooooOOOOOooX...  ........  .XoooOOoooooooooX    ......",
" ....XooooooooooooooooX..........   .XoooOOooXXXooooooX    ...  ",
"  ..XoooooXXXXXXooOOoooX.......    .XoooooooXXXXXXoOoooX        ",
"...XoooooX.    .XooOOOooo...      .XoooOoooX.   XXXoOoooX       ",
"..XoooOoX.      .XooOOOOoo...   ..XoooOOooX.     XXXOOoooX     .",
"XXooOOoo.        .XoOOOOOoooXXXXXXooOOOooX.       XXoOOOoooXXXXX",
"oooOOooX          .XoO+OOOOooooooOOOOOOoX.         XXoOOOOoooooo",
"ooOOooo.           .XoO+OOOOOOOOOOOOOOoX..          XoOOOOOOoooo",
"oOOOooX           ...XO++OOOOOOOOOOOOoX....         .XoO+OOOOOoo",
"OOOooX           .....oO++OOOOOOOOOOoX......         .oO++OOOOOO",
"OOOoX.          ......oO++OOOOOOOOOoX....             XOO++OOOOO",
"OOoo.      ...     ....o+++OOOOOOOoo...               .oO++OOOOO",
"OooX.    ......   .....X+++OOOOOOOoo.                ..XOO++OOOO",
"oooX    ................O++OOOOOOooX               .....OO++OOOO",
"oooX   .................O++OOOOOOooX                ....OO++OOOo",
"ooooX. ................XO++OOOOOoooXX             .....XOO++OOoo",
"oooooX................XOO++OOOOoooooXX          ......XOO++OOooo",
"ooooooX.............XXOO++OOOooooooooXX       .......XOOO++Ooooo",
"oooOoooX..........XXXOO+++OOoXXoooooooXX    ........XoOO++Oooooo",
"ooooOOooX......XXXXXoO+++OOX....XXoOOooXX    ......ooO+++OOooooo",
"XXoooOOooX......XXXoO+++OOX.     .XoOOoooX    ....oOO+++OOooXXXX",
" .XXooOOOooXXXXXooO+++OOOX         .o++OOOooXXXXXoO++++OOX      ",
"  .XXoOOOOOoooOO+++++OOX.           .o+++OOOOOOO+++++OOOX       ",
"   .XooOOO++++++++++OO..             .oO+++++++++++OOOOX        ",
"    .XooOOOO+++++++OO.....            .oO+++++++++OOOOX..       ",
"     .oooOOOO+++++OO.....              .oOO+++++++OOOX....      ",
"     .XooOOOOO++OOOO..                 .ooOO+++++OOOX..         ",
"    ...XooOOOO+OOOoO.                  .ooooO++++OOo.           ",
"  .....XooOOOOOOOOoo             ...  ..ooooOOOOOOOo            ",
"........XooOOOOOOOoo              ......XooooOOOOOOo            ",
"........XooOOOOOOOoo               .....XooooOOOOOoo         ..."
};
