/* XPM */
static const char *horn_coral_fan[] = {
/* columns rows colors chars-per-pixel */
"64 64 6 1 ",
"  c #B68930",
". c #BEA035",
"X c #D5CB3E",
"o c #D1B341",
"O c #EDEC4C",
"+ c None",
/* pixels */
"++++++++++++++++++++++++++++++++++++++++++++++++++++++++++++++++",
"++++++++++++++++++++++++++++++++++++++++++++++++++++++++++++++++",
"++++++++++++++++++++++++++++++++++++++++++++++++++++++++++++++++",
"++++++++++++++++++++++++++++++++++++++++++++++++++++++++++++++++",
"++++++++++++++++++++++++++++++++++++++++++++++++++++++++++++++++",
"++++++++++++++++++++++++++++++++++++++++++++++++++++++++++++++++",
"++++++++++++++++++++++++++++++++++++++++++++++++++++++++++++++++",
"++++++++++++++++++++++++++++++++++++++++++++++++++++++++++++++++",
"++++++++++++++++++++++++++++++++++++++++++++++++++++++++++++++++",
"++++++++++++++++++++++++++++++++++++++++++++++++++++++++++++++++",
"++++++++++++++++++++++++++++++++++++++++++++++++++++++++++++++++",
"++++++++++++++++++++++++++++++++++++++++++++++++++++++++++++++++",
"++++++++++++++++++++++++++++++++++++++++++++++++++++++++++++++++",
"++++++++++++++++++++++++++++++++++++++++++++++++++++++++++++++++",
"++++++++++++++++++++++++++++++++++++++++++++++++++++++++++++++++",
"++++++++++++++++++++++++++++++++++++++++++++++++++++++++++++++++",
"++++++++++++++++++++++++++++++++++++++++++++++++++++++++++++++++",
"++++++++++++++++++++++++++++++++++++++++++++++++++++++++++++++++",
"++++++++++++++++++++++++++++++++++++++++++++++++++++++++++++++++",
"++++++++++++++++++++++++++++++++++++++++++++++++++++++++++++++++",
"++++++++++++++++++++++++++++++++++++++++++++++++++++++++++++++++",
"++++++++++++++++++++++++++++++++++++++++++++++++++++++++++++++++",
"++++++++++++++++++++++++++++++++++++++++++++++++++++++++++++++++",
"++++++++++++++++++++++++++++++++++++++++++++++++++++++++++++++++",
"+++++++++++++++++++++++++++++++++..+++++++++++++++++++++++++++++",
"++++++++++++++++++++++++++++++++....++++++++++++++++++++++++++++",
"+++++++++++++++++++++++++++++++...oo.+++++++++++++++++++++++++++",
"++++++++++++++++++++++++++++++..ooo...++++++++++++++++++++++++++",
"+++++++++++++ ..+++++++++++++..ooX.oo.++++++++.+++++++++++++++++",
"++++++++++++    ..+++++++++++o..OXooo+++++++++..++++++++++++++++",
"++++++++++++++ .. .+++++++++..o.OOoX+++++++++...++++++++++++++++",
"+++++++++++++++    .++++++++..oXXOXo+++++++++.o.++++++++++++++++",
"++++++++++++++++ .. .+++++++o.oXXOOX++++++++..oo.+++++++++++++++",
"++++++++++++++++.....+++++++ooXoOOOX++++++++o.oo.+++++++++++++++",
"++++++++++++++++..o.oo+++++++oXXXOXX++++++++XoXo.o++++++++++++++",
"++++++++++++++++.ooo.o+++++++XXoOXXO++++++++ooXoo.++++++++++++++",
"++++++oo.+++++++XoXoXoo++++++XooXXOXo+++++++oXooo.o+++++++++++++",
"++++.o....++++++oXXooXo+++++++XooOOXX+++++++XXooX..+++++++++++++",
"+++oo..o...+++++.XoooOXo++++++oXXOXOX+++++++XoXoXo.++++++++.++++",
"++oo..o.+..+++++.oooXXXX+++++++XXXXOo+++++++XoXXXo.+++++++..++++",
"++Xo..oo++.+++++ooXoXOXXo++++++oXXOXo+++++++ooXXoXo+++++++.o.+++",
"+XXoo.X+++++++++XoXXOOXXo+++++++XXXXX+++++++oXXXXXo+++++++Xo.+++",
"+oXXooX+++++++++XXXXOXXXo+++++++XoXXX+++++++XXXOXXX++++++XoXoo++",
"+oXXooXO+++++++++XXXXXXOX+++++++ooXXo++++++XoXXOXXo++++++ooXoo++",
"++XoooOX+++++++++oXoXXOXX++++++ooXoX+++++++XoXOXoX+++++++oXXoXo+",
"++oXoXOo+++++++++ooXXXOXX++++++XoXXX+++++++oXOOXoo++++++ooXXXoo+",
"+++XoOOoX+++++++++oXXOXXo+++++oXXoXo++++++XOOOXXXo++++++XoOoXoo+",
"+++oXOOXo+++++++++XXOOXO++++++XoXXX+++++++XXOOXXXo++++++XXOXooXo",
"++++XXOOXO++++++++oXXOOXX++++oXXXXo++++++oXOOoXXXX+++++oXXOOooXX",
"+++++XOOOO++++++++.XXXOXXX++oXoXoXo++++++XOOOXooXo+++++XXXOOXoXX",
"++++++OOOXo++++++++oXXXXOOXoXXooXo++++++OOOXXooXXo++++oXXOOOXXXo",
"++++++XOXOoX+++++++.XXoXXOOXXooXXo++++++XOOOXXXXo+++++XoXOOXXXX+",
"o++++++XXOXXo+++++++XooXXXooXXXXX++++++XoXXoXXoo.++++oXXOOXOoXX+",
".o+++++XOOXoX+++++++oXooXXXooXXXo+++++ooXXXXoooo.++++XXXXOXXoXo+",
"..o+++++XOOoXo+++++++oooooXXXooo+++++oo.oooXXXo.+++++oXoXXXooX++",
"o.o+++++oXOXoo+++++++oooXXXXXXoXo++oo..XooXXXo..++++oooXXOXoXo++",
"+..o++++XoXXoo.+++++++oXoXXoooooXo....ooXooo...+++++oXXXoOXoXX++",
"+o.o+++++XXooX.+++++++.oooXX.ooXoooo....oo.....+++++.oXXoXooX+++",
"++..o++++oooXoo.+++++++.ooooo..oooo.......  ..+++++++.ooX.oXo+++",
"++o.Xo++XoXoo...+++++++..ooo..oo... .....  ...+++++++..oo.XXo+++",
"+++ooXXXooXo. ...+++++++...ooo....    ....oo...+++++++.o..Xo++++",
"+++oXXXooXo.  . .++++++++.ooo..o...    ..ooooo..o+++++....oo++++",
"++++ooXXo..o.  ...++++++++....o.     .. .....oooo..++++..oo.++++",
"+++++ooooo..    ...++++++++......     ......oooo....++++...+++++"
};
