/* XPM */
static const char *ice[] = {
/* columns rows colors chars-per-pixel */
"64 64 6 1 ",
"  c #86AEFD",
". c #8CB3FE",
"X c #92B9FE",
"o c #A1C3FF",
"O c #BCD4FF",
"+ c #C8DCFF",
/* pixels */
" ...       .. .X.XXXXoooooooooXXXXX..XXX.....  ..XXooooOooooooX.",
"...       .. ...XXXXoooooOoooXXXXX.XXXX.....  ..XXooooOooooooX. ",
"..      ..  ..XXXXXoooo+OoooXXXXXXXXXX.....  ..XXooooooooooXX.  ",
".       .  ..X.XXXooo++OoooXXXXXXXXXX...X. ....XooooooooXXXX.  .",
"       .  .XX.XXXooo++OoooXXXXXX.XXX..XX....X.XoooooooXXXXX.  ..",
"         .XXXXXXoooooooooXXXXX..XXX.XXX......XXooooooXXXXX.   . ",
"   ..   .XXXXXXoo++ooooXXXXXX..XXXXXXX....XXXXooooooXXXXX.      ",
" ..   ....XXXXoo++oooXXXXXX...XXXXXXXX...XXX.XooooXXXXXX.    .  ",
"..  .XX.XXXXXoo+OooXXXXX.....XXXXXXXX...XX..XoooX.XXXXX.   ..   ",
".  .X..XXXXXXoOooXXXXX......XXXXXoXXX..XX..XooX..XXXXX..  ..   .",
" .X...XXXXXXooooXXXXX.... .XXXXooXXX..X.........XXXXX..  ..   ..",
".X..XXXXXXXXooXXXXXX.... .XXXoooXX.X.X.......X.XXXXX... .    ...",
"..XXXXXXXXXooXXXXXX...  .XXoooXX....XX.... ...XXXX....      .XX.",
".XXXXXXXXXoXXXXXXX..   .XXoooX.....XX.... ..XXX.......    ..XX..",
"XXXXXXX.XXXXXXXXX..   .XXoooX.X.  .....  .XX.  ......   ...XX.XX",
"XXoXXX.XXXXXXXXX..   .XXooXXXX.     ..  ....  ......  ......XXXX",
"XoXXX..XXXXXXXX..   .XXooXXX.  ..     ....  ....X.. ......XXXXXX",
"ooXXX.XXXXXXXX.    .XXooXX..  ..     . .   ...XX........XXXXXXXX",
"oXXX.XXX.XXX.    ..XooXX..XX..            ..XX........XXXXXXXXoo",
"XXX..XX..XX.   .XXXooXX..XX..           ....X......XXXXXXXXXoooo",
"XXX.XX..XX...XXXXXXXXXXXX.....        .....X....XXXXXXXXXXoooooX",
"XX..X. .XX.XXXXXXXXXXX.XXX..        ..X...X...XXXXXXXXXXoooooooX",
"X..X. .XX.XXXXXXXXXX..XX.X.        .XX..XX..XXXXXXXXXXXoooooooXX",
"....  XXXXXXX.XXXXX..XXXX.  .     .XX..XX.XXXXXXXXXXXXoooooooXXX",
".... .XX.XX..XXX.....XX.. ..   ....X.XXXXXX..XXXXXoXXoooooooXXX.",
" .. .XX.XX..XX......XX..  .   ....XXXXXXXX..XXXXooXXoooooooXXXX.",
" ....X...XXX.......X.... ..XX...XXXXoX.X.XXXXXXooXXo+OooooXXXXX ",
"....X...XXX.......X.... ..XX.....XooX...XXXXXXooXXo+OooooXXXXX. ",
"..... .XXX.......XXXX...X.......XooX...XXXXXXooXXoOoooooXXXXX.  ",
"...  .XX........XXXX...XXX.X...XoXX...XXXXXXooXoooooooooXXXXX.  ",
".   .X........XXXX..XXXXooXX..XXX....XXXXXXooooooOoooooXXXXX.  .",
"   .........X..XX..XXXooXXX.....XX..XXXXXXooooooOooooooXXXX.   .",
"  .........X.XX.XXXXXooXX...... ...XX.XXXoooooo+OoooooXXXXX   . ",
"  ..........XX...XXXooXXXX...  .. XX..XXXoooooO+oooooXXXXX.     ",
" ........XXXX..XXXooXXXX...   ..  .X.XXXoooooO++ooooXXXXX.      ",
" .......XX.X..XXXooXXX....   ..   ..XXXXooooo++oooXXXXXX.       ",
"......XX..XXXXXXoXXXX....   ..   ..XXXXoooooO+OoXXXXXXX.     .  ",
".....XX..XXXXXXXXXXX.....  .     .XXXXXooooO+OooXXXXXX.     .   ",
"...XX..XXXXXXXXXXX...X..        .XXXXXooooO+oooXXXXX.     ..   .",
"..XX....XXXXXXXXooX.X...        .XXXXXoooO+ooXXXXX.      ..    .",
".XX..XXXXXXXXXooXX.XX..        .XXXXXooO++ooXXXXX.            ..",
"X.....XXXXXXoooXX.XX..         XXXXXooO++ooXXXXX.            ...",
"....XXXXXXXoooXXXX...         .XXXXooOOOooXXXXX.       .    ..XX",
"..XXXXXXXXoooXXX..X.          XXXXooOOoooXXXXX.       ..   ..XX.",
".XXXXXXXooooXXX..X.          .XXXooOooooXXXX..       ...  .XX...",
"XXXXXXooooooXX.XX.  .       .XXXXoooooXXXX...      ....  .XXXX..",
"XXXXXooooooXXXX.  ..       .X.XXooooXXXXX....    ...... .X.XX..X",
"XXXXooooooXXXX.  ..       ...XXXooXXXXXX....   ....... .X.XX..XX",
"XXXooooooXXXX. ...       .X.XXooXXXXXXX.....  ......XX...XX.XXXX",
"XXoooooooXXX.....       .X.XXooXXXXXXX.....  ......XX...XXXXXoXX",
"Xooo+oooXXXXX...       ..XXXoXXXXXXXX...XX. .....X.....XXXXooXXX",
"oooo+oooXX....         .XXXXXXX.XXXX..XXX. .....X.....XXXXooXXXX",
"ooo+OooXX....  .      ..X..XX..XXX..XXXX....X..XX...XXXXooXXXXXo",
"oo++oooX....  .       .X..XX..XXX..XXXoXXX.X...X...XXXXooXXXXXoo",
"oO+OooX.X..  .       ..  ....XXX.XXXXoXXXXX...X..XXXXXXXXXXXXooo",
"O++ooo.X..  .       ..  ....XXXXXXXooXXXXX...XX...XXXXXXXXXXoooo",
"++OooX...  .       .  ....XX.XXXXXooXXXXX..XXX...XXX.XXX..XooooO",
"+Oooo...  .       .  ...XXX.XXXXoooXXXXXX...X...XX..XX...XoooO++",
"OoooX.  ..       . .X.X..XXXXXoooooXXXXX...X...X...XX...XoooO+++",
"oooX.  ..       ...X...XXXXXoooOooXXXXXX..X...X........XoooO++Oo",
"ooX.. ..       ..XX..XXXXXoooOOooXXXXXXX....XX... ...XXooooOOooo",
"oX.. ..       ..XX..XXXXooooOOoooXXXXXX....XX... ...XXooooOOoooo",
"X.....       ..X..XXXXXoooOOooooXXXXX.......... ...XXooooOOooooo",
".....       .......XXXoooOOooooXXXXX....XX....  ..XXooooOOoooooX"
};
