/* XPM */
static const char *iron_ore[] = {
/* columns rows colors chars-per-pixel */
"64 64 9 1 ",
"  c #77674F",
". c #686868",
"X c #747474",
"o c gray50",
"O c #887455",
"+ c #AF8E77",
"@ c gray56",
"# c #D8AF93",
"$ c #E2C0AA",
/* pixels */
"oooooo@@@@@@@@oooooXXXoooXXXoooXXooooXXXoooXXXXXoooo@@ooXXXXoooo",
"ooo@@@@@@@@oo@@@ooXooXXXooXXXXoooXX....XXX..XooXXo@@@ooXXXoooooo",
"o@@@@@@ooo@@ooooooooXXXXXX@@@@@oX..XXX....XXXXooooXXXoooXXXXXXoo",
"ooooo@@@ooooooooooooooXXX@@@@oooooXXXXX..XX..XXX........oooXXXXo",
"oooooXXXXoooooooXoo@@@ooooooXXXX@@oooooo...XXX..  O     .ooooXXX",
"@@@@XooXXXXXooXXXXXXo@@oooXXXXXoo@@@ooo@@@....   OOO OOoooXXXXXo",
"o@@oooXXXXXoooooXXXXXXooXXXXooo@@@@oXXXXoo   OO++OO+OO@oXXXoo@@o",
"@@@@@oooXXXXXXX.....XXXXXXXXXXooXXooooXXXXo OOOO+++O@@oooXXXoo@@",
"oooooXXXXXX.....OOOO.XXXXX..X.....XXXXXXXoo@ O++++@@ooXXXXXXXXoo",
"oooXXXXXXX..OOOOO++OOoooXXXX...XXX..XXXXXXXo@@O+@@oooXXXXXXXXXXo",
"o@@@ooX...OO+++O++O@@XXoooXXXX...XXXXXoooXXXoo@@oooooooooXXXoooo",
"@@oXX...OOO++##+OO@@XXoooXXXX...XXXoooooXXooooooXXXXoooXXXXXXooo",
"ooooOOOO++++#+##@@ooooXXXXXooooo@@@@@oooooooooXXXoooXXXXXXXooXXo",
"ooXXXOO+OO####@@@oXXXXXXoooooo@@oo@@@@@ooXXooooXXXoooX....XXXXoo",
"XXooo@OOO++##@@XXXXXo@@@ooXXooooooo@XXXXXXoXXo@oooooooXX.XooooXX",
"oXXX@@@@OO#@@ooooooo@@@ooXXXXXoXXXX.....XXXo@@@@@@ooXXX...XXoooo",
"XXXXXXo@@@@@oooooXXXXooXXXXX......OOOO++OO++OOoooo@@@oooXXXXXXXo",
"oooXXXXXooooooXX....XXX.......OOOOOOO++++#+##+++O@oo@@oXXooXXXoo",
"ooXXoooXXXXoooooXX.XX.....OOOO+O++#++OO+####+OOO@oooXXXoooXXoooo",
"ooooooXXXXooooXXX.......OO+++OO+####++##$$#+OO@@oXXXXX.....@@@oo",
"ooooo@@@@ooXXXXX.....OOO+OO#####$$$$###$$#++@@ooXX.....OO+OOo@@@",
"oo@@@@@@@@ooXooXXXOOOO++O####$$$$$$$$#$###+@@oo......XOO++Oo@@@o",
"ooooo@@@ooooooooXOOO++###$$$##$$$$$#$$##++@oo..XX.XXXO+++OXXXXoo",
"oooo@@@@@@@ooo@@@@@OO+++###$$$$$$##$$#+@@@oXXX..XXXXXX+OXXXXXXXo",
"oXXoooo@@oooooo@@@@@@@OO+#$#$##$$$##@@@oo..XXXXXXXooooXXXXXooooo",
"XXXXXXooXXoo@@@@@@oooo@@O+#+##$#$#@@oooXXXX..XXXXoXXXooooooXXooo",
"ooXXXoooooXXXoooo@@@oXoo@@@@@@@@@@@ooXX...XXXooXXXXoooo@@@ooXXXo",
"ooooXXXXXXXXXXXX@@@oooXXXXoooooooooXXXXX...XXXoooooo@@@@@oXXXXoo",
"XXXXXXXXXXXX...XXXXXXX..XXXXooooXXXXoooXXXooooooXXXXXXooooooooXX",
"oXXXXXXX..........XX...XXoooXoXooXXXXoXXXXXXXooooXXXXXXXoooooooo",
"oooXXXXXXX..XXX..........XXXXXXXooooooooXXXXXXXXXXXXoooooooooooo",
"oXXoooXXXXXXXX.....XXXXXX..XXXoooooX.....XX...XXXXooooooXXXXoooo",
"ooooXXXXooooooXX......XXooXXoo@@@@@@ OO .....XXXXXXXXooooXXXXXoo",
"ooXXXXooXooXXX......XXXXXX@@@@@@@@@@@  OOO  ......XXooXXXXXXXooo",
"oooXXXXXoo....  OOO..Xoooooo@@@@ooooo@  O++O   OOO++ooooXXXooooo",
"oo@@oXXX....   OO++O..XXoooooo@@@@oo@@@ +##+O O++#+@@oooooXXoooo",
"oooooo  OO+OOOO++++#+O...XXoo@@oo@@@ooo@OO+##++##+@@@@@@oooooooo",
"oooooo@  OO++O+O+##$#+++++..oooo@@@ooXXo@@O+####+@oooo@@@ooooooo",
"Xooo@@@@   O++##$$$$$$###$$$#@@@ooooXXooo@@@+#++@@@@o@@ooooXXXXX",
"XXXXooooo@@ O+++#$$$###$##$#@@XoooooooooXXXX@++@@XXoooooX....XXX",
"X.XoooXooXXXX@@@+#$#$$$#@@@ooXXXXXXoooXXXXooo@@XXXooXooooXX.XXoo",
"XX..XXooooooooo@@+#$$#@@@...XX..XooXoooXXXXoXXooXXXXoXXXXX...XXX",
"ooXXXXXXXXXXXXoooo@@@ooXXX....XXXXoooooooooooo@@@@@@@@oooXXoooXX",
"XXXXoXXXXXXXXXXXooooooooXXXXXooooooooooXoooo@@@@@@oo@@@@oooooooo",
"oooooooooXXXXXXoooooooo@@@@@oooooo@@@oXXXXXXoooo@@@oooXXXXXoo@@@",
"oXooXXXX..XooXXXXXoo@@@@@ooo@@oo@@@@oooXXooooX....oooooXXXoo@@oo",
"ooXXX....XXXXXXXXoo@@@@@@@oooXoXXo@XXoooooo...  OOO..XXoXXXXXXoo",
"XXXoooX...XXooXoooooo@...ooXXXXooooooXXX....   OO++O......XXoXXo",
"oXXXXXXXXXoooXXXooo...+OO.XX...XXX..XX... OOOO+#++O++OOOOO...ooo",
"XXXXXooXooXXooooo...OO++OO@ooXXX......  OO+O+##+###+++OOO...XXXX",
"XXooooXXXXX.XXoo.OOO+++O@@ooooo..  OOOOO+++#++####$###+O@XX...XX",
"ooo........XooooooOOO+@@ooXoooXXXXO  O+#+#####$#$$###+@@XX...XXX",
"o@   OOOO.XXXooooXX@@@@oXXXooooooXX@  O+#$##$$$$$#++@@ooooooo@@o",
"oo@O  O+OO...oXXXXoooooooXXXooooXXXX@@OO##$$$$###@@@oooooX@@@@@@",
"@@@@OO+O++OO..ooXXXXXoooooooXXXXXXoooo@@+##$##@@@oooXXXXXXXooooo",
"ooo@@@O++++O  .XXXXoooooXXXXXXXXXXXXooo@@+##@@@oooooooXXXXXXo@@o",
"oooXXX@@OO++OO Xoooo@@oo@@XXXXXXXXooXXXXX@@@@oooooooo@@@@@@@oo@@",
"ooooXXo@@OOO+@@o@@@@@@@@oooooXXXooooooXXXXXooooo@@@@ooo@@@@@@@@o",
"oXXXX...X@@@@XXooo@@@oooooXXXXXXXXXXooooooooo@@@@@@o@@ooo@@@@ooo",
"ooXX.XXXoooooooooooo@@oXXoooXXXXXXoooo@oooXXXooooooooooo@@oXXXXo",
"XXoooooooXoXXXXXXXXooooooXXXXXoooooo@@@@oooooXXXXooooXXXXXooooXX",
"ooooooXXXXXooXXXXoXXXoXXXX....XXoo@@ooo@@@@@ooXXooXXXXooooXXoooo",
"ooooXXXXooooXXXooooXooooXXXX.XXXXXoooo@@@@ooooooooooXXXooooooooo",
"ooooooooooXXoooooooooooooooXXXXXooooooooooooooooooooooXXoooooooo"
};
