/* XPM */
static const char *item_frame[] = {
/* columns rows colors chars-per-pixel */
"64 64 9 1 ",
"  c #292422",
". c #312C28",
"X c #36322F",
"o c #734029",
"O c #7B4429",
"+ c #834829",
"@ c #944C29",
"# c #A45531",
"$ c #AC5D31",
/* pixels */
"       ..................................................       ",
"  ............XXXXXXXXXXX.....................................  ",
" ........XXXXXXXXXXXXXXXXXXXXXXX....XXX........................ ",
" ..oooooooooooooooooooooooooooooooooooooooooooooooooooooooooo.. ",
" ..ooooooooooooOOOOOooOOOOooooooooOOOOoooooooooooooooooooOooo.. ",
" ..oOOOooOoooooooOOOOOooOooooooOOOOoooooOOOoOOoooOOooooOOoooo.. ",
" ..oOooOOOOOooooooooO++OOOOOooooOOOOOOOOOOOOOoooOOooOOooOOOOo.. ",
"...oOOooOoooOOOooooOOOO++OOOOOOOOOOOOOOooOoOOOOOOOOOoooOOOooo...",
"..XoOOOOOOOOOOooOOOOOO++OO++OOO+OOO++OOOOoooOOOOOoooO@@@+OOoo...",
"..XoOOOOOOooOOOOOOOOOOOO+++++OOO++++++++OOOooOOOOO++@@@+ooooo...",
"..XoOOooooOOOOOOOO++OOOOOOO++++++@@@++++++++++OO++O+++oOOoooo...",
"...ooOOooooOOOOO++OOO+OOOO++++++@++@@@++@@+++OO++OOOOOOoooooo...",
"...oOooooOOOOO+++++++@@@++++OO++++@@@++++@@+++++++OooooooooooX..",
"...oooooooOOOOO+++++@@+++@@+++OOO++++++++OO++++OOOOOooooooooo...",
"..XoooooOO+++++@@@++++@++++@+++O++++++OOOO++OO++++++OOOOOoooo...",
"..XooooO++OO++@@@+++++++OOO+OO++++++++++OOOO+++++++OOOoOooooo...",
"..XooooOOOO+++++++OOO++++O+++@####@++OO++++++++++OOOooOOOOOoo...",
".XXoooOoOOOO++++OOO++OO+++@###$######@+OOO+++O++++OOOoooOOooo...",
".XXoooOOoooOOOO++O++++++@###$$#########@O+++OOO++++++OOOooooo...",
".XXooooOOOooOOOO++++++@##############$$$$@+O++OOOOO+OOooooooo...",
".XXooOOOOOO+OO+++++++@##########$$##$##$$$@++++++O++++OOOOOoo...",
".XXoOoOOOOOO++OOO+++@#################$$$##@+++++++O+OOooOoooX..",
".XXoOOOOO++++OOO+++@########$$##############@++OOOOOoooOOooooX..",
".XXoOO+OOOO+++O++++#$$$######$$$#############OO+OooOOOooOOOOoX..",
".XXoO+++++OOO++++O@##$$$$$$###$######$$##$###@++++OO++++OOOooX..",
".XXooOO++OOO+++OO+#######$$$##########$$$#####++O+++OO+OOooooXX.",
".XXooOOOO++@@+OO+@#####$$$####################@++OO++OO+oooOoXX.",
".XXoooOO++@@+++++#$$$###################$$$$###+++++++++OOoOoXX.",
".XXooOooOO++OO+O+$$$##$$##############$$$$#####++@@+++OOOoOOoXX.",
".XXoOooOOOO+++OO@##$$###$######################@++@@OO+OOOOOoXX.",
".XXoOOOO+++++@@O#####$$########$$$$$############++++++++OOOooXX.",
".XXoOoOOO+@@@+++########$$#$$###$$$##$$#########+++++++OOOoooXX.",
"..XoOOoooO+@@@++##########$$##$$$##$$$##$$######+OO+@@+++OOooXX.",
"..XoooooOOO++OO+#############################$##++OO+@@+OOoOoXX.",
"..XoooOO+++O++++@######################$$$$$$$$@OO+++ooOoooooXX.",
"...oooOOO+++OO+++#####$$$$$###############$$$##++@@+OOOooOOOoXX.",
"..XooOoOOOOO+++OO###$$##$$#$$$#####$#$$#$$$$$$#+++@@@+OOOOOOoXX.",
"..XooOooO+OOO+++O@########$$##################@O+++@+OOOOOOooXX.",
"..XooOOoOO+++OO+++#######################$$###OOOOO++++++OoooXX.",
"..XoooOO+++OOO++++@####$$$$##$$$########$####@++OO+++O++OOOooXX.",
"...oooOOOO+++++++++#####$$#$$##########$$$###+++++OO++OOOooooXX.",
"...ooooOO++OO+OOO++@########################@++++++++++++OoooXX.",
"...oOoooOOO+++++OO++@#####$$###$$$#########@++++OOO+++++OooooX..",
"...ooOOOOO+++++++++OO@#####$$###$$$$####$$@+++OO++OO++OOoooooX..",
"...oOOooOOOOOO+++OO+OO@#######$$$##$$$#$$@+++O++++++OOooOOoooX..",
"...oooooooO+++OO++++++++@##############@++O++++OOO+++OOOOooooX..",
"...oooooOOOO+OO+++OOO+++++@##########@+OOO++++++OOOOOOoOOOOoo...",
"...ooooooOOOO+++++++OOO++OO++@####@+++OO+++++OOOO+OOooooOOoooX..",
"...oooOOOooO+++++OOO++++OO++O+++OO++++++OO+++++@++++OOOOoooooX..",
"...ooooOOOooO+OOOO+++++++++OOOOO++++@@+++OOO+@@++++++++OOOoooX..",
"...oooooooOOOO++OOO+++OO++++OO++++@@+++++++++++++@@@++@@+OOooX..",
"...oooooOOO@@++++++OOO+++++++OOO++O+++++++++++++@@+++++OOooooX..",
"...ooOOOO@@OOOOOO+OOO++++++++++++++OO+@@+++++OooOOOOOOoooooooX..",
"...oooOO@@OOOOOO@@++++++++OOOO++++++@@@+++OOOOOoooOOOOOoooooo...",
"...oooooOOOO@@O@@OOOOO++++++++OOO++++++OO++OOOOOOOOOOoooooooo...",
"...oooooooOOO@@OOOOOOooO+++++OOO+++++++++OOOOOOOOOoooOOOOoooo...",
"...oooooOOOOOOoooOOOOOOooOOO++++OOOOOOOOOOOOOoooOOOOOOOOooooo...",
" ..oooOOooOOOOOoooooOOooOOO++++OOoooOOOOOOOOoooOOOooOOOOOOooo.. ",
" ..ooooooOOooooOOoooooOOOOOOOOOOOOoooOOOoOOOOOoooOOOooooooooo.. ",
" ..ooooooooooooooooooOOOOOooOOooooOOOOOOOoooOOOOOOooooooooooo.. ",
" ..oooooooooooooooooooooooooooooooooooooooooooooooooooooooooo.. ",
" .......................XXXXXXXXXXXXXXXXXXXXXXXXXXX.XX......... ",
"  ...........................XXXXXXXXXXXXXXX..................  ",
"       ..................................................       "
};
