/* XPM */
static const char *jukebox_top[] = {
/* columns rows colors chars-per-pixel */
"64 64 7 1 ",
"  c #181514",
". c #292820",
"X c #352F2B",
"o c #5A3420",
"O c #5A3C29",
"+ c #7B5039",
"@ c #945D41",
/* pixels */
"......XXXX...XX.XXXXXXX..............XXX...X.XX...XX............",
".oOOOOOOOOOOOOOOO++++++OOOOOOOOOOOOOOOOOOOOOOOO+++++++++OOOOOOo.",
".OoO++++++++++++++++++++++++++++++++++++++++++++++++++++++++OoO.",
".OO++++@@@@@@@@@@@@@@@@@@@@@@@++++@@@@@@@@@@@@@@@@@@@@@@@++++OO.",
".O+++@@@@+++++++++++++++++++++OOOO+++++++++++++++++++++@@@@+++O.",
".O++@@@++++++++++++++++++++++O....O++++++++++++++++++++++@@@++O.",
"XO++@@+++++++++++++++++++++++O....O+++++++++++++++++++++++@@++O.",
"XO+@@++++++++++++++++++++++++O ...O++++++++++++++++++++++++@@+O.",
"XO+@@++++++++++++++++++++++++O  ..O++++++++++++++++++++++++@@+O.",
".O+@+++++++++++++++++++++++++O  ..O+++++++++++++++++++++++++@+O.",
"XO+@+++++++++++++++++++++++++O   .O+++++++++++++++++++++++++@+O.",
"XO+@+++++++++++++++++++++++++O   .O+++++++++++++++++++++++++@+OX",
".O+@+++++++++++++++++++++++++O    O+++++++++++++++++++++++++@+OX",
".++@+++++++++++++++++++++++++O    O+++++++++++++++++++++++++@+OX",
"X++@+++++++++++++++++++++++++O    O+++++++++++++++++++++++++@+OX",
"X++@+++++++++++++++++++++++++O    O+++++++++++++++++++++++++@+OX",
".++@+++++++++++++++++++++++++O    O+++++++++++++++++++++++++@+OX",
".++@+++++++++++++++++++++++++O    O+++++++++++++++++++++++++@+OX",
"X++@+++++++++++++++++++++++++O    O+++++++++++++++++++++++++@+OX",
".++@+++++++++++++++++++++++++O    O+++++++++++++++++++++++++@+OX",
"XO+@+++++++++++++++++++++++++O    O+++++++++++++++++++++++++@+OX",
"XO+@+++++++++++++++++++++++++O    O+++++++++++++++++++++++++@++X",
".O+@+++++++++++++++++++++++++O    O+++++++++++++++++++++++++@++X",
".O+@+++++++++++++++++++++++++O    O+++++++++++++++++++++++++@++X",
".O+@+++++++++++++++++++++++++O    O+++++++++++++++++++++++++@++X",
"XO+@+++++++++++++++++++++++++O    O+++++++++++++++++++++++++@++X",
"XO+@+++++++++++++++++++++++++O    O+++++++++++++++++++++++++@++X",
"XO+@+++++++++++++++++++++++++O    O+++++++++++++++++++++++++@+OX",
".O+@+++++++++++++++++++++++++O    O+++++++++++++++++++++++++@+OX",
".O+@+++++++++++++++++++++++++O    O+++++++++++++++++++++++++@+OX",
".O+@+++++++++++++++++++++++++O    O+++++++++++++++++++++++++@+OX",
".O+@+++++++++++++++++++++++++O    O+++++++++++++++++++++++++@+OX",
".O+@+++++++++++++++++++++++++O    O+++++++++++++++++++++++++@+O.",
".O+@+++++++++++++++++++++++++O    O+++++++++++++++++++++++++@+O.",
".O+@+++++++++++++++++++++++++O    O+++++++++++++++++++++++++@+O.",
".O+@+++++++++++++++++++++++++O    O+++++++++++++++++++++++++@+O.",
"XO+@+++++++++++++++++++++++++O    O+++++++++++++++++++++++++@+O.",
"X++@+++++++++++++++++++++++++O    O+++++++++++++++++++++++++@+O.",
"X++@+++++++++++++++++++++++++O    O+++++++++++++++++++++++++@+OX",
"X++@+++++++++++++++++++++++++O    O+++++++++++++++++++++++++@+OX",
".++@+++++++++++++++++++++++++O    O+++++++++++++++++++++++++@+OX",
"X++@+++++++++++++++++++++++++O    O+++++++++++++++++++++++++@++.",
"X++@+++++++++++++++++++++++++O    O+++++++++++++++++++++++++@++X",
".++@+++++++++++++++++++++++++O    O+++++++++++++++++++++++++@++X",
".++@+++++++++++++++++++++++++O    O+++++++++++++++++++++++++@++.",
"X++@+++++++++++++++++++++++++O    O+++++++++++++++++++++++++@++.",
"X++@+++++++++++++++++++++++++O    O+++++++++++++++++++++++++@++.",
"X++@+++++++++++++++++++++++++O    O+++++++++++++++++++++++++@++X",
"X++@+++++++++++++++++++++++++O    O+++++++++++++++++++++++++@++.",
"XO+@+++++++++++++++++++++++++O    O+++++++++++++++++++++++++@++.",
".O+@+++++++++++++++++++++++++O    O+++++++++++++++++++++++++@+O.",
".O+@+++++++++++++++++++++++++O    O+++++++++++++++++++++++++@+O.",
".O+@+++++++++++++++++++++++++O.   O+++++++++++++++++++++++++@+O.",
"XO+@+++++++++++++++++++++++++O.   O+++++++++++++++++++++++++@+O.",
"XO+@+++++++++++++++++++++++++O..  O+++++++++++++++++++++++++@+O.",
".O+@@++++++++++++++++++++++++O..  O++++++++++++++++++++++++@@+O.",
"XO+@@++++++++++++++++++++++++O... O++++++++++++++++++++++++@@+O.",
"XO++@@+++++++++++++++++++++++O....O+++++++++++++++++++++++@@++O.",
".O++@@@++++++++++++++++++++++O....O++++++++++++++++++++++@@@++O.",
".O+++@@@@+++++++++++++++++++++OOOO+++++++++++++++++++++@@@@+++O.",
".OO++++@@@@@@@@@@@@@@@@@@@@@@@++++@@@@@@@@@@@@@@@@@@@@@@@++++OO.",
".OoO++++++++++++++++++++++++++++++++++++++++++++++++++++++++OoO.",
".oOOOOOOO+++++++++++++++OOOOO+++++++++OOOOOOOOOOOOOOOOOOOOOOOOo.",
"........XX.XXX...XXXXXXXXX..........XXXX.XX.......X............."
};
