/* XPM */
static const char *ladder[] = {
/* columns rows colors chars-per-pixel */
"64 64 7 1 ",
"  c #3A2F1E",
". c #513D24",
"X c #67502C",
"o c #7E6237",
"O c #967441",
"+ c #B58D50",
"@ c None",
/* pixels */
"@@@@@@@@OOOOooX.@@@@@@@@@@@@@@@@@@@@@@@@@@@@@@@@OOOOooX.@@@@@@@@",
"@@@@@@@@oOoOOoo.@@@@@@@@@@@@@@@@@@@@@@@@@@@@@@@@oOoOOoo.@@@@@@@@",
"@@@@@@@@OooOOoX.@@@@@@@@@@@@@@@@@@@@@@@@@@@@@@@@OooOOoX.@@@@@@@@",
"@@@@@@@@ooOOooX.@@@@@@@@@@@@@@@@@@@@@@@@@@@@@@@@ooOOooX.@@@@@@@@",
"@@@@++++++++++Oo++++++++++++++++++++++++++++++++++++++Oo+++O@@@@",
"@@@@+OOoOOO+OOOXOOO+++OO++O++OOOO+++O++OOOO+++OOOO++OOOXOO++@@@@",
"@@@@O++oOO++++OXoO++OooOO++OOO+OOOooOOOOOO+++OoOO+OOOOoXoOOO@@@@",
"@@@@++Ooo++OOOoXoOOO++OOOOOOOOO++++Ooo++OooOOOOooOO++OoXoooO@@@@",
"@@@@OOOoooO+oooXoooOOOOooO++O++OO+OooOO++O++OoooO++OoooXXoOO@@@@",
"@@@@OOoXoOooOoXXooOOoooOOOO++OOOOOOOOOOOO++OOOoXoO++OoXXXooO@@@@",
"@@@@ooXXooXXXXXXXXoooXXXoooXXXoooXXooooooXooooXXooXooXXXXXXX@@@@",
"@@@@X...XXXXXX....XX......XXXXXX......XX..XXXX..XXXXXX......@@@@",
"@@@@@@@@..X...  @@@@@@@@@@@@@@@@@@@@@@@@@@@@@@@@..X...  @@@@@@@@",
"@@@@@@@@XXoX.X. @@@@@@@@@@@@@@@@@@@@@@@@@@@@@@@@XXoX.X. @@@@@@@@",
"@@@@@@@@XoOXXX..@@@@@@@@@@@@@@@@@@@@@@@@@@@@@@@@XoOXXX..@@@@@@@@",
"@@@@@@@@oOOoXoX.@@@@@@@@@@@@@@@@@@@@@@@@@@@@@@@@oOOoXoX.@@@@@@@@",
"@@@@@@@@OOOOooX.@@@@@@@@@@@@@@@@@@@@@@@@@@@@@@@@OOOOooX.@@@@@@@@",
"@@@@@@@@oOoOOoo.@@@@@@@@@@@@@@@@@@@@@@@@@@@@@@@@oOoOOoo.@@@@@@@@",
"@@@@@@@@OooOOoX.@@@@@@@@@@@@@@@@@@@@@@@@@@@@@@@@OooOOoX.@@@@@@@@",
"@@@@@@@@ooOOooX.@@@@@@@@@@@@@@@@@@@@@@@@@@@@@@@@ooOOooX.@@@@@@@@",
"@@@@++++++++++oo++++++++++++++++++++++++++++++++++++++Oo++++@@@@",
"@@@@+OoOO++OOOooOOO+++OOO++OO++OOO+++OOOooOO+++OO++OOOoXOOO+@@@@",
"@@@@OOOo++OOO+oXoOooOOOOOO++OooOO++OO++OO++OO+Oo+OOOOoXooO+O@@@@",
"@@@@OoOo+OO+++oXoOOooO+++OoooOooOOOO++OOOO++OOOoOOOoooXoooOO@@@@",
"@@@@OoooO++O+OoXoooO+++OOoooOOOO++O+OOOoooOO++ooOoOOoOXXXooO@@@@",
"@@@@ooooOO++OOXXooOOO+++OOOooO+++OOOOooOoooOOOoooooOOoXXooOO@@@@",
"@@@@oXXooooooXXXXoooXooooXXXoooooXXXooXXXXXooXXXoooooo.XXXXX@@@@",
"@@@@...XooXXXX....XXXXXX..XX...X.XXXXXXX....XX..XXXXXX....XX@@@@",
"@@@@@@@@..X...  @@@@@@@@@@@@@@@@@@@@@@@@@@@@@@@@..X...  @@@@@@@@",
"@@@@@@@@XXoX.X. @@@@@@@@@@@@@@@@@@@@@@@@@@@@@@@@XXoX.X. @@@@@@@@",
"@@@@@@@@XoOXXX..@@@@@@@@@@@@@@@@@@@@@@@@@@@@@@@@XoOXXX..@@@@@@@@",
"@@@@@@@@oOOoXoX.@@@@@@@@@@@@@@@@@@@@@@@@@@@@@@@@oOOoXoX.@@@@@@@@",
"@@@@@@@@OOOOooX.@@@@@@@@@@@@@@@@@@@@@@@@@@@@@@@@OOOOooX.@@@@@@@@",
"@@@@@@@@oOoOOoo.@@@@@@@@@@@@@@@@@@@@@@@@@@@@@@@@oOoOOoo.@@@@@@@@",
"@@@@@@@@OooOOoX.@@@@@@@@@@@@@@@@@@@@@@@@@@@@@@@@OooOOoX.@@@@@@@@",
"@@@@@@@@ooOOooX.@@@@@@@@@@@@@@@@@@@@@@@@@@@@@@@@ooOOooX.@@@@@@@@",
"@@@@O+++++++++Oo++++++++++++++++++++++++++++++++++++++Oo++++@@@@",
"@@@@+++OO++OO+OXOO+++OOOOO++OOO+OO++OOOO+++OOOOOO++++OoXo+O+@@@@",
"@@@@+O+o+O+O+OoXoO+OOOOOO++OO+OOO++ooO+++OOOooOOOOO+OooXoOOO@@@@",
"@@@@+OOo+OO++OoXoOOooOooOO+++OooOOooOOO+++OooOOoO+OO++oXoooo@@@@",
"@@@@Oooo++O+oOXXoooO+++OoOooOOOO+++OOOoooO++OoooOo++OOoXXooO@@@@",
"@@@@OOoXO++OooXXooOoo+++OOOooO+++OO++OOOoooOOOooooO++oXXXXXo@@@@",
"@@@@ooXXooooooX.XooXXXXoXooXXXXXXXoooXXXXXooooXXooooXXXXXXXX@@@@",
"@@@@XX..XooXXX....XX..XXXXXX....XXXX..XX....XX..XXXXXX......@@@@",
"@@@@@@@@..X...  @@@@@@@@@@@@@@@@@@@@@@@@@@@@@@@@..X...  @@@@@@@@",
"@@@@@@@@XXoX.X. @@@@@@@@@@@@@@@@@@@@@@@@@@@@@@@@XXoX.X. @@@@@@@@",
"@@@@@@@@XoOXXX..@@@@@@@@@@@@@@@@@@@@@@@@@@@@@@@@XoOXXX..@@@@@@@@",
"@@@@@@@@oOOoXoX.@@@@@@@@@@@@@@@@@@@@@@@@@@@@@@@@oOOoXoX.@@@@@@@@",
"@@@@@@@@OOOOooX.@@@@@@@@@@@@@@@@@@@@@@@@@@@@@@@@OOOOooX.@@@@@@@@",
"@@@@@@@@oOoOOoo.@@@@@@@@@@@@@@@@@@@@@@@@@@@@@@@@oOoOOoo.@@@@@@@@",
"@@@@@@@@OooOOoX.@@@@@@@@@@@@@@@@@@@@@@@@@@@@@@@@OooOOoX.@@@@@@@@",
"@@@@@@@@ooOOooX.@@@@@@@@@@@@@@@@@@@@@@@@@@@@@@@@ooOOooX.@@@@@@@@",
"@@@@O+++++++++Oo++++++++++++++++++++++++++++++++++++++Oo+++O@@@@",
"@@@@++OOO++OOOOXO++OO+++OooOOO++++++OO++OO+++++O+++OOooXO+O+@@@@",
"@@@@OOOo+OO++OOXOo++OOoooOOO+OO+Ooo++OO++OOO++Oo+O++oOoXoOO+@@@@",
"@@@@ooOoO+OO++oXooOOoOOoOooOO++OOOooOOOOO++OOOOo+OOOOOoXoOoO@@@@",
"@@@@OOooOoO++OoXXoooO++OO+ooOOooooOO+++OooOOOOooOoOOoooXoooO@@@@",
"@@@@OooXooOOOoXXXooO++OO+++OoOOooO++++OooOOOooooooOOOooXXooo@@@@",
"@@@@oXXXooooXXXXXXXoooXXXXooooXXXXXXooooXXXXXXXXooooXXX.XXXX@@@@",
"@@@@XX..XoXXXX....XXXXXX..X.....XXX.XX......XX..XoXXXX......@@@@",
"@@@@@@@@..X...  @@@@@@@@@@@@@@@@@@@@@@@@@@@@@@@@..X...  @@@@@@@@",
"@@@@@@@@XXoX.X. @@@@@@@@@@@@@@@@@@@@@@@@@@@@@@@@XXoX.X. @@@@@@@@",
"@@@@@@@@XoOXXX..@@@@@@@@@@@@@@@@@@@@@@@@@@@@@@@@XoOXXX..@@@@@@@@",
"@@@@@@@@oOOoXoX.@@@@@@@@@@@@@@@@@@@@@@@@@@@@@@@@oOOoXoX.@@@@@@@@"
};
