/* XPM */
static const char *light_blue_candle[] = {
/* columns rows colors chars-per-pixel */
"64 64 6 1 ",
"  c #212034",
". c #2085C5",
"X c #208DCD",
"o c #29A1D5",
"O c #31AEDE",
"+ c None",
/* pixels */
"++++++++++++++++++++++++++++++++++++++++++++++++++++++++++++++++",
"++++++++++++++++++++++++++++++++++++++++++++++++++++++++++++++++",
"++++++++++++++++++++++++++++++++++++++++++++++++++++++++++++++++",
"++++++++++++++++++++++++++++++++++++++++++++++++++++++++++++++++",
"++++++++++++++++++++++++++++++++++++++++++++++++++++++++++++++++",
"++++++++++++++++++++++++++++++++++++++++++++++++++++++++++++++++",
"++++++++++++++++++++++++++++++++++++++++++++++++++++++++++++++++",
"++++++++++++++++++++++++++++++++++++++++++++++++++++++++++++++++",
"++++++++++++++++++++++++++++++++++++++++++++++++++++++++++++++++",
"++++++++++++++++++++++++++++++++++++++++++++++++++++++++++++++++",
"++++++++++++++++++++++++++++++++++++++++++++++++++++++++++++++++",
"++++++++++++++++++++++++++++++++++++++++++++++++++++++++++++++++",
"++++++++++++++++++++++++++++++++++++++++++++++++++++++++++++++++",
"++++++++++++++++++++++++++++++++++++++++++++++++++++++++++++++++",
"++++++++++++++++++++++++++++++++++++++++++++++++++++++++++++++++",
"++++++++++++++++++++++++++++++++++++++++++++++++++++++++++++++++",
"++++++++++++++++++++++++++++++++++++++++++++++++++++++++++++++++",
"++++++++++++++++++++++++++++++++++++++++++++++++++++++++++++++++",
"++++++++++++++++++++++++++++++++++++++++++++++++++++++++++++++++",
"++++++++++++++++++++++++++++++++++++++++++++++++++++++++++++++++",
"    ++++++++++++++++++++++++++++++++++++++++++++++++++++++++++++",
"    ++++++++++++++++++++++++++++++++++++++++++++++++++++++++++++",
"    ++++++++++++++++++++++++++++++++++++++++++++++++++++++++++++",
"    ++++++++++++++++++++++++++++++++++++++++++++++++++++++++++++",
"XXXXXXXX++++++++++++++++++++++++++++++++++++++++++++++++++++++++",
"XX....XX++++++++++++++++++++++++++++++++++++++++++++++++++++++++",
"X......X++++++++++++++++++++++++++++++++++++++++++++++++++++++++",
"X......X++++++++++++++++++++++++++++++++++++++++++++++++++++++++",
"X......X++++++++++++++++++++++++++++++++++++++++++++++++++++++++",
"X......X++++++++++++++++++++++++++++++++++++++++++++++++++++++++",
"XX....XX++++++++++++++++++++++++++++++++++++++++++++++++++++++++",
"XXXXXXXX++++++++++++++++++++++++++++++++++++++++++++++++++++++++",
"XoOOOOOO++++++++++++++++++++++++++++++++++++++++++++++++++++++++",
"XXXXoOoo++++++++++++++++++++++++++++++++++++++++++++++++++++++++",
".XXXXooX++++++++++++++++++++++++++++++++++++++++++++++++++++++++",
".XXXXOoX++++++++++++++++++++++++++++++++++++++++++++++++++++++++",
".XXXoOXX++++++++++++++++++++++++++++++++++++++++++++++++++++++++",
".XXXoOXX++++++++++++++++++++++++++++++++++++++++++++++++++++++++",
"XXXXoOXX++++++++++++++++++++++++++++++++++++++++++++++++++++++++",
"XXXXoOXX++++++++++++++++++++++++++++++++++++++++++++++++++++++++",
".XXXooXX++++++++++++++++++++++++++++++++++++++++++++++++++++++++",
".XXXXoXX++++++++++++++++++++++++++++++++++++++++++++++++++++++++",
".XXXXoXX++++++++++++++++++++++++++++++++++++++++++++++++++++++++",
".XXXXoXX++++++++++++++++++++++++++++++++++++++++++++++++++++++++",
".XXXXXX.++++++++++++++++++++++++++++++++++++++++++++++++++++++++",
".XXXXXX.++++++++++++++++++++++++++++++++++++++++++++++++++++++++",
".XXXXoX.++++++++++++++++++++++++++++++++++++++++++++++++++++++++",
".XXXXoX.++++++++++++++++++++++++++++++++++++++++++++++++++++++++",
".XXXXoX.++++++++++++++++++++++++++++++++++++++++++++++++++++++++",
"..XXXoX.++++++++++++++++++++++++++++++++++++++++++++++++++++++++",
"..XXXXX.++++++++++++++++++++++++++++++++++++++++++++++++++++++++",
"...XXX..++++++++++++++++++++++++++++++++++++++++++++++++++++++++",
"........++++++++++++++++++++++++++++++++++++++++++++++++++++++++",
"........++++++++++++++++++++++++++++++++++++++++++++++++++++++++",
"........++++++++++++++++++++++++++++++++++++++++++++++++++++++++",
"........++++++++++++++++++++++++++++++++++++++++++++++++++++++++",
"........++++++++++++++++++++++++++++++++++++++++++++++++++++++++",
"........++++++++++++++++++++++++++++++++++++++++++++++++++++++++",
"........++++++++++++++++++++++++++++++++++++++++++++++++++++++++",
"........++++++++++++++++++++++++++++++++++++++++++++++++++++++++",
"........++++++++++++++++++++++++++++++++++++++++++++++++++++++++",
"........++++++++++++++++++++++++++++++++++++++++++++++++++++++++",
"........++++++++++++++++++++++++++++++++++++++++++++++++++++++++",
"........++++++++++++++++++++++++++++++++++++++++++++++++++++++++"
};
