/* XPM */
static const char *light_gray_terracotta[] = {
/* columns rows colors chars-per-pixel */
"64 64 4 1 ",
"  c #876A60",
". c #876B62",
"X c #8B6E65",
"o c #8C6E64",
/* pixels */
"XXXX               XXXXX     XXXXX    XXXXXXXXX          XXXXXXX",
"XXX    XXX      XXXXXXXXXXX   XXXXXX    XXXX                XXXX",
"XXXXX   XXXXXoooXXXXXXXXX        XX   XX   XX           XX     X",
"XX   XXXXXoooXXooXXXXXXXXXX       XXXXXXX            XXXXXX  XXX",
"XXX   o  XXXooXXXX    XX            XXXXXoooooXX   XXXXXXXXX  XX",
"    oooo  XXXXX     XXXXX          XXXoooooXXXX       XXXXXXXXXX",
"XX      oo  ooooo        XX    XXXXXooooXXXX             XXXXXXX",
"XXXXX        oo  ooo    XX      XXXXXoooooXXX          XXXXXXXXX",
"XXXXX            XXXX                XXXXXXXXXXXXX  o  XXXXXXXXX",
"XXXX                                    XXXXXXXX   ooooo   XXXXX",
"XXXXXXXX    XXXXX                 XXXX    XX  X  oo XXX       XX",
"XXXXXXXXX    XXX                XXXX         XXXX XX        XXXX",
"XXXXXX  XXX   XXXXX           XXXXXXXXXX                 XXXXXXX",
"XXXXXXXX    XX  XX  X       XXXXXXXXXXXXXX                XXXXXX",
"XXXXXXXXXXX  XX   XX     XX  XXXXooo  XXX   ooo       XXX  XXXXX",
"XXXXXXXXXXXX     XX     XXXXXXoooo      XX    oooo  oo   XXX  XX",
"  ooXXXXXXXXXX            XXXooo  X    XX    oooo  oo  ooo XX   ",
"X  oooXXooXX                XXXoo  XX   XXX     oo   oooo XX   X",
"XX    ooooooXXXXX                               XXXX     XXXXXXX",
"X  XX  oo   XXXX                              XX  X         XXXX",
"X XXXXXX   XXX                            X    XXXXXXX         X",
"    XXXXXXX   X                        XXXXXXXXXXXX           XX",
"   XX   XXXX   XXXX           XX        X  XXXX                 ",
"       XXXXXXXXXX           XXX          XXX                    ",
"     XooXXXXooXX          X  XXXX  XXXXXXXooooo    XXXXX        ",
" X  XXXoooXXXoooXXXX       XXXXXXXXXXXooooooo  ooo    XXXX      ",
"  XXXXXXXXoooooXXooXXX           XoooXXooXXXoo      XX          ",
"XXXXXXXXXXXXoooooXXXX           XXXoooooooXXXX  XXXXXXX         ",
"XXXX    XXXX   ooo                         XXXXX    XXXXXXX   XX",
"XX     XXXXXX                                 XXX     XXXXXXX  X",
"X   XXXXXXX                                        XXXooooXXXXXX",
"XXX   XXXX                                      XXXXXXXoooooXXXX",
"XXX   oooXXXX         XXoooo                XXXXXXXooooXoooooooo",
"        oooo         Xoooo               XXXXXXXXXXXooooXXoooooX",
"X   XXXXX   oooo  XXooo                  oooo   XXXooXXXoooXoo  ",
"XXX  X   XX   o  XXXXooooo            ooooo   XXXXXXXXXXXoXXXooX",
"XXX    XXXXXXXXXXXXX                ooooo XX   XXX   XXXXXXooXXX",
"XXXXX   XXXXXXXX  XXX                ooooo XXX           XooXXXX",
"X   XX    XXX   XXX                  X  ooooX    XXX    XXXXXXXX",
"XXX    XXXXXXX       XX             XXXXX  XXXXXXX    XXXXXXXXXX",
"XXXXXXXXXXXoooooXXXXXX                 X  XXXXXX        XXXXXXXX",
"XXXXXXXXoooXXXooooooXXXXX               XXXXXXXXX XX   XXXXXXXXX",
"XXXXXXXXXoooXXXXoXXoooXXXXXX          XXXXXXXXXXXXXXXXXXXXXXXXXX",
"  XXXXXXXXXXXXXXXXoooX   XX         XXXX    XXXooXXXXXXXXXXXXX  ",
"      XXXXooXXoXXXXXXXX   XXXXXX  XXXXooo  XXXooooooXXXXXXX     ",
"     X  XXXoooXXXXXX  XX    XXXXXX  ooo  o    XXoooXXooXXXXX    ",
"  XX XX     XXXX   XXX    XXoo   oo  ooo     XX   oooXXXX       ",
"   XX      XXX       XXX XXXXoo   ooo               XX          ",
" XXXXXXX                       XXXXX    XXXXXXX        XXX  XXX ",
"XXXX   XX                         XXXX   XXX            XXX   XX",
"XXXXX    XXX                   XXXXXXXXX   XXX             XX   ",
"   XXXX   XXXX               XX XXXXXXXXX                 XX    ",
"  ooooXXXXXXXXooXX            XXXX            XXX            ooo",
"ooXXXoooXXoooooXXXXXX   XXX                  XXX XX      ooooooo",
"XXXXXXXXoooooooooXXX      XXX                   XX    oo  ooooXX",
"XXXXXXXXXoooooooooooXX   XXX                     XXX   ooooXXXXX",
"XXXXXXX              XXX         XXX    oo           XX      XXX",
"XXXXXX XX                      XX  XX     oooo  XX        XXXXXX",
"XXXXXXXX      XXX                 XXXXXX   oo  o  X    XX  XXXXX",
"XXXXXXXXXX  XXXX           XX   XX  XX    ooooo  XXX    XXXXXXXX",
"XXX                         XXXXoo      XX   X             XXXXX",
"     XXX                  XXXXo  ooo     XXXX  XX           XXXX",
"XX  XXX            X  XXXoooooooooo   XXX   XXXX        XXXXXXXX",
"XXX   XXX           XXXoooooo       XXXX  XXXXXXXXX   XXXXXXXXXX"
};
