/* XPM */
static const char *light_gray_glazed_terracotta[] = {
/* columns rows colors chars-per-pixel */
"64 64 19 1 ",
"  c #474F52",
". c #4D5457",
"X c #50575A",
"o c #57696F",
"O c #596B71",
"+ c #5B6D73",
"@ c #5F7176",
"# c #607277",
"$ c #149292",
"% c #159999",
"& c #169C9C",
"* c #16A0A0",
"= c #17A8A8",
"- c #758486",
"; c gray57",
": c gray60",
"> c #C1C6C8",
", c #CCD0D2",
"< c #D5D8D9",
/* pixels */
"::::,,,,,o<,,,,,,,>#>,,,,,#&&&&&&&&&&&&&&&*#::::::: :::::,&&&&&&",
"::::,,,,,o<,,,,,,,>#>,,,,,#==&&&&&&&&&&&&*#:::::::: :::::,&&&&&&",
"::::,,,,,#<,,,,,,,>o>,,,,,,<<===&&&&&&&&*#:::::::::X:::::,&&&&&&",
"::::,,,,,#<,,,,,,,>o>,,,,,,,,<<<==&&&&&*#::::::::::X:::::,&&&&&&",
",,,,,,,,,o<,,,,,,,>#>,,,,,,,,,,,<<==&&*#::::::::::: :::::,&&&&&&",
",,,,,,,,,o<,,,,,,,>#>,,,,,,,,,,,,,<<==#:::::::::::: :::::,&&&&&&",
",,,,,,,,,#<,,,,,,,>#>,,,,,,,,,,,,,,,<<:::::::::::::.:::::,,,,,,,",
",,,,,,,,,#<,,,,,,,>#>>,,,,,,,,,,,,,,,,<<:::::::::::.::::::::::::",
",,,,,,,,,#<,,,,,,,>--->>>>,,,,,,,,,,,,,,<<:::::::::.::::::::::::",
"#########-<,,,,,,,,>>>--::>>>,,,,,,,,,,,,,<<:::::::.::::::::::::",
"<<<<<<<<<<<,,,,,,,,,,,>>>>:::>>>,,,,,,,,,,,,<::::::.::::::::::::",
",,,,,,,,,,,,,,,,,,,,,,,,,,>>>:::>>,,,,,,,,,,,<:::::.::::::::::::",
",,,,,,,,,,,,,,,,,,,,,,,,,,,,,>>>::>>,,,,,,,,,,<::::.XXXXXX      ",
",,,,,,,,,,,,,,,,,,,,,,,,,,,,,,,,>>::>>,,,,,,,,,<::::::::::::::::",
",,,,,,,,,,,,,,,,,,,,,,,,,,,,,,,,,,>>::>>,,,,,,,,<:::::::::::::::",
",,,,,,,,,,,,,,,,,,,,,,,,,,,,,,,,,,,,>>::>>,,,,,,,<::::::::::::::",
",,,,,,,,,,,,,,,,,,,,,,,,,,,,,,,,,,,,,,>>##>,,,,,,,<:::::::::::::",
">>>>>>>>>>>>>>>>>>>>,,,,,,,,,,,,,,,,,,,,>>#>,,,,,,,<::::::::::::",
"##oo##oo##--;;;;;;;;,,,,,,,,,,,,,,,,,,,,,,>#>,,,,,,,<:::::::::::",
"<<<<<<<<<<<<<<<<<<<;,,,,,,,,,,,<<,,,,,,,,,,>->,,,,,,,<::::::::::",
",,,,,,,,,,,,,,,,,,>:::;,,,,,,,,,,<<,,,,,,,,,>->,,,,,,,<::::::::#",
",,,,,,,,,,,,,,,,,,>:<<<;;;,,,,,,,,,<,,,,,,,,,>->,,,,,,<:::::::#*",
",,,,,,,,,,,,,,,,,,>-<,,<<<;;;,,,,,,,,,,,,,,,,,>->,,,,,,<:::::#*&",
",,,,,,,,,,,,,,,,,,>-<,,,,,<<<;;,,,,,,,,,,,,,,,>->,,,,,,<::::#*&&",
",,,,,,,,,,,,,,,,,,>-<,,,,,,,,<<--,,,,,,,,,,,,,,>->,,,,,,<::#*&&&",
",,,,,,,,,,,,,,,,,,>-<,,,,,,,,,,<<-,,,,,,,,,,,,,>->,,,,,,<:#*&&&&",
",,,,,,,,,,,,,,,,,,>-<,,,,,,,,,,,,<-,,,,,,,,,,,,,>->,,,,,,<=&&&&&",
",,,,,,,,,,,,,,,,,,>-<,,,,,,,,,,,,,<-,,,,,,,,,,,,>->,,,,,,<=&&&&&",
",,,,,,,,,,,,,,,,,,>-<,,,,,,,,,,,,,,<#,,,,,,,,,,,,>:>,,,,,,<=&&&&",
">>>>>>>>>>>>>>>>>>>-<,,,,,,,,,,,,,,,<#,,,,,,,,,,,>:>,,,,,,<=&&&&",
"++OO##OO####--------<,,,,,,,,,,,,,,,,<;,,,,,,,,,,,>:>,,,,,,<=&&&",
"+=****************-->>,,,,,,,,,,,,,,,,<;,,,,,,,,,,>:>,,,,,,<=&&&",
"+*&&&&&&&&&&&&&&&&**-->>,,,,,,,,,,,,,,<;,,,,,,,,,,,>:>,,,,,,<=&&",
"+*&&&&&&&&&&&&&&&&&&%%-->>,,,,,,,,,,,,,<;,,,,,,,,,,>:>,,,,,,<=&&",
"+*&&&&&&&&&&&&&&&&&&&&%%-->,,,,,,,,,,,,<;,,,,,,,,,,>:>,,,,,,<=&&",
"+*&&&&&&&&&&&&&&&&&&&&&&%%->,,,,,,,,,,,,<;,,,,,,,,,,>:>,,,,,,<=&",
"+*&&&&&&&&&&&&&&&&&&&&&&&&%->,,,,,,,,,,,<;>,,,,,,,,,>:>,,,,,,<=&",
"+*&&&&&&&&&&&&&&&&&&&&&&&&&%->,,,,,,,,,,<;>,,,,,,,,,>:>,,,,,,,##",
"#*&&&&&&&&&&&&&&&&&&&&&&&&&&%->,,,,,,,,,,<;>,,,,,,,,,>:>,,,,,,,,",
"#*&&&&&&&&&&&&&&&&&&&&&&&&&&%->,,,,,,,,,,<;>,,,,,,,,,>:>,,,,,,,,",
"o*&&&&&&&&&&&&&&&&&&&&&&&&&&&%->,,,,,,,,,<;>,,,,,,,,,>:>,,,,,,,,",
"oo######@@@@##$$&&&&&&&&&&&&&%->,,,,,,,,,,<;>,,,,,,,,>:>,,,,,,,,",
"::::::::::::::##$$&&&&&&&&&&&&%->,,,,,,,,,<:>,,,,,,,,,>:>,,,,,,,",
",,,,,,,,,,,,,,::##$&&&&&&&&&&&%->>>>>>>>>>>:>,,,,,,,,,>:>>>>>>>>",
",,,,,,,,,,,,,,,,::#$&&&&&&&&&&&$--------;;;;::>,,,,,,,>:::--oooo",
",,,,,,,,,,,,,,,,,,:#$&&&&&&&&&&$--><<<<<<<<<<:>,,,,,,,,>>>>>>>>>",
",,,,,,,,,,,,,,,,,,,:@$&&&&&&&&&&$->,,,,,,,,,<:>,,,,,,,,,,,,,,,,,",
",,,,,,,,,,,,,,,,,,,:@$&&&&&&&&&&$->,,,,,,,,,<:>,,,,,,,,,,,,,,,,,",
"::::,,,,,,,,,,,,,,,,:#$&&&&&&&&&$->,,,,,,,,,<:>,,,,,,,,,,,,,,,,,",
",,,,:::,,,,,,,,,,,,,:#$&&&&&&&&&$->,,,,,,,,,<:>,,,,,,,,,,,,,,,,,",
",,,,,,,::,,,,,,,,,,,,:#$&&&&&&&&$->,,,,,,,,,<:>,,,,,,,,,,,,,,,,,",
",,,,,,,,,:,,,,,,,,,,,:#$&&&&&&&&$->,,,,,,,,,<:>,,,,,,,,,,,,,,,,,",
",,,,,,,,,,:,,,,,,,,,,:+$&&&&&&&&$#>,,,,,,,,,<->,,,,,,,,,,,,,,,,,",
",,,,,,,,,,,:,,,,,,,,,:+$&&&&&&&&$#>,,,,,,,,,<->,,,,,,<<<<<<<<<<<",
",,,,,,,,,,,,:,,,,,,,,:+$&&&&&&&&$#>,,,,,,,,,<#>,,,,,,<-###oo##oo",
",,,,,,,,,,,,,:,,,,,,,:+$&&&&&&&&$#>,,,,,,,,,<#>,,,,,,<#,,,,,,,,,",
":,,,,,,,,,,,,:,,,,,,,:+$&&&&&&&&$#>,,,,,,,,,<o>,,,,,,<#,,,,,,,,,",
"::,,,,,,,,,,,,:,,,,,,:+$&&&&&&&&$#>,,,,,,,,,<o>,,,,,,<#,,,,,,,,,",
":::,,,,,,,,,,,:,,,,,,:o$&&&&&&&&$#>,,,,,,,,,<o>,,,,,,<o,,,,,,,,,",
"::::,,,,,,,,,,:,,,,,,:o$&&&&&&&&$#>,,,,,,,,,<o>,,,,,,<o,,,,,,,,,",
":::::,,,,,,,,,,:,,,,,:o$&&&&&&&&$#>,,,,,,,,,<#>,,,,,,<#,,,,,::::",
"::::::,,,,,,,,,:,,,,,:o$&&&&&&&&$#>,,,,,,,,,<#>,,,,,,<#,,,,,::::",
":::::::,,,,,,,,:,,,,,:o**********#>,,,,,,,,,<o>,,,,,,<o,,,,,::::",
"::::::::,,,,,,,:,,,,,:oo##########>,,,,,,,,,<o>,,,,,,<o,,,,,::::"
};
