/* XPM */
static const char *lily_of_the_valley[] = {
/* columns rows colors chars-per-pixel */
"64 64 8 1 ",
"  c #377F13",
". c #50922F",
"X c #64B132",
"o c #7FC059",
"O c #D8D8D8",
"+ c #E7E7E7",
"@ c white",
"# c None",
/* pixels */
"################################################################",
"################################################################",
"################################################################",
"################################################################",
"################################################################",
"################################################################",
"################################################################",
"################################################################",
"################################################################",
"################################################################",
"################################################################",
"################################################################",
"################################################################",
"################################################################",
"################################################################",
"################################################################",
"####################XooXoo######################################",
"##################XoooooXXoX####################################",
"#################ooo####...XX###################################",
"################oo########..XX##################################",
"###############+OO##########..X#################################",
"##############O++O###########..X################################",
"#############O+@+++#########oXX..###############################",
"#############+@@++O#######ooX.XX.###############################",
"############++@@@+O######ooXXX..XX##############################",
"############+@@@@+O#####oXX..##..X##############################",
"###########+@@@@++O####++O.#####..X#############################",
"###########++@@@+++###+@++O##### .X#############################",
"############+#@+@+###+@@@@++#####..################.############",
"###############+@+###+@@@@+O##### X###############..############",
"################+###+@@@@++O##### .##############..X############",
"####################+@@@@+OXX####..#############..XX############",
"###################+@@@@@OO#.XX##.X############.XXXX############",
"###################@@@@@@O###.XXX X############XXXXX############",
"################OOo@@#@@+O####.X. .###########XXXoXX############",
"##############O++OOo@##+O+######X .###########XXooXX############",
"#############O+@@++O####+########. ##########XXooXX.############",
"############++@@@@+##############. #########XXoooXX.############",
"############+@@@@+###############X.########XXoXoXXX.############",
"###########+@@@@@+###############X.#######XXoXooXX..############",
"###########+#@@@+O##############+. ######XXoXXoXXX #############",
"##############@++O############++@. #####.XooXXoXXX #############",
"################O###########+++@@X ####.XooXXoXXX. #############",
"###########################++@@@+. ###..XooXXoXXX. #############",
"##########################+@@@+@+X ## .XooXXoXXX. ##############",
"##########################+@@@++OX.  ..XoXXooXX.. ##############",
"##########################@+@@+OO.. .XooX.ooXX.X. ##############",
"###########################+@+O##. ..ooX.XoXXXXX ###############",
"############################++###X ..X..XoXXXXX. ###############",
"############################+####X ...oooXXXX... ###############",
"#################################X ..oooXXX...X ################",
"#################################X. ...XX....X. ################",
"#################################.. ..X..XX... #################",
"#################################.. ......XX.. #################",
"################################# . ......... ##################",
"#################################    .. .... ###################",
"#################################      ...  ####################",
"#################################         ######################",
"#################################.      ########################",
"#################################.   ###########################",
"################################# .#############################",
"#################################  #############################",
"#################################  #############################",
"#################################  #############################"
};
