/* XPM */
static const char *lime_stained_glass_pane_top[] = {
/* columns rows colors chars-per-pixel */
"64 64 4 1 ",
"  c #76BD17",
". c #7AC318",
"X c #7FCB19",
"o c None",
/* pixels */
"ooooooooooooooooooooooooooooXX....  oooooooooooooooooooooooooooo",
"oooooooooooooooooooooooooooo.X....  oooooooooooooooooooooooooooo",
"oooooooooooooooooooooooooooo.X..... oooooooooooooooooooooooooooo",
"oooooooooooooooooooooooooooo.X..... oooooooooooooooooooooooooooo",
"oooooooooooooooooooooooooooo......  oooooooooooooooooooooooooooo",
"oooooooooooooooooooooooooooo......  oooooooooooooooooooooooooooo",
"oooooooooooooooooooooooooooo.X....  oooooooooooooooooooooooooooo",
"oooooooooooooooooooooooooooo.X....  oooooooooooooooooooooooooooo",
"oooooooooooooooooooooooooooo......  oooooooooooooooooooooooooooo",
"oooooooooooooooooooooooooooo......  oooooooooooooooooooooooooooo",
"oooooooooooooooooooooooooooo......  oooooooooooooooooooooooooooo",
"oooooooooooooooooooooooooooo......  oooooooooooooooooooooooooooo",
"oooooooooooooooooooooooooooo.X....  oooooooooooooooooooooooooooo",
"oooooooooooooooooooooooooooo.X..... oooooooooooooooooooooooooooo",
"oooooooooooooooooooooooooooo.X..... oooooooooooooooooooooooooooo",
"oooooooooooooooooooooooooooo.X..... oooooooooooooooooooooooooooo",
"oooooooooooooooooooooooooooo.X....  oooooooooooooooooooooooooooo",
"ooooooooooooooooooooooooooooXX....  oooooooooooooooooooooooooooo",
"ooooooooooooooooooooooooooooXX....  oooooooooooooooooooooooooooo",
"ooooooooooooooooooooooooooooXX....  oooooooooooooooooooooooooooo",
"ooooooooooooooooooooooooooooXX....  oooooooooooooooooooooooooooo",
"ooooooooooooooooooooooooooooXX....  oooooooooooooooooooooooooooo",
"ooooooooooooooooooooooooooooXX..... oooooooooooooooooooooooooooo",
"ooooooooooooooooooooooooooooXX....  oooooooooooooooooooooooooooo",
"oooooooooooooooooooooooooooo.X..... oooooooooooooooooooooooooooo",
"oooooooooooooooooooooooooooo.X..... oooooooooooooooooooooooooooo",
"oooooooooooooooooooooooooooo.X..... oooooooooooooooooooooooooooo",
"oooooooooooooooooooooooooooo.X..... oooooooooooooooooooooooooooo",
"oooooooooooooooooooooooooooo......  oooooooooooooooooooooooooooo",
"oooooooooooooooooooooooooooo......  oooooooooooooooooooooooooooo",
"oooooooooooooooooooooooooooo......  oooooooooooooooooooooooooooo",
"oooooooooooooooooooooooooooo......  oooooooooooooooooooooooooooo",
"oooooooooooooooooooooooooooo.X....  oooooooooooooooooooooooooooo",
"oooooooooooooooooooooooooooo.X..... oooooooooooooooooooooooooooo",
"oooooooooooooooooooooooooooo.X..... oooooooooooooooooooooooooooo",
"oooooooooooooooooooooooooooo.X..... oooooooooooooooooooooooooooo",
"oooooooooooooooooooooooooooo......  oooooooooooooooooooooooooooo",
"oooooooooooooooooooooooooooo......  oooooooooooooooooooooooooooo",
"oooooooooooooooooooooooooooo......  oooooooooooooooooooooooooooo",
"oooooooooooooooooooooooooooo......  oooooooooooooooooooooooooooo",
"oooooooooooooooooooooooooooo.X....  oooooooooooooooooooooooooooo",
"oooooooooooooooooooooooooooo.X....  oooooooooooooooooooooooooooo",
"oooooooooooooooooooooooooooo....... oooooooooooooooooooooooooooo",
"oooooooooooooooooooooooooooo.X..... oooooooooooooooooooooooooooo",
"oooooooooooooooooooooooooooo.X..... oooooooooooooooooooooooooooo",
"ooooooooooooooooooooooooooooXX..... oooooooooooooooooooooooooooo",
"ooooooooooooooooooooooooooooXX..... oooooooooooooooooooooooooooo",
"ooooooooooooooooooooooooooooXX..... oooooooooooooooooooooooooooo",
"ooooooooooooooooooooooooooooXX....  oooooooooooooooooooooooooooo",
"oooooooooooooooooooooooooooo.X....  oooooooooooooooooooooooooooo",
"oooooooooooooooooooooooooooo.X....  oooooooooooooooooooooooooooo",
"oooooooooooooooooooooooooooo.X....  oooooooooooooooooooooooooooo",
"oooooooooooooooooooooooooooo......  oooooooooooooooooooooooooooo",
"oooooooooooooooooooooooooooo......  oooooooooooooooooooooooooooo",
"oooooooooooooooooooooooooooo......  oooooooooooooooooooooooooooo",
"oooooooooooooooooooooooooooo......  oooooooooooooooooooooooooooo",
"oooooooooooooooooooooooooooo.X....  oooooooooooooooooooooooooooo",
"oooooooooooooooooooooooooooo.X....  oooooooooooooooooooooooooooo",
"oooooooooooooooooooooooooooo......  oooooooooooooooooooooooooooo",
"oooooooooooooooooooooooooooo......  oooooooooooooooooooooooooooo",
"oooooooooooooooooooooooooooo.X....  oooooooooooooooooooooooooooo",
"oooooooooooooooooooooooooooo.X....  oooooooooooooooooooooooooooo",
"ooooooooooooooooooooooooooooXX....  oooooooooooooooooooooooooooo",
"ooooooooooooooooooooooooooooXX....  oooooooooooooooooooooooooooo"
};
