/* XPM */
static const char *magenta_stained_glass[] = {
/* columns rows colors chars-per-pixel */
"64 64 2 1 ",
"  c #B24CD8",
". c None",
/* pixels */
"                                                                ",
"                                                                ",
"  ............................................................  ",
"  ............................................................  ",
"  ............................................................  ",
"  ............................................................  ",
"  ............................................................  ",
"  ............................................................  ",
"  ................. ..........................................  ",
"  ................ ...........................................  ",
"  ............... ............................................  ",
"  .............. .............................................  ",
"  ............. ..............................................  ",
"  ............ ...............................................  ",
"  ........... ................................................  ",
"  .......... .................................................  ",
"  ......... ..................................................  ",
"  ........ ...................................................  ",
"  ....... ....................................................  ",
"  ...... .....................................................  ",
"  ............................................................  ",
"  ............................................................  ",
"  ............................................................  ",
"  ............................................................  ",
"  ............................................................  ",
"  ............................................................  ",
"  ............................................................  ",
"  ............................................................  ",
"  ............................................................  ",
"  ............................................................  ",
"  ............................................................  ",
"  ............................................................  ",
"  ............................................................  ",
"  ............................................................  ",
"  ............................................................  ",
"  ............................................................  ",
"  ............................................................  ",
"  ............................................................  ",
"  ............................................................  ",
"  ............................................................  ",
"  ............................................................  ",
"  ............................................................  ",
"  ............................................................  ",
"  ............................................................  ",
"  ............................................................  ",
"  ............................................................  ",
"  ............................................................  ",
"  ............................................................  ",
"  ..................................................... ......  ",
"  .................................................... .......  ",
"  ................................................... ........  ",
"  .................................................. .........  ",
"  ................................................. ..........  ",
"  ................................................ ...........  ",
"  ............................................... ............  ",
"  .............................................. .............  ",
"  ............................................................  ",
"  ............................................................  ",
"  ............................................................  ",
"  ............................................................  ",
"  ............................................................  ",
"  ............................................................  ",
"                                                                ",
"                                                                "
};
