/* XPM */
static const char *magma[] = {
/* columns rows colors chars-per-pixel */
"64 192 9 1 ",
"  c #411616",
". c #501B1B",
"X c #652828",
"o c #723232",
"O c #CA4E06",
"+ c #E66410",
"@ c #F48522",
"# c #F89E44",
"$ c #FBAA59",
/* pixels */
"    ..++@.X. ...  ..  ..X.+++OX.X.  ..   ..  ..o@+@+@@+OX....   ",
"    . +O+X..  .     .  ..XO@++XX...     ..    .X+O+@@@++XX....  ",
"..   .OO.X.  ..      .. .X.+@+oX...       ... .XOO+@+@@+OX. .   ",
" .....O+X.    ..      ...XXO@@o.. ..        ...oO+@@@++OOXX.    ",
"   ..X@+X ..      .    ...X.+@o. ....         .o+@@@++@+OOX..XX.",
"..  XX+@X..     ...    ....X++oX  .  ..       X+++@#OO+@+OOXXX..",
"..XXo++@o..  .....    .. ..X+++X. ..  ...  . .o+@##@+OOO+@@+oXX.",
"oooo++@@oX..  ...  .  .X  ..+O+o..     .    .X+@##++OOO+++@@++oX",
"@@$$@++@OoX..XX. ..  .X.  ..OO@oX..  ..   .XX+@@@O..XXXX..OO@@+@",
"@@@$$$@++O.XXX....  .XXX. ..O+@+oX...    .oo+@@@O..XX...XXX.+@@@",
"+@@++@$@+@+OXXX.....XX.. ..OO++++oX.   ..X+@##@+..X... ...XX.O+@",
"@@++@@@@@++++OoXX..  .  .X.OOO++@++X..XX+@###@+O.X...  . ...X.O+",
"++@@@@$$$$@@+++OooX.  .XX.O++OOO+@@++@####@+++OOXX. ..  .....X.+",
"+@@@$$$$@@@+@+++OOooXXX.OO++OOO+++@@####@@@@+OO+X...   .  ...XXO",
"+@@$$@oooo++++@+++OO+OO++OOOXXX..Xoo+++@@@##@++OX.   ..     ..X ",
"@+@@oooXX.XX+++@+OO++@++OOX.......XX.XXoo@@##@++X..   ..   ...X.",
"@@+oX... .  X++@@+++@+OOX... ...XXX.X..XXXoo@#@@+.  ..   ......X",
"+@@X..  ...  .O+@++@@OOX..  .....XXX..XXXXXXo+@@@X.....   .. ..X",
"+$o..  ...... X+@@+@+OX..  .. ..  . .XXX...XXo+@#@.   ...  .   .",
"@$o..... ...  .O#@++Oo..  ....  .  .X.......XXo+##X.    ..    ..",
"$$X. . .  .   .X@#@+OX..  ..   ...  ...  ..X.Xo+@#+X.        ..O",
"$@X  ..      . .@#@+o..    ..   ......  ......Xo+#@+oX.    ... +",
"@+.   ..    ..  X@#+oX.             .... ......o+@@+OoXX..... ++",
"@+ .    .  .   ..+#@oX.     .         ..... ...o@+@@+OooooXXOO+@",
"+@..         .  .X##XX       ..      .  ... . .X++#@@@@+++OOO++@",
"++. .         .  X@#X.  ..  ..         ..  ..  X+@#@@@++OOOO++@@",
"@+X..  ..  ..... .@+X..  ...     ..       .    +@#@@++@@@++@@+@@",
"@+X.    ..  . ....@@+X..... ..    ..       .  .+##@++@@@++OO+@@+",
"@@OX..         ..X###@XX.....  .X.....    ....X##@+@@O++OOO+@@++",
"@@OoX...      . X+@###+OXX..XX...XX.... ..  ..@##@@@++OOOO+++@++",
"+@+OooX.....   X+@##+@@+++oXX..XXX. .      ..X##@OXXXXXX.XOO++@+",
"+@++OOoooXX..X++@#@+@@+OO++OoXXXX...     ...X@#@OXX.......XOO+++",
"@+++++@++OO+++@@@@.XXoooOO++++OooXXX.......XO+OOX...  ... .X+O++",
"+@@++++@@+OO+@#@.XXXXXXXooOO+OO++OoooX..XXO++OX... ..  .  .X+@++",
"++@@+OO+@@+++#@.XXXX..XoXoXoOOOO+++O++O+@@+OX... .       . .++@+",
"++++@@OO+O++##+XXX......XX...XOOO+++OO+@@+OX.  ..          XO+@@",
"X.XX.O+OO++@#@.XX.....  ....  ..OO+OO++++O.  ......       .XO@@+",
"....XXO+O++@#@..XX.    ....  .X. OOO+++@+...  .  .      . X.+@+X",
"  ...XXOOO++@@ .....  ...X... .X. O++@+@O.X.....  ..    ..X+@@X.",
".. ...XO+O++@+. ..    .XXX... .XX.O++@@@.X. .    ..    ..XX+@+. ",
".   ..XX++O@++.      ...X... ...X..+++@@XX  ..       ....X+@+X..",
"... .. X@+@+@+..     .XX...  . .XX.O++@@X. .     .    . XX@@O...",
" ... . .@@#++@X..   ....    .  .XX..O++@. .    ..   .  .X+@#X ..",
".  .  . +@#@++X .   ...    .. ..XX .+++@...   ..   . ..X.+##X. .",
"..    ..X+@#@+O. .   .... .  ..XX.. O@++X.   .   .....X.@@##..  ",
"  .   ...++#@@OX .     ...  ..X.... O@@+XX  ...   .   ..@@#@.   ",
"     ...XX@+##@+..             ...  ++@+OX.  . ..    ..+@#+@  ..",
"..  ..XXX..++##@X.. .   .     . .   +++++oX.....    ..X@@#+@ ...",
"....XX..  ..XOO++..  .   ...       .+O+++OX ..   . . X+@#@++X.  ",
" .XXX....  ...XO+X..      . ..     .OO@+++o.  .   .XoO@##@@+XX. ",
"XOOX..   ...  .X+@....       ..  . XO+@@++OX. ..XXooO+##@@@@OX..",
"O+OOXX.   ...  X@@X..  .         ..XO+@#@@+OXoooooO++@##@@+@+OXo",
"@+O+XXX.     ...@+@XX..  ..     ..XO+++@##@+++OOO++@@##@+@++@+@@",
"@@++X..     .. .++@@XXXX..    ..XXXO++++@###@++++@@@##@@@+OO+++@",
"O+@@+X.  ..   .X+@#@+X..XX...XXXXXO++O+O++####@+++@##@+OXX..XXX.",
".X+@@XX.  ... .X++#@@+X..XXXX..XXO++OOO++@+@###@@@@##+OX......XX",
"XXXO+@XX.  . .XO+@@#@@++XXXX..XXO++OOXooooXX+@##@@##@+X..   ....",
"..Xo@++OX.  .XO@@+@###@@+OX.XXO+@OOXoooXXXooX++@@@#@+O.... .  ..",
"...Xo+++OO++OO++@@@@###@@@+@++@@OXooXX....XXoX++@#@@O+.X ..XX.  ",
" ..XXO@++++OO+++++@@@@##@+++@@@+XoX......XX.XoO@@@@+OO.X. XX... ",
"  ..Xo+@@+O+.XooooooO+@@##@++@+X.X....  .....oo+@@@++O..X....   ",
"  .X.o@@@@+XX...XXooooO@@@@@@@O......     ...XoO@+@@+OX.....    ",
"   ..X@@+@X.XX......XXooO@@@@+X. ......    ...Xo@@+@@+O.. .   ..",
"   ..X+@++..... .  ....XoO@@+O. .. ..       ..Xo+@++@+OX..  ... ",
"    ..+@+.X. ...  ..  ..X.@#+@X.X.  ..   ..  ..o+O+@@@+OX....   ",
"    . ++OX..  .     .  ..X+@++XX...     ..    .XO+++@@@+XX....  ",
"..   .O+.X.  ..      .. .X.+@+oX...       ... .XO+O+@@@+OX. .   ",
" .....O@X.    ..      ...XXO@@o.. ..        ...oOOO++@@@+XX.    ",
"   ..X+@X ..      .    ...X.+@o. ....         .oOO+++@@@@+X..XX.",
"..  XX+@X..     ...    ....X++oX  .  ..       XOO+++@@++@@+XXX..",
"..XXoO@+o..  .....    .. ..X+@OX. ..  ...  . .o+++@@+OOO+@@+oXX.",
"ooooO+@@oX..  ...  .  .X  ..+@Oo..     .    .X++@@@+++OOO++@+OoX",
"OO++@@@@+oX..XX. ..  .X.  ..@@+oX..  ..   .XXO+@+O..XXXX..O++@+O",
"@++@$$@@@+.XXX....  .XXX. ..@@@+oX...    .ooO+@@O..XX...XXX.O+@@",
"@@@@@@$$$@++XXX.....XX.. ..O+@@@+oX.   ..XOO+@#@..X... ...XX.O+@",
"@@@@@@@$$$@++OoXX..  .  .X.++@#@@@+X..XXO++@@##@.X...  . ...X.O+",
"+@@+@@++@@$$@+++ooX.  .XX.+@##@@++OO++@####@@#@+XX. ..  .....X.+",
"+@+@@++++@@$$$@+OOooXXX.+@###@+O+OOOOOO+@@###@++X...   .  ...XXO",
"@@++OOoooo++@$$@@+OO++++OO@+XXX..Xoo+OOO++@@##+OX.   ..     ..X ",
"@+O+oooXX.XX++@$@@O++@OOO+X.......XX.XXoo++@@#@OX..   ..   ...X.",
"+OOoX... .  X@@@$@+@@++OX... ...XXX.X..XXXoo@@#+O.  ..   ......X",
"+O+X..  ...  .@@$$@@++OX..  .....XXX..XXXXXXo@##+X.....   .. ..X",
"OOo..  ...... XO@$@@@OX..  .. ..  . .XXX...XXo+#@+.   ...  .   .",
"O+o..... ...  .O@$@@+o..  ....  .  .X.......XXo@@@X.    ..    ..",
"O+X. . .  .   .X@@+@OX..  ..   ...  ...  ..X.Xo+@@+X.        ..+",
"++X  ..      . .+@++o..    ..   ......  ......Xo@@@+oX.    ... O",
"+O.   ..    ..  X+@+oX.             .... ......o+@@@OoXX..... ++",
"+O .    .  .   ..O@+oX.     .         ..... ...o++@@+OooooXX++@+",
"O+..         .  .X++XX       ..      .  ... . .XO+@@@@+OOO++@@++",
"O+. .         .  X+OX.  ..  ..         ..  ..  XO++@@++++@@@@++O",
"++X..  ..  ..... .OOX..  ...     ..       .    +O++@+@@###@@++OO",
"++X.    ..  . ....+OOX..... ..    ..       .  .O++@+++@@####@@++",
"++OX..         ..X+++OXX.....  .X.....    ....XO++++++OO+@@@##@+",
"@++oX...      . XO++++OOXX..XX...XX.... ..  ..OO+OO+OOOOOO+@@###",
"@@+OooX.....   XO++OO++@@+oXX..XXX. .      ..XO+OOXXXXXX.XO+@@@#",
"#@+++OoooXX..XO++OO+OO++@@+OoXXXX...     ...XO++OXX.......XO@+@@",
"##@@+++++OOOO+++OO.XXooo++@@@++ooXXX.......X+++OX...  ... .X++@@",
"@#@@@@+OO++OOO+O.XXXXXXXoo+@##@@OOoooX..XXO+OOX... ..  .  .X@++@",
"@@++@@@++++OOOO.XXXX..XoXoXo+@##++++OO++@@+OX... .       . .@+++",
"@@@++++@++++OOOXXX......XX...X@###@++++@@+OX.  ..          X++@+",
"X.XX.O+++@++OO.XX.....  ....  ..@###@++++O.  ......       .X+@++",
"....XXO++@@+OO..XX.    ....  .X. @###@@@+...  .  .      . X.@@+X",
"  ...XX++@@++O .....  ...X... .X. +@##@+O.X.....  ..    ..X+@+X.",
".. ...XO++@@+O. ..    .XXX... .XX.O+##++.X. .    ..    ..XX@@+. ",
".   ..XX++@@++.      ...X... ...X..+#@+OXX  ..       ....X+@@X..",
"... .. X++@+++..     .XX...  . .XX.O@++OX. .     .    . XX@@+...",
" ... . .O++@++X..   ....    .  .XX..+@+O. .    ..   .  .X+@@X ..",
".  .  . O++++OX .   ...    .. ..XX .O@@O...   ..   . ..X.@@+X. .",
"..    ..X++++OO. .   .... .  ..XX.. O@@+X.   .   .....X.O@@+..  ",
"  .   ...O++OOOX .     ...  ..X.... ++@+XX  ...   .   ..+@@O.   ",
"     ...XXOOO++O..             ...  +O++OX.  . ..    ..O@@+O  ..",
"..  ..XXX..OOO++X.. .   .     . .   OO+@+oX.....    ..X+@@OO ...",
"....XX..  ..XOOO+..  .   ...       .OO+@+OX ..   . . X++@@OOX.  ",
" .XXX....  ...X+OX..      . ..     .O+@@++o.  .   .XoO+@@@OOXX. ",
"XOOX..   ...  .X++....       ..  . X++@@@+OX. ..XXoo++@@#@+OOX..",
"O+OOXX.   ...  X@+X..  .         ..X+@@+@@+OXoooooOO+@##@+++OOXo",
"@+OOXXX.     ...@@OXX..  ..     ..XO+@@++@#@++OOOO+@###@+OOOO++@",
"@@+OX..     .. .@@+OXXXX..    ..XXX+@@++@@@##@@++@####@+++OOOO++",
"++@++X.  ..   .X+@@++X..XX...XXXXXO@++OO++@@########@@+OXX..XXX.",
".X@@+XX.  ... .X+@#@++X..XXXX..XXO+++OOOOO+++@#####@@+OX......XX",
"XXX@@+XX.  . .XOO+@##@@+XXXX..XX+@@+OXooooXXO+@@##@@@+X..   ....",
"..Xo+@OOX.  .XOO+++@##@@+OX.XX++@@+XoooXXXooXO+@@#@@@+.... .  ..",
"...Xo+@++++OOO+++++++@###@++@@##+XooXX....XXoX++@##+@@.X ..XX.  ",
" ..XX@#@@++++@@+OOOO++@###@@###@XoX......XX.XoO++##++@.X. XX... ",
"  ..Xo##@@@@.XooooooOOO+@@@##@@X.X....  .....ooO+@#@++..X....   ",
"  .X.o@###@XX...XXooooOO+@@##@+......     ...XoOO+@#++X.....    ",
"   ..X@@@+X.XX......XXoo+@##@@X. ......    ...XoO++#@+O.. .   ..",
"   ..X@@+O..... .  ....Xo+##@+. .. ..       ..XoO++@#@OX..  ... ",
"    ..+++.X. ...  ..  ..X.++@+X.X.  ..   ..  ..oOO+@#@++X....   ",
"    . @+OX..  .     .  ..X++++XX...     ..    .XOO+@#++OXX....  ",
"..   .@@.X.  ..      .. .X.O@@oX...       ... .XO+@#@++O+X. .   ",
" .....@@X.    ..      ...XXO@@o.. ..        ...o++##@@++OXX.    ",
"   ..X+@X ..      .    ...X.##o. ....         .o+@#@@+@+OOX..XX.",
"..  XX+@X..     ...    ....X##oX  .  ..       X+@#@+++OOOOOXXX..",
"..XXo+@@o..  .....    .. ..X@#+X. ..  ...  . .o@@#++OO++OOOOoXX.",
"oooo+@$@oX..  ...  .  .X  ..@#@o..     .    .X+@#@+++OO+++OOOOoX",
"OO++@@$$+oX..XX. ..  .X.  ..@@#oX..  ..   .XX+@@@+..XXXX..+O+++O",
"+++@@$$$@+.XXX....  .XXX. ..+@##oX...    .oo+@@#+..XX...XXX.O+@@",
"+@@@$$$$$@@+XXX.....XX.. ..O++@#+oX.   ..X++@##@..X... ...XX.O++",
"@@$$$$$@@@@@++oXX..  .  .X.O+@@#@++X..XX++@###++.X...  . ...X.+@",
"@$$$@@@+++@$$#+OooX.  .XX.++OO+@#@##@++@@##@@++OXX. ..  .....X.+",
"$@@@@++++@@@$$#++OooXXX.+OO++OO+@@@###@@@@@@++O+X...   .  ...XX@",
"@@@+OOoooo+++@##@++OO+++OOOOXXX..Xoo+@@@+OO+@+OOX.   ..     ..X ",
"@@+OoooXX.XX++@@#@+++++OO+X.......XX.XXoo+OO+++OX..   ..   ...X.",
"+@+oX... .  XO+@@+O++OOOX... ...XXX.X..XXXooOO++O.  ..   ......X",
"++OX..  ...  .O+++OO++OX..  .....XXX..XXXXXXoO++OX.....   .. ..X",
"+@o..  ...... X++OOOOOX..  .. ..  . .XXX...XXoO++O.   ...  .   .",
"+@o..... ...  .O+OOOOo..  ....  .  .X.......XXoO++X.    ..    ..",
"+#X. . .  .   .XOOOOOX..  ..   ...  ...  ..X.XoOO+OX.        ..+",
"@#X  ..      . .O+OOo..    ..   ......  ......XoO++OoX.    ... +",
"##.   ..    ..  X+OOoX.             .... ......oO+@+OoXX..... +@",
"#@ .    .  .   ..++OoX.     .         ..... ...oO+@+++ooooXXOO@@",
"@@..         .  .X++XX       ..      .  ... . .X+@#@++++OOOO++@+",
"@+. .         .  X++X.  ..  ..         ..  ..  X@@#@@@++++OOO@++",
"++X..  ..  ..... .@+X..  ...     ..       .    +@#@+++@@+++++++@",
"++X.    ..  . ....@@OX..... ..    ..       .  .+##@@@++++++++++@",
"O++X..         ..X@@+OXX.....  .X.....    ....X@#@@@+OOO++++O+@@",
"OO+oX...      . XO+@@@++XX..XX...XX.... ..  ..+##@++++OOOOO+O+@+",
"OOOOooX.....   XO+++++@@@+oXX..XXX. .      ..X@#@+XXXXXX.XOO++++",
"+OO+OOoooXX..XO+++OOO++@@@+OoXXXX...     ...X+#@+XX.......XO+@++",
"+OO+++@+OO++OO++OO.XXooo++@@+OOooXXX.......X@#@OX...  ... .X+@@+",
"++O++++@+++OO++O.XXXXXXXoo+@@+OOO+oooX..XX@@@OX... ..  .  .X+@@+",
"+++O++++@++++@O.XXXX..XoXoXoOO++OO+++++++@++X... .       . .++@@",
"@@++OO++@@++@+OXXX......XX...XO++OOO++OO++OX.  ..          X++@@",
"X.XX.OO++@@@@+.XX.....  ....  ..OOOOOO+++O.  ......       .X+@++",
"....XXO++@@@+O..XX.    ....  .X. OOOO++++...  .  .      . X.@@+X",
"  ...XXO++@++O .....  ...X... .X. OO+++@O.X.....  ..    ..X+@+X.",
".. ...XOO+#@+O. ..    .XXX... .XX.+O++@+.X. .    ..    ..XX@#+. ",
".   ..XXO+##++.      ...X... ...X..++@@+XX  ..       ....X+#@X..",
"... .. X+@##++..     .XX...  . .XX.++@++X. .     .    . XX@#O...",
" ... . .O@@#@+X..   ....    .  .XX..@@+O. .    ..   .  .X+@@X ..",
".  .  . O+@##+X .   ...    .. ..XX .@@+O...   ..   . ..X.@#@X. .",
"..    ..X+@@#@O. .   .... .  ..XX.. @#++X.   .   .....X.+@#+..  ",
"  .   ...O@@##+X .     ...  ..X.... +#@+XX  ...   .   ..@##+.   ",
"     ...XX+@@#@+..             ...  +@@+OX.  . ..    ..O@#@+  ..",
"..  ..XXX..+@@#@X.. .   .     . .   +@#@OoX.....    ..X+##++ ...",
"....XX..  ..X+@@@..  .   ...       .+@##+OX ..   . . X+@#@+OX.  ",
" .XXX....  ...X@+X..      . ..     .++##++o.  .   .XoO@@#@+OXX. ",
"XOOX..   ...  .X@+....       ..  . X++@#++OX. ..XXooO+@#@@@+OX..",
"OO+OXX.   ...  X@+X..  .         ..X+@@@@++OXoooooOO+@@#@@++++Xo",
"OO+OXXX.     ...@++XX..  ..     ..XO@@##@@+++OOOOO+++@#@@+OO+++O",
"+O@+X..     .. .+@+OXXXX..    ..XXX+######@@++OO++++@##@+++OOO++",
"++@++X.  ..   .X+@++OX..XX...XXXXX@###@@+@@@@@++++@@@#@+XX..XXX.",
".X+@+XX.  ... .X+@@+++X..XXXX..XX+##@@++OO+++@@++@@@##+X......XX",
"XXX@@+XX.  . .X+OO@@@++OXXXX..XX+@@OOXooooXXO++@+O+@#@X..   ....",
"..Xo@@+OX.  .XOOO++@@@@+OOX.XX+@@+OXoooXXXooXO+++OO+@@.... .  ..",
"...Xo@@@@@@++OO+++++@@@@++O+++@@OXooXX....XXoXO+++OO@+.X ..XX.  ",
" ..XXO@@@@@@++++++OOO+@@@@+++@@+XoX......XX.XoOO++OO++.X. XX... ",
"  ..Xo@@@@++.XooooooOO++@@@+@@@X.X....  .....ooO++O+++..X....   ",
"  .X.o@@@+OXX...XXooooO+++@@@@+......     ...XoOO+O++OX.....    ",
"   ..X+@+OX.XX......XXooOO+@@@X. ......    ...XoO+++@OO.. .   ..",
"   ..X+@+O..... .  ....XoO++@@. .. ..       ..XoOO+@@+OX..  ... "
};
