/* XPM */
static const char *mangrove_log_top[] = {
/* columns rows colors chars-per-pixel */
"64 64 10 1 ",
"  c #3C2F23",
". c #5D1C1E",
"X c #443522",
"o c #4E3F27",
"O c #642423",
"+ c #6F2A2D",
"@ c #773934",
"# c #5A482C",
"$ c #7F4234",
"% c #675230",
/* pixels */
"##%%%%##oooo####ooXXXXooXXooooooXXooXX  XXXXooooXXXXooo###oooo##",
"#%%%%%%%####ooo###ooo###ooooXXoooooXXXXXoooooooooo###########oo#",
"#%%%%####ooooo#########ooXXooXXXooooooXXXoo###o#############oooo",
"#%%#######ooXXXXXXooooXX    XXXXXXXX      Xo#oXXo###oooo#oo###oo",
"##%#$$$$$$@@@$$$$$@+++@@$$@@@@+O++@@++++++++@@@+@@@@$$@@@$$@###o",
"o###$@@+++++++++++++++++++++++OOO+++++++OOOO+++++++@@+++++@$o###",
"o%#o$@+@@+++OOOO+++@@@+OO++@@+@++++++OO++++@@++++@@++++++@+$o##o",
"o%%o$@@++OO+++OOOO+++OOO++++++++++OOOO++++++++++++OOOOOO+@+$###o",
"#%%#$+@+................O..OOO..OO......OO....OO.O......+++$##%#",
"#%%#$++O.............OOOOOOOOOOOOOOOOOOOOOOOOOOOOOOO....+++$#%%#",
"##%#@++O..$$$$$$$$$@$$@@@$$$$$$$$@+@@@+@++@@$$$$$$$$$$..O++$o%#o",
"o###++@O..$@@@@++++++++++++++++++++++++++++++++@@++@@$..O++$o%#o",
"o###@+++..$@@+++++++OOOO++++OO++++++++++++++++++++@@@$..+++@o###",
"###o@+@+..$@+O++OO++++OOOO+++++OOOO++++++++++OOOO+++@$O.+O+@o#%#",
"##%o@O@+..$+++++++++++++@@@@+++++@@@@@+@@++++++OOOO++@O.OO++##%#",
"o#%#@O++..$+++O+++++++++++++++++++++++++OO++++OO++OO+@O.OO++o#%#",
"o###+O+O..$@+OO+......O.....OO..OOOOO..O........O++O++O.O+++o%%#",
"oo##+++O..@@+O++...OOOOOOOOOOOOOOOOOOOOOOOOO....O+++++O.O@++o%%#",
"oo%#@+++..@@+O++..+@$$$$$$$$@@@@@@@@++++++@@+O..+++++@O.+@+@#%##",
"oo%#@+++..@++O@+..@@@+++++++++++++++++OO++++@+..+++O+@O.+@+@#%##",
"o#%#++@+..++++@+..@@+OO++++OOO+++++++++OO+++++O.O++O+@O.+++@###o",
"##%#++@+..@++@++..@+O+++++++++++OOO+OO+++++++@O.O++++@O.+++@###o",
"#%%#@+@O..@O+@++..$+O@OOOOOO..OO........OO+++@O.O++++@OO+++@o##o",
"#%%o$+@+..+O+@++..@++@OOOOOOOOOOOO.......O+++@O.O++++@OOO++@o###",
"#%#o$++O..@++++O..$++@OO+@@+@@@@++++++++O.+++@O.+++O++O.O+++###%",
"#%#o$@+O..@++@+O..$+++OO++++++++++OO+OO+O.+O+@O.+++O++O.O+++###%",
"#%##@@++..$++@++..@+++OO++....OOOO....O+OO+OO+O.++@+++OO+++O#%#%",
"#%%#@+++.O$++@++..@+@+OO++.OOOOOOOOO..++O.+OO+O.++@O++O.++@O#%#%",
"#%%o+++O..$+@@++..@+@+OO++OO+++++@@+O.+@OO++O+OO++@++@OO++@O#%%#",
"#%#o+O+O.O$+@@++..@+++.O++OO+++++++@O.+@OO++O+OO+@@++@OO+O@Oo%%#",
"###o@O+O.O$+@@++..++++OO++.O++O.OO+@O.+@OO++O+O.+@@+++OO+O++o%%o",
"o##o@O+OOO$++@+O..++++.O++.O++.OO.+@O.+@OO++++O.+@@+++OO+O++o%%o",
"o%##@+@OOO$++@+O..@++O.O@+.O@+..O.++OO++OO+++@OO+@+O+@O.+++Oo%#o",
"o%##@++OOO@+O++O..@++O.O++.O@+O..O++OO++O.++O@OO+++O+@O.O++O#%##",
"#%%#@+@O.O++O++O..@+++.O@+OO@+++++++OO+@O.++O+O.++@O+$O.O+++o##o",
"#%%#@+@+.O++O+++..@+++.O@+OO+@@@@+@+OO+@OO++O+OO++@++$O.O+O+###o",
"o#%#@+@+.O@+O+++..++++.O++OOOOOOOOOOOO++O.++++O.+++++$O.OOO+###o",
"o#%o@+++..@+++++.O@+++.O++OOOOOO...OOO++O.O+++O.+++++$O.OOO+##o#",
"o##o++O+..@+O+++.O@+++OO++++++++++++++++O.O++@O.+++++@O.O+O+o#o%",
"###o++O+..@+O@++..@+++OO+++++++OOOOO+O++..+++@O.++@++@O.+@O+o##%",
"#%#o++OO..@++@++.O@+++OOOOOO..............O++@+O++@O++O.O@++#%#%",
"#%#o++OO..@++@++.O@+++O..O................O++@+O++@O++..O@++#%#%",
"#%%#++OO..++@@++.O++O++++++OOO+OOO+++++OOO+++@+++++O++..+@+@o%##",
"#%%#+++O.O++@+++.O@++OO++OOOO+++++++++OOO++++@+O+++O++..+++@o%%#",
"#%%o++++.O@+@++O.O@++++++++++++++++++++++++++@OO+++O+@..O+++o%%o",
"##%o+O++.O@++@+O.O+@++@@++++++@@++@@@@@@@@@@@@OO++@O+@..O++@#%%o",
"o##o+O++OO@+++++..OO.............OOOOOOOOOOOOOOO++@++$..+++@#%%o",
"o##o+O@+OO@+O+@+......................OO..O.OOOO+@@++$..+++$o%#o",
"oo#o++@+OO$+OO@+++++OOOO++++++++++OO+++++++++++++@+O+@O.O++$o##o",
"oooo++@+OO$+OO++++++++@@@++++@@@@+++++++++@++@@@++OO+@O.O+@$###o",
"oo#o+++O.O$++OO+OOO+@@@+OOO+@@@+++@@@++++++@@@++++OO+@OOO+@@#%##",
"#o##+O+O.O$+++++++++++OOO+++++OOOOO++++OO+++++OO+OO++@OOO+@$#%##",
"###o@O++.O$@+++++++++++++++++++++++++++++++++++++++++@O.O++@#%%#",
"o##o@O+O..$$$$$@++@@@@$$$$$$$$$$@@@@@@@@$$@@$$$$$$@@@@O.+++@o%%o",
"o##o@++O....OOOOOOOOOOOOOOOOOOOOOOOO............OOOOO...+++$o#%o",
"###o@+++........OO..OOOO.O....OO........................+O+$o#%o",
"o##o@+OO+OOO++OO++++++++++OO++OOOO++++O+OOOOOOOO++OOOO+++O+$##%#",
"o##o@++OO++@@++OOOO++@++@@+++++++OOO+@@@@@+++++@@@+++++OO+@$####",
"o#%#@@++++++++++++++++OOO++@@@+++++++++++++++OOO++++++++@@@$o##o",
"o%%#@@@@@@@@++@@+@@@@@@@++++@$$$$$$$$$@@@@+@@@++@@$$$$$$$$$$o##o",
"o%%#####oooo####ooXXXXooooXXXX  XXooooXXXX    XXooXXXXoo###o##%#",
"o#%#######oooo####ooooo###oooXXoo#####oooXXXXoooo#####%%%%%###%#",
"o##%%##%%%%######ooo####ooooXXXXXooo####oooo####%%#%%%%%%######o",
"#oo#oooooo####oooo##oo####oX      XXooXXXoXXoo####oo#####ooo##o#"
};
