/* XPM */
static const char *medium_amethyst_bud[] = {
/* columns rows colors chars-per-pixel */
"64 64 7 1 ",
"  c #64479E",
". c #7A5BB5",
"X c #8D6ACC",
"o c #B38EF3",
"O c #CFA0F3",
"+ c #FECBE6",
"@ c None",
/* pixels */
"@@@@@@@@@@@@@@@@@@@@@@@@@@@@@@@@@@@@@@@@@@@@@@@@@@@@@@@@@@@@@@@@",
"@@@@@@@@@@@@@@@@@@@@@@@@@@@@@@@@@@@@@@@@@@@@@@@@@@@@@@@@@@@@@@@@",
"@@@@@@@@@@@@@@@@@@@@@@@@@@@@@@@@@@@@@@@@@@@@@@@@@@@@@@@@@@@@@@@@",
"@@@@@@@@@@@@@@@@@@@@@@@@@@@@@@@@@@@@@@@@@@@@@@@@@@@@@@@@@@@@@@@@",
"@@@@@@@@@@@@@@@@@@@@@@@@@@@@@@@@@@@@@@@@@@@@@@@@@@@@@@@@@@@@@@@@",
"@@@@@@@@@@@@@@@@@@@@@@@@@@@@@@@@@@@@@@@@@@@@@@@@@@@@@@@@@@@@@@@@",
"@@@@@@@@@@@@@@@@@@@@@@@@@@@@@@@@@@@@@@@@@@@@@@@@@@@@@@@@@@@@@@@@",
"@@@@@@@@@@@@@@@@@@@@@@@@@@@@@@@@@@@@@@@@@@@@@@@@@@@@@@@@@@@@@@@@",
"@@@@@@@@@@@@@@@@@@@@@@@@@@@@@@@@@@@@@@@@@@@@@@@@@@@@@@@@@@@@@@@@",
"@@@@@@@@@@@@@@@@@@@@@@@@@@@@@@@@@@@@@@@@@@@@@@@@@@@@@@@@@@@@@@@@",
"@@@@@@@@@@@@@@@@@@@@@@@@@@@@@@@@@@@@@@@@@@@@@@@@@@@@@@@@@@@@@@@@",
"@@@@@@@@@@@@@@@@@@@@@@@@@@@@@@@@@@@@@@@@@@@@@@@@@@@@@@@@@@@@@@@@",
"@@@@@@@@@@@@@@@@@@@@@@@@@@@@@@@@@@@@@@@@@@@@@@@@@@@@@@@@@@@@@@@@",
"@@@@@@@@@@@@@@@@@@@@@@@@@@@@@@@@@@@@@@@@@@@@@@@@@@@@@@@@@@@@@@@@",
"@@@@@@@@@@@@@@@@@@@@@@@@@@@@@@@@@@@@@@@@@@@@@@@@@@@@@@@@@@@@@@@@",
"@@@@@@@@@@@@@@@@@@@@@@@@@@@@@@@@@@@@@@@@@@@@@@@@@@@@@@@@@@@@@@@@",
"@@@@@@@@@@@@@@@@@@@@@@@@@@@@@@@@@@@@@@@@@@@@@@@@@@@@@@@@@@@@@@@@",
"@@@@@@@@@@@@@@@@@@@@@@@@@@@@@@@@@@@@@@@@@@@@@@@@@@@@@@@@@@@@@@@@",
"@@@@@@@@@@@@@@@@@@@@@@@@@@@@@@@@@@@@@@@@@@@@@@@@@@@@@@@@@@@@@@@@",
"@@@@@@@@@@@@@@@@@@@@@@@@@@@@@@@@@@@@@@@@@@@@@@@@@@@@@@@@@@@@@@@@",
"@@@@@@@@@@@@@@@@@@@@@@@@@@@@@@@@@@@@@@@@@@@@@@@@@@@@@@@@@@@@@@@@",
"@@@@@@@@@@@@@@@@@@@@@@@@@@@@@@@@@@@@@@@@@@@@@@@@@@@@@@@@@@@@@@@@",
"@@@@@@@@@@@@@@@@@@@@@@@@@@@@@@@@@@@@@@@@@@@@@@@@@@@@@@@@@@@@@@@@",
"@@@@@@@@@@@@@@@@@@@@@@@@@@@@@@@@@@@@@@@@@@@@@@@@@@@@@@@@@@@@@@@@",
"@@@@@@@@@@@@@@@@@@@@@@@@@@@@@@@@@@@@@@@@@@@@@@@@@@@@@@@@@@@@@@@@",
"@@@@@@@@@@@@@@@@@@@@@@@@@@@@@@@@@@@@@@@@@@@@@@@@@@@@@@@@@@@@@@@@",
"@@@@@@@@@@@@@@@@@@@@@@@@@@@@@@@@@@@@@@@@@@@@@@@@@@@@@@@@@@@@@@@@",
"@@@@@@@@@@@@@@@@@@@@@@@@@@@@@@@@@@@@@@@@@@@@@@@@@@@@@@@@@@@@@@@@",
"@@@@@@@@@@@@@@@@@@@@@@@@@@@@@@@@@@@@@@@@@@@@@@@@@@@@@@@@@@@@@@@@",
"@@@@@@@@@@@@@@@@@@@@@@@@@@@@@@@@@@@@@@@@@@@@@@@@@@@@@@@@@@@@@@@@",
"@@@@@@@@@@@@@@@@@@@@@@@@@@@@@@@@@@@@@@@@@@@@@@@@@@@@@@@@@@@@@@@@",
"@@@@@@@@@@@@@@@@@@@@@@@@@@@@@@@@@@@@@@@@@@@@@@@@@@@@@@@@@@@@@@@@",
"@@@@@@@@@@@@@@@@@@@@@@@@@@@@@@@@@@@@@@@@@@@@@@@@@@@@@@@@@@@@@@@@",
"@@@@@@@@@@@@@@@@@@@@@@@@@@@@@@@@@@@@@@@@@@@@@@@@@@@@@@@@@@@@@@@@",
"@@@@@@@@@@@@@@@@@@@@@@@@@@@@@@@@@@@@@@@@@@@@@@@@@@@@@@@@@@@@@@@@",
"@@@@@@@@@@@@@@@@@@@@@@@@@@@@@@@@@@@@@@@@@@@@@@@@@@@@@@@@@@@@@@@@",
"@@@@@@@@@@@@@@@@@@@@@@@@@@@@@@@@@@@@@@@@@@@@@@@@@@@@@@@@@@@@@@@@",
"@@@@@@@@@@@@@@@@@@@@@@@@@@@@@@@@@@@@@@@@@@@@@@@@@@@@@@@@@@@@@@@@",
"@@@@@@@@@@@@@@@@@@@@@@@@@@@@@@@OO@@@@@@@@@@@@@@@@@@@@@@@@@@@@@@@",
"@@@@@@@@@@@@@@@@@@@@@@@@@@@@@@O+oo@@@@@@@@@@@@@@@@@@@@@@@@@@@@@@",
"@@@@@@@@@@@@@@@@@@@@@@@@@@@@@OO+oXo@@@@@@@@@@@@@@@@@@@@@@@@@@@@@",
"@@@@@@@@@@@@@@@@@@@@@@@@@@@@OOO+oXXo@@@@@@@@@@@@@@@@@@@@@@@@@@@@",
"@@@@@@@@@@@@@@@@@@@@@@@@@@@OOOO+oXXXO@@@@@@@@@@@@@@@@@@@@@@@@@@@",
"@@@@@@@@@@@@@@@@@@@@@@@@@@O+OOO+oXXXXO@@@@@@@@@@@@@@@@@@@@@@@@@@",
"@@@@@@@@@@@@+OOOOOo@@@@@@@XO++O+oXXooX@@@@@@@oOOOOO+@@@@@@@@@@@@",
"@@@@@@@@@@@@O+ooooOX@@@@@@XXXO++OOoX..@@@@@@XOoooo+O@@@@@@@@@@@@",
"@@@@@@@@@@@@Oo+oooO.X@@@@@XXXXXOXXX...@@@@@X.Oooo+oO@@@@@@@@@@@@",
"@@@@@@@@@@@@OXo+ooOX.X@@@@XXX..OXX....@@@@X.XOoo+oXO@@@@@@@@@@@@",
"@@@@@@@@@@@@OXXo+oOX..X@@@X....OXX... @@@X..XOo+oXXO@@@@@@@@@@@@",
"@@@@@@@@@@@@OXXXo+O....X@@...X.OX... .@@X....O+oXXXO@@@@@@@@@@@@",
"@@@@@@@@@@@@oooooo+X....X@...X.oX... .@X....X+oooooo@@@@@@@@@@@@",
"@@@@@@@@@@@@..XX..X+X..XXX. ...oX..  .XXX..X+X..XX..@@@@@@@@@@@@",
"@@@@@@@@@@@@X......XOX...XX. ..Xo.. ..X...XOX......X@@@@@@@@@@@@",
"@@@@@@@@@@@@@X..X...XOX....X ...o.  .....XOX...X..X@@@@@@@@@@@@@",
"@@@@@@@@@@@@@@X..XX..XoX....  ..o   ....XoX..XX..X@@@@@@@@@@@@@@",
"@@@@@@@@@@@@@@@X..XX..Xo....  ..o    ...oX..XX..X@@@@@@@@@@@@@@@",
"@@@@@@@@@@@@@@@@X..  ...X..    .X    ..X...  ..X@@@@@@@@@@@@@@@@",
"@@@@@@@@@@@@@@@@@X..  ...X      X     X...  ..X@@@@@@@@@@@@@@@@@",
"@@@@@@@@@@@@@@@@@@X....   .     X    .   ....X@@@@@@@@@@@@@@@@@@",
"@@@@@@@@@@@@@@@@@@@X....   .    X   .   ....X@@@@@@@@@@@@@@@@@@@",
"@@@@@@@@@@@@@@@@@@X.X.....      X     .....X.X@@@@@@@@@@@@@@@@@@",
"@@@@@@@@@@@@@@@@@X.....         X.       .....X@@@@@@@@@@@@@@@@@",
"@@@@@@@@@@@@@@@@@....          .o.         ....@@@@@@@@@@@@@@@@@",
"@@@@@@@@@@@@@@@@.             .Xo..            .@@@@@@@@@@@@@@@@"
};
