/* XPM */
static const char *moss_block[] = {
/* columns rows colors chars-per-pixel */
"64 64 6 1 ",
"  c #495E27",
". c #42552D",
"X c #50692C",
"o c #647233",
"O c #70922D",
"+ c #6C8031",
/* pixels */
"ooX XooXX  X X XooXXXXooX  XooX XXoXooXoXXXoXooXXX  XXXXooX XooO",
"oo  oX+o  XXX  XXooXXooX  XXoXX  XXoXooXXXooooXoXX  XXoXoX  oo++",
"XX Xo+o+oX...    XooOo++Xo XXX   XooXXXXooXXXX XX  XXoXoXXXo+o++",
"oXXo+++oXX  X... XX oOOoXooXX ..  XX  XXX+oXXXX  XXXXXXoXXooo++o",
"oo XooX    XX X.. XX XXXoooOOO X.   Xoo++++oX XoooXXX XXoXooXoXX",
"Xo  XX   XX XX.  .oX  XooXOOooX .. XoX+oXXoo XXXoXooX XX+ooooXXX",
" XX  .XXoooXX  XXXXoX oXXOoXo X  .X XooX  XX o+ooooooX X++ooooX ",
"XoX . o+++ooXX  XoXoo XXXoXoXX X.  XXX . XX X+o++oXoXX  oO+oo+  ",
"   . X++oo+oooX o++oXX    XXooXoXX    ..XXoooo++XXoooo  XoOO+ooX",
"X  .XooooXoooX X++oXXXXX    XooXXXX   . X Xo++ooX  XoX.. Xo+OOoo",
"XX..XoXoooXXoooXX ..  XoXXoX XX  X   .   XXXXXo  XXX    ..  ooXX",
"X . XXoooXXXXXoo .. XooXXooX  XX  XX .  XXXX  XoXXXXXX   ... XXX",
" .  X XoooooX   XooOOO++ooooX XXoo  ..X X   XXXXoXooooXX  XXX  .",
".. X  XoXooX  .Xo+OO+++oooXoX ooXX  . XX   XXXXXXo+ooXoooXXX    ",
" .   X XoXX  .Xo+OoXoooo+oXX ooooXX  XXXXooXXoXo++oo+++oXXX XXX ",
" .. XX  XoXX .o+ooXoooooo+oXXXXoXXXX X XXXooXX++O++oo+++oo   X X",
"oX.   XXXX  ..XoooooooXooOoXXX XoXX X   ooXX++o++OO++oooXXoX  Xo",
"oo ..   XXX . oXXooXXX+o+Ooo  XXXXXXX  XXXXXo+++++OOoooXXoX  XXX",
" XX .. X XX+oXXX XX Xo++O+XoX   X XX   X  XXXoooXo++++oooooXXXoo",
"X   . XXXXXo++o    ooo++OX X   XXX XX   XXXXXXoXoooo+++oooXooXXo",
"oXooXXXoX ooXX X  XoX++Ooo  ooXXXX  XooXoXX oo XXoXooooXoXoX   X",
"XXXoooXX XoX    .. Xooo+o XooXXX    XXooXo Xo   XX XoXXXXoXXX   ",
"XoX XXo  XXXX..  XX  XoX   X    .. XXo++oX X  ... XXXoXXX  XXXXX",
"XXoX XXX  X ..  XooX  XoX     ... XX+++ooo  ..      ooooXX  XXoo",
"X XX . ..  . . XoXoooXoXooX ..  XooXooooX  ..XX++oX  XXX XXoooX ",
" XX   ..   .  X XXooXXXooX .   XXX  XoXXXX. XXoo++  ..  XXoXoX  ",
"++ooX  X X..    XXXXXX XX   XXo   XXoXoo  XXoXooXooXX ... XX   X",
"o+++ooXXX .   XXoXX XoX   XXoo.. XXoXXo  Xo+++XooX X    ..X  XX ",
" XXo++ooX.  X  XXoX  XoXXooXX  ..     Xo+++OO++oX Xoo XX   XXX..",
"... XooX   XXXX XX  ooXXo+++oXXX    XXXXo+OO+o+ooXooXX XXX  XoX ",
"  .. XXX X    .. XXX Xo+++ooXXXoXXXoooXXXXooooo+ooo+ooXXooXo+X X",
"   .X X   X    ..  XXX+oooXXoooooXXXo++oXoXooXo+Xooo+ooXX+++X XX",
"X  .   oXoXX      .. XXXooooo++ooXoo++o+oX XXo+oXo+O++OOOO+oXXo ",
"  .  ooooXoX..  X     Xooooo++++ooX+ooooooX   oooXo+OOOOOoXXooX ",
"    XXooXXX.. XX  XXXX oXoo+oo++XoXXooooX  X   Xoooo X++oXXooXXX",
" X XXXXX   XXoXXXXXooX Xooooo++ooXXXoooXoXooXX  XooXX  XooooX X ",
" X   X    XooXXXoo+XooX oXooXXoXX  XXo+OOO+ooXXo XXooX   X   Xo ",
"X  X    XXooXXo+++ooXXX ooXXXooo    X+OOO+++XooX XoXooXX    XooX",
"  X    XooXXoo+O+oXXoX XXooXXXX XX  X++oooo+ooXoXX XXXooX XXXoXX",
"X     XX oooooOOoXXoooXX  XoX XooXX o+oooo+o+oXXXX  XooX XXXo  X",
"o  X    o+o+OO+oXoooXX  X+++oX XooX XoXooooo+XXXXX. XXXXOO+o XXo",
"XX  X  X++OO++oXoXXXX  X+oXooo XXXXXoooXo+o++XoXX  .XXX++OOOXXoo",
"XooXXoXooo++ooXXXXX  XXoXooXXoXXoXooOOX oo+++ooXX  . X+oooo++ooX",
"oXXXooXXoooXXXXX   XXXXXooXXoo oXoOOOoX Xoo+ooXX X.. XoooXXoo+oo",
"XXXXXXoX  XXoooXXXXXooXXXooooX ooOoXooX XXoXooXXX .XXoXoooXXXX  ",
"oooXoXXoX  XXXooXXoooXoXXXooX oXooXooX  XXooXoXX . oooooXooX   X",
"o   XXooXXXX . XXoooXXX X XX  XooXXoXX XXoXoXXXXX oXoo++oXX XXoo",
"XX    XXoXX   ..XXoXXXX Xo  XXXXooXXX XXooXoX XoXXXo+++oXX  XXXX",
"ooXXXX XoooXXX .  XXoX XoO++oXX  X XXXoXoXoo XXXoXo+ooXX   XXXXo",
"++ooXXXXooXXo   oo+oXo X++OO++XX .. XXXoXXoX XXooooooXX XX XXoXX",
"o++ooooXXoooXoXo++ XX XoXoooOO++oX.. XXXXX  XX  XoooXooXXX XXXoo",
"ooXXXoXX o+oo+++oXX   XXoo+OO++oXo  XXoX   XXXXX XXoXXooXXX XXXo",
"XXXXo+oo Xo+OO+X .  XX XX+oo+o  XXXXoo  XXoo++oXXXXXXoo+OO+ooXoX",
"XXXo+++oX XoooXXX .. X  XXoooXX   XooXX  X+++oooX XXo+OOO+++ooXX",
"X +ooo+ooXXX    . X ... XXXXoooXoXXX  XXo+oooooXoX X+O+++ooo++oX",
" X+oooo+oo    .. X XX  XXoXXXX+oXX   XXXooooXoXXoo oOOO+o+oo++Xo",
" Xo+o+o+XoX XXXoX XXoXXXoooo++oooXX oXoXX+oooXooXoXoO+oXXoo++ooX",
"  X++ooooXXoXXooXX  oooXXX++ooooo+XXXoo+OOOO+ooXXXXX+OooXXXoooXX",
"X  XXooXX oXooXXo+OO+oXXo++ooX X+oXoo+OO++o+++ooXX Xoo+ooXooXXoo",
"XX    XX XX XoXo+OOOOO+oX+ooX  o+Xo++O+o+++oooXXXoX Xo+ooooXXooX",
"XooXX  ..    Xo+Oooo++++oo+ooXo+o Xo++++o+ooXXooooX X ++XXoo++oo",
"oXooXX  ...  X++o+oooo+++o+Xoo++XX  o+oo+oXXXXXXoXXX Xo+ooooo++o",
"oooXX   XX .. o+oooXXooXXooXXX XXo X++++oooXX   XXXX XooXoXoXoO+",
"+oXX XX  XX   X +oXXooXoX ooXoX ooXXX++ooXoo XXX  X XXoXXooX oOO"
};
