/* XPM */
static const char *muddy_mangrove_roots_top[] = {
/* columns rows colors chars-per-pixel */
"64 64 12 1 ",
"  c #3C2F23",
". c #322D36",
"X c #3E3836",
"o c #33323A",
"O c #3A383D",
"+ c #443522",
"@ c #4E3F27",
"# c #5A482C",
"$ c #46403E",
"% c #665234",
"& c #434445",
"* c #494A4C",
/* pixels */
"Oo++@+@@OOX$&&XXXX +  +OooooOOXXX +OXXXOXOO$+@@+**$&XOXXO@@+ OOo",
"Ooo@@++@+X&&$OOXOOo   +oOooOOXX$ ++XOXXXOOoo++@@*&&$XXOO@@+ Oooo",
"ooO@#@+++&&$XXXOOooO+ +OooOXXO  ++@+OoOOooXXO++@+$XXOOo++@+  Ooo",
"oOX$@#@+@+$XOOOoOOOo +@+OOOO   +@@++OOoooOXOO+@+@+@##@++@# +   o",
"XO$####+@@+XXOOOoooo@+@@+ + ++@@###@@+oOXXOooO++@@##@+@@##@+ ++ ",
"+@###@@@+@+OOOoOOooo+@@@  @++@######@@++OOOOooO++@@####@#@+@+ ++",
"@++@@+++@# Ooooo..o@+@+@  +@##@@@#@@@@@@+XOoOOOo@+@+#%##@@@@+ @+",
"@@@@++@@##  ....oo++@@+    +@@@@#@@++@@+++$OOooO@+++@#%%##@@#+@@",
"#@++@@@##@+  +  ++@@@@+ XX+@@@@+oo..++@+@+ OXXOO@@++###%%##%%%#@",
"@++@@##@#@+ +  @@@@@@+ XOOo@@@+.....oO+@@+ XXOOo+@+@+@####%%####",
"$  ++@@@@+  + @++@@++ OOOoo+@+.oo.ooOXO+@@++OOOO++@@+@#@@#####&$",
"XO+  +@##@+ +++ @@++  Oooo..++o..ooOOoO++@++XXX+++@+@#@++@@#@&$$",
"XO@@@##+OOo+++ ++++@ +OOo...+..oooOooOOX++ ++OO@+@++@@++  ++*$&$",
"OXX@##+$XXOOO  ++++@++OOooo..oooOOooXX$&+  @+X@+@@++++   +++$O$O",
"OX$X@+&$OXXOO$  ++@++@ooOo..ooOOooOXX&$*+ +@@+@@@+++  ++++@@$$OO",
"X$$XX$$$$OO$$&  ++@+@#oOOOoooOOooOX$&&&& +++#@@@++  +  +@@+@@$XO",
"X$XXX$X$$$$$$* + +@@@##OOooO ooOXX$&&&** +++#@@+  XX&&**+++@@XOO",
"$OXX$XXXXOO$**+@ +@@#@#OoOXO +O$X$$$$&&X  +@@#@  X&***&&$$++@@OX",
"XXOOOX$$OO$&*++@@++@#@##OXOXX ++$$$$&XX   +@##+ &&**&$$$X$X+++@X",
"OOOOX$$&&$O$++@@@@@@@@@#oOXXO  +@+$XXX+ + @@##  $&&$$XOXXOX ++++",
"++OX$&&$$$#@@@@+@@++@@#@+XOOX$   @@++  ++@@@#++ $$XXOOOXOOOO ++@",
"@++@&&$X++@###+++@@++@#+@oOXX$* ++@@  ++++@#@@++X$$XXOOOOOoo  @+",
"@@@++@@@####@++ooo..oo@+@@XX***&  ++++++@@###@+@OOXOOOoooooo+ +@",
"@+@@@@####@++ ooo.o.oOOO+@XO&*&&$&  ++@@##@@##@@XOOOoo..oOO++ +@",
"++@@+@@#++  oooo..ooooOoX+O$&&*&&$X +@@++##@@###@ooo..ooooO+ +$+",
"+@@++@@++OoooOooo.oOooOOOX$&&$&&XOX++@#@++@@###@@o...oooOXX  +XX",
"@@@+@@+OooOOOoOo.ooOooOo$&&&$$XOOXO+@##@@@++@@+@##o...OOXX   XOX",
"@+@@@#OOOooO$oOO.oooOoo$$$&$XOOOXoO+@#@+++++++ +@##@oOXX  ++ XOO",
"++@@##@+X$&$O+  oOooOOoO  X&OOOooOO@#@@@+ XX   +++@##@@++++ XOXX",
"++@+#@+++++    oOooOXO+  + OXXooOOo@#@@+ OOXXO   ++@##@@++  XXOX",
"++++@+@+++   &XOOoOXX  ++#@XOOOoo.@@##@+OXXOXX$X   ++@@+   XOOo+",
"+@+@@+@@++ +  OXoOXO  +@###@OOoo@##@##+ XXXXX&&$$ ++@@+++ XXOoO+",
"@O#@@@+@++++    ++++@+++@@+@@++@@@###@ XXOXX$$**&$ +@++@+XXOoo +",
"Oo##@@@++@ ++  +++@@++@++++++@@@###@@+ XOO$&$&&**&X +@+@@+oo  ++",
"oO#@#@@+@+ ++ +@+++@@@+++@@@@###%%@@++$OO$&****&&XXX +++@@@+++ o",
"ooX@#@@@@++ ++++@@@@++++@@###%%%%##@ +O$&&*&&*&&XOOX  ++@@+++  o",
"oOO+##@@@ +  ++++@@++ $$&#@@###%%%@@+ X$$&&$#&XXOXXoo @+@@+@+ oO",
"OXOX##@@+  o +++++++ $$&&XOO@#%%##@@+ XX$$$&@#XOOoOOo+@@+@@@+OOo",
"XOX$$##++ Ooo ++@++ &&&$$OO&XO@####@@ $$$$$X@#@Ooo..oo+@+@@#OOOO",
"OOX$$##+ oooO ++@+  **&&$&&XXOO@#@##+ &$OOOXX@@@...ooo+@@@#@XXOO",
"XXX&$@#@+OooO&+@@++ *&&$&&XOOXX@#@@@++ OOOXOO+#@#ooooO++@##@+XXO",
"OX&&O@@#+ooOX++@+@+ &$$&XXOOXXXX@#@@@+ &XOOo.+@##.ooOoO+@###+OOX",
"$$&$X+@#ooOX+++@+@+++$XX$XXXXXX$*##@+@+$OOoOOo@#@#OOOXX +#@#@+X$",
"$&$O$+@@Oo++@+@#@@@++&X$$$$$X$$&&*#@+@ $$OOOoo@@@#ooOO$ +@@#++ $",
"@&OO#@+@@@@++@##@+@@+XOXX$$$$$$$&&@#@@ OoooooO+@#@+O$$$X++@@+@+ ",
"+@@@##@@@@##@@#+@+@@++XX$$XX&&&$$$@#@@+ooo..ooO+#@+XX$$$@+@@@@++",
"+ +@@##@@##@@#@++@@++@X$XXX&&&$OO@@#@++o..ooOOO+@#@$$$$$+@+@@++ ",
" +@++####@@#@@+++@#+@@+XX$&&$$$$O+#@@+ ..ooooOO++@@@$&&&@@++@+  ",
"$$oO@@#@@+++XXOo+@####@@$&$$X$XO++@@+@ ooooOOooO+#@#&&**@++ +++ ",
"OoOo.@@@++XX$$XOoo@####@@+$$$X  +@@@++ .oOOOooOO@##@XX&*@+ +++Oo",
"ooO...oOXX$$$XOXOOX#@@##@@++  +@@#@++ oOOoOOOOX@###@@$O+@+ + XOo",
"oOooo.OXO$$$XXXOOXOO#@@@#@@+++@@#@@+  ooOOOXXO@#@####@$++@+  Ooo",
"oo.o.oXX$$XXOooo++@@##%%###@@####@+  oOOOXXX@@##@@##@@++@@+ oo.o",
"ooo.oOO$XXXO  +++@##%%%###%#@@%%##@+ OOXXX@@@##@##@@@@@++@+ ooo.",
"..o.OooXO+   ++@###%%####%%%#%%##@@@+ $$#@@##@@@@###@@@@+@++Oo..",
"...ooo+   ++@@@#@####%##@##%%######@@++@@#####@@#@@##@#@@@++OO.o",
"o.ooO   +@##@@#@###@@###@@+@##@######@@#####@@++@@o@@#@@+@@+XOoo",
".oOo ++@##@###@@@@@@###@+@+@#@@##@@@@###@+#@@++@@.oO@@@#@@@ Oooo",
"ooO+++@##@@@@++@@+@####@++@##@@@@#@@@@+++@#@@@+@oOOo+@##@#+ ooOo",
"oOO++@+@@@++  ++++@#@#@@+ @@#@#@@@@++   ++@#@@@+ooO$++@###@+oOoo",
"Oo+@+@+++   XXXX++##@+@+ O+@@##@++  **&XX+@#@#@oo$$&$+@@##@@+OOo",
"o.@@+@@+  XXXX$$$+@#@@++ Oo+@#@++ $$$XXOOO+##@@oOO$$&++@#@+@+OoO",
"o @+@@+ XOOX$XX$$ +@@@+ ooo++@@+$$XXXOOOoOO@#@+O$O&**&+@#@+++ oo",
"o ++@++OOXXXX$$$XX++@+  oooo+@+XX$$XOXOOOoo+@#+$$&**&$O+@#@+   o"
};
