/* XPM */
static const char *mushroom_stem[] = {
/* columns rows colors chars-per-pixel */
"64 64 4 1 ",
"  c #C2BCAC",
". c #C7C1B4",
"X c #CDC6BD",
"o c #D3CCC4",
/* pixels */
"ooooXXXoooooXX.XXX..XXXXoooooooXXXXXooXXXXXXXXXXoooooooooXXooooo",
"ooXXooooooXXXXX..X..XXXXXXooooooooXXXoooooXXXooooooooooooooooooo",
"oooooooooXXXXXXX...XXXooooooooooXXoooooooooooXXooooooooooooooooo",
"oooooooXXooXX..XX.XXooooooooooXXXooooooooooooooooooooooooooooooo",
"ooooooooooXXXXX...XXXoooooooooooooooooooooXoooooooooooooooooXXoo",
"ooooooooooooXX...XoooXXooooooooooooooooooXoooooooooooooooooXXXXX",
"XXoooooooXXXX.....XooooooooooooooooooooooXXooooooooooooooooooXXo",
"XooooooXXXX.XX..XXXXooooooooooooooooooooooXooooooooooooXoooooooX",
"oooooXXXX..XX..XXooooooooooooooooooooooooXooooooooooooooXXXooooo",
"ooooXX........ ..XXooXXXoooooXXoooooooooXXooooooooooooXXXXoooooo",
"XoooooXX..XX... ....XXooooXXXoooooooooooXoooooooooooooooXXXXooXX",
"oooooXXXXXX.. . ...XXXXoooooXXXXoooooooXXoXooooooXXooooooXXooXXX",
"XXooooooXX...  ......XXXXXXXXXoooooooooXXXXoXoooXXXXXooXXXXXXXXX",
"XXXXooXXXXXX . .........XXXXooooooooooooX..XXooooooXooXXXXX..XXX",
".XXXXXXXXXX.  ....   .XXX...XXXXooooXXXo....XXoooXXXXXXXX...XXX.",
"..XXX..XX...  . ....  .XXX...XXXXXooooXXXX...XXXXXXXX.XXXXX...XX",
".XXX..X....     .....XX....XXXXXXXXXXXXXX...XXXX..XX....XXXX....",
"...XXX....     ..............XXXXXXXXXX...XX..XXXXXXX..XXX......",
".....XXX.. .    ........  .....XX..XX...  .....XXX..XX......  ..",
"....XXX.....      ....  ..........XXXX...  ..XXXX..X....   ..   ",
"  .........    ........    .....XXX....  ...XX...  ...          ",
"    ....         ...     ...  .......     ......  . ...      .. ",
"   ...   ...    ..    .... ..    ..  .  ...... ...         ...  ",
"      .........         ...    .....       ....         .....   ",
"    .......X..XX..     ..       ..  ..   ..    ..   ......XXX...",
"..   ....XXXXXXXXXX.               ..         ..      ..XXXX....",
".......XXXooooXXXX....    ....                    ...XXXXX..XXX.",
".....XXXXooXXooooXXXX....   .....             .....XXXoooXXXXX..",
"....XXXXXXXXoooXXXXXXX..XXX.....      .   ..   ..XXXXoXXoooXXXXX",
"XX....XXXXooooooooooXXXXX.....         ........XXXoooooXXoooooXX",
"XoooXXXXXXXoooooooXXXooXXXXX......       ..XXX..XXXXooooooXooXXX",
"ooXXXooXXoooooooooooXXoooooXXXX.........XXXXXXXXXooooooooooXXXoo",
"ooooooooooXXooooooXoooooooXXXX....XXXX....XXXXoooooooooooooooXXo",
"oooooooooooXXXooXXooooooXXoooXXXX..XXXXXXXXoooXXoooooXXooooooooo",
"ooooooooXXooXXXXXooooooooXXooooooXXXXXoooooXXooooooooooXXooooooo",
"XoooooooooXXXXXXXXXoooooooooooooXXXXXXXXooXXooooooooooXXoooXXooX",
"ooooXXXooXXXX..XXXXXooooooooooooooooXXXXXXooooooooXooooXXXXXXXXX",
"XXoooXXXXXX..XX.XXoooooooooXXoooooXXXXXXXXXXooooXXoooooooXXXXXXX",
"XXXXXXXXX.....XXXoooooooXXXoooooXXX..XXXXoooooXXXXXXooooooooXXXX",
".XXXXXXXXX..XXXooXXoooooooXXooXXXXXXX..XoooXXX....XXXXXoooXXXX..",
"XX...XXX...XXXooooXXXooooXXXXXoooXXX..XXXXXX........XXXXXXXXX...",
".......XXXXXXXXoXXXXXXXooooXXoooooXXXX..XX...   ...XXXXXXXXXXXX.",
"......XXXXXXXXXXXXXXXXXXXXoooooXXXXXXXX.......    ...XX..XXXXXXX",
"..   ....XXXX..XXXXXXXXXooooXXXX..XX........       ....X..XXXX..",
"  ..    ...XXX..XXXXX...XXXXXXXXXX......   ...   .....XXXXX.....",
"   ..    .....XXXXX....XX..XXXXXXXX...    ..        .....XXX.   ",
" ..    ......XXXX.....   ....XXX....        .         ....XXXX. ",
".     .........XXXX....   ..XXX..XX.....                ...  ...",
"..       .....XX....    .......XX.....        ..     .....    ..",
"....   ..   .....     ........XX.    ..         ..    ..  .. ...",
"...       ....  ..       ...........   ..  ...   ...       ...  ",
".     ......     ..    .   .......      .....  ....    ..      .",
"    .........  ..       ........      ..........    ..  ...     ",
"  .................       ..   ....     ..........   ....  ..   ",
" .   ......XX........   ..   .........    ..XX..........    ..  ",
"   ...XXX...XX...........       ..  ....    ..XXX.........      ",
"..XX...XXXXX......X..........     ...    ......XXX..........    ",
"....XXXXXXX.....X.XXX.......           ......XXX................",
".XXXXXXX...XX..X...XXXX...            ..........XXX..XX..XX.....",
"XXXXXXXXXX..XXXX.X..XX........      ..   .....XXXXXXXX..XX....XX",
"XXXXoooXXXXXXXXXXX..XXXXX........      .XX..XXXXXXoooooXXXXX...X",
"XXooXXooXXXXoooXXXX.XXX....XX..     ..XXXXXXXXXXoooooooooXXXXXXX",
"oooooXXXXooooXooX.X.XXXXXX...XX..........XXXXooXXooooXooXXXXXXXo",
"oooXXXooXXooooXXX..XXXooooXXXXXX...XX...XXXXXXooooooooXXXXooXXXX"
};
