/* XPM */
static const char *nether_wart_stage2[] = {
/* columns rows colors chars-per-pixel */
"64 64 7 1 ",
"  c #480000",
". c #521810",
"X c #730408",
"o c #831C20",
"O c #A42429",
"+ c #C53439",
"@ c None",
/* pixels */
"@@@@@@@@@@@@@@@@@@@@@@@@@@@@@@@@@@@@@@@@@@@@@@@@@@@@@@@@@@@@@@@@",
"@@@@@@@@@@@@@@@@@@@@@@@@@@@@@@@@@@@@@@@@@@@@@@@@@@@@@@@@@@@@@@@@",
"@@@@@@@@@@@@@@@@@@@@@@@@@@@@@@@@@@@@@@@@@@@@@@@@@@@@@@@@@@@@@@@@",
"@@@@@@@@@@@@@@@@@@@@@@@@@@@@@@@@@@@@@@@@@@@@@@@@@@@@@@@@@@@@@@@@",
"@@@@@@@@@@@@@@@@@@@@@@@@@@@@@@@@@@@@@@@@@@@@@@@@@@@@@@@@@@@@@@@@",
"@@@@@@@@@@@@@@@@@@@@@@@@@@@@@@@@@@@@@@@@@@@@@@@@@@@@@@@@@@@@@@@@",
"@@@@@@@@@@@@@@@@@@@@@@@@@@@@@@@@@@@@@@@@@@@@@@@@@@@@@@@@@@@@@@@@",
"@@@@@@@@@@@@@@@@@@@@@@@@@@@@@@@@@@@@@@@@@@@@@@@@@@@@@@@@@@@@@@@@",
"@@@@@@@@@@@@@@@@@@@@@@@@@@@@@@@@@@@@@@@@@@@@@@@@@@@@@@@@@@@@@@@@",
"@@@@@@@@@@@@@@@@@@@@@@@@@@@@@@@@@@@@@@@@@@@@@@@@@@@@@@@@@@@@@@@@",
"@@@@@@@@@@@@@@@@@@@@@@@@@@@@@@@@@@@@@@@@@@@@@@@@@@@@@@@@@@@@@@@@",
"@@@@@@@@@@........    @@@@@@@@@@@@@@@@@@@@@@@@@@@@@@@@@@@@@@@@@@",
"@@@@@@@@..ooooOoOOOooo  @@@@@@@@@@@@@@@@@@@@@@@@@@@@@@@@@@@@@@@@",
"@@@@@@..ooooOOoOOOOOoooX  @@@@@@@@@@@@@@@@@@@@@@@@@@@@@@@@@@@@@@",
"@@@@@.ooOOO++++OO+OOOOoooX @@@@@@@@@@@@@@@@@@@@@@@@@@@@@@@@@@@@@",
"@@@@.oooooOO+++++OOOOoooXXX @@@@@@@@@@@@@@@@@@@@@@@@@@@@@@@@@@@@",
"@@@.ooOOoOO++OOO++OOOOOooooX @@@@@@@@@@@@@@@@@@@@@@@@@@@@@@@@@@@",
"@@@.oOOoOO++++OOO+++OOoOooXX @@@@@@@@@@@@@@@@@@@@@@@@@@@@@@@@@@@",
"@@.oOOOOOOO+OOO+++OOOOOOOooXX @@@@@@@@@@@@@@@@@@@@@@@@@@@@@@@@@@",
"@@.OOOOOOO+OOO++OOOOOO+OOoooX @@@@@@@@@@@@@@@@XXXXXXXX@@@@@@@@@@",
"@@.oOOO++OOOOOOOOOOOOOO+++oXo @@@@@@@@@@@@@@XXOoOOO+Oo..@@@@@@@@",
"@.oOOO++OOOOOOOOO+OOOOOO+OoooX @@@@@@@@@@@XXoooOO++OOOOo..@@@@@@",
"@.OOO+++++OOOOO++OOOO+++OOoooo @@@@@@@@@@XooOOOO++OOOOOOoo.@@@@@",
"@.OOOOO++OOOOO++OOOOOO+OOooooX @@@@@@@@@XoOooOO+++++OOOoOoo.@@@@",
"@.O+OOOO+++OOOO+++OOOOOOoooXXX @@@@@@@@XooO+++OOO+O++OOOOOOo.@@@",
"@.oO++O+O+++OOOO+++OOoOOOoooXX @@@@@@@@XOOOO+++OOO++++OOOOooo.@@",
"@.ooo++++++O++++OOOOOOoooooXXX @@@@@@@XooOO+O+OO+++OOOOOOoOOo.@@",
"@@ oOO+++++++OO++OOOOOOoooooX @@@@@@@@XoOO+OOOO+++O+OOOooooOOo @",
"@@ oooOO++++++OOOOOOOOOOoXXXX @@@@@@@.OOO++++OOOOOOOOOOOooOooo @",
"@@@ oOOoOO+OOOOOOOOOOooOooXX @@@@@@@@.oO++++++OOOO+OOOOooooooo @",
"@@@@.ooooOOOOOOOooOOOOooXXX @@@@@@@@@.O+OOO++OOO++OOOOOOOooooX @",
"@@@@@.XoOoOooOOOOoooOooXXX @@@@@@@@@@.OOOO++OOO++++OOOOOOOooX. @",
"@@@@@@ XXoooOOOOOOOoXXooX @@@@@@@@@@@.OO++O++OOO++OOOOoOOooX.. @",
"@@@@@@@ XXoOOOOooOoooXXX @@@@@@@@@@@@.o++O+OOOO++OOOOOOooooXX. @",
"@@@@@@@@ XXooOOOoooXXoX @@@@@@@@@@@@@.ooOOOOO++OOOOOOOOOoXXX. @@",
"@@@@@@@@ XooOOoooXXXoXX @@@@@@@@@@@@@.XoOOOOOO++OOOOOOOoooXX. @@",
"@@@@@@@@@ XoooOOOoXXXX @@@@@@@@@@@@@@ .oooOOOOOOOOOOOooooXX. @@@",
"@@@@@@@@@ XooOOOooOoXX @@@@@@@@@XXXX@@ ooOOOOOOOOOOooOoooX.. @@@",
"@@@@@@@@@@ OOOOOOOooX @@@@@@@@XXooooXX XoooOOoOOOoOOoooXXX. @@@@",
"@@@@@@@@@@ oOOOOOOOoX @@@@@@XXoooOoooo .ooOOooOOoOOOOoooX. @@@@@",
"@@@@@@.... ooOOoooOOX @@@@@XoooOOoooooX .XooOOooooOooXoX. @@@@@@",
"@@@@..oOoo oooOOoOoX @@@@@XoOOOOOOOooXX ..XooOOooooOXX.X. @@@@@@",
"@@@.XoXoOO oOOooooXX @@@@@XooOOOOOoXXXX. . ..XoOoooooXX. @@@@@@@",
"@@.XXXoooO OoOOoooXX @@@@XoOOOOoooooXXXX  ..XoooooXXXX.. @@@@@@@",
"@ XXoooOOo oOooooXXX @@@@XOOOooOXoooooXX .XXXXoooooXX.. @@@@@@@@",
"@ ooXoOOOO oooooXXoX @@@@XooOOoooXXXoooX. .XXoooooooXX. @@@@@@@@",
" ooOOOOooo. oXooXoXX @@@@XooooOoooXXXXooX XXoooooooXX. @@@@@@@@@",
" XooOooOoXX.ooXoooXX @@@@@ XoooooXXXXoXXX XXooXooXXXX. @@@@@@@@@",
" XXXXooXXXX.ooXXoXXX @@@@@ XXXoooooXXXXXX. XXoXoooXXX @@@@@@@@@@",
" .XXooooXXX.ooXXXoXX @@@@@@ .XXXooXXXXXX.. XXXXoXXXXX @@@@@@@@@@",
"@ .XXXXooXX.XooXXXXX @@@@@@@ .XXXoXXXX... @ XXoooXXX. @@@@@@@@@@",
"@ ...XoXXXX.XooXXX.X @@@@@@@@ XXoXXXXXX. @@ .XXooX.X @@@@@@@@@@@",
"@@ .XXXXXX. .XoXXX.. @@@@@@@@@ XXXXXXX. @@@@ XXoXX.. @@@@@@@@@@@",
"@@@ ..XXX.X .XXoXXX. @@@@@@@@@ .XXX.X.. @@@@ .XXoX.. @@@@@@@@@@@",
"@@@@ .X...X ..XXX.XX. @@@@@@@@@ ..XX.. @@@@@ .XXXXX. @@@@@@@@@@@",
"@@@@ .XX.XX X.XXXX.X  @@@@@@@@@ .XX... @@@@@@ .X.XX. @@@@@@@@@@@",
"@@@@@ X.XX. X..XX.... @@@@@@@@@ XX... @@@@@@@ ...X.. @@@@@@@@@@@",
"@@@@@ ..X.. .X..X..... @@@@@@@@ XX..X @@@@@@@ ..XX... @@@@@@@@@@",
"@@@@@ .... ..XXX...... @@@@@@@@ .X.XX @@@@@@@ ..XXX.. @@@@@@@@@@",
"@@@@@ . .  ...XX... .. @@@@@@@@ ..XX. @@@@@@@  ..XX.. @@@@@@@@@@",
"@@@@@  .. ....X.....    @@@@@@ ...X.. @@@@@@   ...X... @@@@@@@@@",
"@@@@@  . ....X.......   @@@@@@ ..X..  @@@@@@  ...X.... @@@@@@@@@",
"@@@@      ..........     @@@@ . ...    @@@@  .. ......  @@@@@@@@",
"@@@         ......        @@   ..       @@     ......   @@@@@@@@"
};
