/* XPM */
static const char *netherrack[] = {
/* columns rows colors chars-per-pixel */
"64 64 7 1 ",
"  c #411616",
". c #511515",
"X c #501B1B",
"o c #572121",
"O c #652828",
"+ c #723232",
"@ c #854242",
/* pixels */
"XX.XXooo..ooOOOOoOoooXXXoOO+++++++++OoXXX XXXXooo++O+OOOooXXXXXX",
"X...XXooo...XoOOOooXX XoO++OO+++++OOoooXX  XXXXoOO++OOOOOooXXoXX",
"..XXXXXXoooXX.ooOOooX oOOO++OO+++++OOooX   X.XoO+++OOO+OOOOoooX.",
"XXXoXXXoooooo..XoooX XooOOOO+OOO+OOOoOoX    .ooOO+OO++++OOOOoX..",
"XooooOOooOOoooX..XX  XXoooOOOOO+OOOOOoX  .  .XOOoO+++O+++OOoX.XX",
"XXoOOOOOooOOooooXX    XXoOOO++OO++OoooX .X.  .oOooO+++OOOoXXXXoo",
"ooOoOO+OOOOOOOooooXX  XXXXoOO++OO++OoXXXX.. .XooOOooOOOOoXX.XXXo",
"OooO++OOOOOOoOOooXoX   XXXXXoOO+OOooXXXXX.X ..XooooooOoXX..XXooO",
"oOOOO+++OOooOOOOooXXX  XX ..XooXXoXoooXX.XooX.XXXoooXXXX..XXoOOo",
"Oo++OO++++OooOOOoXXXX XX X...XooXXoooXoXXooXX..XoooXXXoXXXoOOOoo",
"OOO+++OO++++OOOoOoXXX    ..XXXXXoOooooOOoXXXXX.XXXooooXXooOOO+Oo",
"O++++O+OO++++O+OoooXXX  ....XXXoOoooOOOOOOoXXXX.XXXooXXXXoO++O+O",
"++OO++++++++++OOoOoXXXX..XoXXooOOOOooO+++OOOoXXXXXooXXXoXooO+++O",
"++O+O++@++++O+O+OOXXXX.XXoXoooOOOOOO++++++OOOoXX.XXX.XoXXXoOO+++",
"O++@+@@@@+++OO++OoXX XXXXXooOOOO++++++++OO++OOoXX...XoooX  oOOO+",
"OO++@@@@@@+++O+OOoX  .XoooO+OO+OO++O+++++OO++OOX..XXooOOoX  oO+O",
"O+O++@@@+++++++OOXX X.ooOOOO++++++++OO++++++OOOoX.XoOOOoOOoX XOO",
"OO++@@++++++++OOoXXX.XoOOO++++@@@++OO+++++++++OOoXXOOOOOOoooXXoO",
"OOOO+++++OO++OoOoXX.XoO+O+++@@++@@++++++O++++OOoXXoOOOOOOOOooXXo",
"OOO+++++++OO++ooXX..oOOO++@@@@@+++@++++OO+OOOOOoXXOOOO+OOOOOOooX",
"oO+O+O+++O++O+OoX. .oO++@++@@@@@++++++++OOOoOOoXXoOO++OOO++OOOoo",
"oOOoO+++OOO++OOX.. XO+O+@@@@@@++++++++OOOOoOoooXoOOOO++O++OOOOo.",
".OOOoOOOO+O++OoX. XoOOO++@@@@++++++++++O+ooooOXXoOO++++++++++OOo",
".oOOoo+OO++++OX.  XOOO+++++@@@+++++OO+++OOooOoXoO+OO++++++++OO+o",
"..oooO++++++OoX  XoO+++OO+O+++O+++++OOOOOooXXXooOO+OOO@@+++++++O",
"X.XoOOO+++OOooX  ooOO+++OO+++OOO+++OOOOOOOoo ..XoO++O++@@@++++OO",
"OX.XXoOOOOOooX  XooOOOOO++OOOO+++OOOoOoOOoXX.  .XOO+++++@@@+++O+",
"OO..XXooOoXXX. XoXoO+OO+O++OO+OO++OoooOOoX.XXX  .XOOO+++@@@@++++",
"+OOX..XXXXX.X .XXXXOO++O+OOO+OO++OOOoOoo..ooOOOooXXOOOO++@@@@+++",
"O++oXXXXX..XX X..XXoOO+OOO+++++OOOOoOoX..ooOOOOOOoXoOO+++@@+@+++",
"++OOoXXXXX...XXX..XXOOOOO+O+++OOOOooX...oOOOO+OOOOXXO++O++@+++++",
"+++OOoXX....XoooXX XoOOOOO++OOOOoXX...oOOOOO+O++OOoXoOO++++@+O++",
"++++OoooXXoOOO+OOoX  XoOOOOOOOoX...XXoOOO+OOO+++++OoXXoO++++++OO",
"+O+OoooooOOO++++++Oo  XXoOOooX....XoOOOOOO++OO+++OOOoXXXO++++OO+",
"+OOooXoOOO+++O+OO++OoXX XXooXXX  XoOO++OO++OO++++++OOoXoXoO+++++",
"OOooXoOOO+++++OO++OOOoX  XXXX   XoOOOO++++++++++++O++OoXXXoO++++",
"OooXoOO+++++@@++++++OOoX XXX  XXoOOO++++++++++++OO++OoXX  XXoO++",
"oXXXO++O++@@@@@++++OO+OX  XX XXXO+O++@++++++++OOOOOOoXX  XXoooOO",
"XXXoOO+++@@@@@@@++++++OoX X  XXoOO++++@@@++OO++OOOoXX   XXoXoXoX",
"XXoOO+++@++@+@@+++O++O+OX    XXOO+++@@@@@@++OO++OoXXXX   XX XoXX",
"XoO+++++++++@@+++++OO+O+XX  XXoO+++@@@@@++++++OOOXooXX     XXXXX",
"ooOO++OO+++++++O++OO+++OXX  XXOO++@++@@++++++OOOooXXoX    XXXXoX",
"XooOOO+OO++++OO+++++++Oo X XXoOOO+++@@+++++OOOOoXooXX   XXXXooXX",
"XXooO+O+++++++OO++++OOOX XXXXoOOO+OO+++++O++OOooXXXX  XXXXXooooX",
"oXXXoOOO++OO++++++O++OX XXXXXXoOOOO++++O+OOOOoXooX  XXooXXXXXooo",
"ooXXXXoOOOO+++++OO+OOX  X.XXXoXoOOOOO+++OOOoXXXXooXXXXXoooXXXooO",
"oOoX.XXXooOOO++++OOoX  XXX.XooXXooOOOOOOOoXX..XoXXXXooXXoXXooXOO",
"OOo.XXXXXXXoOOOOoXXXXXXXXX..XooXXXXoOOooXXX..XXXXooOOoooXXooXXoO",
"OOX.XoOOoXXXXooXXoXXXXooXXX..XXoXXXXoooXX..XXXoOO++OO++OooXXoXoO",
"OoX.oO+++OoXXXooXXXXoOOOOoX..XXXXXXoooXo..XXoOOO++OO++OOOooXXXXO",
"Oo.XOOO+++OOoXXXXXoOOO++OOoX..XXXXooXX..  XoOO+O+++@@+++OOOoXXXo",
"oX.OO++++O+OOooXXoOO++OO+OOo..XXXXXX XX  XoO+O++++@@@@+++OoooXXo",
"o.XO++++++OOOOOOOO+++++OO+OOX..XXXXXX XXXXOOO+++@@@+++@++OOOooXX",
"..O++O+++++O++OO++++@@++++OOo.  XXXXX  XXoOOO+O++@@@@+++++O+OOXX",
".XO+OO+O++++OO++++@@@@@@++OOoXX  XXXXX  XOOOOOOO++@@+++++++OOOoX",
"XXoO++O++++OOOO+@@@@@@@++OOoXXXXX XXXX  oOoOoOOOO+++++++O+++OOOo",
"oXoOOO+++OOOO++++@@@@++OOOOooXXooXXXX  XoOOooOOO++++O+++OO+OOooo",
"ooXOOOO+++OO+O++++@@@@++OOooXXoOOoXoX  XOoOoOO+OOO+++O++OOOOoooo",
"oXooOOOOO+++++@+@@@@+O+OOOoXoOOOoooX  XXoooOOO++OO+++O+OO++OOOoo",
"oXoXoOOO++++O++@@@++++OOOooOOO++OOoXX XXXooOO+++O++O++OO++OOoOOX",
"ooXXXO+++OO+OO+++++OOOOOooOO++OO+OOoXX XXoOoO+O++++OO++OOOOooooX",
"XooXXoO+++OOO+++OO++OOOoXO+++++OOOOooo  XXoOOOO++OOO++++OOoOOoXX",
"oXoXXXoOOOO+++OOO++OOooXXOO++OO++OOOoXXX XXooOOO++O++OO++OOOooXX",
"XXXXoXXooOOO+++OOOOoooXXooOO+++++++OOoXXXXXXoooOOOOO++OOOOoooXXX"
};
