/* XPM */
static const char *oak_log_top[] = {
/* columns rows colors chars-per-pixel */
"64 64 9 1 ",
"  c #4C3D26",
". c #5F4A2B",
"X c #745A36",
"o c #7E6237",
"O c #967441",
"+ c #9F844D",
"@ c #AF8F55",
"# c #B8945F",
"$ c #C29D62",
/* pixels */
"..XX  ...............XXX.......   ........XX..    ........XXXX..",
".XX.....XXXX..XX...XXXXXXXXXXX......XXXXX...........XXXXX....XXX",
".X......................XX......     ...XX....   ..XXX.........X",
".X...   ..        ...    .....    ..XX....      ..   . ...  ...X",
"X...$$$$$$###$$$$$#@@@##$$####@+@@##@@@@@@@@###@####$$###$$# ...",
"X.. $##@@@@@@@@@@@@@@@@@@@@@@@+++@@@@@@@++++@@@@@@@##@@@@@#$ .. ",
"X.. $#@##@@@++++@@@###@++@@##@#@@@@@@++@@@@##@@@@##@@@@@@#@$... ",
"X...$##@@++@@@++++@@@+++@@@@@@@@@@++++@@@@@@@@@@@@++++++@#@$ ...",
"... $@#@ooooooOOooooooOO+OO+++OO++OOOOOO++OOOO++O+OOOOOO@@@$ X. ",
"... $@@+oooOOOOOOOOOO+++++++++++++++++++++++++++++++OOOO@@@$.X. ",
".X. #@@+oo$$$$$$$$$#$$###$$$$$$$$#@###@#@@##$$$$$$$$$$OO+@@$.X. ",
".X. @@#+oo$####@@@@@@@@@@@@@@@@@@@@@@@@@@@@@@@@##@@##$OO+@@$.X. ",
" X..#@@@oO$##@@@@@@@++++@@@@++@@@@@@@@@@@@@@@@@@@@###$OO@@@#.XX.",
".X..#@#@oO$#@+@@++@@@@++++@@@@@++++@@@@@@@@@@++++@@@#$+O@+@#.XX.",
".XX.#+#@oO$@@@@@@@@@@@@@####@@@@@#####@##@@@@@@++++@@#+O++@@ .X.",
" XX.#+@@oO$@@@+@@@@@@@@@@@@@@@@@@@@@@@@@++@@@@++@@++@#+O++@@ .X.",
" .X @+@+OO$#@++@OoOOOO+OOOOO++OO+++++OO+OOOOOOOO+@@+@@+O+@@@  X ",
" .X @@@+OO##@+@@oOO+++++++++++++++++++++++++OOOO+@@@@@+O+#@@  . ",
"... #@@@oO##@+@@oO@#$$$$$$$$########@@@@@@##@+OO@@@@@#+O@#@#. . ",
"X.. #@@@oO#@@+#@oO###@@@@@@@@@@@@@@@@@++@@@@#@OO@@@+@#+O@#@#. ..",
"X.. @@#@oO@@@@#@oO##@++@@@@+++@@@@@@@@@++@@@@@+O+@@+@#+O@@@#....",
"X.X @@#@oO#@@#@@oO#@+@@@@@@@@@@@+++@++@@@@@@@#+O+@@@@#+O@@@# ...",
"X.X.#@#+oO#+@#@@OO$@+#++++++OO++OOoOooOO++@@@#+O+@@@@#++@@@# ...",
"X.X.$@#@oO@+@#@@OO#@@#++++++++++++OOOOOOO+@@@#+O+@@@@#+++@@# .X.",
"XXX $@@+oO#@@@@+oO$@@#++@##@####@@@@@@@@+O@@@#+O@@@+@@+O+@@@ ...",
"XXX $#@+oO#@@#@+oO$@@@++@@@@@@@@@@++@++@+O@+@#+O@@@+@@+O+@@@ ...",
"X.X ##@@OO$@@#@@oO#@@@++@@OOOO++++OOOO+@++@++@+O@@#@@@++@@@+..X.",
"..X.#@@@O+$@@#@@oO#@#@++@@O+++++++++OO@@+O@++@+O@@#+@@+O@@#+..X.",
"..X.@@@+OO$@##@@oO#@#@++@@++@@@@@##@+O@#++@@+@++@@#@@#++@@#+.X..",
"..X.@+@+O+$@##@@oO#@@@O+@@++@@@@@@@#+O@#++@@+@++@##@@#++@+#+.X..",
" ...#+@+O+$@##@@OO@@@@++@@O+@@+O++@#+O@#++@@+@+O@##@@@++@+@@.X..",
" ...#+@+++$@@#@+OO@@@@O+@@O+@@O++O@#+O@#++@@@@+O@##@@@++@+@@.XX.",
" .. #@#+++$@@#@+oO#@@+O+#@O+#@OO+O@@++@@++@@@#++@#@+@#+O@@@+..X.",
" .. #@@+++#@+@@+OO#@@+O+@@O+#@+OO+@@++@@+O@@+#++@@@+@#+O+@@+..X.",
"... #@#+O+@@+@@+OO#@@@O+#@++#@@@@@@@++@#+O@@+@+O@@#+@$+O+@@@ .X.",
"..  #@#@O+@@+@@@OO#@@@O+#@++@####@#@++@#++@@+@++@@#@@$+O+@+@ ...",
"X. .#@#@o+#@+@@@OO@@@@O+@@++++++++++++@@+O@@@@+O@@@@@$+O+++@....",
"X. .#@@@oO#@@@@@O+#@@@O+@@++++++OOO+++@@+O+@@@+O@@@@@$+O+++@..X.",
"X...@@+@oO#@+@@@O+#@@@++@@@@@@@@@@@@@@@@+O+@@#+O@@@@@#+O+@+@..XX",
"X...@@+@oO#@+#@@OO#@@@++@@@@@@@+++++@+@@Oo@@@#+O@@#@@#+O@#+@ .XX",
"X..X@@++oO#@@#@@O+#@@@++++++OOOOOOOOOOOOOo+@@#@+@@#+@@+o+#@@ .XX",
"XX.X@@++oO#@@#@@O+#@@@+OO+OOOOooOOOOoooooO+@@#@+@@#+@@Oo+#@@ XXX",
"XXX.@@++OO@@##@@O+@@+@@@@@@+++@+++@@@@@+++@@@#@@@@@+@@Oo@#@#.XX.",
".XX.@@@+O+@@#@@@O+#@@++@@++++@@@@@@@@@+++@@@@#@+@@@+@@Oo@@@# XX.",
".X..@@@@O+#@#@@+O+#@@@@@@@@@@@@@@@@@@@@@@@@@@#++@@@+@#oo+@@@ .X.",
" X..@+@@O+#@@#@+O+@#@@##@@@@@@##@@############++@@#+@#oo+@@# .X.",
" ...@+@@++#@@@@@OO++OOOOOOOOOOOOO+++++++++++++++@@#@@$oo@@@#... ",
" ..X@+#@++#@+@#@OOOOOoooOOooooooooOOOO++OO+O++++@##@@$Oo@@@$... ",
"...X@@#@++$@++#@@@@@++++@@@@@@@@@@++@@@@@@@@@@@@@#@+@#+O+@@$..X ",
"...X@@#@++$@++@@@@@@@@###@@@@####@@@@@@@@@#@@###@@++@#+O+@#$ .X ",
"...X@@@+O+$@@++@+++@###@+++@###@@@###@@@@@@###@@@@++@#+++@## .X.",
"....@+@+O+$@@@@@@@@@@@+++@@@@@+++++@@@@++@@@@@++@++@@#+++@#$..X.",
"X. .#+@@O+$#@@@@@@@@@@@@@@@@@@@@@@@@@@@@@@@@@@@@@@@@@#+O+@@#..X ",
"X. .#+@+OO$$$$$#@@####$$$$$$$$$$########$$##$$$$$$####+O@@@#... ",
"XX. #@@+OOOO++++++++++++++++++++++++OOOOOOOOOOOO+++++OOO@@@$X...",
"XX. #@@@OOOOOOOO++OO++++O+OOOO++OOOOOOooooooOOoooOOOOOOO@+@$X...",
".X. #@++@+++@@++@@@@@@@@@@++@@++++@@@@+@++++++++@@++++@@@+@$X.. ",
".X..#@@++@@##@@++++@@#@@##@@@@@@@+++@#####@@@@@###@@@@@++@#$X.. ",
" ...##@@@@@@@@@@@@@@@@+++@@###@@@@@@@@@@@@@@@+++@@@@@@@@###$X.X.",
" .X.########@@##@#######@@@@#$$$$$$$$$####@###@@##$$$$$$$$$$X.X.",
" .X.XXX...       .  .......     ..   .....   .    ..  ..    .XX ",
" .XXXX...     ........XX..  ...........XXX..................XX. ",
"...XXXXXXX..   .XXXXXXXXX...........X.....XXXX..XX...XXX.XX...  ",
".  ..XXX..    ...XXX......XX.      ..XXXXXXXX......XXX....      "
};
