/* XPM */
static const char *oak_sapling[] = {
/* columns rows colors chars-per-pixel */
"64 64 9 1 ",
"  c #4C3214",
". c #5A3F1E",
"X c #105210",
"o c #1F6519",
"O c #70532E",
"+ c #7F6139",
"@ c #408F2F",
"# c #57AD3F",
"$ c None",
/* pixels */
"$$$$$$$$$$$$$$$$$$$$$$$$$$$$$$$$$$$$$$$$$$$$$$$$$$$$$$$$$$$$$$$$",
"$$$$$$$$$$$$$$$$$$$$$$$$$$$$$$$$$$$$$$$$$$$$$$$$$$$$$$$$$$$$$$$$",
"$$$$$$$$$$$$$$$$$$$$$$$$$$$$$$$$$$$$$$$$$$$$$$$$$$$$$$$$$$$$$$$$",
"$$$$$$$$$$$$$$$$$$$$$$$$$$$$$$$$$$$$$$$$$$$$$$$$$$$$$$$$$$$$$$$$",
"$$$$$$$$$$$$$$$$$$$$$$$$$$$$$$$$$$$$$$$$$$$$$$$$$$$$$$$$$$$$$$$$",
"$$$$$$$$$$$$$$$$$$$$$$$$$$$$$$$$$$$$$$$$$$$$$@@$$$$$$$$$$$$$$$$$",
"$$$$$$$$$$$$$$$$$$$$$$$$$$$$$$$$$$$$$$$$$$$$@o@@$$$$$$$$$$$$$$$$",
"$$$$$$$$$$$$$$$$$$$$$$$$$$$$##$$$$$$$$$$$$$$oX@@$$$$$$$$$$$$$$$$",
"$$$$$$$$$$$$$$$$$$$$$$$$$$$####$$$$$$$$$$$$@oXo@$$$$$$$$$$$$$$$$",
"$$$$$$$$$$$$$$$$$$$$$$$$$$##@@#$$$$$$$$$$$$oXOo@$$$$$$$$$$$$$$$$",
"$$$$$$$$$$$$$$$$$$$$$$$$$##@@o@#$$$$$$$$$$$oO.o$$$$$$$$$$$$$$$$$",
"$$$$$$$$$$$$$$$$$$$$$$$$$##@oo##$$$$$$$$$$$X+.$$$$$$$$$$$$$$$$$$",
"$$$$$$$$$$$$$oooo$$$$$$$##@@o@#@$$$$$$$$$$$+O$$$$$$$$ooo$$$$$$$$",
"$$$$$$$$$$$$ooXXoo$$$$$$##@oX#@@$$$$$$$$$$$+.$$$$$$$ooXo$$$$$$$$",
"$$$$$$$$$$$$$$oXO..$$$$$$#@Xo@@$$$$$$$$$$$+O$$$$$$$ooXoo$$$$$$$$",
"$$$$$$$$$$$$$$$oXO..O$$$$$XX@@$$$$$$$$$$$$O.$$$$$$$oXXoo$$$$$$$$",
"$$$$$$$$$$$$$$$$$$$O..O$$$OOO$$$Xooo$$$$$O.$$$$$$$OO.XXo$$$$$$$$",
"$$$$$$$$$$$$$$$$$$$$O..O$O.O$$$$oXXoo$$$OO.$$$$$O++OO.X$$$$$$$$$",
"$$$$$$$$$$$$$$$$@#+++OO..  ..$$$ooXXXo$OO.$$$$O++.ooo$$$$$$$$$$$",
"$$$$$$$$$$$$$$@##@oO+++OO.  ..$$$oooXXOO..$$.OOO.oo@@@$$$$$$$$$$",
"$$$$$$$$$$$$$###@ooo$$O++O.O..$$$$ooX.O+O.O++O. oXXo@#@$$$$$$$$$",
"$$$$$$$$$$$$###@ooo@$$$$OO..O..$$$$o..++.O++O.  @oXXo@##$$$$$$$$",
"$$$$$$$$$$$##@@oo@@@$$$$$OO.O. $$$$$..+OOOO.  $$$##@oo@#@$$$$$$$",
"$$$$$$$$$$$#@@##@@@$$$$$$.O+O.  $$$$.++OO.. $$$$$@##@oo@#$$$$$$$",
"$$$$$$$$$$#@###@$$O  .$$$$.O+.. $$$.O+O...$$$$$$$$@##@@o@#$$$$$$",
"$$$$$$$$$$###@$$$$$O  ..$$..+O.  $$O+O.O.$$$$$$$$$$@##@@##$$$$$$",
"$$$$$$$$$$$$$$$$$$$$$.  .OO+++.. $.OOO.O$$$$$$$$$$$$@##@##$$$$$$",
"$$$$$$$$$$$$$$$$$$$$$$$  .OO++... OO+O. $$$$$$$$$$$$$#####$$$$$$",
"$$$$$$$$$$$$$$$$$$$$$$$$. ..O+O...OO+. $$$$$$$oo$$$$$$###$$$$$$$",
"$$$$$$$$$$$$$$$$$$$$$$$$..O..++O.O++O. $$$$$oXXo$$$$$$$$$$$$$$$$",
"$$$$$$$$$$$$$$$$$$$$$$$$XX.OOO++O++O..$$$$$oXXoo$$$$$$$$$$$$$$$$",
"$$$$$$$$$$$$$$$$$$$$$$$XXXX.OO+++OO...$$$$ooXoo$$$$$$$$$$$$$$$$$",
"$$$$$$$$$$$$$$$$$$$$$$oooXXXO.+OOOO.. $$$$oXoo$$$$$$$$$$$$$$$$$$",
"$$$$$$$$$$$$$$$$$$$$$$ooXXo$..OO.O.O. $$$O.Oo$$$$$$$$$$$$$$$$$$$",
"$$$$$$$$$$$$$$$$$$$$$ooXoo$$.OOO..@oX.$...O$$$$$$$$$$$$$$$$$$$$$",
"$$$$$$$$$$$$$$$$$$$$$oooo$$$.OO.@@ooXX.. O$$$$ooXX$$$$$$$$$$$$$$",
"$$$$$$$$$$$$$$$$$O+++O$$$$$$O.O@##oXXo  $$$$$oXXoo$$$$$$$$$$$$$$",
"$$$$$$$$$$$$$$$O+++OO..O$$$$O.@##@XXoo $$$$ooXXoo$$$$$$$$$$$$$$$",
"$$$$$$$$$$$$$$@oXX.O++OOO+++OO###o@oo@$$$$oXXo.O+++$$$$$$$$$$$$$",
"$$$$$$$$$$$$@@oXXo...O++OOO++@##@@##@ $$$XXo..O+++OO$$$$$$$$$$$$",
"$$$$$$$$$$$@@ooo@@$$$$$OO..O+##@@##@. $$XXO++OO.  oo@$$$$$$$$$$$",
"$$$$$$$$$$@@oo@@$$$$$$O.....##@##@@+O $$..++O.  oXXoo@$$$$$$$$$$",
"$$$$$$$$$$@o@@$$$$$$$O..$$..####@@O+O.$..OO.  $$@oXX@#@$$$$$$$$$",
"$$$$$$$$$$@@@$$$$$$$O.$$$$$.@#@@O+++OO.OO.. $$$$@@oXo##$$$$$$$$$",
"$$$$$$$$$$$$$$$$$$$+O$$$$$$$..OO++++OOO.. $$$$$$$#@oo@#@$$$$$$$$",
"$$$$$$$$$$$$$$$$$$$$$$$$$$$$..+O+++++O.. $$$$$$$$##@o@##$$$$$$$$",
"$$$$$$$$$$$$$$$$$$$$$$$$$$$$.O++++O++.. $$$$$$$$$$##@@##$$$$$$$$",
"$$$$$$$$$$$$$$$$$$$$$$$$$$$$.O+++OO+O.. $$$$$$$$$$$##@@#$$$$$$$$",
"$$$$$$$$$$$$$$$$$$$$$$$$$$+O.O+++OOO.. $@@@$$$$$$$$$###$$$$$$$$$",
"$$$$$$$$$$$$$$$$$$$$$$$$++OOO+++OO.O.. @@#@@$$$$$$$$$$$$$$$$$$$$",
"$$$$$$$$$$$$$$$$$$$$$$##@o..O+++O+... oo@@##@$$$$$$$$$$$$$$$$$$$",
"$$$$$$$$$$$$$$$$$$$$###@oXX..O++++... @ooo@##$$$$$$$$$$$$$$$$$$$",
"$$$$$$$$$$$$$$$$$$$##@@oXXoo.O+O++O.. @##@o##@$$$$$$$$$$$$$$$$$$",
"$$$$$$$$$$$$$$$$$$##@@ooo@@@.OOO++OO. @@##@@##$$$$$$$$$$$$$$$$$$",
"$$$$$$$$$$$$$$$$$##@@@##@@$$.OO+O+.O  $$@##@##$$$$$$$$$$$$$$$$$$",
"$$$$$$$$$$$$$$$$##@@##@@$$$$.+O+O+..  $$$@##@#$$$$$$$$$$$$$$$$$$",
"$$$$$$$$$$$$$$$$#@###@$$$$$$.+++OO... $$$$####$$$$$$$$$$$$$$$$$$",
"$$$$$$$$$$$$$$$$###@$$$$$$$$.+++OO... $$$$$###$$$$$$$$$$$$$$$$$$",
"$$$$$$$$$$$$$$$$$$$$$$$$$$$$.O++O.. . $$$$$$$$$$$$$$$$$$$$$$$$$$",
"$$$$$$$$$$$$$$$$$$$$$$$$$$$$.O+.O..   $$$$$$$$$$$$$$$$$$$$$$$$$$",
"$$$$$$$$$$$$$$$$$$$$$$$$$$$$ OO.....  $$$$$$$$$$$$$$$$$$$$$$$$$$",
"$$$$$$$$$$$$$$$$$$$$$$$$$$$$ .OO....  $$$$$$$$$$$$$$$$$$$$$$$$$$",
"$$$$$$$$$$$$$$$$$$$$$$$$$$$$ ..... .  $$$$$$$$$$$$$$$$$$$$$$$$$$",
"$$$$$$$$$$$$$$$$$$$$$$$$$$$$  ....    $$$$$$$$$$$$$$$$$$$$$$$$$$"
};
