/* XPM */
static const char *orange_terracotta[] = {
/* columns rows colors chars-per-pixel */
"64 64 5 1 ",
"  c #9C5022",
". c #9F5224",
"X c #9F5327",
"o c #A25427",
"O c #A55728",
/* pixels */
"ooooXXXXXXXXXXXXXXXoooooXXXXXoooooXXXXoooooooooX.XX.XX..Xooooooo",
"oooXXXXoooXXXXXXoooooooooooXXXooooooXXXXooooXXXXXXXXXX..XXXXoooo",
"oooooXXXoooooOOOoooooooooXXXXXXXXooXXXooXXXooXXXXXXXXXXXooXXXXXo",
"ooXXXoooooOOOooOOooooooooooXXXXXXXoooooooXXXXXXXXXXXXooooooXXooo",
"oooXXXOXXoooOOooooXXXXooXXX.XXXXXXXXoooooOOOOOooXXXoooooooooXXoo",
"XXXXOOOOXXoooooXXXXXoooooXXXXX..XXXoooOOOOOooooX...XXXoooooooooo",
"ooXXXXXXOOXXOOOOOXXXXXXXXoo....oooooOOOOooooXXXX..XXXXXXXooooooo",
"oooooXXXXXXXXOOXXOOOXXXXoo......oooooOOOOOoooXXX..XXXXXooooooooo",
"oooooXXXXXXXXXXXXooooX..XXXXXX..XXXXXoooooooooooooXXOXXooooooooo",
"ooooXXXXXXXXXXXXXXXXXXX.XXXXXX..XXXXXXXXooooooooXXXOOOOOXXXooooo",
"oooooooo..XXooooo.XXXX..XXXXXX.XXXooooXXXXooXXoXXOOXoooXXXXXXXoo",
"ooooooooo...Xooo.XXXXX..XXXXXXXXooooXXXXXXXXXooooXooXXXXXXXXoooo",
"ooooooXXoooXXXoooooX.X..XXXXXXooooooooooXXXXXXXXXXXXXXXXXooooooo",
"oooooooo..XXooXXooXXo...XXXXooooooooooooooXXXXXXXXXXXXX.XXoooooo",
"oooooooooooXXooXXXooXXXXXooXXooooOOOXXoooXXXOOOXXXXXXXoooXXooooo",
"ooooooooooooXXXXXooXXXXXooooooOOOOXXXXXXooXXXXOOOOXXOOXXXoooXXoo",
"XXOOooooooooooXXXXXXX.XXXXoooOOOXXoXXXXooXXXXOOOOXXOOXXOOOXooXXX",
"oXXOOOooOOooXXXXXXXXXXXXXXXXoooOOXXooXXXoooXXXXXOOXXXOOOOXooXXXo",
"ooXXXXOOOOOOoooooXXXXXX.X..XXXXXX...XXXXXXXXXXXXooooXXXXXooooooo",
"oXXooXXOOXXXooooXXXXXXX....XXXXXXX..XXXXXXXXXXooXXoXXXXXXXXXoooo",
"oXooooooXXXoooXXXXXXXX..XXXXXXXX....XXXXXXoXXXXooooooo.XXXXXXXXo",
"XXXXoooooooXXXoXXXXXXX.XXXX.XX......XXXooooooooooooX...XXXXXXXoo",
"XXXooXXXooooXXXooooXXXXXXXX.XXooXXXXXXXXo..ooooXXXXX..XXXXXXXX..",
"XXXXXXXooooooooooX.XXXXX..XXooo.XXXXXXXXXoooXXXXXXXX.XXXXXXX....",
"XXXXXoOOooooOOooXXXXXX....oXXooooXXoooooooOOOOOXXXXoooooXXXXXX..",
"XoXXoooOOOoooOOOooooXXXXXXXoooooooooooOOOOOOOXXOOOXXXXooooXXXX..",
"XXooooooooOOOOOooOOoooXXXXXXXXXXXoOOOooOOoooOOXXXXXXooXXXXXXXXX.",
"ooooooooooooOOOOOooooXXXXXXXXXXXoooOOOOOOOooooXXoooooooXXXXXXX..",
"ooooXXXXooooX..OOOXX..XXXXXXXXXXXX.X....XXXoooooXXXXoooooooXXXoo",
"ooXXXXXooooooXX.XXXX..XXXXXXXXXXXXX....XXXXXXXoooXXXXXoooooooXXo",
"oXXXooooooo.....XXXXXXXXXX.X..XXXX....XXXXXXXXXXXXXoooOOOOoooooo",
"oooXXXooooX...XXXXXXXXXXXX.X....XX....XXXXXXXXXXoooooooOOOOOoooo",
"oooXXXOOOooooXXXXXXXXXooOOOOXXXXXXXXXXXXXXXXoooooooOOOOoOOOOOOOO",
"XXXXXXXXOOOOXXXXXXXXXoOOOOXXXXXXXXXXXXXXXoooooooooooOOOOooOOOOOo",
"oXXXoooooXXXOOOOXXooOOOXXXXXXXXXXXXXXXXXXOOOOXXXoooOOoooOOOoOOXX",
"oooXXoXXXooXXXOXXooooOOOOOXX.XXXXXXXXXOOOOOXXXoooooooooooOoooOOo",
"oooXXXXoooooooooooooXXXXXXXXXXX.XXXXOOOOOXooXXXoooXXXooooooOOooo",
"oooooXXXooooooooXXoooXXXXXXXXXXX..XXXOOOOOXoooXXXX.XXXXXXoOOoooo",
"oXXXooXXXXoooXXXoooXXXXXXXXXXXXXXXXX.oXXOOOOoXXXXoooXXXXoooooooo",
"oooXXXXoooooooXXXXXXXooXXXXXXXXXXXXXoooooXXoooooooXXXXoooooooooo",
"oooooooooooOOOOOooooooXX..XXXXXXXXXXXXXoXXooooooXXXXXXXXoooooooo",
"ooooooooOOOoooOOOOOOooooo...XXXXXXXXXXXXoooooooooXooXXXooooooooo",
"oooooooooOOOooooOooOOOooooooXXXXXXXXXXoooooooooooooooooooooooooo",
"XXooooooooooooooooOOOoXXXoo.XXXX..XXooooXXXXoooOOooooooooooooo..",
"XXXXXXooooOOooOooooooooXXXoooooo.XooooOOOXXoooOOOOOOoooooooXXXX.",
"XXXXXoXXoooOOOooooooXXooXXXXooooooXXOOOXXOXXXXooOOOooOOoooooXX..",
".XooXooXXXXXooooXXXoooXXXXooOOXXXOOXXOOOXXXXXooXXXOOOooooXXXXXXX",
".XXooXXXXXXoooXXXXXXXoooXooooOOXXXOOOXXXXXXXXXXXXXXXooXXXXXXXXXX",
".oooooooXXXXXXXX....XXXX...X..XoooooXXXXoooooooXXXXXXXXoooXXoooX",
"ooooXXXooXXXXXXX....XX.XX.X.X.XXXXooooXXXoooXXXXXXX.XX.XoooXXXoo",
"oooooXXXXoooXXXX....XX..X.XXXXXooooooooo...oooXXXXX.XX..XXXooXXX",
"XXXooooXXXooooXX....XXX.XXXX.ooXooooooooo...XXXXXXXXXXXXXXooXXXX",
"XXOOOOooooooooOOooXXXXX.XXXX.Xoooo..XXXXX...XXoooXXXXXXXXXXXXOOO",
"OOoooOOOooOOOOOooooooX..oooXXXXXX...XXXXXX..XoooXooXXXXXXOOOOOOO",
"ooooooooOOOOOOOOOoooX...XXoooXXXXX...XXXXXXXXXXXooXXXXOOXXOOOOoo",
"oooooooooOOOOOOOOOOOoo.XXoooXXXXXX...XXXXXXXXXXXXoooXXXOOOOooooo",
"oooooooXXXXXXXXXXXXXXoooX...XXXXXoooXXXXOOXXXXXXXXXXXooXXX..Xooo",
"ooooooXooXXXX.XXXXXXXXXXXXXXXXXooXXooXXXXXOOOOXXooXXXXXXXXoooooo",
"ooooooooXXXXXXoooXXXXXXXXXXXXXXXXXooooooXXXOOXXOXXoXX.XooXXooooo",
"ooooooooooXXooooXXXXXXXXXXXooXXXooXXooXXXXOOOOOXXoooXXXXoooooooo",
"oooXXXXXXXXXXXXXXX....XX..XXooooOOXXXXXXooXXXoXXXXXXXXXXXXXooooo",
"XXXXXoooXXXXXXX.XXXX..XXXXooooOXXOOOXXXXXooooXXooXXXXXXXXXXXoooo",
"ooXXoooXXXXXXXX.XXXo.XoooOOOOOOOOOOXXXoooXXXooooXXXXXXX.oooooooo",
"oooXXXoooXXXXXX.XX..oooOOOOOOXXXXXXXooooXXoooooooooXXXoooooooooo"
};
