/* XPM */
static const char *pale_moss_carpet[] = {
/* columns rows colors chars-per-pixel */
"64 64 6 1 ",
"  c #515551",
". c #595E58",
"X c #636962",
"o c #6D726B",
"O c #7A8077",
"+ c #899287",
/* pixels */
"ooX.XooXX..X.X.XooXXXXooX..XooX.XXoXooXoXXXoXooXooX..XXXooX.Xoo+",
"oo..oXOo..XXX..XXooXXooX..XXoXX..XXoXooXXXooooXooX..XXoXoX..ooOO",
"XX.XoOoOoX   ....XooOoOOXo.XXX...XooXXXXooXXXX.X..oOooXX..XoOoOO",
"oXXoOOOoXX..X   .XX.oOOoXooXX.  ..XX..XXXOoXXXX..XOoXX..X..XoOOo",
"oo.XooX....XX.X  .XX.XXXoooOOO.X ...ooXoOoOoX.XoOOXX...XoXXoXoXX",
"Xo..XX...XX.XX .. oX..XooXOOooX.  .XOooXXXoo.XOOOooXX...OoXXoXXX",
".XX.. XXoooXX..XXXXoX.oXXOoXo.X.XXoO++Oo..XX.oOooXXooX.XOOooooX.",
"XoX. .oOOOooXX..XoXoo.XoXoXoXX.XoO+++OoO.XX.XOoOOoXoXX..o+OooO..",
"... .XOOooOoooX.oOOoXX..X.XXoOoO++oXoX. XXooooOOXXoooo..Xo++OooX",
"X.. XooooXoooX.XOOoXXXXX.X..XoO++OXoOo .X.XoOOooX..XoX  .XoO++oo",
"XX  XoXoooXXoooXX.  ..XOoOoX.XoO++OOo. ..XXXXXo..XXX....  ..ooXX",
"X. .XXoooXXXXXoo.  .XooXOOOX..XooO++. ..XXXX..XoXXXXXX...   .XXX",
". ..X.XoooooX...Xoo++++OoOoOX.XXooX.  X.X...XXXXoXooooXX..XXX.. ",
"  .X..XoXooX.. XoO++OOO+O+OoX.ooXX.. .XX...XXXXXXoOooXoooXXX....",
". ...X.XoXX.. XoO+oXoo+++OOO.ooooXX..XXXXooXXoXoOOooOOOoXXX.XXX.",
".  .XX..XoXX. oOooXooOoO++OoXXXoXXXX.X.XXXooXXOO+OOooOOOoo...X.X",
"oX ...XXXX..  XoooooooXoO++XXX.XoXX.X...ooXXOOoOO++OOoooXXoX..Xo",
"oo.  ...XXX. .oXXooXXXOoO+oo..XXXXXXX..XXXXXoOOOOO++oOoXXoX..XXX",
".XX.  .X.XXOoXXX.XX.XoOO+OXoX...X.XX...X..XXXoOO++OO++OoOooXXXoo",
"X... .XXXXXoOOo....oooOO+X.X...XXX.XX...XXXoOo+++OooO++OooXooXXo",
"oXooXXXoX.ooXX.X..XoXOO+oo..ooXXXX..XooXoXoO++oOXoXOoOoXoXoX...X",
"XXXoooXX.XoX....  .XoooOo.XooXXX....XXooXoO++OOooX.XOoXXXoXXX...",
"oXXX.XoX.XXXX  ..XX..XoX...X....  .XXoOOoXooO++OX.XXXoXXX..XXXXX",
"XoX..oXoX.X.  ..XooX..XoX.....   .XXOOOooooO++OO....ooooXX..XXoo",
"XXooX..XXooX. .XoXoooXoXooX.  ..XooXooooX.O+OoXOOoX..XXX.XXoooX.",
"XooX..XXooXo..X.XXooXXXooX. ...XXX..XoXXXXoOOoooOO..  ..XXoXoX..",
"OOooX.ooXXoXXo..XXXXXX.XX...XXo...XXoXoOOoOoOOooXooXX.   .XX...X",
"oOOOoXXooXXooXXXoXX.XoX...XXoo  .XXoXXOO++oOOoXooX.X....  X..XX.",
".XXoOOoXoX..XX.XXoX..XoXXooXX..  .XX..XoOO++OOOoX.Xoo.XX...XXX  ",
"   .XoooXoX..XX.XX..ooXXoOOOoXXX....XooOO+O++OoooXooXX.XXX..XoX.",
"..  .XXX.XooOX  .XXX.XoOOOooXXXoXXXoOoO++OOoOooOoooOooXXooXoOX.X",
"... X.X...XO+O.  ..XXXOoooXXooooOoXXoO++OXXooXoOXoooOooXXOOOX.XX",
"X.. ...oXoOOO++o..  .XXXoooooOOOO++OO+OOXX.XXoOoXoO+OO++++OoXXo.",
".. ..ooooXoXoO++X.....XoooooOOO++O+++OOoooX...oooXoO+++++oXXooX.",
"....XXooXXX..XoO+OoXXX.oXooOooOOXooO+++OX..X...Xoooo.XOOoXXooXXX",
".X.XXXXX...XXoO+OoXooX.XoooooOOooXOoO+O+oXooXX..XooXX..XooooX.X.",
".X...X....XooXXXooOXooX.oXooXXoXX..XooO+++OooXXo.XXooX...X...Xo.",
"X..X....XXooXXoOOOooXXX.ooXXXooo....XO+++OOOXooX.XoXooXX....XooX",
"..X....XooXXooO+OoXXoX.XXooXXXX.XX.XXOOooooOooXoXX.XXXooX.XXXoXX",
"X.....XX.ooooo++oXXoooXX..XoX.XooXX.oOooooOoOoXXXX..XooX.XXXo..X",
"o..X....oOoO++OoXoooXX..XOOOoX.XooX.XoXoooooOXXXXX .XXXX++Oo.XXo",
"XX..X..XOO++OOoXoXXXX..XOoXooo.XXXXXoOoXoOoOOXoXX.. XXXOO+++XXoo",
"XooXXoXoooOOooXXXXX..XXoXooXXoXXoXoO++OXooOOOooXX.. .XOooooOOooX",
"oXXXooXXoooXXXXX...XXXXXooXXoOXoXO+++OoXXooOooXX.X  .XoooXXooOoo",
"XXXXXXoX..XXoooXXXXXooXXXXoOOooO++OOooOoXXoXooXXX. XXoXoooXXXXXo",
"oooXoXXoX..XXXooXXoooXoXoXOoOO+++OOooXoXXXooXoXX. .oooooXooX..XX",
"o...XXooXXXX. .XXoooXXX.XooO+++OoOXoXX.XXoXoXXXXX.oXooOOoXX.XXoo",
"XX....XXoXX...  XXoXXX.XOO+++OooOoXXo.XXooXoX.XoXXXoOOOoXX..XooX",
"ooXXXX.XoooXXX. ..XXoXoOo+OOooXOOOoXXXoXoXoo.XXXoXoOooXX...XXXXo",
"OOooXXXXooXXo...ooOoXoOoOO++OOoXoOX.XXXoXXoX.XXooooooXX.XX.XXoXX",
"oOOooooXXoooXoXoOO.XX.XoXooo++OOoX.X.XXXXX..XX..XoooXooXXX.XXXoo",
"ooXXXoXX.oOooOOOoXX...XXooO++OOoXo..XXoX...XXoXX.XXoXXooXXX.XXXo",
"XXXXoOoo.XoO++OX. ..XX.XXOooOo..XXXXoo..XXXOoOoXXXXXXooO++OooXoX",
"XXXoOOOoX.XoooXXX.  .X..XXoooXX...XooXX..XooO+ooX.XXoO+++OOOooXX",
"X.OoooOooXXX.... .X.   .XXXXoooXoXXX..XXOoO++OOXoX.XO+OOOoooOOoX",
".XOooooOoX.X..  .X.XX..XXoXXXXOoXX...XXXoO++OoXXoo.o+++OoOooOOXo",
".XoOoOXoX....XXoX.XXoXXXooooOOoooXX.oXoXX++OoXooXoXo+OoXXooOOooX",
"..XOOoX.XX .X.ooXX..oooXXXOOoooooOXXXooO++O+OooXXXXXO+ooXXXoooXX",
"X..XXooX.  .ooXXoO++OoXXoOOooX.XOoXooO++OOoOOOooXX.XooOooXooXXoo",
"XX....XoX.  XoXoO+++++OoXOooX..oOXoOO+OoOOOoooXXXoX.XoOooooXXooX",
"XooXX..  .. .XoO+oooOOOOooOooXoOo.XoOOOOoOoXXXooooX.X.OOXXooOOoo",
"oXooXX..   ..XOOoOooooOOOoOXooOOXX..oOooOoXoXXXXoXXX.XoOoooooOOo",
"oooXX...XX.  .oOoooXXooXXooXXX.XXo.XOOOOo+O+oO..XXXX.XooXoXoXo+O",
"OoXX.XX..XX...X.OoXXooXoX.ooXoX.ooXXXOOOoO++OoXX..X.XXoXXooX.o++"
};
