/* XPM */
static const char *pale_oak_door_bottom[] = {
/* columns rows colors chars-per-pixel */
"64 64 9 1 ",
"  c gray29",
". c #5F5F5F",
"X c #6F6F6F",
"o c #B0A4A4",
"O c #C7B8B8",
"+ c #DDCECD",
"@ c #E7E3E1",
"# c #FAEFEE",
"$ c #FFFBF8",
/* pixels */
"X.  @#######@@@@@@@@@++++++@@@@@@@##@###@@@   ....   o#####$##OO",
"X.  @#######+@@@@@@@@@@@++++++@@@@@@@@@@@++          o####$###OO",
".   @@######++@@@@@@@@++++++++++++@@@@@+++O.  oooo  .o@###$#$#OO",
"    @@######++++++++++++++++++++++++++++OO ..oooooo.. o###$$$#OO",
"##@@@@###$##oooooooooooooooooooooooooooooo . oOOOOo ..o###$$$#OO",
"##@@#@###$##oooooooooooooooooooooooooooooo.. OOOOOO ..o@##$$##OO",
"$##@########ooOO++++++++OOOO++OO++++++OOO ..O++OOOOo.. o#$$$##OO",
"$##@########ooO+++++@+++OO++@+++@+++@+OOO . O+++OOOo . o#$#$##OO",
"$$##$####$##oo++@+++@@++O+++@@++@@++@@+OO.. ++@+O+OO ..o#$####OO",
"$$##$####$##oo+@@++@#@++O+++@@++@@++@@+O ..O@+@@++OOo.. $$####OO",
"$$##$$##$$##oo+@@@+@#@+@+++++@+@@@+@#@++ . +@@@@+++Oo.. $$##$#OO",
"$$##$$##$$$#oo+@@@+@#@@@+++++@+@@@@@##+O   @@@@@+++Oo   $$##$#OO",
"$$###$#$$#$#oo@@@@@@@#@@++++++@@@@@@#@++................#$$#$#OO",
"$$###$$$$###oo@@@@@@@#@@+++@++@@@@@#@#++...XXXXXXX......#$$$$#OO",
"$$####$$$###oo+@@#@@@##@+++@@+@#@@##@@++ .XXXXXX....... ##$$##OO",
"$$####$$####oo+@##@#@##@++@@@+@#@@##@@++  ............  ##$$##OO",
"$$###$$$####oo@@#@@####@++@@@@##@@@#@#++OOOOOOOOOOOOOOO@##$###OO",
"$$##$$#$####oo@@#@@####@++@@@@##@@@###++++@@++++@@++@@@@######OO",
"$$##$$#####@oo@@@@@@##$#++@@@@##@@@@#$++++@@@+++@@++@@#@#$####OO",
"$$##$$#####@oo@@@@@@##$#++@@@@##@@@@$$+++@@@#++@@@++@@##$#####OO",
"$$###$@###@@oo@@@#@@#$$#++@@#@##@@#@$$+++@@@#@+@@@++@###$#####OO",
"$$###$@@##@@oo@@##@@#$$#++@@#@###@##$#+++@@@#@+@@@++@###$$####OO",
"$$#####@#@#@oo@@##@##$##++@@##$##@#$##++@@@@##@@#@++###$$$####OO",
"$$#####@#@@@oo@@##@#####++@###$##@$$##++@@#@##@@##++###$#$####OO",
"$$######@@@@oo@@####$###++@##$$###$$$#++@@####@###++##$$###$##OO",
"$$######@@@@oo@@####$#$#++@##$$#$#$$$#++@@####@###++##$$###$##OO",
"$$######@#@@oo@##$##$$$#++##$$##$$$#$$++@####$####++###$##$$##OO",
"$$@#@#####@@oo@##$##$$$#O+##$$##$$$#$$++@####$####++######$$##OO",
"$$@@@##@##@@oo@#$$#$$$##O+###$#$$$$##$++######$###++@####$$$##OO",
"$$#@@@#@@#@@oo@#$$$$$$##O+###$$$$$###$++######$###++@####$$$$#OO",
"$$#@@@##@#@#oo@#$$$$#$##++@###$$$$####++###$#$$###+O@@###$#$$$OO",
"$$#@#@##@###oo@#$#$$#$##O+@###$$#$####++##$$#$$$##+O@@#####$$$OO",
"$$###@#####@oo@###$#####O+@@##$$######++##$$#$#$##++#@#@###$#$OO",
"$$##@@#####@oo@###$##$##OO@@##$#######++##$#$$#$##+O###@#####$OO",
"$$#@#@@###@@oo#######$##OO#@#####@####++####$$####+O##@@######OO",
"$$#@#@@#@#@@oo##########OO#@#####@####++####$##@##+O##@@######OO",
"$#@@##@#@@@@oo###@######OO######@####......####@##+O##@#######OO",
"$@@@@#@@#@@@oo###@######OO####@#@###..XXXXX.##@@#@+O#######$##OO",
"#@@@@@@@@@@@oo##@@######OO####@@@###.XXXX...##@@@@+O#@####$$##OO",
"++++++++@+@@oo##@@@#####OO###@@@####.XXX....#@@@@@OO#@####$$$#OO",
"  ..............................    .XX.......... OO@@####$$$#OO",
" .................................. .XX........... O@@###$$#$#OO",
".........XXXXXXXXXXXXXXXXXXX.........X..... ....... +@@##$$###OO",
"....XXXXXXXXXXXXXXXXXXXXX.......... .X..... ....... +@@##$#$##OO",
" .................................. .X..... ....... @@@@#$####OO",
" .................................  .X..... ......  @@#@$$####OO",
"  ..............................    .X..... ....   O+@##$$####OO",
"          .               ...        .....        OO+@@##$####OO",
"##OOOOOOOOOOOOooooooOOOooooooooooooo .....  oooOoOOO++@####@##OO",
"##OOOOOOOOOOOOOOOOOOOOOOOOOOOOOOOOOo  ...  .oOOOO++O++@@###@##OO",
"##OOOO++++OOOOOOOO++++OOOOOOOOOOOOOO       .OOO+++O++@@@##@@##OO",
"##O++++++OOOOOO++++++OOOOO++++OOOOOOO     .OOO+++++++@@@@#@@##OO",
"##+++++OOOO+++++++++++++++++OOOO++++OOOOOOOOOOOO+++@+@@@@@@##@OO",
"##++++++OOOO+++++++++++++++++OOOO+++++OOOOOOO++++++@@@@@@#@##@OO",
"$#++OO+++++++++++++++++++++++++++++OOOOO++++++++++++@@@@@@##@@OO",
"##+++++++++++++++++++++++++++++OOOOOOOOOOO++++++++++@@@@@@##@@OO",
"$#++++++++++++++++++++++++++++++OOOO++++++OOO+++++++@@+@@@@#@+OO",
"$#++++++++++++++++++++++++OO++OOOO++++++++++OO+++++++@+@@@@@@+OO",
"$#+++++++++++++++++++++++++++++++++++++++++++++++++++@++@@@@++OO",
"$#++++++++++++++++++++++++++++++++++++++++++++++++++++++@+@@++OO",
"##++++++++++++++++++++++++++++++++++++++++++++++++++++++++@@+@OO",
"##+++++++++++++++++++++++++++++++++++++++++++++++++++++++++@@@OO",
"#+OOOOOOOOOOOOOOOOOOOOoOOooooOOOOOOoooooooooOOOOOOOOOOoOOOOOOOOO",
"+OOOOOoOooOOooooooOooooooooooooOoooooooooooooooooOOOooooOoOOOOOO"
};
