/* XPM */
static const char *pearlescent_froglight_top[] = {
/* columns rows colors chars-per-pixel */
"64 64 6 1 ",
"  c #C2A4C3",
". c #D4BFC8",
"X c #E2D3D3",
"o c #EFE6E1",
"O c #F9F4F3",
"+ c #FFFEFD",
/* pixels */
"    ...XXXXXXooooXXXoooXXoooooXXXXooooooooXX..XXoXXXXX..        ",
"   ..XXXXXoXooooXoXXOoXXoOooOooXXoXooOoooXoX..XXooXoXXX....     ",
" ..XXoooXXoooOooooXoOOoXOOoOOOoXoOXooOOooXoXX.XoOoXoXXooXXXXX.. ",
". ..XXoooXooOOooOoXoOOoXoOOO+OoXOOooOOOoOoooX.ooOOoOXooooooX.. .",
"..X.oXoOoXOoOOooOOoo+OooO+OO++ooOOOoO+OoOOooo.oO+OoOXoOoOOoooX..",
"..XXoooOooOO+OoOOOoO+OOoO+OO++OoO+OoO+OO+OoOoXOO+OOOXoOOOOooXXX.",
". XXoOoOOoO++OOO+OoO++OO++O+++OoO+OO++OO++OOoXO++OOOoOO+OoooooX.",
"  .XoOOOOo++O+OO++oO++O++++++++o+++O+++O++O+oXO+O+OOoO++OoOOoXX.",
" .XXooOO+O++++O+++OO+++++++++++O+++O++++++++OoO+O++OO++OOOOoooXX",
" .XXXooO++++++++++OO++O++++++++O+++++++++++++o++O++OO++OOOoXXXXX",
"..XooOOO++++++++++O+++O++++++++++++++++++++++O+++++O++OOooXXXX..",
".XXXooOOO+++++++++O++++O+++++++++++++++++++++O++++++++++Oooo....",
"XXXXXXXXooOO++++++++++++++++++++++++++++++++++++++++++++++OOooX.",
"XXXXXooooOO+++++++++++++++++++++++++++++++++++++++++++OOOOoooXXX",
"XXoooOOO++++++++++++++++++++++++++++++++++++++++++++OOOOOooOOOoX",
"XXXoooOOOO++++++++++++++++++++++++++++++++++++++++++++++OOOOOooX",
"XooOOOOO++OO++++++++++++++++++++++++++++++++++++++++++++++++OOoo",
"XXXooOO++OO+++++++++++++++++++++++++++++++++++++++++++++++OOoooo",
"....XXXooOooOO++++++++++++++++++++++++++++++++++++++++++OOOOOooo",
"..XoooooooOOO++++++++++++++++++++++++++++++++++++++++++++OOooooo",
"XXoooOOO+++++++++++++++++++++++++++++++++++++++++++++OOOOoooXXXo",
"XooOOOO+++++++++++++++++++++++++++++++++++++++++++++OOooooXXooXX",
"ooooOOOOO+++++++++++++++++++++++++++++++++++++++++++++OO+++OOooo",
"oOOOOO+++O++++++++++++++++++++++++++++++++++++++++++++++++++OOOo",
"OOOO+++++++++++++++++++++++++++++++++++++++++++++++++++++OOOOooo",
"OOO+OOOO++++++++++++++++++++++++++++++++++++++++++++++++++OooOOo",
"OOooOO+++++++++++++++++++++++++++++++++++++++++++++++++OOOOOOOoo",
"oooOOOO++++++++++++++++++++++++++++++++++++++++++++++++++Ooooooo",
"ooooooooOO++++++++++++++++++++++++++++++++++++++++++++++++OOoXXo",
"ooooOOOO++++++++++++++++++++++++++++++++++++++++++++++OOOOOOOooX",
"ooOOOO+++++++++++++++++++++++++++++++++++++++++++++OOOOOooooXXXX",
"oOOO+++++++++++++++++++++++++++++++++++++++++++++++++++OOOOooXXX",
"ooooOOOO+++++++++++++++++++++++++++++++++++++++++++++++++++OOOoo",
"XooOOOO++++++++++++++++++++++++++++++++++++++++++++++++++OO+OoXo",
"XXooooooO++OO++++++++++++++++++++++++++++++++++++++++++++++++OXX",
"XXXXooOOOO++++++++++++++++++++++++++++++++++++++++++++++++++OOoX",
"XooOOOO++++++++++++++++++++++++++++++++++++++++++++++++++OOOOooo",
"oOOO+++++++++++++++++++++++++++++++++++++++++++++++++++++++++OoX",
"OOO++OOO++++++++++++++++++++++++++++++++++++++++++++++++++OOOOoo",
"OOOOO++++++++++++++++++++++++++++++++++++++++++++++++++++++OOOOo",
"oOOOOOO++++++++++++++++++++++++++++++++++++++++++++++++++OOOOooo",
"oooO++++++++++++++++++++++++++++++++++++++++++++++++++OOOOoooooo",
"ooOOOO++++++++++++++++++++++++++++++++++++++++++++++++++O++Ooooo",
"XoooOOOOO++++++++++++++++++++++++++++++++++++++++++++++++OOOOooX",
"XXXXXXooOOOO++++++++++++++++++++++++++++++++++++++++OOOOOOOooXXX",
"XXXooOOO+++++++++++++++++++++++++++++++++++++++++++++OoOOoooXXXX",
"XoOO++OOO+++++++++++++++++++++++++++++++++++++++++OOOooooXXXoooX",
"oooOO++++++++++++++++++++++++++++++++++++++++++++++++++OOOooooXo",
"oooooOO++++++++++++++++++++++++++++++++++++++++++++++++++OOooooo",
"oOOOOO++++OOO++++++++++++++++++++++++++++++++++++++++++++++OOOoX",
"XoooOOOOOOO+++++++++++++++++++++++++++++++++++++++++++++OOOOoXXX",
"XXooooOOO++++++++++++++++++++++++++++++++++++++++++++++++OooooX.",
"....XXXXoOOO+++++++O+++++++++++++++++++++++++++++O+++OOOOoXXXX..",
"..XXXXooooO+++O++++O+++++O+++++++++++++++O+++++++O++OOOoXXX..XX.",
"XXXXooOOOOooO+O++++o+++++O+++++++O+++++++O+++O++OO++++++OOOoo.. ",
"XXooOOOO++OOOOO+++Oo+++++O++O++++O+++++++O+++O++OO+++++++OooXX. ",
"XXXooooOO++OOOO+++OoO++O+oO+O+++OO+++++++O+++O++Oo++++OoooXXXX..",
"XXooooOOOOOOOoO+++oXOO+OOoO+O+++OOO++++++O++OO++OoO+++OOOooXXX..",
"XXXXooooOOOOOoO++OoXOO+OOoOOO+++OoOO++++OoO+OO+OOoOO+++OoXXXX.. ",
".XXXXXXooOOOooOO+ooXOOOOooOOO+O+OoO+++++OoO+OO+OOoO++OooXXX.X.. ",
"....XXooOOOoXoOoOoo.oOOOooOO+OOOoooO+++OOoOOoO+OOOoO+OOOooXX..  ",
"...XXXXXooooXXooOoX.XoOOooOO+OOOoXoOO++OooOOoOOOoOoO+OOOOooX..  ",
"   ...XXXX..XXXooX..XoOoooOoOOOooXXoO+OOooOooOOOoooOOOOoXXX. .  ",
"        ...XXXXXXX...XoooooooOooXXXoOOOoooooooOOOoooOOoooXXX.   "
};
