/* XPM */
static const char *peony_top[] = {
/* columns rows colors chars-per-pixel */
"64 64 10 1 ",
"  c #1A381F",
". c #204626",
"X c #265A25",
"o c #266325",
"O c #DE93F1",
"+ c #E3A1F7",
"@ c #E4AFF4",
"# c #EBC5FD",
"$ c #F6E2FF",
"% c None",
/* pixels */
"%%%%%%%%%%%%%%%%%%%%%%%%%%%%%%%%%%%%%%%%%%%%%%%%%%%%%%%%%%%%%%%%",
"%%%%%%%%%%%%%%%%%%%%%%%%%%%%%%%%%%%%%%%%%%%%%%%%%%%%%%%%%%%%%%%%",
"%%%%%%%%%%%%%%%%%%%%%%%%%%%%%%%%%%%%%%%%%%%%%%%%%%%%%%%%%%%%%%%%",
"%%%%%%%%%%%%%%%%%%%%%%%%%%%%%%%%%%%%%%%%%%%%%%%%%%%%%%%%%%%%%%%%",
"%%%%%%%%%%%%%%%%%%%%%%%%%%%%%%%%%%%%%%%%%%%%%%%%%%%%%%%%%%%%%%%%",
"%%%%%%%%%%%%%%%%%%%%%%%%%%%%%%%%%%%%%%%%%%%%%%%%%%%%%%%%%%%%%%%%",
"%%%%%%%%%%%%%%%%%%%%%%%%%%%%%%%%%%%%%%%%%%%%%%%%%%%%%%%%%%%%%%%%",
"%%%%%%%%%%%%%%%%%%%%%%%%%%%%%%%%%%%%%%%%%%%%%%%%%%%%%%%%%%%%%%%%",
"%%%%%%%%%%%%%%%%%%%%%%%%%%%%%%%%%%%%%%%%%%%%%%%%%%%%%%%%%%%%%%%%",
"%%%%%%%%%%%%%%%%%%%%%%%%%%%%%%%%%%%%%%%%%%%%%%%%%%%%%%%%%%%%%%%%",
"%%%%%%%%%%%%%%%%%%%%%%%%%%%%%%%%%%%%%%%%%%%%%%%%%%%%%%%%%%%%%%%%",
"%%%%%%%%%%%%%%%%%%%%%%%%%%%%%%%%%%%%%%%%%%%%%%%%%%%%%%%%%%%%%%%%",
"%%%%%%%%%%%%%%%%%%%%%%%%%%%%%%%%%%%%%%%%%%%%%%%%%%%%%%%%%%%%%%%%",
"%%%%%%%%%%%%%%%%%%%%%%%%%%%%%%%%%%%%%%%%%%%%%%%%%%%%%%%%%%%%%%%%",
"%%%%%%%%%%%%%%%%%%%%%%%%%%%%%%%%%%%%%%%%%%%%%%%%%%%%%%%%%%%%%%%%",
"%%%%%%%%%%%%%%%%%%%%%%%%%%%%%%%%%%%%%%%%%%%%%%%%%%%%%%%%%%%%%%%%",
"%%%%%%%%%%%%%%%%%%%%%%%%%%%%%%%%%%%%%%%%%%%##%%%%%%%%%%%%%%%%%%%",
"%%%%%%%%%%%%%%%%%%%%%%%%%%%%%%%%%%%%%%%%%%##$$%%%%%%%%%%%%%%%%%%",
"%%%%%%%%%%%%%%%%%%%%%%%%%%%%%%%%%%%%%%%.%$#$$#$#%%%%%%%%%%%%%%%%",
"%%%%%%%%%%%%%%%%%%##%%%%%%%%%%%%%%%%%%..$$$$$$###%%%%%%%%%%%%%%%",
"%%%%%%%%%%%%%%%$%$$##%%%%%%%%%%%%%%%%o###$$###$@@@+%@%%%%%%%%%%%",
"%%%%%%%%%%%%%%$$$$###@@%%%%%%%%%%%%%%#$#$#$$#@@#@#@+@@%%%%%%%%%%",
"%%%%%%%%%%%%%#$$#$$#$#@@@X%%%%%%%%%%o.#$$$#@@@###@@@+@@%%%%%%%%%",
"%%%%%%%%%%%%#$##$$$$#@@@XXo%%%%%%%%%.@$$##@@@##@@##@++@%%%%%%%%%",
"%%%%%%%%%%#@##$$$$##$$##+oX%%%%%%%%X.@##$$###@@@##$#+@@@%%%%%%%%",
"%%%%%%%%%#@#$$#$$$$##$$+++Xo%%%%%%XX.O@##$$$##@#$$##@@#@%%%%%%%%",
"%%%%%%%%%##$#@@##$$$###$#+OX%%%%%%oX..O@#@@#$$$$$#@###@++%%%%%%%",
"%%%%%%%%@#$$@@##$$####$##@OO%%%%%.ooX..@@#@@##$##@@@#@++%%%%%%%%",
"%%%%%%%%%@$#@##$$@@#@$##@O@O.%%%%X.oXX..@@@@@##@@OO@@++%%%%%%%%%",
"%%%%%%%%%O#$#@$###@@##@@OOOOO.%%...XoX. @##@@@##@@OO@@+%%%%%%%%%",
"%%%%%%%%%%@#$$##@@##@@@+++OOXo%X  X.X. ..@####@@OO@@@+%%%%%%%%%%",
"%%%%%%%%%%@@#$$@@$#@@+@@+OO.XXX..  ...  OO@#@@@OOOO@OO+%%%%%%%%%",
"%%%%%%%%%@###@@$$#@++@#@OOOOX.   ..oo..  OO@@O@#@@OOO%%%%%%%%%%%",
"%%%%%%%%%$##@@##$$+@##@@+OOOO   ..oo..XX  .OO@#@++OO%%%%%%%%%%%%",
"%%%%%%%%##$$##@++@###@++OOO... .ooXXoX.Xoo  OO@++OO%%%%%%%%%%%%%",
"%%%%%%%%%+#$$#@@++@#@@+OO. ... XXoXoooX.XXX OOOO%O%%%%%%%%%%%%%%",
"%%%%%%%%%%+@@@##@@+++. O  . . XXXXooX...  .X.O%%%%%%%%%%%%%%%%%%",
"%%%%%%%%%%o+@##@@+++    ..   ...XoX..    ...%%%%%%%%X%%%%%%%%%%%",
"%%%%%%%%%%ooOO+++++  .... ..X  X..   .  . .%%%%%%%%oooX%%%%%%%%%",
"%%%%%%%%%%%oooO+.+    ..  .XX.  .   ...  ..%%%%%%XooXX%%%%%%%%%%",
"%%%%%%%%%%%%ooXXX... .   .oXoX.. ..  .. .X.X%%%%ooXX..%%%%%%%%%%",
"%%%%%%%%%%%%%%%o..XX.   .XXoooX. ..... ...XX%%%..oo. %%%%%%%%%%%",
"%%%%%%%%%%%%%%%%.XX  ...  ..XXoX  .  ....   .%. .   %%%%%%%%%%%%",
"%%%%%%%%%%%%%%%%X.  . X..  ..XX.. ..   ....  ...  %%%%%%%%%%%%%%",
"%%%%%%%%.X%%%%%  .. .XoX..  ..XX.  .. . Xo ...  %%%%%%%%%%%%%%%%",
"%%%%%%.oX...%%  ... ..Xo. ..XX..     ..XooXX.  ..%%%%%%%%%%%%%%%",
"%%%%%.XXoooXoXX.  .. XXXoXXXX..   .XoXXoX.... ..X.%%%%%%%%%%%%%%",
"%%%%%%%%XoooX..  .XX. .XooX..   ...oXX.X.. .   XXXoX%%%%%%%%%%%%",
"%%%%%%%%%.XoXX... .XX  .X#$$...  .  X..     ... .XXoo%%%%%%%%%%%",
"%%%%%%%%%%.X.XXo..  .X  #$$$$# .. .  ...   .oX...%.Xoo%%%%%%%%%%",
"%%%%%%%%%%%% .XXo.. #..$$$###$$+.       ..ooX. .%%%%%.X%%%%%%%%%",
"%%%%%%%%%%%%%  Xoo .$#$$##$#$$#O++    ...XoX... %%%%%%@%%%%%%%%%",
"%%%%%%%%%%%%%%  Xo.##$##$$$$#@@+O .. ...oXX...X .%%%#@O@%%%%%%%%",
"%%%%%%%%%%%%%%  XX$#$$@##$##@#+OOO.  .XXXooX.Xo. .####@OO%%%%%%%",
"%%%%%%%%%%%%%%%.X$#$#@#$$#+@++@#@@O.  .XXXoooo. ##@#@@OOOO%%%%%%",
"%%%%%%%%%%%%%%% .#$$@@$##@@++@#@#@+.  ....XoX. ##$#@OO@@O%%%%%%%",
"%%%%%%%%%%%%%%%%##$#@##$$##@##$#@++O. ..   .    $#@@@#$$@%%%%%%%",
"%%%%%%%%%%%%%%%%%@##+@##$$##$$##+++O . ..   . .#$$@##$$#%%%%%%%%",
"%%%%%%%%%%%%%%%%%%O+++@+@#$$$#++OOOO..   .....@##$$$$#@@@%%%%%%%",
"%%%%%%%%%%%%%%%%%%%OO++@#@###@@++OO. X. ...  . O@##$#@O@%%%%%%%%",
"%%%%%%%%%%%%%%%%%%%%OOO+@+@@##@+OO. XXX.    ... OO@@OO%%%%%%%%%%",
"%%%%%%%%%%%%%%%%%%%OOO+OO+++@@+O+.  .XXX.  .. ...OOOO%%%%%%%%%%%",
"%%%%%%%%%%%%%%%%%%%%OXOOOO+OOO.+   ....XX.   ...  .O%%%%%%%%%%%%",
"%%%%%%%%%%%%%%%%%%%X.XX.O+O.  .. X  .XX  ...  . .  .%%%%%%%%%%%%"
};
