/* XPM */
static const char *pink_tulip[] = {
/* columns rows colors chars-per-pixel */
"64 64 8 1 ",
"  c #177C04",
". c #4A8F28",
"X c #529A2E",
"o c #55AB2D",
"O c #E4AFF4",
"+ c #EBC5FD",
"@ c #F6E2FF",
"# c None",
/* pixels */
"################################################################",
"################################################################",
"################################################################",
"################################################################",
"################################################################",
"################################################################",
"################################################################",
"################################################################",
"################################################################",
"################################################################",
"################################################################",
"################################################################",
"##########################@####@@####+##########################",
"##########################@@##@++@##+@##########################",
"##########################+@++++++++@@##########################",
"##########################@++++++O++@+##########################",
"##########################@++++OO++@++##########################",
"##########################@++OOO++@@O+##########################",
"##########################@+++++@@@++O##########################",
"##########################@@++@@@++++O##########################",
"##########################@@@@+++++++O##########################",
"##########################+@@+++O++O+O##########################",
"###########################O+++O+++OO###########################",
"###########################O+++O+++OO###########################",
"############################O+OO++OO############################",
"#############################OOOO+O#############################",
"##############################OOOO##############################",
"###############################OO###############################",
"######################o########  ###############################",
"######################oo#######  ###############################",
"######################oXo######. ###############################",
"######################oXX######. ###############################",
"#####################oXXXo#####..########X######################",
"#####################oXXXo#####.X#######Xo######################",
"#####################oXXoX.####X.######Xoo######################",
"####################ooXXoXX####X.######XoX######################",
"####################oX.XooX.###X #####XoXX######################",
"####################oX..XoX.###X #####XoX.######################",
"####################oXX.XooX.##X ####XoXX.######################",
"####################oXX.XooXX#.X ####ooX.X######################",
"####################oXXXXXoXXXX. ###XoX..X######################",
"####################ooX.XXooXXX. ###ooX..X######################",
"####################ooXX.XXoXXX. ##XoX..XX######################",
"#####################ooX..XooX.  ##oXX..XX######################",
"#####################XoXX.XXoX.. .#oX...X.######################",
"#####################XoXX.XXoX.X  XXX...X.######################",
"######################oXXX.XoXXX  .XX..X. ######################",
"######################XoXX.XXoXX. .X...X. ######################",
"#######################ooX.XXoX.X .X..XX. ######################",
"#######################XoX..XooXX ..X.XX #######################",
"########################XoX.XXoX.. ...X. #######################",
"########################XXX.XXXoX. ..X.. #######################",
"#########################.X..XXXX.  .X. ########################",
"#########################.XX..XXX.. ... ########################",
"########################## X..X.X.. .. #########################",
"########################## .X...X..  . #########################",
"########################### ...X...   ##########################",
"########################### ...X...  ###########################",
"############################ .....  ############################",
"#############################.... ##############################",
"###############################. ###############################",
"###############################. ###############################",
"###############################  ###############################",
"###############################  ###############################"
};
