/* XPM */
static const char *pink_concrete_powder[] = {
/* columns rows colors chars-per-pixel */
"64 64 34 1 ",
"  c #D87B9D",
". c #D87C9E",
"X c #DA81A1",
"o c #DB84A4",
"O c #DB85A5",
"+ c #DC87A6",
"@ c #DC89A7",
"# c #DC8AA9",
"$ c #DD8CAA",
"% c #DE8EAC",
"& c #DF93AF",
"* c #DF94AF",
"= c #DF94B0",
"- c #E093AF",
"; c #E095AF",
": c #E094B0",
"> c #E095B1",
", c #E199B3",
"< c #E199B4",
"1 c #E29CB6",
"2 c #E39FB8",
"3 c #E3A0B8",
"4 c #E4A2BA",
"5 c #E4A4BB",
"6 c #E5A6BD",
"7 c #E6AABF",
"8 c #E6AAC0",
"9 c #E7AEC3",
"0 c #E8AFC3",
"q c #E8AFC4",
"w c #E9B4C7",
"e c #E9B4C8",
"r c #EBBBCD",
"t c #EBBCCD",
/* pixels */
",<=#,4<6,&>O#<1#&&&#<&>&1&=,>=%%,<=#,4<6,&>O#<1#&&&#<&>&1&=,>=%%",
">&<&#q>$2>&&&&>&&.>&,>%$&&&X<e&&>&<&#q>$2>&&&&>&&.>&,>%$&&&X<e&&",
"O&><>&O&=#<=&<>$>&&&&&$>&>>,=<1$O&><>&O&=#<=&<>$>&&&&&$>&>>,=<1$",
"&&=,&4&1&#<&>6=e<<>1%&&&>&&&1>,&&&=,&4&1&#<&>6=e<<>1%&&&>&&&1>,&",
"6<26&&&&&>>13>&&,&>&&X&1>>&1%&<=6<26&&&&&>>13>&&,&>&&X&1>>&1%&<=",
"#2>1>&><4&%>>&&&2<#&&<t><>X&%>#&#2>1>&><4&%>>&&&2<#&&<t><>X&%>#&",
"$<&1&11>X&6&6&><>&3<&&>#1<&><>9>$<&1&11>X&6&6&><>&3<&&>#1<&><>9>",
"#8&1t&1><&=>>>>,&<e&<11>>,6&>&&>#8&1t&1><&=>>>>,&<e&<11>>,6&>&&>",
">&,&&#,<&2>&&1#==X,&#>,><2>&*@$>>&,&&#,<&2>&&1#==X,&@>,><2>&*@$>",
"<>,<=&>,6O>&3e>&>&$6*&<<$$&&&>,;<>,<=&>,6O>&3e>&>&$6*&,<$$&&&>,;",
"e><%&,<>>&=#>&O>&$.&&,>&;&0&&$&>e><%&,<>>&=#>&O>&$.&&,>&;&0&&$&>",
"&&&<&&>,&<>>1;1&&1<<1$&X&>1>>*7&&&&<&&>,&<>>1;1&&1<<1$&X&>1>>*7&",
">>&&<&;>>>3;&;,&;1&X&3&>&$&$>*,O>>&&<&;>>>3;&;,&;1&X&3&>&$&$>*,O",
"w$<*&X&*,>>&7&1<@>&,&&&>,&@&5&@<w$<*&X&*,>>&7&1<@>&,&&&>,&@&5&@<",
">2>&26&$6&>&>,>&&2<62>,,&&,&&,&,>2>&26&$6&>&>,>&&2<62>,,&&,&&,&,",
"&9;*O@&&*>5>>,&<&&<$>&&&*>&;3&&<&9;*O@&&*>5>>,&<&&<$>&&&*>&;3&&<",
",,;&*>>9,O>1@,*X,<=#,4<6,&>O#<1#&&&#<&>&1&=,>=%%,&;&&>&>,&>1&<$$",
">t,&@0<3>;3*>&>6>&<&#q>$2>&&&&>&&.>&,>%$&&&X<e&&$&,&;0>>1t3&&&&&",
";.>>>&;&1>>>>&&$O&><>&O&=#<=&<>$>&&&&&$>&>>,=<1$;>>*>>;&&&&&&4&$",
"1&>,1@;7<@<>**1@&&=,&4&1&#<&>6=e<<>1%&&%>&&&1>,&;4>,&@&&&6>w>0>$",
"@>26>,*&>>1&1<&<6<26&&&&&>>13>&&,&>&&X&1>>&1%&<=<&&6&&&><><%<X;&",
">@&&>&>&>&>r&%&2#2>1>&><4&%>>&&&2<#&&<t><>X&%>#&><&&><@><&;&>1&%",
"0&&6&<&<;&&&&<-,$<&1&11>X&6&6&><>&3<&&>#1<&><>9>;&&O&<>@&>3&<&>2",
"*$&%r4<>>,&>&&&,#8&1t&1><&=>>>>,&<e&<11>>,6&>&&>&<>&2&$>>>$>&%>>",
"&O>$>@>#1&&&4&>>>&,&&#,<&2>&&1#==X,&#>,><2>&*@$>O6&<>42>&&>>&>$3",
"<;,<>&6&&>&>0>$&<>,<=&>,6O>&3e>&>&$6*&<<$$&&&>,;<;7<<&&&><O%>4&>",
">&<>&@&%><%@&;>>e><%&,<>>&=#>&O>&$.&&,>&;&0&&$&>,&&&&<,;&>4&>>+#",
"<@&>&&>& ;<>1&%>&&&<&&>,&<>>1;1&&1<<1$&X&>1>>*7&@26%&>>>&>&>w&>,",
"&><<><1&%3&<&&;&>>&&<&;>>>3;&;,&;1&X&3&>&$&$>*,O&&<<$-1>O>>;&><&",
"O><&&<#<<$>&7&>&w$<*&X&*,>>&7&1<@>&,&&&>,&@&5&@<&>-,$O>&&<1,&&&<",
"&2>&&><>+2>&&>>0>2>&26&$6&>&>,>&&2<62>,,&&,&&,&,#2&&&&&4&>#O>&&%",
"-,;&6>&&&O%r&<>&&9;*O@&&*>5>>,&<&&<$>&&&*>&;3&&<;2<$%@$&&>1>3,&<",
",<=#,4<6,&>O#<1#,,;&*>>9,O>1@,*X,&;&&>&;>&>1&<$$&&&#<&>&1&=,>=%%",
">&<&#q>$2>&&&&>&>t,&@0<3>;3*>&>6$&,&;0>>1t3&&&&&&.>&,>%$&&&X<e&&",
"O&><>&O&=#<=&<>$;.>>>&;&1>>>>&&$;>>*>>;&&&&&&4&$>&&&&&$>&>>,=<1$",
"&&=,&4&1&#<&>6=e1&>,1@;7<@<>&&<@;4>,&@&&&6>w>0>$<<>1%&&%>&&&1>,&",
"6<26&&&&&>>13>&&@>26>,*&>>1&1<&<<&&6&&&><><%<X;&,&>&&X&1>>&1%&<=",
"#2>1>&><4&%>>&&&>@&&>&>&>&>r&%&2><&&><@><&;&>1&%2<#&&<t><>X&%>#&",
"$<&1&11>X&6&6&><0&&6&<&<;&&&&<-,;&&O&<>@&>3&<&>2>&3<&&>#1<&><>9>",
"#8&1t&1><&=>>>>,*$&%r4<>>,&>&&&,&<>&2&$>>>$>&%>>&<e&<11>>,6&>&&>",
">&,&&#,<&2>&&1#=&O>$>@>#1&&&4&;>O6&<>42>&&>>&>$3=X,&#>,><2>&*@$>",
"<>,<=&>,6O>&3e>&<;,<>&6&&>&>0>$&<;7<<&&&><O%>4&>>&$6*&<<$$&&&>,;",
"e><%&,<>>&=#>&O>>&<>&@&%><%@&;>>,&&&&<,;&>4&>>+#&$.&&,>&;&0&&$&>",
"&&&<&&>,&<>>1;1&<@&>&&>& ;<>1&%>@26%&>>>&>&>w&>,&1<<1$&X&>1>>*7&",
">>&&<&;>>>3;&;,&&><<><1&%3&<&&;&&&<<$-1>O>>;&><&;1&X&3&>&$&$>*,O",
"w$<*&X&*,>>&7&1<O><&&<#<<$>&7&>&&>-,$O>&&<1,&&&<@>&,&&&>,&@&5&@<",
">2>&26&$6&>&>,>&&2>&&><>+2>&&>>0#2&&&&&4&>#O>&&%&2<62>,,&&,&&,&,",
"&9;*O@&&*>5>>,&<-,;&6>&&&O%r&<>&;2<$%@$&&>1>3,&<&&<$>&&&*>&;3&&<",
",,;&*>>9,O>1@,*X,&;&&>&>,&>1&<$$,,;&*>>9,O>1@,*X,&;&&>&>,&>1&<$$",
">t,&@0<3>;3*>&>6$&,&;0>>1t3&&&&&>t,&@0<3>;3*>&>6$&,&;0>>1t3&&&&&",
";.>>>&;&1>>>>&&$;>>*>>;&&&&&&4&$;.>>>&;&1>>>>&&$;>>*>>;&&&&&&4&$",
"1&>,1@;7<@<>**1@;4>,&@&&&6>w>0>$1&>,1@;7<@<>**1@;4>,&@&&&6>w>0>$",
"@>26>,*&;;<&1<&<<&&6&&&><><%<X;&@>26>,*&;;<&1<&<<&&6&&&><><%<X;&",
">@&&>&>&>&>r&%&2><&&><@><&;&>1&%>@&&>&>&>&>r&%&2><&&><@><&;&>1&%",
"0&&6&<&<;&&&&<-,;&&O&<>+&>3&<&>20&&6&<&<;&&&&<-,;&&O&<>+&>3&<&>2",
"*$&%r4<>>,&>&&&,&<>&2&$>>>$>&%>>*$&%r4<>>,&>&&&,&<>&2&$>>>$>&%>>",
"&O>$>@>#1&&&4&>>O6&<>42>&&>>&>$3&O>$>@>#1&&&4&>>O6&<>42>&&>>&>$3",
"<;,<>&6&&>&>0>$&<;7<<&&&><O%>4&><;,<>&6&&>&>0>$&<;7<<&&&><O%>4&>",
">&<>&@&%><%@&;>>,&&&&<,;&>4&>>+#>&<>&@&%><%@&;>>,&&&&<,;&>4&>>+#",
"<@&>&&>& ;<>1&%>@26%&>>>&>&>w&>><@&>&&>& ;<>1&%>@26%&>>>&>&>w&>>",
"&><<><1&%3&<&&;&&&<<$-1>O>>;&><&&><<><1&%3&<&&;&&&<<$-1>O>>;&><&",
"O><&&<#<<$>&7&>&&>-,$O>&&<1,&&&<O><&&<#<<$>&7&>&&>-,$O>&&<1,&&&<",
"&2>&&><>+2>&&>>0#2&&&&&4&>#O>&&%&2>&&><>+2>&&>>0#2&&&&&4&>#O>&&%",
"-,;&6>&&&O%r&<>&;2<$%@$&&>1>3,&<-,;&6>&&&O%r&<>&;2<$%@$&&>1>3,&<"
};
