/* XPM */
static const char *piston_top[] = {
/* columns rows colors chars-per-pixel */
"64 64 7 1 ",
"  c #67502C",
". c #7E6237",
"X c #9F844D",
"o c #AF8F55",
"O c #C29D62",
"+ c #CAC4C4",
"@ c gray86",
/* pixels */
"@@@@@@@+     .....          @@@@@@@@      ....   ..     +@@@@@@@",
"@@++++++   ..  .......      @@++++@@     .............  ++++++@@",
"@+++++++OOOOOOOOooOOOOoooo  @++++++@OOOOOOOOooOOOOOOOOoo+++++++@",
"@+++++++ooooXXoooooooooooo. @++++++@oooooooooooooooooooo+++++++@",
"@+++++++XXooooXXXoooooooXX..@++++++@ooooXXooooooooooXXXo+++++++@",
"@+++++++oXXXooooXXXoooXXXX..@++++++@ooXXXooooooXXXoooooX+++++++@",
"@+++++++ooooXXXooXooXXoooX. @++++++@ooooooooXoooooXXXooo+++++++@",
"++++++++ooooooXXXooooXXooo. ++++++++oooooXXXoXXoooooXXoo++++++++",
"  oXXXoooooooooooooooooooo. oooooooXXXooXXXooooooXXXooooooXXoo..",
"  ooooooXoooooooXXoooXXooo..ooooXXXoooooooXXXXooXXooooooooooXo..",
"  oXXXXXoooXoooooXXXoooXXo..oXoooXXXooXXXooooXXooooooooXXXXooo. ",
"  XXXoooooXXXXoooooXXXXXoo. ooXXXXooooooXXXoXoooooooXXXXXoooXX. ",
"        .....    .........          ... ....            .....   ",
"                                                                ",
"  ooooOOOOOOOOOOoooOOoOoOOOOOOOOoo  ooooooOOOOooOOOOOOOOOOOOoo  ",
"  oooooooooooooooooooooooooooooooo  XXooooooooooooooooooooooXX  ",
" .oXXXooXXooooooooooooXXXXooooXXXo  oXXoooooXXooXXooooooXXoooX. ",
" .XXXooooXXoooooooooXXXXooooXXXXoX  oooXXXooooXXXoooXXXoooXXoo. ",
"..XooooooooooXXooXXXooooooXXoooooo. XXXXXoooooooooXXoooooooXXo. ",
"..oXoooooooooooXXXoooooooooooooooo. oXooooooXXXooooXXooooooooo  ",
"..ooooXXXoooooooXXXooooXXXXXXooooo. ooooooXXoooooooooooXXXXooo. ",
"..XoooooXXXXoXXoooooooXXoooXXXXXoo. oooooooXXoXXXXooooXoooXXXo. ",
" .XXXooooooXXooXXooooooooXXooooXXX. oXXXooooooooXXXXooooXXooXX  ",
" .XXooooooXoooooXXXXoooXXXooooXXXX  XXooXXooooXXooXXXXoooooooo  ",
"  ...............      .........    ....................        ",
"       .....            ....         ......... ..   ..          ",
"  ooooOOOOOOooOOOO  OOooooOOOOOOOOOOOOoooo. OOOOOOOOooOOoooooo  ",
"  XXoooooooooooooo  oooooooooooooooooooooo. ooooooooooooooXXXX  ",
"@@@@@@@+ooXXXooooo  oooooooooXXXoooooooXoo. oooooooXXooo+@@@@@@@",
"@@++++++XXXooooXXo  oooooooXXooXXXooXXXooo  ooXXXXoooXXo++++++@@",
"@+++++++oooooXXXoo  XXXooooooooooooooXXXoo. XXXoooooooXX+++++++@",
"@+++++++ooXXXooooo  ooXXXXooooooooXXoooooo. oXXXooooXXXX+++++++@",
"@+++++++ooooooooXX  oooooXXXXoooooooXXXooo  oooooooooooX+++++++@",
"@+++++++ooooooXXXo  ooooXXXooXXXooooooXXXX  oooooooXoooo+++++++@",
"@+++++++ooXXXXoooo  ooXXooooooXXXooooXXXoo. ooooXXXooooo+++++++@",
"++++++++XooXoooXXo  ooooooXXoooooooooooooo. ooXXXoooooXX++++++++",
"  ooXoooXXooooooXX  XoooooooXXooooXXooooXX..oXXoooooXooXXXoooo..",
"  oooXXXooooooXXXX  XXXooooooXXXXXooooXXXo..oooXXooooXXXXooooo..",
"      ..........        ... ......  .......  ...     .......... ",
"         ....                ...      ....               .....  ",
"  ooooOOOOooooOOooOOOOOOOOoooo. ooOOOOOOooooooooOOOOOOOOOOOOoo. ",
"  oooooooooooooooooooooooooooo. ooooooooooXooooooooooooooooooo. ",
" .oooXXXoooooooooXooXXooXXoooo  ooooooXXXXoooooooooooooooXXooo. ",
" .oXXXXoooooooXXXXXXoooXXooXoo. ooooooooXXXXoooooXXXooXXXooXXX. ",
"..XXooooooooXXXooooooXXoooXXXo. XooXXooooooooXXXXooooooXXXoooo..",
"..ooXooooooooXXXoooooooooooooX  XXXoooooooooXXXooooooooooooooo..",
" .oooooXXooooooooooXXooooooooo  XXoooooXXXooooXXooooXXXXoooooo..",
" .ooooXXooooooooXXXXooXXoooooo  ooooXXXooooooooooooooooXXXooXX..",
"  oXXXooooooXXXooXooooooXoooXX  oooXXXooooooooooXXXXoooooXXXoo. ",
"  XXXooooooooXXXXoooooooooXXXo  ooXooooooXXoXXXXXXooooooXXXooo. ",
"     .... ...         .......          ....                 ..  ",
"                        ....                                    ",
"  OOoooooooOOOooOOOOOOOOOOOOOooooo  ooooOOOoOOOOOOOOOOOOOOOoOO  ",
"  oooooooooooooooooooooooooooooooo  oooooooooooooooooooooooooo  ",
" .ooXXXooooXooooooXXXXooooooooXooX  XXooooooooooooooooooXXoooo  ",
" .ooooXXXXooXXooXXXXoooXXXoooooXXX  oXXXooooooooooXXooXXXooXXX  ",
"@@@@@@@+oooooooXXoooooooXXXX@@@@@@@@oooooooXXXXXXXoooooX+@@@@@@@",
"@@++++++oooooooooXooXXoooXXX@@++++@@ooooXXXooXXXoooooooo++++++@@",
"@+++++++XXoooooooooXoooXXXoo@++++++@ooXXXoooXXoooooooooX+++++++@",
"@+++++++oXXoXXXXXoooXXXXoooo@++++++@ooooooooooooooooXXXX+++++++@",
"@+++++++oooooooXXXooooXXXooo@++++++@oXXXoooooooXXXXooXoo+++++++@",
"@+++++++ooooooXXooooooooooXX@++++++@XXooXXooooXooXXXXooo+++++++@",
"@+++++++....  .....         @++++++@       ...   ...... +++++++@",
"++++++++..                  ++++++++              .     ++++++++"
};
