/* XPM */
static const char *pitcher_crop_top_stage_4[] = {
/* columns rows colors chars-per-pixel */
"64 64 11 1 ",
"  c #572E4A",
". c #7F436C",
"X c #4D5499",
"o c #6F6CCC",
"O c #7086B5",
"+ c #7BAEC7",
"@ c #7BD4C7",
"# c #9585E6",
"$ c #BE9CFF",
"% c #8CF5CB",
"& c None",
/* pixels */
"&&&&&&&&&&&&&&&&&&&&&&&&&&&&&&&&&&&&&&&&&&&&&&&&&&&&&&&&&&&&&&&&",
"&&&&&&&&&&&&&&&&&&&&&&&&&&&&&&&&&&&&&&&&&&&&&&&&&&&&&&&&&&&&&&&&",
"&&&&&&&&&&&&&&&&&&&&&&&&&&&&&&&&&&&&&&&&&&&&&&&&&&&&&&&&&&&&&&&&",
"&&&&&&&&&&&&&&&&&&&&&&&&&&&&&&&&&&&&&&&&&&&&&&&&&&&&&&&&&&&&&&&&",
"&&&&&&&&&&&&&&&&&&&&&&&&&Xooooo#o&&&&&&&&&&&&&&&&&&&&&&&&&&&&&&&",
"&&&&&&&&&&&&&&&&&&&&&&XXXXXXoooo##oo&&&&&&&&&&&&&&&&&&&&&&&&&&&&",
"&&&&&&&&&&&&&&&&&&&&XXXXXXXXXXXooo####&&&&&&&&&&&&&&&&&&&&&&&&&&",
"&&&&&&&&&&&&&&&&&&XXXXXXXXXXXXXXXooo####&&&&&&&&&&&&&&&&&&&&&&&&",
"&&&&&&&&&&&&&&&&&XXXXXXXXooooooooXooo####&&&&&&&&&&&&&&&&&&&&&&&",
"&&&&&&&&&&&&&&&&XXXXXXoooooooooooooooo####&&&&&&&&&&&&&&&&&&&&&&",
"&&&&&&&&&&&&&&&&XXXXoooooooooo#####oooo####&&&&&&&&&&&&&&&&&&&&&",
"&&&&&&&&&&&&&&&&XXXooooooooo####oo####oo##$#&&&&&&&&&&&&&&&&&&&&",
"&&&&&&&&&&&&&&&&XXXoooooo##oo##o#$$$####o##$#&&&&&&&&&&&&&&&&&&&",
"&&&&&&&&&&&&&&&&XXoooooo##########$$$$###o#$$&&&&&&&&&&&&&&&&&&&",
"&&&&&&&&&&&&&&&&&Xoooooooo#$$$########$$$#o#$$&&&&&&&&&&&&&&&&&&",
"&&&&&&&&&&&&&&&&&XXoooXooo##$$$$####$$$$$$#o$$&&&&&&&&&&&&&&&&&&",
"&&&&&&&&&&&&&&&&&&XXoooXXoo####$$$$$$$$$$$$#$$#&&&&&&&&&&&&&&&&&",
"&&&&&&&&&&&&&&&&&&&XXoXXoooo##$$$$$$$$$$$$$$#$$&&&&&&&&&&&&&&&&&",
"&&&&&&&&&&&&&&&&&&&&&XXXXXoooo##$$#$$$$$$$$$#$$&&&&&&&&&&&&&&&&&",
"&&&&&&&&&&&&&&&&&&&&&&&XXXXXoooo##$$$$$$$$$$$#$#&&&&&&&&&&&&&&&&",
"&&&&&&&&&&&&&&&&&&&&&&&&&& .....oo###$$#$$$$$#$#&&&&&&&&&&&&&&&&",
"&&&&&&&&&&&&&&&&&&&&&&&&& .........o#####$$$$#$$&&&&&&&&&&&&&&&&",
"&&&&&&&&&&&&&&&&&&&&&&&&& ............oo##$$$$$$&&&&&&&&&&&&&&&&",
"&&&&&&&&&&&&&&&&&&&&&&&& .............. &&&#$$$$&&&&&&&&&&&&&&&&",
"&&&&&&&&&&&&&&&&&&&&&&&& .............. &&&&&&&&&&&&&&&&&&&&&&&&",
"&&&&&&&&&&&&&&&&&&&&&&&& .............. &&&&&&&&&&&&&&&&&&&&&&&&",
"&&&&&&&&&&&&&&&&&&&&&&&X .. ........... X&&&&&&&&&&&&&&&&&&&&&&&",
"&&&&&&&&&&&&&&&&&&&&&&XX   ...........  XX&&&&&&&&&&&&&&&&&&&&&&",
"&&&&&&&&&&&&&&&&&&&&&XXo  ........      oXX&&&&&&&&&&&&&&&&&&&&&",
"&&&&&&&&&&&&&&&&&&&&&XoX    ........    ooX&&&&&&&&&&&&&&&&&&&&&",
"&&&&&&&&&&&&&&&&&&&&XXoXX              XXoXX&&&&&&&&&&&&&&&&&&&&",
"&&&&&&&&&&&&&&&&&&&&XXooX              XXoXX&&&&&&&&&&&&&&&&&&&&",
"&&&&&&&&&&&&&&&&&&&&XXooXX            XXXXXX&&&&&&&&&&&&&&&&&&&&",
"&&&&&&&&&&&&&&&&&&&&&XXoXXX          XXXoXXX&&&&&&&&&&&&&&&&&&&&",
"&&&&&&&&&&&&&&&&&&&&&OXooXXo        XXoooXX&&&&&&&&&&&&&&&&&&&&&",
"&&&&&&&&&&&&&&&&&&&&++OXoooXXX    XXooooXXO+&&&&&&&&&&&&&&&&&&&&",
"&&&&&&&&&&&&&&&&&&&+++OOXoXXXXXXXooooooXOOO++&&&&&&&&&&&&&&&&&&&",
"&&&&&&&&&&&&&&&&&&++@++OOOoXXXXXXXoooXXOOO+++@&&&&&&&&&&&&&&&&&&",
"&&&&&&&&&&&&&&&&&@+@+++OOOO+oXXXooooX++++OO+++@&&&&&&&&&&&&&&&&&",
"&&&&&&&&&&&&&&&&&+@@++OO+++++OooooX++@@+++O+++@&&&&&&&&&&&&&&&&&",
"&&&&&&&&&&&&&&&&@+@@++O++@+@++OOO+@@@@+++++O+++@&&&&&&&&&&&&&&&&",
"&&&&&&&&&&&&&&&&+@@+++O+@@@++++O+@@@++@@@@+O++@@&&&&&&&&&&&&&&&&",
"&&&&&&&&&&&&&&&@@@@++O++++@@++OO+++@@@@@@@@+O+@@@&&&&&&&&&&&&&&&",
"&&&&&&&&&&&&&&&@@+@+OO++@@++++O+++++@@@@@@@@O+@+@&&&&&&&&&&&&&&&",
"&&&&&&&&&&&&&&@%%@++O+@@@++++OO++@@@@@@@@@@@O+++@%&&&&&&&&&&&&&&",
"&&&&&&&&&&&&&&%%@@+++++@@@+++OO@@@@@@@@@@@@@+O++@%&&&&&&&&&&&&&&",
"&&&&&&&&&&&&&@%%%%@+++@@@+@@+O+@@@@@@@@@@@@@@++@%%@&&&&&&&&&&&&&",
"&&&&&&&&&&&&&@@%%@@++@@@@@@++O@@@@@@@@@@@@@%@++@%@@&&&&&&&&&&&&&",
"&&&&&&&&&&&&&@@@@@+++%@@@@@+O+@@@@@@@@@@@%%@++@@@@@&&&&&&&&&&&&&",
"&&&&&&&&&&&&@@@@+@++@@%%@@@@O+@+@@@@@@%%%@@@+++@@@+@&&&&&&&&&&&&",
"&&&&&&&&&&&&@@@@++++@@@%%%@@+++@@@@@%%%%@@@@+@+@@@++&&&&&&&&&&&&",
"&&&&&&&&&&&&@@++++++@@@@%%%%@++@@%%%%@@@@@@+@@++@@++&&&&&&&&&&&&",
"&&&&&&&&&&&&@@@++++O@@@@@@@@++@@@@@@@@@@@@@@@@+++@++&&&&&&&&&&&&",
"&&&&&&&&&&&&@@@+++O+@@@@@@@@++@@@@@@@@@@@@@@@@+++@++&&&&&&&&&&&&",
"&&&&&&&&&&&&+@++++O++@@@@@@+O+@@@@@@@@@@@@@@@++++++@&&&&&&&&&&&&",
"&&&&&&&&&&&&+@++++O++@@@@@@+O+@@@@@@@@@@@+@@@++++++@&&&&&&&&&&&&",
"&&&&&&&&&&&&@++++O+++@@+@@++O++@@@@@@@@++@@@@+O++++@&&&&&&&&&&&&",
"&&&&&&&&&&&&@++++O++++@@++++OO+@@@+@@@@@@@@@++O+++@+&&&&&&&&&&&&",
"&&&&&&&&&&&&@+++OO++++++++++OO+@@++++@@@@@+++++O++++&&&&&&&&&&&&",
"&&&&&&&&&&&&++++OO+O+++++++OOO++@@++@@@@@@@++++O++++&&&&&&&&&&&&",
"&&&&&&&&&&&&O++OO+++OO+++++OO++++++++++++++++++OO+++&&&&&&&&&&&&",
"&&&&&&&&&&&&OOOOO+OOO+++++OOOOOO+++++OO++++++++OO+++&&&&&&&&&&&&",
"&&&&&&&&&&&&&OOO+++OOO+OOOOOOO++++OOOO+++++O++OOOO+&&&&&&&&&&&&&",
"&&&&&&&&&&&&&OOO+OOOO+++OOOO++++++++OOOO++++OOOOOOO&&&&&&&&&&&&&"
};
