/* XPM */
static const char *pitcher_crop_side[] = {
/* columns rows colors chars-per-pixel */
"64 64 9 1 ",
"  c #77452D",
". c #895033",
"X c #9F603F",
"o c #B5714A",
"O c #B97E51",
"+ c #C0915D",
"@ c #C49C63",
"# c #C7A568",
"$ c None",
/* pixels */
"$$$$$$$$$$$$$$$$$$$$$$$$$$$$$$$$$$$$$$$$$$$$$$$$$$$$$$$$$$$$$$$$",
"$$$$$$$$$$$$$$$$$$$$$$$$$$$$$$$$$$$$$$$$$$$$$$$$$$$$$$$$$$$$$$$$",
"$$$$$$$$$$$$$$$$$$$$$$$$$$$$$$$$$$$$$$$$$$$$$$$$$$$$$$$$$$$$$$$$",
"$$$$$$$$$$$$$$$$$$$$$$$$$$$$$$$$$$$$$$$$$$$$$$$$$$$$$$$$$$$$$$$$",
"$$$$$$$$$$$$$$$$$$$$$$$$$$$$$$$$$$$$$$$$$$$$$$$$$$$$$$$$$$$$$$$$",
"$$$$$$$$$$$$$$$$$$$$$$$$$$$$$$$$$$$$$$$$$$$$$$$$$$$$$$$$$$$$$$$$",
"$$$$$$$$$$$$$$$$$$$$$$$$$$$$$$$$$$$$$$$$$$$$$$$$$$$$$$$$$$$$$$$$",
"$$$$$$$$$$$$$$$$$$$$$$$$$$$$$$$$$$$$$$$$$$$$$$$$$$$$$$$$$$$$$$$$",
"$$$$$$$$$$$$$$$$$$$$$$$$$$$$$$$$$$$$$$$$$$$$$$$$$$$$$$$$$$$$$$$$",
"$$$$$$$$$$$$$$$$$$$$$$$$$$$$$$$$$$$$$$$$$$$$$$$$$$$$$$$$$$$$$$$$",
"$$$$$$$$$$$$$$$$$$$$$$$$$$$$$$$$$$$$$$$$$$$$$$$$$$$$$$$$$$$$$$$$",
"$$$$$$$$$$$$$$$$$$$$$$$$$$$$$$$$$$$$$$$$$$$$$$$$$$$$$$$$$$$$$$$$",
"$$$$$$$$$$$$$$$$$$$$$$$$$$$$$$$$$$$$$$$$$$$$$$$$$$$$$$$$$$$$$$$$",
"$$$$$$$$$$$$$$$$$$$$$$$$$$$$$$$$$$$$$$$$$$$$$$$$$$$$$$$$$$$$$$$$",
"$$$$$$$$$$$$$$$$$$$$$$$$$$$$$$$$$$$$$$$$$$$$$$$$$$$$$$$$$$$$$$$$",
"$$$$$$$$$$$$$$$$$$$$$$$$$$$$$$$$$$$$$$$$$$$$$$$$$$$$$$$$$$$$$$$$",
"$$$$$$$$$$$$$$$$$$$$$$$$$$$$$$$$$$$$$$$$$$$$$$$$$$$$$$$$$$$$$$$$",
"$$$$$$$$$$$$$$$$$$$$$$$$$$$$$$$$$$$$$$$$$$$$$$$$$$$$$$$$$$$$$$$$",
"$$$$$$$$$$$$$$$$$$$$$$$$$$$$$$$$$$$$$$$$$$$$$$$$$$$$$$$$$$$$$$$$",
"$$$$$$$$$$$$$$$$$$$$$$$$$$$$$$$$$$$$$$$$$$$$$$$$$$$$$$$$$$$$$$$$",
"$$$$$$$$$$$$$$$$$$$$$$$$$$$$$$$$$$$$$$$$$$$$$$$$$$$$$$$$$$$$$$$$",
"$$$$$$$$$$$$$$$$$$$$$$$$$$$$$$$$$$$$$$$$$$$$$$$$$$$$$$$$$$$$$$$$",
"$$$$$$$$$$$$$$$$$$$$$$$$$$$$$$$$$$$$$$$$$$$$$$$$$$$$$$$$$$$$$$$$",
"$$$$$$$$$$$$$$$$$$$$$$$$$$$$$$$$$$$$$$$$$$$$$$$$$$$$$$$$$$$$$$$$",
"$$$$$$$$$$$$$$$$$$$$$$$$$$$$$$$$$$$$$$$$$$$$$$$$$$$$$$$$$$$$$$$$",
"$$$$$$$$$$$$$$$$$$$$$$$$$$$$$$$$$$$$$$$$$$$$$$$$$$$$$$$$$$$$$$$$",
"$$$$$$$$$$$$$$$$$$$$$$$$$$$$$$$$$$$$$$$$$$$$$$$$$$$$$$$$$$$$$$$$",
"$$$$$$$$$$$$$$$$$$$$$$$$$$$$$$$$$$$$$$$$$$$$$$$$$$$$$$$$$$$$$$$$",
"$$$$$$$$$$$$$$$$$$$$$$$$$$$$$$$$$$$$$$$$$$$$$$$$$$$$$$$$$$$$$$$$",
"$$$$$$$$$$$$$$$$$$$$$$$$$$$$$$$$$$$$$$$$$$$$$$$$$$$$$$$$$$$$$$$$",
"$$$$$$$$$$$$$$$$$$$$$$$$$$$$$$$$$$$$$$$$$$$$$$$$$$$$$$$$$$$$$$$$",
"$$$$$$$$$$$$$$$$$$$$$$$$$$$$$$$$$$$$$$$$$$$$$$$$$$$$$$$$$$$$$$$$",
"$$$$$$$$$$$$$$$$$$$$$$$$$$$$$$$$$$$$$$$$$$$$$$$$$$$$$$$$$$$$$$$$",
"$$$$$$$$$$$$$$$$$$$$$$$$$$$$$$$$$$$$$$$$$$$$$$$$$$$$$$$$$$$$$$$$",
"$$$$$$$$$$$$$$$$$$$$$$$$$$$$$$$$$$$$$$$$$$$$$$$$$$$$$$$$$$$$$$$$",
"$$$$$$$$$$$$$$$$$$$$$$$$$$$$$$$$$$$$$$$$$$$$$$$$$$$$$$$$$$$$$$$$",
"$$$$$$$$$$$$$$$$$$$$$$$$$$$$$$$$$$$$$$$$$$$$$$$$$$$$$$$$$$$$$$$$",
"$$$$$$$$$$$$$$$$$$$$$$$$$$$$$$$$$$$$$$$$$$$$$$$$$$$$$$$$$$$$$$$$",
"$$$$$$$$$$$$$$$$$$$$$$$$$$$$$$$$$$$$$$$$$$$$$$$$$$$$$$$$$$$$$$$$",
"$$$$$$$$$$$$$$$$$$$$$$$$$$$$$$$$$$$$$$$$$$$$$$$$$$$$$$$$$$$$$$$$",
"$$$$$$$$$$$$@@@#####@@@@@#####@@@@########@@##@@@@@@$$$$$$$$$$$$",
"$$$$$$$$$$$$@@#@@####@@###@##@@@########@@@#####@@@@$$$$$$$$$$$$",
"$$$$$$$$$$$$@@@@##@@###@###@@@#######@@@@@###@@@##@@$$$$$$$$$$$$",
"$$$$$$$$$$$$@@@@@@####@@@@##@@@###@@##@#######@@@@@@$$$$$$$$$$$$",
"$$$$$$$$$$$$++@@@###@@##@@@@@@@@@###@@@@##@@+OOOOooO$$$$$$$$$$$$",
"$$$$$$$$$$$$OO++@@@##@@@@@@@@@@####@@@##++OOOOOooOOo$$$$$$$$$$$$",
"$$$$$$$$$$$$oOOoooOO+@@@@#@@#####@@@++OOoOOOooooOOOO$$$$$$$$$$$$",
"$$$$$$$$$$$$OooooooooO+@@@####@@@@+OOOOOOooOOOooooOO$$$$$$$$$$$$",
"$$$$$$$$$$$$XoooXoooooOO++@@@@++OoOOOooooooooooooXXX$$$$$$$$$$$$",
"$$$$$$$$$$$$XXXXooooOOOOoOO++OOOOOooooOOooooooXXXXXo$$$$$$$$$$$$",
"$$$$$$$$$$$$XXoooOO++OooXXXXooOOOOOOOOooooooOOOOoooo$$$$$$$$$$$$",
"$$$$$$$$$$$$ooOO++++OOOooXXXXXoOOOOOooooooOOOOoooooo$$$$$$$$$$$$",
"$$$$$$$$$$$$OO++OOooXooXXXXooooooO++++OOOO+++++OOooo$$$$$$$$$$$$",
"$$$$$$$$$$$$oOOooooooXXXooooooooOOOO++++OOOO++++++OO$$$$$$$$$$$$",
"$$$$$$$$$$$$XoooooooooOOooooOOOOooooOOOOooooOOoooooX$$$$$$$$$$$$",
"$$$$$$$$$$$$oXXXooOOOOooooooooOOOOoOOOoooOOoooooXXXX$$$$$$$$$$$$",
"$$$$$$$$$$$$ooXXXXooooXXXXXooooooOOoXXooooOOXXX.XX..$$$$$$$$$$$$",
"$$$$$$$$$$$$oooooooOOOOooXXXXXooooXXXoooooooooXX....$$$$$$$$$$$$",
"$$$$$$$$$$$$OOOOooOOOoooOOOOooooOOooooooOOOOooooooXX$$$$$$$$$$$$",
"$$$$$$$$$$$$OOooooooooooooOOOOoooOOOooOOOOooooooXXXX$$$$$$$$$$$$",
"$$$$$$$$$$$$oXXoooXXXXoXXooooooXXXoooooooooXXXXXXX..$$$$$$$$$$$$",
"$$$$$$$$$$$$XXooXXXXooooooXXXXXXXXXXXXooooXXXX......$$$$$$$$$$$$",
"$$$$$$$$$$$$XXXXXXX.XXXXXXXXXXXXX...   .....XXXX....$$$$$$$$$$$$",
"$$$$$$$$$$$$XXXXXXXX....XXXX....     ...............$$$$$$$$$$$$"
};
