/* XPM */
static const char *pitcher_crop_top[] = {
/* columns rows colors chars-per-pixel */
"64 64 8 1 ",
"  c #6C804F",
". c #7B8C4F",
"X c #9B935C",
"o c #B19D62",
"O c #C49C63",
"+ c #C7A568",
"@ c #CBAF6C",
"# c None",
/* pixels */
"################################################################",
"################################################################",
"################################################################",
"################################################################",
"################################################################",
"################################################################",
"################################################################",
"################################################################",
"################################################################",
"################################################################",
"################################################################",
"################################################################",
"############++++++@@@@@+@@@@@@@@@@@++@++++++++++++++############",
"############@++++++@@@@@+@@@@+@@@@@@@++++++@@@@++++@############",
"############+@@+O+++@@@@+@@@@@+@@@@@@@@++@@@@@@@@+@+############",
"############++@@+O+@@@@@++@@@@+@@@@@++++@@@@@@@@@@@+############",
"############@@@@@+O@@@@@@+@+@@O+@@+++@@@@@@+++@@+@+@############",
"############@@@@++O+@+@@@++@@@+O+@@+++@@@@+++@@++@+@############",
"############@@+@@@+O@+++@@+@+@@O++++@@@@++@@+++O++@@############",
"############@+@@@@@O+++@@++++@+O+++@@+++++++++O+++@@############",
"############++@@@@@+OO++++++++@+O+++++++++++OO+++@@@############",
"############++@+@@@++OOO++++++++OO++++++++OO+++++@@@############",
"############+@++@@@@@+OOOOOOOO++OOOO++OOOO++@+++@@@@############",
"############+@++@@@@++++OOOOO++OOOOOOOOOO+++@@++@@@@############",
"############++++@@++@+++++++OOOOOOOOOOOO++@+@@+@@@@@############",
"############++++@+++@+++++OOOooooooOOOOO++@@@+@@@+@@############",
"############+++@@++++@++OOOOo.   .XXoOOO+@@@@@@@@@+@############",
"############+++@@+++++OOOOOo.     ..XoOO+@@@+@@@@++@############",
"############++@@+++++OOOOOo.    .....XOO++@@++@@++@@############",
"############++@+++++OOO+OOo.   .......oOO++@+@@+++@@############",
"############+@++++OOOO+OOo. .  .. ....oOO+++++O+++@@############",
"############++++OOOOO++OOX. ..  ..   .oOOO+OOO+++@@@############",
"############++OOO++++++O+X  ..  ...   oOOOOO++@@@@@@############",
"############+O++++++++OO+X.  .. ..... oOOOO++++@@@@@############",
"############++++++@@++O++oX. ... ... oOOOOO+@@@@@@@@############",
"############+++@@@+++O++++X.. ....  .oOOOO+@@@@@@@@+############",
"############++@@@++++++@++OX...    .oOOO+O+++++@@@++############",
"############++@@@@@++++@+++OX.  ..ooOOOOO+++++@@@+++############",
"############+@@@@@@+@++@@+++OXXXooOOOOO+O+++@@++++++############",
"############+@@@@@++@@+@@++O+++++OOOOOO+++@@@++++++@############",
"############@+@@@@+@@@++@+++OO++OO++++OO+++++++O++@+############",
"############@@@@@+@@@@++@@++++OO+++@+++OOO+++OO++@@+############",
"############@@@+++@@@@+@+@+++@@+O+++@@++++OOO+++@@@+############",
"############@@++@@@@@@@@@++@@@++OO+++@@@++++++++@+@@############",
"############@+@@@@@@@@@@@@@@@@@@+O++++@@@@@@+++@++@@############",
"############@+@@@@+@@@@@@@@@@@@++O++@+@@@@@@@++@+@@@############",
"############+@@@@@@++@@@@@@+++++O+@+@@@+@@++@++++@@@############",
"############+@@@@@@@+++@@@@@++++@@++@@+@@++@+++@@@@+############",
"############++@@@+++++@@@@@@@@@@+++@@@+@@+++++@@@+++############",
"############+++@@@+@++++@@@@@@++++@@@@++@@+++@@@@@++############",
"############+++++@@+++@@@@++++@@@++@@@@+++@@@@@+++++############",
"############++++++++@@@@++++@@@@@@@@+++@@+++@++@++++############",
"################################################################",
"################################################################",
"################################################################",
"################################################################",
"################################################################",
"################################################################",
"################################################################",
"################################################################",
"################################################################",
"################################################################",
"################################################################",
"################################################################"
};
