/* XPM */
static const char *pitcher_crop_bottom[] = {
/* columns rows colors chars-per-pixel */
"64 64 4 1 ",
"  c #492A18",
". c #603823",
"X c #77452D",
"o c None",
/* pixels */
"oooooooooooooooooooooooooooooooooooooooooooooooooooooooooooooooo",
"oooooooooooooooooooooooooooooooooooooooooooooooooooooooooooooooo",
"oooooooooooooooooooooooooooooooooooooooooooooooooooooooooooooooo",
"oooooooooooooooooooooooooooooooooooooooooooooooooooooooooooooooo",
"oooooooooooooooooooooooooooooooooooooooooooooooooooooooooooooooo",
"oooooooooooooooooooooooooooooooooooooooooooooooooooooooooooooooo",
"oooooooooooooooooooooooooooooooooooooooooooooooooooooooooooooooo",
"oooooooooooooooooooooooooooooooooooooooooooooooooooooooooooooooo",
"oooooooo                    ......    ..                oooooooo",
"oooooooo                ............   ....   ..        oooooooo",
"oooooooo             .................. ......          oooooooo",
"oooooooo              ......................            oooooooo",
"oooooooo         ...    ... ....XX........    ....      oooooooo",
"oooooooo       .......     ...XX....X........... ...    oooooooo",
"oooooooo     ...............XXXXX..XX............       oooooooo",
"oooooooo      ...............XXX....XX............      oooooooo",
"oooooooo    ..............XXXX....XXXXXX..............  oooooooo",
"oooooooo   .............XXXX...XXXXXXXXXXXX..........   oooooooo",
"oooooooo      ....X.XXXX...XXXXXXXXXXXXXXXXXX......   ..oooooooo",
"oooooooo    .......XXX....XXXXXXXXXXXXXXXXXXXX.    .....oooooooo",
"oooooooo  ....XX..............XXXXXXXXXXXXXX............oooooooo",
"oooooooo ...XXXXXX..........XXXXXXXXXXXXXX.........XX...oooooooo",
"oooooooo..XX...XXXXX...XXXXXXXXXXXXXXXXX....XXXXX....XXXoooooooo",
"oooooooo .......XXXXXX..XXXXXXXXXXXXX...XXXXXXXXXXXX..XXoooooooo",
"oooooooo......XXXXXXXXXXXXXXXXXXXXXXXXXXXXXXXXXXXXXXXXXXoooooooo",
"oooooooo.....XXXXXXXXXXXXXXXXXXXXXXXXXXXXXXXXXXXXXXXXXXXoooooooo",
"oooooooo...XXXXXXXXXXXXXXXXXXXXXXXXXXXXXXXXXXXXXXX....XXoooooooo",
"oooooooo....XXXXXXXXXXXXXXXXXXXXXXXXXXXXXXXXXXXXXXX.....oooooooo",
"oooooooo.XXXXXXX..XXXXXXXXXXXXXXXXXXXXXXXXXX.XXXXXXXXXX.oooooooo",
"oooooooo..XXX....XXXXXXXXXXXXXXXXXXXXXXXXXXXX.....XXXX..oooooooo",
"oooooooo.......XXXXXXXXXXXXXXXXXXXXXXXXXXXXXXXX.........oooooooo",
"oooooooo........XXXXXXXXXXXXXXXXXXXXXXXXXXXXXXXXX.......oooooooo",
"oooooooo..X...XXXXXXXXX.XXXXXXXXXXXXXXXXXXXXXXXXXX..X.. oooooooo",
"oooooooo...XXXXXXX.....XXXXXXXXXXXXXXXXXXXXXXXXXXXXX... oooooooo",
"oooooooo.............XXXXXXXXXXXXXX.XXXXXXXXXXXX....... oooooooo",
"oooooooo..............XXXXXXXXXXXXXX......XXXX........  oooooooo",
"oooooooo .... .....XXXXXXXXXXXXXXXXXXX..............    oooooooo",
"oooooooo     ....XXXXXXXXXXXXXXXXXXXXXXX..........      oooooooo",
"oooooooo.  ...XXXXXXXXXXXXXXXXXXXX...................   oooooooo",
"oooooooo.......XXXXXXXXXXXXXXX..........     .......    oooooooo",
"oooooooo....XXXXXXXXXXXXXXXX....XXX...    .......       oooooooo",
"oooooooo...XXXXXXXXXXXXXXXX.XXXXX........  ...       .. oooooooo",
"oooooooo......XXXXXXXXXXXXXXXXXXXXXX...XXX........    ..oooooooo",
"oooooooo........XXXXXXXXXXXXXXXXXXXXXX..XXXX............oooooooo",
"oooooooo ..........XXXXXXXXXXXXXXXXXXXXXXXXXXXXX........oooooooo",
"oooooooo .............XXXXXXXXXXXXXXXXXXXXXXXX..........oooooooo",
"oooooooo   ......  .XXXXXXXXXXXXXXXXXXXXXXXXXXX...XX....oooooooo",
"oooooooo  ....    .XXXX..XXXXXXX....XXXXXX....XXXX......oooooooo",
"oooooooo       ........XXXXXX......XXXXXXXXX........... oooooooo",
"oooooooo        ......XXXXXX..XX......XXXXX.XX......... oooooooo",
"oooooooo    ..............XXXX...............XX........ oooooooo",
"oooooooo      ...........XX.......... ............. ..  oooooooo",
"oooooooo           ...................  .......    ...  oooooooo",
"oooooooo          ..............   ....   ...     ...   oooooooo",
"oooooooo             ........ ....          ....        oooooooo",
"oooooooo                ..   .......       .......      oooooooo",
"oooooooooooooooooooooooooooooooooooooooooooooooooooooooooooooooo",
"oooooooooooooooooooooooooooooooooooooooooooooooooooooooooooooooo",
"oooooooooooooooooooooooooooooooooooooooooooooooooooooooooooooooo",
"oooooooooooooooooooooooooooooooooooooooooooooooooooooooooooooooo",
"oooooooooooooooooooooooooooooooooooooooooooooooooooooooooooooooo",
"oooooooooooooooooooooooooooooooooooooooooooooooooooooooooooooooo",
"oooooooooooooooooooooooooooooooooooooooooooooooooooooooooooooooo",
"oooooooooooooooooooooooooooooooooooooooooooooooooooooooooooooooo"
};
