/* XPM */
static const char *pointed_dripstone_down_base[] = {
/* columns rows colors chars-per-pixel */
"64 64 6 1 ",
"  c #634A47",
". c #735450",
"X c #836356",
"o c #927965",
"O c #A08D71",
"+ c None",
/* pixels */
"oooXXXXXooooOOOOooooOOOooOXXXX...     .....XXXXXXXXXXXX.....XXXX",
"XXooXXXXXooooOOOOOoooOOOOoXX..      .........XX..XX..X.....XX.X.",
"oXXXXooXoXXOOoooooOOoooOoX..   . ...... .XXXXX.XX...XXXX  ...  .",
"ooXXXXooXXooooooOOOOOOOXX.. ...   ..   ...XX....XX.XX....     .X",
"XXXXooXXXXXXooOOOooOOoOOooX.X.  ..       ....  ...  ...  ..  ..+",
"+XooooooXXXooOOOOOoooOOOOOoXXXX..     ..   ...        ....    .+",
"+oXXXooXXXXXoooooOOOOooXXoXXX..    ....     .     . ..      ..X+",
"+oooXXXXoooXXXooOOOOooooXXX..X.. .  ..XX..      ..   ..  ...XXX+",
"+ooooXXooOOoOOOOooooOOoOOoooXXXXXX..XX..  ....   ....     .XXX++",
"+OoOOooOOOooooOOOOOooOOOooOOoooXXoXXXXX..  .....  ..    .....X++",
"++OOooooOOOOOOOOOOooooOOOOOoXXoooXXXX..  ...          ..    ..++",
"++OOOOooooooOOOOOOOOoOOoXXXXXoooXXX.. ....          ..XX..   .++",
"++OOOOOOOOOooooOOOOoooXX.XX..XXXoooX..           ...XXX..  ..+++",
"++OOooOOOOooooOOXXooXX....XX..XoooX.              ...XXXX...X+++",
"++ooOOOOooOOoXXooXXXX..XX......XXXoXX...             ....XXXX+++",
"+++ooOOoooooXXooXXXoXXXXXX...XX..XXXXX.  ..             ..XX.+++",
"+++XXooOOooOOOOoooooooX...XXXXXXXXXX......        ..  ..  ..++++",
"+++oXXooOOOOOOOOOOoXXXXX....X...XX....    ..  .. ..  ....  .++++",
"+++oOOOOOOOOOOOoooooXX..XXX...XX..XXX...    ...    ....  ...++++",
"+++oooOOOOOOOOOOooOOooX..XXXXXX.....XX...  ...       .X...XX++++",
"++++XoXoOOOOOOOoOOOoooOOoXXXXX...XXXXXXX...         ...XXXXX++++",
"++++XXooooOOOOOOOOOOOOooXXXX..XX..XXXXX.....           .X..X++++",
"++++XoOOOOOOOOOOOooooXXXXX...XXXXX..X..XX  ..         ...XXX++++",
"++++ooooOOOOOooOOOoXX...XXX...X..  ..X....          ...XXXXX++++",
"++++XXoooooOOOOooXXX...XX..XXX....              ...  ..  ..+++++",
"++++XooOOOooOOOOooXXXX..XXX..XX.    ...          .....  ..X+++++",
"++++oXXoOOOOOOOoooooooXX....XX.  ....          ...    .XXXX+++++",
"++++ooXXoOOOOOOOOoooXXXXXXX.......XX...  ..   ..    ......X+++++",
"+++++oooooOOOooooOOXXXooXooXXXXXXXX...     ...  .      ..XX+++++",
"+++++oooOOOOOOooOOooXooXXXoooXXX....           ....   ..XXX+++++",
"+++++OOOOOOOOOOOOoOOooXoooooXX..    ..  ...  ..X.  ...XX...+++++",
"+++++oOOOOOooOOOoooOOOoooXoXX..   ...  .  ....XXX....XX...X+++++",
"+++++XooOooOOOoXXoXXooooXX...  ....      ..  ...XX.XX..XX.++++++",
"+++++XXXooOOooooXXXoooXX...X..XXXX..        .   ....XXXXXX++++++",
"+++++XXooOOOOOOooooXXooXXXXXXXXXooXX..  ..   ..    ...X...++++++",
"+++++oXXXoooOOooOOooooooooXXXXoooX...  ..  ...  . .  ..XXX++++++",
"++++++oXooOOOOOOOoooOOOooOOoooXXXXX....  ..XXXX....XXXXXX.++++++",
"++++++ooOOOOOOOoooOOOOOOOOOOooXX......X...XX..XXXXXXX....X++++++",
"++++++oXXoooOoooOOOOoOOOoooXXX....XXXX..  ..X..XXX...   ..++++++",
"++++++XXooOOooOOOOoooooOOoXXX..X.XXX...  ..XXXXX..  ..   .++++++",
"++++++XXXooOOOOOooOOoooXXoooooXXXX..      ......XX..   ..X++++++",
"++++++XoooooOOOooOOOOOooXXooXXX...   ..       .XX.    ..XX++++++",
"++++++oXXoOOOOOOOOooooXXXXXXoXXX.  .  ....   ...    .XXXXX++++++",
"++++++XXoooOOOOOooooXXXXooXX..X.........    ..    .XX.XXX+++++++",
"++++++oXXoooOOoooXXXXooXXoooX....   .   ....   ..XXX.XX.X+++++++",
"++++++ooXXoOOOOoooXoooXXoooXXX.  .   .   ..     ..  XX..X+++++++",
"++++++oOOOOOooooOOOoOOooXXXX.  .  ......  ....     ...XXX+++++++",
"++++++OOOOooooOOOOoOOOOoooXXX..X....X.  ..  .  .  .  ..XX+++++++",
"+++++++ooOOOOOOooOOOooOOOOOOooXXXXXX.....  ....  ...   ..+++++++",
"+++++++oOoOOOOOOooooooooOOOOOOoXXX...   ..            ..X+++++++",
"+++++++XoXooOOOOOOooOOOOooOOoXXooXXX...   . ...    ..XXXX+++++++",
"+++++++XXooOOOOOoooOOOOOOooOOoXXooXXXX   .... ..    ..XX.+++++++",
"+++++++XooOOOOOOOOOOOOOOooXXooooXX...   ...      ..XXX...+++++++",
"+++++++oOooOOOOooooOoooOOOooXXXX...X...  ....   ..XX....X+++++++",
"+++++++XoOOOOOOOOooooXXooXXXXXoooXXXXXX.      .. .....XXX+++++++",
"+++++++XooOOOooOOOoXXoXXooXXooooooooXXXXX  ...    .XX..XX+++++++",
"+++++++oOOOOOOooooOOOoooOOOOOooOooXXooX...    ......XXXX++++++++",
"+++++++XoOOoooOOoooOOOooooOOOOOXXooXXXXX... .XXX..XXXXXX++++++++",
"+++++++XXXoooOOOOOOOooooOOOOooooXXXXX...XXX.XX..XXXX..XX++++++++",
"+++++++oXXXoOOOOOooOOooOooooooXXX...XX...X.XX....X...XX.++++++++",
"++++++++XoooooOooOooooOOOOooXX..    ....... ...  .  ....++++++++",
"++++++++ooOOoOOOOOOOoooOOoXXX.....   ...   .....      ..++++++++",
"++++++++ooooOOOOOOOOOOOOoooXXX.......     ...   . ...  .++++++++",
"++++++++oooooOOOOOOOOOooXXXX...XXX..           ...  ....++++++++"
};
