/* XPM */
static const char *pointed_dripstone_down_frustum[] = {
/* columns rows colors chars-per-pixel */
"64 64 6 1 ",
"  c #634A47",
". c #735450",
"X c #836356",
"o c #927965",
"O c #A08D71",
"+ c None",
/* pixels */
"++++++++OOOOoooOOoooOOOooooXXXXX....   .. ..XX....XXXX..++++++++",
"++++++++ooOOOOooOOOooOOOooXXoooXXXX...  ..   .XXX..XXXXX++++++++",
"++++++++XoooooOOOOOOOOooOOoooXX..X...       ...XXXXXX...++++++++",
"++++++++ooXXOOOoOOOOOOOOooooooXX..        ...XXXXXX.XXX.++++++++",
"++++++++XXXooXXoooOOoooXooXXXX...    .        .  .XX...X++++++++",
"+++++++++XXXooXXoOOOOoooXXXoooX.   ....     .  .....XX..++++++++",
"+++++++++oooOOOoOOoooOOOOooooXXX.   .      .....    .XX.++++++++",
"+++++++++oOOOOooooOOooOOOOoXXXoo.... .      ..    .XXX..++++++++",
"+++++++++OOOOooOOOOOOOOoooooXooX.XXXX....     ...  ..XXX++++++++",
"+++++++++oOooOOOOOOOOooOoooooXXXX..X..  ..   .......XXX+++++++++",
"++++++++++oXXoooOOoooooooXooX..XX.   ..     ...   .....+++++++++",
"++++++++++XXooOOOoooXXXoooX..XX.....  ..      ..      .+++++++++",
"++++++++++oOOOOoooXXXXooX.  .... .  ..       .     ..  +++++++++",
"++++++++++ooOOoooooXooXXXX..   ..          ....  .XX..X+++++++++",
"++++++++++XXooooXXXooooXXXXX.     ..   .  .    ....XXXX+++++++++",
"+++++++++++XXXoOOXXXXoooX...  .....  ..         .XXXXX.+++++++++",
"+++++++++++oOooooOoooXXX..X... XXXX..   ..    ..  ...X++++++++++",
"+++++++++++ooOOOooOOOOoXXXXX....X..X.. ..    ....  ...++++++++++",
"+++++++++++oXooOOooOOooooXoXoooXXX.....         ....XX++++++++++",
"+++++++++++XooOOOOOoooooXXXoooXX...XXX..       ...XXX.++++++++++",
"++++++++++++OOOOOoOOooOOoooXXXX..XXX.XXX.  .     .  ..++++++++++",
"++++++++++++oOOOOOooOOOoooooXXXXXXX........        ..+++++++++++",
"++++++++++++ooooOOOOOooXXXXooX..XX..  . ....     ..XX+++++++++++",
"++++++++++++ooOOOOOOOOooXXXXXXX...XX.      ..     ..X+++++++++++",
"++++++++++++OOOoooOOoooXXXX....  .....   ...        .+++++++++++",
"++++++++++++oOOOoooooXXooXXX....   ...... ....     ..+++++++++++",
"+++++++++++++oOOOOOOOOoOOooXXX. ..   ..     .XX..   ++++++++++++",
"+++++++++++++oOOOOOOoOOoooXXX........ ..  ..XX.. .. ++++++++++++",
"+++++++++++++OOOOoooooOOOOoooX...XX.... ......XXX...++++++++++++",
"+++++++++++++OoooOooOOOOooooXXXX..XX..     ....XXX..++++++++++++",
"+++++++++++++oooOOOOOoooXXXX..XXXX..   .  ..XXXX...X++++++++++++",
"+++++++++++++OoOOOOOoooooo..X..XXXX..   ...XXXXXXXX.++++++++++++",
"++++++++++++++OOOOooOOOoOOOooXX..XXX.. ...   .XXX..+++++++++++++",
"++++++++++++++OOOOOOOOOOOOooooXXXXX.X...    ....XX.+++++++++++++",
"++++++++++++++ooOOOOOoooooXXooooXXXX.      .. . ..X+++++++++++++",
"++++++++++++++XoOOOOOOooXoo..XXoooX...         ..XX+++++++++++++",
"++++++++++++++XXooOOooXXXXooX..XXX..        ..XXXX.+++++++++++++",
"++++++++++++++XooooOOooXoooooo...XX....      ...X..+++++++++++++",
"+++++++++++++++XXXooooOOoOOooXX....  .         ...++++++++++++++",
"+++++++++++++++XXooOOOOOOoooXX...X..       ...XX..++++++++++++++",
"+++++++++++++++oooooOOooooXXXooX..XX....     ...XX++++++++++++++",
"+++++++++++++++XooOOOoooXXoXXXoooXX....    ......X++++++++++++++",
"+++++++++++++++XXXoooXXooOOoooooX....     .. .  ..++++++++++++++",
"+++++++++++++++XXXXXooXXooOOoooXXX..           ...++++++++++++++",
"++++++++++++++++XXooXXooOOooooOOooooX..  .... .. +++++++++++++++",
"++++++++++++++++XXXooXXooOOoOOOoOOoooX.....  ..  +++++++++++++++",
"++++++++++++++++XooOOoOOOOOOoooooXXXXXXX.      ..+++++++++++++++",
"++++++++++++++++ooOOoooOOOOoooXXooo..X........   +++++++++++++++",
"++++++++++++++++ooooOOOOOoooXXoooXXX....   ..   .+++++++++++++++",
"+++++++++++++++++ooooOOOOOoXXoOOoX....    ..  ..X+++++++++++++++",
"+++++++++++++++++ooOOooooooOOOOooXX.        ... ++++++++++++++++",
"+++++++++++++++++oOOOOooOOOOooooooXX.          .++++++++++++++++",
"+++++++++++++++++OoooOOOooooooXooX..... ..   ...++++++++++++++++",
"+++++++++++++++++oooOOOOOooOOOOXXXX.....      ..++++++++++++++++",
"++++++++++++++++++OOOOooooOOOoooXoXX       ....X++++++++++++++++",
"++++++++++++++++++OOooOoOOOOoooooXX...      ..X+++++++++++++++++",
"++++++++++++++++++oooOOOOooooooX....  .. ..XXXX+++++++++++++++++",
"++++++++++++++++++ooOOOOOOoooOOoXX...     ...XX+++++++++++++++++",
"++++++++++++++++++OOOOooooOOooOOOooXX..     ...+++++++++++++++++",
"+++++++++++++++++++OooooOOOOOOOoooXoXXX...    .+++++++++++++++++",
"+++++++++++++++++++OOooOOoooOOoXXXXX....     .++++++++++++++++++",
"+++++++++++++++++++OOoOOOOooooXX..  ..      .X++++++++++++++++++",
"+++++++++++++++++++oOOoXXooXXXX....   ..  .XX+++++++++++++++++++",
"+++++++++++++++++++ooXXoooX...XXX...   ..  .X+++++++++++++++++++"
};
