/* XPM */
static const char *pointed_dripstone_up_middle[] = {
/* columns rows colors chars-per-pixel */
"64 64 6 1 ",
"  c #634A47",
". c #735450",
"X c #836356",
"o c #927965",
"O c #A08D71",
"+ c None",
/* pixels */
"++++++++oooOOOoooOOoooooooooXXX...XX..    ....  ..  ..  ++++++++",
"++++++++ooooOOOOooOOOOoXXooooXXXX...     ......   ..... ++++++++",
"++++++++OOOoooOOOOOoooooXXXX......   ....     ..   ...XX++++++++",
"++++++++OOOOOOOOOOooXXoooXX...XX.  ..  .   ..  .....XXX.++++++++",
"++++++++oOOOOOoooOOOooXXX..XXoooXXXX.......XX.   .   ..X++++++++",
"++++++++ooOOOOOooooooXXoXXoooooooXX..X..XXX.   .....  ..++++++++",
"++++++++OOOOooooOOOOOoooOOOoXXXXXXooX..XXX.  ......... .++++++++",
"+++++++++OOooOOOOOOOOOOOOoooooXXoooXXX  .XX.    ..  .   ++++++++",
"++++++++++OOOOOOOOOOooOOoXXoooooX..X...       ..  ...X. ++++++++",
"++++++++++OOooOOOOoooOOoXXoXXXoooXX..          ..  .XXX.++++++++",
"+++++++++++OOOoooOOOOooooooooXXX...    ..    .....XX....++++++++",
"+++++++++++oOOOoOOOOOOOOooooXXooo......  .      .XX..  .++++++++",
"++++++++++++oOOOoooOOOOOOOoXoooXXXXXX......  ...      ..++++++++",
"++++++++++++OOoOOoooOOOOOoooooXXXoooXX..  . ..      ....++++++++",
"++++++++++++oooooOOOooOOOOOOOOooooX...            ....X.++++++++",
"++++++++++++XXooooOOOoooOOOOoooXXXXX...          ...XX.X++++++++",
"++++++++++++oXXXoOooooOOoooXXXXXX...    .          ..XX.++++++++",
"++++++++++++ooXoOOOOoOOOOoooXXXX...  .....     .. .XX...++++++++",
"++++++++++++XXoooooOOOoXXoXXX...XXX....         ....XXX.++++++++",
"+++++++++++XXoOOooOOoooooXXX..ooX..X.  .          ...X..++++++++",
"+++++++++++XXXoOOOOOOooOOOooooXX......           ...  ..++++++++",
"++++++++++XXooooOOOOOOOOooooXX...XX..      .    .      .++++++++",
"++++++++++XoOOOOOOOOOOOOOoXXX..XXX.   ....  ...   ....  ++++++++",
"++++++++++ooooOOOOOOOOooooooXXXXX........    .  ....  ..++++++++",
"++++++++++OOoOOOooooOOOooooXXooX.XXXooXX  .......X.....X++++++++",
"++++++++++oOOooOOoOOOooOOOooooXXXooooXX...  ......XX..XX++++++++",
"++++++++++OOOOoooOOOooOOOoooOOooOOOooo.XX....XXX...XXX..++++++++",
"++++++++++oooOOOOOooooooOOOOOooOOOooXXX..  ...XXXXXXX...++++++++",
"++++++++++oOOOoooooooOOOOOoooOOOoXXX......    ...XX..XX.++++++++",
"++++++++++OOoooOOooOOoOOoXXoooooXX.XX...        ....XXXX++++++++",
"++++++++++OOOoooOOOOoooXX...XXXXX.....    ......   ...XX++++++++",
"++++++++++oooOOOooOOOOOoXX.  .XX.  ....     .....   ...X++++++++",
"++++++++++oOOooOOOOOOoXXX.X..  .  .      ...XX.  .X..XXX++++++++",
"++++++++++OOoOooOOOOOOoooXXX...  ...    ..XXX......XXXX.++++++++",
"++++++++++ooOOOOOOOOoOOOooooXXXX..XX..     ..XXX..XXX...++++++++",
"++++++++++oOOOOOOOoooooOOoXXXXX.XXX....   ....XXXX..XX.+++++++++",
"++++++++++oXooOOooOooOOXXXXXX.  ....    ...  .........++++++++++",
"++++++++++XXXoooOOOOOOooXX.....  .       ...  ...XX..X++++++++++",
"++++++++++XoOOooooooOoXX..XX.....   ...     .. ...XXXX++++++++++",
"++++++++++oooOOOoOOooooXX..XXXXX  ....  .       ....X+++++++++++",
"++++++++++oOOOoOOooOOoooooXXXoo.....  ..       ..  ..+++++++++++",
"++++++++++OOOoooooOOooOOOXXXooXX..XX......  ...   .  +++++++++++",
"+++++++++OOoOOOOOOOOOOOOoooooXooXXX..XXX.     ......++++++++++++",
"+++++++++oooooOOOOOOOOooooooXXX....XXX......    ..  ++++++++++++",
"+++++++++ooOOOOOOOOOoXXooXXooXXXX.......      ..    ++++++++++++",
"+++++++++oOOOOOOOOooXXXXXoooooXX......     ....     ++++++++++++",
"+++++++++OOoooOOOOOoooooXXXX....XXX..  .....      ..++++++++++++",
"+++++++++ooooOOOooooooXXXXXXXX...XXX.......      ...++++++++++++",
"+++++++++XoOOooooOOXX..XXoooX..XXX.. ..   ... ..    .+++++++++++",
"+++++++++XXXooooooOOXX..XXXooXX......       ..     ..+++++++++++",
"+++++++++XoXXoOOoOooOoXXXX..XX..  .    ...    .....  +++++++++++",
"+++++++++oooooooOOOOOOooooX.......    ..    ...X..  .+++++++++++",
"++++++++oooOOOoOOOOOOoooOOooooXX   ...   .......XX.. +++++++++++",
"++++++++ooOoOOOOOOOOoOOOooooOoooX....   ...  ..XX..XX+++++++++++",
"++++++++oXXXooOOOOOOOOOOOOOOoXXX.XX   ..    ..XXXXXX..++++++++++",
"++++++++XXoooooOOOOOOOOOOOooXX..XX.......  ......X..XX++++++++++",
"++++++++OOOOooOOoooOOoooOOOXX....    ..  ...   ... ...++++++++++",
"++++++++oOOOOOooOOooOOOoooXooXX.   ..     ....  ...  .++++++++++",
"++++++++XXooOOOOOOOOooOOOXXXooXX......  ..    ..    ...+++++++++",
"++++++++XoOoooOOOOOOOoooooooXXXXXX..   ..   ...   .....+++++++++",
"++++++++oOOOOooOOOOooOOOOoXX....         ...  ..XX...XX.++++++++",
"++++++++ooOOOOOoooOOOOOOoXX...         .   ..  ..XX.X..X++++++++",
"++++++++OOoooooooOOOOoooX..XXX.....     ..   .XXXXXXXX .++++++++",
"++++++++OOOOooOOOOOooOOooX..XXXX..  .........XXXX..   ..++++++++"
};
