/* XPM */
static const char *polished_granite[] = {
/* columns rows colors chars-per-pixel */
"64 64 9 1 ",
"  c #4D352C",
". c #5F4034",
"X c #7F5646",
"o c #926251",
"O c #9F6B58",
"+ c #A97764",
"@ c #B48877",
"# c #B49B91",
"$ c #C99781",
/* pixels */
"$$$$$$$$###$$########$$$$$$$$$$$$$$$$$$$$$$$$$$$$$$@$@@@@@@@@@+O",
"$$$$$$$$$$$$$$$$$$$$$$$$@$$$@@@@@$$@@$$$@@@$$$@@@@@@@@@@@@@@++Oo",
"#$OoooOOOooOooOOoooO++OOOoOOooOooOoOoOOooOOoooOOooooooO+++++OOoo",
"$$OOOoooOOoooooOOoooO++OoooOOooOOOOoooOOOOoooOOOOooooOoO++OO++oX",
"#$OOOOOooOOOooOO++OOooo+OOoooooooO++OOoooOOoOO++OOOOooOOOooO+OoX",
"#$oOOOooOOOooO++O+++OOooOOOooOOO+++OOOOoooooooo+++OoooooOOooOOXX",
"#$OooOOOO+++OOO++O+@@++OoooOO+++OOOooooOOooXXoOOO@@+OoOOooOOooXX",
"#$OOooO++@@++OOOO+@@++OOOoO++++++ooOooOOooXXoXoo++@@+++OOOOoooX.",
"#$OOOOOO@@##@++@@@++OO++OOOO++OOooO++OoOOoooXXXXoOO+@+OOOoooOOX.",
"#$OOOOooO+@##@++@+OOOOO++O+OO++OOO++O+OOoooooXXoOOoo+++OooOOOOo.",
"$$ooOooOOOOO++OO++++oooOOOO++OOooOOOO+++O++OoooXXooOOO++OooOOooX",
"$$oooOOOOOO++ooOO++OOoOooO++OOOOooOO+++OOO++OOooooOoO+@@+OOooOoX",
"#$oOOOooooOOooOO+OO++OOOOooOOooOOOooOO++++OO+++OOooooOO+OOOOooXX",
"#$OOOoooOOooOOOOOOoO+++OooooOOooOOOooOOO+++OO+++OOooOOOoOOooooXX",
"#$oooooOOoO++OOXXoOOOO+++OOoooOOOoooooo+OOooooOOooOOOoooooOOooX.",
"$$ooooooOOOO++XXoooOO+++++OOOooOooooOOooOoooOOoooOOoooOOoOOOOOX.",
"#$OOoooooO++OOooXXoo++OO+OOO++OOOOoOOooooOOooOoOOOOOoooOOOooOoX.",
"$$OooooOO++OOooooXXooO+OO+++++++OOOoooOOOOOOOoOOooOOOOooOOOoooX.",
"$@oOOOooOOO+oOOoXooOOoO+++OOO++OooooOOooOOOOOOooOOOOooOOOooooOX.",
"$@ooOOOOooOOooOOooOOOO+++ooO++OOOoOOOooOOoOOoOOooOoooOOoooOOOOX.",
"$@OOoOOOOoooooooOOoO++OOOOOooOO+++OOO++OooooOO++OOOoooOOooooOOo.",
"$@oOOOoooooooooOOOO++OoOOOooOO+++OOO++O++OoOO+@+++OOoooOOOOooOo.",
"$@OooOOoXXooooOOooOOO+OoooOOooOO++++OOOOOOO+@##@+O++OOOooOoOOOoX",
"$@oooooXXooOoO++OooOOOOOoooOOooOO+OOOOOOO++@@@+OOOOOOOooOOOOOoo.",
"$@ooXXXoooOO+++OoOOOooooOOOo+@OOOooOOooOOO+++OOOOOOOooOOOoOooOoX",
"$@oOoXoooOOoO+++OOOOOoOOOO+@@+OOXoOOoOooooOOOOOOooOoooooOOoooooX",
"$$OooooOOooooOOO++O++OOOO+@++OoXXXXoooooOooOOooooOOOOOOooOOOoooX",
"$$OOOOooOOooOO+++OOO++OO+++OooooXXoXXooooOOOOOooOOoooOoOOOoooOoX",
"$@oooOOoooOO+++OOOOOOO+++OOoooXXooooXXooOO++OOOOooooOOOOooooOoXX",
"$@oooooooO+++OO+OO++oOOOO+OOoooXXOOoooOO+++++OOOOooOO+OOOooOOOXX",
"$$oOOooO++OOOOOO++OOOoooOOOoOOooOOoOoooOO++OOOOooOOOOO+++OoooOX.",
"$@OOooOOO++OooOOO++ooooOOOoooOOo++OooooooOO+O++OooOO++++OOOoooX.",
"$$ooOOooOOO++OooOOoXXoooOOOOoooOOO+++OOOooooOOO+++OOOOO++OO++OX.",
"$$oOOO++OOOOOOOooXXXoXXooOOoooOOOOO++++OOooOOO+++OOOO+OO+++OOOXX",
"$@OO+++OOOoooOoXXXoooooXXooOOOO++++OOOOoooOOOoOOO++O+++@@+OO++XX",
"$@O+O+OooXXoOoooXoXoOoXXoooo+++O+OOOOOoooOOOoooOOO++OO++@@++++XX",
"$@OooOooXooOOOOOooOOoOOooOOOO+OOO++OOOOOOooOOOOooooOOoOOO+@++OX.",
"$@ooO++OOooooOOooooOOOOOooOOOOO+++++ooOOooooOOooooOOOOooOO++O+XX",
"$@OO++OOOOooOoooOOOOOoooOOOO+++O++OOOooooo@@OOOOOOooOooOOOO+++X.",
"$@O+++++OooOoOoooOOOoooO++OOO+++OOO++OOoO@@OooOOoooOooooOO++++X.",
"$$OOOOOO+++OOooOOoooO++++OoooOO++OOO++OO@++OOOooooOOOoOOooOOO+X.",
"$#OO++oOO+OO+OOOOOoOOO++OoooOOOO+++++OO+++O+OooXXOoooOoooOOO+OX.",
"$#+++OOooooOO++++OOO++OooOOOooOooo++OOoo+OOOOOOoXXooOOOOoooOOOXX",
"$#O+oOOOooOO+++OOOooO++OooOOOOoooOOOoooOO+OO++OOooXXooOOOoooOOXX",
"$$OOooooo++++O++oooO+OooOOooooOOOoooOOOOOOOOOO+++OOooXXoooOOOoX.",
"$$oOOOooOO++OOOOOoooOOOooOOooooOOOoooOOooOOOOOO+++OoXXoooooOooX.",
"$#oooOOOooO@@#+ooOOOoooOOoooOOOoooooOOooOO++OO++OOooooXXXoooOoX.",
"$$oOooooOooO+@#@++OoooOOoooooOOOooXXoooOO++O++OOOOOOoooXXXooOOX.",
"$#OOOooOO++++++++OooooooOooOOOooXXXoooO++OOOOOOooOOoooXooooooOo.",
"$#OOoo+OOO++++OOO+OoOooooOO+OOOooXooO+++OO++OOooOOoXXXXXoooOOOo.",
"$@ooOOO++++OOO+OOooO+OOoO+@@+OOOOoXooO+++++OooOOooOoXXoooOOOO+oX",
"$@oooOOO++OO++++OOooO++O+@@+++OoOOooooOOO+OOOooOOooooXXooo++++oX",
"$#oOOOoooO++++Ooooo+++OOO++OO+OOooooooooOOOOO+++oooXXooooOO++Oo.",
"$#OOooooO+OOOOOOooOOOOOO++OOOOoooooooooOOOOO++OOOOXoOOooO+OO++X.",
"$#ooOOOooooOOOooOOoooOOOoooooooOooooOOOooO++OOOooooOOooOOO++++XX",
"$@OooOOOooOOoooooOOOooooooXXooooOOoooOOOOoO++OoOooOoOOOooOO+++X.",
"$$OOOOooooooOOooooOOOOoXXXoooOOOoOOOooooOO+++++OOO++OO+##+++OOX.",
"$$OOOooooOOOOoooOoooOOOoXoooOOooOOOooOooooOO++OO++O+++##++OooOX.",
"$@+++OoOOO+++OOooOOoooooooOooooOOOoO+OOoO+OOOO++OOOOO++OOooOOOX.",
"$@OO++OoOOO+++++OoOOoooooOOOooOO++OOO++O+++OOOO+++OO+OOOooooooX.",
"$@OOOO++++++OO+OO++O+OoOooOOO+++OOOooooOOO++O++++OOoooOoOOOooOX.",
"$@OOO+O+++OOOOO+OO++OOOooOooOO+++OoOooOOOooOOO+OO++OoooOOOoOOOX ",
"@X....................       ...XXXXXXXXX......XXXXXXX......... ",
"X...      ........                ....      ........            "
};
