/* XPM */
static const char *potatoes_stage1[] = {
/* columns rows colors chars-per-pixel */
"64 64 6 1 ",
"  c #266325",
". c #2B702A",
"X c #907540",
"o c #4A8F28",
"O c #55AB2D",
"+ c None",
/* pixels */
"++++++++++++++++++++++++++++++++++++++++++++++++++++++++++++++++",
"++++++++++++++++++++++++++++++++++++++++++++++++++++++++++++++++",
"++++++++++++++++++++++++++++++++++++++++++++++++++++++++++++++++",
"++++++++++++++++++++++++++++++++++++++++++++++++++++++++++++++++",
"++++++++++++++++++++++++++++++++++++++++++++++++++++++++++++++++",
"++++++++++++++++++++++++++++++++++++++++++++++++++++++++++++++++",
"++++++++++++++++++++++++++++++++++++++++++++++++++++++++++++++++",
"++++++++++++++++++++++++++++++++++++++++++++++++++++++++++++++++",
"++++++++++++++++++++++++++++++++++++++++++++++++++++++++++++++++",
"++++++++++++++++++++++++++++++++++++++++++++++++++++++++++++++++",
"++++++++++++++++++++++++++++++++++++++++++++++++++++++++++++++++",
"++++++++++++++++++++++++++++++++++++++++++++++++++++++++++++++++",
"++++++++++++++++++++++++++++++++++++++++++++++++++++++++++++++++",
"++++++++++++++++++++++++++++++++++++++++++++++++++++++++++++++++",
"++++++++++++++++++++++++++++++++++++++++++++++++++++++++++++++++",
"++++++++++++++++++++++++++++++++++++++++++++++++++++++++++++++++",
"++++++++++++++++++++++++++++++++++++++++++++++++++++++++++++++++",
"++++++++++++++++++++++++++++++++++++++++++++++++++++++++++++++++",
"++++++++++++++++++++++++++++++++++++++++++++++++++++++++++++++++",
"++++++++++++++++++++++++++++++++++++++++++++++++++++++++++++++++",
"++++++++++++++++++++++++++++++++++++++++++++++++++++++++++++++++",
"++++++++++++++++++++++++++++++++++++++++++++++++++++++++++++++++",
"++++++++++++++++++++++++++++++++++++++++++++++++++++++++++++++++",
"++++++++++++++++++++++++++++++++++++++++++++++++++++++++++++++++",
"++++++++++++++++++++++++++++++++++++++++++++++++++++++++++++++++",
"++++++++++++++++++++++++++++++++++++++++++++++++++++++++++++++++",
"++++++++++++++++++++++++++++++++++++++++++++++++++++++++++++++++",
"++++++++++++++++++++++++++++++++++++++++++++++++++++++++++++++++",
"++++++++++++++++++++++++++++++++++++++++++++++++++++++++++++++++",
"++++++++++++++++++++++++++++++++++++++++++++++++++++++++++++++++",
"++++++++++++++++++++++++++++++++++++++++++++++++++++++++++++++++",
"++++++++++++++++++++++++++++++++++++++++++++++++++++++++++++++++",
"+++++++++++++++++++++++++++++++++o++++++++++++++++++++++++++++++",
"+++++++++++++++++++++++++++++++++O++++++++++++++++++++++++++++++",
"++++++++++++++++++++++++++++O+++oO++++++++++++++++++++++++++++++",
"+++++++++++++++++++++++++++++O++Oo++++++++++++++++++++++++++++++",
"+++++++++++++++++++++++++++++Oo+o+++++++++++++++++++++++++++++++",
"++++++++++++++++++++++++++++++OOo+++++++++++++++++++++++++++++++",
"+++++++++++++++++++++++++++++++Ooo++++++++++++++++++++++++++++++",
"+++++++++++++++++++++++++++++++oOoOo++++++++++++++++++++++++++++",
"+++++++++++++++++++++++oO+++++++OOOO++++++++++++++++++++++++++++",
"++++++++++++++++++++++++ooOO++++OO+OO+++++++++++++++++++++++++++",
"++++++++++++++++++++++++++oOO+++oO++O+++++++++++++++++++++++++++",
"++++++++++++++++++++++++++++oO++oo+++O++++++++++++++++++++++++++",
"+++++++++++++++++++++++++++++o.+OoO+++++++++++++++++++++++++++++",
"++++++++++++++++++++++++++++++o.Oo++++++++++++++++++++++++++++++",
"++++++++++++++++++++++++++++++..OO++++++++++++++++++++++++++++++",
"+++++++++++++++++++++++++++++++.oO+.++++++++++++++++++++++++++++",
"++++++++++++++++++++++Oo++++++++oo.o++++++++++++++++++++++++++++",
"+++++++++++++++++++++++OOooo++++o..+++++++++++++++++++++++++++++",
"++++++++++++++++++++++++OO..o+++..o+++++++++++++++++++++++++++++",
"++++++++++++++++O++++++++++..+++o.++++++++++++++++++++++++++++++",
"+++++++++++++++o++++++++++++.o++o.++++++++++++++++++++++++++++++",
"++++++++++++++o.++++++++++++o.++.o++++++++++++++++++++++++++++++",
"++++++++++++++O.++++++++++++oO++oo++++++++++++++++++++++++++++++",
"+++++++++++++OOo++++++++++++oO+.o. +++++++++++o+++++++++++++++++",
"++++++++++++++Oo.+++++++++++O +o. +++++++++++O++++++++++++++++++",
"+++++++++++++++Ooo...o++++++.. ..  +++++++++Oo++++++++++++++++++",
"++++++++++++++++Ooo...oo++++oo ...  .+++++++oO+++++.++++++++++++",
"++++++++++++++++++ .o.ooo++oo..o. ....  +++Oo+++++. ++++++++++++",
"++++++++++++++++++. .ooo+... oo.  .o.oo. .+oO++++o.+++++++++++++",
"++++++++++++++++++.  ..o..  .XX.  ..oo.o  .o+++++. +++++++++++++",
"+++++++++++++++++.  .. ..o.XXXXXX  ... .. o.++++o ++++++++++++++",
"++++++++++++++++      ....XXXXXXXX.   .. ...++++. ++++++++++++++"
};
