/* XPM */
static const char *pumpkin_stem[] = {
/* columns rows colors chars-per-pixel */
"64 64 6 1 ",
"  c #464646",
". c #626162",
"X c #8B8D8B",
"o c #B4B2B4",
"O c #C5C6C5",
"+ c None",
/* pixels */
"++++++++++++++++++++++++++++++++++++++++++++++++++++++++++++++++",
"++++++++++++++++++++++++++++++++++++++++++++++++++++++++++++++++",
"++++++++++++++++++++++++++++++++++++++++++++++++++++++++++++++++",
"++++++++++++++++++++++++++++++++++++++++++++++++++++++++++++++++",
"+++++++++++++++++++++++++++o++++++++++++++++++++++++++++++++++++",
"+++++++++++++++++++++++++++Oo+++++++++++++++++++++++++++++++++++",
"+++++++++++++++++++++++++++XO+++++++++++++++++++++++++++++++++++",
"+++++++++++++++++++++++++++XOo++++++++++++++++++++++++++++++++++",
"++++++++++++++++++++++++++++Oo++++++++++++++++++++++++++++++++++",
"++++++++++++++++++++++++++++oOX+++++++++++++++++++++++++++++++++",
"++++++++++++++++++++++++++++oOX+++++++++++++++++++++++++++++++++",
"++++++++++++++++++++++++++++XOX+++++++++++++++++++++++++++++++++",
"++++++++++++++++++++++++++++XOo+++++++++++++++++++++++++++++++++",
"++++++++++++++++++++++++++++XooX++++++++++++++++++++++++++++++++",
"+++++++++++++++++++++++++++++OoX++++++++++++++++++++++++++++++++",
"+++++++++++++++++++++++++++++OoX++++++++++++++++++++++++++++++++",
"+++++++++++++++++++++++++++++OoX++++++++++++++++++++++++++++++++",
"+++++++++++++++++++++++++++++oOo++++++++++++++++++++++++++++++++",
"+++++++++++++++++++++++++++++XOoX+++++++++++++++++++++++++++++++",
"+++++++++++++++++++++++++++++XOOX+++++++++++++++++++++++++++++++",
"++++++++++++++++++++++++++++++oOX+++++++++++++++++++++++++++++++",
"++++++++++++++++++++++++++++++XOX+++++++++++++++++++++++++++++++",
"++++++++++++++++++++++++++++++Xoo+++++++++++++++++++++++++++++++",
"++++++++++++++++++++++++++++++XooX++++++++++++++++++++++++++++++",
"++++++++++++++++++++++++++++++XOoX++++++++++++++++++++++++++++++",
"++++++++++++++++++++++++Oo++++XOoX++++++++++++++++++++++++++++++",
"++++++++++++++++++++++++Ooo+++oOoX++++++++++++++++++++++++++++++",
"++++++++++++++++++++++++oXoo++oOoX++++++++++++++++++++++++++++++",
"++++++++++++++++++++++++oXoXoXoOoX++++++++++++++++++++++++++++++",
"++++++++++++++++++++++++oo.XXXoOoX++++++++++++++++++++++++++++++",
"+++++++++++++++++++++++++oX.XXoOoX++++++++++++++++++++++++++++++",
"+++++++++++++++++++++++++XoX.XoOXX++++OO++++++++++++++++++++++++",
"++++++++++++++++++++++++++XXX.XOX.++OOOO++++++++++++++++++++++++",
"+++++++++++++++++++++++++++.XXXoX.XOOXO+++++++++++++++++++++++++",
"++++++++++++++++++++++++++++..XOX.OOXOX+++++++++++++++++++++++++",
"++++++++++++++++++++++++++++++XOX.OO.XX+++++++++++++++++++++++++",
"++++++++++++++++++++++++++++++XOX.OX.X++++++++++++++++++++++++++",
"++++++++++++++++++++++++++++++XOo.O.XX++++++++++++++++++++++++++",
"++++++++++++++++++++++++++++++XOo.X.X+++++++++++++++++++++++++++",
"++++++++++++++++++++++++++++++XOo.X..+++++++++++++++++++++++++++",
"++++++++++++++++++++++++++++++XOo...++++++++++++++++++++++++++++",
"++++++++++++++++++++++++++++++oOo..+++++++++++++++++++++++++++++",
"++++++++++++++++++++++++++++++oOX.++++++++++++++++++++++++++++++",
"++++++++++++++++++++++++++++++oOX.++++++++++++++++++++++++++++++",
"++++++++++++++++++++++++++++++ooX.++++++++++++++++++++++++++++++",
"++++++++++++++++++++++++++++++ooX.++++++++++++++++++++++++++++++",
"++++++++++++++++++++++++++++++Xo..++++++++++++++++++++++++++++++",
"++++++++++++++++++++++++++++++XoX.++++++++++++++++++++++++++++++",
"++++++++++++++++++++++++++++++XO..++++++++++++++++++++++++++++++",
"++++++++++++++++++++++++++++++XO. ++++++++++++++++++++++++++++++",
"++++++++++++++++++++++++++++++XO. ++++++++++++++++++++++++++++++",
"++++++++++++++++++++++++++++++XO. ++++++++++++++++++++++++++++++",
"++++++++++++++++++++++++++++++Xo. ++++++++++++++++++++++++++++++",
"++++++++++++++++++++++++++++++.oX ++++++++++++++++++++++++++++++",
"++++++++++++++++++++++++++++++.oX ++++++++++++++++++++++++++++++",
"++++++++++++++++++++++++++++++XoX.++++++++++++++++++++++++++++++",
"++++++++++++++++++++++++++++++XoX.++++++++++++++++++++++++++++++",
"++++++++++++++++++++++++++++++.oX.++++++++++++++++++++++++++++++",
"++++++++++++++++++++++++++++++.XX ++++++++++++++++++++++++++++++",
"++++++++++++++++++++++++++++++.X. ++++++++++++++++++++++++++++++",
"++++++++++++++++++++++++++++++.X. ++++++++++++++++++++++++++++++",
"++++++++++++++++++++++++++++++ X  ++++++++++++++++++++++++++++++",
"++++++++++++++++++++++++++++++ .  ++++++++++++++++++++++++++++++",
"++++++++++++++++++++++++++++++ .  ++++++++++++++++++++++++++++++"
};
