/* XPM */
static const char *pumpkin_side[] = {
/* columns rows colors chars-per-pixel */
"64 64 6 1 ",
"  c #7E3D0E",
". c #A0560B",
"X c #AB6112",
"o c #C46F14",
"O c #E38A1D",
"+ c #E3A64B",
/* pixels */
"ooooooooo.XoooooooooooooooXX.XooooooooooooooX...XXXXXXooooX.XXXX",
"OOOOOOOooo.oooOOOOOOOoooooooX.ooooOOOOOOOOoooX.XXooOOOOOOoo.XXoo",
"OOOOOOOOOo.XoOOOOOOOOOOOOoooo.XoOOOOOOOOOOOOoX.ooOOOOOOOOOoX.ooO",
"OOOOOOOOOOo.oOOOOOOOOOOOOOOoo.XOOOOOOOOOOOOOOo.oOOOOOOOOOOOX.oOO",
"OOO+++OOOOO.XOOOOOOO+++++OOOoo.OOOOO++++++OOOO.XOOOO++++OOOo.OOO",
"OO++++++OOO.XOOOOO+++++++++OOo.OOOO+++++++++OOo.oOO++++++OOO.oOO",
"O++++++++OOo.OOOO+++++++++++OO.OOOO++++++++++OO.oOO++++++OOOo.OO",
"O+++++++++OO.OOO++++++++++++OO.oOO+++++++++++OO.XOO+++++++OOo.OO",
"++OOOO++++OO.oOO++++++OOOO+++O.oOO+++OOO++++++Oo.OOO+++O++OOO.OO",
"+OOOOOO+++OOo.OO+++++OOOOOO++Oo.OO++OOOOOO++++Oo.OOO++OO++OOO.OO",
"+OOOOOO++OOOO.oOO+++OOOOOOO+OOO.OOO+OOOOOOO+++OO.oOOO+OOO+OOO.oO",
"OOOOOO++OOOOO.oOO+++OOOOOOO+OOO.oOOOOOOOOOO++OOOX.OOOOOOO+OOO.oO",
"OOOOOOOOOOOOOo.OO++OOOOOOOOOOOO.XOOOOOOOOOO++OOOo.OOOOOOOOOOOo.O",
"OOOOOOOOOOOOOO.OOO+OOOOOOOOOOOO.XOOOOOOOOOO+OOOOO.OOOOOOOOOOOo.O",
"OOOOOOOOOOOOOO.OOO+OOOOOOOOOOOOo.OOOOOOOOOOOOOOOO.oOOOOOOOOOOo.O",
"OOOOOOOOOOOOOO.OOOOOOOOOOOOOOOOo.OOOOOOOOOOOOOOOO.oOOOOOOOOOOO.O",
"OOOOOOOOOOOOOO.OOOOOOOOOOOOOOOOo.OOOOOOOOOO+OOOOOo.OOOOOOOOOOO.O",
"OOOOOOOOOOOOOO.oOO+OOOOOOOOOOOOO.OOOOOOOOOO+OOOOOo.OOOOOOOOOOO.o",
"OOOOOOOOOOOOOOo.OO+OOOOOOOOOOOOO.OOOOOOOOOO++OOOOo.OOOOOOOOOOOo.",
"OOOOOOOOOOOOOOO.OO++OOOOOOOOOOOO.OOOOOOOOOOO+OOOOO.OOOOOOOOOOOo.",
"OOOOOOOOOOOOOOO.OOO+OOOOOOOOOOOO.OOOOOOOOOOOOOOOOO.OOOOOOOOOOOO.",
"oOOOOOOOOOOOOOO.oOOOOOOOOOOOOOOO.OOOOOOOOOOOOOOOOO.OOOOOOOOOOOO.",
"oOOOOOOOOOOOOOO.oOOOOOOOOOOOOOOO.OOOOOOOOOOOOOOOOO.OOOOOOOOOOOO.",
"oOOOOOOOOOOOOOO.oOOOOOOOOOOOOOOO.OOOOOOOOOOOOOOOOO.OOOOOOOOOOOO.",
".OOOOOOOOOOOOOOo.OOOOOOOOOOOOOOO.oOOOOOOOOOOOOOOOO.OOOOOOOOOOOOo",
".OOOOOOOOOOOOOOo.OOOOOOOOOOOOOOO.oOOOOOOOOOOOOOOOO.OOOOOOOOOOOOo",
".OOOOOOOOOOOOOOO.OOOOOOOOOOOOOOO.oOOOOOOOOOOOOOOOO.OOOOOOOOOOOOo",
".OOOOOOOOOOOOOOO.OOOOOOOOOOOOOOO.oOOOOOOOOOOOOOOOO.OOOOOOOOOOOOO",
".OOOOOOOOOOOOOOO.OOOOOOOOOOOOOOO.oOOOOOOOOOOOOOOOO.OOOOOOOOOOOOO",
".OOOOOOOOOOOOOOO.OOOOOOOOOOOOOOO.oOOOOOOOOOOOOOOOO.OOOOOOOOOOOOO",
".OOOOOOOOOOOOOOO.OOOOOOOOOOOOOOO.oOOOOOOOOOOOOOOOO.OOOOOOOOOOOOO",
".OOOOOOOOOOOOOOO.OOOOOOOOOOOOOOO.oOOOOOOOOOOOOOOOO.OOOOOOOOOOOOO",
".OOOOOOOOOOOOOOO.OOOOOOOOOOOOOOO.oOOOOOOOOOOOOOOOO.OOOOOOOOOOOOO",
".OOOOOOOOOOOOOOO.OOOOOOOOOOOOOOO.oOOOOOOOOOOOOOOOo.OOOOOOOOOOOOO",
".OOOOOOOOOOOOOOO.OOOOOOOOOOOOOOO.OOOOOOOOOOOOOOOOo.OOOOOOOOOOOOO",
".OOOOOOOOOOOOOOo.OOOOOOOOOOOOOOO.OOOOOOOOOOOOOOOOo.OOOOOOOOOOOOO",
".OOOOOOOOOOOOOOo.OOOOOOOOOOOOOOo.OOOOOOOOOOOOOOOO.oOOOOOOOOOOOOO",
".OOOOOOOOOOOOOOo.oOOOOOOOOOOOOOo.OOOOOOOOOOOOOOOO.oOOOOOOOOOOOOO",
".OOOOOOOOOOOOOOo.oOOOOOOOOOOOOOo.OOOOOOOOOOOOOOOO.OOOOOOOOOOOOOo",
".OOOOOOOOOOOOOOo.oOOOOOOOOOOOOOo.OOOOOOOOOOOOOOOO.OOOOOOOOOOOOOo",
".OOOOOOOOOOOOOOo.oOOOOOOOOOOOOOo OOOOOOOOOOOOOOOO.OOOOOOOOOOOOOo",
".OOOOOOOOOOOOOOo.oOOOOOOOOOOOOOo OOOOOOOOOOOOOOOO.OOOOOOOOOOOOOo",
".oOOOOOOOOOOOOOo.oOOOOOOOOOOOOoo OOOOOOOOOOOOOOOo.OOOOOOOOOOOOOo",
".oOOOOOOOOOOOOO..oOoOOOOOOOOOOoo OOOOOOOOOOOOOOOo.OOOOOOOOOOOOOo",
".oOOOOOOOOOOOOO..oOoOOOOOOOOOOoo OOOOOOOoOOOOOOoo.OOOOOOOOOOOOoo",
".OOOOOOOOOOOOOo..oooOOOOOOOOOOoo oOOOOOOoOOOOOOoo.OOOOOOOOOOOOo.",
".OOOOOOOOoOOOOo..oooOOOOoOOOOooo oOOOOOooOOOOOOo..OOOOOOOOOOOoo.",
".OOOOOOOooOOOOo .oooOOOOoOOOOoo. oOOOOOooOOOOOoo..oOOOOOOOOOooo ",
"oOOOOOooooOOOoo .ooooOOOooOOOoo. oOOOOOoooOOOOoo. oOOOOOOOOoooo ",
"ooOOoooooOOOoo. oooooOOOooOOooo. ooOOOooooOOOooo. ooOOOOOOOoooo ",
"oooooooooooooo. oooooOOooooOooo .ooooooooOOOoooo. ooooOOOOooooo ",
"oooooooooooooo. oooooOOoooooooo oooooooooooooooo. .oooooOOoooo. ",
"oooooooooooooo  oooooOoooooooo. oooooooooooooooo. .ooooooOoooo. ",
"oooooooooooooo  oooooooooooooo. oooooooooooooooo ..ooooooooooo .",
"ooooooooooooo.  oooooooooooooo. oooooooooooooooo ..oooooooooo. o",
"ooooooooo.ooo. .ooooooooooooo.. ooooo.ooooooooo. ..oooooooooo. o",
"ooooooooo.ooo. .ooooooooooooo.. ooooo.ooooooooo. .ooooooooooo. o",
"oooooooo..oo.. .oooooooooooo... oooo..oooooooo. ..ooooooooooo  o",
"oooooooo.....  ..oooooooooo.... .o....ooooooo.. ..oooooooooo. ..",
"..ooooo......  ...oooooo......  .....ooooo.... ..ooooooooo... ..",
"............. ................  .............  .............. ..",
"............  ...............   ............   .............  ..",
".........      ..............    .........      ............   .",
"......          ............      ......          ........      "
};
