/* XPM */
static const char *quartz_bricks[] = {
/* columns rows colors chars-per-pixel */
"64 64 6 1 ",
"  c #DDD9CB",
". c #E2DED0",
"X c #EAE2DA",
"o c #EEE6DE",
"O c #EEEAE6",
"+ c #F2EFED",
/* pixels */
"++++++++++++++++++++++++++++++++++++++++++++++++++++++++++++++OX",
"+OOOOOOOOOOOOOOOOOOOOOOOOOOOOOOOOOOOOOOOOOOOOOOOOOOOOOOOOOOOOOX.",
"+OoooooOOOOOOOOOOOOOOOOOOOOOOOOOOOOOooooooooooooooXXXXXXXXXXXX..",
"+OooOOOOOOOOOOOOOOOOOOOOOOOOOOOOOoooooooooooooXXXXXXXXXXXXXooo..",
"+OOOOOOOOOOOOOOOOOOOOOOOoooooooooooooooooooXXXXXXXXXXXXXoooooo..",
"+OOOOOOOOOOOOOOOOOOOooooooooooooooooooooXXXXXXXXXXXXXXooooooOO..",
"+OOOOOOOOOOOOOOOoooooooooooooooooooooXXXXXXXXXXXXXXXoooooOOOOO..",
"+OOOOOOOOOOoooooooooooooooooooooooXXXXXXXXXXXXXXXXXoooOOOOOOOO..",
"+OOOOOooooooooooooooooooooooooooXXXXXXXXXXXXXXXXXoooOOOOOOOOOO..",
"+OOoooooooooooooooooooooooooooXXXXXXXXXXXXXXXXXoooOOOOOOOOOOOO..",
"+OoooooooooooooooooooooooooXXXXXXXXXXXXXXXXXoooooOOOOOOOOOOOOo. ",
"+OooooooooooooooooooooooXXXXXXXXXXXXXXXXXooooooOOOOOOOOOOOoooo. ",
"+OoooooooooooooooooooXXXXXXXXXXXXXXXXXoooooooOOOOOOOOOOOoooooo. ",
"+OooooooooooooooooXXXXXXXXXXXXXXXXXXoooooooOOOOOOOOOOOOooooooo. ",
"+OoooooooooooooXXXXXXXXXXXXXXXXXXXoooooooOOOOOOOOOOOOOoooooooo. ",
"+OooooooooooXXXXXXXXXXXXXXXXXXXoooooooooOOOOOOOOOOOooooooooooo. ",
"+OoooooooXXXXXXXXXXXXXXXXXXXooooooooooOOOOOOOOOooooooooooooooo. ",
"+OooooXXXXXXXXXXXXXXXXXXXoooooooooooOOOOOOOooooooooooooooooooo. ",
"+OXXXXXXXXXXXXXXXXXXXXooooooooooooOOOOOooooooooooooooooooooooo. ",
"OOXXXXXXXXXXXXXXXXXoooooooooooooooooooooooooooooooooooooooooXX..",
"OOXXXXXXXXXXXXXXooooooooooooooooXXXXoooooooooooooooooooooXXXXX..",
"OOXXXXXXXXXXooooooooooooooooXXXXXXXoooooooooooooooooooXXXXXXXX..",
"OOXXXXXXooooooooooooooooXXXXXXXXXooooooooooooooooooXXXXXXXXXXX..",
"OOoooooooooooooooooooXXXXXXXXXXoooooooooooooooooXXXXXXXXXXXXXX..",
"+OoooooooooooooooXXXXXXXXXXXXoooooooooooooooooXXXXXXXXXXXXXXoo. ",
"+OoooooooooooXXXXXXXXXXXXXXoooooooOoooooooooXXXXXXXXXXXXoooooo. ",
"+OoooooooXXXXXXXXXXXXXXXooooooooOOooooooooXXXXXXXXXXXooooooooo. ",
"+OooooXXXXXXXXXXXXooooooooooooOOOoooooooXXXXXXXXXXoooooooooooo. ",
"+OooXXXXXXXXooooooooooooooOOOOOOoooooooXXXXXXXXooooooooooooooo. ",
"OoXXXXXXooooooooooooooOOOOOOOOoooooooXXXXXXXoooooooooooooooooo. ",
"................................................................",
"    ............            ........                    ........",
"++++++++++++++..++++++++++++++++OO+++++++++++O. +++++++O++++++++",
"OOOOOOOOOOOOOO..+OOOOOOOOOOOOOOOOOOOOOOOOOOOOO. +OOOOOOOOOOOOOOO",
"OOOOoooooooooo..+OoooooooooooooooooooooOOOOOOO. +OOOOOOOOOOOOOOO",
"oooooooooooooo..+OooooooooooooooooooOOOOOOOOOO. +OOOOOOOOOOOOOOO",
"oooooooooXXXXX..+OooooooooooooooOOOOOOOOOOOOOO. +OOOOOOOOOOOOooo",
"ooooooXXXXXXoo..+OooooooooooOOOOOOOOOOOOOOOOOO. +OOOOOOOOOoooooo",
"ooooXXXXXXoooo..+OoooooooOOOOOOOOOOOOOOOOOOOOO. +OOOOOOOoooooooo",
"ooXXXXXXoooooo..+OooooOOOOOOOOOOOOOOOOOOOOOOOO. +OOOOooooooooooo",
"XXXXXXoooooooo. +OOOOOOOOOOOOOOOOOOOOOOOoooooo..+Ooooooooooooooo",
"XXXXoooooooooo. +OOOOOOOOOOOOOOOOOOOoooooooooo..+OooooooooooooXX",
"XXoooooooooOOO. +OOOOOOOOOOOOOOOoooooooooooooo..+OoooooooooooXXX",
"ooooooooOOOOOO. +OOOOOOOOOOOooooooooooooooooXX..+OooooooooooXXXo",
"ooooooOOOOOOOO. +OOOOOOOooooooooooooooXXXXXXXX. +OXooooooooooooo",
"ooooOOOOOOOOOO. +OOOooooooooooooooXXXXXXXXXXXX. +Ooooooooooooooo",
"oOOOOOOOOOOOOO. +OoooooooooooooXXXXXXXXXXXXXoo. +Ooooooooooooooo",
"OOOOOOOOOOOOoo. +OooooooooooXXXXXXXXXXXXXXoooo. +OooooooooooooOO",
"OOOOOOOOoooooo. +OooooooXXXXXXXXXXXXXXXXoooooo. +OooooOOOOOOOOOO",
"OOOOOOoooooooo. OOoooXXXXXXXXXXXXXXXXooooooooo. +OOOOOOOOOOOOOOO",
"OOOOoooooooooo. OOoXXXXXXXXXXXXXXXooooooooooOO. +OOOOOOOOOOOOOOO",
"OOoooooooooooo. +OXXXXXXXXXXXXooooooooooooOOOO. +OOOOOOOOOOOOOOO",
"OoooooooooooXX. +OooXXXXoooooooooooooooOOOOOOO. ++OOOOOOOOOOOOOO",
"oooooooooXXXXo. +OooooooooooooooooooOOOOOOOOOO. +OOOOOOOOOOooooo",
"oooooooXXXXXoo. +OoooooooooooooooOOOOOOOOOOOOO. +OOOOOoooooooooo",
"oooooXXXXXXooo. +OooooooooooooOOOOOOOOOOOOOOOO. +Ooooooooooooooo",
"oooXXXXXXXoooo. +OoooooooOOOOOOOOOOOOOOOOOoooo..+Ooooooooooooooo",
"oXXXXXXXXooooo. +OooOOOOOOOOOOOOOOOOOOOOOooooo..+Ooooooooooooooo",
"XXXXXXXooooooo. +OOOOOOOOOOOOOOOOOOOOOOOoooooo..+OooooooooooooXX",
"XXXXXooooooooo. +OOOOOOOOOOOOOOOOOOOOooooooooo..+OooooooooooXXXX",
"XXXooooooooooo. OOOOOOOOOOOOOOOOOOoooooooooooo. +OoooooooooXXXXX",
"XooooooooooooO. OOOOOOOOOOOOOOOooooooooooooooo. OOXXooooooXXXXXX",
"............... ............................... ................",
"    ........    ................                ........        "
};
