/* XPM */
static const char *rail[] = {
/* columns rows colors chars-per-pixel */
"64 64 10 1 ",
"  c #513D24",
". c #67502C",
"X c #7E6237",
"o c #686868",
"O c #72796E",
"+ c #967441",
"@ c #A6824D",
"# c gray61",
"$ c #ABACAB",
"% c None",
/* pixels */
"%%%%%%%%##$$$#Oo%%%%%%%%%%%%%%%%%%%%%%%%%%%%%%%%oO#$$#$#%%%%%%%%",
"%%%%%%%%##$$$#Oo%%%%%%%%%%%%%%%%%%%%%%%%%%%%%%%%oO#$$#$#%%%%%%%%",
"%%%%%%%%##$$$#Oo%%%%%%%%%%%%%%%%%%%%%%%%%%%%%%%%oO#$$#$#%%%%%%%%",
"%%%%%%%%##$#$#Oo%%%%%%%%%%%%%%%%%%%%%%%%%%%%%%%%oO#$$###%%%%%%%%",
"%%%%@@@X##$#$#Oo+@@@++@@++++@@@@@@@@++@@@@@@@@@@OO#$$###@@@@%%%%",
"%%%%@@@X##$#$#Oo+++@@@++++@@@@@++@@@@@+++X+@@@@+OO#$$###@@++%%%%",
"%%%%++@+####$#OoX+@@++@@@@@@++@@@+@++@@@++XX++++OO#$$###@@@@%%%%",
"%%%%@@+X####$#OoX++++@@@++@@@@+++@@@@@@@@@@++++XOO#$$###++@+%%%%",
"%%%%+XXX$##$$#OoX++@@@++XX+XX++@@@@@+++@@@+++XXXoO#$$##$X+++%%%%",
"%%%%++XX$##$$#OoXX++@@@++XX+++@@++@@@+++++@@@+XXoO#$$$#$XXX+%%%%",
"%%%%XX..$$#$$#Oo...XX......XX.XXXX.....XXXXX....oO#$$$#$...X%%%%",
"%%%%.   $$##$#Oo ...    .  ..... ..   ..  ....  oO#$$$#$  ..%%%%",
"%%%%%%%%#$##$#OO%%%%%%%%%%%%%%%%%%%%%%%%%%%%%%%%oO#$$$##%%%%%%%%",
"%%%%%%%%#$#$$#OO%%%%%%%%%%%%%%%%%%%%%%%%%%%%%%%%oO#$$$$#%%%%%%%%",
"%%%%%%%%#$#$$#OO%%%%%%%%%%%%%%%%%%%%%%%%%%%%%%%%oO#$$$$#%%%%%%%%",
"%%%%%%%%#$#$$#OO%%%%%%%%%%%%%%%%%%%%%%%%%%%%%%%%oO#$$$$$%%%%%%%%",
"%%%%%%%%###$$#OO%%%%%%%%%%%%%%%%%%%%%%%%%%%%%%%%OO#$$#$$%%%%%%%%",
"%%%%%%%%##$$$#OO%%%%%%%%%%%%%%%%%%%%%%%%%%%%%%%%OO#$$#$#%%%%%%%%",
"%%%%%%%%##$$$#OO%%%%%%%%%%%%%%%%%%%%%%%%%%%%%%%%OO#$$#$#%%%%%%%%",
"%%%%%%%%##$$$#OO%%%%%%%%%%%%%%%%%%%%%%%%%%%%%%%%OO#$$#$#%%%%%%%%",
"%%%%@@@+##$#$#OO+@@@@@@@@@++@@@@@@++@@@@@+++@@@+OO#$$###+@@@%%%%",
"%%%%++@@##$#$#OO++++@@@+++@@@@++@@@@@@++@@+++@++OO#$$###+++@%%%%",
"%%%%@@+X####$#OOX++@++XX+@@+@@@@+++++@@@++XX+++XOO#$$##$X+@@%%%%",
"%%%%++XX#$##$#OOX+@@@+++X++@@@@@@++@@@+@@+++X++XOO#$$##$+XX+%%%%",
"%%%%+X++#$##$#OoX+++++@@@@@@@++++@@+++@@+++@@++XOO#$$$#$XX++%%%%",
"%%%%++XX#$##$#OoXX++@@@@@++++@@+++@@@@@@@@@+++XXOO#$$$#$XXXX%%%%",
"%%%%XXX.#$##$#Oo..XXXXX........XXXXXX.....XXX...OO#$#$##X...%%%%",
"%%%%..  #$##$#Oo  ......    .. .  ....  ......  OO#$#$##..  %%%%",
"%%%%%%%%$$##$#Oo%%%%%%%%%%%%%%%%%%%%%%%%%%%%%%%%oO#$#$$#%%%%%%%%",
"%%%%%%%%$###$#Oo%%%%%%%%%%%%%%%%%%%%%%%%%%%%%%%%oO#$#$$#%%%%%%%%",
"%%%%%%%%$###$#Oo%%%%%%%%%%%%%%%%%%%%%%%%%%%%%%%%OO#$#$$#%%%%%%%%",
"%%%%%%%%$#$#$#Oo%%%%%%%%%%%%%%%%%%%%%%%%%%%%%%%%OO#$#$##%%%%%%%%",
"%%%%%%%%##$#$#OO%%%%%%%%%%%%%%%%%%%%%%%%%%%%%%%%OO#$#$##%%%%%%%%",
"%%%%%%%%##$$$#OO%%%%%%%%%%%%%%%%%%%%%%%%%%%%%%%%OO#$####%%%%%%%%",
"%%%%%%%%##$$$#OO%%%%%%%%%%%%%%%%%%%%%%%%%%%%%%%%oO#$####%%%%%%%%",
"%%%%%%%%###$$#OO%%%%%%%%%%%%%%%%%%%%%%%%%%%%%%%%oO#$####%%%%%%%%",
"%%%%@@@@$##$$#Oo@@@@++@@@+++@@@@@@++XX++++@@@@++oO#$##$#@@@@%%%%",
"%%%%@@+X$##$$#Oo++@@@+++@@@@+++@+XXX+XX+@@++@@@+oO#$##$#++@@%%%%",
"%%%%@@@X$##$$#OO+@@++@@@++XX++++@@++@@@@@@@@++++oO#$$#$#X@@+%%%%",
"%%%%@+++$##$$#OOX+++@@@++X+++@@@@@@++++@@@+++++XoO#$$#$#X+++%%%%",
"%%%%+XX+$###$#OOXXX++++@@@@@+++++@@@@+@@+@@+@@+XoO#$$#$#++X+%%%%",
"%%%%++XX$###$#OOXX++++@+++@@@@@++++++@@@@+++++XXoO#$$#$#XX++%%%%",
"%%%%.X..$###$#OO...XXXX.......X.XX........XXXXX.oO#$$$$#.XXX%%%%",
"%%%%    $###$#OO      ..    ......    ..  ....  oO#$#$$#  ..%%%%",
"%%%%%%%%$##$$#OO%%%%%%%%%%%%%%%%%%%%%%%%%%%%%%%%OO#$#$$#%%%%%%%%",
"%%%%%%%%$##$$#OO%%%%%%%%%%%%%%%%%%%%%%%%%%%%%%%%OO#$##$#%%%%%%%%",
"%%%%%%%%$##$$#Oo%%%%%%%%%%%%%%%%%%%%%%%%%%%%%%%%OO#$##$#%%%%%%%%",
"%%%%%%%%$#$$$#Oo%%%%%%%%%%%%%%%%%%%%%%%%%%%%%%%%OO#$##$#%%%%%%%%",
"%%%%%%%%##$$$#Oo%%%%%%%%%%%%%%%%%%%%%%%%%%%%%%%%OO#$###$%%%%%%%%",
"%%%%%%%%##$$$#Oo%%%%%%%%%%%%%%%%%%%%%%%%%%%%%%%%OO#$###$%%%%%%%%",
"%%%%%%%%##$#$#Oo%%%%%%%%%%%%%%%%%%%%%%%%%%%%%%%%OO#$###$%%%%%%%%",
"%%%%%%%%##$#$#Oo%%%%%%%%%%%%%%%%%%%%%%%%%%%%%%%%OO#$###$%%%%%%%%",
"%%%%@@@@##$#$#Oo+++@++@@@@@@@+++@@@@@@@+++@@@@@@OO#$###$@@@@%%%%",
"%%%%@@++##$#$#Oo+@@++@@@@@+++@@+++@@@@++@@++@@@+OO#$###$++@@%%%%",
"%%%%@++X##$#$#OO++@@@++X+@@++++@@@++@@@@@@@+++X+oO#$###$+@@@%%%%",
"%%%%@@+X####$#OOX++@@@++XX++@@@++@@@@+++@@+++++XoO#$###$+++@%%%%",
"%%%%@++X###$$#OOXXX+++@@@@@@++@@@@@+++@@++@@@++XoO#$####++X+%%%%",
"%%%%++XX###$$#OOXX++++++@+++@@@@++++XX+@@+++@@XXoO#$$###XX++%%%%",
"%%%%.XX.###$$#OO.XX.....X..XX..XXX....XX...XXXX.oO#$$#$#.. .%%%%",
"%%%%  . ####$#OO  ....  ..   . ...  ......      oO#$$#$#  ..%%%%",
"%%%%%%%%##$#$#OO%%%%%%%%%%%%%%%%%%%%%%%%%%%%%%%%oO#$$$$#%%%%%%%%",
"%%%%%%%%##$#$#OO%%%%%%%%%%%%%%%%%%%%%%%%%%%%%%%%oO#$$$$#%%%%%%%%",
"%%%%%%%%#$$$$#Oo%%%%%%%%%%%%%%%%%%%%%%%%%%%%%%%%oO#$$$$#%%%%%%%%",
"%%%%%%%%#$$$$#Oo%%%%%%%%%%%%%%%%%%%%%%%%%%%%%%%%oO#$$$$#%%%%%%%%"
};
