/* XPM */
static const char *red_sand[] = {
/* columns rows colors chars-per-pixel */
"64 64 6 1 ",
"  c #AC5712",
". c #B2601F",
"X c #BF6721",
"o c #CB6E24",
"O c #D2752B",
"+ c #D97B30",
/* pixels */
"XOo .XXoXXX.XXXXoXoXoXo.XXoXX..oXOo .XXoXXX.XXXXoXoXoXo.XXoXX..o",
"O.X.oo+Xo..Xoo.oXoX.XoX+oX+o. OoO.X.oo+Xo..Xoo.oXoX.XoX+oX+o. Oo",
"..XoXoX..o.OoXX+.X.XooooXoX.X.Xo..XoXoX..o.OoXX+.X.XooooXoX.X.Xo",
" X.X.Xo.X.oXO.oXo X.XO.Xo. ..XX.Xo+X oXo.X. .XX.oXo. .X.o..XoXOX",
"Xoo.X XX .+oXoXo..X o.X.oXX X..o+XXooXXXo  .X.XoX..o.X.ooXo.XXX.",
"ooXXoXo.X.XXoOOoX X X.Xoo..XoXoXXooXX.ooXX.oXo.X.X.X+ooX+X...oXX",
"X+oX.oXX.X O.XXOo.XX..oX.oX+ooo.XoXo ..XooX.oXXoX.o+oX+XX.oXoX.o",
".XX..X.ooX. X.o.XX..oX.XX+o.XoXX..X.X oXXXo+X.oX.X oX+o.XoX.XoXX",
".o.o.oXXo.XX.oXoX..XXoo.+oXo .o.o.XX.X+oXo+o+X oX..XoXXo.oXoX.X.",
"o..XX.oo. X. X.X+oX..X.XoooX.XooXX...X.XooooXoX.X.X.X..Xo.oo.XXo",
"oXoo+XX.oX.XX ..oXoo.o.oX+XXo oXo.. X.X.o+Xoo. X.  X..X X .XX.oX",
"Xo.oXX.oX X ooX..XOoX.X.XXo.XX.X.oX. .X .Xo+ooXo X .o..X.XX. XX ",
"..X.o+oX.X.XoX.oXoXOoXoX.oX .XoXX..X.  X..oXXo+XooX XXX X.X OX.X",
"X..XoX+X...XXoX+oX.X..X...Xo. XX.X.   X.X+XXo+o.Xo...XooX .X.o..",
" X .+oXoX.oX.X+oXXo.X..oX.oXX.+oX..X ..Xoo.X XoXoX.oXoXo Xo.XO. ",
"XX.oX+oX.X. .oXXoX.XXoXX.X.Xo+XX.oXo.Xo.o.  oX.oX.XX+X.X..XoXOX ",
" .o..o .X  X..X.XooXoX.oXoX.XoX. .+XoX..X .XX ..X .Xo+o..Xo.Oo.X",
"XoX.X.X.. XooX. X.o.X.o+oXo..X.XoX.o+oX .XoXoX. .XXoXoX.o+XXoXX.",
"oOoX.X.XX. oXoXX. XX.oX.X.XoXoX.X.+ooo+oX..oo+oX .oXXXoXXo.X. .X",
"OX.oXoXo.XoX.Xo. X.o..X.oXX.XX X Xo+XoXo XX.+oX.Xoo.o.XOoX..XXXX",
"OXXX.Xo X X+oo...oXXoXo+..oX.o ..o X.XoX. .XXoXoX.XX.XOoo.X.X o+",
"o.X.oX.Xo.oo+XX X+oo.o+XXoX.o.... X .Xo. X.Xo.o..XoXX.oX..Xo.XXX",
"XO.XXoX+XooXo oXoo+XoX.XoX+oX.X.oXX.XoXoX X.XoX.o.Xo..X.oXoX..Xo",
"X  .o.+ooo+XXX XXo.XX.XX++o+.X X..oX.X..oXoX.+oXXo.X.XoX..o.oXX.",
".X. .Xo+oXooX. .o.X..XoXo+o.X Xo.X.Xo.XoXoXXXX+..+oXo.X.oX.XXoXo",
"X.X XoXoo+X.+o. X.X X Xo+oXo ooXXoX..XXXo+o+oX.oXoX.X..XXo+X.ooo",
".X.oXoXXoo..XooX.X . XoXoo+oX..X X.X..o+oo++Xo.X.XoX..oX+oo+o..o",
"oXoXoXXoX. X.X.. ooX.o.oX+XoXXXXX.  oXoX+Xoo+XoXXoX.oXXoXoXoX.XX",
"XoXXo.o+.XX X.o.X+XooX.XXooXoXo.XX.X.+Xooo.+o.X.o..XXo .XXo.+X.o",
"o.oX.. XX..  .XXoooXXoX.X.X+X.XX. . Xo+oX X.Xo.XX.XoX..Xo. XooXo",
"XX oX X..X .  .o+oX..X.o..o..o.X.X XXo.X.o X..oXoXo+. XX X.ooXo.",
"XoXoXo.X. .X XoXoo+X .XX.X X.XXOX.. .oX.OX.X oXo.OXo.X.oX.X.X .X",
"X.Xo+X oXo.X. .XX.oXo. .X.o..XoX.X.XoXooooX.X.+XXoO.o..XoXoX...o",
".o+XXooXXXo  .X.XoX..o.X.ooXo.XX .o+Xo+XoX.XoXo.ooX..oX+oo.X.OOo",
"oXXooXX.ooXX.oXo.X.X.X+ooX+X...o.XXoXX.oXoXoXoXXXX.XXXoXX. oOXXo",
"o.XoXo ..XooX.oXXoX.o+oX+XX.oXoX+X...XXoX+oX.X..X...Xo. X.oXXXOX",
"XX..X.X oXXXo+X.oX.X oX+o.XoX.XoXoX.oX.X+oXXo.X..oX.oXX..o.X..X.",
"o.o.XX.X+oXo+o+X oX..XoXXo.oXoX.oX.X. .oXXoX.XXoXX.X.Xo+o..Xo.XX",
"ooXX...X.XooooXoX.X.X.X..Xo.oo.X .X  X..X.XooXoX.oXoX.XoXOX.XX.o",
"oXo.. X.X.o+Xoo. X.  X..X X .XX.X.. XooX. X.o.X.o+oXo..XOooX XXX",
".X.oX. .X .Xo+ooXo X .o..X.XX. X.XX. oXoXX. XX.oX.X.XoXo.XoXX X.",
"oXX..X.  X..oXXo+XooX XXX X.X OXXo.XoX.Xo. X.o..X.oXX.XXoX.X.XXo",
"XX.X.   X.X+XXo+o.Xo...XooX .X.oo X X+oo...oXXoXo+..oX.oX+oX .oX",
"+oX..X ..Xoo.X XoXoX.oXoXo Xo.XO.Xo.oo+XX X+oo.o+XXoX.o.o.Xo .X ",
"XX.oXo.Xo.o.  oX.oX.XX+X.X..XoXOX+XooXo oXoo+XoX.XoX+oX. XoXXo.X",
"X. .+XoX..X .XX ..X .Xo+o..Xo.Oo+ooo+XXX XXo.XX.XX++o+.XX.Xo....",
".XoX.o+oX .XoXoX. .XXoXoX.o+XXoXo+oXooX. .o.X..XoXo+o.X .X.XX.. ",
"X.X.+ooo+oX..oo+oX .oXXXoXXo.X. Xoo+X.+o. X.X X Xo+oXo oXoXoX X ",
" X Xo+XoXo XX.+oX.Xoo.o.XOoX..XXXXoo..XooX.X . XoXoo+oX.OooX+X.X",
" ..o X.XoX. .XXoXoX.XX.XOoo.X.X XoX. X.X.. ooX.o.oX+XooX.oXoXoX.",
"... X .Xo. X.Xo.o..XoXX.oX..Xo.Xo+.XX X.o.X+XooX.XXooX+.Xo+.o .X",
"X.oXX.XoXoX X.XoX.o.Xo..X.oXoX.. XX..  .XXoooXXoX.X.X+oooXoX..XX",
" X..oX.X..oXoX.+oXXo.X.XoX..o.oXX..X .  .o+oX..X.o..o.XX.oXXoXo+",
"Xo.X.Xo.XoXoXXXX+..+oXo.X.oX.XXo.X. .X XoXoo+X .XX.X X X X+oo.XX",
"oXXoX..XXXo+o+oX.oXoX.X..XXo+X.oXX..X...X+.+o XXo.X. .. ..oXoXXo",
".X X.X..o+oo++Xo.X.XoX..oX+oo+o...X.o.X.o.X.Xo X.XoX.X X.X.XX.X.",
"XXX.  oXoX+Xoo+XoXXoX.oXXoXoXoX..oXo.X.X. oX ..o..X XX..X. .ooXo",
"o.XX.X.+Xooo.+o.X.o..XXo .XXo.+XX.oXXXXoX.X.X...XoXXX.XXOXO.oXoo",
"XX. . Xo+oX X.Xo.XX.XoX..Xo. XooXooo.oX+XX.X  .X Xo.XoX.Xooo.o.o",
".X.X XXo.X.o X..oXoXo+. XX X.ooX..o.X. .oXo.XX. .X.oXo X+oX.X.XX",
"XOX.. .oX.OX.X oXo.OXo.X.oX.X.X XoXo.XX+Xo+o.XoXXo.XooX.. oXoX.o",
"oX.X.XoXooooX.X.+XXoO.o..XoXoX..o...X+Xoo+X.X.X.oXo.XXoo.XXooXXo",
"oO .o+Xo+XoX.XoXo.ooX..oX+oo.X.OXX.oXoo.X.o..XoX.X.  oXXXooXX+o.",
"o..XXoXX.oXoXoXoXXXX.XXXoXX. oOXXoX..o.X. .oXo.XX. .X.oXo X+oX.X"
};
