/* XPM */
static const char *red_sandstone_bottom[] = {
/* columns rows colors chars-per-pixel */
"64 64 6 1 ",
"  c #9F4E0B",
". c #AC5712",
"X c #B2601F",
"o c #C06822",
"O c #CB6E24",
"+ c #D2752B",
/* pixels */
" XooOOooooooOoXoOooooooooooOX.XOoooooooooooooOOo...XX..XXoooooX.",
" XoOooooooooooX.oOOooooooXooXXoOoooooooooooooooOX....XooOOOOoooX",
"XXOoooooooooooX.XooooXXoooXXXXooOoooooooooooooooXX..ooOOooOOOOoo",
"XXooooooooooooXX.XooXXooooo.XoooooooXoooooooooXoXX.XoOOooooooooo",
"XooXooooooooooXXX...  .   ..XXoooooooXXoooooooXXX.XooOooooooXooo",
"XoooXXoooXoooXXX..   ....    .XXoXXoXXooXXoXoXX.. XoOooooooXoooo",
".XoXXooXXooXXXX.   .ooOOoXX.   .XXoooooXXoooX... .oXOooooooooooo",
"..XXooooXXooX.  XXoOOOOOOOoo..  ..XXooooooXXXX.  XoooooXooooXooX",
"...XoooooooX. XXoOOOOOooooOooX..  ..XXXXXXXXX.  .XooooXoooXXooX.",
"X...XooooX...XoOOOOoooooooooXoX..  ....XX...  .X..XooXXooooXX..X",
"OO  .XXX...XooOOoooooOOooooooXo......XoooOOOooXXX.XoXX.XX. ..XXo",
"OOX. .X. .XooOooooooOOoooooXoooX..XoOOOO++++++ooXX.XooX.  ..XXoo",
"OooX    .XoXooooooooooooooooXoo.XoOOOO++++++OO++oXX..    ..X++Oo",
"OOoo.  .XooooooooooooooooooooOo.oOOO++++OOooOOoO++oX..  .X++OOoO",
"ooooX ..XXooooooooooooXooooooOX.OO+++OoooOOOoooooOOoo. .X++OOOOO",
"ooXoo .XooooXXooXooooooXXXooOo..O++OooooOOOoooOooooOX. .X+OOoOOO",
"oooXo.XoooXXXooXoooooXXXooooOX.O+OooooXooooXoOooooooXX..O+OooooO",
"ooooo.XooOoXXXooooooooXoXooOOX.O+oOOoXooooXXXoooooooXoX.+OOOooOo",
"oooooX.oXoOoooooooXXooooOoo+O oOOoooooOoOoXooooooXoXXoX.+Ooooooo",
"XoooOo.XoooooooooooOOooooOO+. OOOooooOOOooooOOooooXXoO..+ooooooo",
"oXXooOX.XooooooXoXoooooOOO+X..OOoooXoooOOOoOOooooXXoOo.XOooXoooo",
"XXoooO+.XXXoOOooXoooOOOO++X. .oOOoXXooOOOooooOooooooOo.XooXXoXoX",
"XoXooo++.XooooOOOOOOooO++..  .XooooXXoooOOoooooooooOOX XoOoXXooo",
"oooooOO++.XXooXooOOOOOO.    ...XXooooooooooooXooooOOOX  o+oooooo",
"ooooooOOO+..XooXoooXX.    ..  ..X.XXoXooooooXoooOOOOX. .X+Oooooo",
"oooooOoOOOO...XXXX.   ..oOooX.  .XXXXoooooooooOOOOXX  ..XOOooooo",
"OooooooooOOOX...  ..ooOO+++OOoX. .XoOoooooOOOOOXXX  .....oOoooXo",
"ooooXoXoooOOo..  .oO++++OOoOooOo...XoOOoOOOOoXXX   .XX. ..oOoooX",
"oooooXooooO+oX ..o+++OOOOoOOOOO+oX..XXoXXX....Xoo+++OOX.  .ooooo",
"ooOOooOooOO+XX..o++OoooOOOOOOOOO+oX...XX....ooOO+++++++O.  .oOoo",
"oOOooooOOOOoX..o+OOoooOOOooOOOOO++oX. .  .ooOOoooOoOO++++O..XoOo",
"oooooOOO+OOXX.oOooOOooooOOooooOOO+Oo..  oOOOOooXooOO+++++++. Xoo",
"OooOO+++OOX..XOOoooooooOooooOOoooOOOX..oOOooooXooooooOOOOO++.  o",
"oO++++OOX.  .oOoooooooooooooooooooOoX .OooooOOooOOooOOoOOOOO+.  ",
".XoooX.   ..XooooooooooooooooooooOoo. oOoooooOOoooOoooOOOOooO+. ",
" ..X..  ...XXoXooooooooooooooOoooooX  OoooooOooooOOOoooOOooooOX.",
" .oOOOOOoX.XoXooooooooooOooOOooooXo. .oooXooooooOOoooooooOOooOX.",
".oOOOOOOOoX.OoooOoOoooOOoo++OOooooX. XooooXXoooooooOOoOoooooOoo.",
".OoooooOOOo.+OoOOOoooXoO++OoooooOXX .XXXoXXoooXoooOoOOoooooooooX",
"XooXoooooOoX+oooooooXoo++OOOoOoOXX. ..XoooooXXXXoooOoooooooXooo.",
"XoXoooooooOoXOOooOooooOOoooOOoXX..   ..XXXXXXooooXoooooooXoXXoX.",
"ooooooooooOoX+OOOoooOOOOOOoo....  ..   .XXoXXXooXoooooooooXXooX.",
"XoXXoooooooo.X+++OOOOOOooX.    .OO++++.  XXoooooooooooooXXoooX..",
"oXXooooooooo..XX++++OOXX..   .O+++++++++. .XooOooooooooXXooXX..X",
"oooooooooXoX.....XXXX..   ..O+++OOOOOOO++O....XOOooooooooXX....X",
"oooXoooXXoX.. ..XXX...   ..O++OOOOooOOOOO+OoX. .OOOooooXXXXX. .X",
"XoXXXoooXX.  ooOOoooX... .O+OooooOOoooOOoOO++O.  oOOOOOoX.   .XX",
"XXoXooX...  oOO+++OooX...XoOOOoooooooOOoooOO++Oo  .XooX.    ....",
"..XXXXXX..oO++++OooooXX..oOooOOOooXoooooOOOooO+Oo.      XXOOooX.",
"XX..XX...OO++OOooOooXoX.XoooOOOoXXXXoooooOooOOOOoo.  ..oO+++++Oo",
"oXX.....O++OooooOoOoooX.XooOooXXXooooooooooooooOOoX .oO++++OOO++",
"OooX...o++OooooooOOOooX.oooooXoXXXooooooooXoooooooX.oo++OOOOOOOO",
"oOoo...O+OOoooOOoooooXX.ooXXoooooooooooooXoooooooOX.oO+OOoOoOOoo",
"ooooX.oO+oOOoooOOooooX..oOoXXooooooooooooooXoooooO. o+OooooOOooo",
"Xoooo.ooOooooooooXoXoX. OoooooooooooooooXXXooooooX. ooOooooooooo",
"XXooo.XoOooooXoooXXoXX. OooooOooooooXooooXXXooooOX XXooOooooooXo",
"ooXooX.ooOoXXoooXXooX...oOooooOooooXooXX..XoooOO....XXooooooXXoo",
"oooooo.XoOooXXoooooX. ..X+OooOOOoooOoooXXooXOO.  .....XooooooXXX",
"ooooooXXXoOOOooooo..   ..X+++OOooOOooXX..X.    .XXooX...XXoooooo",
"oooooooX..oOOOOOX.. ..  ..Xo++++OOXX....     ..oooooooX..XXXXXoo",
"oooooXX.....XXXX..XO++++o..XXooXX...o+++++oX.XoooooXXooXX..XXooo",
"ooXX.....XXXXX..XOO++OOOOOo.XXXX..o++++OOO+o..XoXoXXXXXoXX...XXX",
"....XXoOOOOoX..XOO+OOOOOooOo.XX.oOOOoooooOOOo.XXoooooXXX........",
"..XXoOOOooOOoX.oOOOOOOoooOOO..XoOOooooooOooOOO..XoooXXX...XXXXX "
};
