/* XPM */
static const char *red_terracotta[] = {
/* columns rows colors chars-per-pixel */
"64 64 5 1 ",
"  c #8C3A2C",
". c #8E3B2F",
"X c #903E30",
"o c #943D32",
"O c #934031",
/* pixels */
"XXXX...............XXXXXoooooXXXXXooooXXXXXXXXX..........XXXXXXX",
"XXX....XXX......XXXXXXXXXXXoooXXXXXXooooXXXX................XXXX",
"XXXXX...XXXXXOOOXXXXXXXXX........XXoooXX...XX...........XX.....X",
"XXoooXXXXXOOOXXOOXXXXXXXXXX.......XXXXXXX............XXXXXX..XXX",
"XXXoooOooXXXOOXXXXooooXX............XXXXXOOOOOXX...XXXXXXXXX..XX",
"ooooOOOOooXXXXXoooooXXXXX..........XXXOOOOOXXXX.......XXXXXXXXXX",
"XXooooooOOooOOOOOooooooooXX.....XXXXOOOOXXXX.............XXXXXXX",
"XXXXXooooooooOOooOOOooooXX......XXXXXOOOOOXXX..........XXXXXXXXX",
"XXXXX............XXXX................XXXXXXXXXXXXXooOooXXXXXXXXX",
"XXXX....................................XXXXXXXXXooOOOOOoooXXXXX",
"XXXXXXXX....XXXXX.................XXXX....XX..XooOOoXXXoo.....XX",
"XXXXXXXX.....XXX................XXXX.........XXXXoXX........XXXX",
"XXXXXX...XX...XXXXX...........XXXXXXXXXX.................XXXXXXX",
"XXXXXXXX....XXooXXooX.......XXXXXXXXXXXXXX................XXXXXX",
"XXXXXXXXXXXooXXoooXX.....XX..XXXXOOOooXXX...OOOoooooooXXX..XXXXX",
"XXXXXXXXXXXXoooooXX.....XXXXXXOOOOooooooXXooooOOOOooOOoooXXXooXX",
"ooOOXXXXXXXXXX............XXXOOOooX....XXooooOOOOooOOooOOOoXXooo",
"XooOOOXXOOXX................XXXOOooXX...XXXoooooOOoooOOOOoXXoooX",
"XXooooOOOOOOXXXXX...............................XXXX.....XXXXXXX",
"XooXXooOOoooXXXX..............................XX..X.........XXXX",
"X.XXXXXXoooXXX............................X....XXXXXXX.........X",
"....XXXXXXX...X........................XXXXXXXXXXXX...........XX",
"...XX...XXXX...XXXX...........XX........X..XXXX.................",
".......XXXXXXXXXX...........XXX..........XXX....................",
".....XOOXXXXOOXX..........X..XXXX..XXXXXXXOOOOOooooXXXXX........",
".X..XXXOOOXXXOOOXXXX.......XXXXXXXXXXXOOOOOOOooOOOooooXXXX......",
"..XXXXXXXXOOOOOXXOOXXX...........XOOOXXOOXXXOOooooooXX..........",
"XXXXXXXXXXXXOOOOOXXXX...........XXXOOOOOOOXXXXooXXXXXXX.........",
"XXXX....XXXX...OOO.........................XXXXX....XXXXXXX...XX",
"XX.....XXXXXX.................................XXX.....XXXXXXX..X",
"X...XXXXXXX........................................XXXOOOOXXXXXX",
"XXX...XXXX......................................XXXXXXXOOOOOXXXX",
"XXXoooOOOXXXX.........XXOOOOo...............XXXXXXXOOOOXOOOOOOOO",
"ooooooooOOOO.........XOOOOoooooo.........XXXXXXXXXXXOOOOXXOOOOOX",
"XoooXXXXXoooOOOOooXXOOOooooooooooooooooooOOOOoooXXXOOXXXOOOXOOoo",
"XXXooX...XXoooOooXXXXOOOOOo..oooooooooOOOOOoooXXXXXXXXXXXOXXXOOX",
"XXX....XXXXXXXXXXXXXoooooooo....ooooOOOOOoXX...XXX...XXXXXXOOXXX",
"XXXXX...XXXXXXXX..XXX...oooooo....oooOOOOOoXXX...........XOOXXXX",
"X...XX....XXX...XXX..................XooOOOOX....XXX....XXXXXXXX",
"XXX....XXXXXXX.......XX.............XXXXXooXXXXXXX....XXXXXXXXXX",
"XXXXXXXXXXXOOOOOXXXXXX.................X..XXXXXX........XXXXXXXX",
"XXXXXXXXOOOXXXOOOOOOXXXXX...............XXXXXXXXX.XX...XXXXXXXXX",
"XXXXXXXXXOOOXXXXOXXOOOXXXXXX..........XXXXXXXXXXXXXXXXXXXXXXXX.X",
"..XXXXXXXXXXXXXXXXOOOXoooXX.........XXXXooooXXXOOXXXXXXXXXXXXX..",
"......XXXXOOXXOXXXXXXXXoooXXXXXX..XXXXOOOooXXXOOOOOOXXXXXXX.....",
".....XooXXXOOOXXXXXXooXXooooXXXXXXooOOOooOooooXXOOOXXOOXXXXX....",
"..XXoXXoooooXXXX...XXXooooXXOOoooOOooOOOoooooXXoooOOOXXXX.......",
"...XXooooooXXX.......XXXoXXXXOOoooOOOoooooooooooooooXX..........",
".XXXXXXX.......................XXXXXooooXXXXXXX........XXXooXXX.",
"XXXX...XX.........................XXXXoooXXX............XXXoooXX",
"XXXXX....XXX...................XXXXXXXXX...XXX.............XXooo",
"oooXXXX...XXXX...............XX.XXXXXXXX..................XXoooo",
"ooOOOOXXXXXXXXOOXX............XXXX............XXXooooooooooooOOO",
"OOXXXOOOXXOOOOOXXXXXX...XXX..................XXXoXXooooooOOOOOOO",
"XXXXXXXXOOOOOOOOOXXX......XXX...................XXooooOOooOOOOXX",
"XXXXXXXXXOOOOOOOOOOOXX...XXX.....................XXXoooOOOOXXXXX",
"XXXXXXXoooooo........XXX.........XXXooooOOoooooooooooXX......XXX",
"XXXXXXoXXoo....................XX..XXoooooOOOOooXX........XXXXXX",
"XXXXXXXXooooooXXX.................XXXXXXoooOOooOooX....XX..XXXXX",
"XXXXXXXXXXooXXXX...........XX...XX..XXooooOOOOOooXXX....XXXXXXXX",
"XXX.........................XXXXOOooooooXXoooX.............XXXXX",
".....XXX..................XXXXOooOOOoooooXXXX..XX...........XXXX",
"XX..XXX............X..XXXOOOOOOOOOOoooXXXoooXXXX........XXXXXXXX",
"XXX...XXX...........XXXOOOOOOoooooooXXXXooXXXXXXXXX...XXXXXXXXXX"
};
