/* XPM */
static const char *redstone_dust_line0[] = {
/* columns rows colors chars-per-pixel */
"64 64 4 1 ",
"  c gray85",
". c gray92",
"X c #FEFEFE",
"o c None",
/* pixels */
"ooooooooooooooooooooooooooooooooo.oooooooooooooooooooooooooooooo",
"ooooooooooooooooooooooooooooooooo.oooooooooooooooooooooooooooooo",
"oooooooooooooooooooooooooooooooooo.ooooooooooooooooooooooooooooo",
"oooooooooooooooooooooooooooooooooo..oooooooooooooooooooooooooooo",
"oooooooooooooooooooooooooooooooooo..oooooooooooooooooooooooooooo",
"ooooooooooooooooooooooooooooooooo.o.oooooooooooooooooooooooooooo",
"ooooooooooooooooooooooooooooooooooo.oooooooooooooooooooooooooooo",
"oooooooooooooooooooooooooooooooooooooooooooooooooooooooooooooooo",
"oooooooooooooooooooooooooooooooooooXoooooooooooooooooooooooooooo",
"ooooooooooooooooooooooooooooooooooXXoooooooooooooooooooooooooooo",
"ooooooooooooooooooooooooooooooooooX oooooooooooooooooooooooooooo",
"oooooooooooooooooooooooooooooooooooX ooooooooooooooooooooooooooo",
"ooooooooooooooooooooooooooooooo.ooo  ooooooooooooooooooooooooooo",
"ooooooooooooooooooooooooooooooo. o o  oooooooooooooooooooooooooo",
"oooooooooooooooooooooooooooooo..  o   oooooooooooooooooooooooooo",
"oooooooooooooooooooooooooooooo.o.  o ooooooooooooooooooooooooooo",
"ooooooooooooooooooooooooooooo..ooooo ooooooooooooooooooooooooooo",
"ooooooooooooooooooooooooooooo.o.o o o oooooooooooooooooooooooooo",
"oooooooooooooooooooooooooooo..oo ooooo ooooooooooooooooooooooooo",
"ooooooooooooooooooooooooooooo.oo  ooo  ooooooooooooooooooooooooo",
"ooooooooooooooooooooooooooooooo ooooo   oooooooooooooooooooooooo",
"oooooooooooooooooooooooooooooooooooooo ooooooooooooooooooooooooo",
"ooooooooooooooooooooooooooo.o.oooooo o  oooooooooooooooooooooooo",
"oooooooooooooooooooooooooooo.oooooooo X oooooooooooooooooooooooo",
"ooooooooooooooooooooooooooooooooooooX XXoooooooooooooooooooooooo",
"oooooooooooooooooooooooooooooooo...o XXooooooooooooooooooooooooo",
"oooooooooooooooooooooooooooooo.oo...Xoo oooooooooooooooooooooooo",
"oooooooooooooooooooooooooooo.oo...o..Xoooooooooooooooooooooooooo",
"ooooooooooooooooooooooooooo...oo..oo.o ooooooooooooooooooooooooo",
"oooooooooooooooooooooooooooo.oo.o..ooooooooooooooooooooooooooooo",
"ooooooooooooooooooooooooooooo..ooooooooooooooooooooooooooooooooo",
"oooooooooooooooooooooooooooooo..oooooooooooooooooooooooooooooooo",
"ooooooooooooooooooooooooooooooooXoXXoooooooooooooooooooooooooooo",
"oooooooooooooooooooooooooooooooooXXooooooooooooooooooooooooooooo",
"ooooooooooooooooooooooooooooooooXXoooooooooooooooooooooooooooooo",
"oooooooooooooooooooooooooooooooXoXoXoooooooooooooooooooooooooooo",
"oooooooooooooooooooooooooooooXXXooXXoooooooooooooooooooooooooooo",
"ooooooooooooooooooooooooooooooXoooXooooooooooooooooooooooooooooo",
"oooooooooooooooooooooooooooooXoXoXoooooooooooooooooooooooooooooo",
"oooooooooooooooooooooooooooooo oXooooooooooooooooooooooooooooooo",
"oooooooooooooooooooooooooooooo  XooXoooooooooooooooooooooooooooo",
"ooooooooooooooooooooooooooooo   oXoXoooooooooooooooooooooooooooo",
"oooooooooooooooooooooooooooooo ooXXooooooooooooooooooooooooooooo",
"ooooooooooooooooooooooooooooooo ooXooooooooooooooooooooooooooooo",
"oooooooooooooooooooooooooooooo  oooooooooooooooooooooooooooooooo",
"oooooooooooooooooooooooooooXoo o ooooooooooooooooooooooooooooooo",
"ooooooooooooooooooooooooooXXXoooo oooooooooooooooooooooooooooooo",
"oooooooooooooooooooooooooooXoXoo  Xooooooooooooooooooooooooooooo",
"oooooooooooooooooooooooooooooo  oXXooooooooooooooooooooooooooooo",
"oooooooooooooooooooooooooooo    XXoXoooooooooooooooooooooooooooo",
"ooooooooooooooooooooooooooooo  o ooooooooooooooooooooooooooooooo",
"oooooooooooooooooooooooooooooo  ooXooooooooooooooooooooooooooooo",
"oooooooooooooooooooooooooooooooooXoooooooooooooooooooooooooooooo",
"ooooooooooooooooooooooooooooooooXXXooooooooooooooooooooooooooooo",
"ooooooooooooooooooooooooooooooooXXoooooooooooooooooooooooooooooo",
"oooooooooooooooooooooooooooooooooXoooooooooooooooooooooooooooooo",
"oooooooooooooooooooooooooooooooooXXooooooooooooooooooooooooooooo",
"ooooooooooooooooooooooooooooooooXoXXoooooooooooooooooooooooooooo",
"ooooooooooooooooooooooooooooooooooXXoooooooooooooooooooooooooooo",
"ooooooooooooooooooooooooooooooXooXoXoooooooooooooooooooooooooooo",
"oooooooooooooooooooooooooooooXoooXoooooooooooooooooooooooooooooo",
"ooooooooooooooooooooooooooooXXooXooooooooooooooooooooooooooooooo",
"oooooooooooooooooooooooooooooXXooo.ooooooooooooooooooooooooooooo",
"ooooooooooooooooooooooooooooXoXXooo.oooooooooooooooooooooooooooo"
};
