/* XPM */
static const char *redstone_ore[] = {
/* columns rows colors chars-per-pixel */
"64 64 12 1 ",
"  c #695C5C",
". c #686868",
"X c #747474",
"o c gray50",
"O c #970303",
"+ c #960606",
"@ c #CA0707",
"# c red",
"$ c #FD5E5E",
"% c #938C8C",
"& c #BF9393",
"* c #FF8989",
/* pixels */
"oooooo%%%%%%%%oooooXXXoooXXXoooXXooooXXXoooXXXXXoooo%%ooXXXXoooo",
"ooo%%%%%%%%oo%%%ooXooXXXooXXXXoooXX....XXX..XooXXo%%%ooXXXoooooo",
"o%%%%%%ooo%%ooooooooXXXXXX%%%%%oX..XXX....XXXXooooXXXoooXXXXXXoo",
"ooooo%%%ooooooooooooooXXX%%%%oooooXXXXXX.XXXXXXXXooXXXoooooXXXXo",
"oooooXXXXoooooooXoo%%%ooooooXXXX%%oooo%%oooooooXXXXX..XXXooooXXX",
"%%%%XooXXXXXooXXXXXXo%%oooXXXXXoo%%%ooo%%%ooXX..XX...XXXooXXXXXo",
"o%%oooXXXXXoooooXXXXXXooXXXXooo%%%%oXXXXoooXXXXX...XXXooXXXoo%%o",
"%%%%%oooXXXXXooXooXXXXXXXXXXXXooXXooooXXXXXoooXXX...XXXooXXXoo%%",
"oooooXXXXX......XXXXXXXXXX..X.....XXXXXXXXXXXXooXXXXooXXXXXXXXoo",
"oooXXXXX.....XX...XXXoooXXXX...XXX..XXXXXXXXXXXXoooooXXXXXXXXXXo",
"o%%%ooXXXXX...XX....XXXoooXXXX...XXXXXoooXXXXooooooooooooXXXoooo",
"%%oXXXXXXXXXXXXXoooXXXoooX......XXXoooooXXooooooXXXXoooXXXXXXooo",
"ooooXXXXoooooXXXXooooo.     ...XX..X%%%%ooooooXXXoooXXXXXXXooXXo",
"ooXXXXooXXooXXXoooX.. +++++++  ...XXXX%ooXXooooXXXoooX....XXXXoo",
"XXooooo%%%%%%%XX..  ++@@++@+@+++  ..XXXXXXoXXo%oooooooXX.XooooXX",
"oXXX%%%%ooo%..    +++@@++@@@+@++++   ..Xoooo%%%%%%ooXXX...XXoooo",
"XXXXXXoooo%.+++++@@##@+@@#@@@##@@@OOOOOO%%%%%ooooo%%%ooXXXXXXXXo",
"oooXXXXXoooo%+++@@#@##@@#@@##$#$@@@OO@O%%%%%%%%o%%XX....XooXXXoo",
"ooXXoooXXXXoo%@+++@+@##$##$#$$$##@OO@%oooo%%%%%%oo    .XXXXXoooo",
"ooooooXXXXooo%%@@++@@@##$$*$$*$$$#@&%%%o%%%%%%oo. ###@@...o%%%oo",
"ooooo%%%%ooooo%&@@@@@##$$$$**$*$&&&%XXXoooXXooXX++@#@@#@@@XXo%%%",
"oo%%%%%%%%oo%%%%&&@##@$$**$$**$&&%%ooXXXXoooX....++@####@&%o%%%o",
"ooooo%%%oooooooo%%&&#$#**$**$$&%%oXXXXXXXXX..XX...@@@@&&&%%%XXoo",
"oooo%%%%%%%ooo%%%%%%&&&$***$&&%%ooooXX....XXXX..Xo%%&&%%%XXXXXXo",
"oXXoooo%%oooooo%%%%%%%%&&&%&%%oo%%%%%%XX...XXXXXXXoooooXXXXooooo",
"XXXXXXooXXoo%%%%%%ooooo%%%%%%%%%%%%ooooXXXX..XXXXoXXXooooooXXooo",
"ooXXXoooooXXXoooo%%%oXoooXXXoo%%oXXooXX...XXXooXXXXoooo%%%ooXXXo",
"ooooXXXXXXXXXXXX%%%oooXXXXXXXXXXXooXXXXX...XXXoooooo%%%%%oXXXXoo",
"XXXXXXXXXXXX...XXXXXXX..XXXXooooXXXXoooXXXooooooXXXXXXooooooooXX",
"oXXXX........XX...XX...XXoooXoXooXXXXoXXXXX..   ..XXXXXXXXoooooo",
"oooXXXX.......XX.........XXXXXXXoooooooo..  +++     ..Xooooooooo",
"oX.   ..     ......XXXXXX..XXXoooooXX.   +++++++++++    XXXXoooo",
"oo++++++++@@  ......XXXXooXXoo%%%%%%++++++@+++@#@@@++@#@@@#@&%%o",
"oo%++@@@@@@##@@ XXXXXXXXXX%%%%%%%%%%&++@@@@@+@+@##@@@#@#@@@&oooo",
"ooo%@+@#@#$$$$@+%%%oXXoooooo%%%%oooo%&++@##@@@###@##$$#$##&%oooo",
"oo%%@@#@#$$$##+&%oo%%ooooooooo%%%%ooo%&&#@##@@@$###$#$$*$&%%%ooo",
"ooo%&@@#$#$#&&&o%%oooooo%%ooo%%oo%%%ooo%&&#@##$*$$$#$**$&ooooooo",
"oooo&+@##@#&%%oXXXooXXooo%%%oooo%%%ooXXoo%&#$$$$**$$**&&%%%ooooo",
"Xooo%&+@@#&%%oooXXXXXoXXXXoo%%%%ooooXXo%%%%&#*$**$**&&%%%ooXXXXX",
"XXXXoo&+@&%XXXoXXXXXooooXoXXXXXoooooooooXXX%&&**$*&&%oooX....XXX",
"X.Xooo%&&%%%XooooXXXXXXX.XXXXXXXXXXoooXXXX%%%%&&&&%%%%oooXX.XXoo",
"XX..XXo%%oooooooXXXooX......XX..XooXoooXXXXo%%%%%%%ooXXXXX...XXX",
"ooXXXXXXXXXXXXooooXXooXXXX....XXXXoooooooooooo%%%%%%%%oooXXoooXX",
"XXXXoXXXXXXXXXXXooooooooXXXXXooooooooooXoooo%%%%%%oo%%%%oooooooo",
"oooooooooXXXXXXoooooooo%%%%%oooooo%%%oXXXXXXoooo%%%oooXXXXXoo%%%",
"oXooXXXX..XooXXXXXoo%%%%%ooo%%oo%%%%oooXXooooXXXoooooooXXXoo%%oo",
"ooXXX....XXXXXXXXoo%%%%%%%oXXXoXXo%XXooooooXXXXooooXXXXoXXXXXXoo",
"XXXoooX...XXooXX.  .         ...oooooXXXooXX.......ooXXXXXXXoXXo",
"oXXXXXXXXXoooX.  ++@@@####@@@@++.X..XXXooooo.++++@+.XXXXXXXXXooo",
"XXXXXooXooXXo. ++@@@###@#@#@@++X...XXooooooXX%++#@@#..XX....XXXX",
"XXooooXXXXX.X++@@##@@#@@@#@#@+oXXXooXXooXXoooo%+@##%X..XXXX...XX",
"ooooooooX..Xoo++@@@##$##@@##+&XXXXXXoooooXXXoX%%##&%XXXXXX...XXX",
"o%%%%%oo%oXXXoo%+@##$$$*$##@&%ooooXXXXoo%%ooooo%&&%XoXooooooo%%o",
"oo%%%oo%%%ooo%%%%@$****$*$&&%%%oXXXXXo%%%oooXX....XXXooooX%%%%%%",
"%%%%%%%ooXXoooo%%&#$$***&&%%XXXXXXooooooooXX....XXooXXXXXXXooooo",
"ooooooooooXXoo%%%%&&*$&&%%XXXXXXXXXXoooXXXXXXXXoooooooXXXXXXo%%o",
"oooXXXXXoooooooXo%%%&&%%%%%XXXXXXXooXXXXXoooXXXXooooo%%%%%%%oo%%",
"ooooXXoXXXXXoooo%%%%%%%%oooooXXXooooooXXXXXooooo%%%%ooo%%%%%%%%o",
"oXXXX...XXooXXXooo%%%oooooXXXXXXXXXXooooooooo%%%%%%o%%ooo%%%%ooo",
"ooXX.XXXoooooooooooo%%oXXoooXXXXXXoooo%oooXXXooooooooooo%%oXXXXo",
"XXoooooooXoXXXXXXXXooooooXXXXXoooooo%%%%oooooXXXXooooXXXXXooooXX",
"ooooooXXXXXooXXXXoXXXoXXXX....XXoo%%ooo%%%%%ooXXooXXXXooooXXoooo",
"ooooXXXXooooXXXooooXooooXXXX.XXXXXoooo%%%%ooooooooooXXXooooooooo",
"ooooooooooXXoooooooooooooooXXXXXooooooooooooooooooooooXXoooooooo"
};
