/* XPM */
static const char *respawn_anchor_side0[] = {
/* columns rows colors chars-per-pixel */
"64 64 13 1 ",
"  c #000001",
". c #06030B",
"X c #100C1C",
"o c #1C1421",
"O c #211B31",
"+ c #271E3D",
"@ c #2C2943",
"# c #3B2754",
"$ c #2B0178",
"% c #483860",
"& c #573F7F",
"* c #6006AB",
"= c #8308E4",
/* pixels */
"%%&&@%&&%&&&$*===*$$%%%&&&&%%%%%%%%*==*$$$&&&&&&%%&&%==*%%%@%&&&",
"%&&%O%%&&%&%%$*=*=$%%%%%&&%&%%%%%%%%*==*$%&&&&%%%&&&=*==*%%O%%&&",
"&%%%O%%%&%%%%%*=$$%%%%%&&%%%%%%%%%%%%%*=%%%&&%%%%%%*$=*$%%%O%%&%",
"%%%@O%%%%%%%%%=*$%&%%%%%%%%%%%%%%%%%%%**%%&%%%%%%%&%*$$$%%%O@%%%",
"%@OOO%%%%%%%%=*$%%%%%%%%%%%@OOOOOOOO@%%%*%%%%%%%%%%=$$%*$%%OOO@%",
"OO%@O%%%%%%%==*%%%%%%%%%%@OOooooooooOO@%%%%%%%%%%%==$*%%%$%O@%OO",
"%%%%O@%%%%%%=*%%%%%%%%%@OOooooooooooooOO@%%%%%%%%*=*%%%%%%@O%%%%",
"%%%%@O%%%%%%*%%%%%%%%@OOooooooooooooooooOO@%%%%%==*%%%%%%%O@%%%%",
"%%%%@O%%%%%%%%%%%%%%%OOooooooooooooooooooOO%%%%*%%%%%%%%%%O@%%%%",
"%%%%%O%%%%%%%%%%%%%%@OooooooooooooooooooooO@%%%%%%%%%%%%%%O%%%%%",
"%%%%%O%%%%%%%%%%%%%%OOooooooooooooooooooooOO%%%%%%%%%%%%%%O%%%%%",
"%%%%%O@%%%%%%%%%%%%@OOOooooooooooooooooooOOO@%%%%%%%%%%%%@O%%%%%",
"%%%%%@O%%%%%%%%%%%%OOOOOoooooo....ooooooOOOOO%%%%%%%%%%%%O@%%%%%",
"%%%%%@O%%%%%%%%%%%@OOOOOOOoo........ooOOOOOOO@%%%%%%%%%%%O@%%%%%",
"%%%%%%O%%%%%%%%%%%OOOOOOOOO..........OOOOOOOOO%%%%%%%%%%%O%%%%%%",
"%%%%%%O@%%%%%%%%%@OOOOOOOO............OOOOOOOO@%%%%%%%%%@O%%%%%%",
"%%%%%%%O%%%%%%%%@OOOOOOOO..............OOOOOOOO@%%%%%%%%O%%%%%%%",
"%%%%%%%O@%%%%%%@OOOOOOOOO..............OOOOOOOOO@%%%%%%@O%%%%%%%",
"%%%%%%%O@%%%%@OOOOOOOOOO................OOOOOOOOOO@%%%%@O%%%%%%%",
"%%%%%%%.O@@@OOOOOOOOOOOO................OOOOOOOOOOOO@@@O.%%%%%%%",
"%%%%%%%@.OOOOOOOOOOOOOOO................OOOOOOOOOOOOOOO.@%%%%%%%",
"%%%%%%%O.OOOOOOOOOOOOOOO................OOOOOOOOOOOOOOO.O%%%%%%%",
"%%%%%%@O.OOOOOOOOOOOOOooo..............oooOOOOOOOOOOOOO.O@%%%%%%",
"%%%%%@OOO.OOOOOOOOOOooooo..............oooooOOOOOOOOOO.OOO@%%%%%",
"%%%@OOOOO.OOOOOOOOooooooo%............%oooooooOOOOOOOO.OOOOO@%%%",
"@@OOOOOOO.oOOOOOooooooooO@%..........%@OooooooooOOOOOo.OOOOOOO@@",
"............ooOooooooooO@@%%........%%@@OooooooooOoo............",
"%@@@@@@@@@%&..ooooooooo@@@@%%%....%%%@@@@ooooooooo..&%@@@@@@@@@%",
"&%%@@@@@@@%&%@.oooooooO@@@@@%%%%%%%%@@@@@Oooooooo.@%&%@@@@@@@%%&",
"%&&&%@@@@@@&%@@.oooooo@@@@@@@@%%%@@@@@@@@@oooooo.@@%&@@@@@@%&&&%",
"@@%%@@@@@@@%&%@@..oooo@@@@@@@@@@@@@@@@@@@@oooo..@@%&%@@@@@@@%%@@",
"@@@@@@@@@@@@%&%@@@....O@@@@@@@@@@@@@@@@@@O....@@@%&%@@@@@@@@@@@@",
"oooooo@@@@@@@%&&%%@@@@.o%&%@@@@@@@@@@%&%o.@@@@%%&&%@@@@@@@oooooo",
"...XX.oo@@@@@@@%&&&&%@@o@%&&%@@@@@@%&&%@o@@%&&&&%@@@@@@@ooXXXX..",
"..XX.XX.o@@@@@@@@%%%@@@o@@%%&&&&&&&&%%@@o@@@%%%@@@@@@@@oXXXXX...",
"XXX++XXXXo@@@@@@@@@@@@@o@@@@%%%%%%%%@@@@o@@@@@@@@@@@@@oXXXXX...X",
"$+###++XXXo@@@@@@@@@@@@o@@@@@@@@@@@@@@@@o@@@@@@@@@@@@oXXXX.XX.*$",
"***#++XX..Xo@@@@@@@@@@@o@@@@@@@@@@@@@@@@o@@@@@@@@@@@oXXXXXX.**$$",
"#$**$X...XXXoo@@@@@@@@@o@@@@@@@@@@@@@@@@o@@@@@@@@@oo..XX.X*$*XX+",
"+XX$**X.X* .X.oooooooooOooooooooooooooooOooooooooo.....X*$$*.X++",
"XX+X$*****$$*$**===*$ ..XXX........   ...X. ..XX..  . .$$. ..X++",
"XXXX..*$$$**$**===*=*  ..X.X......  ....XX......X..   $.  ..XX+X",
"XX..X ..$**$$..$$$$*=.........X.. X...XXXXXX......   .   .XXX+XX",
"XXX..XX   $$......$$*=  .....X..   X...XX++XXX...   .  ....X++XX",
".XXXXX..   .$$..... $**.....XX  XXX..XX++###++XX  X...X.XXXX+X.X",
"X.XXXXX.. .XX$$..... $*=...XX  XX..XXX++##+++XX XX.....XXXX+X.XX",
"X..X....XXXXX..$......*=*.....XX....+###++X+XXXXX...XXXXXXXX*$XX",
"X.X ..XXXXXX.XX.......==*.X..XX..XX+##+++XXX+XXX..XXX+XXX***$XXX",
".  .XXX+X++XX+XX.XX...=*$..XXXX.XX##+++XXXXXX...XXXX++*#*$*$X XX",
"  .XXX++++##+XXXX.....*$$...XX.XX+#++X++X*XXXX.X.X+++#**$$X    X",
".XXX+++###++XXX......$$$XXXXXXXX+#+XX+XXXX*XXXX.XXX+#$$**.XX    ",
"X.X++###+++XX.......$$**..XXXXXX++XXXXXXXX$*XXXXXX+$$**..X+X  XX",
"XX+####+XXXX......X$**$..XXXXXX+++X+XXXX..*$.XXXXX$$*##+++XX X.X",
"X+##++##+XX.....$$***..XXXXXXXX+X++XXXXXX.*$$.XXX***X+##+XX  X..",
"++++XX++#++XX..$**$$....XX.XXXXXXX+XXX..X***$$**$$**XXX+XXX XXX.",
".X+XX+XX++XXXX$**   ... .. .+XXXXXXXX...**==**$**$*$XXXXXXXXXXX.",
"..XXXXX++XX..$**  .....   X++XXXXXXXXX.*===..  $$**$$XXX..XX..XX",
".X++XX+XXX...$*. ...X.   .X+XXXXX...XX*==*. ..   $$*$.XXX......X",
"X.X+++XX....X*$...XX. ..XX++++XXXX...*$*XX..     .$$$ .XXXX.....",
".XXX+++......$$.XXX....XX++++X+++XX..*$XX..     .  $*$.......X..",
"XXXXX.......*$XXXX...XXX++XX++++XX.X$$.XXXX..      *=*......X+XX",
"XXXXXX..... **.XX.....XXXX+XXX+XXXXX.$XXX...       $==...XXXXX++",
"XX..... ..  *$..X..  ...XX..X.XX...XXX$X...  .  ....*==.X.X++++X",
"X.X.....    .$.X....  ...XX....XX...XX..XX.XXX.. ..XX=XX.X+++##+"
};
