/* XPM */
static const char *rooted_dirt[] = {
/* columns rows colors chars-per-pixel */
"64 64 9 1 ",
"  c #593D29",
". c #79553A",
"X c #6C6C6C",
"o c #905740",
"O c #966C4A",
"+ c #AD7D65",
"@ c #B9855C",
"# c gray53",
"$ c #BB9789",
/* pixels */
"@OOOOO..OO.OOO.OO..OOOOO@@OO.O....O...OO.. .... ..O..OO@OO.OOOO@",
"@@OO.OO...OOOOO...O.OO@@@O@OO..OOO..O+O..O. .    ..O@@@OOOO..O@@",
"OO@OO....O@O.. . ..O@@OOO@O.OOO.O.OO..$$+@O.   .. @@@OOO.O..O@O@",
"@..OOO.O@@OO+   ..O@@@@OO+....OO..OOO.O@$+++..  .OO@O@....O..OOO",
"OO..+$@@OO.+.O.  ..O@O@@O++O.....  O@@@@OO+$$+..O+++OOO....   .O",
"OOO.O+++@OO+....OO..OOOO##+$O. .  ..O@@O@OOO$$+oo+oo++.O..   ...",
"O..O@OO++.++  ...OO...OOXX$+##  ... .OO@OO.O.+$+oo@Ooooo  ...  .",
".O@@@@OO$$+$ .. .....O.O.X$+#  ..OO...OO..O..+$++oO..O oo+O...  ",
"O@O@@O..+$$$+ . .OO@O...++$$ ..OOO@@...... .. $$+O..  .Ooo+OO..O",
"OO@@OOO..++$+  .OO@@@O+++++$..OO@@OO@O.O  ..  $$o.   ...OO++OOOO",
"O@OOO.OO..++$+.O@@OOO++$. o+$O@@OOO@@@O..   ..+$OO. OO.@@@@O+O.O",
"OOO..OO....+$$OOO@@O+$$.O..o$@@@@OOO@@OOO. ..OO$O. .O.OO@@OOO..O",
"OO..O.##XO.$+$+OO.O+$$. ...O+$O@O..OOO@O...O@@O+@O.O.O@@@OO..O..",
".OOOX##X@OO+$$$+.O.+$  ....O@$OO@O..+.OO.O@@@OO+OOO..@@OO@..OOO.",
"OO@O#XXXO@++O.$++.$$+ ..O.O.O$$OO$$+..O....OO..O+...OO@@OOOO..O.",
"O.@OO#X.O@+@@O$$+O+$+OOOOO...+$+$++...... ..OO..+O.O.OOOOOO. ..O",
"..O@OO...+O@O@@$$$++.OO...O.O++$++OOOO.  . ..#O.++  O....O... OO",
"..OO..O..OOO@@O$$+++OO@@... .o+$..OOO...  ..##XX.+.  ..OO..   .O",
".O..O..OO..OOOO+$+$+@@OOOO.. O+$OOO...  ...X#X#X. +...OO.    ...",
"...O..OO..OOOO.++$++@OOOO.    .$.O...  . .OX#XX.  ...O..O. .....",
"..... ..OOO...O.+$+$+OOO... .. o.... .. ....X   .OO.O.... ...OO.",
"O...   ..OOO.    +$$++.O.OO....o  ....O...O.   .O.. .O.O......O@",
"@OO   .....OO. ...+$..+.OO..O..+o...OO.O...O...  . ..OOO....O@@O",
"@@OO.  .O....O..OO$+O.....OO..O@o.OOO...O.OOO.      ..O@O..OOO@@",
"$OO. OOOO.O......#$$...OO..OOO@@++@O..OO@@@O. ...  .OO@@O.O.O@+$",
"$$.O..OO. .OO...##$$+OO.....OOO@@+.. ..OO@@@@@..  ...O@OOO..++$$",
"+$$..... ......OOX+$$O.O.  ..@@OOooO   .OOO@@O@@....O@O@.O+$$+++",
".+$$. .O..O.O.OO.X+$+OO.  ..OO@@OOoo. ...O@@OOO@+O.O@@OO++$$+$+.",
"O.++$. .O..OOO@@OO++$@@O.. . .OOO@@O+.  O.OO@OO+O..OO@@++.O.$$O.",
"OO.o++....OO@@@@@@X+@@OO..  .OOO@@OOO..  ..OOO+o....O.O....O+$.O",
"O@@.ooo+.@@@@OO@@OO++O@OO . ..O..OO.OO..OOO...o+OO...O...OOOO+$.",
"OO@@. oo++@@OO@@OO.+$.OO..... ..OO..O..OO@OO.+o..OO..  .O.OO ++.",
"O@@O@OO.o++@@OOO.+O$+...OO.  .O..OOO.OO@@OOOO++.O..   ....  .O+O",
"O@OOOO..Ooo+O.O++OO.$$.OO.  .. O..OOOO@O@@OoOO+o ... ... ..  .OO",
"OO@O...O..oooo++O.. O$...O..  ...O.O.@@@OOOOooo++.  ..    ......",
".OOOO.....ooo+..O. .O$. ..   .O.OO..OOO@@O..  oo++ OO..  ...OO..",
"O.OO...O  oo+O.O.  O.+..   .OO.OO.OO...OO.  ....o+OO@O... OO@@OO",
".OO...O@O +o+.....  .o+..   O.... .OO.OO...  O..Oo+@@@O..OO@@OOO",
"OO ..O@@O.+o  ......  + ..OO...  ..  ....  OO..O@@oo+O@@...OO@@@",
". ...@O@. o+ .  .O.  .o+...OO.  ....  .O..OO..O@@OOooo++....OO@O",
"  ..O@OO@.o+.  OO.O@@Ooo.OOO@@.. .  ....OO.. .OO@OO@@Oo+++.OO.O.",
".  OOO@OOO++O...OO@@OO.ooO@@@OO.. +.O.O@OOO.  .OO@OO@@..#+++.O..",
"...O.O@O..$+..OO@@@O@@OOooOOO@@O++...OOO@@@O. ..OOOOOO.OX#X#XX.O",
"O.....OO.O$$.O@@O@@@@OO@Oo@O@@O++ .OOO@ooO@@. .OO.OOO.OO.X#XX.O@",
"@OO...O....$O@@OOOOOO@OOOOo..O+$O##.Oooo@OO...  ...OO..O..XXO..O",
"@@OO. .. ..$+OO@OOOO@@@OO.oo.+$O####oooO@@OO...  .OO....O....OO.",
"@O.. .. .  .+..OOOO@OO@@.O+o$+$##X#oOOOOOO..OO...  .OO....  ..OO",
"OO......  ..++..OOOOOOO@O..+$$+XX#X.OOO.OOO..OO.  . .OO....   .O",
"O.O.    ..O.O+OOOO.OOOOO@OO$+$..XX.Oo..OOOOO...........O..OOO.  ",
"..... .....OO..OO...O.OOOO.$++.OOX..ooOOO.O.....OO.+OO..OOOO.  O",
".O....O@@OO  O..OO...OOOOOOO$$OO....OoO....OOO.OO...++OOOO@O@@O.",
"..O.OO@O@@..  .OO..OOOOOO@@OO$.. ..OOooOOO..OOO... .$+OO@@OOO@@O",
"O.O..+O@OOO...  ....O..OOOO@@$+O.  ..Ooo@@OOO. .  OO.$+@@OO@@O.O",
".O..O+@@@O.O. .  .O. .OO..OO@$$OO.  .. oO@@O...  OO.O$++OOOOO...",
"O...+$OO...  O... .OO  .OO..OO$.OO..  ..oOO@O  ....OOO$+O..OOO.O",
"OOO.+$O...  ..OO..OO.O  .O.OOO$ ..O..  .OOOO  . ....O.+$..OOOOO.",
"OO.+$$+.  ...OO...  ......O.. +$.O@@..  .O  ....OO....++$OO..OOO",
"O.+$$$+    ......  .  .....   O+@@@O@  .O..  .OOO.OO.O.+$OOO...O",
".++O+$$.. ..O..OO....   .... OO++OOOOOOO.. .OOO..OO.  .++$O.O...",
"..OO.+$ ..OOO@OO....   . ##.. .O+@OO@OO..  ..OOO.....  .+$....  ",
".O...++$.O@O@@@OOOO.. ..####XX..++@@O..  ....  ...OOO.. .+O.  ..",
"O...OO++@@@@@OO@@OOO.. ###XXX.O..+O@@OO.  ..  ..OOOO...O.+.  .O.",
"@OO...O@+OO@OO.OO.O.OO..#X#X...OO.+.OO.O..  ...OO....OOOOO+.  .O",
"O@OO...OOO@OO...OO...OO..XO...OO...OO...O..  ...OO..O..OO.OO..OO"
};
