/* XPM */
static const char *scaffolding_side[] = {
/* columns rows colors chars-per-pixel */
"64 64 8 1 ",
"  c #7B5735",
". c #998741",
"X c #BBA84C",
"o c #C8B14D",
"O c #D3BB50",
"+ c #D9C25E",
"@ c #EFD97E",
"# c None",
/* pixels */
"OOOOOoooXo o o X X . X o X X O X o o o X o . X X X o O XooOOOooX",
"oOOOOooXXO O o o o . o o o X O O o o o o o . o X o o O XooOOOooX",
"oOO+OOoXoOOOooOOooo.OOooooooooOOooooooooooO.OoooooOOOOooXoO+OOoX",
"oOO+OOoXooOOOOOoooOX+OOOOOOoooooOOOOOOOOoOOX+OOOOooOOoOoXoO+OOoo",
"OoO+OOoXXOOOOOOOOOOX+OooOOooOOOOOOOooOooooOX+OOooOOOOOOoXoO+oOoo",
"OoO+OOoXXooo+++OOOOX+OOOOOOOOO++++++++++OOOX+OOO++++OOOoXoO+oOoo",
"ooO+OOoXXXoOOOOOOOOX+ooOoooOOOoooOOOOOOOOooX+OOOOOooOOooXOO+oooX",
"ooo+OOoXXXXXooooooo.+XXXXXXXooooXXXXooXoXXX.+ooXXXXXooooXOO+oooX",
"oOoOOooX+ o o o X o . o X o X o X o X X o X . o o o O O+oOOOoooX",
"oOOOOooX+ o o o X o . o o o o o X o X o o o . o o o O o+ooOOoXoX",
"oOO+OooXoOOOooOOoooO.OooooooooOOooooooooooOO.oooooOOOOoOooOOoXoX",
"oOo+OXoXooOOOOOoooO+XOOOOOOoooooOOOOOOOOoOO+XOOOOooOOoOooooOOXoX",
"oOo+OXoXXOOOOOOOOOO+XOooOOooOOOOOOOooOooooO+XOOooOOOOOOooOoOOooX",
"oooOoXXXXooo+++OOOO+XOOOOOOOOO++++++++++OOO+XOOO++++OOOooOoOOooX",
"ooooXXXXXXoOOOOOOOO+XooOoooOOOoooOOOOOOOOoo+XOOOOOooOOoooOOOOOoX",
"@@@@@@@+XXXXooooooo+.XXXXXXXooooXXXXooXoXXX+.ooXXXXXoooo@@@+++++",
".X......################################################.XXX....",
"XXXoXXXX################################################XoooXXXX",
"XXooXXXX################################################XooOoXXX",
"XXooXXXX################################################XooOooXX",
"oXoOXXXX################################################XOoOooXX",
"oXoOXXoX################################################oOoOooXX",
"ooOOoXoX################################################XoOOooXX",
"ooOOoXoX################################################XoOOooXX",
"OoOOOXoX################################################ooOOoXoX",
"OoOOOooX################################################ooOOOXoX",
"OOOOOooX################################################oOOOOXoX",
"OOoOOooX################################################oOOOOooX",
"oOo+OoOX################################################oOO+OooX",
"oOO+OoOX################################################oOO+OooX",
"oOO+OOOX################################################OOO+OOoX",
"oOO+OOOX################################################OoO+OOoX",
"OOO+OOoX################################################OoO+OOoX",
"OOO+OOoX################################################OOO+OOoX",
"OoO+OOoX################################################OOOOOooX",
"OoO+OOoX################################################OOOOOooX",
"OoOOOOoX################################################OoO+OooX",
"OoOOOOoX################################################OoO+OooX",
"ooOOoOoX################################################ooO+OoXX",
"ooOOoOoX################################################oOO+OoXX",
"ooOOoOoX################################################oOOOoXXX",
"ooOOoooX################################################XOoOoXXX",
"XooOoooX################################################XOoOoXoX",
"XooOoooX################################################XoOOoXoX",
"XXoOoooX################################################XoOooXoX",
"XXoooooX################################################ooOooooX",
"XoXooooX################################################oooooXoX",
"@@@@@@@+################################################@@@@@@@+",
".XXX....################################################..X.....",
"XooOooXX################################################XXoXXXXX",
"XooOooXX################################################XoOoXXXX",
"XoOooooX################################################XoOOXoXX",
"ooOoOXoX################################################oooOooXX",
"ooOOOXoX################################################oooOoooX",
"oOO+OXoX################################################oOoOOooX",
"oOO+OooX################################################oOOOOXoX",
"oOO+OOoXooooooooXXX.+OooooOOOOoooooooooooXX.+OoooooooooXOoO+OXoo",
"oOO+OOoXooOOOOoooooX+ooOOOOOoooOOOOOOOoooooX+OOOOOOOOOoXOoO+Oooo",
"OOO+OOooOOOOoooooooX+OOOoooOOOOOOooOOOOOOOoX+OOooOOOOoooOOO+oOoo",
"OOO+OOOoO++++OOoOOoX+OOOOO++++++++OOooOOoooX+OOO++++OOOoOOO+oOoX",
"oOOOOoOooOOOooooooo.+OOOOOOOOOOOooOOOOOOOoo.+OOOOOOOOOoXoOO+OOoX",
"oOoOOoooOOOOOoXXooo.+ooOOOOoooOOOoooooooXXX.+OoooooooXXXoOo+OOXX",
"oooOOooooooooooooXX.+OoooooXXoooooooooooooX.+OOOOoooooXXoooOOOXX",
"ooOOoooXXXXXXXXXXXX.OoooXXXXoooXXXXXXXXXXXo.OooXXXXXXXXXooOOOoXX"
};
