/* XPM */
static const char *scaffolding_top[] = {
/* columns rows colors chars-per-pixel */
"64 64 13 1 ",
"  c #684526",
". c #7B5735",
"X c #8C6847",
"o c #AB7341",
"O c #998741",
"+ c #AF825B",
"@ c #BBA84C",
"# c #C18958",
"$ c #C8B14D",
"% c #D3BB50",
"& c #D9C25E",
"* c #E3CC6A",
"= c None",
/* pixels */
"@@%%%@@@%o&X&X@X@X&.@X$o@X$o$.%o&X&X@X@X&.@X$o@X$o$.$X%$@@%%%@@@",
"@%****%@%o&X&o@o@o&.&X$o@o$o@.%o&X@X@X$X&.@o$o@X$o@X$X%%@%****%@",
"%******%$o&X@o$X$o&.&o@o@o@X@X$o&o@o$X@o&.&o@o@o@X@X%X$%%******%",
"%******@$X&X@o$X@o&.&o$o@XOX$X$o&X@o$.$o&.&o$o@X@o$X%X%$%******@",
"%****%%@%X@o@X$X$X&X%o$o$o@X@o%o@o@X@X$X@X%o@o$oOX@o$X%$%****%%@",
"@***%%%@%o&X@o@.@X@.&o@o$o@X@o%o&o@XOX@o&X&o@o$o@X@o$X$$@***%%%@",
"@%**%%@@$o@o@XO.@X&X%X@X@oOo@X%o&o@oO.@X@X%X$X$oOo@o$X$$@%**%%@@",
"@@%@@@@@$o@oOXO.OX@X%X$X@oOo@X$o@oOXO.OX@X%o$X$oOo@X$X$%@@%@@@@@",
"%%@@@@%% .X.X.X.X . X.X.X.X.X . . X.X.X . X.X.X.X.X.X.. %%@@@@%%",
".XXXoXooXo=+=o=#=o=o=o=#=+=o=#=+=o=+=o=#=o=o=o=#=+=o=#X.%$$%$$$$",
"&&@@@@@@.o+o#o#+o+#o+o#++o+oo++o#o+o#oo+#oo+#o+o+o+oo+#.XXoooooo",
"ooXXooXXX+=o=+=o=o=o=#=o=o=#=o=o=+=o=+=o=+=o=o=#=o=#=o=X@@@@@@@@",
"O@@@O@OO.#o+#oo#o#o+o+o#+#o+o#o+#oo+#o#+o#o+o#oo+#o+o#o.XXoXXooo",
"XXooXXoXXo=o=+=o=o=o=o=+=o=#=o=o=+=o=+=o=o=o=o=#=o=#=o=XO@@OOOOO",
"@$$$$$OO.+o#+o+o#+o#o#ooo#+o+oo#+oo#+o#o#+o#o+o+o#+o+o#.XXXXooXX",
".oooXXXXXo=o=+=+=o=o=o=#=o=o=#=+=o=o=+=+=o=o=#=o=o=o=#=X@@$$$$$$",
"@&&&@@@$.#o+#o+o#o#+o+o+o+o#o++o#oo+#o#oo#+o+oo#o+o#o+o.XooooooX",
"oooooooXXo=o=+=#=+=o=#=o=#=o=o=o=+=o=+=+=+=o=#=+=#=o=o=X$$@$@@@@",
"&$$$$$@@.o#+oo#o#o+oo+oo#oo+o#o+#o#+oo#o#o+oo+oo#oo+o#+ XXooXoXX",
".XXXooXXX+=o=+=+=o=+=o=#=+=o=o=o=+=o=+=+=o=#=o=#=+=o=o=.@@@@@$$$",
"@$$@@$@@.oo+#o+oo#+o#o+o+o#o#oo#+oo+#o+oo#o+o#+o+o#o#o+ .XXXXXXo",
"...X.XXXX#=o=o=#=o=o=#=+=o=+=+=o=+=o=o=#=o=#=o=+=o=+=+=X%&&@@@@@",
"@@$$@@$@.o#+o+#o+o#+o+oo#+o#ooo+#o#+o+#o+o#+o+oo#+o#oo#.ooXoXXXX",
".XooXoooXo=o=o=o=#=o=o=#=o=o=+=o=+=o=o=o=#=o=o=#=o=o=+=X@%%%%%@@",
"$$@@$$$@ +o#o#o+o+o#o#+o+#o+o##+ooo#o#o+o+o#o#+o+#o+o#o.Xooooooo",
"XXXXoooX.o=o=o=o=o=+=o=o=o=o=o=o=+=o=o=o=o=+=o=o=o=o=o=XO@@@OOOO",
"@@@O@OOO #+o#+o#o#oo#+o##o#+o#o+o#oo#+o#o#oo#+o#+o#+o++.XXXooooX",
"XoooXXooXo=+=o=o=o=#=o=o=+=o=o=o=o=#=o=o=o=#=o=o=#=o=o=X@@@@@@@@",
"%%%@@%%@.o+o#o#+o+o+o#o++o#o#+o#o+o+#o#+o+o+o#o+oo+#o#o.Xooooooo",
"XoooXXooX+=#=+=o=#=o=o=#=+=+=o=o=#=o=+=o=#=o=o=#=#=o=+= @@&&%%%%",
"%$$$%%$$.#+o#+o#o#oo#+o##o#oo#+o+oo#o#o+o+o#o#+o+#o+o#o.XXXXooXX",
"XXooXXXoXo=+=o=o=o=#=o=o=+=+=+=#=#=+=o=o=o=+=o=o=o=o=o= %%$%%%$$",
"%@@@@%%@.++o#o#+o+o+o#o+oo#o#o+oo+oo#+o#o#oo#+o#+o#+o++..XXooXXX",
"..XXXXXoXo=#=+=o=#=o=o=#=+=+=o=+=o=#=o=o=o=#=o=o=#=o=o=X%$%%$$$$",
"&&@&@@@@.o+o#oo+#oo+#o+o#o+oo#+o#o+o#o#+o+o+o#o+oo+#o#o.Xooooooo",
"XXXXooXoX+=o=+=o=+=o=o=#=o=#=o=o=#=+=+=o=#=o=o=#=#=o=+=X@@@@@@@@",
"O@@@O@OO.#o+#o#+o#o+o#ooo+#o+o#+o+oo#o#+o#o+o#oo+#o+o#o.XXooXooo",
"XoooXXXXXo=o=+=o=o=o=o=#=o=#=o=o=+=o=+=o=o=o=o=#=o=#=o=XO@@@OOOO",
"@$$$@@$O.+o#+o#o#+o#o+o+o#+o+oo#+oo#+o#o#+o#o+o+o#+o+o#.XXXXooXX",
".XooooXoXo=o=+=+=o=o=#=o=o=o=#=o=+=o=+=+=o=o=#=o=o=o=#=X$$$$$$$$",
"@&&@@@@$.#o+#o#oo#+o+oo#o+o#o+o+#oo+#o#oo#+o+oo#o+o#o+o XXoooooX",
"oooXoooXXo=o=+=+=+=#=#=+=#=o=o=o=+=o=+=+=+=#=#=+=#=o=o=.$$$$@@@@",
"&$$$@$@@.o#+oo#o#o+oo+oo#oo+o##+oo#+oo#o#o+#o+o#ooo+o#+ XooXoXXX",
".XoXooXXX+=o=+=+=o=+=o=#=+=o=o=o=+=o=+=+=o=o=o=o=+=o=o=X@@@@@@@$",
"@@@$$$@@.oo+#o+oo#+o#o+o+o#o#oo+#oo+#o+oo#+o#+o++o#o#o+...XXXXoo",
"...XXXXXX#=o=o=#=o=o=#=+=o=+=+=o=o=o=o=#=o=#=o=o=o=+=+=X%&&%%@@@",
"$$$$@@$@.o#+o+#o+o#+o+oo#+o#oo#+o+#+o+#o+o#o+#o#o+o#oo#.ooooXooX",
"..XoooooXo=o=o=o=#=o=o=#=o=o=+=o=o=o=o=o=#=#=o=+=o=o=+=X@%%%%%@@",
"$$$@$$@@ +o#o#o+o+o#o#+o+#o+o#o#o#o#o#o+o+o#o#+o+#o+o#o.Xooooooo",
"XoXXooXo.o=o=o=o=o=+=o=o=o=o=o=o=o=o=o=o=o=+=o=o=o=o=o=XOO@@O@OO",
"@@O@OOOO #+o#+o#o#oo#+o#+o#+o++o#++o#+o#o#oo#+o#+o#+o++.XXXoooXX",
"XXooXXooXo=+=o=o=o=#=o=o=#=o=o=+=o=+=o=o=o=#=o=o=#=o=o=X@@@@@@@@",
"%%@@%@@@.o+o#o#+o+o+o#o+oo+#o#+o#o+o#o#+o+o+o#o+oo+#o#o.XoooooXX",
"ooooooooX+=#=+=o=#=o=o=#=#=o=+=#=+=#=+=o=#=o=o=#=#=o=+= @%&&%%%%",
"%$$%%%$$.X+o+o#o+oo#o+oo+oo#oo#o+o#o+o#o+oo#o+oo+oo#oo#.XXXooXoX",
"$$%$$$$$ .X.X.X.X.X . X.X.X.X.X.X.X.X.X.X.X . X.X.X.X.X %%%%$$$$",
"@@%%%%%%%$o@XOXOX@X$X@.@o@XOX&o$.$o@XOXOX@X@X@.@o@o@X&X$@@%%%%%%",
"@%****%%$$o@XOo@X$o$o@.%o@XOX&X$X%o@X@X@o@o$o@.%o@X@X&o$@%****%%",
"%******%%$o%o@o@o$o%o%.&o@o@X&o%o$o$o@o@o@X@o%.&o@o@X&o$%******%",
"%******@$$o@X@o@X$o$o%.%o@o@X&o%o$o%o@o@o$X@o%.%X@o@X@o$%******@",
"%****%%@$%o%o@o@o@o%o&X&XOo@o&X%o%o%o@o@o$o$o%X&XOo@o&X%%****%%@",
"@***%%%@$%o%oOo@o@o%o&.&o@o@o%X%o%o$oOo@o@o$o&.&X@o@o&X%@***%%%@",
"@%**%%@@%$o%oOoOo@o$o&X&XOo@o%X$o%X%oOXOo@o$X&X&XOX@o@X$@%**%%@@",
"@@%@@@@@%$X%oOXOo@o$X&X&XOX@o@X$X$X%oOXOo@o$X&X&XOX@o@X$@@%@@@@@"
};
