/* XPM */
static const char *sculk_catalyst_side[] = {
/* columns rows colors chars-per-pixel */
"64 64 12 1 ",
"  c #0D1217",
". c #111B21",
"X c #052A32",
"o c #034150",
"O c #40576C",
"+ c #6E757B",
"@ c #009295",
"# c #29DFEB",
"$ c #819988",
"% c #A2AF86",
"& c #BBC39B",
"* c #D1D6B6",
/* pixels */
"...            . ..   ..............X#X.... ..    ........XOX...",
". ....          ..   ................X......     ..........X....",
"   ..             ...........X.......X.......  ............X... ",
"     ..          ...........XXX............     ..............  ",
"          ...  ..    .....  .X...........       .............  .",
"         .  .... ..     ...  .............       ............  .",
"           ....X..     ..      ........... .   .. ..........  ..",
"          .....X....          ....  .......  ................ ..",
"..        ....X#X.....            ....... . .....X............ .",
"...      ...XX###XX...             ......   .....X..............",
"... .     ....X#X....           ........    ....X@X............O",
".. .      .....X.....          ......... .  ..XX@@@XX..........O",
"O... .    . ...X....  ..       . .....X...   ...X@X.... ......O+",
"O..... .   ......... .....       ....XXX...  ....X..... .....XO+",
"+O... ..   ........ ........    .. ...X....   ...X... .  ....OO$",
"++......    .. ............     .  ......       ......   ....O+&",
"$++......     ............          ......        ...    ...O+&&",
"&$+O..X..       .............         ..         ..       ..+$&*",
"*&$+OXXX..       .........X.                               O+&*&",
"*&$$O.X..     ............X...            ..               O$&*&",
"**%$+O.....     ..  .....XOX...       .....               .+&*&&",
"&*&%++....        .....XXOOOXX.     .....   ..          ..O+**&&",
"&&*&$+O.. ..     ........XOX....   ...X...   ...     ..  .O%*&&&",
"&&*&$$+O...   ..    ......X.....   ...X........       ....+%*&&%",
"&*&%$%$+O.X..  ...   .....X....   ...X#X.....       ..  .O%&&&%%",
"&&&%%%$+OXXX......... ....  ..    .XX###XX....       ..XXO%&%&%&",
"%&&%&%$$+OX.............            .X#X...           ..O+&%%&%&",
"&%&&$%%$++......  .....  ..        ...X...  ..      ....+$&%&&%&",
"&%&&$$%%$+O..       ......     OO.....X.....      ....O+$%%%&%&%",
"%%&%$$$%$$+O       ........   OOOO..........       .OO+$$&%%%%&&",
"%&%$%$%$%%&++O   ....   .....OO$$%O........       O++$$$%%&%&%%&",
"%&%%%$%%&&&%$+OO  .    ..... O$$&%$.......      OO+$$$$%&%&%&&%%",
"$%%%$$%&**&&*&$+O    ...    O$&&**$O.....      +$&&*&%$&&%%$%&%%",
"%$%%$%&&&***&&&&$+    ...   $&**&&%$..... .   +$&&***&%&%%%%$%&%",
"%$$%$%%%&&*&&****$+        O&**&&&&%O......  ++%&**&&*&&%%%%$$&%",
"$%$%%%&%%&%&*&&***+X      XO&&&&&&&&$X.... . +$&***&&&&%%&%$+$%&",
"%%$$%%&&&%%&&&**&&$+X    XO+&%&&&&&&$OX... .+$%**&*&&%&%&&%$$+%&",
"%$+$%&%&&%$%&&&&&&&$X    X++%%&&%&&&%$X....X$$%&*&&&&%%&&%$%$+$%",
"$$+$$$%&%$$&&%&&&&&&O    ++$%&&&%&&&%$+....O$%&&&%&&%%%%&%$%$$+%",
"$+$$$$$%&$%&%%&%%&%&OX  X+$%%&%&&%&&%%+X..XO%%&&%%&%%%%$%$%%$$+$",
"$+$+$%$%&%$%%&%%&&%%+X  X$$%&&%%&%%&&%$X..X+%&%&%%%%&%%$%%%$$$++",
"+$$+$%%%%%$%&&%%&%%%++X X$%%%&%%%%%&&%%X.XO+&&%%&$%%&&$%%%%$$$++",
"+$+$%%$%%$$%&%%&%%$%$+XX$%%%$%%%%%%%&&%$XX++%&%%$$&%%&$$%%$$+$+O",
"+++$$%$%%$$%%%%%%%$%$+XX$%&%$%$%%$%%&%%$XX+$%%$%$%&%%%%$%%%%+$+O",
"++$$$$%$%$%%$%%%$%%$$$OX%&%$%%$$$%%&%%$$XO+$%%%$$$%%%&%%$%%$$+Oo",
"O+$$$$%$$$%$%%%%$$%%$$OX&&$$%$%$$%%&%%$%XO$+$%%$%$%$%&%%$%$$++Oo",
"O+$+$$+$$$$$%$%%%$%$$$+X&%%$$+%$%%%%%$%%X++%$%$%%+$$%%&%%$+$+OOo",
"OO++$$++$$+$$$%%%$$$$$+O%%%$++%$%$%%%&%%$++%%$$%+$$$$%%$%$+++Ooo",
"oO+O$+++$++$$$%$%%$%$+O+%$%%+$$$$$%$&%%$$+$$%$$$+$%%$%%$$$++O+oO",
"ooOO$+$+$+$$$%%$$%$%$+O+$$%%$$+$$%$$&%%$++$+$+$$$$$%%%%$$$++OOoO",
"OoOO++$$$$$+$%$$$$%%$OO$$+%$$++$%%$$%$%$+O++$++$$+$$%%$+$$$+OoOO",
"OOoOO+$$$$++%%$+$$%$+O+$+$$+$+$$%$$$%$$$+O+++$+$$++$%$+$$+$+OooO",
"O+ooO+$$+$+$%$$+$+$+OO+$+$+++$%$$$+$$%$++OO$+$++$$+%$++$$++OooOo",
"O+OoO++$$++$$$+$++$+Oo+$$$$++$%%$$+$$$$++oO+$$+O+$$%$+$+$++OOoO+",
"++OOoO++$+++$++$+$++ooO$$+$+$$$%+$$+$$++Ooo+$+O++$$$$O++O+OOOO+$",
"+$+OoO+O+$O+$++$$$++ooO+$++O$$$$++$++$++OOoO++O++$$$+O++OOOOoO+$",
"$%++OoOo+$O+++$+$++OoOO+++OO$+$$$++O+$+O+OoO++++$$+$O++O+OOooO$$",
"$%$+OoooO++O++$$+O+OoOoO++O+++$$+$+O+++O+OOo+O++$$++OOOO++OoOO%$",
"%%$$OOooOO+OO++$+OOOoooO+O+++$$++$+++++++OOoOO++$+OOOOO+OOoOO+$%",
"%%$$+OOooOOOOOO+OOooooOOOO++++$+$+O++O++OOooOO+O++oOOoOOooOOO+$%",
"%$%$$++OOooOOoOOOOOoooOoOO+O++++++OO++O+OOoooOOO+OooOOooOOOO+%%%",
"$%%%$$++OOoooooOOoooooooOOOO+++++OOO+OOOOooooOoOOoooOooOOO++$$%%",
"$%%$$%%$++OOoooooooooooooOOOO++O+OOOOOOoooooooooOoooOOOO+$$$%%%$",
"$$%%%$$$$++OOOooooooooooooOOOOOOooOOoooooooooooooooOOO++$$%%%$$$"
};
