/* XPM */
static const char *slime_block[] = {
/* columns rows colors chars-per-pixel */
"64 64 5 1 ",
"  c #5AAA43",
". c #62B64A",
"X c #73C262",
"o c #7BCA62",
"O c #7BCE6A",
/* pixels */
"XXXXX.XXXXooooooXXXXXXXXX.  ...XXXXXXXXXXXXXXXXXooooXXXXXXXXXXXX",
"XXXX....XXXXooooooXXXXXXX.. ...XXXXXXXXXX.XXXXXXXXXoooOoXXXXXXXX",
"XXXXXX....XXXXooOooooXXXXX.. .XXXXXXXXXXXX...XXXXXXXXooOOOXXXXXX",
"XXXXXXXXX...XXXooOOOooooXXXX..XXXXXXXXXXXXXXX....XXXXXXooOOoXXXX",
"XXXXXXXXXXXoooooooooOOOOooXX.XXXXooXXXXXXXXXXXX....XXXXXX.oOoXXX",
"XXXXXXXXooooooOOooOOOOOoXXXXXXXXooooXXXXXXXXXXXX....XXXX..XoOoXX",
"XXXXXXooooooOOOOOOOooXXXXXXXXXXXXXooooXXXXXXXXXXXXXXXXX..XXXOOOo",
"oXXXooooooOOOOOOooXXXXXXXXXXXXXXXXXXoXXXXXXXXXXXXXXXXXX. XXXXOOO",
"oooooooooOOOOooXXXXXXXXXXXXXXXXX.XXXXXXXXXXXXXXXXXXXXXX .XXXXoOO",
"ooooooooOOOooXXXXXXXXXXXXXXXXX..  ..XXXXXXXXXXooXXXXXX. .XXXXXoO",
"OooooooOOOoXXXXXXXXXXXXooXXXX.. ..  ...XXXXXoooXXXXXX.  XXXXXXoO",
"OOoooooOOoXXXXXXXX..XXooOoXXXXX..     ..XXooOoXXXXXXX. .XXXXXXXo",
"oOoooooOooXXXXXX.....XXooOOoXXXX.. . .XXXoOOoXXXXXXXX  .XXXX.XXo",
"ooOoooOOoXXX.XX. .....XXXoOOoXXXXXX..XXXoOOoXXXXXXXX.  .XXXXX.XX",
"oooooOOOoXX..X. ......XXXXooXXXXXXXXXXXXXoXXXXXXXXXX  ..XXXXX..X",
"oooooOOooXX...  ... ...XXXXXXXXXXXXXXXXXXXX...XXXXX.  .XXXXXXX.X",
"XoOoooOooX...    .  ..XXXXXXXXX.XXXXXXXXX... ..XXXX.  .XXXXXXX..",
"XoOOooOoXXX..      ..XXXXXXXXX....XXX.XX..    ..XXX.  XXXXXXXX .",
"XXoOoOOoXXXX..    .XXXXXXXXXXXX......XXX.   .. .XXXX .XXXXXXXX. ",
".XoOoOOoXXXXXX..XXXXXXXXXXXXXXXXX..XXXX..  .....XXXX .XXXXXXXXX ",
" XXoOOooXXXXXXXXXXXXXXXXXXXXXXXXXXooXXX.   ....XXXXX..XXXXXXXXX.",
" .XoOOooXXXXXXXX......XXXXXXXXXXXXoOoXX..  ..X.XXXXX.XXXXXXoXXX.",
" .XoOOoXXXXXXXX. .......XXXXXXXXXooOOoXX..  .XXXXXXXXXXXXXXXoXXX",
". XoOOoXXXXX..  .....XXXXXXXXXXXXoOoOOoXX...XXXXXXXXXXXXXXXXooXX",
"..XXoOoXXXX.. ....XXXXXXXXXXXXXXooooOOoXXXXXXXXXXXXXXX.XXXXXXooX",
"X.XXoOoXXX.. ..XXXXXXXXXXXXXXXXXooXoOOOoXXXXXXXXXXXXXX..XXXXXooo",
"XXXXoooXXX.  .XXXXXXXXXXXXXXXXXXXoXXoOoXXXXXXXXXXXXXXX .XXXXXXoo",
"XXXXoooXXXX .XXXXXXXXXXXXXXXXXXXXXXXOoXXXXXXXXXXXXXXX.  XXXXXXXo",
"oXXXoooXXX  XXXXXXX.XXXXXXXXXXXXXXXXoXXXXXXXXXXXXXXXX.  .XXXoXXX",
"XXXXoooXX.  XXXXXXX..XXXXXXXXXXXXXXXXXXXXXXXoXXXXXXXX. ..XXoXXXX",
"XXXXooXXX. .XXXXXX....XXXXXXXXXXXXXXXXXXXXooXXXXXXXX.  ..XooXXXX",
"XXXXooXXX. .XXXXX... ..XXXXXXXXXXXXXXXXXoooXXXXXXXXX.  ..XooXXXX",
"XXXXooXXX.. XXXXX..   .XXXXXXXXXXXXXXXXoooXXXXXXXXX..  .XXoXXXXX",
"XXXXooXXX...XXXXX.   .XXXXXXXXXXXXXXXXooXXXXXXXXXX... ..XooXXXXX",
"XXXXXoXXXX..XXXXXX.  .XXXXXXXXXXXXXXooXXXXXXXXXX....  .XXooXXXXX",
"XXXXXoXXXX..XXXXXX.. .XXoXXXXXXXXXXXXXXXXXXXXX...... ..XXoXXXXXX",
"XXXXXXXXXXX..XXXXXX .XXoooXXXXXXXXXXXXXXXXXX...  .. ..XXooXXXXXX",
"XXXXXXXXXXX..XXXXXXX.XXooOooXXXXXXXXXXXXXX...   .....XXXooXXXXXX",
"XXXXXXXXXXX...XXXXXXXXXXooOOoXXXXXXXXXXX..    ......XXXooXXXXX..",
"XXXXXXXXXXXX..XXXXXXXXXXXXooooXXXXXXXX..    ......XXXXXooXXX....",
"X.XXXXXXXXXX..XXXXXXXXXXXXXXXooXXXXX...   ......XXXXXXXooXX... .",
"..XXXXXXXXXXX..XXXXXXXXXXXXXXXXXXXXXX. ........XXXXXXXoooXX. . .",
"...XXXXXXXXXXX.XXXXXXXXXXXXXXXXXXXXXXX........XXXXXXXXooXXX. . .",
"....XXXXXXXXXXX.XXXXXXXXXXXXXXXXXXXXXXXX.......XXXX.XXooXXX..  .",
". ..XXXXoXXXXXXXXXXXXXXXXXXXXXXXXXXXXXXXXX.....XXX.XXXooXXXX.   ",
" ..XXXXXXoXXXXXXXXXXXXXXXXXXXXXXXXXXXXXXXXX.. ..XX.XXXoooXXXX.  ",
"..XXXXXXXoooXXXXXXXXXXXoXXXXXXXXXX..XXXXXX.  ...X..XXXoOoXXXXX..",
"XXXXXXXXXXoOooXXXXXXXXooXXXXXXXX...XXXXX.  .... X.XXXooOooXXXXXX",
"oXXXXXXXXXXoOOoooXXooooXXXXXXXX..XXXX...    .. ...XXXoOOooXXXXXX",
"oXXXXXXXXXXXoOOOooOOooXXXXXXXX....XX..        ...XXXXoOOOoXXXXXX",
"oXXXXXXXXXXXXoooOOooXXXXXXXXX.......  .   ......XXXXoOOOOooXXXXo",
"oXXXXXXXXXXXXXXoooXXXXXXXXXXX....  ..  ......XXXXXXXoOOOOooXXXXo",
"OXXXXXXXX...XXXXXXXXXXXXXXXX...   ......XXXXXXXXXXXoOOOOOooXXXXo",
"OoXXXX.........XXXXXXXXXXX.     .....XXXXXXXXXXXXXooOOOOOooXXXXo",
"OoXX... .....  ...XXXXXX..   .....XXXXXXXXXXXXXXXooOOOOOooXXXXXo",
"oOXXX.    ..  ...XXXXXXXX ....XXXXXXXXXXXXXXXXXXooOOOOOooXXXXXXo",
"oOoXXX..    ..XXoooooXXXXXXXXXXXXXXXXXXXXXXXXoooOOOOOOoXXXXXXXXX",
"XOOoXXX... ..XXXXXooooooooooXXXXXXXXXXooooooOOOOOOOOoXXXXXXXXXXX",
"XoOOoXXXX..XXXXXXXXXXXoooooooooooooooooooOOOOOOOOOoXXXXXXXXXXXXX",
"XXoOOOoXXXXXXXXXXXXXXXXXXXXoooooooooOOOOOOOOOOOooXXXXXXXXXXXXXXX",
"XXXoOOOoXXXXXXXXXXXXXXXXXXXXXXXXooooooooooooooXXXXXXXXXX..XXXXXX",
"XXXXooOOooXXXXXXXXXXXXXXXXXX..XXXXXXooooooooXXXXXXXXXX...X.XXXXX",
"XXXXXoooOOooXXXXXXXXXXXXXX.  ..XXXXXXXXXXXXXXXXXXXXX....XXXXXXXX",
"XXXXXXXXooooooXXXXXXXXXXX.  ....XXXXXXXXXXXXXXXXXXXXX..XXXXXXXXX"
};
