/* XPM */
static const char *smoker_front_on[] = {
/* columns rows colors chars-per-pixel */
"64 192 26 1 ",
"  c #231B15",
". c #3A2F1E",
"X c #352B24",
"o c #3C3B3B",
"O c #513D24",
"+ c #614925",
"@ c #67502C",
"# c #7E6237",
"$ c #494848",
"% c #504E4E",
"& c #595858",
"* c #686868",
"= c #747474",
"- c #885D18",
"; c #C35D1B",
": c #967441",
"> c #836D60",
", c #ED8C0E",
"< c #CC8728",
"1 c #FFD800",
"2 c #8C827B",
"3 c #888788",
"4 c #959695",
"5 c #B3A38B",
"6 c #ABACAB",
"7 c #C5C5C5",
/* pixels */
"@###@@@@oooooooooooooooooooooooooooooooooooooooooooooooo########",
"#####@@@oo$$$$%%%%$$$%%%$$$$$$$%%$$$$$$$oooooo$$$$$%$$oo##::::##",
"###:#@#@o$$%%%%%$$$%%%$$$$%%%%%%%%$$%%$oooo$$%%$%%$$%%%o#::#::@@",
"###:###@o$$$%%%$$$%%%%%$$$$$$%$%$$$%%$o$$%%$%%%%$$$$$%$o#:##::@@",
"##::#:#O.O@OO@@##########@OO@@@@OOOO@@@##@@@OOOO@@@OOOO.@###:@@@",
"##::::#O.OO@@@@@#######@@@@@OO@@@OOOOO@@##@O@@OOO@OO@O..@##:#@#@",
"##:::##O.O@@@###@##@@@@@OO...OOOOO@@@@##@@##@OO@@@@@O...O######O",
"##:::#@O..OO@@@@@@###@@@@OOOO....OO@O@@@OOOO@@@@@@O..OO.O@####@O",
"##:::#@@......OO##@@@@O@O@@OOOOO.....OO@@O@@@@@O@@@@OO..O@#@##@O",
"#@::###@....OOO@@@@OOOOOOOOOOO....OOOO@@@@###O..O@OOOOO.O@@@##@O",
"#@#:#:#@..O..O@OO@@@O.OOOO....OOOOO@@@#####@OOOO...OO...O@@@@#@O",
"###:::#@.OOOOOOO@@OOOO.O...OOO..OOOO@#@@##@@@@@@@O......O#@#@#@O",
"@##:::#@$$$$&&**&&**&&&&*******************=*******&&&&&@#@###@@",
"@##:::##$$&&&*&******&***==*=***********===******=**&&*&@#####@@",
"@##::###$&&**&*=**==******====***=*=**======******==**&*@@##:##@",
"@###:##@$&$&****=====***=======*===*****==*==**=====*=**@@##:##@",
"@##@###@$$&&&***666666666666666666444444444444443====**&#@#::###",
"@##@##@O$$&&&&446666666666666666666666666666666444=*==*&###:::##",
"@@#@@#@O$&&&&46666777777666766776666666666667766644=****###:::##",
"@@@@@#@@$&&&466677766666666676666666666667776666464*****##@:#:##",
"O@@@@@O@&&&44667446666666666666666666666667666666664=***##@##:##",
"OO@@@@@O&&&46674466666666666666666666666666666667664*=**@####:#@",
"O@####@O$&646676646666666666666666666666644666666764*==*@@###:#@",
"O######O$&646676666666666646666666666666664466666764*==*@O#:####",
"O#:#@##@&&646666666666666444466666666666646666646654====OO#:###@",
"@#:#@##@&&646666666666664644646666666666666666646654=*=*O@#:@##@",
"##:##:#@$&$>6666666666666664666666666446666646446652==**O@:#@#@@",
"##::#:#@$&$>5666666666666666666666644644666664466542=***O@:###@@",
"##::::#@$$&$+55666666666666666666666666666666666552+==*=@@##@#@@",
"##::::#@$$&&$+25555666666666666666666666666666552>+=3==*@@##@@O@",
"@##::#@@$&&&&$++25555555555555555555555555555522++3333**@@#@@@O@",
"@@@@@@@@$&&&&&$$+---++---------------------+--++633==3=*@@@@OO@@",
"OOOOOOOO&$&&&&&&3333336666555555555556777777666633==3===@@OOOO@@",
"OO@@@@OO&&&&&&&&*=**===3333333333333333333333333333====*@OOOOOO@",
"O@@@@@@O$&&&&&*&&*====3333333333333333333333333=3===****OO#::#OO",
"O@@@#@@O$$&&&&&****=====333333333333333333333333======*&O@::::OO",
"O@#@##@O                                             XXX@@::#:@O",
"O@#@##@O                               X               X@@::##@O",
"@@##@#@O   X    XX XXX     X            XXXX            @@#:##@O",
"@@##@#@O  XXXX   XXXX    XXXXXX X        XXXXX          @@#:##@O",
"@@####@@   XXXXXOOOOXX X    XXXXXX      ;XXXX    X XX X @#####@@",
"@@##:#@@ XXXXOOOO@;@OXX   X@@@OXX      X<;OOXXX X@XXXX  @#@#:#@@",
"@###:##@  XOO@##@;@@@O  X#1@O.  XX;, X@O<,11OX X@@@@X   @@@#:#@@",
"@######@ XO###@@@@@@O@XXO@11.XX  XX;X@#@O1,1;; @@OO@@X  @@@#:#@@",
"@###:###  XO#O@@@OOO@OXO..1,1XO@@OXX@###@#;,11<@OO@O@@X O@@###@@",
"@#@#:#@#X  X....OO...OO.O@,,11@OOO.OO@@##;O;;1,<@OO@@O. O@@##@@@",
"@#@:#@@#X    XX..,1OOO...O@<,<;@O@O..O@@OOO.;<,,;O.OO@. OO@##@@@",
"@##::@@@X  XX..O,1@@O.XO..O;,<<;@@@O......OO<,1,1;O.,O. OO@##@#@",
"##:::@#@X XX.OO;11@O.XXX@O..;,<<<OOO,,OOO...,,11,,.,;..X@O###@#@",
"##:::@#@ X .OOO;1,##XX O@@O#;<<<,,.O@;<#@@#O<,,11;,;O.XX@@#####@",
"##:#:##@1 X.O@#,;,,@X  O@##,;;<,,<O##@;#@##;<;<1,,;;@.X @@#:###@",
"##:#:##@11.O@##<,;,O.  X##@<;<,,<;,#####@#@;;<1,,;;,O@.X@@::##@@",
"@###:##@1,<@#@;<,,;,.X  #@@;<,11,<;####@##O,;<,<<;,,;O.XO@:#:#@@",
"@##::##@X1,;@@;;<,;;O. ;O#;;,11,,;;##@@###<;;,,<;<,<<@X O###:#@@",
"@##:###@X.,,;@;<,1<;,OX ,O<;<,,1;;O@###@#@;;,,<,<,<;<;X @##::#@@",
"@@#:###@ .,<;;,11,<<,#X ,,<;;<,,<;XO@O@O@,<;<,,1,,,<;; X@##::#@@",
"@@#@##@@ ;<<<;11<<,<,@X ,;<;;;<<11;.O@@@,;,,;<<,1,<<<;X @###:@@O",
"@@#@##@@X<<<;,,<1<<,;O ,<;<<;<<1,11X..O,,;<,,<,111,,<;; @#@##@@O",
"O@#@@#@O;<,,,;,,<,,;,, ,;<;;<<,,1,<;X.,,;;;,<,,,1,,;;<;;@@@##@@O",
"O@@@@#@.,,<,;;;,,,;;;,;;;;;<,,<,,<<<;;;;;<,<,,,<,,;;<,;;@@@#@@@O",
"O@@#@@@.$%%%%%&&&**&&***&&********&***&&&%%%%&&%%%&%%%$%O@@#@@@.",
"O@@#@@@.%$$%&&&&&&&%%&*&&&&&**&&&&%%&&&&&&&&%%&&&&&&%%%$O@@@@@@.",
"OO@@@@O.$$%%%%$%%&&&&%&%%&%$&&&%%%&&&&&%%&%&&&&%%%%%$$$$OO@@@@O.",
"OOOO....$$$$$%%$%%%%&&&&&%$%%%&&$$%&%%&&%%&&%%%%$$$%%%$$OOOO....",
"@###@@@@oooooooooooooooooooooooooooooooooooooooooooooooo########",
"#####@@@oo$$$$%%%%$$$%%%$$$$$$$%%$$$$$$$oooooo$$$$$%$$oo##::::##",
"###:#@#@o$$%%%%%$$$%%%$$$$%%%%%%%%$$%%$oooo$$%%$%%$$%%%o#::#::@@",
"###:###@o$$$%%%$$$%%%%%$$$$$$%$%$$$%%$o$$%%$%%%%$$$$$%$o#:##::@@",
"##::#:#O.O@OO@@##########@OO@@@@OOOO@@@##@@@OOOO@@@OOOO.@###:@@@",
"##::::#O.OO@@@@@#######@@@@@OO@@@OOOOO@@##@O@@OOO@OO@O..@##:#@#@",
"##:::##O.O@@@###@##@@@@@OO...OOOOO@@@@##@@##@OO@@@@@O...O######O",
"##:::#@O..OO@@@@@@###@@@@OOOO....OO@O@@@OOOO@@@@@@O..OO.O@####@O",
"##:::#@@......OO##@@@@O@O@@OOOOO.....OO@@O@@@@@O@@@@OO..O@#@##@O",
"#@::###@....OOO@@@@OOOOOOOOOOO....OOOO@@@@###O..O@OOOOO.O@@@##@O",
"#@#:#:#@..O..O@OO@@@O.OOOO....OOOOO@@@#####@OOOO...OO...O@@@@#@O",
"###:::#@.OOOOOOO@@OOOO.O...OOO..OOOO@#@@##@@@@@@@O......O#@#@#@O",
"@##:::#@$$$$&&**&&**&&&&*******************=*******&&&&&@#@###@@",
"@##:::##$$&&&*&******&***==*=***********===******=**&&*&@#####@@",
"@##::###$&&**&*=**==******====***=*=**======******==**&*@@##:##@",
"@###:##@$&$&****=====***=======*===*****==*==**=====*=**@@##:##@",
"@##@###@$$&&&***666666666666666666444444444444443====**&#@#::###",
"@##@##@O$$&&&&446666666666666666666666666666666444=*==*&###:::##",
"@@#@@#@O$&&&&46666777777666766776666666666667766644=****###:::##",
"@@@@@#@@$&&&466677766666666676666666666667776666464*****##@:#:##",
"O@@@@@O@&&&44667446666666666666666666666667666666664=***##@##:##",
"OO@@@@@O&&&46674466666666666666666666666666666667664*=**@####:#@",
"O@####@O$&646676646666666666666666666666644666666764*==*@@###:#@",
"O######O$&646676666666666646666666666666664466666764*==*@O#:####",
"O#:#@##@&&646666666666666444466666666666646666646654====OO#:###@",
"@#:#@##@&&646666666666664644646666666666666666646654=*=*O@#:@##@",
"##:##:#@$&$>6666666666666664666666666446666646446652==**O@:#@#@@",
"##::#:#@$&$>5666666666666666666666644644666664466542=***O@:###@@",
"##::::#@$$&$+55666666666666666666666666666666666552+==*=@@##@#@@",
"##::::#@$$&&$+25555666666666666666666666666666552>+=3==*@@##@@O@",
"@##::#@@$&&&&$++25555555555555555555555555555522++3333**@@#@@@O@",
"@@@@@@@@$&&&&&$$+---++---------------------+--++633==3=*@@@@OO@@",
"OOOOOOOO&$&&&&&&3333336666555555555556777777666633==3===@@OOOO@@",
"OO@@@@OO&&&&&&&&*=**===3333333333333333333333333333====*@OOOOOO@",
"O@@@@@@O$&&&&&*&&*====3333333333333333333333333=3===****OO#::#OO",
"O@@@#@@O$$&&&&&****=====333333333333333333333333======*&O@::::OO",
"O@#@##@O                                             XXX@@::#:@O",
"O@#@##@O                               X               X@@::##@O",
"@@##@#@O   X    XX XXX     X            X;XX            @@#:##@O",
"@@##@#@O  XXXX   XXXX    XXXXXX X        ;,XXX          @@#:##@O",
"@@####@@   XXXXXOOOOXX X    XXXXXX      XX;,X    X XX X @#####@@",
"@@##:#@@ XXXXOOOO@O@OXX   X@@@O;X      X@@OOXXX X@XXXX  @#@#:#@@",
"@###:##@  XOO@##@O@@@O  X##@O.;,XXX  X@O@@@OOX X@@@@X   @@@#:#@@",
"@######@ XO###@@@@@@O@XXO@O..X,< XXXX@#@O@@@@O @@OO@@X  @@@#:#@@",
"@###:###  XO#O@@@OOO@OXO....,,<<@OXX@#,#@##@O.X@OO@O@@X O@@###@@",
"@#@#:#@#X  X...;OO...OO.O;@;;,,<OO.OO@,,#@OO.O.X@OO@@O. O@@##@@@",
"@#@:#@@#X    XX.,.OOOO...O;;;<,,<@O..O@;,<O.... O;.OO@. OO@##@@@",
"@##::@@@X;,XX..O1,@@O.XO..O;<<,<;@@O...;<,11..X ;,O.OO. OO@##@#@",
"##:::@#@X,XX.OO11<;O.XXX@O.<<,,,;;OOOOOO;;,11,X OO.....X@O###@#@",
"##:::@#@ X .OO11,<;#XX ;@@,,<<,,<;.O@#@#@;<,,,11@OOOO.XX@@#####@",
"##:#:##@  X.O1<;<;;@X  O;;,<,,,1,<;##@##@##;,<,,1@@O@.X @@#:###@",
"##:#:##@ X.O@1<<;;,O.  ;;<<,,11,,,;#####@#@;;,<,,1O@O@.X@@::##@@",
"@###:##@XX.@,<1<;,...X;,<<,111,,<;;####@##OO;,111,<@@O.XO@:#:#@@",
"@##::##@X.O@,1,,,;OOO. ,<,,,1111;;,##@@,##@,,,<1,,;#@@X O###:#@@",
"@##:###@X.O<1,1<;;@@@OX;,<<,,11,<;O@###@,,<,,<,<11<;OOX @##::#@@",
"@@#:###@ .<,11<<,;@@##;;<<,,,,,1,<<O@O@O@,,<<,,,<11;O. X@##::#@@",
"@@#@##@@ ,,;,1<,,;;#@@,<,;<,<<<,,,,<O@@@O<,,,<,,<;<,;XX @###:@@O",
"@@#@##@@X,;,,<<;,,;;#O,,;;<<<;<<,,<<<;OO<<,,<;<;;<,,,X  @#@##@@O",
"O@#@@#@O,;;;;,<,;;,,;;;,;<<;<<;;<,<;;<;.<,;;;<,<;;<,<;  @@@##@@O",
"O@@@@#@.;;;;,;,,,;;,,;;;<<;;;<<;;<;<;;;;,;;<<,,;;;;;<<;,@@@#@@@O",
"O@@#@@@.$%%%%%&&&**&&***&&********&***&&&%%%%&&%%%&%%%$%O@@#@@@.",
"O@@#@@@.%$$%&&&&&&&%%&*&&&&&**&&&&%%&&&&&&&&%%&&&&&&%%%$O@@@@@@.",
"OO@@@@O.$$%%%%$%%&&&&%&%%&%$&&&%%%&&&&&%%&%&&&&%%%%%$$$$OO@@@@O.",
"OOOO....$$$$$%%$%%%%&&&&&%$%%%&&$$%&%%&&%%&&%%%%$$$%%%$$OOOO....",
"@###@@@@oooooooooooooooooooooooooooooooooooooooooooooooo########",
"#####@@@oo$$$$%%%%$$$%%%$$$$$$$%%$$$$$$$oooooo$$$$$%$$oo##::::##",
"###:#@#@o$$%%%%%$$$%%%$$$$%%%%%%%%$$%%$oooo$$%%$%%$$%%%o#::#::@@",
"###:###@o$$$%%%$$$%%%%%$$$$$$%$%$$$%%$o$$%%$%%%%$$$$$%$o#:##::@@",
"##::#:#O.O@OO@@##########@OO@@@@OOOO@@@##@@@OOOO@@@OOOO.@###:@@@",
"##::::#O.OO@@@@@#######@@@@@OO@@@OOOOO@@##@O@@OOO@OO@O..@##:#@#@",
"##:::##O.O@@@###@##@@@@@OO...OOOOO@@@@##@@##@OO@@@@@O...O######O",
"##:::#@O..OO@@@@@@###@@@@OOOO....OO@O@@@OOOO@@@@@@O..OO.O@####@O",
"##:::#@@......OO##@@@@O@O@@OOOOO.....OO@@O@@@@@O@@@@OO..O@#@##@O",
"#@::###@....OOO@@@@OOOOOOOOOOO....OOOO@@@@###O..O@OOOOO.O@@@##@O",
"#@#:#:#@..O..O@OO@@@O.OOOO....OOOOO@@@#####@OOOO...OO...O@@@@#@O",
"###:::#@.OOOOOOO@@OOOO.O...OOO..OOOO@#@@##@@@@@@@O......O#@#@#@O",
"@##:::#@$$$$&&**&&**&&&&*******************=*******&&&&&@#@###@@",
"@##:::##$$&&&*&******&***==*=***********===******=**&&*&@#####@@",
"@##::###$&&**&*=**==******====***=*=**======******==**&*@@##:##@",
"@###:##@$&$&****=====***=======*===*****==*==**=====*=**@@##:##@",
"@##@###@$$&&&***666666666666666666444444444444443====**&#@#::###",
"@##@##@O$$&&&&446666666666666666666666666666666444=*==*&###:::##",
"@@#@@#@O$&&&&46666777777666766776666666666667766644=****###:::##",
"@@@@@#@@$&&&466677766666666676666666666667776666464*****##@:#:##",
"O@@@@@O@&&&44667446666666666666666666666667666666664=***##@##:##",
"OO@@@@@O&&&46674466666666666666666666666666666667664*=**@####:#@",
"O@####@O$&646676646666666666666666666666644666666764*==*@@###:#@",
"O######O$&646676666666666646666666666666664466666764*==*@O#:####",
"O#:#@##@&&646666666666666444466666666666646666646654====OO#:###@",
"@#:#@##@&&646666666666664644646666666666666666646654=*=*O@#:@##@",
"##:##:#@$&$>6666666666666664666666666446666646446652==**O@:#@#@@",
"##::#:#@$&$>5666666666666666666666644644666664466542=***O@:###@@",
"##::::#@$$&$+55666666666666666666666666666666666552+==*=@@##@#@@",
"##::::#@$$&&$+25555666666666666666666666666666552>+=3==*@@##@@O@",
"@##::#@@$&&&&$++25555555555555555555555555555522++3333**@@#@@@O@",
"@@@@@@@@$&&&&&$$+---++---------------------+--++633==3=*@@@@OO@@",
"OOOOOOOO&$&&&&&&3333336666555555555556777777666633==3===@@OOOO@@",
"OO@@@@OO&&&&&&&&*=**===3333333333333333333333333333====*@OOOOOO@",
"O@@@@@@O$&&&&&*&&*====3333333333333333333333333=3===****OO#::#OO",
"O@@@#@@O$$&&&&&****=====333333333333333333333333======*&O@::::OO",
"O@#@##@O                                             XXX@@::#:@O",
"O@#@##@O                     ;         X               X@@::##@O",
"@@##@#@O   X    XX XXX     X,,;         XXXX            @@#:##@O",
"@@##@#@O  XXXX   XXXX    XXXX,; X        XXXXX          @@#:##@O",
"@@####@@   XXXXXOOOOXX X    XX,;XX      XXXXX    X XX X @#####@@",
"@@##:#@@ XXXXOOOO@O@OXX   X@@@O,X      X@@OOXXX X@XXXX  @#@#:#@@",
"@###:##@  XO;,##@O@@@O  X##@O.  XXX  X@O@@@OOX X@@@@X   @@@#:#@@",
"@######@ XO#,#@@@,@@O@XXO@O..XX  XXXX@#@O@@@@O @@OO@;X  @@@#:#@@",
"@###:###  XO#O@@@O,O@OXO....XXO@@OX,@###@##@O.X@OO@O,,X O@@###@@",
"@#@#:#@#X  X....O,,,.OO.O@@@O@@OOO,1O@@##@OO.O.X@OO,,O. O@@##@@@",
"@#@:#@@#X    XX.,,1,;O...O@@@O@,;,11.O@@OOO.;.. OO.;O@. OO@##@@@",
"@##::@@@X  XX.,,11,,;;XO..O@O@;;,11;......O;;;X ..O.OO. OO@##@#@",
"##:::@#@X XX.,;;,111,;XX@O..O,;;1,;OOOOOO..;,1; OO.....X@O###@#@",
"##:::@#@ X .,;;<,,1,,; O@@O#,;;,11;O@#@#@@;,1,,;@OOOO.XX@@#####@",
"##:#:##@  X<,,<,11,<,  O@##@O;,11,O##@,;@#111<;;O@@O@.X @@#:###@",
"##:#:##@ X.<,<,11,<<,  X##@@@;11,;#####,@#,1,<<;;@O@O@.X@@::##@@",
"@###:##@XX,<<,<,,<<,.X  #@@#<<<1;;,####@,#O;1,<,;#@@@O.XO@:#:#@@",
"@##::##@X.,,;<<<,;<,O.  O,#@<,<<,;;##@@###@;11,1,,##@@X O###:#@@",
"@##:###@X,;;;;;<<<;;,OX .O;@;;,<<,;;###@#@O.,11,<<,,OOX @##::#@@",
"@@#:###@,,,;;;,;,,<;;#X O@<<<;;;,<;;,,@O@OOX<1,,;<<,,, X@##::#@@",
"@@#@##@@,;,;,,;,;<,,;;X  O@<;<;;;;<,;,<@OO.;<<;;,<;<<<; @###:@@O",
"@@#@##@@X;;;,,,;,,,<<;,,XX,,<;;;;,<,;;,<O.,;,<,;<;,<<,,;@#@##@@O",
"O@#@@#@O X;,;,;;;,<<;;<,,<<<;;;;;;,;,;;;,,;;;,;;;,;;,;;;@@@##@@O",
"O@@@@#@.  X;;;;;;;;;;;;<<<<;;;;;;;;;;;;;,;;;;;;;;;;;;;;;@@@#@@@O",
"O@@#@@@.$%%%%%&&&**&&***&&********&***&&&%%%%&&%%%&%%%$%O@@#@@@.",
"O@@#@@@.%$$%&&&&&&&%%&*&&&&&**&&&&%%&&&&&&&&%%&&&&&&%%%$O@@@@@@.",
"OO@@@@O.$$%%%%$%%&&&&%&%%&%$&&&%%%&&&&&%%&%&&&&%%%%%$$$$OO@@@@O.",
"OOOO....$$$$$%%$%%%%&&&&&%$%%%&&$$%&%%&&%%&&%%%%$$$%%%$$OOOO...."
};
