/* XPM */
static const char *smoker_front[] = {
/* columns rows colors chars-per-pixel */
"64 64 20 1 ",
"  c #191919",
". c #231B15",
"X c #3A2F1E",
"o c #202020",
"O c #272727",
"+ c #352B24",
"@ c #3C3B3B",
"# c #513D24",
"$ c #67502C",
"% c #7E6237",
"& c #494848",
"* c #504E4E",
"= c #595858",
"- c #686868",
"; c #747474",
": c #967441",
"> c gray53",
", c #888788",
"< c #ABACAB",
"1 c #C5C5C5",
/* pixels */
"$%%%$$$$@@@@@@@@@@@@@@@@@@@@@@@@@@@@@@@@@@@@@@@@@@@@@@@@%%%%%%%%",
"%%%%%$$$@@&&&&****&&&***&&&&&&&**&&&&&&&@@@@@@&&&&&*&&@@%%::::%%",
"%%%:%$%$@&&*****&&&***&&&&********&&**&@@@@&&**&**&&***@%::%::$$",
"%%%:%%%$@&&&***&&&*****&&&&&&*&*&&&**&@&&**&****&&&&&*&@%:%%::$$",
"%%::%:%#X#$##$$%%%%%%%%%%$##$$$$####$$$%%$$$####$$$####X$%%%:$$$",
"%%::::%#X##$$$$$%%%%%%%$$$$$##$$$#####$$%%$#$$###$##$#XX$%%:%$%$",
"%%:::%%#X#$$$%%%$%%$$$$$##XXX#####$$$$%%$$%%$##$$$$$#XXX#%%%%%%#",
"%%:::%$#XX##$$$$$$%%%$$$$####XXXX##$#$$$####$$$$$$#XX##X#$%%%%$#",
"%%:::%$$XXXXXX##%%$$$$#$#$$#####XXXXX##$$#$$$$$#$$$$##XX#$%$%%$#",
"%$::%%%$XXXX###$$$$###########XXXX####$$$$%%%#XX#$#####X#$$$%%$#",
"%$%:%:%$XX#XX#$##$$$#X####XXXX#####$$$%%%%%$####XXX##XXX#$$$$%$#",
"%%%:::%$X#######$$####X#XXX###XX####$%$$%%$$$$$$$#XXXXXX#%$%$%$#",
"$%%:::%$&&&&==--==--====-------------------;-------=====$%$%%%$$",
"$%%:::%%&&===-=------=---;;-;-----------;;;------;--==-=$%%%%%$$",
"$%%::%%%&==--=-;--;;------;;;;---;-;--;;;;;;------;;--=-$$%%:%%$",
"$%%%:%%$&=&=----;;;;;---;;;;;;;-;;;-----;;-;;--;;;;;-;--$$%%:%%$",
"$%%$%%%$&&==1111OOOOOOoo                 oooOOOo,-;;;--=%$%::%%%",
"$%%$%%$#&&==1<<<OOOooo                  ooooooOOo,--;;-=%%%:::%%",
"$$%$$%$#&===1<<<OOoo        o          oo   o ooOO,;----%%%:::%%",
"$$$$$%$$&===1<<<Ooo o        o           o   o oOO,-----%%$:%:%%",
"#$$$$$#$====1<<<Ooo      o                      oO,-;---%%$%%:%%",
"##$$$$$#====1<<<Oo      ooo                     oO,--;--$%%%%:%$",
"#$%%%%$#&===1<<<Oo o     o                      oO,--;;-$$%%%:%$",
"#%%%%%%#&===1<<<Oo                              oO,--;;-$#%:%%%%",
"#%:%$%%$====1<<<Oo                              oO,-;;;;##%:%%%$",
"$%:%$%%$====1<<<Oo                              oO,-;-;-#$%:$%%$",
"%%:%%:%$&===1<<<OOo                             oo<;;;--#$:%$%$$",
"%%::%:%$&===1<<<OOo                            oOo<;;---#$:%%%$$",
"%%::::%$&&==<<<<OOOo                         ooOOO<;;;-;$$%%$%$$",
"%%::::%$&&==<<<<OOOoo o                   ooooOOOO<;,;;-$$%%$$#$",
"$%%::%$$&===<<<<OOoOoo                     ooOoOO<,,,,--$$%$$$#$",
"$$$$$$$$&===>>>>OOOoOOoooooooooooooooooooooOOOOO<,,;;,;-$$$$##$$",
"########=&======,,,,,,<<<<<<<<<<<<<<<<111111<<<<,,;;,;;;$$####$$",
"##$$$$##========-;--;;;,,,,,,,,,,,,,,,,,,,,,,,,,,,,;;;;-$######$",
"#$$$$$$#&=====-==-;;;;,,,,,,,,,,,,,,,,,,,,,,,,,;,;;;----##%::%##",
"#$$$%$$#&&=====----;;;;;,,,,,,,,,,,,,,,,,,,,,,,,;;;;;;-=#$::::##",
"#$%$%%$#.............................................+++$$::%:$#",
"#$%$%%$#...............................+...............+$$::%%$#",
"$$%%$%$#...+....++.+++.....+............++++............$$%:%%$#",
"$$%%$%$#..++++...++++....++++++.+........+++++..........$$%:%%$#",
"$$%%%%$$...+++++####++.+....++++++......+++++....+.++.+.$%%%%%$$",
"$$%%:%$$.++++####$#$#++...+$$$#++......+$$##+++.+$++++..$%$%:%$$",
"$%%%:%%$..+##$%%$#$$$#..+%%$#X..+++..+$#$$$##+.+$$$$+...$$$%:%$$",
"$%%%%%%$.+#%%%$$$$$$#$++#$#XX++..++++$%$#$$$$#.$$##$$+..$$$%:%$$",
"$%%%:%%%..+#%#$$$###$#+#XXXX++#$$#++$%%%$%%$#X+$##$#$$+.#$$%%%$$",
"$%$%:%$%+..+XXXX##XXX##X#$$$#$$###X##$$%%$##X#X+$##$$#X.#$$%%$$$",
"$%$:%$$%+....++XXX####XXX#$$$#$$#$#XX#$$###XXXX.##X##$X.##$%%$$$",
"$%%::$$$+..++XX###$$#X+#XX#$#$%$$$$#XXXXXX##XX+.XX#X##X.##$%%$%$",
"%%:::$%$+.++X##$$$$#X+++$#XX##$%$########XXXX++.##XXXXX+$#%%%$%$",
"%%:::$%$.+.X####%%%%++.#$$#%XX#$##X#$%$%$$%##+..$####X++$$%%%%%$",
"%%:%:%%$..+X#$%%%$$$+..#$%%$#XX#XX#%%$%%$%%$#+.+#$$#$X+.$$%:%%%$",
"%%:%:%%$.+X#$%%%$$$#X..+%%$$$%.++X%%%%%%$%$#X.++$$#$#$X+$$::%%$$",
"$%%%:%%$++X$%$%$#$XXX+..%$$%%$+.++$%%%%$%%##X.+$$%$$$#X+#$:%:%$$",
"$%%::%%$+X#$$$$##X###X..#%%$$##..+$%%$$%%%$#+..$%%%%$$+.#%%%:%$$",
"$%%:%%%$+X#$$$##X#$$$#+.X#$$#$#+..#$%%%$%$#X..+$%%$$##+.$%%::%$$",
"$$%:%%%$.X%#$$$X#$$$%%+.#$$#X###..+#$#$#$##+..##$$###X.+$%%::%$$",
"$$%$%%$$.+%$%$#X$$%%$$+..#$$#XXX...X#$$$##X++.#$#$$#X++.$%%%:$$#",
"$$%$%%$$+.%%$#X##%%%%#..++####XX..++XX###X+++.X#XXX+++..$%$%%$$#",
"#$%$$%$#.++%%$X#$$%$#+.+++++XX##+..++XXX++.+..+XX++.+...$$$%%$$#",
"#$$$$%$X..++++..+++++....++.+++.....+++.........+.......$$$%$$$#",
"#$$%$$$X&*****===--==---==--------=---===****==***=***&*#$$%$$$X",
"#$$%$$$X*&&*=======**=-=====--====**========**======***&#$$$$$$X",
"##$$$$#X&&****&**====*=**=*&===***=====**=*====*****&&&&##$$$$#X",
"####XXXX&&&&&**&****=====*&***==&&*=**==**==****&&&***&&####XXXX"
};
