/* XPM */
static const char *smooth_stone[] = {
/* columns rows colors chars-per-pixel */
"64 64 7 1 ",
"  c #747474",
". c gray50",
"X c gray56",
"o c #9D9D9D",
"O c gray64",
"+ c gray66",
"@ c gray69",
/* pixels */
".     ....  ..          ..      ..  ...  .    ..    ..       ...",
" .X..  ..XXX..X.XX...XXX...   ....... XX  .....XXX..   .....  ..",
" X@@@@@+++@@++++++++OOOOOO@@@@@+OooOOOooooOOOO++++OOO+++OOOOOO .",
" X+++@@@++++++++++++++OOO@@@@+++++OOOOOOoOOOOOOOO++OOO+++++OOO .",
" .+++OOOO+++++++O++@@@++++++OOOO@@++++@@+++++++OOOOOooOOO++++O..",
" .@@O++OOOOO++OOOOOO+@@+++OOOOO++@@@+++@@@++OOooOOoooOOO++OOOO. ",
" .@+++OOOOO+++++OOOOOO++OOOO+++@@@@+OOOO+++OOOOOoooOOO++OOO++@. ",
" X@@@+++OOOOO++O++OOOOOOOOOOOO++OO++++OOOOO+++OOOoooOOO++OOO++. ",
".X+++OOOOOooooooOOOOOOOOOOooOoooooOOOOOOOOOOOO++OOOO++OOOOOOOO. ",
" X+OOOOOoooooOOoooOOO+++OOOOoooOOOooOOOOOOOOOOOO+++++OOOOOOOOO..",
" .@@++OOOOOoooOOooooOOO+++OOOOoooOOOOO+++OOOO++++++++++++OOO++..",
"..+OOOOOOOOOOOOO+++OOO+++OOOOoooOOO+++++OO++++++OOOO+++OOOOOO+. ",
" .++OOOO+++++OOOO+++++OOOOO+++++@@@@@@@@++++++OOO+++OOOOOOO++O. ",
" .OOOO++OO++OOO+++OOOOOO++++++@@++@@@@@++OO++++OOO+++OooooOOOO  ",
". +++++@@@@@@@OOOOOO+@@@++OO+++++++@+++OOO+OO+@+++++++OOoO++++  ",
". OO@@@@+++@@@@@++++@@@++OOOOO++++@@@@++++++@@@@@@++OOOoooOO++. ",
"  OOOO++++@@@++++OOOO++OOOO++OOOO+++++++@@@@@+++++@@@+++OOOOOO. ",
" .+OOOOO++++@@OOooooOOOO++++OOOO+++++@@@@@@@@@@+@@++@@+OO++OOOX ",
" .OO+++OOOO+++++OOoOOO++OOO+++++++@@@@++++@@@@@@++++OOO+++OO++X.",
" .++++OOOO++++OOOooo++++++++++@@@@+@++++@@@@@@+++OOOOOOOO++@@@..",
". +++@@@@++OOOOO+++OOO++++++OOO+@@@+OOO+++OO++OOOOooOOooOOOO+@. ",
"..@@@@@@@@++O++OOOO+++++OOOOO++O+++++OOOO+++OooooooOOOOoooO+@@. ",
" .+++@@@++++++++OOOO+OOO+++OOO++++OOOOOOOOOooOOoooOOOOOOOOOOOO. ",
" .++@@@@@@@+++@@@@@+++OOO+OOOOOO++++OOooooOOOOooOOOOOOOOOOOOOO. ",
" .O++++@@++++++@@@@@@++++++++O++@@@@@@OOoooOOOOOOO++++OOOOO+++..",
" XOOOO++OO++@@@@@@++++++OO++@@@@@@@++++OOOOooOOOO+OOO++++++OO+X.",
".XOOO+++++OOO++++@@@+O+++OOO++@@+OO++OOoooOOO++OOOO++++@@@++OOX ",
"..++OOOOOOOOOOOO@@@+++OOOOOOOOOOO++OOOOOoooOOO++++++@@@@@+OOOO. ",
". OOOOOOOOOOoooOOOOOOOooOOOO++++OOOO+++OOO++++++OOOOOO++++++++. ",
". OOOOOOooooooooooOOoooOO+++O+O++OOOO+OOOOOOO++++OOOOOOO++++++. ",
" .+OOOOOOOooOOOooooooooooOOOOOOO++++++++OOOOOOOOOOOO++++++++++X.",
" .O+++OOOOOOOOoooooOOOOOOooOOO+++++OOO++++OOOOOOOO++++++OOOO++X ",
" .++OOOO++++++OOooooOOOO++OO++@@@@@@@@@@+++OO+++OOOOO++++OOOOOX ",
" .OOOO++O++OOOOOOOOOOOOOOO@@@@@@@@@@+++++OO++++OOOOO++OOOOOOO+X.",
"  +OOOOO++++OOO+@@@+OO++++++@@@@+++++++OOOOOOO++++++++++OOO+++ .",
"  @@+@@@@@@@+++@@++@@+++++++++@@@@++++OOO+OOO++OOOOO++++++OO++ .",
". ++++++@@++++O+@@++++++@@+++@@++@@@++++OO++@@@+OO++@@@@++++++  ",
"..++++@@@++OO++OOO++OO+++@@@++++@@@++OO++OO++@@@++++++@@@+++++. ",
" .++@@@++@@@++++OOOOO+OOOO++@@@@++++OO+++++OOO++++@@+@@++++OOO. ",
" .OO+++++++OOO+OOOOO++++O+OOOOO+++++++++OOOOO++++OO+++++OooooO. ",
" .O+++O++OOOO++++OOOOOOOoOOOOOOOOOO+++OOOO++++OOOO++O++++OOoOO .",
" .ooOO++++++++++OOO++OooooooOOooO++O+++OOOO+OO++OOOO+OOOOOoooO .",
"..OOOOOOOOOOOO++++OO++OOOOooooOOOO++++++++++++@@@@@@@@+++OO+++..",
".XOO+OOOOOOOOOOO++++++++OOOOO++++++++++O++++@@@@@@++@@@@++++++. ",
" X+++++++OOOOOO++++++++@@@@@++++++@@@+OOOOOO++++@@@+++OOOOO++@. ",
".X++OOOOooO++OOOOO++@@@@@+++@@++@@@@+++OO++++OOO+++++++OOO++@@  ",
"..OOOooooOOOOOOOO++@@@@@@@+++O+OO+@OO++++++OOOO++++OOOO+OOOOOO .",
" .O+++OoooOO++O++++++@@@+++OOOO++++++OOO++OOooOOOO+++OOOOOOO+O .",
"  OOOOOOOO+++OOO+++@@@+++OOOoooOOOooOOO+++++OoooooooOOOOOOOOO+..",
"  OOO++O++OO++++++++@@@@+++++OOOoooOO++++++OOOooOOOOooOOooooOO .",
". ++++OOOOOoOO++@@@@@@@@@++++++OOO++OO++OO++++OOooOOOooOOOOooo. ",
" .++++++OooO++++++@@@@++++O+++OOOOOO+++++OOO+OOOOOOOOOOOOOoooOX ",
" .@@@@++@+OOO++++OOO++++OOO+++++++OOOO++@@++++++OOoO+O+++++++@X ",
"..@@@++@@@++++OOOO+++++++OOO++++OOOOO+@@@+++OOooooOOO++++O@@@@. ",
" .@@@@@++OO+++++OOOOO+++++++OOOOOO++++++++OOooooOO++OOOOOOO+++..",
" .++++++++OO++OOOOO+++++OOOOOOOOOOOO+++OOOOOOOO+++++++OOOOOO+@ .",
" .+OOOOO+++++++O++++@@++@@OOOOOOOO++OOOOO+++OOOO+++++@@@@@@@++  ",
" .++OO+OOOOO++++@@@@@@@@+++++OOO++++++OOOOO+++++@@@@+++@@@@@@@. ",
"..OOOoooOO++OOO+++@@@+++++OOOOOOOOOO+++++++++@@@@@@+@@+++@@@@+  ",
"..OOoOOO++++++++++++@@+OO+++OOOOOO++++@+++OOO+++++++++++@@+OOO. ",
". +++++++O+OOOOOOOO++++++OOOOO++++++@@@@+++++OOOO++++OOOOO++++..",
"  ++++OOOOO++OOOO+OOO+OOOOooooOO++@@+++@@@@@++OO++OOOO++++OO++X.",
".  .. .....XXXX...XXX....XXXXXX.XXX......XXX....XXXX.XX....XXX..",
"... ..        ..    ..    ..      ..      ....    ..  ..    ...."
};
