/* XPM */
static const char *smooth_basalt[] = {
/* columns rows colors chars-per-pixel */
"64 64 6 1 ",
"  c #1B2632",
". c #32333D",
"X c #3A3B48",
"o c #4F4B4F",
"O c gray36",
"+ c DimGray",
/* pixels */
"OOoooooXXXooOOOoooooXX..XXooX.XoOOooooooooooooooXXXXoooXXooOOoOO",
"oooXooXXoooooOOOooXX...XoooXXXoOOOOooooooooooooXoXXXXoXXoOOOOOoo",
"ooXXXXooOooOOOoOOooXX.XXXoooXoOOoooOoooooooXXoXXXXX.XXXooOOOOooo",
"oooXXXXooOOOOoOoooooXX.XoXoooXooooooooooooooXXXXX..XXXXoOOOOOOOo",
"oXX.XooOOOoooooooOOX..XXXXXoooooooooOooooXXXX.XXXX...XXOOOOOoooX",
"X..XooOOOooOooOoOOOOX..XXXoooooooooooOOoooXX....XXX...XoOOooXXXX",
"XX..XXooOOOoOooOOooooX.XX.XoXooooooOOOooXXooXX.......XXooOOooXXo",
"oXX..XXoooOOooooooooXXX..XXXoooooOOOOooXXooXX.....X..XooOoooXXoo",
"oooXX.XXXoXoooXooXXX....XXooooooooOoooooooOoX.X...X.XooooooXooOo",
"ooXooX..XXoooooXXXXXX...XXXooooOoOOOoooOOOoo.XX..X..XoXooooooooO",
"OoOOooX...XXXXooXX...X.XXooooOOoOOOooOOOOooX.X. .X.XXXooooooOOOO",
"oOOoooXX.. .XXXX....XX..ooooOOOOOOoOOOOoooXXXX .XX.XXooooooooOOO",
"OOOOoXoXXX.   .XX..XoXX.XooOOOOOOOOOOOOOooooX. ..XXXXooooooOOOOO",
"OOOOOOoX....   ...XooooXoOOoOOOOOOOOOOOOOOoXX.  .XXXoXooOOOOOOOo",
"oOOOOoooX..XX....XXXXoooooOOOOOOOOOOOOOOOOOoX   ..XoooOOoOOOoooo",
"ooOoOOoXXXX.XX.X..XXoXooOOOOOOOOOOOOOOOOO+OO.  ..XXooooOOOOoOooo",
"oOOoooOoXoXXXXXoXX..XXXooOOOOOOOOOOOOOO++OOX.   .XoooOOOOOOOoooo",
"OOoooXoooXXXoXoooXX..XoXoOOOOOOOOOOO++++OOOX  . .XoXooOOOooooooo",
"ooOooXXXoooXXooXXXXXX.XXXoOOOOOOOO++++OOOOo.   ...XXoooOOOoooooo",
"ooXoX.XXXXXooXXXXXXXXXXXXOOOOOOO+++OOOooOo..   ...XXooOooooooooo",
"oXXXXX...XoooooXXXX.XXXXooOOOOoOOOOOOOOoo..   ...XXooooooooooooo",
"ooXX....XooXXoXXXX..XXXXXooOooOOOOOOOOoX..  .  .X.XXooXooooooooo",
"XX. .XXXXoooXXXX...XXXXXXooooOOOOOOoo... .   . .XXoXXooXXooooXoX",
".XX. .XXooXXoXX..X.XXXXXoooOOOOOOoXX.....    ...XXXooXXXooooooXX",
"...   ..XoooX.....XXXXoXooOOoOoXXXX.XX..    ...XoXoOooXXXXooX.X.",
".    ..XXXoXXX...XXXooXoooooooXXXXXXX..   . ..XXXoOooooXXXXX....",
"..  ..XXooXXX..XXXXoooooooooooooXoX... .  ..X..XoOOOOOoooXoXXX..",
".  . .XooXXX..XXoXoXoooooooXoooooXXX.... ....X.XoOOoOoooooXX.XX.",
"    .XXXXX..XXooooOOooooooooXXooX...... ....XXXoOooOOOOooOoXX.X.",
"   ...XXX.X..XXooooOOOooooXXXXXo.X....   ..XXoooOOooOOOOOOooX.. ",
"  ..XXXXXXXXXooOOoooOOOOoXXXoooXX..X.  ...XXoooOooOOOOOOOoOoXX. ",
" .XX.XXooXXoooOOooOOOOooOoXXXoXXXXX..X...X.XXoOooOOOOOOOOOOOX. .",
". .XoXooXoooOOOoOOOOOOOoooooXXXXXoXXXXXX..XXoOOOOOOOOOOOO+OO.  .",
".XXXXooooooooOOOOOOOOoOOoooX.XXXXXooX.XXXXXooOOOOOOOOOO++OOo.  .",
"X.XooXXXooOoooOOOOOOOOoooXX....XoooXXX.XXoXoOOOOOOOO++++oooX  ..",
"XXooXXXoOOooOOOOOOOOOOOoooXX..XXXoXXX...oooOoOOOOOO+++OoOXXX  ..",
"XoXXooXooOOOoOOOOOOOOOOOOoo.. ..XXXX...XXoOooooOOOOoOOooooX  . .",
"XXoXXoooooOOOOOOOOOOOOOOoooXX.  ...XX...XXooooOOOOOOooooXX  ...X",
"X.XoooooOOOOOOOOOOOOOOOoooooXX.   .... ....XXooOOoooooXX. .X..X.",
".XoooooOOOOOOOOOOOOOOOOOoOooXo..   .  ..X.XXoXoooOooXXXXX...XXX.",
"XXooOOOOooOOOOOOOOOOOOOOOooOoXXX..   .XXXX..XXXXXooXXooXoXXXXX..",
".ooXoOOOOoooooOOOOOOOOOOooOoooX.. . ...XX.....XXooXoooOoXXXooXX.",
"XXXXXooOOOoooOOoOOOOOOoooooXXX..XX...XXX..X..XoooOooOOoooooXooX.",
"XoXXooOOOooooooOOOOOOoooOOooXXXXX...XX.XXXXXXXXoOooOOOOOoooooooX",
"oXooXooooooOOOOOOOOOOOOOoOOooooXXX....X.X..XXoXOOOOoOOOoooOOOoXX",
"ooooXXooooooOoOOOOOOOOOOO+OoOoooXX........XXXXoOOOOOOOoooOOOoXXo",
"ooooo.XoXooooOOOOOOOOOO++OOOooXX...XXXX..XXXoXooOOOOOoOOOOOoOooX",
"oooooX.XoooOOOOOOOOOO+++oOooXXX...XXoX....XXoooOOOOOOOOOOOOOOOoo",
"ooooX..oooOOOOOOOO++++OOOooX.XXXXXXXXoXXX..XOoOOOOOOOOOOOOOOOooo",
"ooXoX..XoooOOOO+++++OOoooX.....XX.XooooXXXXoOOoOOOOOOOOOOOOOoooo",
"ooXXX.XooOOO+++++OoOOooX....  ...XXXooooXXoOOOOOOOOOOOOOOOoOoooX",
"oXXX..ooOOOOOoOOOoooXXXX .   ...XXXooooXXXXoOOOooOOOOOOOoOoooXXo",
"oX..XXoOooOOOOooooX.X.  .  ....XXXXoOoXXoooOOoooOOOOOOOOOoooooXX",
"X..XXooooOOOooooXX.X...     ....XXoOOoooXoOooooOOOOOOOOOOooXXXXX",
".XXooooooooooXX... ..     ...XXX.XOOOOooooooooOoOOOOOOOOooooXXoX",
"XoooooooXoXoXX.X...        ...XXXoOOOOoooooooooOOOOOOOoOOooooooo",
"oOooooooXXoX....         ..XX..ooOOOOoooooooooOOOOooOOOoooooooOo",
"OooooooooXX....      .  ....XXXXooOOooOooooOoOOOOOOoooOOoooOOOoO",
"OOooOooooo..X....     .....XooXoOOOOoOoooOOoOOOOOOOOOooooOooOOOO",
"OooOOOoooXXXXX..   ........XXooXoOOoOOOoooOOOOOOOOOOooXoooOOOOOO",
"OOOOOooOXXoX...XX.........X.XXooOOOOOOooOOOOOOOOOooooXooOOooOOOO",
"OOOOOOOoooX..XXXXX..X.....XX.XoooOOOoooOOOOOOOOooOooXXoOOOOooOOO",
"OOOooOoooX.XoOoXoXXX....XX..XoOOoooOOoooOoOOOOOOoooXXXXooOOOOOOO",
"OOOOooXXXXXoooOOXoXXXX...XX..XoOOoOoooooooOOOOoooXXoXXXXooOOOOOO"
};
