/* XPM */
static const char *sniffer_egg_very_cracked_east[] = {
/* columns rows colors chars-per-pixel */
"64 64 21 1 ",
"  c #182B2B",
". c #223C3D",
"X c #420707",
"o c #580808",
"O c #690E0E",
"+ c #7C1414",
"@ c #5F4D33",
"# c #6B5837",
"$ c #285042",
"% c #285441",
"& c #2D6246",
"* c #306E49",
"= c #34794D",
"- c #8A2119",
"; c #94261C",
": c #9F321F",
"> c #AB3F2A",
", c #37844D",
"< c #3E8F55",
"1 c #459C5C",
"2 c None",
/* pixels */
":::::::::::::::::::::::::o::::::::::::::,,,<<<,,2222222222222222",
":::::::::::::::::::::::::o::::::::::::::#,,,,<<,2222222222222222",
"::::::::::::::::::::::::+o:::::::::::::::,,,,,,,2222222222222222",
":;;;:::::::::;;;:::::::+o+:::::::::::::::#,,,,,,2222222222222222",
";;;;;;;;::::;;;:::+oooooo;;;::::::::::;;;:==,,==2222222222222222",
";;;;;;:::::::+ooooooooooo+;;;;::::;;;;;;;;;=====2222222222222222",
";;::;;;;;+++oo+::::::;;ooo+:>:;;;;;;;;;;;;;;*===2222222222222222",
";;;;+++++++o;;:::::::::o::oo;>;;;;;;;;;;;;;;;;*=2222222222222222",
",,<<11111111,#;;::;;;;o+;;;;oo>>;;;;--;;;;;;;;;;2222222222222222",
"11111111111111,#;;::;;o:::;;;;oo>>;;;--;;;;;;;;;2222222222222222",
"1111111111111111==;;;o+;:::;;;;;oo>>;;;;;;;;;;;;2222222222222222",
"1111<,,,,,,<<11111=;;o;;;;;;;;;;;ooo>;;;;;;;;;;;2222222222222222",
",,,,,,,,,,,,,,,,<11=;o;;;;;;;;;;;o++o>;;;;;-;;;;2222222222222222",
",,,,,,,,,,,,,,,,,,<1o+;;;;;;;;--X+;;+o>;---;;;;;2222222222222222",
",,,,,,,,,,,,,,,,,,,.+;;;;;;----X+;;;-X>---;;;;;;2222222222222222",
",,,,,,,,,,,,,,,,,,,.,-;;-------X-----X+>;;;;;;;;2222222222222222",
",&&,,,,,,,,,,,,===.$=,-;;;;;--X-----;+X+;;;;;;;;2222222222222222",
",,=&&&,,,,,,====..&$==---;;;;oX---;;;;X;+;;;;;;;2222222222222222",
",,,,==&&&&&&&&..&==$==-------X-------;X;;o;;;;;;2222222222222222",
",,,,,,,=====..&====$==+-----oX--------X+;;o;;;;;2222222222222222",
",,,,,,,,,,=$====,,=$==+++--+X--;--;;;-+X---ooo;;2222222222222222",
"==,,,,====$===,,,==$==++----o---;;;;---X------++2222222222222222",
"=========$=========$==+++++o-----------X----,,,,2222222222222222",
"========&==========$==++++-o-----------X--,,,,,,2222222222222222",
"=======&===========&==+---o------------X,,1111112222222222222222",
"======&============&==++--o---+++-----+X111111112222222222222222",
"=====&======**=====&=*+++o--++++-----+, 111111112222222222222222",
"====&=====***======&=*+++o--------+++,1 111111112222222222222222",
"===&==============&=*++++o----+++++o... 111<,,,,2222222222222222",
"==&===============&**+++o+-+---+++o,11. 11<,,,,,2222222222222222",
"=&====****=====***&*++++oooooooooo,111<.11,,,,==2222222222222222",
"&==**==*****====**&*++++o-++--+++,11<,,.&1,=====2222222222222222",
"&=========********&++++o++++-++++<1,,,,.$11==,==2222222222222222",
"=***====**********+++++o+++--+++=1,,,,=.$11,,===2222222222222222",
"***==***********@+++++o+++---++@<<,,,,,&.&1=====2222222222222222",
"***************@++++++oo++--++-,<,,,,,,=.$11====2222222222222222",
"*************@-+++++-o+o+---++-<,,,,,===&.&1====2222222222222222",
"***********@--+++++++o+o----+-@,,,,======&.&1===2222222222222222",
"********&@-+++++++++o+--o-----,,,=========&.1===2222222222222222",
"***&&@--+++--+++++++o---o-----,,===========.&1==2222222222222222",
"++++++++++++++---++o+++--o-+-@,============&.<==2222222222222222",
"++++++++++++----++oo++--;o-+-=,===========,,.,==2222222222222222",
"+++---++++++++++++o++-;;--o+-,==============$===2222222222222222",
"++-+++++++++++++++o-;;;--++o@,==============$===2222222222222222",
"+++o+++++++++++++o;;;;--++++$====*==*****===&===2222222222222222",
"++o+--++++++++--;o;;---+++++*$====**********===*2222222222222222",
"oo+++--+++------o-----++++++**$*======********==2222222222222222",
"++++++++--------o---+++++++@***$***=====*******=2222222222222222",
"*&@++++++++----o--+++++++++*****$**************&2222222222222222",
"=**&@+++++-----o+++++++++++******$************&&2222222222222222",
"==****+++++++--o-----++++++&******$*====****&&&&2222222222222222",
"*==**&&+++++--o----+++++++O&&******$==***&&&&&&&2222222222222222",
"****&&&&O+++++o-+++++++OOOO&&&&&**&*$$&******&&&2222222222222222",
"&&**&&&&&O++++o+++++++++OOO&&&&&&&****$$****&&&&2222222222222222",
"&&&*&&&&&&O++o++++++++OOOOO&&&********&&&&&&&&&&2222222222222222",
"&&&&&&&&&&O+o++++++++OOOOOO&&****&&&&&&&&*&&&&&&2222222222222222",
"&&$&&&&&&&&O++++++OOOOOO+OO&&&&&&&&&&&&**&&%%%&&2222222222222222",
"&$&&&&&&&&&OO+++OOOOOO++OOO&&&&&&&&&&&&&&&&&%%%%2222222222222222",
"%$&&&&&&%%%%OOO+++++OOOOOOO&&&&&&&****&&&%%&&&&%2222222222222222",
"$&&&&&%%%%%%OO++++OOOOOOOOO&&&&&****&&&&&&&&&&%%2222222222222222",
"$&%%&&&&&&%%OOOOOOOOOOOOOOO%&&&&&&&&&&&&&&&%%%%%2222222222222222",
"$&&%%&&&&%%%OOOOOOOOOOOOOOO%%&&&&&&&&&&&%%%%%%%%2222222222222222",
"$&&&&&&%%%%%OOOOOOOOOOOOOOO%%%%&&&&&&%%%%%%%%%%%2222222222222222",
"$&&&%%%%%%%%OOOOOOOOOOOOOOOO%%%%%%%%%%%%%%%%%%%%2222222222222222"
};
