/* XPM */
static const char *sniffer_egg_not_cracked_west[] = {
/* columns rows colors chars-per-pixel */
"64 64 15 1 ",
"  c #690E0E",
". c #7C1414",
"X c #5F4D33",
"o c #6B5837",
"O c #285441",
"+ c #2D6246",
"@ c #306E49",
"# c #34794D",
"$ c #8A2119",
"% c #94261C",
"& c #9F321F",
"* c #37844D",
"= c #3E8F55",
"- c #459C5C",
"; c None",
/* pixels */
"&&&&&&&&&&&&&&&&&&&&&&&&&&&&&&&&&&&&&&&&&&&&&&&&;;;;;;;;;;;;;;;;",
"&&&&&&&&&&&&&&&&&&&&&&&&&&&&&&&&&&&&&&&&&&&&&&&&;;;;;;;;;;;;;;;;",
"&&&&&&&&&&&&&&&&&&&&&&&&&&&&&&&&&&&%%%&&&&&&&&&&;;;;;;;;;;;;;;;;",
"&&&%%&&&&&&&&&&&&&&&&&&&&&&&&&%%%&&&&&&&&&&&&&&&;;;;;;;;;;;;;;;;",
"####o%&&%%&&&&&&&&&&&&%%%%%&&&&%%%%%%&&%%%&&&%%&;;;;;;;;;;;;;;;;",
"***###o%%&&&&&&&&&&&&&&&%%%%%%%%%%%%%%&&%%%%&&&&;;;;;;;;;;;;;;;;",
"=---==**o%%%&&%%%&&&&%%%%%$$%%%%%%%%%%%%%%%%%%&&;;;;;;;;;;;;;;;;",
"--======*o%%%%%%&&%%%%%%%$$%%%$$$%$$%%%%%%%%%%%%;;;;;;;;;;;;;;;;",
"===*****=*$$$$$$%%%%%$$$%%%%$$$%%%%%%%$$$%%%%%%%;;;;;;;;;;;;;;;;",
"**********o$$$$%%%$$$$$$$$%%%$$$%%%%$$$$%%%%%%%%;;;;;;;;;;;;;;;;",
"***********$$$$$$%%$$$%%$$$$$$%%%%%%%%%%%%%%%%%%;;;;;;;;;;;;;;;;",
"***********o$$$$$$$$$%%$$$$$$$$$%%%%%%%%%%%%%%%%;;;;;;;;;;;;;;;;",
"************$$%%%%$$$$$$$$$$%%%%%%%%%%XX********;;;;;;;;;;;;;;;;",
"**********##$%%%$$$$$$$$$$%%%%%%%%%%X****=----=*;;;;;;;;;;;;;;;;",
"******####**o$$$$$$$$$$$$$$$$$%%%%X****=-------=;;;;;;;;;;;;;;;;",
"*******######$$$$$$$$$$$$$$$$$$$%X***=-------=**;;;;;;;;;;;;;;;;",
"***#####**###$$$$$$$%%%%$$$$$$$$X***=-----=*****;;;;;;;;;;;;;;;;",
"****#########.$$$$$%%%$$$$$$$$$X****----=*******;;;;;;;;;;;;;;;;",
"******#######$$$$$$$$$$$$$$$$$X****=--=*********;;;;;;;;;;;;;;;;",
"********#####.$$$$$$$$$$$$$$$.*****=-=**********;;;;;;;;;;;;;;;;",
"****#########...$$$$$$$$$$...X*****-=***********;;;;;;;;;;;;;;;;",
"*****########..$$$$$$$$$$$$..*****=-************;;;;;;;;;;;;;;;;",
"**######***##...$$$$$$......X*****=*************;;;;;;;;;;;;;;;;",
"****##****###...$..$........*****=**************;;;;;;;;;;;;;;;;",
"***##########.$.$$$$$$$$....*************#####**;;;;;;;;;;;;;;;;",
"*############.$..$$$$$$$$..X*******#***######**#;;;;;;;;;;;;;;;;",
"#############..$.$$$$$.$$..*********############;;;;;;;;;;;;;;;;",
"############@..$$$$%$$.$...***********##########;;;;;;;;;;;;;;;;",
"######@@####X..$$$%$$..$..X*******###**##*######;;;;;;;;;;;;;;;;",
"########@###....$$%$$.$...******####*****#######;;;;;;;;;;;;;;;;",
"##@@@@#####@$...$%$$$$$...****####******########;;;;;;;;;;;;;;;;",
"#@@@@######X$...$%$$$$$...*****##***############;;;;;;;;;;;;;;;;",
"##########@..$..%%$$$$..$X***###################;;;;;;;;;;;;;;;;",
"#########@X..$.$%%$$...$$*****##################;;;;;;;;;;;;;;;;",
"@@@@@@#@@@...$$%%%......$*##****############**##;;;;;;;;;;;;;;;;",
"@@@@####@X...$$%%$$.....X#####****########***###;;;;;;;;;;;;;;;;",
"@@###@@@X.....$%%$$$$$..########################;;;;;;;;;;;;;;;;",
"++@###@@......$%%$..$...########################;;;;;;;;;;;;;;;;",
"+@@@@@@$....$.$%$$$$....##########@@############;;;;;;;;;;;;;;;;",
"@@@@@@$.....$$$%$$$.....########@@@#############;;;;;;;;;;;;;;;;",
"++@@@$.......$$%$$$$$...@#######################;;;;;;;;;;;;;;;;",
"++++$........$%$$.$$... @#######################;;;;;;;;;;;;;;;;",
"++$.........$$%$..$.... @####################@##;;;;;;;;;;;;;;;;",
"$$........$$.$%$.$$.... @@####@###########@@@###;;;;;;;;;;;;;;;;",
"......$$.......$$$..... +@@@###@@@######@@@@####;;;;;;;;;;;;;;;;",
"....$$$.......$$$$..... +@@@@@##################;;;;;;;;;;;;;;;;",
".................$....  +@@@##@@##@@@###########;;;;;;;;;;;;;;;;",
"......................  +@@########@@@@@########;;;;;;;;;;;;;;;;",
"@#####@@..............  .+@@@@###@@@@@@########@;;;;;;;;;;;;;;;;",
"########@@...........   .+@@@###@@@@@########@@@;;;;;;;;;;;;;;;;",
"#########@@@.........    ++@@@@@@@#######@@###@@;;;;;;;;;;;;;;;;",
"@@@@@#####@@@.......     ++@@@@@@@@@########@@@@;;;;;;;;;;;;;;;;",
"@@@@@@@@@##@@@ ...       .++@@@##@@@@@@#########;;;;;;;;;;;;;;;;",
"@@@@@@@@@@@#@+X ...       +++@@@@@@@@@########@@;;;;;;;;;;;;;;;;",
"@@@@@@@@@@@++++           .++++++@@@@@@@@@@@@@@@;;;;;;;;;;;;;;;;",
"@@@@+@@@@@@@+++X           O++++@@@@@@@@++@@@@@@;;;;;;;;;;;;;;;;",
"@@++@@@+++++++++    .       ++++++++++@@@++@@@@+;;;;;;;;;;;;;;;;",
"@@@@@@@@++++++++X    ...    O+++++++++++@@@@@@@@;;;;;;;;;;;;;;;;",
"+++++++++++@@+++O      ...   O++++++@@@@@@@@++++;;;;;;;;;;;;;;;;",
"+++++++++++++++OOX    ...     O++@@@@@@@@++@@+++;;;;;;;;;;;;;;;;",
"++++@@@@++++OOOOOO             OO+++++++++++++++;;;;;;;;;;;;;;;;",
"++@@@@+++++++OOOOO              OOOO++++++++++++;;;;;;;;;;;;;;;;",
"+++++OO+++OOOOOOOO               OO++++++++++++O;;;;;;;;;;;;;;;;",
"++++++++OOOOOOOOOO                 OOO++++++OOOO;;;;;;;;;;;;;;;;"
};
