/* XPM */
static const char *sniffer_egg_slightly_cracked_top[] = {
/* columns rows colors chars-per-pixel */
"64 64 13 1 ",
"  c #2D6246",
". c #34794D",
"X c #8A2119",
"o c #94261C",
"O c #9F321F",
"+ c #AB3F2A",
"@ c #BC4E3A",
"# c #80754B",
"$ c #8C774F",
"% c #3E8F55",
"& c #459C5C",
"* c #54A869",
"= c None",
/* pixels */
"XOOO++++++++OOOOOOOOOOOO%%&&&&&&&&&&&&%%%%&&&&%%%%%%%%%%========",
"OXO++++++++++++++++OOOOO%%%&&&&&&&&&&%%&&&&&&%%%%%%%%%%%========",
"OOXXO++++++++++++++++OOO%&&&**&&&&&&&&&&%%%&&&&&&&%%%%%%========",
"O++OXX++++++++++++++++OO&&&**&&&&&&&&&&&&&&%&&&&&%%%%%%%========",
"++++++X++++++@@@@@+++++O&&&**&&&&&&&&&&&&&& &&&&&&&&&%%%========",
"+++++++X+@@@@@@@++@++++O&&&**&&**&&&&&&&&&& &&&&&&&&&&%%========",
"+++++++@@@@@@@++++++++++&&&***&&&&&&&&&&&&& &&%%%%&.&&%%========",
"+++++@@@@@@@++++++++++++#&&****&&&&&&&&&&&& %%%%&&.&&&&%========",
"++++++@@@@@@@@@@@++++++++&&*********&&&&&&& &&&&&.&&&&&O========",
"++++++++@@@@@++@@@@@+++++#&**********&&&&&& &&&&.&&&&&&O========",
"+++++++++++@@@@@@@++++++++&&******&&&&&&&&& &*&.&&&&&&OO========",
"++++++++++++++@@++++++++++#&****&&&&&&&&&&& *&.&&&&&&OOO========",
"+++++++++%&&&++++++++++++++#&************** &.&&&&&#++OO========",
"++++++%%&&&&&&&&+++@@++++@@@#&************* .&&&&#+++++O========",
"++++%%&&&&&&&%%&&&++@@++@@@@@@#&&********&&o&&&#++++OOOO========",
"++%%%%%&&&&&&&%%&&&&++++++@@@@@@##&****&&&&o##+++OOOOOOO========",
"+%%%%&&&&&&&&&&&&***$+++++++@@@@@@@@@@@+++o+++++OOOOOOOO========",
"%%%%&&&&%%&&&&*******$@@@@++++@@@@@@@@@+++o+++++++OOOOOO========",
"%%%%%%%&&&&&**********$@O@@@@@@@@@@@@@@@+o++++++++++++OO========",
"%%%%%&&&&&*************@@O@@@@@@@@@@@@@@o@+++++++++++OOO========",
"%%&&&&**********&&&*****@@O@@@@@@@@@@@@o@@@@@@++OOOO++++========",
"%&&&&&&&**********&&****@@@O@@@@@@@@@@o@@@@@+++OOO++++++========",
"$&&&&&&&&&&&&*** *******@@@@O@@@@@@@oo@@++@@@+++@@@+++++========",
"$&&&&&&&&&&&**** *******@@@@@O@@@@oo@@@@@@++++@@@@++++++========",
"+&&&&&&&&&&&&&&*.*******@@@@@@OOooO@@@@@@@@@@@oO@@@@@@++========",
"+$&&&&&&&&&&&&**.*******@@@@@@@ooO@@@@@@@@@@ooO@@@@@++++========",
"++$&&&&&&&&&&&&&.******&@@@@@@@@OoooooooooooO@@@++++++++========",
"+++$&&&&&&&**&&&.&****&@@@@@@@@Ooo@@@@@@@@@O@@@@@+++++++========",
"++++&&&&&&&&&&&&.****&@@@@@@@ooo@@@@@@@@@@@O@+++++++++++========",
"++++++&&**&&&&**.**&@@@@@@OOo@@@@@@@@@@@@@@O++++++++++++========",
"++++++++&&*****.....OOOOOO@@@@@@@@@@@@@+++O@@@@@+@@+++++========",
"+++++++++@@*.....OOOOOOO@@@@@@@@@@@@@@++@@O@@@@+++++++++========",
"++++++++++@@@@@@@@@OoO@@@@@@@@@@@@@@@@@@@O@@@@@@@@@@++++========",
"++++++++++++@@@@@@@@oO@@@@@@@@@@@@@@@@@@O@@@@@@@@@++++++========",
"++++++++++++++@@@@@@oo@@@@@@@@@@@@@@@@@O@@@@@@@@++++++++========",
"++++++++++++++++@@@@ oO@@@@@@@@@@@@@@@O@@@@@@+++++++++++========",
"+++OOX++++++@@@@@@@@.   *******@@@@@@@@@@@@+++++++++++++========",
"++OOX+++++@@@@@@@@@$.***  ********@@@@@@@@++++++++++++++========",
"+++X+++++++++@@@@$**.***.. *********@@@@@+++++++++++++++========",
"+++X++++++++++@@****.*****. **********@@@@++++++++++++++========",
"++X+OOOOOO++++@&&***.*******.***&&*****@++++++OOOO+++++O========",
"++X++O++OOO++@$&&&&*.********.**********++++++++OOO++++O========",
"+XOOOOOO++++@@&&&&&&.*******&&.&&****&&*&+++++++++++++OO========",
"XOOOO+++++++@$&&&&&&.*********&.&&&&**&&*+++++++++++++OO========",
"+OOOOOO+++@@$&&&&&&&.&**********.**&&&&&&&+++++++++++OOO========",
"O+OOOO++@@@@$&&&&&&&.&&&&********.&&&&&&&&+++++++++OOOOO========",
"OOOOOOOO+++@&&&&&&&&.&&*********&&.**&&&&&&++++OOOOOOOOO========",
"OOOOOOOOOO++&&&&&&&&&*******&&&&&&&..&&&&&&+OOOOOOOOOOOO========",
"================================================================",
"================================================================",
"================================================================",
"================================================================",
"================================================================",
"================================================================",
"================================================================",
"================================================================",
"================================================================",
"================================================================",
"================================================================",
"================================================================",
"================================================================",
"================================================================",
"================================================================",
"================================================================"
};
