/* XPM */
static const char *soul_soil[] = {
/* columns rows colors chars-per-pixel */
"64 64 5 1 ",
"  c #352922",
". c #3D2E25",
"X c #49372C",
"o c #5B4538",
"O c #6A5244",
/* pixels */
"oooXXXXX.XX.... . ....XX.XXXXXX...... . . .  .XXoooooooooooooOoo",
"XoooXoXXX..XX.X. . ..XX.XXoXXX.X...    ...  .X.oXoooXooooooOOoXo",
"XXXooXX.X.XX.X.  ..XXoXXooXXX. .. ..     ... ..oooXXoooooOOoOooX",
"XXooXXX.... ..  ..X.oooooXXXX.. ..      .. ...XXoXXXoOooOOOOOOoo",
"XoX.XX. ..X. . .X.XXXooXXo.X...    ..  .  ..XXooXooXXoOOOoOooOOX",
"XXXX.X.. ..X   .XXXoXoooXXX.. . . ..   ..  ..XXoooXoXXoOooooOoOo",
"oXX..XX.  ..  . .XXXoooX.X. .   ..  . . ....X..XoXXoXoXoOoOOoOoO",
"XoXX...X   .  ..X.XXooXXX...   ..     ....XX..XXXXoXoOoooooOOooX",
"XX... ... .  . .oXXoXoX...    .     ....X..XXX.XoXooOOoOoooOoooo",
"X..  .. .    ..XXoXooXXX. .        . .XX.X....XoXooOoOOooOoooXoX",
".XX.  .     ...XXoooXXXXXX ..    .  XXX.XXX..XooXXXooooOOoXoooXo",
"XX......   ...X.X.ooXX.X....      ...X...X..XoXooXoXooOOoooXoX.X",
"...XX.X ..X.XX...XoooXX. ..   .  .X...oX..X.ooXXooooOOOoooXXXoX.",
" ...XX.....XX..XXXoooo. ... .  ....X.XXoXX.XXXoXooOOOOooXoXXXX..",
". . .........XXXXoooXoXX..  . .XX..XXXXooXXoXooooOOoOoOooX.X.XX.",
"    .  ... ..XXoXoooXXoX..   .XX..XX.XooXXoXooXoooOOooooo...XXXX",
" .    ..  .X..XXoXoooXX.  . ....XX..X.XXooooOooXXOoooooXXX.XX.X.",
".        .XXX.XXooXoooX..  . ..XXoX...XoXoOoOOoXooooooXoXXXXXX. ",
"..     ..X..XX.XXoXXoo.. ..XX.XXoXooXXoooooOOoOooXoXoXXXXXXXX...",
"..      .....XXXXXXXoX. .XX.XX.XXooXoXXoOoOOOXooXXXoooXXXX.XXXX.",
".     .. .X.XXoXXoXoX.....XooXXooXoOOooooOOOooXXoXoXXXXXX.XXXX..",
".   ....  .XXXXooooX...XXXXXooXXooOOoOooooOoOooXXoooXXXX...X....",
"  .  ..  . XXXoooXX.X.XXXoXXXXooXooOoooOOOoooOOoXXoXoXXXX..... .",
"  .... .....XoXoooXooX.XooXoXXXoooooooOOOoooOOoooXXXX.XXXXX.... ",
"   .....X..XXXXooXooXoXoXXoooXoOoOooOOOooooOoOXoXXX..XXX.X... . ",
" .  .. ..XX.XXooXXXXXXXXoXXoooOOooOOOoOOoOooXoXX.X..XXXXX....   ",
" ...  ..XXoXXoXXoXXXoXXXXooooOOOOoOOOooOOooXXooXX.XX...X.. .   .",
". .  ..XXXXooXXoooXoooXXoooOooOOOOOOooOOoooXoXXXXXX...X....   ..",
".....XXXooXXooXXXXoooXXoXoooOoOOoOOoOOooXoXXXXXX.XXXX...  .. ...",
"...X..XooXXXXXoXoXXoXoXXooOoOOOoOOooOOOooXXXX.XX..XX..     .. ..",
".XXX.XoXXXXXXXXooXoXoooooOoOoOOOoooOoOoXooX..XX.X....  . .  ..X.",
"X.X.XXXXX..X..XoXXXoOOooOOoooooOOooooXooXXXX........ ..........X",
"XXXXXXX.....XXoXoXoooOOooOOoOooOooooXXXoX.XXX.XX....X...XX..XXXX",
"XXXXXX..XX.XX.XXXoooOoooOOOOooOooooX.XXX.XXX.XX...X..XX..XX..XX.",
"XXX...XXX.XX.XoooOOoooOOOOooooooXoXXX.XX..X...X..XXX.X.XXXXXXX.X",
"XX...XXoXXXXXXXoOOoooooOOoooooXooX...XXXX...X...X.XXXXXXX.X.XXXX",
".XX....XoXooXooOOOOoooooooXoXXooXXX.XX.X...X...XXXXXoXooXX...X.X",
"X.......XXXoooOoOOOOoOoOoooXXoXXXXXXXXX...XXXX..XXXoXooooXX...XX",
"XX...XXXoooXoooOoOoOOOOooXXooXo.XXXX......X.XoXXoXXXXXXoXXXXX...",
".X..XXXooXoXXoOOooOOOoooXXooXXX..XX...X.X...XXooXoX.XXXXX.XX....",
"X.XXXoooooXXoOoOOOoooXoXXXXXoXX. .X...XX...XXooooXXX...XXX.....X",
"XXXXXXooOoooOOOooOOoooXoX.XXXX... .X...X..XXoooXXXX...XX.....X.X",
"XXoXoooOooOoOOooooooXooXXX.X.X. .  .....X.XoXXooX.. .......XX.X.",
"XXXoooOOoooOOoOooooooXooX..X....  .....XXXoooXXoXX ..... ...XX..",
"oXooOoOOOoOOooooooXXXXoXX.X...  ...X..XXXooXXXoX..  ..  ..X..X.X",
"oooooOOOOOOOOooooXoXXXXX.XX....  .X..X.XXXooXXX..  .   ..X....XX",
"oooOOOOoOoOOooXoXXXX.XX..X.. ....XX...XXoXoX.XXX...   .X.XX.X.Xo",
"ooOOoOOOoooOOXXXX.XX..X.... ......XX.oXXooXXX.X...   ...XX.XXXoX",
"OOooOOOoooXOoXoXXX.X.. ...   ......ooXXoXoX.X....    ..XX..XoXoO",
"OooOOOOooooXXooo.X..X.. ..  ....X.XXooXooX..XX. .   . ....XXXoOo",
"OOOOOOooooooXXoX... XX.  .. ....XXXXoXoooX.XX...    .. ..XXXXOOo",
"OOOOOOOoXooXXXXoX. ..X   . ..X...XXoXXooXXXX. ... . ....XXXXooOO",
"OOOOoOoXoXX.XX.X.  .X. .  ...XX...ooXooXXX.X.. .   ...X.XXoXoXXO",
"OoOOOoXXooXX.X....  ...  ...X.XX.XXooooXoXX....   ..X..XXXooXXoo",
"OOoooooXXX...XX...... .  . ...X.XXoooXooXXX. .     ..X.XoXooXooO",
"OOOoooXoXXX.XXXX....       ..XXXXXooXXXo.X.X     .. X.XXoooXOOoO",
"OOOOoOoooXXXoX..X. .   .  ...XXXXoXXoXXX. .  .  ..  ..XoXoooooOo",
"OOOoOOOoXXXoXXX.X..   ..  ..X.XXoooXXX....  . . .. .X.ooooooooOO",
"OoooOooX.X.XXX.X..    .. ....XXoXoXXX.X...    .....XXXooooOooOOO",
"oOoooOoXX...XX....  . ... ..XXooXXXXXXX. .   . . .XXXooXoooOoOOO",
"ooooooX...XX.X. .   .. .X.X.XoXooXX.XX..    .   X.oXXXXooooOOOOo",
"oooXooXX.XXXX...  . .XXX..XX.XXXoXXX.X.    .... .XooXXoOooOOOOoO",
"ooooXXXXXXX....   ..X.X..X.XXXXoX.X..       . ..XXoXooooOOOooOOo",
"oooooXXXXX.......  .....XXXXXXXXXX.. .       ...XooooooooOOOoooo"
};
