/* XPM */
static const char *stone_bricks[] = {
/* columns rows colors chars-per-pixel */
"64 64 7 1 ",
"  c #5A595A",
". c gray39",
"X c #6A6D6A",
"o c #787678",
"O c gray50",
"+ c #8B898B",
"@ c #9C999C",
/* pixels */
"+@@@@@@@@@@@@@@@@@@@@@@@@@@@@@@@@@@@@@@@@@@@@@@@@@@@@@@+@@@@@+. ",
"@+++++++++++++++++++++++++++++++++++++++++++++++++++++++++++++  ",
"@++++++++++++++++++++++++++++++++++++++++++++++++++OOO+O++OOOO  ",
"@++++++++OO+O++++++++++++++++++++++++++O+++OO+++++++OOO++++OoO  ",
"@+++++++++OO++++++++OOOO++++OOOOOO++OOO++OOOoOOO++OOO+++OOOOOo  ",
"@++++OO+++++O+++OOOOOO++++OOOOOO++++++OOooOOOoO++OOO++OOOOO+Oo  ",
"@+OO+++++OOOOOOOOOOOOOOOOOOOOO++OOOOO+++OooooOOOOOO+O++OO++OOO  ",
"@++OOO++++OO+++OOOOOOOOOOOOOOOOOOOOO+++OOOooOOooOOOOOOOOOO++Oo  ",
"@OOOO++OOOOOOOOO++++OOOOOOOOOOOOOoOooooOOOOOOOOooooOOOOOoOOOOo  ",
"@+++++OO+OO+++++++OOOOooOOO+++OOOOoooOOOOOOooOooooOOOOooooOOoo. ",
"@OO+++++OOOO++OOOOOOOOOO+++OOOOOooOOOOOOOOOOO++OOOOOooOOOOooXo. ",
"@O+OOOOOOO++++++OOOOOOOOO+++OOOOOOOOOOOOOO++++++OooOOooOOOOooX. ",
"@OOoOOooOOOOO++++OOOOOOOOOOOOOOOOOOOOOOO+OO+++OoOOOOoOOOOooXoX  ",
"@OOOoooOOOOO++OOOOOOoooOOOOOOOOOOO++OO+++++OOooOOOOooooOooXXXo  ",
"@ooooOOOOOoOOO+++OOOOOOooOOOOOOOOOOO+++OOOOoOOoooOOOOOoooXXooX  ",
"@OooooOOOOOooOOO++OOOOoooooOOOOOOOOOO+++OOOOooooooOOOOOOooooXX. ",
"@OOOOooOOOOOooOOOO++OOOOOOOOoOOOOOOOOOOOOOoooooOOOOoooooOOoooX. ",
"@OOOoOOoooOOOOOOOOOOOOOOOOOOOoooOOO+OOOOoooOOoooOOOOooOooooOOo  ",
"@OoOOoOOoooXXoOOOOOOOOOOOOOoooOOO++OOOOOOOOOoooooXooXXooOOoooo  ",
"@oooOOooXXXoOOoOOOoooOOOOOOOOOOOOO++OOOOOOOOOOooooXooXXXoOOOoo  ",
"+XooXXoXXooooOOoooOOOOOOOOOOOOOOOOOOOOOOOoOooOOOOooooooooooooo  ",
"+oXoooXXXXoOOOOOooooOO+++OOOOOOOoOOOOOOOOOooOOOOoooOOooOOooooO  ",
"+ooooooOOOooooooooooooooOOOOOOooOOOOOoooooooooooooooOOOoooOOoO. ",
"+oOoooooOOOOoooooooooOOOOOOOOOOoooOOOOoooooOOooOOoOOOOooooooOO  ",
"+OoOOoooooooooooOOoooooOOOOOoooooOOoooOOOoooooOOoooooOOOoooOOO. ",
"OOOoXXXXoooOOoOOOOOOooOOOooOOXXooooooooOOOooooooXXXoOOOooooooO. ",
"OoXXXXoooXoooXXoooooOOooooooooooXXoooOOOooooXXoooXXXXoooXoXXoo. ",
"OooXXoooXXXXooooooOOOoooooooXXXXooooOoooOooooXXXXXXooooXXXoooo. ",
"oXooXXXXXXXooooooooooooooooooXXXXooooOOoooooXXXXXXXXXXooXXXXXo. ",
"XXXXXXXXXXXXXXXXXXXXXXXXXXXXXXXXXXXXXXXXXXXXXXXXXXXXXXXXXXXXXX. ",
"..........   ......... ..      ........    .................... ",
"......         .....              ..        .............. .  . ",
"@@@@@@@@@@@@@@@@@@@@@@@+@@@@@+  +@@@@@@@@@@@@@@@@@@@@@@@@@@@@@@@",
"+++++++++++++++++++++++++++++O  @+++++++++++++++++++++++++++++++",
"+++++++++++++++++++OO++++OOOOO  @++++++++++++++++++++++++++OO+O+",
"+++++++OO+++++++++++OO+++++OoO  @++++++OO++++++OO+++++++++++OO++",
"++++OO++OOO+++OO++OOOOOOOOOOoo  @+++++OOOOOO++++OO++OO+++OOOOOOO",
"++++++OOOO++OOO++OOOOO++OOOoOo  @+++++++OOOOOO+++++++OOO++OOOOO+",
"OOOO++++OOOOooOOO+++O++OOO+++o  @++++OOO++OOoOOOO+OOOoOoOOOOO++O",
"O++OO++OoooooOOO+++OOOOO+++OOo  @+OOOOOOOOooOOO++++OoooOOOO+OO++",
"OOO++OOOOoOOOO+++OOOOoooOOOOoo  @+++OOOOOooOOOOO++O+OOooO+O++OoO",
"OOOO++OOOOooOOO+++OOOOooooOOoX  @+++++OOOOOOOOO++OOOOooOOO++OoOO",
"oOOooOOoOOOO++++OOooOOOOOOoOoX  @+OOOOOOOOOO++++OOoOOOO++++++OOo",
"ooOOOoOO++OOO+OOOoooooOOooooXX  @OOOOOOoOO++++OOOoOOOOOO++OOOOOO",
"OOOOOOOOO+++OOO++OOOooooooXoXX  @OOOoooOOOOOOOOOOOOOooOOOOOOOOOO",
"OO++OO+++++OOOOO++OoooooooXXXo  @OOOOoooOOooOOOOOOOOOooooOOoOOOO",
"oOOO++++OOOOOOoooOOOOOooooXXoo  @OoooOOOOooOOO++OO++OOOooooOOOOO",
"OoOOO+OOOOOOooooooOOOOOOoooXoX  @OOoooOOOOOOOOO+++OOOOooooOOOoOO",
"OOO++OOOoooOOooOOOOoooooooooXX  @OOOOooooXOooOooOO+++OOOOOOOOOoo",
"OOOOOOOOOOooooooOOOOoXXoooooXo  @oOOoooXXoooOOOooOOOOOOOOOOOoooO",
"O++OO++OOOOOOOOOooooooXXXooooo  @oooOOXXooXXXoOOOOOOOooOOOoooOOO",
"OO++OOOOOOOOOOooooooXXXXoooooo  @oooooooXXXXoooOOoOOOOOOOOOoooOO",
"OooOOOOOOooOOooOoooooooooooooo  +oooXXXXXooooOOOOOooOOOO++OOOOOO",
"OOOOOOOoOOooOOOooXXooooOOooooo  +oooooXXXXooOoOOoooOOO+++OOOOOOO",
"ooooOooooooooooooOOOooooOOOoOo  +oooooooOOOOoooooooooooOOOOOoOOo",
"ooOOOOooooooooooooOOOOoooooooO  +oOooooOOOooooOooooOoooooOOOOooo",
"ooooOOOOOOOooooXXooooOOOoXoOOO  OooOOoXoooOOoOoooOOoOoooOOOOOOoo",
"ooooooOOOOooooooXXXoOOOoooXooO. OoooXXXXooooooOOooOOooOOOooOoooo",
"ooOOoOOOooooXXXXoooooooXXoXXoo  OXXXXoooXXoOOOoooooOOOoOOOoooooX",
"oooooooooooooXXXXXooooooXXoooX. OoXXXXooooOOoooooOOooooXXoooXXXo",
"oooooooooooXXXXXXXXooooXXXXXXX. oooXXXXXXooooooooooooooooooooXXX",
"XXXXXXXXXXXXXXXXXXXXXXXXXXXXXX  XXXXXXXXXXXXXXXXXXXXXXXXXXXXXXXX",
"............................      ..............................",
"...................... .            .       ...................."
};
