/* XPM */
static const char *stone[] = {
/* columns rows colors chars-per-pixel */
"64 64 4 1 ",
"  c #686868",
". c #747474",
"X c gray50",
"o c gray56",
/* pixels */
"XXXXXXooooooooXXXXX...XXX...XXX..XXXX...XXX.....XXXXooXX....XXXX",
"XXXooooooooXXoooXX.XX...XX....XXX..    ...  .XX..XoooXX...XXXXXX",
"XooooooXXXooXXXXXXXX......oooooX.  ...    ....XXXX...XXX......XX",
"XXXXXoooXXXXXXXXXXXXXX...ooooXXXXX...... ........XX...XXXXX....X",
"XXXXX....XXXXXXX.XXoooXXXXXX....ooXXXXooXXXXXXX.....  ...XXXX...",
"oooo.XX.....XX......XooXXX.....XXoooXXXoooXX..  ..   ...XX.....X",
"XooXXX.....XXXXX......XX....XXXooooX....XXX.....   ...XX...XXooX",
"oooooXXX.....XX.XX............XX..XXXX.....XXX...   ...XX...XXoo",
"XXXXX.....      ..........  .     ............XX....XX........XX",
"XXX.....     ..   ...XXX....   ...  ............XXXXX..........X",
"XoooXX.....   ..    ...XXX....   .....XXX....XXXXXXXXXXXX...XXXX",
"ooX.............XXX...XXX....   ...XXXXX..XXXXXX....XXX......XXX",
"XXXX....XXXXX....XXXXX.....XXXXXooooooooXXXXXX...XXX.......XX..X",
"XX....XX..XX...XXX......XXXXXXooXXoooooXX..XXXX...XXX.    ....XX",
"..XXXXXooooooo......XoooXX..XXXXXXXoXXX...X..XoXXXXXXX.. .XXXX..",
"X...ooooXXXoooooXXXXoooXX.....XXXXooooXXXXXXooooooXX...   ..XXXX",
"......XXXXoooXXXX....XX....XX....XXXXXXXoooooXXXXXoooXXX.......X",
"XXX.....XXXXoo..    ....XXXX....XXXXXooooooooooXooXXooX..XX...XX",
"XX..XXX....XXXXX.. ...XX...XXXXXXXooooXXXXooooooXXXX...XXX..XXXX",
"XXXXXX....XXXX...   XXXXXXXXXXooooXoXXXXooooooXXX........XXoooXX",
"XXXXXooooXX.....XXX...XXXXXX...XoooX...XXX..XX....  ..  ....Xooo",
"XXooooooooXX.XX....XXXXX.....XX.XXXXX....XXX.      ....   .XoooX",
"XXXXXoooXXXXXXXX....X...XXX...XXXX.........  ..   ............XX",
"XXXXoooooooXXXoooooXXX...X......XXXX..    ....  ...............X",
"X..XXXXooXXXXXXooooooXXXXXXXX.XXoooooo..   .......XXXX.....XXXXX",
"......XX..XXooooooXXXXXX..XXoooooooXXXX....  ....X...XXXXXX..XXX",
"XX...XXXXX...XXXXoooX.XXX...XXooX..XX..   ...XX....XXXXoooXX...X",
"XXXX............oooXXX...........XX.....   ...XXXXXXoooooX....XX",
"............   .......  ....XXXX....XXX...XXXXXX......XXXXXXXX..",
"X.......          ..   ..XXX.X.XX....X.......XXXX.......XXXXXXXX",
"XXX.......  ...          .......XXXXXXXX............XXXXXXXXXXXX",
"X..XXX........     ......  ...XXXXX...XXXX........XXXXXX....XXXX",
"XXXX....XXXXXX..    ....XX..XXooooooooooXXX..XXX.....XXXX.....XX",
"XX....XX.XX...............ooooooooooXXXXX..XXXX.....XX.......XXX",
"XXX.....XXXX...XoooX..XXXXXXooooXXXXXXX.......XXXXXXXXXX...XXXXX",
"XXooXoooooooXXXooXXooXXXXXXXXXooooXXXX...X...XX.....XXXXXX..XXXX",
"XXXXXXXXooXXXX.XooXXXXXXooXXXooXXoooXXXX..XXoooX..XXooooXXXXXXXX",
"XXXXXXoooXX..XX...XX..XXXoooXXXXoooXX..XX..XXoooXXXXXXoooXXXXXXX",
".XXXoooXXoooXXXX.....X....XXooooXXXX..XXXXX...XXXXooXooXXXX.....",
"....XXXXXXX...X.....XXXX.X.....XXXXXXXXX.....XXXX..XXXXX.    ...",
". .XXX.XX....XXXX....... ..........XXX....XXXX....XX.XXXX.. ..XX",
"..  ..XXXXXXXXXX...XX.      ..  .XX.XXX....X..XX....X.....   ...",
"XX............XXXX..XX....    ....XXXXXXXXXXXXooooooooXXX..XXX..",
"....X...........XXXXXXXX.....XXXXXXXXXX.XXXXooooooXXooooXXXXXXXX",
"XXXXXXXXX......XXXXXXXXoooooXXXXXXoooX......XXXXoooXXX.....XXooo",
"X.XX....  .XX.....XXoooooXXXooXXooooXXX..XXXX...XXXXXXX...XXooXX",
"XX...    ........XXoooooooXXX.X..Xo..XXXXXX....XXXX....X......XX",
"...XXX.   ..XX.XXXXXXoooXXX....XXXXXX...XX..  ....XXX.......X..X",
"X.........XXX...XXXoooXXX...   ...  ...XXXXX.       .........XXX",
".....XX.XX..XXXXXXXXooooXXXXX...   ..XXXXXX...  ....  ..    ....",
"..XXXX..... ..XXoooooooooXXXXXX...XX..XX..XXXX..  ...  ....   ..",
"XXXXXXXX.  .XXXXXXooooXXXX.XXX......XXXXX...X.............   ...",
"XoooooXXoX...XXXX...XXXX...XXXXXXX....XXooXXXXXX.. .X.XXXXXXXooX",
"XXoooXXoooXXXX....XXXXXXX...XXXX.....XoooXXX..    ...XXXX.oooooo",
"oooooooXX..XXXXX.....XXXXXXX......XXXXXXXX..    ..XX.......XXXXX",
"XXXXXXXXXX..XX.....XXXXX............XXX........XXXXXXX......XooX",
"XXX.....XXXXXXX.XXXXooXXoo........XX.....XXX....XXXXXoooooooXXoo",
"XXXX..X.....XXXXooooooooXXXXX...XXXXXX.....XXXXXooooXXXooooooooX",
"X....   ..XX...XXXoooXXXXX..........XXXXXXXXXooooooXooXXXooooXXX",
"XX.. ...XXXXXXXXXXXXooX..XXX......XXXXoXXX...XXXXXXXXXXXooX....X",
"..XXXXXXX.X........XXXXXX.....XXXXXXooooXXXXX....XXXX.....XXXX..",
"XXXXXX.....XX....X...X....    ..XXooXXXoooooXX..XX....XXXX..XXXX",
"XXXX....XXXX...XXXX.XXXX.... .....XXXXooooXXXXXXXXXX...XXXXXXXXX",
"XXXXXXXXXX..XXXXXXXXXXXXXXX.....XXXXXXXXXXXXXXXXXXXXXX..XXXXXXXX"
};
