/* XPM */
static const char *stonecutter_saw[] = {
/* columns rows colors chars-per-pixel */
"64 192 7 1 ",
"  c #727272",
". c gray51",
"X c gray66",
"o c #D8D8D8",
"O c #EAEAEA",
"+ c white",
"@ c None",
/* pixels */
"@@@@@@@@@@@@@@@@@@@@@@@@@@@@@@@@@@@@@@@@@@@@@@@@@@@@@@@@@@@@@@@@",
"@@@@@@@@@@@@@@@@@@@@@@@@@@@@@@@@@@@@@@@@@@@@@@@@@@@@@@@@@@@@@@@@",
"@@@@@@@@@@@@@@@@@@@@@@@@@@@@@@@@@@@@@@@@@@@@@@@@@@@@@@@@@@@@@@@@",
"@@@@@@@@@@@@@@@@@@@@@@@@@@@@@@@@@@@@@@@@@@@@@@@@@@@@@@@@@@@@@@@@",
"@@@@@@@@@@@@@@@@@@@@@@@@@@@@@@@@@@@@@@@@@@@@@@@@@@@@@@@@@@@@@@@@",
"@@@@@@@@@@@@@@@@@@@@@@@@@@@@@@@@@@@@@@@@@@@@@@@@@@@@@@@@@@@@@@@@",
"@@@@@@@@@@@@@@@@@@@@@@@@@@@@@@@@@@@@@@@@@@@@@@@@@@@@@@@@@@@@@@@@",
"@@@@@@@@@@@@@@@@@@@@@@@@@@@@@@@@@@@@@@@@@@@@@@@@@@@@@@@@@@@@@@@@",
"@@@@@@@@@@@@@@@@@@@@@@@@@@@@@@@@@@@@@@@@@@@@@@@@@@@@@@@@@@@@@@@@",
"@@@@@@@@@@@@@@@@@@@@@@@@@@@@@@@@@@@@@@@@@@@@@@@@@@@@@@@@@@@@@@@@",
"@@@@@@@@@@@@@@@@@@@@@@@@@@@@@@@@@@@@@@@@@@@@@@@@@@@@@@@@@@@@@@@@",
"@@@@@@@@@@@@@@@@@@@@@@@@@@@@@@@@@@@@@@@@@@@@@@@@@@@@@@@@@@@@@@@@",
"@@@@@@@@@@@@@@@@@@@@@@@@@@@@@@@@@@@@@@@@@@@@@@@@@@@@@@@@@@@@@@@@",
"@@@@@@@@@@@@@@@@@@@@@@@@@@@@@@@@@@@@@@@@@@@@@@@@@@@@@@@@@@@@@@@@",
"@@@@@@@@@@@@@@@@@@@@@@@@@@@@@@@@@@@@@@@@@@@@@@@@@@@@@@@@@@@@@@@@",
"@@@@@@@@@@@@@@@@@@@@@@@@@@@@@@@@@@@@@@@@@@@@@@@@@@@@@@@@@@@@@@@@",
"@@@@@@@@@@@@@@@@@@@@@@@@@@@@@@@@@@@@@@@@@@@@@@@@@@@@@@@@@@@@@@@@",
"@@@@@@@@@@@@@@@@@@@@@@@@@@@@@@@@@@@@@@@@@@@@@@@@@@@@@@@@@@@@@@@@",
"@@@@@@@@@@@@@@@@@@@@@@@@@@@@@@@@@@@@@@@@@@@@@@@@@@@@@@@@@@@@@@@@",
"@@@@@@@@@@@@@@@@@@@@@@@@@@@@@@@@@@@@@@@@@@@@@@@@@@@@@@@@@@@@@@@@",
"@@@@@@@@@@@@@@@@@@@@@@@@@@@@@@@@@@@@@@@@@@@@@@@@@@@@@@@@@@@@@@@@",
"@@@@@@@@@@@@@@@@@@@@@@@@@@@@@@@@@@@@@@@@@@@@@@@@@@@@@@@@@@@@@@@@",
"@@@@@@@@@@@@@@@@@@@@@@@@@@@@@@@@@@@@@@@@@@@@@@@@@@@@@@@@@@@@@@@@",
"@@@@@@@@@@@@@@@@@@@@@@@@@@@@@@@@@@@@@@@@@@@@@@@@@@@@@@@@@@@@@@@@",
"@@@@@@@@@@@@@@@@@@@@@@@@@@@@@@@@@@@@@@@@@@@@@@@@@@@@@@@@@@@@@@@@",
"@@@@@@@@@@@@@@@@@@@@@@@@@@@@@@@@@@@@@@@@@@@@@@@@@@@@@@@@@@@@@@@@",
"@@@@@@@@@@@@@@@@@@@@@@@@@@@@@@@@@@@@@@@@@@@@@@@@@@@@@@@@@@@@@@@@",
"@@@@@@@@@@@@@@@@@@@@@@@@@@@@@@@@@@@@@@@@@@@@@@@@@@@@@@@@@@@@@@@@",
"@@@@@@@@@@@@@@@@@@@@@@@@@@@@@@@@@@@@@@@@@@@@@@@@@@@@@@@@@@@@@@@@",
"@@@@@@@@@@@@@@@@@@@@@@@@@@@@@@@@@@@@@@@@@@@@@@@@@@@@@@@@@@@@@@@@",
"@@@@@@@@@@@@@@@@@@@@@@@@@@@@@@@@@@@@@@@@@@@@@@@@@@@@@@@@@@@@@@@@",
"@@@@@@@@@@@@@@@@@@@@@@@@@@@@@@@@@@@@@@@@@@@@@@@@@@@@@@@@@@@@@@@@",
"@@@@@@@@@@@@@@@@@@@@@@@@@@@@@@@@@@@@@@@@@@@@@@@@@@@@@@@@@@@@@@@@",
"@@@@@@@@@@@@@@@@@@@@@@@@@@@@@@@@@@@@@@@@@@@@@@@@@@@@@@@@@@@@@@@@",
"@@@@@@@@@@@@@@@@@@@@@@@@@@@@@@@@@@@@@@@@@@@@@@@@@@@@@@@@@@@@@@@@",
"@@@@@@@@@@@@@@@@@@@@@@@@@@@@@@@@@@@@@@@@@@@@@@@@@@@@@@@@@@@@@@@@",
"@@@@@@@@@@@@@@@@@@@@@@@@@@@o+X++X++Xo@@@@@@@@@@@@@@@@@@@@@@@@@@@",
"@@@@@@@@@@@@@@@@@@@@@@@X++X+oooooO++++X+o@@@@@@@@@@@@@@@@@@@@@@@",
"@@@@@@@@@@@@@@@@@@@@@o++ooooooooO++ooooo+Xo@@@@@@@@@@@@@@@@@@@@@",
"@@@@@@@@@@@@@@@@@@@oX+OooooooooO++oooooooo++X@@@@@@@@@@@@@@@@@@@",
"@@@@@@@@@@@@@@@@@X++ooooooooooO++ooooooooooo++o@@@@@@@@@@@@@@@@@",
"@@@@@@@@@@@@@@@@o+oooooooooooO++oooooooooooooo+X@@@@@@@@@@@@@@@@",
"@@@@@@@@@@@@@@@++oooooooooooO++ooooooooooooooO+++@@@@@@@@@@@@@@@",
"@@@@@@@@@@@@@oXooooooooooooO++ooooooooooooooO+++++X@@@@@@@@@@@@@",
"@@@@@@@@@@@@++ooooooooooooO++ooooooooooooooO++++++++@@@@@@@@@@@@",
"@@@@@@@@@@@X+ooooooooooooO++ooooooooooooooO+++++++++o@@@@@@@@@@@",
"@@@@@@@@@@@+ooooooooooooO++ooooooooooooooO+++++++++oX@@@@@@@@@@@",
"@@@@@@@@@@+oooooooooooOO++ooooooooooooooO+++++++++ooo+@@@@@@@@@@",
"@@@@@@@@@X+ooooooooooOO++ooooooooooooooO+++++++++oooo+o@@@@@@@@@",
"@@@@@@@@o+ooooooooooOO++ooooooooooooooO+++++++++oooooo+X@@@@@@@@",
"@@@@@@@@+ooooooooooOO++ooooooooooooooO+++++++++oooooooo+@@@@@@@@",
"@@@@@@@X+oooooooooOO++ooooooooooooooO+++++++++ooooooooo+o@@@@@@@",
"@@@@@@@+OoooooooooO++ooooooooooooooO+++++++++ooooooooooOX@@@@@@@",
"@@@@@@O+oooooooooO++ooooooooooooooO+++++++++ooooooooooOO+o@@@@@@",
"@@@@@@XOooooooooO++ooooooooooooooO+++++++++ooooooooooOO+O+@@@@@@",
"@@@@@o+ooooooooO++ooooooooooooooO+++++++++ooooooooooOO+Oo+X@@@@@",
"@@@@@++oooooooO++ooooooooooooooO+++++++++ooooooooooOO+Oooo+@@@@@",
"@@@@@XoooooooO++oooooooooooooXXX...O++++ooooooooooOO+Ooooo+@@@@@",
"@@@@@+ooooooO++ooooooooooooXX      ..O+ooooooooooOO+OoooooX@@@@@",
"@@@@o+oooooO++ooooooooooooX          .ooooooooooOO+Ooooooo+o@@@@",
"@@@@XoooooO++ooooooooooooo.          .oooooooooOO+Ooooooooo+@@@@",
"@@@@+ooooO++ooooooooooooo.    ....    .oooooooOO+OoooooooooX@@@@",
"@@@@+oooO++oooooooooooooo.   ......   .ooooooOO+Ooooooooooo+@@@@",
"@@@@XooO++ooooooooooooooo.   ..  ..   .oooooOO+Oooooooooooo+@@@@",
"@@@@@@@@@@@@@@@@@@@@@@@@@@@@@@@@@@@@@@@@@@@@@@@@@@@@@@@@@@@@@@@@",
"@@@@@@@@@@@@@@@@@@@@@@@@@@@@@@@@@@@@@@@@@@@@@@@@@@@@@@@@@@@@@@@@",
"@@@@@@@@@@@@@@@@@@@@@@@@@@@@@@@@@@@@@@@@@@@@@@@@@@@@@@@@@@@@@@@@",
"@@@@@@@@@@@@@@@@@@@@@@@@@@@@@@@@@@@@@@@@@@@@@@@@@@@@@@@@@@@@@@@@",
"@@@@@@@@@@@@@@@@@@@@@@@@@@@@@@@@@@@@@@@@@@@@@@@@@@@@@@@@@@@@@@@@",
"@@@@@@@@@@@@@@@@@@@@@@@@@@@@@@@@@@@@@@@@@@@@@@@@@@@@@@@@@@@@@@@@",
"@@@@@@@@@@@@@@@@@@@@@@@@@@@@@@@@@@@@@@@@@@@@@@@@@@@@@@@@@@@@@@@@",
"@@@@@@@@@@@@@@@@@@@@@@@@@@@@@@@@@@@@@@@@@@@@@@@@@@@@@@@@@@@@@@@@",
"@@@@@@@@@@@@@@@@@@@@@@@@@@@@@@@@@@@@@@@@@@@@@@@@@@@@@@@@@@@@@@@@",
"@@@@@@@@@@@@@@@@@@@@@@@@@@@@@@@@@@@@@@@@@@@@@@@@@@@@@@@@@@@@@@@@",
"@@@@@@@@@@@@@@@@@@@@@@@@@@@@@@@@@@@@@@@@@@@@@@@@@@@@@@@@@@@@@@@@",
"@@@@@@@@@@@@@@@@@@@@@@@@@@@@@@@@@@@@@@@@@@@@@@@@@@@@@@@@@@@@@@@@",
"@@@@@@@@@@@@@@@@@@@@@@@@@@@@@@@@@@@@@@@@@@@@@@@@@@@@@@@@@@@@@@@@",
"@@@@@@@@@@@@@@@@@@@@@@@@@@@@@@@@@@@@@@@@@@@@@@@@@@@@@@@@@@@@@@@@",
"@@@@@@@@@@@@@@@@@@@@@@@@@@@@@@@@@@@@@@@@@@@@@@@@@@@@@@@@@@@@@@@@",
"@@@@@@@@@@@@@@@@@@@@@@@@@@@@@@@@@@@@@@@@@@@@@@@@@@@@@@@@@@@@@@@@",
"@@@@@@@@@@@@@@@@@@@@@@@@@@@@@@@@@@@@@@@@@@@@@@@@@@@@@@@@@@@@@@@@",
"@@@@@@@@@@@@@@@@@@@@@@@@@@@@@@@@@@@@@@@@@@@@@@@@@@@@@@@@@@@@@@@@",
"@@@@@@@@@@@@@@@@@@@@@@@@@@@@@@@@@@@@@@@@@@@@@@@@@@@@@@@@@@@@@@@@",
"@@@@@@@@@@@@@@@@@@@@@@@@@@@@@@@@@@@@@@@@@@@@@@@@@@@@@@@@@@@@@@@@",
"@@@@@@@@@@@@@@@@@@@@@@@@@@@@@@@@@@@@@@@@@@@@@@@@@@@@@@@@@@@@@@@@",
"@@@@@@@@@@@@@@@@@@@@@@@@@@@@@@@@@@@@@@@@@@@@@@@@@@@@@@@@@@@@@@@@",
"@@@@@@@@@@@@@@@@@@@@@@@@@@@@@@@@@@@@@@@@@@@@@@@@@@@@@@@@@@@@@@@@",
"@@@@@@@@@@@@@@@@@@@@@@@@@@@@@@@@@@@@@@@@@@@@@@@@@@@@@@@@@@@@@@@@",
"@@@@@@@@@@@@@@@@@@@@@@@@@@@@@@@@@@@@@@@@@@@@@@@@@@@@@@@@@@@@@@@@",
"@@@@@@@@@@@@@@@@@@@@@@@@@@@@@@@@@@@@@@@@@@@@@@@@@@@@@@@@@@@@@@@@",
"@@@@@@@@@@@@@@@@@@@@@@@@@@@@@@@@@@@@@@@@@@@@@@@@@@@@@@@@@@@@@@@@",
"@@@@@@@@@@@@@@@@@@@@@@@@@@@@@@@@@@@@@@@@@@@@@@@@@@@@@@@@@@@@@@@@",
"@@@@@@@@@@@@@@@@@@@@@@@@@@@@@@@@@@@@@@@@@@@@@@@@@@@@@@@@@@@@@@@@",
"@@@@@@@@@@@@@@@@@@@@@@@@@@@@@@@@@@@@@@@@@@@@@@@@@@@@@@@@@@@@@@@@",
"@@@@@@@@@@@@@@@@@@@@@@@@@@@@@@@@@@@@@@@@@@@@@@@@@@@@@@@@@@@@@@@@",
"@@@@@@@@@@@@@@@@@@@@@@@@@@@@@@@@@@@@@@@@@@@@@@@@@@@@@@@@@@@@@@@@",
"@@@@@@@@@@@@@@@@@@@@@@@@@@@@@@@@@@@@@@@@@@@@@@@@@@@@@@@@@@@@@@@@",
"@@@@@@@@@@@@@@@@@@@@@@@@@@@@@@@@@@@@@@@@@@@@@@@@@@@@@@@@@@@@@@@@",
"@@@@@@@@@@@@@@@@@@@@@@@@@@@@@@@@@@@@@@@@@@@@@@@@@@@@@@@@@@@@@@@@",
"@@@@@@@@@@@@@@@@@@@@@@@@@@@@@@@@@@@@@@@@@@@@@@@@@@@@@@@@@@@@@@@@",
"@@@@@@@@@@@@@@@@@@@@@@@@@@@X++X++X++X@@@@@@@@@@@@@@@@@@@@@@@@@@@",
"@@@@@@@@@@@@@@@@@@@@@@@oX+++oooooO+++++Xo@@@@@@@@@@@@@@@@@@@@@@@",
"@@@@@@@@@@@@@@@@@@@@@X++ooooooooO++ooooo++X@@@@@@@@@@@@@@@@@@@@@",
"@@@@@@@@@@@@@@@@@@@o++OooooooooO++oooooooo++o@@@@@@@@@@@@@@@@@@@",
"@@@@@@@@@@@@@@@@@oX+ooooooooooO++ooooooooooo+Xo@@@@@@@@@@@@@@@@@",
"@@@@@@@@@@@@@@@@o+oooooooooooO++oooooooooooooo+o@@@@@@@@@@@@@@@@",
"@@@@@@@@@@@@@@@X+oooooooooooO++oooooooooooooo+++X@@@@@@@@@@@@@@@",
"@@@@@@@@@@@@@o+ooooooooooooO++oooooooooooooo++++++o@@@@@@@@@@@@@",
"@@@@@@@@@@@@X+ooooooooooooO++oooooooooooooo++++++++X@@@@@@@@@@@@",
"@@@@@@@@@@@o+oooooooooooOO++oooooooooooooo++++++++OOo@@@@@@@@@@@",
"@@@@@@@@@@@+oooooooooooOO++oooooooooooooo++++++++OOo+@@@@@@@@@@@",
"@@@@@@@@@@XoooooooooooOO++oooooooooooooo++++++++OOoooX@@@@@@@@@@",
"@@@@@@@@@o+ooooooooooOO++oooooooooooooo++++++++OOoooo+o@@@@@@@@@",
"@@@@@@@@o+ooooooooooOO++oooooooooooooo++++++++OOoooooo+o@@@@@@@@",
"@@@@@@@@XoooooooooooO++oooooooooooooo++++++++OOooooooooX@@@@@@@@",
"@@@@@@@o+ooooooooooO++oooooooooooooo++++++++OOooooooooo+o@@@@@@@",
"@@@@@@@+OoooooooooO++oooooooooooooo++++++++OOooooooooooO+@@@@@@@",
"@@@@@@X+oooooooooO++oooooooooooooo++++++++OOooooooooooOO+X@@@@@@",
"@@@@@@+OooooooooO++ooooooooooooooO+++++++OOooooooooooOO+O+@@@@@@",
"@@@@@o+ooooooooO++ooooooooooooooO+++++++OOooooooooooOO+Oo+o@@@@@",
"@@@@@X+oooooooO++ooooooooooooooO+++++++OOooooooooooOO+OoooX@@@@@",
"@@@@@+oooooooO++oooooooooooooXXX...O++OOooooooooooOO+Ooooo+@@@@@",
"@@@@@+ooooooO++ooooooooooooXX      ..OOooooooooooOO+Oooooo+@@@@@",
"@@@@X+oooooO++ooooooooooooX          .ooooooooooOO+Ooooooo+X@@@@",
"@@@@+oooooO++ooooooooooooo.          .oooooooooOO+Ooooooooo+@@@@",
"@@@@+ooooO++ooooooooooooo.    ....    .oooooooOO+Oooooooooo+@@@@",
"@@@@XoooO++oooooooooooooo.   ......   .ooooooOO+OooooooooooX@@@@",
"@@@@+ooO++ooooooooooooooo.   ..  ..   .oooooOO+Oooooooooooo+@@@@",
"@@@@@@@@@@@@@@@@@@@@@@@@@@@@@@@@@@@@@@@@@@@@@@@@@@@@@@@@@@@@@@@@",
"@@@@@@@@@@@@@@@@@@@@@@@@@@@@@@@@@@@@@@@@@@@@@@@@@@@@@@@@@@@@@@@@",
"@@@@@@@@@@@@@@@@@@@@@@@@@@@@@@@@@@@@@@@@@@@@@@@@@@@@@@@@@@@@@@@@",
"@@@@@@@@@@@@@@@@@@@@@@@@@@@@@@@@@@@@@@@@@@@@@@@@@@@@@@@@@@@@@@@@",
"@@@@@@@@@@@@@@@@@@@@@@@@@@@@@@@@@@@@@@@@@@@@@@@@@@@@@@@@@@@@@@@@",
"@@@@@@@@@@@@@@@@@@@@@@@@@@@@@@@@@@@@@@@@@@@@@@@@@@@@@@@@@@@@@@@@",
"@@@@@@@@@@@@@@@@@@@@@@@@@@@@@@@@@@@@@@@@@@@@@@@@@@@@@@@@@@@@@@@@",
"@@@@@@@@@@@@@@@@@@@@@@@@@@@@@@@@@@@@@@@@@@@@@@@@@@@@@@@@@@@@@@@@",
"@@@@@@@@@@@@@@@@@@@@@@@@@@@@@@@@@@@@@@@@@@@@@@@@@@@@@@@@@@@@@@@@",
"@@@@@@@@@@@@@@@@@@@@@@@@@@@@@@@@@@@@@@@@@@@@@@@@@@@@@@@@@@@@@@@@",
"@@@@@@@@@@@@@@@@@@@@@@@@@@@@@@@@@@@@@@@@@@@@@@@@@@@@@@@@@@@@@@@@",
"@@@@@@@@@@@@@@@@@@@@@@@@@@@@@@@@@@@@@@@@@@@@@@@@@@@@@@@@@@@@@@@@",
"@@@@@@@@@@@@@@@@@@@@@@@@@@@@@@@@@@@@@@@@@@@@@@@@@@@@@@@@@@@@@@@@",
"@@@@@@@@@@@@@@@@@@@@@@@@@@@@@@@@@@@@@@@@@@@@@@@@@@@@@@@@@@@@@@@@",
"@@@@@@@@@@@@@@@@@@@@@@@@@@@@@@@@@@@@@@@@@@@@@@@@@@@@@@@@@@@@@@@@",
"@@@@@@@@@@@@@@@@@@@@@@@@@@@@@@@@@@@@@@@@@@@@@@@@@@@@@@@@@@@@@@@@",
"@@@@@@@@@@@@@@@@@@@@@@@@@@@@@@@@@@@@@@@@@@@@@@@@@@@@@@@@@@@@@@@@",
"@@@@@@@@@@@@@@@@@@@@@@@@@@@@@@@@@@@@@@@@@@@@@@@@@@@@@@@@@@@@@@@@",
"@@@@@@@@@@@@@@@@@@@@@@@@@@@@@@@@@@@@@@@@@@@@@@@@@@@@@@@@@@@@@@@@",
"@@@@@@@@@@@@@@@@@@@@@@@@@@@@@@@@@@@@@@@@@@@@@@@@@@@@@@@@@@@@@@@@",
"@@@@@@@@@@@@@@@@@@@@@@@@@@@@@@@@@@@@@@@@@@@@@@@@@@@@@@@@@@@@@@@@",
"@@@@@@@@@@@@@@@@@@@@@@@@@@@@@@@@@@@@@@@@@@@@@@@@@@@@@@@@@@@@@@@@",
"@@@@@@@@@@@@@@@@@@@@@@@@@@@@@@@@@@@@@@@@@@@@@@@@@@@@@@@@@@@@@@@@",
"@@@@@@@@@@@@@@@@@@@@@@@@@@@@@@@@@@@@@@@@@@@@@@@@@@@@@@@@@@@@@@@@",
"@@@@@@@@@@@@@@@@@@@@@@@@@@@@@@@@@@@@@@@@@@@@@@@@@@@@@@@@@@@@@@@@",
"@@@@@@@@@@@@@@@@@@@@@@@@@@@@@@@@@@@@@@@@@@@@@@@@@@@@@@@@@@@@@@@@",
"@@@@@@@@@@@@@@@@@@@@@@@@@@@@@@@@@@@@@@@@@@@@@@@@@@@@@@@@@@@@@@@@",
"@@@@@@@@@@@@@@@@@@@@@@@@@@@@@@@@@@@@@@@@@@@@@@@@@@@@@@@@@@@@@@@@",
"@@@@@@@@@@@@@@@@@@@@@@@@@@@@@@@@@@@@@@@@@@@@@@@@@@@@@@@@@@@@@@@@",
"@@@@@@@@@@@@@@@@@@@@@@@@@@@@@@@@@@@@@@@@@@@@@@@@@@@@@@@@@@@@@@@@",
"@@@@@@@@@@@@@@@@@@@@@@@@@@@@@@@@@@@@@@@@@@@@@@@@@@@@@@@@@@@@@@@@",
"@@@@@@@@@@@@@@@@@@@@@@@@@@@@@@@@@@@@@@@@@@@@@@@@@@@@@@@@@@@@@@@@",
"@@@@@@@@@@@@@@@@@@@@@@@@@@@@@@@@@@@@@@@@@@@@@@@@@@@@@@@@@@@@@@@@",
"@@@@@@@@@@@@@@@@@@@@@@@@@@@@@@@@@@@@@@@@@@@@@@@@@@@@@@@@@@@@@@@@",
"@@@@@@@@@@@@@@@@@@@@@@@@@@@@@@@@@@@@@@@@@@@@@@@@@@@@@@@@@@@@@@@@",
"@@@@@@@@@@@@@@@@@@@@@@@@@@@@@@@@@@@@@@@@@@@@@@@@@@@@@@@@@@@@@@@@",
"@@@@@@@@@@@@@@@@@@@@@@@@@@@oX++X++X+o@@@@@@@@@@@@@@@@@@@@@@@@@@@",
"@@@@@@@@@@@@@@@@@@@@@@@o+X++oooooO+++X++X@@@@@@@@@@@@@@@@@@@@@@@",
"@@@@@@@@@@@@@@@@@@@@@oX+ooooooooO++ooooo++o@@@@@@@@@@@@@@@@@@@@@",
"@@@@@@@@@@@@@@@@@@@X++OooooooooO++oooooooo+Xo@@@@@@@@@@@@@@@@@@@",
"@@@@@@@@@@@@@@@@@o++ooooooooooO++ooooooooooo++X@@@@@@@@@@@@@@@@@",
"@@@@@@@@@@@@@@@@X+oooooooooooO++oooooooooooooo+o@@@@@@@@@@@@@@@@",
"@@@@@@@@@@@@@@@++oooooooooooO++oooooooooooooo++++@@@@@@@@@@@@@@@",
"@@@@@@@@@@@@@X+ooooooooooooO++oooooooooooooo+++++Xo@@@@@@@@@@@@@",
"@@@@@@@@@@@@++ooooooooooooO++oooooooooooooo+++++++++@@@@@@@@@@@@",
"@@@@@@@@@@@o+ooooooooooooO++oooooooooooooo++++++++OOX@@@@@@@@@@@",
"@@@@@@@@@@@XooooooooooooO++oooooooooooooo++++++++OOo+@@@@@@@@@@@",
"@@@@@@@@@@+oooooooooooOO++oooooooooooooo++++++++OOooo+@@@@@@@@@@",
"@@@@@@@@@o+ooooooooooOO++oooooooooooooo++++++++OOoooo+X@@@@@@@@@",
"@@@@@@@@X+ooooooooooOO++oooooooooooooo++++++++OOoooooo+o@@@@@@@@",
"@@@@@@@@+ooooooooooOO++oooooooooooooo++++++++OOoooooooo+@@@@@@@@",
"@@@@@@@o+oooooooooOO++oooooooooooooo++++++++OOooooooooo+X@@@@@@@",
"@@@@@@@XOoooooooooO++oooooooooooooo++++++++OOooooooooooO+@@@@@@@",
"@@@@@@O+oooooooooO++oooooooooooooo++++++++OOooooooooooOO+o@@@@@@",
"@@@@@@+OooooooooO++oooooooooooooo++++++++OOooooooooooOO+OX@@@@@@",
"@@@@@X+ooooooooO++oooooooooooooo++++++++OOooooooooooOO+Oo+o@@@@@",
"@@@@@++oooooooO++oooooooooooooo++++++++OOooooooooooOO+Oooo+@@@@@",
"@@@@@+oooooooO++oooooooooooooXXX...O++OOooooooooooOO+OooooX@@@@@",
"@@@@@XooooooO++ooooooooooooXX      ..OOooooooooooOO+Oooooo+@@@@@",
"@@@@o+oooooO++ooooooooooooX          .ooooooooooOO+Ooooooo+o@@@@",
"@@@@+oooooO++ooooooooooooo.          .oooooooooOO+OooooooooX@@@@",
"@@@@XooooO++ooooooooooooo.    ....    .oooooooOO+Oooooooooo+@@@@",
"@@@@+oooO++oooooooooooooo.   ......   .ooooooOO+Ooooooooooo+@@@@",
"@@@@+ooO++ooooooooooooooo.   ..  ..   .oooooOO+OoooooooooooX@@@@"
};
