/* XPM */
static const char *stripped_cherry_log_top[] = {
/* columns rows colors chars-per-pixel */
"64 64 8 1 ",
"  c #C97D79",
". c #CD8580",
"X c #D2898D",
"o c #DD9D97",
"O c #E1A8A1",
"+ c #E6B5AD",
"@ c #E7BEB4",
"# c #E7C7BB",
/* pixels */
"......  ..............XX.......    ...........    ....XXXX....XX",
"....  .     ....  .....XX...          ......    ....XXXX....XXXX",
".   ......      ..XXXXX.    ... ..   .. ..    ..  ......XXXXXXXX",
"..   ...  ..   ....XX.....    ..       ....    ... ...XXXXXXXXXX",
".  .######@@@#####@+++@@##@@@@+O++@@++++++++@@@+@@@@##@@@##@XXXX",
". ..#@@+++++++++++++++++++++++OOO+++++++OOOO+++++++@@+++++@#.XXX",
"  ..#@+@@+++OOOO+++@@@+OO++@@+@++++++OO++++@@++++@@++++++@+#..XX",
"  ..#@@++OO+++OOOO+++OOO++++++++++OOOO++++++++++++OOOOOO+@+#..X.",
". ..#+@+......ooooooooOOOOOOoooOOooooOOOOOOOOooOoo......+++#.X..",
" ..X#++O...ooooooooOOOOOOOOOOOOOOOOOOOOOOOOOOOOOOooo....+++#.X..",
" .XX@++O..#########@##@@@########@+@@@+@++@@##########..O++#....",
"..X.++@O..#@@@@++++++++++++++++++++++++++++++++@@++@@#..O++#....",
".X..@+++.o#@@+++++++OOOO++++OO++++++++++++++++++++@@@#..+++@.. .",
".X.X@+@+.o#@+O++OO++++OOOO+++++OOOO++++++++++OOOO+++@#o.+O+@.. .",
".XXX@O@+.o#+++++++++++++@@@@+++++@@@@@+@@++++++OOOO++@o.OO++..  ",
"XXXX@O++.o#+++O+++++++++++++++++++++++++OO++++OO++OO+@o.OO++.. .",
"X.XX+O+Ooo#@+OO+o.oooOOOOOOooOOOOOOOOooOooooooooO++O++o.O+++. ..",
"X..X+++OOo@@+O++.ooOOOOOOOOOOOOOOOOOOOOOOOOOooooO+++++o.O@++. ..",
"X.X.@+++Oo@@+O++.o+@########@@@@@@@@++++++@@+Ooo+++++@o.+@+@X...",
"..X.@+++OO@++O@+.o@@@+++++++++++++++++OO++++@+oo+++O+@o.+@+@X.X.",
".XXX++@+OO++++@+.o@@+OO++++OOO+++++++++OO+++++OoO++O+@o.+++@XXX.",
"X.XX++@+Oo@++@++.o@+O+++++++++++OOO+OO+++++++@OoO++++@o.+++@XX..",
"XX.X@+@Ooo@O+@++oo#+O@OOOOOOoooooooooo....+++@OoO++++@oo+++@.X..",
"XX..#+@+oo+O+@++oo@++@OOOOOOOOOOOooooooo..+++@OoO++++@ooO++@....",
"X.X.#++Ooo@++++O.o#++@OO+@@+@@@@++++++++o.+++@Oo+++O++o.O+++...X",
"..X.#@+Ooo@++@+O.o#+++OO++++++++++OO+OO+oo+O+@Oo+++O++o.O+++X..X",
".. .@@++oo#++@++oo@+++OO++OOOOooooo...O+o.+OO+Oo++@+++oo+++O.X.X",
".. .@+++oO#++@++oo@+@+OO++OOOOOOOOoo..++O.+OO+Oo++@O++o.++@O.XXX",
". ..+++Ooo#+@@++oo@+@+OO++OO+++++@@+o.+@Oo++O+OO++@++@oo++@O..XX",
". ..+O+OoO#+@@++oo@+++oO++OO+++++++@o.+@Oo++O+OO+@@++@Oo+O@O..X.",
". ..@O+OoO#+@@++oo++++OO++OO++OOoO+@o.+@OO++O+Oo+@@+++OO+O++.XX.",
"  ..@O+OOO#++@+Ooo++++oO++OO++oOOo+@o.+@OO++++Oo+@@+++OO+O++.XX.",
"   .@+@OOO#++@+Ooo@++OoO@+OO@+oOoo++oo++OO+++@OO+@+O+@Oo+++OXX..",
"    @++OOO@+O++Ooo@++OoO++oO@+OooO++o.++Oo++O@OO+++O+@OoO++O.X..",
"  . @+@OOO++O++Ooo@+++oO@+oO@+++++++o.+@Oo++O+Oo++@O+#OoO+++X...",
"  . @+@+OO++O+++oo@+++oO@+oo+@@@@+@+oo+@OO++O+OO++@++#O.O+O+X...",
" .. @+@+OO@+O+++oo++++oo++oooooooooooo++Oo++++Oo+++++#o.OOO+.. .",
" ...@+++OO@+++++oO@+++.o++oooooo..oooo++OoO+++Oo+++++#..OOO+..  ",
" . .++O+OO@+O+++oO@+++.O++++++++++++++++OoO++@Oo+++++@..O+O+... ",
"   .++O+OO@+O@++oo@+++oO+++++++OOOOO+O++o.+++@Oo++@++@..+@O+... ",
"  ..++OOOO@++@++oO@+++OOOOOOooooooooooooo.O++@+O++@O++..O@++ .  ",
"  ..++OOOO@++@++oO@+++OooOoooo..oooo.....oO++@+O++@O++o.O@++ .  ",
" ..X++OOOo++@@++oO++O++++++OOO+OOO+++++OOO+++@+++++O++o.+@+@.   ",
".X.X+++OOo++@+++oO@++OO++OOOO+++++++++OOO++++@+O+++O++o.+++@.  .",
"..XX++++oo@+@++OoO@++++++++++++++++++++++++++@OO+++O+@o.O+++.. .",
"..XX+O++oo@++@+OoO+@++@@++++++@@++@@@@@@@@@@@@OO++@O+@ooO++@.. .",
". .X+O++oO@+++++ooOOoooooooooooooOOOOOOOOOOOOOOO++@++#oo+++@. ..",
".  X+O@+OO@+O+@+ooooo...oo........ooooOOooOoOOOO+@@++#oo+++#. ..",
"   .++@+OO#+OO@+++++OOOO++++++++++OO+++++++++++++@+O+@ooO++#....",
". ..++@+OO#+OO++++++++@@@++++@@@@+++++++++@++@@@++OO+@ooO+@#... ",
". ..+++OOO#++OO+OOO+@@@+OOO+@@@+++@@@++++++@@@++++OO+@ooO+@@.. .",
" ...+O+OOO#+++++++++++OOO+++++OOOOO++++OO+++++OO+OO++@ooO+@#.  .",
" . .@O++OO#@+++++++++++++++++++++++++++++++++++++++++@ooO++@..  ",
".. .@O+OOo#####@++@@@@##########@@@@@@@@##@@######@@@@o.+++@..  ",
"..  @++OooOOOOOOOOOOOOOOOOOOOOOOOOOOoooooooooooooooooo..+++# .. ",
"..  @+++OooooOOOOOooOOOOoOooooOOoooooo..................+O+# ...",
". . @+OO+OOO++OO++++++++++OO++OOOO++++O+OOOOOOOO++OOOO+++O+#  ..",
". . @++OO++@@++OOOO++@++@@+++++++OOO+@@@@@+++++@@@+++++OO+@#  . ",
"  ..@@++++++++++++++++OOO++@@@+++++++++++++++OOO++++++++@@@#.  .",
"   .@@@@@@@@++@@+@@@@@@@++++@#########@@@@+@@@++@@##########.  .",
"        .......    ..XX.....XXXXXX....   .......    .... .... ..",
"      .......    .XXXXXXXX.XXX.  ...        ......    ...   ....",
"          ......XXXX...XX.... ..   .....   ..   .    .....    ..",
"             ....XXXX.........    ..  ....    ......   ..  ....."
};
