/* XPM */
static const char *stripped_crimson_stem_top[] = {
/* columns rows colors chars-per-pixel */
"64 64 9 1 ",
"  c #4B2737",
". c #5C3042",
"X c #6A344B",
"o c #7E3A56",
"O c #803853",
"+ c #863E5A",
"@ c #89395B",
"# c #943F61",
"$ c #924160",
/* pixels */
"OOOO#@@##@@oooo@ooo@oooooooOOOO###@@o@@ooo@@@@oooo@@@@@##oOo@@@@",
"OOO@@###@@@@Oooo@@@##@@oooOOO###@@@ooo@@@oo@##@oo@oo@@#@@ooOo@@@",
"O@@@###@@#@OOoOOo@@@###@OOooOO###oo@@#######@@oo@@@@oo@@#@oOo@oo",
"OO@@@@###@@@OOo@@#####@@ooOOO#@@@@###@@###@@@@@@@@@oo@@###@OOo@o",
"OO@#$$$$$$+++$$$$$+ooo++$$++++oXoo++oooooooo+++o++++$$+++$$+Oo@o",
"O#@#$++oooooooooooooooooooooooXXXoooooooXXXXooooooo++ooooo+$OoOo",
"O@##$+o++oooXXXXooo+++oXXoo++o+ooooooXXoooo++oooo++oooooo+o$oOOo",
"#@##$++ooXXoooXXXXoooXXXooooooooooXXXXooooooooooooXXXXXXo+o$oOoo",
"####$o+o      ..      ..X..XXX..XX......XX....XX.X......ooo$@oo@",
"####$ooX   ..........XXXXXXXXXXXXXXXXXXXXXXXXXXXXXXX....ooo$@o@@",
"O#O#+ooX  $$$$$$$$$+$$+++$$$$$$$$+o+++o+oo++$$$$$$$$$$..Xoo$#@#@",
"OOO#oo+X  $++++oooooooooooooooooooooooooooooooo++oo++$..Xoo$####",
"OOOO+ooo .$++oooooooXXXXooooXXoooooooooooooooooooo+++$..ooo+#OO#",
"OOOO+o+o .$+oXooXXooooXXXXoooooXXXXooooooooooXXXXooo+$X.oXo+##OO",
"OOO#+X+o .$ooooooooooooo++++ooooo+++++o++ooooooXXXXoo+X.XXooO#OO",
"O#O#+Xoo .$oooXoooooooooooooooooooooooooXXooooXXooXXo+X.XXooOO#O",
"O###oXoX..$+oXXo. ....X.....XX..XXXXX..X........XooXooX.XoooOO#O",
"#O##oooX..++oXoo ..XXXXXXXXXXXXXXXXXXXXXXXXX....XoooooX.X+oo#O##",
"#O##+ooo .++oXoo .o+$$$$$$$$++++++++oooooo++oX..ooooo+X.o+o+#OO#",
"####+ooo .+ooX+o .+++oooooooooooooooooXXoooo+o..oooXo+X.o+o+#O##",
"##@#oo+o .oooo+o .++oXXooooXXXoooooooooXXoooooX.XooXo+X.ooo+###@",
"@#@@oo+o .+oo+oo .+oXoooooooooooXXXoXXooooooo+X.Xoooo+X.ooo+##@o",
"@@#@+o+X .+Xo+oo..$oX+XXXXXX..XX.. .  ..XXooo+X.Xoooo+XXooo+@#oo",
"@O##$o+o .oXo+oo..+oo+XXXXXXXXXXXX.......Xooo+X.Xoooo+XXXoo+@#o@",
"#O#O$ooX .+ooooX .$oo+XXo++o++++ooooooooX.ooo+X.oooXooX.Xooo#@@o",
"##OO$+oX .+oo+oX .$oooXXooooooooooXXoXXoX.oXo+X.oooXooX.Xooo##@o",
"O#O+++oo..$oo+oo .+oooXXoo....XXXX....XoXXoXXoX.oo+oooXXoooX##@@",
"OOO++ooo.X$oo+oo .+o+oXXoo.XXXXXXXXX..ooX.oXXoX.oo+XooX.oo+X+##@",
"OO++oooX..$o++oo .+o+oXXooXXooooo++oX.o+XXooXoXXoo+oo+XXoo+X++#@",
"OO++oXoX.X$o++oo .+ooo.XooXXooooooo+X.o+XXooXoXXo++oo+XXoX+X+#@@",
"OO+++XoX.X$o++oo..ooooXXoo.XooX.XXo+X.o+XXooXoX.o++oooXXoXoo@#@#",
"+O+++XoXXX$oo+oX..oooo.Xoo.Xoo.XX.o+X.o+XXooooX.o++oooXXoXoo@@##",
"++O++o+XXX$oo+oX .+ooX.X+o.X+o..X.ooXXooXXooo+XXo+oXo+X.oooX@##O",
"++O++ooXXX+oXooX..+ooX.Xoo.X+oX..XooXXooX.ooX+XXoooXo+X.XooX@O#O",
"O+OO+o+X.XooXooX..+ooo.X+oXX+oooooooXXo+X.ooXoX.oo+Xo$X.Xooo#@OO",
"O++O+o+o.XooXooo..+ooo.X+oXXo++++o+oXXo+XXooXoXXoo+oo$X.XoXoO#O#",
"OO##+o+o X+oXooo..oooo.XooXXXXXXXXXXXXooX.ooooX.ooooo$X.XXXoO##@",
"@O#@+ooo .+ooooo.X+ooo.XooXXXXXX...XXXooX.XoooX.ooooo$X.XXXo#O#@",
"@O#@ooXo .+oXooo.X+oooXXooooooooooooooooX.Xoo+X.ooooo+X.XoXo##@#",
"@@@#ooXo .+oX+oo..+oooXXoooooooXXXXXoXoo. ooo+X.oo+oo+X.o+Xo@#@#",
"@@@#ooXX .+oo+oo.X+oooXXXXXX............. Xoo+oXoo+XooX X+oo@@@o",
"@@##ooXX .+oo+oo.X+oooX..X....  ....     .Xoo+oXoo+Xoo. X+oo#@oo",
"@###ooXX..oo++oo.XooXooooooXXXoXXXoooooXXXooo+oooooXoo. o+o+#@@o",
"@#O#oooX.Xoo+ooo.X+ooXXooXXXXoooooooooXXXoooo+oXoooXoo. ooo+@#@o",
"#OO#oooo.X+o+ooX.X+oooooooooooooooooooooooooo+XXoooXo+  Xooo@#o@",
"#O#OoXoo.X+oo+oX.Xo+oo++oooooo++oo++++++++++++XXoo+Xo+  Xoo+#oo@",
"OO##oXooXX+ooooo..XX.............XXXXXXXXXXXXXXXoo+oo$  ooo+#o@o",
"O#+#oX+oXX+oXo+o.....   ..        ....XX..X.XXXXo++oo$. ooo$##@@",
"##++oo+oXX$oXX+oooooXXXXooooooooooXXooooooooooooo+oXo+X.Xoo$##@O",
"#@O+oo+oXX$oXXoooooooo+++oooo++++ooooooooo+oo+++ooXXo+X.Xo+$#@@O",
"#@#OoooX.X$ooXXoXXXo+++oXXXo+++ooo+++oooooo+++ooooXXo+XXXo++@O@O",
"@##OoXoX.X$oooooooooooXXXoooooXXXXXooooXXoooooXXoXXoo+XXXo+$@@OO",
"@#O#+Xoo.X$+ooooooooooooooooooooooooooooooooooooooooo+X.Xoo+@#Oo",
"#O#@+XoX..$$$$$+oo++++$$$$$$$$$$++++++++$$++$$$$$$++++X.ooo+@#oo",
"OO@@+ooX....XXXXXXXXXXXXXXXXXXXXXXXX............XXXXX...ooo$##oO",
"#O#@+ooo........XX..XXXX.X....XX......      ..   .......oXo$##oO",
"#O##+oXXoXXXooXXooooooooooXXooXXXXooooXoXXXXXXXXooXXXXoooXo$@##o",
"O###+ooXXoo++ooXXXXoo+oo++oooooooXXXo+++++ooooo+++oooooXXo+$@@##",
"O###++ooooooooooooooooXXXoo+++oooooooooooooooXXXoooooooo+++$#@##",
"O###++++++++oo++o+++++++oooo+$$$$$$$$$++++o+++oo++$$$$$$$$$$#@##",
"#######@@@######@@@@@@@@##@@##@@##@@@##@@####@@@@@@@@@@####@@###",
"O####@@@######@@##@@@oo####@@@@@@###@@@O#@@#OO##@@@@@####@@###O#",
"O#OO##@@@####@@OO###@@oo@@##oooO@@@@OOOO@@OO@@@ooo@##@@#@@OOO##O",
"OOOOOOOO##@@OOO####OO#@@@oooo@@@OOO@@@OOO@@OO@o@@ooo@@@OOO##OOOO"
};
