/* XPM */
static const char *stripped_pale_oak_log_top[] = {
/* columns rows colors chars-per-pixel */
"64 64 8 1 ",
"  c #C7B8B8",
". c #D2C6C7",
"X c #DDCECD",
"o c #E7E3E1",
"O c #F0E7E5",
"+ c #FAEFEE",
"@ c #F8F0F0",
"# c #FFFBF8",
/* pixels */
"##########@@OOOO@@OOOOOOOO@@@@@@@@@@@@@@##@@@###@@@@@@@@@@@#####",
"############@@@@@@@@@@@OOOOO@@@@@@@@@####@@####@@@@@@##@@#######",
"########@@@@@@@@@@@@OOOOOOO@@@@@@@@@@@@############@@@@@@@@#####",
"#####@@@@@@@@@@@@@@@@@OO@@OOOO@@@@@@@@@@@@#######@@@@@@@@@######",
"##########+++#####+ooo++##++++oXoo++oooooooo+++o++++##+++##+####",
"###@#++oooooooooooooooooooooooXXXoooooooXXXXooooooo++ooooo+##@#@",
"###@#+o++oooXXXXooo+++oXXoo++o+ooooooXXoooo++oooo++oooooo+o#@@#@",
"###@#++ooXXoooXXXXoooXXXooooooooooXXXXooooooooooooXXXXXXo+o#@@@@",
"##@@#o+o      ..      ..X..XXX..XX......XX....XX.X......ooo#@@@@",
"##@@#ooX   ..........XXXXXXXXXXXXXXXXXXXXXXXXXXXXXXX....ooo#@@#@",
"@#@@+ooX  #########+##+++########+o+++o+oo++##########..Xoo#@@#@",
"@#@@oo+X  #++++oooooooooooooooooooooooooooooooo++oo++#..Xoo#@@@@",
"O@@@+ooo .#++oooooooXXXXooooXXoooooooooooooooooooo+++#..ooo+@@@@",
"O@@@+o+o .#+oXooXXooooXXXXoooooXXXXooooooooooXXXXooo+#X.oXo+@#@@",
"O@@@+X+o .#ooooooooooooo++++ooooo+++++o++ooooooXXXXoo+X.XXoo@#@@",
"O@@@+Xoo .#oooXoooooooooooooooooooooooooXXooooXXooXXo+X.XXoo##@@",
"@@@@oXoX..#+oXXo. ....X.....XX..XXXXX..X........XooXooX.Xooo##@#",
"@@@@oooX..++oXoo ..XXXXXXXXXXXXXXXXXXXXXXXXX....XoooooX.X+oo####",
"O@@@+ooo .++oXoo .o+########++++++++oooooo++oX..ooooo+X.o+o+####",
"O@@@+ooo .+ooX+o .+++oooooooooooooooooXXoooo+o..oooXo+X.o+o+###@",
"O@O@oo+o .oooo+o .++oXXooooXXXoooooooooXXoooooX.XooXo+X.ooo+###@",
"O@O@oo+o .+oo+oo .+oXoooooooooooXXXoXXooooooo+X.Xoooo+X.ooo+##@@",
"O@OO+o+X .+Xo+oo..#oX+XXXXXX..XX.. .  ..XXooo+X.Xoooo+XXooo+@#@#",
"OOOO#o+o .oXo+oo..+oo+XXXXXXXXXXXX.......Xooo+X.Xoooo+XXXoo+@###",
"OOO@#ooX .+ooooX .#oo+XXo++o++++ooooooooX.ooo+X.oooXooX.Xooo@##@",
"OOO@#+oX .+oo+oX .#oooXXooooooooooXXoXXoX.oXo+X.oooXooX.Xooo@@#@",
"@OOO++oo..#oo+oo .+oooXXoo....XXXX....XoXXoXXoX.oo+oooXXoooX@@#@",
"@O@O+ooo.X#oo+oo .+o+oXXoo.XXXXXXXXX..ooX.oXXoX.oo+XooX.oo+X@@@@",
"@@@OoooX..#o++oo .+o+oXXooXXooooo++oX.o+XXooXoXXoo+oo+XXoo+X@@@@",
"@@@OoXoX.X#o++oo .+ooo.XooXXooooooo+X.o+XXooXoXXo++oo+XXoX+X@@@@",
"@@@@+XoX.X#o++oo..ooooXXoo.XooX.XXo+X.o+XXooXoX.o++oooXXoXoo@@@@",
"@@@@+XoXXX#oo+oX..oooo.Xoo.Xoo.XX.o+X.o+XXooooX.o++oooXXoXoo@@@@",
"@@@@+o+XXX#oo+oX .+ooX.X+o.X+o..X.ooXXooXXooo+XXo+oXo+X.oooX@@@@",
"@@@@+ooXXX+oXooX..+ooX.Xoo.X+oX..XooXXooX.ooX+XXoooXo+X.XooX@@@@",
"@@@@+o+X.XooXooX..+ooo.X+oXX+oooooooXXo+X.ooXoX.oo+Xo#X.XoooO@@@",
"@@@@+o+o.XooXooo..+ooo.X+oXXo++++o+oXXo+XXooXoXXoo+oo#X.XoXoO@@@",
"@@@@+o+o X+oXooo..oooo.XooXXXXXXXXXXXXooX.ooooX.ooooo#X.XXXoO@O@",
"@#@@+ooo .+ooooo.X+ooo.XooXXXXXX...XXXooX.XoooX.ooooo#X.XXXoOOO@",
"@#@@ooXo .+oXooo.X+oooXXooooooooooooooooX.Xoo+X.ooooo+X.XoXo@OOO",
"@##@ooXo .+oX+oo..+oooXXoooooooXXXXXoXoo. ooo+X.oo+oo+X.o+Xo@OOO",
"###@ooXX .+oo+oo.X+oooXXXXXX............. Xoo+oXoo+XooX X+ooOOOO",
"#@#@ooXX .+oo+oo.X+oooX..X....  ....     .Xoo+oXoo+Xoo. X+ooOO@O",
"@@##ooXX..oo++oo.XooXooooooXXXoXXXoooooXXXooo+oooooXoo. o+o+@O@O",
"@###oooX.Xoo+ooo.X+ooXXooXXXXoooooooooXXXoooo+oXoooXoo. ooo+@O@O",
"@###oooo.X+o+ooX.X+oooooooooooooooooooooooooo+XXoooXo+  Xooo@@@O",
"####oXoo.X+oo+oX.Xo+oo++oooooo++oo++++++++++++XXoo+Xo+  Xoo+@@@O",
"####oXooXX+ooooo..XX.............XXXXXXXXXXXXXXXoo+oo#  ooo+@@@@",
"#@##oX+oXX+oXo+o.....   ..        ....XX..X.XXXXo++oo#. ooo#@@@@",
"@@##oo+oXX#oXX+oooooXXXXooooooooooXXooooooooooooo+oXo+X.Xoo#@@@O",
"@@#@oo+oXX#oXXoooooooo+++oooo++++ooooooooo+oo+++ooXXo+X.Xo+#@@@O",
"@@#@oooX.X#ooXXoXXXo+++oXXXo+++ooo+++oooooo+++ooooXXo+XXXo++@@@O",
"@@@@oXoX.X#oooooooooooXXXoooooXXXXXooooXXoooooXXoXXoo+XXXo+#@@@O",
"@@@@+Xoo.X#+ooooooooooooooooooooooooooooooooooooooooo+X.Xoo+@@#@",
"@#@@+XoX..#####+oo++++##########++++++++##++######++++X.ooo+@@#@",
"@#@@+ooX....XXXXXXXXXXXXXXXXXXXXXXXX............XXXXX...ooo#@@##",
"@@@@+ooo........XX..XXXX.X....XX......      ..   .......oXo#@@##",
"@@@@+oXXoXXXooXXooooooooooXXooXXXXooooXoXXXXXXXXooXXXXoooXo#@###",
"@#@@+ooXXoo++ooXXXXoo+oo++oooooooXXXo+++++ooooo+++oooooXXo+#@###",
"@#@#++ooooooooooooooooXXXoo+++oooooooooooooooXXXoooooooo+++#@###",
"####++++++++oo++o+++++++oooo+#########++++o+++oo++##############",
"######@@@@@@@@@#######@@@@@@@@@@@@OOOO@@OO@@@@@@@@@@@@@@@@@#####",
"#####@@@@@@@@############@@@@@@@@@@@@OOOOOOO@@@@@@@@@@@@########",
"#######@@##@@@@@@####@@####@@@@@@@@@OOOOO@@@@@@@@@@@############",
"#####@@@@@@@@@@@###@@@##@@@@@@@@@@@@@@OOOOOOOO@@OOOO@@##########"
};
