/* XPM */
static const char *stripped_birch_log[] = {
/* columns rows colors chars-per-pixel */
"64 64 6 1 ",
"  c #B19860",
". c #BAA269",
"X c #C4AC72",
"o c #CBB57A",
"O c #CEBC80",
"+ c #D1C084",
/* pixels */
" ...XooXooXooOOOooOoooXoOoOOOOOO+OOOOOOoXXoOOOooooXXX. .  . ....",
"  ..XoXXooXooOOOooooooXoooOO+OOO+OOOOOOoXXoOOOooooXoX...  ......",
"  ..XX.XoooooOOOooooXoXXooO+++O++OOOOOOXXXoOoOoOooooX..X. .X....",
". ...X..ooooOOoOoooXXoXXoOO+O+O++OOOOOoXoXoOoOOOooooXX.X. .X....",
". . .X..XoXoOOoooXoXXoXXOO++O+++OOOOOOoXooOooOOOooOooXoX...X... ",
".   XXX.XoXXoOoooXoXooXXOO++OO++OOOOOOXXooOooOOOooOXoXoo..XX..  ",
"..  X.X.XXoXooooXXoXoXoXOO++OO++O+OOoOXXooOoOOOOoOoXXoooX.oX.X  ",
" . .X...XXooooooXXoooXoXOO++OO++++OOoooXooOOOOOOOOooXoXoX.oXXX  ",
" ...XX...XooooXoXXooXXooOOO++O+++++OooOoooOOOOOOOoooooXXXXooXX  ",
".....X.X.XooXoXXXXooXXOoOOO++O+++++OOoOooOoOOOOOOoooooXXXXooX.  ",
". .X.XXX..ooXo.XXoooXoOOOOOO+O+O+++OOoOOoOoOOOOOOOooOooXXXXoX.. ",
"  .XXXXX..XoXX..XoooXooOOOOO+++O++++OOOOoOOOOOOOOoOoOooXoXXoX.. ",
"  XXXo...XXoX...XoooOooOOOOO++O++O++OOoOOOoOOOOOOoOOOooooXoX.X..",
"  .XXoX..X.XX...ooXoOoooOOOO+++++O++OOoOOOooOOOOOooOOOooX.XX.X..",
" ..XooX.XX....X.ooXooOooOOOO+O++OO+OOOOOOOooOOOOoooOOOoo..XX....",
" .XXooXXXXX...XXooXoOOoOOOOOOO++OOOOOOOoOooooOOOooOOOOoO...X....",
"..X.oXXXXoXX..XXoXooOoOOOoOOO+++O+OoOOOoOoOooOoOooOOOOOOX.......",
"..X.oXXXooXX..XXXXooOoOOOoOOO+++++OooOOoOOOooOooooOOOOOOX.X... .",
"....XXoXoOoXX.XXXXXoOOOOOoOOOO+++OOXoOOooOOooooooOOOOOOOoXX...  ",
"....XXoXoOoXX.XXXoXooOOOooOOoO+++OoXOOOOoOOOoooooOOOOoOOoX.X... ",
".. ..XXXOOoX.XXXooXXoOOOoXOOooO++OoXOOOOoOoOoooooOoOOoOOXXXX. . ",
".. ..XXXOOoX.XXXooXXOOOOoXoOooO+OOXXOOOOOOoOooooOooOOoOoX.XX.   ",
". ...XXoOoooXXoXoooXOOOOXXooooOOOoXoOOOOOOOoooXoOoOoOOoo..X...  ",
"  . ..XoOooXXXoXOooXOOOOXXooOoOOOoXoOOOOOoOoooXoOOOoOOoX..X...  ",
"    ..ooooXXXXXXOoOoOOOoXoXoOOOOoXooOOOOOoooOoXXOOooOooXX. ... .",
"X  ...oooOXoXXXXOOOXOOOoXoXoOOOOooOoOOOOOooOOoXXoOooooo.X. . ...",
"X  .X.XooOooX.XoOOOXOOoXooXXoOOOooOOOOOOoOoOOOoXooooooX.X.   ...",
". ..X.XXooooX.XoOOOoOOXXooXXooOOOoOOOOOOoOOOOOoXooooOoXXXX   ...",
".X..XXoXoooX..oOOOOOOOXooooXooOOOOOOOOOOooOOOOooXoOoOOXXXX.   ..",
".X..XXoXoooX. oOOOOOOOXooooXOoOOOOoOOOOOooOo+OooXoOOOOoX.X. . ..",
"XoX.XXoooooX  ooOOOOOoXOoooXOoOoOOoOOOOOoXoo+OOooOOOOOoX..... ..",
"XoXXXXooooXX .ooOOOOOooOOoooOoooOOOOOOOOoXooO+OoOOO+OOoX..... ..",
"XoXXoXoXooX. XoXOOOOooOOOoXoOOooOOOOOOOooXoOO+OOOO++OOoo...X ...",
"XooXoXoXooX. XoXOOOOooO+OoXoOOoOOOOOOOOoXXOOO++O++++OOOoX..X ...",
"XXoXoooXoXX..XXXO+OOoO++OOXoOOOOOOOOOOooXXOOOO+++++OOOOOX.XX....",
"XXoXoooXXX..XXXoO++OOO++OOooOOOOOOOOoOoOXXOOoO+++++O+OOOX.X... .",
"XXXXXoooXX..XXXOOO+O++++OOooOOOOOOOOoOoOXoOOooO+++OO++OoXXX...  ",
"XX.XXoooXX.XXXoOOOOO++O+OOooOOOOoOOOoOOOXOOOXoO+++OO++OoXX.X.   ",
".X.XXoXoXXXXoXoOO+OO++OOOOOoOOOOooOOooOOoOOooXo+++O+++OXXX.X. . ",
".XXXXXXoXXXXoXOOO+OO+++OOOOoOOOOooOOOoOOoOOooXoO++++++o.X..X... ",
"..XXXXooXXoXXXOO++O++++OOOOooOOOOoOoOoOOOOOXo.oo+++++OX.. .... .",
"..XX.XoX.XooXXOO++O++++O+OOooOOOOoooOOoOOOOXX.oo+++O+OXX.  .....",
"..XX..XX.XXoXoOO++++++O++OOOoOOOOOXoOOoOOOoX.XoXO++OOO.X  ..X...",
"..X...X..XXoXOOO++++++O++OOOooOOOOXoOooOOOOo.XoXO+OOOo..  ..X.. ",
". X.X.X.XX.XoOO++O+++++++OOOooOoOOoXOoooOOOoXXoXoOOOOoX.. ..XX. ",
" ...X.XXXX..ooO++O++++++OOOOooooOOoXOoooOOOoXoXXoOoOOXX.. .XXX. ",
" . .XXXXX...XoO+OO++++++OoOOOoooOooXoOooOOoOXoX.oooOoXX.X. X.X  ",
"..  .XXXX.X.XOO+OO++++++OoOOOooooooXoOooOOoOXXX.XooOooXoX. ..X  ",
".   X.XXX.XXoOOOOOO++++OooOoOOoooooXXooOOOOOXX..XoXoooXoXX....  ",
".   ..XX..XXoOOOOOO+++OOooooOOoOoooXXooOOOOoXX...XXoXooXX.. .. .",
". . ..XX..oXOOOo+OO+++OOoXoooOOOooooXooOOOoXXX.XXXXXXooXX.  ....",
"  . ..XX.XoXOoOo++O+++OOoXoooO+OooOoXooOOOoXXX.XXooXXooXX.  . ..",
"  ...XXXXXooOooOO+OO++OOXXoOoO+OooOoXOooOOXXX.XXooooXXooXX.   ..",
"  ...XXXXXoooXoOo+OO+OOoXXoOoO+OoOOoXOooOoXoX.XXooooXXooXX.   ..",
" ...XXoXXXoooXoXoOOoOOOXXXOOo++OoOOOoOOoOoooX.oXoooOXXoX.X .  . ",
" ...XXooXXoXoXXXooOoOOoXoXOOO++OoOOOooOoOoXoo.ooooOOXXoX.X .    ",
".....XXoXooXooXXXoXoOoXXooOoO+OOOOOOooOOOoXooXooooOoX.XX.. .    ",
".....XXoooooooXoXXXoooXXOoOo++OOOOOOOoOOOOoooXooooOoX.XX....    ",
"...X.XoOooXooOooXXooooXoOoOO++OOOOOOOOOOOOooXXoooXooX..XX. .    ",
"...XXooOooXXoOOooXooOoXoOoOO+OOOOOOOOOOOoOooXooooXooX..X..      ",
"..XXXoOOoXXXOOOooXoOOoooOOOO+OOOOOOOOOOOooooOooooXoX... ..   .  ",
"..XXXXOOoXoXOoOooooOOOoooOOOOOOOOOOOOOOOooXoOooooXXX... ..   .  ",
" .X.oXOoXXooooOOooOOoOoooOOOOOOOOOOOOOOOXoXoOOooooXX..  .   .. .",
" .X.oXooXoooooOOooOOooooOoOOOOOOOOOOOOOoXoooOOooooXX..      .. ."
};
