/* XPM */
static const char *sunflower_top[] = {
/* columns rows colors chars-per-pixel */
"64 64 6 1 ",
"  c #177C04",
". c #266325",
"X c #4A8F28",
"o c #529A2E",
"O c #55AB2D",
"+ c None",
/* pixels */
"++++++++++++++++++++++++++++++++++++++++++++++++++++++++++++++++",
"++++++++++++++++++++++++++++++++++++++++++++++++++++++++++++++++",
"++++++++++++++++++++++++++++++++++++++++++++++++++++++++++++++++",
"++++++++++++++++++++++++++++++++++++++++++++++++++++++++++++++++",
"++++++++++++++++++++++++++++++++++++++++++++++++++++++++++++++++",
"++++++++++++++++++++++++++++++++++++++++++++++++++++++++++++++++",
"++++++++++++++++++++++++++++++++++++++++++++++++++++++++++++++++",
"++++++++++++++++++++++++++++++++++++++++++++++++++++++++++++++++",
"++++++++++++++++++++++++++++++++++++++++++++++++++++++++++++++++",
"++++++++++++++++++++++++++++++++++++++++++++++++++++++++++++++++",
"++++++++++++++++++++++++++++++++++++++++++++++++++++++++++++++++",
"++++++++++++++++++++++++++++++++++++++++++++++++++++++++++++++++",
"++++++++++++++++++++++++++++++++++++++++++++++++++++++++++++++++",
"++++++++++++++++++++++++++++++++++++++++++++++++++++++++++++++++",
"++++++++++++++++++++++++++++++++++++++++++++++++++++++++++++++++",
"++++++++++++++++++++++++++++++++++++++++++++++++++++++++++++++++",
"++++++++++++++++++++++++++++++++++++++++++++++++++++++++++++++++",
"++++++++++++++++++++++++++++++++++++++++++++++++++++++++++++++++",
"++++++++++++++++++++++++++++++++++++++++++++++++++++++++++++++++",
"++++++++++++++++++++++++++++++++++++++++++++++++++++++++++++++++",
"++++++++++++++++++++++++++++++++++++++++++++++++++++++++++++++++",
"++++++++++++++++++++++++++++++++++++++++++++++++++++++++++++++++",
"++++++++++++++++++++++++++++++++++++++++++++++++++++++++++++++++",
"++++++++++++++++++++++++++++++++++++++++++++++++++++++++++++++++",
"++++++++++++++++++++++++++++........++++++++++++++++++++++++++++",
"++++++++++++++++++++++++++++... ....++++++++++++++++++++++++++++",
"++++++++++++++++++++++++++++... ....++++++++++++++++++++++++++++",
"++++++++++++++++++++++++++++..  . ..++++++++++++++++++++++++++++",
"++++++++++++++++++++++++++++..  .  .++++++++++++++++++++++++++++",
"++++++++++++++++++++++++++++..  .  .++++++++++++++++++++++++++++",
"++++++++++++++++++++++++++++.  X   .++++++++++++++++++++++++++++",
"++++++++++++++++++++++++++++.  X   .++++++++++++++++++++++++++++",
"++++++++++++++++++++++++++++. XX    ++++++++++++++++++++++++++++",
"++++++++++++++++++++++++++++  XoX   ++++++++++++++++++++++++++++",
"++++++++++++++++++++++++++++  ooX  .++++++++++++++++++++++++++++",
"++++++++++++++++++++++++++++ XooX  .++++++++++++++++++++++++++++",
"++++++++++++++++++++++++++++ XXo  ..++++++++++++++++++++++++++++",
"++++++++++++++++++++++++++++ XXo X..++++++++++++++++++++++++++++",
"++++++++++++++++++++++++++++XXXX X. ++++++++++++++++++++++++++++",
"++++++++++++++++++++++++++++XXXXXX. ++++++++++++++++++++++++++++",
"++++++++++++++++++++++++++++XXXoXX  ++++X XX++++++++++++++++++++",
"++++++++++++++++++++++++++++XXXoXX  ++X    XX+++++++++++++++++++",
"++++++++++++++++++++++++++++XXooXX  +X  ..   X++++++++++++++++++",
"++++++++++++++++++++++++++++XXooXX    ...   XX++++++++++++++++++",
"++++++++++++++++++++++++++++X oXX    ..   XX +++++++++++++++++++",
"++++++++++++++++++++++++++++X oXX   .    X +++++++++++++++++++++",
"++++++++++++++++ XX ++++++++  oXX X     ++++++++++++++++++++++++",
"++++++++++++++++XXXXX ++++++  XX  X   ++++++++++++++++++++++++++",
"++++++++++++++++XXXXXXX ++++  oX  XX++++++++++++++++++++++++++++",
"++++++++++++++++XX XXXXXX ++  oX  XX++++++++++++++++++++++++++++",
"++++++++++++++++ XX .. XXX +  oXX  X++++++++++++++++++++++++++++",
"+++++++++++++++++ XX ... XX   oXX  X++++++++++++++++++++++++++++",
"++++++++++++++++++  X .... X XooX   ++++++++++++++++++++++++++++",
"+++++++++++++++++++X    ...  XooX X ++++++++++++++++++++++++++++",
"++++++++++++++++++++X XX   . XooX XX++++++++++++++++++++++++++++",
"+++++++++++++++++++++X XX   XXooX XX++++++++++++++++++++++++++++",
"++++++++++++++++++++++.     XXooXXXX++++++++++++++++++++++++++++",
"++++++++++++++++++++++++..  XXoOXXXX++++++++++++++++++++++++++++",
"++++++++++++++++++++++++++++ XoOXXX ++++++++++++++++++++++++++++",
"++++++++++++++++++++++++++++ XoOXXX ++++++++++++++++++++++++++++",
"++++++++++++++++++++++++++++ ooOoX  ++++++++++++++++++++++++++++",
"++++++++++++++++++++++++++++ ooOoX  ++++++++++++++++++++++++++++",
"++++++++++++++++++++++++++++XooOOX  ++++++++++++++++++++++++++++",
"++++++++++++++++++++++++++++XoOOOo  ++++++++++++++++++++++++++++"
};
