/* XPM */
static const char *suspicious_gravel_3[] = {
/* columns rows colors chars-per-pixel */
"64 64 10 1 ",
"  c #574F4F",
". c #645B5B",
"X c #6A6261",
"o c #726B69",
"O c #817F7F",
"+ c #89817E",
"@ c #968E8E",
"# c #979797",
"$ c #B1A2A2",
"% c #B0AEAE",
/* pixels */
"Ooo.OO+O@@$@@O+oo.ooO+O+o++Oooo++#ooO+@+#+O##OOo++O+O##oOoOOooOO",
"o..oo++@+@@OooO+oo..oO+#oo+oo#@+#oOOoO+@#o##OOo.Xo+O##%#oOOOoOOO",
"..ooO+O+++OooOOo..ooO##%@.o+oo@@O##O.o+#@+oOooXoOXO+#%%##OOOOoOo",
"Oo..oOO+++oOO+OOo..O##%.@..OX++@@XOOo.@@@@o...oXOOo+O#%%#OOoo.oo",
"OOo..OOO+++OoooOOoOo%%.@.oOoXXoOXOOoo.+@O++o.o+@@o++#%#O+#oo..o%",
"#Oo..oO+O+oOOooooOO++.o.ooOXoXO+OXo..oO+O+o.oo@+++oo##O+O#Oo.o%%",
"##++.O++++oooOOooooO+o..oooooOXo..o...oO...oOoO+ooo++#+OO+o.oO%#",
"+##OooOOO++oOoOOooOoO+.o.o.o.oXX.Ooo.oooX.oooO++Oo+@o##OO+OoO%#%",
"#+#.oO++oo+OOoOo.OOO..oOo.o..Xo.X. .o...oXXOOOOOoO@@ooOO+++O%%##",
"#+O.O++oo.OoOOoo.o.XXoOO#...XoX..oX .O.oXX++OOOoo@+@@oo+o+OO#%##",
"O+.oO+o..o.ooOo.o.oo.O.#O#.XOOooX.o  .++O++O+OoO@@@.o++oo+O+##%#",
"O+oO+O+o..oo.o..oo+Oo.O.##X.###O.X. ##+++OOO++Oo@+@+.o+o+o++O#%O",
"+XOo+++##+..o  .++oo.XXXXOXOO###Xo++#++O##O++Ooo+@+o..ooOOOOOO#O",
"XooO+o##+#.X o  OX.OXXooO.OOooO#Ooo+O+OoO##O+ooO++...++o++o+OO+#",
"oXX+oo+#.o .XXOO++OoXoo.o.XoO oOOoX++Ooo#OO#oo.++..+OO+OooXo#++O",
"OoXXo+O.o .XXoX+@OXO.o..o.. .o.XOOo+OOOoOoO..oo.+o+.+O  oXXXo+Oo",
"Ooo.X..O.XOOoX+@$@+X.XXo...o XX.ooOo++oO.OoX.o.oo+oOO  o.. .oooO",
"oo.XoXoOOXXO#X$$  O+X.XoXXoo  XX.XO++OoOO..oX..oooooOoo   XXXooo",
"oOOOX.ooO.OOO#XXO  ooXoXOXXo. ..oXoX++Xo.  Xo.ooOooOOoX. X  XoXo",
"OOOo.O.O.OOXO##+O oooo.oo#oXo .XooXO+.  .o  OooOOOOoXXXX.. XooX+",
"Oo..oooOOOXOo++ oO o+X.OoXXXo  .X.X.   X  oO+O+oO+Ooo.X  XXo++O+",
"oo.ooO++O.o.++ oOOooXXooX. oX  . X.X.    o++ooO++OOOoX #XX+O+Oo+",
"o.oo.O+Oo.X..o+XXXo..o.X . .      X  XX o++oOOO#+oOoooXoOOO+XXoO",
"...o.+OoOo..ooooXooXX.X.. .X    .X  Xo  + ooo++#+oo oo.oOoOOOXXo",
"o..XXXoOoX    .Xo . X ..o.o              OoOo+X+oO . o. O OoOOOo",
"OXX.X.X.XX       X . XXo.X         .      OoXX+o  ..OO   O+ooOoO",
"ooOO....X Xo Xoo  ..   X. .   .     X o  +XXOO...    oo ++oOooOO",
"O+OOO..o  XXoo oo       ..     .   X.X  O+ooXo.... .OOOoO+oOOo#O",
"+OO@@oo XoO#+ oO oo..                . ooOOooo . .o .O+++oO+OO+#",
"##@@++oo+##o+oOoO+oo. .      . .      . Oo.  .  .o+...OO+++#Oo+#",
"#+O@O#+oOooooO+oO#.ooX o  .   ...  X..X.   .. o.++%@@.o#+###o+##",
"++@O#++ooO++ooOO#.oo  X        . .  XXXX. ..oo.++%@##OOO###oo+#+",
"+##+#+ooOO#++oOo.XX        .    .    oXo.X.o.++..o##+@O#++oooOoO",
"++##o+o+O##+O+.  oXXoo    .  X   .  oOOXX.X...ooO##+OOOO#++oO+oo",
"+o+o+o+OO#++o..o.X#+..oo    .        o .. .X++O@@O@++O+Oo#+oO+Oo",
"o+++ooOO##o++oX.X%%#o..o              ..X X...@@OOO@+  Xo+o++OoO",
"+oooO.XOooooX..o%%++o.  X     o .   XXXoOOXXoooOOoo   Xooo++OOOO",
"ooo++O.XOo...XXX+++OXoo      . X     . OOXXoXooooO . ooXooo+OoOO",
"O+++....ooo...+++OXX..O       .       .XX XX  o.XooX.Xoo++OoooOo",
"OoO+O..Xoo..oXXOOX....              .XXOXX   X..ooX.X.o+++OOo.oO",
"o.+OOOooo..o. X..oo.    . o  o.   ooooooOo...XXoXo.Xoo++OO#OOo.O",
"..oOooXXoo.   ....oo   .oo  .. . X.ooO  o...  XXX...XoooO##oOO.o",
".o.oOX..+++. O.X.o. ..  o++o. . ...   o..XX o++o..XXX##O####oOo.",
".ooXXX+..+.o.+o.o  .. .o++o... .X.   Ooo..oo+Xoooo.X+#OOO#O#oO..",
"o.ooXo.O+o+#O+o   . .. .oOO .  ..X..ooOOXXXXoooo  . o+#o#OOOOo.o",
"ooOooXoOOO#%+o..   +..++O#OO .  X..o o.ooXXXXoo@   ++ooO#Ooo..oo",
"oO#oO+oOO+%#.o. ..XX++O####O  X. X +++..oooXoooOO .+##+OOoo.oOOO",
"OO#OO++o+%X.oX ..XX..+OO##. . . XXOooooX.o..XXo +..#%#+oOOOoOo##",
"O#O+Oo+ooo..   o.ooOoo  .. X   XXooOooOOX..X.++ ..O%%%#o+OoO###O",
"##+Oo+OO+.X   XoX.+XXoo   XOO   oXoooOOOO.XXXX+o.oO%%#o++ooOO##O",
"#OoooOOoooo X  XoooXo++X.XO   X..X.oOOOo@#+X@OoO+o+#++OOooOO##OO",
"O++ooOOOo. X .oo.oXo++oXX.     OX..OOoo@#@++OOOOo+O++OOO+ooOOO#O",
"oooo+X+X  .  o...oXXoX+oX  .O@  oo..oOoo@O+ooOo+oOOoo+OOo+O@OOOO",
"OoOO+oX  Xoo....oooXXXXoOooO@O@ .oooooo##Oo+oOOo+OO+oo+Oo+@#OOOO",
"+OO+oo++oo..oo@o..oXXoOOoXXoOX .o...+o##Oo+oOO+o++OO++oOOO###oOO",
"+o+++oo+OoXOO@oo.ooooXoOOooXXooo..++oooOoOooooOo+O++Ooo.O###@OoO",
"++oo+++++XoXoXoOOoO+#XooXX+oO.o.o++XoooXOOoO+oOOoO+oo+..@#@#@Oo#",
"#oo++O++oOXXXoOOoOoOXO#XXooOoO...ooooXXooo@O++oOo+++oo.O@#@OOo##",
"++oOOo+OOXoo+OoOOO+ooOXXOooX+@@O.ooXXX++..++Ooo+oo+o..oOO@+OOo##",
"Oo##OO++XXXooOoO+##+ooOOoooO++@@OOXXo+X.X++Ooo+++o...o++X@@Ooo#O",
"oO++##Ooooo+OOooO+###+oooO+++@@Oooo@@@+XooooOO#+OOoo+ooXXOXOoOO#",
"+oo+++oo+@+OO+@o+o+#+#OOoOo+@OooOo++@+@+.oO++####OOoo+OOXXoOOoOO",
"O+oooo@@$@$$@@+oo++oO+oo+OOoooOO+++oOooO++OOo+O#oo+++++OooOOOOoo",
"OOOoo++@@$$@@+++oooOOooO++oooOo+#o+Ooo+o++#++ooOOoo++OoooOOoOooO"
};
