/* XPM */
static const char *sweet_berry_bush_stage2[] = {
/* columns rows colors chars-per-pixel */
"64 64 10 1 ",
"  c #1D3822",
". c #691F21",
"X c #294B38",
"o c #295230",
"O c #286240",
"+ c #3C6E42",
"@ c #487F4F",
"# c #A50700",
"$ c #DF467E",
"% c None",
/* pixels */
"%%%%%%%%%%%%%%%%%%%%%%%%%%%%%%%%%%oO%%%%%%%%%%%%%%%%%%%%%%%%%%%%",
"%%%%%%%%%%%%%%%%%%%%%%%%%%%%%%%%%oOOO%%%%%%%%%%%%%%%%%%%%%%%%%%%",
"%%%%%%%%%%%%%%%%%%%%%OO%%%oO++%%%oOOOo%%%%%%%%%%%%%%%%%%%%%%%%%%",
"%%%%%%%%%%%%%%%%%%%%O+OO%oO++++%oOOoOo%%%%%O%%%%%%%%%%%%%%%%%%%%",
"%%%%%%%%%%%%%%%%%%%%O++Ooo+@@+++oOOoOOo%%%OooO%%%%%%%%%%%%%%%%%%",
"%%%%%%%%%%%%%%%%%%%%%O++oOO+@@++ooOOoOoO%%ooOOoO%%%%%%%%%%%%%%%%",
"%%%%%%%%%%%%%%%%%%%%%%++OOOO+@@+OooOooooOO++++Oo%%%%%%%%%%%%%%%%",
"%%%%%%%%%%%%%%%%%o%%%%O+o++OO@@++ooooooO++++++Oo%%%%%%%%%%%%%%%%",
"%%%%%%%%%%%%%+%%OoO%%%%Oo.#+O+@@+OooooO++OO++oo%%%%%%%%%%%%%%%%%",
"%%%%%%%%%%%%%++%OooO%%%%.###+O@@++oooo++OO++ooO%%%%%%%%%%%%%%%%%",
"%%%%%%%%%%%%++O%%Ooo+O%%..#.@+@@++%Ooo+O+++oOO%%%%%%%%%%%%%%%%%%",
"%%%%%%%o%%Oo+O+%%%OoO++O%..O+@@++O+%ooo++Ooo++O%%%%OO+%%%%%%%%%%",
"%%%%%ooooOoooO++%O++++@@++ooO++++o++OooOoo++++O%%%OO++++%%%%%%%%",
"%%%%o++OOooOooo+O++@@@++@+Oooo++ooO+%Oooo++O++%%%%%%oOO++%%%%%%%",
"%%%%O+@@+OOOOooo+@@@@++@@+OOoooO++oO%%oO+OO++o%%%%%+++ooO%%%%%%%",
"%%%%%O+@@+++ooOo++@@@@@@++oOoO++++OoO%ooO++Oo%%%%O+@@@+oo%%%%%%%",
"%%%%%%o++@@+++####++@@@++oooO+++O+OoO@@@oOoo%%%%O@@@@@@+%%%%%%%%",
"%%%%%%%oo+@@@#$$##.++++OoOoo+++O++oo@@@@@@Ooo%%O@@@@@@@+oo%%%%%%",
"%%%%%%%%ooo@#$$$$##.ooOOOooO++OO+Oo @@@+@@@@+OO+@@@+@@@o+%%%%%%%",
"%%%%%%%%%%oo##$####.   ooooO++O++Oo +@@@++@@@+O@@+++@@oo%%%%%%%%",
"%%%%%%%%%%%%######..Oo   ooo++++Ooooo++@@@++@o+@+++@@@%%%%%%%%%%",
"%%%%%%%%%%%%.###....+OOo  ooo++Ooo ooo o+@@++o++o+@@@%%%%%%%%%%%",
"%%%%%%%%%%%oO......@++o+++o  oo    oOOo  o++oo o+@@+%%%%%%%%%%%%",
"%%%%%%%%%%OO++....@++o++@++o  oo  oOOOOo  ooOOo ++++oo%%%%%%%%%%",
"%%%%%%%%%O++@@@@++++Oo+@@++OoOOoooOOOoOOo oOOOO  o+OOOo%%%%%%%%%",
"%%%%%%%%O++@@@++OOoOo+@@++OoOOOOooOOOOoOoooOOoOO  OOoOOO%%%%%%%%",
"%%%%%%%XX+@@+OOOooOoO+@@++oOOoOOo oOOOooooOOoOOO oooOOOoOo%%%%%%",
"%%%%%%%%XX+OoooOOooo+@@++ooOooOO    ooOoo OOoOOOooOOOooOOOoo%%%%",
"%%%%%%%%%%%ooOOOoooO++@Oo  OoOOooo    oo  OooOOoo  o%OOOOooO%%%%",
"%%%%%%%%%ooO+++ooOooO++o    oOoooOOo   o oOoooOo  o%%%OOOOO%%%%%",
"%%%%%%%%ooO++O+++OOooOooo+o  oooO++OOooooooooooo o%%%%oOoo%%%%%%",
"%%%%%%%%%oo+++OO++OOoooo++Ooo oO+@++OOooo  oooo o%%%ooOOOoo%%%%%",
"%%%%%%%%%%oo+++ooOooo  o++++OooO++@@@++Ooo  oo  o%%ooOOoOOoo%%%%",
"%%%%%%%%%%%%ooOOoooo o  o++Oo oo+++@@@+++Ooo   o%%OooooOOOo%%%%%",
"%%%%%%%%%%%++ooo  oo++Ooo oo  oooO+++@@@++o  oooOOooOOOOo%%%%%%%",
"%%%%%%%%%o+@@+ooo  ++@@+Oo   o  ooOO+++++O oOOoooOoOOOo%%%%%%%%%",
"%%%%%%%+@@@@+++oooo o+####+ooo oO+++Ooo  ooO@@###.OOoOOoo%%%%%%%",
"%%%%%%+@@@+++++oooo  #$$##.+o o+++O+oo  oO@@@#$$##.o ooo%%%%%%%%",
"%%%%%+@@@++@@@oooooo#$$$$##.oo++OO+O  oO+@@+#$$$$#..o%%%%%%%%%%%",
"%%%%+@@++@@@@++o oo #$$####.OO++++O  oO+@@+@#$$###..%o%%%%%%%%%%",
"%%%%%@++@@@@+oo%o   ######..@+OOo  ooo+@@@@@#####...oo%%%%%%%%%%",
"%%%%%%@@@@+oo%%%%  o.###....+Ooooooo oO@@@@+.##..... %%%%%%%%%%%",
"%%%%%%%%oo%%%%%%%%oo+......oooo O+OOo oO@@+Oo...... %%%%%%%%%%%%",
"%%%%%%%%%%%%%%%%%%O+++....o++o o++++Ooo  oOo  ....o %%%%%%%%%%%%",
"%%%%%%%%%%%%%%%%%oo++OO++O++O+oo++O+++Oo   oooOOooo%%OO%%%%%%%%%",
"%%%%%%%%%%%%%o%ooooo++OOOo+O++ooO++OO++Oo   oOOoo  %XOOO%%%%%%%%",
"%%%%%%%%%%%%OO++++OooO+ooooO+o ooO++OOoo  ooooo   XXOOXXO%%%%%%%",
"%%%%%%%%%%ooo+++OOOOoooo  ooooo  ooOOo  oooOo      XXXXOOO%%%%%%",
"%%%%%%%%%%%o+++OO++O oo  oOOoOoo  oooOOoo#.o    oo  XXOOO%%%%%%%",
"%%%%%%%%%%%%o++++OOoo  ooOOoooOOoo  OOoo###.     oo  XXOX%%%%%%%",
"%%%%%%%%%%%%%%Oooooo%%  ooOOOooOOooooOOO.#..  oo  oo  Oo%%%%%%%%",
"%%%%%%%%%%%%%%%%oooO%%%%  ooOOooOOooOOOoo..%o  ooo oo o%%%%%%%%%",
"%%%%%%%%%%%%%%%+++OO%%%ooOOoo ooooOoooOOOOOo%oo oooo   %%%%%%%%%",
"%%%%%%%%%%%%%++OOOO%%%oo++OO   oOOooOOooOOOOo%oo  o  o o%%%%%%%%",
"%%%%%%%%%%%%+OO++O%%oO+++O+ooo   oOoOooOoo%ooOoOo    oo o%%%%%%%",
"%%%%%%%%%%%%%+OOO%oO+++OO++oOoOOo oOOoOooO%%OOoOOo o  o %%%%%%%%",
"%%%%%%%%%%%%%%%%%OO+++O+++OOOooOOoOOoOOo %%%OooOO % oo  %%%%%%%%",
"%%%%%%%%%%%%%%%%Ooo++++++OoOOooOOOOOoOO o%%OooOOo%%%   %%%%%%%%%",
"%%%%%%%%%%%%%%%%%%oo+++OoooOOOooOOOoOOo %%%oooOO %%%%%%%%%%%%%%%",
"%%%%%%%%%%%%%%%%%%%%oOooOoOOOOoOOoOOOOoo%% ooOOO%%%%%%%%%%%%%%%%",
"%%%%%%%%%%%%%%%%%%%%%%ooooOoOOOOooOOOoo%%% OoOOo%%%%%%%%%%%%%%%%",
"%%%%%%%%%%%%%%%%%%%%%%%ooOooOOOOo%oOOoO%%%oOOOO%%%%%%%%%%%%%%%%%",
"%%%%%%%%%%%%%%%%%%%%%%%%oOo%oOOo%%oOOOo%%%%oOOo%%%%%%%%%%%%%%%%%",
"%%%%%%%%%%%%%%%%%%%%%%%%oo%%%ooo%%%oOO%%%%%%OO%%%%%%%%%%%%%%%%%%"
};
