/* XPM */
static const char *tall_grass_top[] = {
/* columns rows colors chars-per-pixel */
"64 64 5 1 ",
"  c #737573",
". c #838183",
"X c #949194",
"o c #ACAAAC",
"O c None",
/* pixels */
"OOOOOOOOOOOOOOOOOOOOOOOOOOOOOOOOOOOOOOOOOOOOOOOOOOOOOOOOOOOOOOOO",
"OOOOOOOOOOOOOOOOOOOOOOOOOOOOOOOOOOOOOOOOOOOOOOOOXOOOOOOOOOOOOOOO",
"OOOOOOXOOOOOOOOOOOOOOOOOOOOOOOOOOOOOOOOOOOOOOOOXOOOOOOOOOOOOOOOO",
"OOOOOOXXOOOOOOOO.OOOOOOOOOOOOOOOOOOOOOOOOOOOOOXXOOOOOOOOOOOOOOOO",
"OOOOOOOXoOOOOOOOOXOOOOOOOOOOOOOOOOOOOOOOOOOOOoXOOOOOOOOOOOOOOOOO",
"OOOOOOOoXOOOOOOOOoOOOOOOOOOOOOOOOOOOOOOOOOOOOoXOOOOOOOOOOOOOOOOO",
"OOOOOOOOXoOOOOOOOoXOOOOOOOOOOOOOOOOOOOOOOOOOXXOOOOOOOOOOOOOOOOOO",
"OOOOOOOOoXOOOOOOOOXOOOOOOOOOOOOOOOOOOOOOOOOOXXOOOOOOOOOOOOOOOOOO",
"OOOOOOOOOX.OOOOOOOoOOOOOOOOOOOOOOOOOOOOOOOOoXOOOOOOOOOOOOOOOOOOO",
"OOOOOOOOOo.OOOOOOOoXOOOOOOOOOOOOOOOOOOOOOOOoXOOOOOOOOOOOOOOOOOOO",
"OOOOOOOOOOXXOOOOOOooOOOOOOOOOOOOOOOOOOOOOOooOOOOOOOOOOOOOOOOOOOO",
"OOOOOOOOOOoXOOOOOOooOOOOOOOOOOOOOOOOOOOOOOooOOOOOOOOOO.OOOOOOOOO",
"OOOOOOOOOOoo.OOOOOOo OOOOOOOOOOOOOOOOOOOOoXOOOOOOOOOO.OOOOOOOOOO",
"OOOOOOOOOOOo.OOOOOOo.OOOOOOOOOOOOOOOOOOOOoXOOOOOOOOO..OOOOOOOOOO",
"OOOOOOOOOOOXoOOOOOOoXOOOOOOOOOOOOOOOOOOOOoOOOOOOOOOX.OOOOOOOOOOO",
"OOOOOOOOOOOXoOOOOOOXoOOOOOOOOOOOOOOOOOOOooOOOOOOOOOo.OOOOOOOOOOO",
"OOOOOOOOOOOOoXOOOOOXoOOOOOOOOOOOOOOOOOOOooOOOOOOOOXoOOOOOOOOOOOO",
"OOOOOOOOOOOOoXOOOOOXXOOOOOOOOOOOOOOOOOOOooOOOOOOOOooOOOOOOOOOOOO",
"OOOOOOOOOOOOXoOOOOOOoXOOOOOOOOOOOOOOOOOXoOOOOOOOOOoXOOOOOOOOOOOO",
"OOOOOOOOOOOO.XOOOOOOoXOOOOOOOOOOOOOOOOOXoOOOOOOOOOoXOOOOOOOOOOOO",
"OOOOOOOOOOOOOXoOOOOOooOOOOOOOOOOOOOOOOOoXOOOOOOOOXoOOOOOOOOOOOOO",
"OOOOOOOOOOOOOXoOOOOOooOOOOOOOOOOOOOOOOOoXOOOOOOOOoXOOOOOOOOOOOOO",
"OOOOOOOOOOOOOXoOOOOOXo OOOOOOOOOOOOOOOOoXOOOOOOOOoXOOOOOOOOOOOOO",
"OOOOOOOOOOOOOooOOOOOXo.OOOOOOOOOOOOOOOOoXOOOOOOOOXXOOOOOOOOOOOOO",
"OOOOOOOOOOOOOoXOOOOOOo.OOOOOOOOOOOOOOOXoOOOOOOOOOXoOOOOOOOOOOOOO",
"OOOOOOOOOOOOOooOOOOOOXXOOOOOOOOOOOOOOOooOOOOOOOOOXoOOOOOOOOOOOOO",
"OOOOOOOOOOOOOXoOOOOOOXoOOOOOOOOOOOOOOOooOOOOOOOOoXOOOOOOOOOOOOOO",
"OOOOOOOOOOOOOXoXOOOOO.oXOOOOO.OOOOOOOOooOOOOOOOOoXOOOOOOOOOOOOOO",
"OOOOOOOOOOOOOOoXOOOOO.oXOOOOO..OOOOOOOoXOOOOOOOOooOOOOOOOOOOOOOO",
"OOOOOOOOOOOOOOo.OOOOOXoXOOOOO .OOOOOOOoXOOOOOOOOooOOOOOOOOOOOOOO",
"OOOOOOOOOOOOOOX.OOOOOOoXOOOOOO..OOOOOXoOOOOOOOOXoOOOOOOOOOOOOOOO",
"OOOOOOOOOOOOOOX.OOOOOOoXOOOOOO .OOOOOXoOOOOOOOOXoOOOOOOOOOOOOOOO",
"OOOOOOOOOOOOOOoXOOOOOOooOOOOOOO..OOOOoXOOOOOOOOooOOOOOOOOOOOOOOO",
"OOOOOOOOOOOOOOoXOOOOOOooOOOOOOO .OOOOoXOOOOOOOOooOOOOOOOOOOOOOOO",
"OOOOOOOOOOOOOOoXOOOOOOooOOOOOOO .OOOOoXOOOOOOOOoXOOOOOOOOOOOOOOO",
"OOOOOOOOOOOOOOoX.OOOOOooOOOOOOO  OOOOoXOOOOOOOOoXOOOOOOOOOOOOOOO",
"OOOOOOOOOOOOOOXo.OOOOOoo OOOOOOO .OOOXXOOOOOOOOooOOOOOOOOOOOOOOO",
"OOOOOOOOOOOOOOXoXOOOOOoo OOOOOOO .OOOX.OOOOOOOOXoOOOOOOOOOOOOOOO",
"OOOOOOOOOOOOOOOoXOOOOOXo OOOOOOO .OOXo.OOOOOOOoXOOOOOOOOOOOOOOOO",
"OOOOOOOOOOOOOOOoXOOOOOXoXOOOOOOO..OOXoOOOOOOOOoXOOOO.OOOOOOOOOOO",
"OOOOOOOOOOOOOOOooOOOOOOooOOOOOOO. OOXoOOOOOOOOooOOO.OOOOOOOOOOOO",
"OOOOOOOOOOOOOOOooOOOOOOooOOOOOOO. OOooOOOOOOOOXoOO .OOOOOOOOOOOO",
"OOOOOOOOOOOOOOOooOOOOOOXooOOOOOOO .OooOOOOOOOOXoO .OOOOOOOOOOOOO",
"OOOOOOOOOOOOOOOXoOOOOOOXooOOOOOOO .OooOOOOOOOOXXO..OOOOOOOOOOOOO",
"OOOOOOOOOOOOOOOXoOOOOOOXoXOOOOOOO  .ooOOOOOOOOXo .OOOOOOOOOOOOOO",
"OOOOOOOOOOOOOOOXoOOOOOO o.OOOOOOO. XooOOOOOOOOXo .OOOOOOOOOOOOOO",
"OOOOOOOOOOOOOOO.oOOOOOOOX.OOOOOOO. XoXOOO.OOOOoo OOOOOOOOOOOOOOO",
"OOOOOOOOOOOOOOO.oOOOOOOOo.OOOOOOOX XoXOO..OOOOooOOOOOOOOOOOOOOOO",
"OOOOOOOO.OOOOOO.ooOOOOOOoXOOOOOOOX.ooXO .OOOOXoOOOOOOOOOOOOOOOOO",
"OOOOOOOO..OOOOOXooOOOOOOoXOOOOOOOX.oo.O. OOOOXoOOOOOOOOOOOOOOOOO",
"OOOOOOOOO.XOOOOOXoOOOOOOoo.OOOOOOXXooX .OOOOOXXOOOOOOOOOOOOOOOOO",
"OOOOOOOOOO.XOOOOXoOOOOOOoo.OOOOOO.XoXX .OOOOOXXOOOOOOOOOOOOOOOOO",
"OOOOOOOOOO..XOOOXo.OOOOOoo.OOOOOO.XoXX. OOOOOoXOOOOOOOOOOOOOOOOO",
"OOOOOOOOOOO.XXOOXX.OOOOOXoXOOOOOO.Xo.X.OOOO OoXOOOOOOOOOOOOOOOOO",
"OOOOOOOOOOOO.X.OoXXOOOOOXoXOOOOOO..o.XOOOO OXoOOOOOOOOOOOOOOOOOO",
"OOOOOOOOOOOO.XXOoXXOOOOOXoXOOOOOOX.o .OOOO.OXoOOOOOOOOOOOOOOOOOO",
"OOOOXOOOOOOOOXXXoX.OOOOOXooOOOOOOX.X  OOO .O.oOOOOOOOOO OOOOOOOO",
"OOOOXXOOOOOOO.XXoX.OOOOO.ooOOOOOOX.o  OOO. O.oOOOOOOOO. OOOOOOOO",
"OOOO.XOOOOOOO.X.o..OOOOO.XoOOOOOOX.o.OOOO.OOXoOOOOOOO..OOOOOOOOO",
"OOOOOXOOOOOOOOX.o..OOOOOXXoOOOOOO.Xo.OOO .OOX.OOOOOO . OOOOOOO.O",
"OOOOO.XOOOOOOO.Xo.X.OOOOOXoXOOOOO.Xo OOO..OOo.OOOOO . OOOOOOOXOO",
"OOOOO.XOOOOOOO.Xo.X.OOOOO.oXOOOOOXXo OOO..OXoXOOOOO . OOOOOOXXOO",
"OOOOOOX.OOOOOOOXooX.OOOOO.XXOOOOOXooOOOO. OooOOOOO . OOOOOOXXOOO",
"OOOOOO.XOOOOOOO.XoX.OOOOO..oOOOOOXooOOOO. OooOOOOO.. OOOOOOX.OOO"
};
