/* XPM */
static const char *tripwire_hook[] = {
/* columns rows colors chars-per-pixel */
"64 64 10 1 ",
"  c #735E39",
". c gray48",
"X c #9F844D",
"o c #B4905A",
"O c #BC9862",
"+ c #848484",
"@ c #898989",
"# c #909090",
"$ c gray58",
"% c None",
/* pixels */
"%%%%%%%%%%%%%%%%%%%%%%%%%%%%%%%%%%%%%%%%%%%%%%%%%%%%%%%%%%%%%%%%",
"%%%%%%%%%%%%%%%%%%%%%%%%%%%%%%%%%%%%%%%%%%%%%%%%%%%%%%%%%%%%%%%%",
"%%%%%%%%%%%%%%%%%%%%%%%%%%%%%%%%%%%%%%%%%%%%%%%%%%%%%%%%%%%%%%%%",
"%%%%%%%%%%%%%%%%%%%%%%%%%%%%%%%%%%%%%%%%%%%%%%%%%%%%%%%%%%%%%%%%",
"%%%%%%%%%%%%%%%%%%%%%%%%%%%%%%%%%%%%%%%%%%%%%%%%%%%%%%%%%%%%%%%%",
"%%%%%%%%%%%%%%%%%%%%%%%%%%%%%%%%%%%%%%%%%%%%%%%%%%%%%%%%%%%%%%%%",
"%%%%%%%%%%%%%%%%%%%%%%%%%%%%%%%%%%%%%%%%%%%%%%%%%%%%%%%%%%%%%%%%",
"%%%%%%%%%%%%%%%%%%%%%%%%%%%%%%%%%%%%%%%%%%%%%%%%%%%%%%%%%%%%%%%%",
"%%%%%%%%%%%%%%%%%%%%%%%%%%%%%%%%%%%%%%%%%%%%%%%%%%%%%%%%%%%%%%%%",
"%%%%%%%%%%%%%%%%%%%%%%%%%%%%%%%%%%%%%%%%%%%%%%%%%%%%%%%%%%%%%%%%",
"%%%%%%%%%%%%%%%%%%%%%%%%%%%%%%%%%%%%%%%%%%%%%%%%%%%%%%%%%%%%%%%%",
"%%%%%%%%%%%%%%%%%%%%%%%%%%%%%%%%%%%%%%%%%%%%%%%%%%%%%%%%%%%%%%%%",
"%%%%%%%%%%%%%%%%%%%%#@@@####@@##@+++++@@@@+.%%%%%%%%%%%%%%%%%%%%",
"%%%%%%%%%%%%%%%%%%%%##@###@@@++@@@++@@@@+..+%%%%%%%%%%%%%%%%%%%%",
"%%%%%%%%%%%%%%%%%%%%#@###@@+@@+++@@@++++@@@@%%%%%%%%%%%%%%%%%%%%",
"%%%%%%%%%%%%%%%%%%%%###@@@@@++++@@@+++@@+@@@%%%%%%%%%%%%%%%%%%%%",
"%%%%%%%%%%%%%%%%%%%%##@@##++@@@@++##@++@@@@+%%%%%%%%%%%%%%%%%%%%",
"%%%%%%%%%%%%%%%%%%%%##@@@@@++@@++++##@@+@@++%%%%%%%%%%%%%%%%%%%%",
"%%%%%%%%%%%%%%%%%%%%#@++@+@@+++++@@@@@@@++++%%%%%%%%%%%%%%%%%%%%",
"%%%%%%%%%%%%%%%%%%%%#++++@@+........#@+++++.%%%%%%%%%%%%%%%%%%%%",
"%%%%%%%%%%%%%%%%%%%%@@+@@@@.%%%%%%%%$@@+@@+.%%%%%%%%%%%%%%%%%%%%",
"%%%%%%%%%%%%%%%%%%%%++++@@+.%%%%%%%%$#@@+++.%%%%%%%%%%%%%%%%%%%%",
"%%%%%%%%%%%%%%%%%%%%+++++++.%%%%%%%%$###@@@+%%%%%%%%%%%%%%%%%%%%",
"%%%%%%%%%%%%%%%%%%%%+++@@++.%%%%%%%%$##@@@++%%%%%%%%%%%%%%%%%%%%",
"%%%%%%%%%%%%%%%%%%%%@@++@@@.%%%%%%%%$@@@@@+.%%%%%%%%%%%%%%%%%%%%",
"%%%%%%%%%%%%%%%%%%%%+@+@#@+.%%%%%%%%$#@@@+@.%%%%%%%%%%%%%%%%%%%%",
"%%%%%%%%%%%%%%%%%%%%+@@@##+.%%%%%%%%$#@+@@@.%%%%%%%%%%%%%%%%%%%%",
"%%%%%%%%%%%%%%%%%%%%@+@##@+.%%%%%%%%$@+@@@+.%%%%%%%%%%%%%%%%%%%%",
"%%%%%%%%%%%%%%%%%%%%++@@@@##$$$$$$$$#@+++@@.%%%%%%%%%%%%%%%%%%%%",
"%%%%%%%%%%%%%%%%%%%%+++@@@@@@#@@@##@@@.+++@+%%%%%%%%%%%%%%%%%%%%",
"%%%%%%%%%%%%%%%%%%%%+@+++++@++@@##@@.+..+++.%%%%%%%%%%%%%%%%%%%%",
"%%%%%%%%%%%%%%%%%%%%@@+++@@++++@@@+++..++++.%%%%%%%%%%%%%%%%%%%%",
"%%%%%%%%%%%%%%%%%%%%@@++++++@@@@@++++++..+..%%%%%%%%%%%%%%%%%%%%",
"%%%%%%%%%%%%%%%%%%%%+@@@++@@@@@@@@@++++++...%%%%%%%%%%%%%%%%%%%%",
"%%%%%%%%%%%%%%%%%%%%.++++++++++@@@+++++.....%%%%%%%%%%%%%%%%%%%%",
"%%%%%%%%%%%%%%%%%%%%....++......++..........%%%%%%%%%%%%%%%%%%%%",
"%%%%%%%%%%%%%%%%%%%%%%%%%%%%X       %%%%%%%%%%%%%%%%%%%%%%%%%%%%",
"%%%%%%%%%%%%%%%%%%%%%%%%%%%%oXoooooX%%%%%%%%%%%%%%%%%%%%%%%%%%%%",
"%%%%%%%%%%%%%%%%%%%%%%%%%%%%oooOoooX%%%%%%%%%%%%%%%%%%%%%%%%%%%%",
"%%%%%%%%%%%%%%%%%%%%%%%%%%%%oooOooXX%%%%%%%%%%%%%%%%%%%%%%%%%%%%",
"%%%%%%%%%%%%%%%%%%%%%%%%%%%%ooOOooXX%%%%%%%%%%%%%%%%%%%%%%%%%%%%",
"%%%%%%%%%%%%%%%%%%%%%%%%%%%%ooOoooXo%%%%%%%%%%%%%%%%%%%%%%%%%%%%",
"%%%%%%%%%%%%%%%%%%%%%%%%%%%%oOOooooo%%%%%%%%%%%%%%%%%%%%%%%%%%%%",
"%%%%%%%%%%%%%%%%%%%%%%%%%%%%oOOooooo%%%%%%%%%%%%%%%%%%%%%%%%%%%%",
"%%%%%%%%%%%%%%%%%%%%%%%%%%%%ooOooooX%%%%%%%%%%%%%%%%%%%%%%%%%%%%",
"%%%%%%%%%%%%%%%%%%%%%%%%%%%%ooOooXoX%%%%%%%%%%%%%%%%%%%%%%%%%%%%",
"%%%%%%%%%%%%%%%%%%%%%%%%%%%%oooooXXX%%%%%%%%%%%%%%%%%%%%%%%%%%%%",
"%%%%%%%%%%%%%%%%%%%%%%%%%%%%oooooXXX%%%%%%%%%%%%%%%%%%%%%%%%%%%%",
"%%%%%%%%%%%%%%%%%%%%%%%%%%%%XooOXoXX%%%%%%%%%%%%%%%%%%%%%%%%%%%%",
"%%%%%%%%%%%%%%%%%%%%%%%%%%%%XooOXoXX%%%%%%%%%%%%%%%%%%%%%%%%%%%%",
"%%%%%%%%%%%%%%%%%%%%%%%%%%%%XooOooXX%%%%%%%%%%%%%%%%%%%%%%%%%%%%",
"%%%%%%%%%%%%%%%%%%%%%%%%%%%%XoOOoooX%%%%%%%%%%%%%%%%%%%%%%%%%%%%",
"%%%%%%%%%%%%%%%%%%%%%%%%%%%%XoOOoooX%%%%%%%%%%%%%%%%%%%%%%%%%%%%",
"%%%%%%%%%%%%%%%%%%%%%%%%%%%%XoOooooX%%%%%%%%%%%%%%%%%%%%%%%%%%%%",
"%%%%%%%%%%%%%%%%%%%%%%%%%%%%ooOooooo%%%%%%%%%%%%%%%%%%%%%%%%%%%%",
"%%%%%%%%%%%%%%%%%%%%%%%%%%%%ooOooXoo%%%%%%%%%%%%%%%%%%%%%%%%%%%%",
"%%%%%%%%%%%%%%%%%%%%%%%%%%%%oooooXoX%%%%%%%%%%%%%%%%%%%%%%%%%%%%",
"%%%%%%%%%%%%%%%%%%%%%%%%%%%%oooooooX%%%%%%%%%%%%%%%%%%%%%%%%%%%%",
"%%%%%%%%%%%%%%%%%%%%%%%%%%%%XoOooooX%%%%%%%%%%%%%%%%%%%%%%%%%%%%",
"%%%%%%%%%%%%%%%%%%%%%%%%%%%%XoOXooXX%%%%%%%%%%%%%%%%%%%%%%%%%%%%",
"%%%%%%%%%%%%%%%%%%%%%%%%%%%%XooXXoXX%%%%%%%%%%%%%%%%%%%%%%%%%%%%",
"%%%%%%%%%%%%%%%%%%%%%%%%%%%%XXoXXoXX%%%%%%%%%%%%%%%%%%%%%%%%%%%%",
"%%%%%%%%%%%%%%%%%%%%%%%%%%%%XXXXXXXX%%%%%%%%%%%%%%%%%%%%%%%%%%%%",
"%%%%%%%%%%%%%%%%%%%%%%%%%%%%        %%%%%%%%%%%%%%%%%%%%%%%%%%%%"
};
