/* XPM */
static const char *tube_coral_fan[] = {
/* columns rows colors chars-per-pixel */
"64 64 7 1 ",
"  c #1C3788",
". c #2143A4",
"X c #314FDD",
"o c #3F6CE5",
"O c #405CE2",
"+ c #3C85E5",
"@ c None",
/* pixels */
"@@@@@@@@@@@@@@@@@@@@@@@@@@@@@@@@@@@@@@@@@@@@@@@@@@@@@@@@@@@@@@@@",
"@@@@@@@@@@@@@@@@@@@@@@@@@@@@@@@@@@@@@@@@@@@@@@@@@@@@@@@@@@@@@@@@",
"@@@@@@@@@@@@@@@@@@@@@@@@@@@@@@@@@@@@@@@@@@@@@@@@@@@@@@@@@@@@@@@@",
"@@@@@@@@@@@@@@@@@@@@@@@@@@@@@@@@@@@@@@@@@@@@@@@@@@@@@@@@@@@@@@@@",
"@@@@@@@@@@@@@@@@@@@@@@@@@@@@@@@@@@@@@@@@@@@@@@@@@@@@@@@@@@@@@@@@",
"@@@@@@@@@@@@@@@@@@@@@@@@@@@@@@@@@@@@@@@@@@@@@@@@@@@@@@@@@@@@@@@@",
"@@@@@@@@@@@@@@@@@@@@@@@@@@@@@@@@@@@@@@@@@@@@@@@@@@@@@@@@@@@@@@@@",
"@@@@@@@@@@@@@@@@@@@@@@@@@@@@@@@@@@@@@@@@@@@@@@@@@@@@@@@@@@@@@@@@",
"@@@@@@@@@@@@@@@@@@@@@@@@@@@@@@@@@@@@@@@@@@@@@@@@@@@@@@@@@@@@@@@@",
"@@@@@@@@@@@@@@@@@@@@@@@@@@@@@@@@@@@@@@@@@@@@@@@@@@@@@@@@@@@@@@@@",
"@@@@@@@@@@@@@@@@@@@@@@@@@@@@@@@@@@@@@@@@@@@@@@@@@@@@@@@@@@@@@@@@",
"@@@@@@@@@@@@@@@@@@@@@@@@@@@@@@@@@@@@@@@@@@@@@@@@@@@@@@@@@@@@@@@@",
"@@@@@@@@@@@@@@@@@@@@@@@@@@@@@@@@@@@@@@@@@@@@@@@@@@@@@@@@@@@@@@@@",
"@@@@@@@@@@@@@@@@@@@@@@@@@@@@@@@@@@@@@@@@@@@@@@@@@@@@@@@@@@@@@@@@",
"@@@@@@@@@@@@@@@@@@@@@@@@@@@@@@@@@@@@@@@@@@@@@@@@@@@@@@@@@@@@@@@@",
"@@@@@@@@@@@@@@@@@@@@@@@@@@@@@@@@@@@@@@@@@@@@@@@@@@@@@@@@@@@@@@@@",
"@@@@@@@@@@@@@@@@@@@@@@@@@@@@@@@@@@@@@@@@@@@@@@@@@@@@@@@@@@@@@@@@",
"@@@@@@@@@@@@@@@@@@@@@@@@@@@@@@@@@@@@@@@@@@@@@@@@@@@@@@@@@@@@@@@@",
"@@@@@@@@@@@@@@@@@@@@@@@@@@@@@@@@@@@@@@@@@@@@@@@@@@@@@@@@@@@@@@@@",
"@@@@@@@@@@@@@@@@@@@@@@@@@@@@@@@@@@@@@@@@@@@@@@@@@@@@@@@@@@@@@@@@",
"@@@@@@@@@@@@@@@@@@@@@@@@@@@@@@@@@@@@@@@@@@@@@@@@@@@@@@@@@@@@@@@@",
"@@@@@@@@@@@@@@@@@@@@@@@@@@@@@@@@@@@@@@@@@@@@@@@@@@@@@@@@@@@@@@@@",
"@@@@@@@@@@@@@@@@@@@@@@@@@@@@@@@@@@@@@@@@@@@@@@@@@@@@@@@@@@@@@@@@",
"@@@@@@@@@@@@@@@@@@@@@@@@@@@@@@@@@@@@@@@@@@@@@@@@@@@@@@@@@@@@@@@@",
"@@@@@@@@@@@@@@@@@@@@@@@@@@@@@@@@@@@@@@@@@@@@@@@@@@@@@@@@@@@@@@@@",
"@@@@@@@@@@@@@@@@@@@@@@@@@@@@@@@@@@@@@@@@@@@@@@@@@@@@@@@@@@@@@@@@",
"@@@@@@@@@@@@@@@@@@@@@@@@@@@@@@@@@@@@@@@@@@@@@@@@@@@@@@@@@@@@@@@@",
"@@@@@@@@@@@@@@@@@@@@@@@@@@@@@@@@@@@@@@@@@@@@@@@@@@@@@@@@@@@@@@@@",
"@@@@@@@@@@@@@@@@@@@@@@@@@@@@@@@@@@@@@@@@@@@@@@@@@@@@@@@@@@@@@@@@",
"@@@@@@@@@@@@@@@@@@@@@@@@@@@@@@@@.@@@@@@@@@@@@@@@@@@@@@@@@@@@@@@@",
"@@@@@@@@@@@@@@@@@@@@@@@@@@@@@@@. @@@@@@@@@@@@@@@@@@@@@@@@@@@@@@@",
"@@@@@@@@@@@@@@@@@@@@@@@@@.@@@@@ooO@@@X@@@@@@@@@@@@@@@@@@@@@@@@@@",
"@@@@@@@@@@@@@@@@@@@@@@@@@@.@@@OOooOO.@@@@@@@@@@@@@@@@@@@@@@@@@@@",
"@@@@@@@@@@@@@@@@@@@@@@@@@@..XXXXOOooO.@@@@@@@@@@@@@@@@@@@@@@@@@@",
"@@@@@@@@@@@@@@@@@@@@@@@@@@XOXXOoOOOooXO@@@@@@@@@@@@@@@@@@@@@@@@@",
"@@@@@@@@@@@@@@@@@@@@@@@@@.OXXOooooOOXO+@@@@@@@.@@@@@@@@@@@@@@@@@",
"@@@@@@@@@@@@@@@@@@@@@@@@@@OOOXOooOOXOo+o@@@@@.X@@@@@@@@@@@@@@@@@",
"@@@@@@@@@@@@@@@@@O@@.@@@@@@OoOXXOOXXo+oOO@@@..O@@@@@@@@@@@@@@@@@",
"@@@@@@@@@@@@@@@@Oo@XX@@@@@@@oOOXXXOOooOo@@@@XOOO@@@@@@@@@@@@@@@@",
"@@@@@@@o@@@@@@@@ooOX@@@@@@@@ooOOXOOooooo@@@OXXOO@@o@@@@@@@@@@@@@",
"@@@@@@@@o@@@@@@ooOoO@@@@@@@OoOXXOOoOoo+@@@@OOXXO@ooO@@@@@@@@@@@@",
"@@@@@@@@+o@@@@@oOOoo@@@@@@@oOXXXXOOo+++@@@OOXXXOoOO@@@@@@@@@@@@@",
"@@@@@@@@@+O@@@ooOXOoo@@@X@XOXXOOOoo+++@@@oOoOOXXOO@@@@@@@@@@@@@@",
"@@@@@@@@@++O@@ooXOoooo@XXXOOOXXOOOoo+@@@o@oOOXXOOO@@@@@@@@@@@@@@",
"@@@@@@@@++oO@+oOOXXOoOOXOOOoOXOooOo+@o@ooOoooOOXOOO@@@@@@@@@@@@@",
"@@@@@@@@@oOO+++oOOX.OOXXXOoooOooOO++@@ooOOooOOOO@@@O@@o@@@@@@@@@",
"@@@@@@@@@+Oo+OXOX.. .XOOOooOOOOOOo+@@@@OooOoOXO@@ooOoOOX@@@@@@@@",
"@@@@@@o@++OOoXXXXX..  XOooOXXOOXO++@@@OOOooOXX@oooooOOXXO@X@@@@@",
"@@@@@o+++oXXOXOOX.XOO  XOooOXXXOo+o@oOoOOOOXX@@@oOOOOOOO..@X@@@@",
"@@@@o+++oOXXXOOOOOXXOO..OOOoOXOo+o@oooOOOOOOX@@oooOOXXOXX...@@@@",
"@@@OOoO++XXXOOooOOOOoOOX..XXOOOoOOooOOOOXXOXX@OOoOOXOO.XXOOoO@@@",
"@@OOXXXOXXXOXXOooOooooOOXXXOOOoooOoooOOX..XO@XOoOOXXXOX .XOOoo@@",
"@OOXXO@OOOXXOOooooooOOoooOOOX.OoooOOOX...OOOOOOXXOOOXX.  .XOOoo@",
"@XXXO@O@OOOOOoOooooOXXOoOoOO..XOOooOXOX.OOXXOOOOXXO. ..XXOoOooo@",
"XOOOO@@OXOooooooOOoooXXXXOO.XXOOoOooooOXXX...X.X.   ..XOoOoo+o++",
".XOX@@ooOXOo+ooOX.XoOOOX..XOXXOOOOOooOXXOOX...XXX.   ..XOoo++++@",
"...XXooOoOo++OOOXX..oOOOO..XOOXXOOX.XXOOOX..XOX.. XX..XOo+oo++@@",
" .XOOOOOOo++ooOOOXX..XOOOXXXXOOXOO....XOOOXXOoOX.XOXX.OOO++o+@@@",
"@ .XOXOooo+o+ooooO.XXOOoXXOOooOOX.O..XXXXXOo++oooXOOOX.XOo++oo@@",
"@  .XOOOo++oooooOoXXOooOXOoOOooOOXOOX..XOoooo++oOOOOXO..o+++o@@@",
"@@  ..XOO+++oOOX@@O@@OooOXOooOooooooOOX.OOoo++++ooOOOXX.Ooo+@@@@",
"@@   ..X++ooOOo@@O@@XXOoOOooOOOOoooOoOOXOoo+++o@+oooOOX.XoOo+@@@",
"@ ..  XO+ooO@o@@@@XXOOoOOOOO@O@@Oooooooo++++@o@@@o@@ooOX.OOOoOo@",
" .. ..OOOOX@@@@@@XXOOoooOOO@@@O@@@Oooo++++o@@@@@@@@oOooOXXOXOooo"
};
