/* XPM */
static const char *vault_front_on[] = {
/* columns rows colors chars-per-pixel */
"64 64 22 1 ",
"  c #0C0A15",
". c #101D25",
"X c #251F2E",
"o c #172B38",
"O c #182C39",
"+ c #292334",
"@ c #2A2435",
"# c #2C2D3B",
"$ c #373B35",
"% c #323540",
"& c #294354",
"* c #2A4455",
"= c #3F6177",
"- c #454A42",
"; c #586058",
": c #406278",
"> c #6C716B",
", c #BF4D00",
"< c #FF6A00",
"1 c #FF9951",
"2 c #FFC195",
"3 c None",
/* pixels */
">>>>>>>>;;>>;;------$@@@o&&&===&&&&&&&&o@@@$------;;>>;;>>>>>>>>",
";;;;;;;;;;;;;;;;---$@@oo&&======&&&&&&&&oo@@$---;;;;;;;;;;;;;;;;",
";;;;;;;;;--;;;;-;-$@@o&&&========&&&&&&&&&o@@$-;-;;;;--;;;;;;;;;",
";;;-;;;---;;;;----$.o&&&=========&&&&&&&&&&o.$----;;;;---;;;-;;;",
";;-;;>>;-$--;;;;-$@.&&&&========&&&&&&&&&&&o.@$-;;;;--$-;>>;;-;;",
";--;;;>>;-$$--;;;$..&&&&&======&&&&&&&&&&&&o..$;;;--$$-;>>;;;--;",
";---;;;;;;;------$..&&&&&&&&&&&&&&&&&&&&&&oo..$------;;;;;;;---;",
"-;$---;;;;--;;-$$$..o&&&&&&&&&&&&&&&&&&ooooo..$$$-;;--;;;;---$;-",
"---$$-----$$$---$$..oooo1111&&&&&&&&1111oooo..$$---$$$-----$$---",
"-$$$$$$$$$$$$$$$$$..+ooo1111&&&&&&&&1111ooo+..$$$$$$$$$$$$$$$$$-",
"....................+ooo11111oooooo11111ooo+....................",
"....................+oooo11111oooo11111oooo+....................",
"OOO..................+oooo&oooooooooo&oooo+...................OO",
"OOOO.................+oooo&&&oooooo&&&oooo+..................OO*",
"OO*O..33333333333333..+oooo&=====&&&&oooo+..33333333333333..OO**",
"O**OO.33333333333333O..++oooo&==&&&oooo++..O33333333333333..*O**",
"O***O.33333333333333OO..o+X          X+o..OO33333333333333..****",
"***OO.33333333333333OO.@oo            oo@.OO33333333333333..****",
"*:*OOO33333333333333OO@@oo            oo@@OO33333333333333..**:*",
"*:**O.33333333333333OO@@oo            oo@@OO33333333333333..**:*",
"*:**O.33333333333333OOO@*o            o*@OOO33333333333333..**:*",
"*::*O.33333333333333OOO@**            **@OOO33333333333333..*::*",
"*::*OO33333333333333OOO@**            **@OOO33333333333333..*::*",
"*::*OO33333333333333OOO@**            **@OOO33333333333333..*::*",
"*::*OOOOO********OO*OOO@**            **@OOOOO***********O..*::*",
"*::*OOO***::*:::::**OOO@**            **@OOO***::::::**OOO..*::*",
"*::OOOOO*******::**OOOO@:*            *:@OO.O****:::****OO..*::O",
"*::OOOOOOOOOOO**OOOOOOO@:*            *:@OO.OOOO****OOOOOO..*::*",
"*::OO.33333333333333OOO@:*            *:@OO.33333333333333..*::*",
"*::*O.33333333333333OOO@:*            *:@OO.33333333333333..*::O",
"*:**O.33333333333333OOO@:*            *:@OO.33333333333333..*::O",
"*:**O.33333333333333OOO@:*            *:@OO.33333333333333..*:*O",
"****OO33333333333333OOO@:*            *:@OOO33333333333333..*:**",
"****OO33333333333333OOO@:*            *:@OO.33333333333333..*:**",
"****O.33333333333333OOO@:*            *:@OO.33333333333333..****",
"****O.33333333333333OO@@:*            *:@OO.33333333333333..O***",
"*:**OOOOO***********OO@@:*            *:@OO.OO*********OOO..O*:*",
"*:**OOO***::::::::**OO@@:*            *:@OO.**:::::::****O..**:*",
"*::*OOOO*****:::***OOO@@:*            *:@O..O***:::*****OO..**:O",
"*::*OOOOOOOOOO***OOOOO@@:*            *:@O..OOOO**OOOOOOOO..**:O",
"*::*O.33333333333333OO@@:*XXXXXXXXXXXX*:@O..33333333333333..**:O",
"*::*O.33333333333333OOO@*:X++++++++++X:*@O..33333333333333..**:*",
"*::*O.33333333333333OOO@O*&=+&==+=&+&&*O@O..33333333333333..O***",
"*::*O.33333333333333OOO@OO&=o&=&o=&o&&OOO...33333333333333..O***",
"**:*OO33333333333333OOOOOOo&oo&oo&oo&oOOO...33333333333333..O**O",
"**:*OO33333333333333OOO.OOo&+o&oo&o+&oOO..O.33333333333333..***O",
"***OO.33333333333333OOO..+Oo+oooooo+oO+...OO33333333333333..O**O",
"O**OO.33333333333333OOO...++++oooo++++...OO.33333333333333..O**O",
"O:*OO.33333333333333.OO.....++++++++......O.33333333333333..O**O",
"*:*O..33333333333333O...OO............OOO...33333333333333..O**O",
"*:**..OOOOOOOOOOOOOOOO***::::::::::::::***OOOOOOOOOOOOOOOO..O*OO",
"O:*O...OOOOO..OOOOOOOOO***::::::::::::***OOOOOOOOO..OOOOO...O*OO",
"O**O.........OOOOOOOOOOOOOOOO......OOOOOOOOOOOO.......OO....OOOO",
"O*O...............OOOOOOO........OOOO...OOO...OO............OOOO",
">>>>>>>>>>>>>>>>;$2222222211111111111111111<,,$;>>>>>>>>>>>>>>>>",
";;;;;;>>;;;;;-;;-$1<<<<<111111111111111<<<<<<,$-;;-;;;;;>>;;;;;;",
";;--;>>;;>>;;;---$1<<<<111111<<<<<<<<<<<<<<<<,$---;;;>>;;>>;--;;",
";--;;;;;;;-------$1<<<<<<<<<<<<<<<<<<<<<<<<<<,$-------;;;;;;;--;",
";;;;;-;;;;;;--;--$1<<<<<<<<<<<<<<<<<<<<<<<<<<,$--;--;;;;;;-;;;;;",
";;---;;;--;--;---$1<<<<<<<<<<<<<<<<<<<<<<<<<<,$---;--;--;;;---;;",
"---;;>>;;--;-----$1<<<<<<<<<<<<<<<1111111<<<<,$-----;--;;>>;;---",
";--->>;----------$<1<<<<<<1111<1111111<<<<<<<,$----------;>>---;",
"%%%%%%%%%%%%%%%%%%%%%%%%%%%%%%%############%%%%%%%%%%%%%%%%%%%%%",
"%%%%%%%%%%%%%%####%%######%%####################%##%%%%%%%%%%%%%"
};
