/* XPM */
static const char *vault_side_off[] = {
/* columns rows colors chars-per-pixel */
"64 64 15 1 ",
"  c #101D25",
". c #182C39",
"X c #2C2D3B",
"o c #373B35",
"O c #323540",
"+ c #2A4455",
"@ c #454A42",
"# c #586058",
"$ c #406278",
"% c #6C716B",
"& c #6F8282",
"* c #819A9B",
"= c #9DB6B6",
"- c #AFC9C9",
"; c None",
/* pixels */
"%%%%%%%%%%%%%#@#######%%%%%%%%%%%%%%%%%%%%#######@#%%%%%%%%%%%%%",
"#####%%%%%%%%%o@#######%%%%%%%%%%%%%%%%%%########o%%%%%%%%%#####",
"#######%%%%%%%o@@@#######%%%%%%%%%%%%%%#########@o%%%%%%%#######",
"######%%%%##%%o@@#@@########%%%%%%%%########@###@o%%##%%%%######",
"####%%%####%%#@o@@@@@@@###################@@@##@o@#%%####%%%####",
"#@###%%%#####%#o@@@@@@##################@@@@#@@@o#%#####%%%###@#",
"@#######%%#####@o@##@@@@#############@@@@@@###@o@#####%%#######@",
"@@@@#####@@#####@o@###@@@@########@@@@##@###@@o@#####@@#####@@@@",
"@@@###@@####@####@oo@@@@@@@@@@@@@@@@@##@@@@@oo@####@####@@###@@@",
"@@@@@@#@@@@@##@@###@oooo@@@@@@@@@@@@@@@@oooo@####@##@@@@@#@@@@@@",
"                                                                ",
"                                                                ",
"...                                                           ..",
"....          ....................................           ..+",
"..+.    . ;;;;;;;;;;    ;;;;;;;;;;;;;;;;    ;;;;;;;;;;  .   ..++",
".++.   .. ;;;;;;;;;; .  ;;;;;;;;;;;;;;;; .. ;;;;;;;;;; ..   +.++",
".+++   ...;;;;;;;;;; .. ;;;;;;;;;;;;;;;;... ;;;;;;;;;; ...  ++++",
"+++.   ...;;;;;;;;;;... ;;;;;;;;;;;;;;;;... ;;;;;;;;;;....  ++++",
"+$+.  ... ;;;;;;;;;;... ;;;;;;;;;;;;;;;;... ;;;;;;;;;;....  ++$+",
"+$++  ... ;;;;;;;;;;... ;;;;;;;;;;;;;;;;... ;;;;;;;;;; ...  ++$+",
"+$++  ... ;;;;;;;;;; .. ;;;;;;;;;;;;;;;;..  ;;;;;;;;;; ..   ++$+",
"+$$+  ... ;;;;;;;;;; .. ;;;;;;;;;;;;;;;; .  ;;;;;;;;;; ..   +$$+",
"+$$+  ....;;;;;;;;;; .  ;;;;;;;;;;;;;;;; .  ;;;;;;;;;;...   +$$+",
"+$$+  ... ;;;;;;;;;;    ;;;;;;;;;;;;;;;;    ;;;;;;;;;;...   +$$+",
"+$$+  ...   .......  ..........  ......   ...............   +$$+",
"+$$+  ..  ....++++..+++++++.++++........++++++...........   +$$+",
"+$$.  ..   ...........++++.......    ......++.............  +$$.",
"+$$.  ..    ...                             .        .....  +$$+",
"+$$.  ... ;;;;;;;;;; .  ;;;;;;;;;;;;;;;; .  ;;;;;;;;;;....  +$$+",
"+$$+  ... ;;;;;;;;;;... ;;;;;;;;;;;;;;;;..  ;;;;;;;;;;....  +$$.",
"+$++  ....;;;;;;;;;;... ;;;;;;;;;;;;;;;;..  ;;;;;;;;;;...   +$$.",
"+$++  ....;;;;;;;;;;... ;;;;;;;;;;;;;;;;... ;;;;;;;;;;...   +$+.",
"++++  ... ;;;;;;;;;;... ;;;;;;;;;;;;;;;;... ;;;;;;;;;;...   +$++",
"++++  ... ;;;;;;;;;;..  ;;;;;;;;;;;;;;;;. . ;;;;;;;;;;...   +$++",
"++++  ... ;;;;;;;;;; .  ;;;;;;;;;;;;;;;;  . ;;;;;;;;;; ..   ++++",
"++++  ... ;;;;;;;;;;    ;;;;;;;;;;;;;;;;    ;;;;;;;;;; ..   .+++",
"+$++  ...    .......+++++++++++++++++++++++......   .. ..   .+$+",
"+$++  ... .......+++++$$$$$$$$$$$$++$$$$$$+++............   ++$+",
"+$$+  ..  ....    ...++++++++++++++++++++.....    ........  ++$.",
"+$$+  ..   .          ..++++........++.....         ......  ++$.",
"+$$+  ..  ;;;;;;;;;;    ;;;;;;;;;;;;;;;;    ;;;;;;;;;;....  ++$.",
"+$$+  ... ;;;;;;;;;; .. ;;;;;;;;;;;;;;;; .  ;;;;;;;;;;....  ++$+",
"+$$+  ....;;;;;;;;;;... ;;;;;;;;;;;;;;;; .. ;;;;;;;;;;.. .  .+++",
"+$$+  ....;;;;;;;;;;... ;;;;;;;;;;;;;;;;... ;;;;;;;;;; . .  .+++",
"++$+  ... ;;;;;;;;;;... ;;;;;;;;;;;;;;;;... ;;;;;;;;;; .    .++.",
"++$+   .. ;;;;;;;;;;... ;;;;;;;;;;;;;;;;... ;;;;;;;;;;..    +++.",
"+++.   .. ;;;;;;;;;;..  ;;;;;;;;;;;;;;;; .. ;;;;;;;;;;..    .++.",
".++.   .. ;;;;;;;;;; .  ;;;;;;;;;;;;;;;; .. ;;;;;;;;;;.     .++.",
".$+.   .  ;;;;;;;;;; .  ;;;;;;;;;;;;;;;; .  ;;;;;;;;;;.     .++.",
"+$+.      ;;;;;;;;;;    ;;;;;;;;;;;;;;;;    ;;;;;;;;;;      .++.",
"+$++           ...  .................................       .+..",
".$+.             .....+++++++++++.++++++++.......           .+..",
".++.            ........++++++++.....++++.........          ....",
".+.                 .  ...        ..........                ....",
"%%%%%%%%%%%%%%%%#o--------=================*&&o#%%%%%%%%%%%%%%%%",
"######%%#####@##@o=*****===============******&o@##@#####%%######",
"##@@#%%##%%###@@@o=****======****************&o@@@###%%##%%#@@##",
"#@@#######@@@@@@@o=**************************&o@@@@@@@#######@@#",
"#####@######@@#@@o=**************************&o@@#@@######@#####",
"##@@@###@@#@@#@@@o=**************************&o@@@#@@#@@###@@@##",
"@@@##%%##@@#@@@@@o=***************=======****&o@@@@@#@@##%%##@@@",
"#@@@%%#@@@@@@@@@@o*=******====*=======*******&o@@@@@@@@@@#%%@@@#",
"OOOOOOOOOOOOOOOOOOOOOOOOOOOOOOOXXXXXXXXXXXXOOOOOOOOOOOOOOOOOOOOO",
"OOOOOOOOOOOOOOXXXXOOXXXXXXOOXXXXXXXXXXXXXXXXXXXXOXXOOOOOOOOOOOOO"
};
