/* XPM */
static const char *vault_top_ejecting[] = {
/* columns rows colors chars-per-pixel */
"64 64 15 1 ",
"  c #05040E",
". c #0C0A15",
"X c #120F1B",
"o c #101D25",
"O c #251F2E",
"+ c #182C39",
"@ c #2C2D3B",
"# c #373B35",
"$ c #323540",
"% c #3A4045",
"& c #2A4455",
"* c #586058",
"= c #406278",
"- c #6C716B",
"; c #6B8799",
/* pixels */
"------------------*****#+&&&&&&&&&&&&&&+#***--------------------",
"----------**************#+&&&&&&&&&&&&+#**********--------------",
"--%%%%%%%%$%%%%%%%%%%%%%%%+&&&&&&&&&&+$$$%%%%%%%%%$$%%%%%%%%%%--",
"--%%%%%$$$%%$$%%%%%%$$$%%%%$++&&&&++$$$$%%%%%%$%%%%$$$%%%%%%%%--",
"--%%%$$$%%%$$%%%%%%%%%%%$$%%$$%$$$$$$$$$$$$$%%%$$%%%%%$$$$%%%%--",
"--%%$$%%%%%%%%%%$$$$$%%%%$$$%%$$$$$$$$$$$$$@@$%%$$$%%%%%%$$$%%--",
"--%%$$$%%%$$$$$$$$$$@@@@@@$$$$$$$$$$$$$$$$$$@@@@@$%%%%%%%%$$$%--",
"--%$$%%%$%%$$$@@@@@@@@@@$$$$$$$$$$@@$$$$@@@@@@@$$$$$%$$%%%%$$%--",
"--%$$%%$+++++++++o&==+....................+==&o+++++++++%%%$$$--",
"--%%$$%$+++++++++o&==&...XXXXXXXXXXXXXX...&==&o+++++++++$%%%$$--",
"--%%$%%%+++++++++o===&.XXXXXXXXXXXXXXXXXX.&===o+++++++++$%%%%$--",
"--%%%%%%+++++++++o===&XXXXXXXXXXXXXXXXXXXX&===o+++++++++%%%%%$*-",
"--%$%%%%+++++++++o===&XXXXXXXXXXXXXXXXXXXX&===o+++++++++$%%%$%*-",
"--%$%%$%+++++++++o===&XXXXXXXXXXXXXXXXXXXX&===o+++++++++$%%%%%*-",
"--$$%%$$+++++++++o;==&XXXXXXXXXXXXXXXXXXXX&==;o+++++++++$$%%%%*-",
"--$$%%%$+++++++++o;==&XXXXXXXXXXXXXXXXXXXX&==;o+++++++++@$%$%%**",
"--$$%$%@+++++++++o;==&XXXXXXXXXXXXXXXXXXXX&==;o+++++++++@$%$%$*-",
"--$$$$$@oooooooooo;;;=XXXXXXXXXXXXXXXXXXXX=;;;oooooooooo@@%%$$*-",
"--$$$%$@=;;;;;;;;;OOO.XXXXXXXXXXXXXX.XXXXXXOOO;;;;;;;;;=@@$%$$*-",
"-*$$$%$@&========;OXX..XXXXXXXXXXXXX..XXXXX..O;========&@@$$$%*-",
"-*$$%%$@&========;OX...XXXXXXXXXXXX...XXXXX..O;========&@@$$%%**",
"-*%$%%$@&&&&===&&=XX...XXXXXXXXXXX....XXXX....=&&===&&&&$@$$%$*-",
"**%%$%%@      ....XX....XXXXXXXXXX....XXXX....  ...     $@$%$$*-",
"**$%$%%@       ...X.....XXXXXXXXXX.....XXX...   ...     $$$%$%*-",
"-*$$$%%$       ..........XXXXXXXXX.....XX....   ...     %$$%%%**",
"-*$$%%%%       ..........XXXXXXXX.......X....    ..     %$%%%%**",
"-*%$%%$%        ......  ..XXXXXXX...........     ..     %%%$%$**",
"**%%%%$$        .....   ..XXXXXXX...........     .      %%$$%$**",
"-*%%$%@$         ...     .XXXXXX..    ......            $%$$$$**",
"**%%$$@$         ...     ..XXX...       ...             $%$%$$**",
"**%$$$$@         ...     ........       ...             $%%%$%**",
"**%$$$$@         ..      ........        ..             $$%%$%**",
"**%$$%$$          .       ......         .              @$%$$%**",
"**$$$%$$          .        .....         .              @$$$%%**",
"**$$$$%$                     ..                         @%$$%$**",
"**$$%$%$                                                $%$%$%**",
"**$$%%%%                                                %%%%%%**",
"**$%%%%$                                                %%%%%%**",
"**$%%%$$                                                $%%%$%**",
"**$%%%$%                                                $%%%$%**",
"**%$%%%%                                                @%%%$$**",
"**%%%%$%                                                @$%%%$**",
"**%%$%$$&&&&===&&=                            =&&===&&&&$$$%%$**",
"**%%$%@$&========;O                          O;========&$@$%$$*-",
"**%%$$@@&========;O                          O;========&@@$$$$*-",
"-*%%$$@@=;;;;;;;;;OOO                      OOO;;;;;;;;;=@@$$$%**",
"**%%%$@@oooooooooo;;;=                    =;;;oooooooooo@$$$$%*-",
"-*%%%$$@+++++++++o;==&                    &==;o+++++++++@$$$%%*-",
"-*$%%%$@+++++++++o;==&                    &==;o+++++++++@$%$%%*-",
"-*$%%%$$+++++++++o;==&                    &==;o+++++++++@$%%%%*-",
"**%$%%$$+++++++++o===&                    &===o+++++++++$$%$%%*-",
"-*%$%%$$+++++++++o===&                    &===o+++++++++$%$$%%*-",
"-*$$%%%$+++++++++o===&                    &===o+++++++++$%$%%%*-",
"-*$$$%%$+++++++++o===&                    &===o+++++++++$%%%%%*-",
"-*%$$$%%+++++++++o&==&                    &==&o+++++++++%%%%%%--",
"-*%%$%%%+++++++++o&==+                    +==&o+++++++++%$%%%%--",
"-*$$%%%%%%%%%$$$@@@@@@@@$$%$@@@$$$$%%%$$$@@@@@@@$%%%%%%%$%%%%$--",
"-*%%%%%%%%%$$$@@@@@@$$$%%$$%%$$$$$$$%%%%%%$$$$$$$$$%%%%%%%%%%$--",
"--%$%%%%%$$$$$$$$$$$$$%%%%%%$$$$$%%%%$$%$$$$%$$$$$$$$$%%%%%$%$--",
"--%%$$%%%%$$$$$%%$$$$$$$$$%%%%$$$$%%%%$$$%%$$%%$$$$$%%%%%%%$$$--",
"--%%%%$$$$$$%%%%$$$$$$$$$%%$$$%%$$$%%%%$$$$%%%$$%%%%%%%%%$%$$%--",
"--%%%%%$$$%%%%$$$$%%%%%$$$%%$$$%%$$$$$%%%$%%$$$$$$%%%%%%%%$$%%--",
"---------************************************************-------",
"--------------------****************----**---*--****------------"
};
