/* XPM */
static const char *warped_door_top[] = {
/* columns rows colors chars-per-pixel */
"64 64 15 1 ",
"  c #113835",
". c #483F51",
"X c #1E4340",
"o c #1F5752",
"O c #2E5F51",
"+ c #287067",
"@ c #50485A",
"# c #534C5E",
"$ c #5E596B",
"% c #398382",
"& c #3A8E8C",
"* c #279994",
"= c #22B59E",
"- c #24A7AD",
"; c #32C9B1",
/* pixels */
"====--==--=====-----====--====-*--**;;%-====-==*;=**--==;;;==-**",
"==-=-=-----==--=**------=---===-*-=-===-----==-*=**----;=-----**",
"=-&+++++++++%%++oo%&%++%%%&%%%+O+&%==-OO+++%%++o%*-%%+%&&+&%+%Oo",
"=-&%++%%+++%++%+oO%&++%&+%&&%++OO&&=-OO+++%&+++O%*-*++%&%+&%+&Oo",
"=-%&%+%+++%%%+++oo+&+%&%+%+&%%++O%==O+O++%+&+%oOO%=-*++&%+&++&Oo",
"=-%+%%&%+++&&%%+oO+%+%&&+%+%%+++o&=-O+++%&+%+&ooOO%-*O+%++%++%Oo",
"=-&++%&&%+%&+&%%Oo++%+%&%+%&++OoO=-OOO+O+&O++&OoOOOO-*O++%%+%+Oo",
"=-+O+%+%%+&%++%+Oo%+&+%&%++%+OOo==-OO++O&&+O%%OOoO++O*--+O+++Oo*",
";===O+++%%%++%%+Oo&+&%&%%++OOOo==-OO++%+&%&O%+oO+O+%%O**--==--**",
";;;===+++++O++%+OO+%&+&%++OOO%==-O+OO+%+%+&O+++O+O%%+OOO***-=**o",
"--OO=--==OOOOO++oO%+%++%+++O-=--OO++O++%++%+O++o++%&+%O%&+%&%+Oo",
"--+OO+=-====OOOOoO+++O++OO==--OoO+++O+%&+O%&O%+o%+%&++%&%+&&+%Oo",
"--+O++OOOO-==--Ooo+O+OO+**--OOOoO+%+%++&+OO%+&OO+%&%O%&%+O&%O%Oo",
"--%++%OO+OOOO*--ooOOOO-**-OO++OOO+&+&%+&&O+O+&OO+%&O+&&%+O&+O&Oo",
"=-%+%%+O+++OOO**==-****-OOOO+%+o+%%++&+%&O%O%%oO%+&O++&+%O%+%&Oo",
"=-%%%%+++%%O++O**-=--OOOOO+O+&+O+&+O+%%+%+%+%++o%+&+%+%+%+%+&%oo",
"$$$#%%++%%OO+%+O-***O+O++O++%%++O%+O%&+O&%+%O+O++%%+%+O%&++&&+oo",
"$##@+%%+%+O++%++--*-O+++O+++%+%oO+%+&&O%&+O%O+O+O%++&O+%&%O%&+oo",
"$@#@+%+%%O++%++%O*-OO++%++%+&+&oO++O&+O%&+O+%OoOO%+&&O%&&+O+&+Oo",
"$#@@%++%++++%%+%O*-O+%+%+%+&&+%O+%++%++&&+O%&OXoO+%&%+%&%O%+%+oo",
"$#@.%%+%%+%+%+%%-**+%%&%+O+&%%+oO&+%&+%&%+OO%%Xo%+%&++%%++&++%oo",
"#@@.%+%%+%+%%%%%--*++%&&++O+&%++O&%+&+%&%%+O&%oX%+&%+%+%+%&+&%Oo",
"#@.@%+%+%%+%%%%+=-+O+&%&%+++&+++O&%+%++%+%&O&%Oo+%&+%%+%+%+O%&Oo",
"@...++%+%%+%%%++=O+O+&+%%+O+%O%O+%&+%%+%+%&+&OOo+%%O%&%+%&O++&Oo",
"=-+%+++%%%%+%%+==O++O++&++O++O&++%+%+%++O&&+%OoO%+%+&&%+&&O%+%Oo",
"--+++%%%+%%++%%=-O++OO+&%+OO%+&O+++%+&%O+&&%%O+O&++%&%+O&+%&%+oo",
"=-+%+%+%+%++O++-oO+++O+%&%+O+&%O+O++&&+O+%&%%+OO&%O%&++O%+%&&+oo",
"--++%%+%+++OOO--oO+%++%&&%%++%++OO++&%OO%+%&++OO&&O+%+%OO%+%&+Oo",
"--%+%+++%+OOO=-=oO+%&+%&+%&+++%+O+&+&+%O%+&%+%Oo%&%O&O%+O%++%+Oo",
"--%%++O++O====-OOO%+%+%%++&+%+%+O+%&%&%+%+&+%%Oo+%++&O&%+&+%--oo",
"=-+++OOO==---OO+OoO++%&+O+%&+++o+++&+&+%++%O&+ooO%+%++&+%&-===oo",
"=-++OO===---OOO+oO+O++&+O%+%+%+o+%+%+%+%+%+O%+XOO+%%+&%+--==OOoo",
"--+O==--OOOO++O+oo+OO+%OO&++%&+oO&%O+%+++&%+O%XO%O&+%&--==OO+OoO",
"*-===-=O+OO++O+++O+O+&%O%&++&%+oO&%O&%%+%&&++%OO%+%O%-===OO++OoO",
"*---OOO++O+++O++O+++O%&O+&%+&+%OO&++&&%O+%&%+%oo+%O+-==OOO++++oO",
";--OOO++O++%+++%O+&+O+&+O+%+&+%oO%+O+&%O+%+%%+Oo+&O-=OOOO+O++OoO",
"--O+O++++++%++%+O+&%++%%++&%&+%OO+OO+%%OO%+&%++oO---O+OO++%%++Oo",
"-=+++++%++%&%+%+++%+++%&+%&&%++OO++O&%+O++%&%++O---O+++O+%&+%+Oo",
"==+++++%+++&%&%++O%++O+&%%%&&%+Oo+OO&+%%++%&+O+O-OOO++%+O+&+&%Oo",
"=-++%+%%+O+&&%++OO++++O%&%+%&%+oo%O+&+%&%+&%%OoOOO+%+%+OO+++&%Oo",
"--O+%+%%%OO%&%+%oO+%+OO+&%+%+%%XO%++%&%----%%+oOO++O%&+O+&+%&+oo",
"--++%%+&%+O+&&%%oO+&OO++%&%+++%oO++%%-==-==-%%Oo++OO&&+++%&+%+Oo",
"--+%&%+&%%O+%&%+oX%&%OO%%&&+%+%oo+%==-%oo--==%Oo%+O%&%+%++&+++oO",
"=-+%&+%&+%O+%&%+oX&+%O+&+%&%&+%Xo%==-%oooo%-==OO&++&%++%%+%++%oO",
"--%&&%%&+%+O+&%+oX&++O%%++&%&++X%=-%ooooOoooO-oO+%++&++&%++%+=oo",
"=-%&+%&%+++O&&++Xo%+O++%++%+%%+o-=%ooOoOOoOOo%XO+&++%+%&++%&==oo",
"=-%&+%+%++%+&%+%XX%+O++%+%&O%+Oo--ooo+O+OOo+OOoX-%+%+%&%+%&-=-oo",
"--&&%&O++%%&%%+%oX&+OO+%%+%OO+Oo=-oOo+++OOO+O+XX--%&+&&++--=-%oo",
"=-&%&&O%+&%&&%%+Oo&%+O%+%&%%O++=-%o+OO+%O+O++OXo%---%%&+--=%%%oo",
"=-+%&+O%%&%+&%%+O+%&%O&+&&&%O+%=%OO+O+%%++OO++Xo%+%--==-==%++%oo",
"=-%%&&+%&&&%&&%++O+%%+%+%%&%+O=-ooOO++%++++O++oo++++%-==-%++O+oO",
"=-%+%&%%%&&%%+%%Xo++&+%%&+&%%+--oooO+%%++O+O+Ooo+O+%%%--%%+OO+oO",
"--&+%&&+&%&&%+&&XX%+&%%&&+%+%=-%oOo+++%O+O+++OXo++O+%++%+%+O+OoO",
"--&O&%&+&%+%++&&oX+%&+%&%++O%==oo+O++O++OO+%+Ooo++O+++%%+O+O+OoO",
"--&O&%&%&%O%+&&%oo+&&+%&%%O+%=OoO+++OO++O+%+++XoO+Oo++%O+OO++Ooo",
"--&+O%&%&&+O+&&+Oo+&%++&%%O%%=OXOO++O++OO+%+O+XooOOoo++O++O+O+oo",
"=-%&+%%%%&+O%%&OOX%&%+%&%O+%-=+XoO+OOO+O++%%+OXXoooooOOoO+OOOOoo",
"--%&%&%&%&%+%&+OoX%%++%&&+%&--+XoO++OOO++++%+Ooo+%&&ooOoO++OOooo",
"--%%&&%+%&&&%&OOXo+%%++%&+%&-=+oo++++O%+O+++OX+%==--%%XooO+OOooo",
"--%%&%&+O%&%%&+OXo++%%+%&%&%=-+oO++++O%++O+OX%==-&&&&%+XoO+Ooooo",
"$$$#&%&&O&%+%%+Oo+++%%+&%&&%=-+XOO+%+%+++OOX%=-&&&&%&&%+XoOOoooO",
"$##@%%&%+&%+%+%+OO+%+%+&%+&%=++oo+++%%++++OX&&%&&&&&%%++XooOOooO",
"$@#@&%&%&&+%&+%+Oo+&+%&&%++%-++oO++O%+++O+X+%&&%%&%%+%%++ ooOooo",
"$#@@&%&%&%+%&%&+oO%%&%&%+%+-=%+oOO+OO+O+OOX%&&%%&&&%%++++ oooooo"
};
