/* XPM */
static const char *warped_stem_top[] = {
/* columns rows colors chars-per-pixel */
"64 64 14 1 ",
"  c #442131",
". c #4B2737",
"X c #562C3E",
"o c #452D5C",
"O c #1F5752",
"+ c #2E5F51",
"@ c #16615B",
"# c #136C68",
"$ c #287067",
"% c #118066",
"& c #14956F",
"* c #398382",
"= c #3A8E8C",
"- c #369D91",
/* pixels */
" . .   o%o      .......  o@o..X....o#o...XXX.....@o......XX...XX",
" X.... o&%o .......  ... o#@oXXXXX.o%#o.XXX..XXXo#@o.XXX..XXXX..",
".X..  o%&&o  .........  o@##o.XX..o%%#%o..XXXXX.o##@o.XXXX...XX.",
"...  o%&%o    ....     o@#@#@o...o##%%##oo.....o@#@#o  .X.  ....",
". . ------===-----=***==--====*$**==********===*====--===--= . .",
".   -==***********************$$$*******$$$$*******==*****=- .  ",
"..  -=*==***$$$$***===*$$**==*=******$$****==****==******=*- .. ",
"..  -==**$$***$$$$***$$$**********$$$$************$$$$$$*=*- .X.",
" .  -*=*OOOOOO++OOOOOO++$++$$$++$$++++++$$++++$$+$++++++***-o.X.",
"   o-**$OOO++++++++++$$$$$$$$$$$$$$$$$$$$$$$$$$$$$$$++++***-@o..",
"ooo#=**$OO---------=--===--------=*===*=**==----------++$**-#@oo",
"####**=$OO-====********************************==**==-++$**-###@",
"o###=***O+-==*******$$$$****$$********************===-++***=@#@o",
" oo#=*=*O+-=*$**$$****$$$$*****$$$$**********$$$$***=-$+*$*=@o..",
".. o=$=*O+-*************====*****=====*==******$$$$**=$+$$**o.X.",
".X. =$**O+-***$*************************$$****$$**$$*=$+$$**..XX",
"XX..*$*$++-=*$$*+O++++$+++++$$++$$$$$++$++++++++$**$**$+$***X.X.",
"XXX.***$++==*$**O++$$$$$$$$$$$$$$$$$$$$$$$$$++++$*****$+$=**.XX.",
"XXX =***O+==*$**O+*=--------========******==*$++*****=$+*=*= XX.",
".XX =***O+=**$=*O+===*****************$$****=*++***$*=$+*=*= .X.",
" X. **=*O+****=*O+==*$$****$$$*********$$*****$+$**$*=$+***=o.XX",
" . o**=*O+=**=**O+=*$***********$$$*$$*******=$+$****=$+***=o.X.",
" .o#=*=$O+=$*=**++-*$=$$$$$$++$$++O+OO++$$***=$+$****=$$***=#o..",
"  o%-*=*O+*$*=**++=**=$$$$$$$$$$$$+++++++$***=$+$****=$$$**=%o. ",
" o%%-**$O+=****$O+-**=$$*==*====********$+***=$+***$**$+$***%#o ",
"o#%%-=*$O+=**=*$O+-***$$**********$$*$$*$+*$*=$+***$**$+$***%%#o",
"#%%#==**++-**=**O+=***$$**++++$$$$++++$*$$*$$*$+**=***$$***$%%%%",
"o###=***+$-**=**O+=*=*$$**+$$$$$$$$$++**$+*$$*$+**=$**$+**=$#%%#",
".oo#***$++-*==**O+=*=*$$**$$*****==*$+*=$$**$*$$**=**=$$**=$%#oo",
"X.oo*$*$+$-*==**O+=***+$**$$*******=$+*=$$**$*$$*==**=$$*$=$oo. ",
"X.X.=$*$+$-*==**++****$$**+$**$+$$*=$+*=$$**$*$+*==***$$*$** ...",
"XXX.=$*$$$-**=*$++****+$**+$**+$$+*=$+*=$$****$+*==***$$*$**... ",
".XX.=*=$$$-**=*$O+=**$+$=*+$=*++$+**$$**$$***=$$*=*$*=$+***$ .. ",
".X..=**$$$=*$**$++=**$+$**+$=*$++$**$$**$+**$=$$***$*=$+$**$ .  ",
".ooo=*=$+$**$**$++=***+$=*$$=*******$$*=$+**$*$+**=$*-$+$***oo  ",
"oo#@=*=*+$**$***++=***+$=*$$*====*=*$$*=$$**$*$$**=**-$+$*$*@#@o",
"@###=*=*O$=*$***++****+$**$$$$$$$$$$$$**$+****$+*****-$+$$$*###@",
"#@#@=***O+=*****+$=***+$**$$$$$$+++$$$**$+$***$+*****-$+$$$*#@oo",
"oo@#**$*O+=*$***+$=***$$****************$+$**=$+*****=$+$*$*@o  ",
"..o@**$*O+=*$=**++=***$$*******$$$$$*$**+O***=$+**=**=$+*=$*o  .",
".X.o**$$O+=**=**+$=***$$$$$$+++++++++++++O$**=*$**=$**$O$=**.X. ",
".XX.**$$O+=**=**+$=***$++$++++OO++++OOOOO+$**=*$**=$**+O$=**.XX ",
"XXX.**$$++**==**+$**$******$$$*$$$*****$$$***=*****$**+O*=*=XXX.",
"XXX.***$+$**=***+$=**$$**$$$$*********$$$****=*$***$**+O***=X.X.",
"X.XX****+$=*=**$+$=**************************=$$***$*=OO$***..X.",
"..XX*$**+$=**=*$+$*=**==******==**============$$**=$*=OO$**=.X..",
".XXX*$**$$=*****++$$+++++++++++++$$$$$$$$$$$$$$$**=**-OO***=oo..",
".XXX*$=*$$=*$*=*+++++OOO++OOOOOOOO++++$$++$+$$$$*==**-+O***-@%o.",
".XX.**=*$$-*$$=*****$$$$**********$$*************=*$*=$+$**-%%&o",
"..X.**=*$$-*$$********===****====*********=**===**$$*=$+$*=-%&&&",
"..X.***$+$-**$$*$$$*===*$$$*===***===******===****$$*=$$$*==@@%o",
".X.o*$*$+$-***********$$$*****$$$$$****$$*****$$*$$**=$$$*=-@oo ",
"..oo=$**+$-=*****************************************=$+$**=o . ",
".oo%=$*$++-----=**====----------========--==------====$+***=  ..",
"o%&%=**$++++$$$$$$$$$$$$$$$$$$$$$$$$++++++++++++$$$$$+++***- .. ",
"&&%o=***++++++++$$++$$$$+$++++$$++++++OOOOOO++OOO+++++++*$*- .X ",
"oo. =*$$*$$$**$$**********$$**$$$$****$*$$$$$$$$**$$$$***$*-.XX.",
"..X =**$$**==**$$$$**=**==*******$$$*=====*****===*****$$*=-..X.",
"..X.==****************$$$**===***************$$$********===-..XX",
".XX.========**==*=======****=---------====*===**==----------..XX",
" XXX.  .   o&&%o  ..    o@#@#o.....o#%%%###o .     o@#@o.X...XX.",
" .XXXX.X... %&&%   ..... o##@XX..Xo#%%%##oo......   o##@.XXXXXX ",
" .XXX....   o&%o ......   #@o.XXX.o##%#ooo.XXXXX..  o@##o.XXXX. ",
".X..    ..   o%o  ..      @o.......o##oooXXXX..      o#@o..X.. ."
};
