/* XPM */
static const char *weathered_chiseled_copper[] = {
/* columns rows colors chars-per-pixel */
"64 64 8 1 ",
"  c #6A7147",
". c #497164",
"X c #6E8552",
"o c #6C975C",
"O c #66A977",
"+ c #8D8770",
"@ c #71B189",
"# c #7AB799",
/* pixels */
"##########@@##@@@@@@@@####@@####################@@@@@@@@@@@@@@Oo",
"#@@@@@@@@@@@@@@@@@@@@@@@@@@@@@@@##########@@@@@@@@@@@@OOOOOOOOoX",
"#@OOOOOOOOOOOOOOOOOOOOOOOOOOOOOOOOOOOOOOOOOOOOOOOOOOOOOOOOOOOOX ",
"#@OOOOOOOOOOOOOOOOOOOOOOOOOOOOOOOOOOOOOOOOOOOOOOOOOOOOOOOOOOOOX ",
"#@OOOOOOOOOOOOOOOooooooooooooooooooooooooooooooOOOOOOOOOOOOOOOX ",
"#@OOOOOOOOOOOOOOoooXXXoooXXXXXXXXXXXooooXXXXXoooOOOOOOOOOOOOOOX ",
"#@OOOOO@##oOOOOOX ..............................OOOOO@##oOOOOOX ",
"#@OOOO@##@OoOOOO@X ............................@OOOO@##@OoOOOOX ",
"#@OOOO#@OOO OOOO@@X ..........................@@OOOO#@OOO OOOOX ",
"#@OOOO@OoOo OOOOO@#X ........................@@OOOOO@OoOo OOOOX ",
"#@OOOOoOOo  OOOOOO@#X                      .@#OOOOOOoOOo  OOOOX ",
"#@OOOOOo   OOOOOOOO##X                    .##OOOOOOOOo   OOOOO  ",
"#@OOOOOOOOOOOOOOOOOO##X                  .##OOOOOOOOOOOOOOOOOO .",
"#@OOOOOOOOOOOOOOOOOOO##X                .##OOOOOOOOOOOOOOOOOOOX.",
"#@OOOOoOOOOOOOOOOOOOOO##X              .##OOOOOOOOOOOOOOOoOOOOX.",
"#@OOOOooOOOOOOOOOOOOOOO##X            .##OOOOOOOOOOOOOOOooOOOOX.",
"#@OOOO.ooOOOOOOOOOOOOOOO##X          .##OOOOOOOOOOOOOOOo+.OOOOX.",
"#@OOOO..ooOOOOOOOOOOOOOOO##X        .##OOOOOOOOOOOOOOO++..OOOOX.",
"#@OOOO...ooOOOOOOOOOOOOOOO##X      X##OOOOOOOOOOOOOOO++...OOOO .",
"#@OOOO....ooOOOOOOOOOOOOOOO##XXXXXX##OOOOOOOOOOOOOOO++....OOOO .",
"#@OOOO.....ooOOOOOOOOOOOOOOO########OOOOOOOOOOOOOOO++.....OOOO .",
"#@OOOO .....ooOOOOOOOOOOOOOOO######OOOOOOOOOOOOOOO++. ....OOOOX.",
"#@OOOOX .....ooOOOOOOOOOOOOOOOOOOOOOOOOOOOOOOOOOO++.  ....OOOOX.",
"#@OOOOX  .....ooOOOOOOOOOOOOOOOOOOOOOOOOOOOOOOOO++.   ....OOOOX.",
"#@OOOOX   .....ooOOOOOOOX  .............OOOOOOO++.    ....OOOOX.",
"#@OOOOX    .....ooOOOOOO  ..............OOOOOO++.     ....OOOOX.",
"#@OOOOX     .....ooOOOOOX @@@@@@@@@@@O..OOOOO++.      ....OOOO .",
"#@OOOOX      .....ooOOOOX @@@@@@@@@@Oo..OOO+++.       ....OOOOX.",
"#@OOOOX       .....ooOOOXXOOOOOOOOOOoo..OO+++.        ....OOOOX ",
"#@OOOOX        .....ooOOXXOOOOOOOOOOoo..OO++.         ....OOOO  ",
"#@OOOOX         ....ooOOX OOOOOOOOOOoo..OO++          ....OOOO .",
"#@OOOOX          ...ooOOX OOOOOOOOOOoo..OO++          ....OOOO .",
"#@OOOOX           ..ooOOX OOOOOOOOOOoX..OO++          ....OOOOX.",
"#@OOOOX            .ooOOXXOOOOOOOOOOoX..OO++          ....OOOOX.",
"#@OOOOX            XOoOOXXOOOOOOOOOOoo..OO+OX         ....OOOOX ",
"#@OOOOX           X@@OOOXXOOOOOOOOOOoX..OOO@OX        ....OOOOX ",
"#@OOOOX          X@#OOOOXXooooooooooXX. OOOO@#X       ....OOOOX ",
"#@OOOOX         X@#OOOOOXXoooooooooXXX XOOOOO##X      ....OOOOX ",
"#@OOOOX        X##OOOOOOXXXXXXX       XXOOOOOO##X     ....OOOOX ",
"#@OOOOX       X##OOOOOOOXXXXXXXXXXXXXXXXOOOOOOO##X    ....OOOOX ",
"#@OOOOX      X##OOOOOOOO@##############@OOOOOOOO##X   ....OOOOX ",
"#@OOOOX     X##OOOOOOOOO@@@@@@@@@@@@@@@@OOOOOOOOO##X  ....OOOOX ",
"#@OOOOX    X##OOOOOOOOOOOOOOOooooooOOOOOOOOOOOOOOO##X ....OOOO  ",
"#@OOOOX   X##OOOOOOOOOOOOOOOooooooooOOOOOOOOOOOOOOO##X ...OOOO  ",
"#@OOOOX  X##OOOOOOOOOOOOOOOoo .....ooOOOOOOOOOOOOOOO##X ..OOOO  ",
"#@OOOOX X##OOOOOOOOOOOOOOOoo   .....ooOOOOOOOOOOOOOOO##X .OOOO  ",
"#@OOOOXX##OOOOOOOOOOOOOOOoo     .....ooOOOOOOOOOOOOOOO##X OOOOX ",
"#@OOOOX##OOOOOOOOOOOOOOOoo       .....ooOOOOOOOOOOOOOOO#@XOOOOX ",
"#@OOOO##OOOOOOOOOOOOOOOoo         .....ooOOOOOOOOOOOOOOO#@OOOOX.",
"#@OOOO#OOOOOOOOOOOOOOOoo           .....ooOOOOOOOOOOOOOOO@OOOOX.",
"#@OOOOOOOOOOOOOOOOOOOoo             .....ooOOOOOOOOOOOOOOOOOOO .",
"#@OOOOOOOOOOOOOOOOOOo+               .....ooOOOOOOOOOOOOOOOOOOX.",
"#@OOOOO@##oOOOOOOOO++                 .....ooOOOOOOOO@##oOOOOOX.",
"#@OOOO@##@OoOOOOOO++                   .....ooOOOOOO@##@OoOOOO .",
"#@OOOO#@OOO OOOOO++                     .....ooOOOOO#@OOO OOOO .",
"#@OOOO@OoOo OOOO++                       .....ooOOOO@OoOo OOOO .",
"#@OOOOoOOo  OOO++                         .....ooOOOoOOo  OOOO  ",
"#@OOOOOo   OOO++XXXXXXXXXXXXXXXXXXXXXXXXXX .....ooOOOo   OOOOO  ",
"#@OOOOOOOOOOOOOO@#############@###############@@OOOOOOOOOOOOOO  ",
"#@OOOOOOOOOOOOOOO@@@@@@@@@@@@@@@@@@@@@@@@@@@@@@OOOOOOOOOOOOOOOX ",
"#@OOOOOOOOOOOOOOOOOOOOOOOOOOOOOOOOOOOOOOOOOOOOOOOOOOOOOOOOOOOOX ",
"#@OOOOOOOOOOOOOOOOOOOOOOOOOOOOOOOOOOOOOOOOOOOOOOOOOOOOOOOOOOOOX ",
"#o       XoXXXXXXXXXX    X XXX     XXXXXXXXXXXXXXXXXXX     XXXX ",
"@ . ..  ....          ......  ....  XXXX  XX   X   ...  ..      "
};
