/* XPM */
static const char *weathered_copper_bulb_lit[] = {
/* columns rows colors chars-per-pixel */
"64 64 13 1 ",
"  c #6A7147",
". c #497164",
"X c #C77C4A",
"o c #748D57",
"O c #6C975C",
"+ c #64A077",
"@ c #66A977",
"# c #E09735",
"$ c #8D8770",
"% c #ECAA4F",
"& c #F5D07A",
"* c #70B088",
"= c #7AB799",
/* pixels */
"============@@======@@=@@@@@@@============@@@===@@=@@@+++++++++$",
"==@@@@@@@@@@@@@@@@@@@@@@@@@@@@@@@@@@@@@@@@@@@@@@@@@@@+OO++OOOO$ ",
"=@@@++@@+++++++++OO+O++OOO++++@@@+++@@++O$OOO+O+ooOooOoOOOOooo  ",
"=@@+@@@++++O++++++OO++OO+++++@++++@@@++OOO$$OO+++ooOooOOOooOoo  ",
"=@@@+++++OO++OOoXXXXXXXXXXXX++++@@++XXXXXXXXXXXXo++OOoooOOoooo  ",
"=@@+@++O++OOO+oo#%%%%%%%%%%#++@@@+++#%%%%%%%%%%# oO+OOooooOOoo  ",
"=@++++O@==oO++oo#%%%%%%%%%%%@@@+++$$%%%%%%%%%%%#  OOo@==oooooo  ",
"=@+++O@==@+oOOoo#%%%%%%%%%%%+@@@+O$O%%%%%%%%%%%#  oo@==@+ooooO  ",
"=@+OOO=@+++ OOoo#%%%%%%%%%&&@++OOOO$&&%%%%%%%%%#  oO=@+++ ooOO  ",
"=@++OO@+o+o OOoo#%%%%%%%&&&&++++OO$$&&&&%%%%%%%#  OO@+o+o ooOO  ",
"=@OO++o++o  oooo#%%%%%%&&&&&@@OO$$$$&&&&&%%%%%%#  ooo++o  oOoO  ",
"=@+OO++o   OOooo#%%%%%%&&&&&@OO$$$$$&&&&&%%%%%%#  Oooo   ooOoo  ",
"=@+++OOooOOooooo#%%%%%&&&&&&@+$$$$$$&&&&&&%%%%%#  OOooooooOOoO  ",
"=@++OOOOooooooo #%%%%%&&&&&&+$$O$$$O&&&&&&%%%%%#  OOOoooooOOOo  ",
"=@+O+ooo        #%%%%%&&&&&&$@@$OO$$&&&&&&%%%%%#          ooOo .",
"=@OOooo         #%%%%%&&&&&&@@$$$OO$&&&&&&%%%%%#           ooO .",
"=@oOX###########%%%%%%&&&&&&++$OO$$O&&&&&&%%%%%%###########XOO  ",
"=@ooX%%%%%%%%%%%%%%%%%&&&&&&+O++OO$$&&&&&&%%%%%%%%%%%%%%%%%XOo  ",
"=@OoX%%%%%%%%%%%%%%%%&&&&&&&O++OOOOO&&&&&&&%%%%%%%%%%%%%%%%Xoo .",
"=@oOX%%%%%%%%%%%%%%%%&&&&&&&OOOO++OO&&&&&&&%%%%%%%%%%%%%%%%Xoo .",
"=@OOX%%%%%%%%%%%%%%%&&&&&&&&OO+OO+++&&&&&&&&%%%%%%%%%%%%%%%Xoo .",
"=@OOX%%%%%%%%%%%%%&&&&&&&&&&OOO+++++&&&&&&&&&&%%%%%%%%%%%%%XOo .",
"=@OOX%%%%%%%&&&&&&&&&&&&&&&&+@++++++&&&&&&&&&&&&&&&&%%%%%%%XOO .",
"=@O+X%%%%%&&&&&&&&&&&&&&&&&&@++O++OO&&&&&&&&&&&&&&&&&&%%%%%XoO .",
"=@++X%%%%&&&&&&&&&&&&&&&&&&&+OO++++O&&&&&&&&&&&&&&&&&&&%%%%Xoo .",
"=@++X%%%%&&&&&&&&&&&&&&&&&&&OO+++OOO&&&&&&&&&&&&&&&&&&&%%%%Xoo .",
"=@+OX%%%&&&&&&&&&&&&&&&&&&&%OooooooO%&&&&&&&&&&&&&&&&&&&%%%XOo .",
"=@+OX#%%&&&&&&&&&&&&&&&&&&%%oooooooo%%&&&&&&&&&&&&&&&&&&%%#XOo .",
"=@++@+@@@@@@++@@++++@@OO++Oo........*@+OOOOOOOooO$$OOOOoooOoOO .",
"=@@+@@@@@@@++@@@@++@@++OOOoo........**OO++OOooO$$O$$OOoooOooOO .",
"=@@@+@@@@@@@@@+++@@+++OOOOoo........**+++OoooO$$OOOOOOooOOoOOo .",
"==@@@@@=@@@@@++@@@++++++OOoo........**++OOOoooOOOOoOOoOoOOO+Oo .",
"===@@==@@@@++@@@++@@OOO++Ooo........**+OO+OOOOOO++OoooOOOO++oo  ",
"==@@==@@@@@@++@++@@OO++OOOoo........**O+OO++OOOOO++OoOOOOO+Ooo  ",
"====@@@==@@@@@@@@+++++OOOOoo........**+++++++OO+++@++@@OO+OOoO .",
"=====@==@@@@@@@++++++OOO$$Oo........*@@@+@++OO++@@++@@OO++OoOO .",
"====X#%%&&&&&&&&&&&&&&&&&&%%********%%&&&&&&&&&&&&&&&&&&%%#XOO  ",
"====X%%%&&&&&&&&&&&&&&&&&&&%@******@%&&&&&&&&&&&&&&&&&&&%%%#O+  ",
"===@X%%%%&&&&&&&&&&&&&&&&&&&O$$OO@@+&&&&&&&&&&&&&&&&&&&%%%%#++  ",
"=@==X%%%%&&&&&&&&&&&&&&&&&&&$$OO@@++&&&&&&&&&&&&&&&&&&&%%%%#++  ",
"=@@@X%%%%%&&&&&&&&&&&&&&&&&&$OO+++@+&&&&&&&&&&&&&&&&&&%%%%%#+O  ",
"=@@@X%%%%%%%&&&&&&&&&&&&&&&&OOOOO++O&&&&&&&&&&&&&&&&%%%%%%%#+O  ",
"=@@+X%%%%%%%%%%%%%&&&&&&&&&&OO++OOO+&&&&&&&&&&%%%%%%%%%%%%%#OO  ",
"=@@+X%%%%%%%%%%%%%%%&&&&&&&&O++OOO+@&&&&&&&&%%%%%%%%%%%%%%%#OO  ",
"=@+@X%%%%%%%%%%%%%%%%&&&&&&&OO++++++&&&&&&&%%%%%%%%%%%%%%%%#O+  ",
"=@++X%%%%%%%%%%%%%%%%&&&&&&&++++++++&&&&&&&%%%%%%%%%%%%%%%%#++  ",
"=@+OX%%%%%%%%%%%%%%%%%&&&&&&@++@+@@@&&&&&&%%%%%%%%%%%%%%%%%#++  ",
"=@OOX###########%%%%%%&&&&&&++@@++@@&&&&&&%%%%%%############O+  ",
"=@+O+++++++++++o#%%%%%&&&&&&@@@@@@+O&&&&&&%%%%%#+@@@@@@@@@@@+O .",
"=@+OO+++++++++o #%%%%%&&&&&&@@@@@+++&&&&&&%%%%%#O+@@@@@@@@@O+O  ",
"@@++OOoOOOOOoo  #%%%%%&&&&&&+@@+++++&&&&&&%%%%%#OOO++++O+++OOO  ",
"@@++OoOOOOooOO  #%%%%%&&&&&&@+@@++OO&&&&&&%%%%%#OO@++@O+++OOOO .",
"=@+OooO@==oOO+  #%%%%%%&&&&&+++OO++O&&&&&%%%%%%#OO@+@@==oOOO+O .",
"=@+OOo@==@+o++  #%%%%%%&&&&&+@OO++O$&&&&&%%%%%%#OO++@==@+o+O++ .",
"=@OOoo=@+++ OO  #%%%%%%%&&&&@++$$$$O&&&&%%%%%%%#OO@@=@+++ ++O+ .",
"@@Oooo@+o+o oO  #%%%%%%%%%&&++OO$$OO&&%%%%%%%%%#OO+@@+o+o O+++ .",
"=@ooooo++o  Oo  #%%%%%%%%%%%+OO$OO$$%%%%%%%%%%%#OO@@o++o  OO+O  ",
"=@oooOOo   Ooo  #%%%%%%%%%%%O$$$$OO$%%%%%%%%%%%#OO@@+o   O+O+O  ",
"=@oOOOoOOooooo  #%%%%%%%%%%#$$OOO$$O#%%%%%%%%%%#O@++OO+++OO++O .",
"=@ooOOOooooooOO XXXXXXXXXXXX$OOO$OO$XXXXXXXXXXXX++++O@++OOO+OO .",
"@@oooooooooOOO++@@++@+++O$$$OO$$$$OO$$OooOOO++++++@@@+OOOOOOOO .",
"@@oooooooOOoOOO++@@@++OOOO$$O$$$OOO$$OooOOO+OOO+@@+@OO+OOOOOOO .",
"@o   oooo  o                                                  . ",
"o   ...   ..    ..  ....        ......    .. .....  ....  ....  "
};
