/* XPM */
static const char *weathered_copper_door_top[] = {
/* columns rows colors chars-per-pixel */
"64 64 13 1 ",
"  c gray20",
". c #4D5046",
"X c #6A7147",
"o c #497164",
"O c #686868",
"+ c #708050",
"@ c #748D57",
"# c #6C975C",
"$ c #64A077",
"% c #66A977",
"& c #8D8770",
"* c #7AB799",
"= c None",
/* pixels */
"***********************************%**********************%%%%%%",
"*%%%%%%%%%%%%%%%%%%%%%%%%%%%%%%%%%%%%%%%%%%%%%%%%%%%%%%%%%%%%%%%",
"*%%%%%%%%%%%%$%%%%%%%%%%%%%%%$$$$$%%%%%%%$$$$$$$#$$$$$$$$$$$$$%%",
"*%%%%%%%%%%%$%%%%%%%%%%%%%%%$$$$$%%%%%%%$$$$$$##$$$$$$$$$$$$$$%%",
"*%%%%%%%%%%$$%%%%%%%%%%%%%%$$$$$%%%%%%%$$$$$###$$$$$$$$$$$$$$$%$",
"*%%%%%%%%%$$%%%%%%%%%%%%%%$$$$$%%%%%%%$$$$####$$$$$$$$$$$$$$$%$$",
"%%%%%%%%%$$%%%%%%%%%%%%%%$$$$$%%%%%%%$$$########$$$$$$$$$$$$%%$$",
"*%%%%%%%$$%%%%%%%%%%%%%%$$$$$%%%%%%%$$##############$$$$$$$%%%$#",
"*%%%%%%$@@++++++XXXXXXXXXXXX++++X++XXXXXXXXXXXXX++++XX++$$%%%%$#",
"*%%%%%$$@+++XXXXXXXXXXXXXXXXXX+XXXXXXXXXXXXXXXXXX+XXXXX+$%%%%%##",
"*%%%%$$%@+$$$$$%%==============================$%$$$$$+@%%%%%%#@",
"*%%%$$%%++$$$$$$%%============================*%$$$$$$+@%%%%%%#@",
"*%%$$%%%@+$$$$$$$%%==========================*%$$$$$$$@@%%%%%%#@",
"*%$$%%%%++$$$$$$$$%*========================*%$$$$$$$$@@%%%%%%@@",
"*%$%%%%%++$$$$$$$$$%*======================*%$$$$$$$$$@@%%%%%%#@",
"%%%%%%%%++@$$$$$$$$$%*====================*%$$$$$$$$$@@@%%%%%%#@",
"OOO.%%%%++@@$$$$$$$$$%*==================*%$$$$$$$$$@@@@%%%%%$@@",
"O.. %%%$++=X@$$$$$$$$$%*================*%$$$$$$$$$@X=@@%%%%$$@@",
"O.. %%$%++==X@$$$$$$$$$%*==============*%$$$$$$$$$@X==@@%%%$$%@@",
"O.. %$$%++===X@$$$$$$$$$%*============*%$$$$$$$$$@X===@@%%$$$%@@",
"O.  $$%%++====X@$$$$$$$$$%*==========*%$$$$$$$$$@X====@@%$%$%%@@",
"O.  $%%$++=====X@$$$$$$$$%%*========*%$$$$$$$$$@X=====@@$%$%%%@@",
".   %%$$++======X@$$$$$$$$%%*======*%$$$$$$$$$@X======@@%$%%%$@@",
"    %$$$++=======X@$$$$$$$$%%*====*%$$$$$$$$$@X=======@@%%%%$$@@",
"*%%%$$$$++========X@$$$$$$$$%%*==*%$$$$$$$$$@X========@@%%%$&$@@",
"*%%$$$$$++=========X@$$$$$$$$%%**%$$$$$$$$$@X=========@@%%$&$%@@",
"*%$$$$$$++==========X@$$$$$$$$%%%$$$$$$$$$@X==========@@%$&&%$@@",
"*%$$$$$$++===========X@$$$$$$$$$$$$$$$$$$@@===========@@$$&&$$@@",
"*%$$$$$%++============X@$$$$$$$$$$$&$$$$@@============@@$&&$$$@@",
"*%$$$$%$++=============@@$$$$$$$$$&&$$$@@=============@@%&&$$$@@",
"*%$$$%%$++==============$@$$$$$$$$&&&$@$==============@@&&$$$$@@",
"*%$$%%$$++===============$$$$$$$$$&&&&$===============@@&&$$$%@@",
"*%$%%%$$++===============$$$$$$$$$$&&&&===============@@&$$$%%@@",
"*%%%%$$$++==============*%$$$$$$$$$&&&&*==============@@&$$%%%@@",
"*%%%$$$$++=============*%$$$$$$$$$$$&&&&*=============@@$$%%%%@@",
"*%%$$$$$++============*%$$$$$$$$&$$$&&&&%*============@@$%%%%%@@",
"%%$$$$$$++===========*%$$$$$$$$$&&&&&&&&$%*===========@@%%%%%%@@",
"%%$$$$$$++==========*%$$$$$$$$$@@&&&&&&&$$%*==========@@%%%%%%@@",
"*%$$$$$#++=========*%$$$$$$$$$@Xo@&&&&&&$$$%*=========@@%%%%%%@@",
"%%$$$$##++========*%$$$$$$$$$@X==o@&&&&$$$$$%*========@@%%%%%%@@",
"*%$$$##$++=======*%$$$$$$$$$@X====o@&&$$$$$$$%*=======@@%%%%%%@@",
"*%$$##$$++======*%$$$$$$$$$@X======o@$$$$$$$$$%*======@@%%%%%%@@",
"*%$#$$$$++=====*%$$$$$$$&&@X========o@$$$$$$$$$%%=====@@%%%%%$@@",
"%%$$$$$$++====*%$$$$$$&&&@X==========X@$$$$$$$$$%%====@@%%%%$$@@",
"*%$$$$$$++===%%$$$$$$&&&@X============X@$$$$$$$$$%%===@@%%%$$$@@",
"*%$$$$$$++==%%$$$$$$&&&@X==============X@$$$$$$$&$%%==@@%%$$$$@@",
"*%$$$$$%++=%%$$$$$$&&&@X================X@$$$$$$$&$%%=@@%$$$$$@@",
"*%$$$$%%++$%$$$$$$&&&@X==================X@$$$$$$&$$%$@@$$$$$$@@",
"*%$$$%%%++%$$$$$$&&&@X====================X@$$$$$&&$$%@@$$$$$$@@",
"*%$$%%%%++$$$$$$$&&@X======================X@$$$$$&&$$@@$$$$$$@@",
"*%$%%%%%++$$$$$$&&@X========================X@$&$$&&&$@@$$$$$$@@",
"*%%%%%%%++$$$$$$&@@==========================X@$&$&&&$@@$$$$$$@@",
"*%%%%%%%++$$$$$&@@============================X@&&&&&&@@$$$$$$@@",
"*%%%%%%%++$$$$&@@==============================@@&&&&&@@$$$$$#@@",
"*%%%%%%$+@%%%%*******************%%*%%%%********%%%%%%$@$$$$#$@@",
"*%%%%%$$@%%***************************%***********%%%%%$$$$#$$@@",
"*%%%%$$$###########$$$##$$$$$$$$$$$&&&$$$$$$$$$$$$$$$$$$$$#$##@@",
"*%$%$$$###@#######$$$##$#$$$$$$$$$$$&&&&&&$$$$$$$$$$$$$$$####$@@",
"*$%$$$###@#######$$$#$$#$$$$$$$$$$$$$$&&&&&&&$$$$$$$$$$$$$##$#@@",
"%%$$$###@@######$$$#$$#$$$$$$$$$$$$$$$$$&&&&&&&&&&$$$$$$###$##@@",
"OOO.###@@######$XXXXXXXXooooooXXXXXXooooooXXXXOOOO####$###$###@@",
"O.. ##@@@#&###$$XXXXXXXXXXXooooooXXXXXXXXXXXXOOOOOO####$#$####@@",
"O.. #@@@#&###$$$XX$$$$$$$$$%%**%%***%%$$$%%%OOOO...O######&###@@",
"O.. @@@#&&##$$$#XX$$$$$$$$%%**%%%%%%%$$$%%%$.O......######&##$@@"
};
