/* XPM */
static const char *weathered_copper_bulb[] = {
/* columns rows colors chars-per-pixel */
"64 64 11 1 ",
"  c #4F5248",
". c #416358",
"X c #6A7147",
"o c #497164",
"O c #748D57",
"+ c #6C975C",
"@ c #64A077",
"# c #66A977",
"$ c #8D8770",
"% c #70B088",
"& c #7AB799",
/* pixels */
"&&&&&&&&&&&&##&&&&&&##&#######&&&&&&&&&&&&###&&&##&###@@@@@@@@@$",
"&&###################################################@++@@++++$X",
"&###@@##@@@@@@@@@++@+@@+++@@@@###@@@##@@+$+++@+@OO+OO+O++++OOOXX",
"&##@###@@@@+@@@@@@++@@++@@@@@#@@@@###@@+++$$++@@@OO+OO+++OO+OOXX",
"&###@@@@@++@@++O            @@@@##@@            O@@++OOO++OOOOXX",
"&##@#@@+@@+++@OO..ooooooooo.@@###@@@ ooooooooo..XO+@++OOOO++OOXX",
"&#@@@@+#&&O+@@OO.oooooooooo.###@@@$$ oooooooooo.XX++O#&&OOOOOOXX",
"&#@@@+#&&#@O++OO.oooooooooo.@###@+$+ oooooooooo.XXOO#&&#@OOOO+XX",
"&#@+++&#@@@X++OO.oooooooooo.#@@++++$ oooooooooo.XXO+&#@@@XOO++XX",
"&#@@++#@O@OX++OO.oooooooooo.@@@@++$$ oooooooooo.XX++#@O@OXOO++XX",
"&#++@@O@@OXXOOOO.oooooooooo.##++$$$$ oooooooooo.XXOOO@@OXXO+O+XX",
"&#@++@@OXXX++OOO.oooooooooo.#++$$$$$ oooooooooo.XX+OOOXXXOO+OOXX",
"&#@@@++OO++OOOOO.ooooooooooo#@$$$$$$ oooooooooo.XX++OOOOOO++O+XX",
"&#@@++++OOOOOOOX.ooooooooooo@$$+$$$+ oooooooooo.XX+++OOOOO+++OXX",
"&#@+@OOOXXXXXXXX.ooooooooooo$##$++$$ oooooooooo.XXXXXXXXXXOO+OXo",
"&#++OOOXXXXXXXXX.ooooooooooo##$$$++$ oooooooooo.XXXXXXXXXXXOO+Xo",
"&#O+            .ooooooooooo@@$++$$+ oooooooooo.            ++XX",
"&#OO ..ooooooooooooooooooooo@+@@++$$ oooooooooooooooooooo.. +OXX",
"&#+O .oooooooooooooooooooooo+@@+++++ ooooooooooooooooooooo. OOXo",
"&#O+ .oooooooooooooooooooooo++++@@++ ooooooooooooooooooooo. OOXo",
"&#++ .oooooooooooooooooooooo++@++@@@ ooooooooooooooooooooo. OOXo",
"&#++ .oooooooooooooooooooooo+++@@@@@ ooooooooooooooooooooo. +OXo",
"&#++ .ooooooooooooooooooooo.@#@@@@@@ ooooooooooooooooooooo. ++Xo",
"&#+@ .ooooooooooooooooooooo.#@@+@@++ ooooooooooooooooooooo. O+Xo",
"&#@@ .ooooooooooooooooooooo.@++@@@@+ ooooooooooooooooooooo. OOXo",
"&#@@ .ooooooooooooooooooooo.++@@@+++ ooooooooooooooooooooo. OOXo",
"&#@+ .ooooooooooooooooooooo.+OOOOOO+ ooooooooooooooooooooo. +OXo",
"&#@+ .......................OOOOOOOO ...................... +OXo",
"&#@@#@######@@##@@@@##++@@+Ooooooooo%#@+++++++OO+$$++++OOO+O++Xo",
"&##@#######@@####@@##@@+++OOoooooooo%%++@@++OO+$$+$$++OOO+OO++Xo",
"&###@#########@@@##@@@++++OOoooooooo%%@@@+OOO+$$++++++OO++O++OXo",
"&&#####&#####@@###@@@@@@++OOoooooooo%%@@+++OOO++++O++O+O+++@+OXo",
"&&&##&&####@@###@@##+++@@+OOoooooooo%%@++@++++++@@+OOO++++@@OOXX",
"&&##&&######@@#@@##++@@+++OOoooooooo%%+@++@@+++++@@+O+++++@+OOXX",
"&&&&###&&########@@@@@++++OOoooooooo%%@@@@@@@++@@@#@@##++@++O+Xo",
"&&&&&#&&#######@@@@@@+++$$+Ooooooooo%###@#@@++@@##@@##++@@+O++Xo",
"&&&&                        %%%%%%%%                        ++XX",
"&&&& .ooooooooooooooooooooo.#%%%%%%# .oooooooooooooooooooo..+@XX",
"&&&# .ooooooooooooooooooooo.+$$++##@ ooooooooooooooooooooo..@@XX",
"&#&& .ooooooooooooooooooooo.$$++##@@ ooooooooooooooooooooo..@@XX",
"&### .ooooooooooooooooooooo.$++@@@#@ ooooooooooooooooooooo..@+XX",
"&### .ooooooooooooooooooooo.+++++@@+ ooooooooooooooooooooo..@+XX",
"&##@ .ooooooooooooooooooooo.++@@+++@ ooooooooooooooooooooo..++XX",
"&##@ .ooooooooooooooooooooo.+@@+++@# ooooooooooooooooooooo..++XX",
"&#@# .ooooooooooooooooooooo.++@@@@@@ ooooooooooooooooooooo..+@XX",
"&#@@ .ooooooooooooooooooooo.@@@@@@@@ ooooooooooooooooooooo..@@XX",
"&#@+ ..oooooooooooooooooooo.#@@#@### oooooooooooooooooooo...@@XX",
"&#++ ............oooooooooo.@@##@@## oooooooooo.............+@XX",
"&#@+@@@@@@@@@@@O.oooooooooo.######@+ oooooooooo.@###########@+Xo",
"&#@++@@@@@@@@@OX.oooooooooo.#####@@@ oooooooooo.+@#########+@+XX",
"##@@++O+++++OOXX.oooooooooo.@##@@@@@ oooooooooo.+++@@@@+@@@+++XX",
"##@@+O++++OO++XX.oooooooooo.#@##@@++ oooooooooo.++#@@#+@@@++++Xo",
"&#@+OO+#&&O++@XX.oooooooooo.@@@++@@+ oooooooooo.++#@##&&O+++@+Xo",
"&#@++O#&&#@O@@XX.oooooooooo.@#++@@+$ oooooooooo.++@@#&&#@O@+@@Xo",
"&#++OO&#@@@X++XX.oooooooooo.#@@$$$$+ oooooooooo.++##&#@@@X@@+@Xo",
"##+OOO#@O@OXO+XX.oooooooooo.@@++$$++ oooooooooo.++@##@O@OX+@@@Xo",
"&#OOOOO@@OXX+OXX.oooooooooo.@++$++$$ oooooooooo.++##O@@OXX++@+XX",
"&#OOO++OXXX+OOXX.oooooooooo.+$$$$++$ ooooooooo..++##@OXXX+@+@+XX",
"&#O+++O++OOOOOXX..ooooooooo.$$+++$$+ ...........+#@@++@@@++@@+Xo",
"&#OO+++OOOOOO++X            $+++$++$            @@@@+#@@+++@++Xo",
"##OOOOOOOOO+++@@##@@#@@@+$$$++$$$$++$$+OO+++@@@@@@###@++++++++Xo",
"##OOOOOOO++O+++@@###@@++++$$+$$$+++$$+OO+++@+++@##@#++@+++++++Xo",
"#OXXXOOOOXXOXXXXXXXXXXXXXXXXXXXXXXXXXXXXXXXXXXXXXXXXXXXXXXXXXXoX",
"OXXXoooXXXooXXXXooXXooooXXXXXXXXooooooXXXXooXoooooXXooooXXooooXX"
};
