/* XPM */
static const char *white_tulip[] = {
/* columns rows colors chars-per-pixel */
"64 64 8 1 ",
"  c #177C04",
". c #4A8F28",
"X c #529A2E",
"o c #55AB2D",
"O c #9BBDBD",
"+ c #D6E8E8",
"@ c gray97",
"# c None",
/* pixels */
"################################################################",
"################################################################",
"################################################################",
"################################################################",
"################################################################",
"################################################################",
"################################################################",
"################################################################",
"################################################################",
"################################################################",
"################################################################",
"################################################################",
"########################@####@@####O############################",
"########################@@##@@++##O+############################",
"########################+@@++++@@+++############################",
"########################@++O++++@@++############################",
"########################@@++OOO+++@+############################",
"########################@@+++OOOO@@+############################",
"########################+@@++@@++@@+############################",
"########################+@@+@@@+@@@+############################",
"########################+@@+@+@@@@+O############################",
"########################++@@@+@@@++O############################",
"#########################O@@+++@++O#############################",
"#########################O+@++@++OO#############################",
"##########################O+@+++OO#########X####################",
"###########################O++OOO#########.X####################",
"############################OOOO#########.Xo####################",
"#############################OO##########.oo####################",
"#############################  #########.XoX####################",
"#############################  #########XXXX####################",
"#############################. ########.XX.X####################",
"#############################X #######.XX..o####################",
"#############################X.######XoXX.Xo####################",
"#############################XX######oXX.Xoo####################",
"#############################.X#####XoXXXXoo####################",
"#############################X.#####ooXXXXoX####################",
"#############################o.####XoXX.XXo.####################",
"#############################o ####ooX.XXoX.####################",
"#############################o ####oXX.XXoX ####################",
"#############################o ###XoX..Xoo. ####################",
"################Xooo#########o ###oXX.XXoX. ####################",
"################XXXooo#######o ###oXX.XXoX.#####################",
"################XooXXoo######X.##.XX.XXoo. #####################",
"#################XooXXoo#####X.## XX.XXoo. #####################",
"##################XXoXXXo####o.## X.XXXoX.######################",
"###################Xoo.Xoo###oX#  ..XXoX. ######################",
"####################XoX.XoXX#X.# ..X.XXX.#######################",
"####################XoX.XXoXXX.. ..X..X. #######################",
"#####################.oX.XooXX.. .XX.X. ########################",
"#####################.oo..XoX..  .X..X  ########################",
"######################XoX.XoX.. .X..X. #########################",
"######################XoXXXo... XX ... #########################",
"#######################.XXXX.. .X. .. ##########################",
"####################### X.XX...XX ... ##########################",
"########################..X.X.XX. .. ###########################",
"########################..XXX.XX  .  ###########################",
"######################## ..XX.X.    ############################",
"#########################  .XX..   #############################",
"##########################  .X.   ##############################",
"############################ .. ################################",
"#############################. #################################",
"#############################  #################################",
"#############################  #################################",
"#############################  #################################"
};
