/* XPM */
static const char *white_concrete[] = {
/* columns rows colors chars-per-pixel */
"64 64 2 1 ",
"  c #D1D7D7",
". c #D1D7D8",
/* pixels */
".  .                    .  .  ..       .                       .",
"  ...    .     .   .   .  ... ..     .          .               ",
"             ..  .      ......      .  .               .   .    ",
".       .  .  .....  .  .. ...  .      . .  ..  .     ...  .  . ",
".   .    . .  . .     ..   ..           . .....  .        .  .  ",
".       ..  . . .      .  ...                 .. ..    . .   .  ",
"  . .    . .   .       .  .   .     .          ....             ",
"... .. . .   .        .   . .                 . . .  .          ",
"....         ..  .        .  .    .  .  . ..  .. . .     . .  . ",
". .          .  ..        ..     .        .. .. .        .   .  ",
".     ..       .. .              . .    .       ... ...        .",
".    .... .     .     . .       . ..    .  ...  . .  .       .. ",
"       . .       .  .          .........  ....  .   .  . .  . . ",
" .     .  .      ...  .....    . . .      . ..   .              ",
". .          .    . .     .        .. ..     .     .    .       ",
"  .. .            .   ...  .         ..    ....  .  .    .      ",
" .  .          .          . .  .  .       .   . ..      .  .    ",
"    .       ..       .  ..   .     ..     .      . .            ",
"  ....    .  .           ..   .   .       .   .       .   ..   .",
" . . .           .    .        ..   . .       . ...          .  ",
".. ...     .                    . . .. ... . .    . . .   .     ",
".  .  .   .        .       .      . . ... ..          ... .  ...",
" ...   . ... .  .               .. ...... .           . ...     ",
"   .     ... ..   .       .    .  .   .. .... .    .   .      ..",
". . . .     .. .  .        .     ..   ..   ...      .      .    ",
"..   .   .         ...   .. . .  .       . ....     . ...       ",
".         .       . ..      . .      .....   .        .     .   ",
"..                .. ..                .. ..        .      .    ",
"  .    ..   .     .....   .     .      ..   .           .  .    ",
"        .   .  . .. .   . .     ....   ....   .             ..  ",
"  .   .   ..  .   ..       ..   . ...   ... .              .. . ",
"      ... ..  .....     .  ...         .. .              . ...  ",
"   .    ...  .  .    .. .   .     ..     .                 ...  ",
"      ... .  . .  ..    .  .. . .      . ...       . .     ...  ",
"      ..         .  ..  . .   . .               ....  . .  ...  ",
"        ..     .  .         .  .            .     .  .   .  .. .",
".    .  .     . ..       ..             . .       ..  ..  .  ...",
"   . ... .       .     .      .          .  .    . ... .  .    .",
"    ...  ..   .. . ..   ...                .  ..  . ....... ....",
"     .  ...    .     . .  .             .. .   .    .. ....    .",
" .      ..             . .               . .  .    ...       ...",
"        .   ..    .        ...                    .   .        .",
"        ... . ...        .        ..      .                   ..",
"          .. .....         .     .      .....                   ",
". .   ... .    .. .    .          ..     ....           .    .  ",
" ..    .    .  ...    .  .   .   .  .  .  .. .. ..    .    ...  ",
".     ..........  .             . ..    ..... ...        .      ",
"    . . ..    .     .       .      .       .... .   .    .      ",
"      .  ... . .   . . ..     .    .      ......               .",
"  .  . ... ..  . ... ..    . .         .    ..... .             ",
"  . ....           . ..  ...  .               .  .   . .       .",
".. .  ..             . . . .          . .   ..     . ..  .   .. ",
" ..    ... .      .      ..  .    .       . ...             ... ",
"       ...        ..      . . .....   .   . . ...  .      . .   ",
"       .  .               . .    .          ...  .              ",
"..    .                          ... .       ..  .              ",
"..   .         .                 .   .    .. .    . .      ..   ",
" . .      .  .  ...         .    .. .. . .. ..       .. ...  .  ",
"..            . .   . ..      .. .....   ...           .. . .   ",
"                           . ......    .          . ....  .     ",
"                 .    .     .  .. .       ..              .. . .",
"                          .. ... . .    ....         .   ...    ",
"        . .           .   . . .    .    ..             ... ... .",
"         .               .. ...              .. .         ..  . "
};
