/* XPM */
static const char *yellow_glazed_terracotta[] = {
/* columns rows colors chars-per-pixel */
"64 64 7 1 ",
"  c #A4764C",
". c #AD7C50",
"X c #F2B015",
"o c #FED83D",
"O c #FEDE5F",
"+ c #FFEC9D",
"@ c #FFF3C4",
/* pixels */
"ooooXXo+++++++++++++++++++++X+++++Ooooooooooooo+++X             ",
"ooooXXo+++++++++++++++++++++Xo++++Ooooooooooooo+++X.            ",
"oooXXX++++++++++++++++++++++oX+++++Oooooooooooo+++oX            ",
"ooXXXo+++++++++++++++++++++++Xo++++Oooooooooooo++++X.           ",
"XXXXo++++++++++++++++++++++++oXo++++OoooooooooO++++XX           ",
"XXXo+++++++++oXXXXXXXXo+++++++oXo++++OoooooooO++++oXX.          ",
"oo+++++++++oXXoo++++ooXXo++++++oXo+++++++++++++++oXooX          ",
"+++++++++oXXo++++++++++oXXo+++++oXo++++++++++++++oXooX.         ",
"++++++++oXo++++++++++++++oXo+++++oXXo+++++++++++oXooooX.        ",
"+++++++oXo++++++++++++++++oXo++++++oXXo++++++++oXooooooX.       ",
"+++++++Xo+++++OOooooOO+++++oX++++++++oXXXo++++oXooooooooXX.     ",
"++++++oX++++OooooooooooO++++Xo++++++++++oXXXXXXoooooooooooXX.   ",
"++++++Xo+++OooooooooooooO+++oX+++++++++++++++oXoooooooooooooXX. ",
"+++++oX++++oooooooooooooo++++Xo+++++++++++++++oXooooooooooooooXX",
"+++++Xo+++OooooooooooooooO+++oX+++++++++@@@@@@+oXooooooooooooooo",
"+++++Xo+++OooooooooooooooO+@+oX++++++++++@@@@@@+oXoooooooooooooo",
"+++++X++++oooooooooooooooo+@@+X++++++oXXXXXXo@@@+oXooooooooooooo",
"+++++X++++oooooooooooooooo@@@+X+++++oXXXXXXXXo@@@+oXoooooooooooo",
"+++++X++++oooooooooooooooo@@@+X+++++XXXXXXXXXXo@@@+oXooooooooooo",
"+++++X++++oooooooooooooooo@@@+X++@++XXXXXXXXXXXo@@@+Xooooooooooo",
"+++++Xo+++OooooooooooooooO@@@oX++@++XXXXXXXXXXXXo@@+oXoooooooooo",
"+++++Xo+++OooooooooooooooO@@+oX++@++XXXXXXXXXXXXX+@@+Xoooooooooo",
"+++++oX++++oooooooooooooo@@@+Xo+@@++XXXXXXXXXXXXXo+@+oXooooooooo",
"++++++Xo+++OooooooooooooO@@@oX++@@++XXXXXXXXXXXXXX++++Xooooooooo",
"++++++oX++++OooooooooooO@@@@Xo+@@+++oXXXXXXXXXXXXXo+++oXoooooooo",
"+++++++Xo+++++OOooooOO@@@@@oX++@@++++oXXXXXXXXXXXXX++++Xoooooooo",
"+++++++oXo+++++++@@@@@@@@@oXo+@@++++++oXXXXXXXXXXXXo+++oXooooooo",
"++++++++oXo++++@@@@@@@@@@oXo+@@+++++++@oXXXXXXXXXXXX++++Xooooooo",
"XXo++++++oXXo+++@@@@@++oXXo+@@+++oo+++@@oXXXXXXXXXXX++++oXoooooo",
"+oXXo++++++oXXoo++++ooXXo++@@++oXXXXo++@@oXXXXXXXXXX+++++Xoooooo",
"+++oXo+++++++oXXXXXXXXo+++@@++oX....Xo+@@@oXXXXXXXXX++++@Xoooooo",
"++++oXo+++++++++++++++++@@@++oX.    .Xo@@@@oXXXXXXXX++++@XXXXXXX",
"+++++oXo++++++++++++++@@@@+++X.      .Xo@@@@oXXXXXXX+++@@X.     ",
"++++++oXo++++++++++@@@@@++++oX.       .Xo@@@@oXXXXXX+++@@X      ",
"OO+++++oX+++++++++++++++++++oX.        .Xo@@@@oXXXXX+++@+X      ",
"ooOO++++Xo+++++++++++++++++++X.         .Xo@@@@oXXXX++@@oX      ",
"ooooO+++oX+++++++oXXXXXXo++++oX.         .Xo@@@@++++++@@X.      ",
"oooooO+++Xo+++++oXXXXXXXXo++++oX.         .Xo+@@+++++@@+X       ",
"oooooo+++oX+++++XXXXXXXXXXo@@++oX.         .Xoo++++++@+o.       ",
"oooooo++++X+++++XXXXXXXXXXXo@@@@oX.          .Xo++++@+o.        ",
"oooooo++++Xo++@+XXXXXXXXXXXXo@@@@oX.           .XXXXXX.         ",
"oooooo++++oX++@@XXXXXXXXXXXXXo@@@@oX.                           ",
"oooooo+++++X++@@XXXXXXXXXXXXXXo@@@@oX.                          ",
"oooooo+++++X++@@XXXXXXXXXXXXXXXo@@@@oX.                       ..",
"oooooo+++++X++@@oXXXXXXXXXXXXXXXo@@@@oX                  .XXXXXX",
"oooooO+++++Xo+@@@oXXXXXXXXXXXXXXXo@@@+o.               .XXXXXXXX",
"ooooO+++++oXXo+@@@oXXXXXXXXXXXXXXXo@@@oX             .XXXXXXXXXX",
"+++++++++oXooXo+@@@oXXXXXXXXXXXXXXXo@@+o.          .XXXXXXXXXXXX",
"++++++++oXooooXo+@@@oXXXXXXXXXXXXXXX++++X         .XXXXXXX.     ",
"++++++ooXooooooXo+@@@+oXXXXXXXXXXXXX++++X        .XXXXXX.       ",
"XXo++oXXooooooooXo+@@@++oXXXXXXXXXXX++++X       .XXXXX.         ",
" .XXXXoooooooooooXo++@@+++oXXXXXXXXX++++X      .XXXXX.          ",
"   .XXooooooooooooXXo++++++++++++++++++@X      XXXXX.           ",
"     .XXooooooooooooXXo++++++++++++++@@+X     .XXXX.           .",
"       .XoooooooooooooXXo++++++++++@@@+o.     XXXX.          .XX",
"        .XooooooooooooooXXo+++++@@@@@+o.     .XXXX         .XXXX",
"         .XoooooooooooooooXXo+@@@@+oXX.      XXXX.       .XXXXXX",
"          XoooooooooooooooooXXXXXXXX.       .XXXX       .XXXXXXX",
"          .XoooooooooooooooooooX.           XXXX.       XXXXXXXX",
"           XoooooooooooooooooooX            XXXX       .XXXXXXXX",
"           .XooooooooooooooooooX            XXXX       XXXXXXX. ",
"            XooooooooooooooooooX            XXXX      .XXXXXX.  ",
"            .XoooooooooooooooooX           .XXXX      XXXXXX.   ",
"             XoooooooooooooooooX           .XXXX     .XXXXXX    "
};
