/* XPM */
static char *_8868a4e20384d18ecbc9187e666b08eRohXIlVv0Em1oqv7[] = {
/* columns rows colors chars-per-pixel */
"32 32 136 2 ",
"   c #4F5E35",
".  c #515D35",
"X  c #525C3E",
"o  c #526136",
"O  c #56653A",
"+  c #58653A",
"@  c #576A3B",
"#  c #596C3C",
"$  c #5D723E",
"%  c #5F783E",
"&  c #61773F",
"*  c #61793E",
"=  c #525743",
"-  c #555E43",
";  c #52584C",
":  c #595E49",
">  c #555555",
",  c #565C50",
"<  c #5C5E55",
"1  c #5C5C5C",
"2  c #566342",
"3  c #596344",
"4  c #5C6B45",
"5  c #5C634D",
"6  c #5E6D49",
"7  c #5E7240",
"8  c #5F6750",
"9  c #5E6458",
"0  c #646F4E",
"q  c #627543",
"w  c #657B42",
"e  c #687D45",
"r  c #64754A",
"t  c #6A794E",
"y  c #606653",
"u  c #626C52",
"i  c #61645B",
"p  c #67695E",
"a  c #696C5F",
"s  c #657252",
"d  c #697456",
"f  c #6B7C52",
"g  c #6A725B",
"h  c #6E7C5B",
"j  c #737F57",
"k  c #717A5F",
"l  c #646464",
"z  c #686667",
"x  c #676B64",
"c  c #6B6D63",
"v  c #6B6B6B",
"b  c #6C7063",
"n  c #747E64",
"m  c #717469",
"M  c #737373",
"N  c #7B7B73",
"B  c #7A7A7A",
"V  c #6B8047",
"C  c #6E834A",
"Z  c #71844D",
"A  c #74894E",
"S  c #768951",
"D  c #798E52",
"F  c #74855B",
"G  c #77885E",
"H  c #79895D",
"J  c #7B9153",
"K  c #7D8C63",
"L  c #7C866B",
"P  c #7D8174",
"I  c #808F66",
"U  c #829166",
"Y  c #849368",
"T  c #858E73",
"R  c #82827F",
"E  c #858A7C",
"W  c #888C7D",
"Q  c #8C967B",
"!  c #8D987A",
"~  c #858786",
"^  c #868686",
"/  c #818181",
"(  c #8C8C84",
")  c #898886",
"_  c #878988",
"`  c #888888",
"'  c #898989",
"]  c #888A89",
"[  c #89898B",
"{  c gray56",
"}  c #898989",
"|  c #8C9082",
" . c #8E9488",
".. c #919B80",
"X. c #95978A",
"o. c #90908E",
"O. c #94988A",
"+. c #979B8D",
"@. c #979C8E",
"#. c #909090",
"$. c gray57",
"%. c #909092",
"&. c #919193",
"*. c #959595",
"=. c #949695",
"-. c #909090",
";. c #979D91",
":. c #999798",
">. c #989898",
",. c #98989A",
"<. c #9F9F9F",
"1. c #999999",
"2. c #A0A09E",
"3. c #A1A19F",
"4. c #A5A99A",
"5. c #A6AA9C",
"6. c #A0A0A0",
"7. c gray63",
"8. c #A0A0A2",
"9. c #A4A4A4",
"0. c #A5A5A5",
"q. c #A2A2A2",
"w. c #A8A8A6",
"e. c #A9A7A8",
"r. c #A7A9A8",
"t. c gray66",
"y. c #A9A9A9",
"u. c gray67",
"i. c #ACACAC",
"p. c gray68",
"a. c #AFAFAF",
"s. c #ABABAB",
"d. c #AFAFB1",
"f. c gray70",
"g. c #B4B4B4",
"h. c #B5B5B5",
/* pixels */
"# O @ 3 M %.%.M 3 # & $ w w o # e S e $ o O v ~ 6.y.y.3.h.%.P Z ",
"V $ o W a.d.r.%.P o @ @ # o $ Z D D D Z e 7 4 v ] %.9.a.9./ P e ",
"w # # A 4.a.9.>.6.N o o o $ w $ S J A V e M 2 2 l / 6.%./ / M k ",
"@ O ..f.w.y.6.y.{ ( 4 o # Z S D D D Z w m / l o 4 l B B v l / M ",
"5 E a.y.6.%.6.%.%.M X # w S e S D H $ h B B v $ @ 2 l B ] B M v ",
"l B y.o.>.%./ / M l 9 o e e V w j 6.s / / i @ V * @ o 5 l > l z ",
"1 1 / >.B / / M b : O 6 %.f $ q n B B M M o $ q C e # O @ 2 5 , ",
"3 5 l B v l l s o 6 l l B v $ # / M M / v 0 $ $ D S e * O o $ @ ",
"o i 1 l 5 - o K +.=.B l > M r $ / / l M ] ! $ V C J S e * $ $ $ ",
"v l l 2 7 Z Y f.f.d.9.] 1 1 u h M l v 9.y.a.e I e S e e $ * 4 9 ",
"a.=.b o Z D D Y a.y.y.6.R l 1 < l 1 ] %.%.6.I <.I W Z f $ o v =.",
"a.a.;.. $ C Z V T >.6.6.>.M l 1 > l B %.>.6.E X.>./ f M 3 c 6.a.",
"y.6.>.s @ q w $ F :.3.B %.B v 1 : O o O n 6.6.%.] M l v 1 ] a.y.",
"%.y.%.M 2 @ # 0 >.6.] / / v l 4 o # $ o O s %.>.M l M v 1 %.9.>.",
"%.B _ M v q $ @ f / / M M l 4 o $ C Z Z $ @ - v B M B v > v 6.6.",
"] ] M 9 @ . # # o # h l v 5 O w D S D S V * O 3 M / ] 1 1 l v B ",
"l p 8 o e D S D V O o @ i X $ I S H U V e Z Z # o b v l 1 l v l ",
"3 @ @ $ J S S D D q # o 2 l f a.H y.O.$ E Z e # $ O l 3 . = l v ",
"# # $ V D Z e C w e Z e @ < / 6.>.>./ / h $ e * $ O O # # O 3 l ",
"b b # e Z * w e w V w $ O < l ~ %.B M f $ * $ $ O + # * $ 4 O g ",
"%.u $ * * * 7 V $ @   5 M z 1 l l B ] M a 6 $ O o # * $ e w G 6.",
">.B 2 @ & $ $ @ O . 5 1 5 O # u v i v l l $ $ o @ $ $ Z * T %.a.",
"/ M l o + 3 o # c 4 . 3 O & A D Z n / v l 5 # # % L y.K ! a.a.0.",
"B v l u 2 M g O o O $ # w D C S S C G ] v > X u l ] y.| a.<.%.R ",
"B l y # q D D e $ @ o % A D w e V H Z Q / v l i i M / / ) B B M ",
"v 3 $ $ Z D Z V 6.v 3 q D Z Z e e >.t #.>.v l 3 o 5 c / M R B / ",
"5 O A C w Q I F %./ l O D Z V / j / M / ] v l 9 $ $ @ - 1 v M l ",
"o e S U ! y.@.n M / v o q C d l M ] R B / l l i * w s l 1 ; u - ",
"q Z K 6. .6.%./ M v 5 5 o # v l B ] M M l l > h Z +./ l 4 * $ o ",
"O T Z F ] ] / M B l v l 2 . l v l v l l v 1 ~ a.5.a.f.9.B r o . ",
"2 B ] ] M M i m l 9 : $ $ o 4 v l 1 y p l v %.9.y.y.a.h.9.B p $ ",
"* o y l l l v : @ o @ @ * # O o X 4 # o c l M 6.e.y.a.i.>.%.v i "
};
